<?xml version="1.0" encoding="UTF-8" standalone="no"?>
<!DOCTYPE svg PUBLIC "-//W3C//DTD SVG 1.1//EN"
 "http://www.w3.org/Graphics/SVG/1.1/DTD/svg11.dtd">
<!-- Generated by graphviz version 2.43.0 (0)
 -->
<!-- Title: slick::orderbook::OrderBookL2 Pages: 1 -->
<svg width="718pt" height="1070pt"
 viewBox="0.00 0.00 718.00 1070.00" xmlns="http://www.w3.org/2000/svg" xmlns:xlink="http://www.w3.org/1999/xlink">
<g id="graph0" class="graph" transform="scale(1 1) rotate(0) translate(4 1066)">
<title>slick::orderbook::OrderBookL2</title>
<!-- Node1 -->
<g id="Node000001" class="node">
<title>Node1</title>
<g id="a_Node000001"><a xlink:title="Level 2 OrderBook &#45; aggregated price levels.">
<polygon fill="#999999" stroke="transparent" points="436.5,-244 277.5,-244 277.5,0 436.5,0 436.5,-244"/>
<text text-anchor="start" x="283.5" y="-232" font-family="Helvetica,sans-Serif" font-size="10.00">slick::orderbook::OrderBookL2</text>
<text text-anchor="start" x="282" y="-217" font-family="Helvetica,sans-Serif" font-size="10.00">#</text>
<text text-anchor="start" x="295" y="-217" font-family="Helvetica,sans-Serif" font-size="10.00">symbol_</text>
<text text-anchor="start" x="282" y="-202" font-family="Helvetica,sans-Serif" font-size="10.00">#</text>
<text text-anchor="start" x="295" y="-202" font-family="Helvetica,sans-Serif" font-size="10.00">last_seq_num_</text>
<text text-anchor="start" x="282" y="-187" font-family="Helvetica,sans-Serif" font-size="10.00">#</text>
<text text-anchor="start" x="295" y="-187" font-family="Helvetica,sans-Serif" font-size="10.00">change_starting_index_</text>
<text text-anchor="start" x="282" y="-172" font-family="Helvetica,sans-Serif" font-size="10.00">+</text>
<text text-anchor="start" x="295" y="-172" font-family="Helvetica,sans-Serif" font-size="10.00">OrderBookL2()</text>
<text text-anchor="start" x="282" y="-157" font-family="Helvetica,sans-Serif" font-size="10.00">+</text>
<text text-anchor="start" x="295" y="-157" font-family="Helvetica,sans-Serif" font-size="10.00">~OrderBookL2()</text>
<text text-anchor="start" x="282" y="-142" font-family="Helvetica,sans-Serif" font-size="10.00">+</text>
<text text-anchor="start" x="295" y="-142" font-family="Helvetica,sans-Serif" font-size="10.00">OrderBookL2()</text>
<text text-anchor="start" x="282" y="-127" font-family="Helvetica,sans-Serif" font-size="10.00">+</text>
<text text-anchor="start" x="295" y="-127" font-family="Helvetica,sans-Serif" font-size="10.00">operator=()</text>
<text text-anchor="start" x="282" y="-112" font-family="Helvetica,sans-Serif" font-size="10.00">+</text>
<text text-anchor="start" x="295" y="-112" font-family="Helvetica,sans-Serif" font-size="10.00">OrderBookL2()</text>
<text text-anchor="start" x="282" y="-97" font-family="Helvetica,sans-Serif" font-size="10.00">+</text>
<text text-anchor="start" x="295" y="-97" font-family="Helvetica,sans-Serif" font-size="10.00">operator=()</text>
<text text-anchor="start" x="282" y="-82" font-family="Helvetica,sans-Serif" font-size="10.00">+</text>
<text text-anchor="start" x="295" y="-82" font-family="Helvetica,sans-Serif" font-size="10.00">symbol()</text>
<text text-anchor="start" x="282" y="-67" font-family="Helvetica,sans-Serif" font-size="10.00">+</text>
<text text-anchor="start" x="295" y="-67" font-family="Helvetica,sans-Serif" font-size="10.00">updateLevel()</text>
<text text-anchor="start" x="282" y="-52" font-family="Helvetica,sans-Serif" font-size="10.00">+</text>
<text text-anchor="start" x="295" y="-52" font-family="Helvetica,sans-Serif" font-size="10.00">deleteLevel()</text>
<text text-anchor="start" x="282" y="-37" font-family="Helvetica,sans-Serif" font-size="10.00">+</text>
<text text-anchor="start" x="295" y="-37" font-family="Helvetica,sans-Serif" font-size="10.00">clearSide()</text>
<text text-anchor="start" x="295" y="-22" font-family="Helvetica,sans-Serif" font-size="10.00">and 16 more...</text>
<text text-anchor="start" x="282" y="-7" font-family="Helvetica,sans-Serif" font-size="10.00">#</text>
<text text-anchor="start" x="295" y="-7" font-family="Helvetica,sans-Serif" font-size="10.00">notifyTopOfBookIfChanged()</text>
<polygon fill="#666666" stroke="#666666" points="278,-227 278,-227 437,-227 437,-227 278,-227"/>
<polygon fill="#666666" stroke="#666666" points="278,-182 278,-182 293,-182 293,-182 278,-182"/>
<polygon fill="#666666" stroke="#666666" points="293,-182 293,-182 437,-182 437,-182 293,-182"/>
<polygon fill="none" stroke="#666666" points="277.5,0 277.5,-244 436.5,-244 436.5,0 277.5,0"/>
</a>
</g>
</g>
<!-- Node2 -->
<g id="Node000002" class="node">
<title>Node2</title>
<g id="a_Node000002"><a xlink:title=" ">
<polygon fill="white" stroke="transparent" points="200,-687 24,-687 24,-616 200,-616 200,-687"/>
<text text-anchor="start" x="29" y="-674.5" font-family="Helvetica,sans-Serif" font-size="10.00">std::array&lt; slick::</text>
<text text-anchor="start" x="29" y="-663.5" font-family="Helvetica,sans-Serif" font-size="10.00">orderbook::detail::LevelContainer,</text>
<text text-anchor="start" x="80" y="-652.5" font-family="Helvetica,sans-Serif" font-size="10.00"> SideCount &gt;</text>
<text text-anchor="start" x="110" y="-637.5" font-family="Helvetica,sans-Serif" font-size="10.00"> </text>
<text text-anchor="start" x="110" y="-622.5" font-family="Helvetica,sans-Serif" font-size="10.00"> </text>
<polygon fill="#666666" stroke="#666666" points="24,-647.5 24,-647.5 200,-647.5 200,-647.5 24,-647.5"/>
<polygon fill="#666666" stroke="#666666" points="24,-632.5 24,-632.5 200,-632.5 200,-632.5 24,-632.5"/>
<polygon fill="none" stroke="#666666" points="24,-616 24,-687 200,-687 200,-616 24,-616"/>
</a>
</g>
</g>
<!-- Node2&#45;&gt;Node1 -->
<g id="edge1_Node000001_Node000002" class="edge">
<title>Node2&#45;&gt;Node1</title>
<g id="a_edge1_Node000001_Node000002"><a xlink:title=" ">
<path fill="none" stroke="#63b8ff" d="M103.57,-615.95C89.54,-550.48 67.83,-405.67 121,-302 152.01,-241.53 213.89,-195.8 266.51,-165.69"/>
<polygon fill="none" stroke="#63b8ff" points="266.76,-165.55 270.05,-159.13 277.24,-159.69 273.95,-166.11 266.76,-165.55"/>
</a>
</g>
<text text-anchor="middle" x="142.5" y="-414" font-family="Helvetica,sans-Serif" font-size="10.00" fill="grey"> #sides_</text>
</g>
<!-- Node3 -->
<g id="Node000003" class="node">
<title>Node3</title>
<g id="a_Node000003"><a xlink:href="classslick_1_1orderbook_1_1detail_1_1LevelContainer.html" target="_top" xlink:title="Container for storing sorted price levels Uses a sorted vector for cache&#45;friendly storage (optimal fo...">
<polygon fill="white" stroke="transparent" points="122,-966 0,-966 0,-756 122,-756 122,-966"/>
<text text-anchor="start" x="5" y="-954" font-family="Helvetica,sans-Serif" font-size="10.00">slick::orderbook::detail</text>
<text text-anchor="start" x="21" y="-943" font-family="Helvetica,sans-Serif" font-size="10.00">::LevelContainer</text>
<text text-anchor="start" x="59" y="-928" font-family="Helvetica,sans-Serif" font-size="10.00"> </text>
<text text-anchor="start" x="8.5" y="-913" font-family="Helvetica,sans-Serif" font-size="10.00">+</text>
<text text-anchor="start" x="26" y="-913" font-family="Helvetica,sans-Serif" font-size="10.00">LevelContainer()</text>
<text text-anchor="start" x="8.5" y="-898" font-family="Helvetica,sans-Serif" font-size="10.00">+</text>
<text text-anchor="start" x="26" y="-898" font-family="Helvetica,sans-Serif" font-size="10.00">LevelContainer()</text>
<text text-anchor="start" x="8.5" y="-883" font-family="Helvetica,sans-Serif" font-size="10.00">+</text>
<text text-anchor="start" x="26" y="-883" font-family="Helvetica,sans-Serif" font-size="10.00">side()</text>
<text text-anchor="start" x="8.5" y="-868" font-family="Helvetica,sans-Serif" font-size="10.00">+</text>
<text text-anchor="start" x="26" y="-868" font-family="Helvetica,sans-Serif" font-size="10.00">size()</text>
<text text-anchor="start" x="8.5" y="-853" font-family="Helvetica,sans-Serif" font-size="10.00">+</text>
<text text-anchor="start" x="26" y="-853" font-family="Helvetica,sans-Serif" font-size="10.00">empty()</text>
<text text-anchor="start" x="8.5" y="-838" font-family="Helvetica,sans-Serif" font-size="10.00">+</text>
<text text-anchor="start" x="26" y="-838" font-family="Helvetica,sans-Serif" font-size="10.00">operator[]()</text>
<text text-anchor="start" x="8.5" y="-823" font-family="Helvetica,sans-Serif" font-size="10.00">+</text>
<text text-anchor="start" x="26" y="-823" font-family="Helvetica,sans-Serif" font-size="10.00">at()</text>
<text text-anchor="start" x="8.5" y="-808" font-family="Helvetica,sans-Serif" font-size="10.00">+</text>
<text text-anchor="start" x="26" y="-808" font-family="Helvetica,sans-Serif" font-size="10.00">best()</text>
<text text-anchor="start" x="8.5" y="-793" font-family="Helvetica,sans-Serif" font-size="10.00">+</text>
<text text-anchor="start" x="26" y="-793" font-family="Helvetica,sans-Serif" font-size="10.00">find()</text>
<text text-anchor="start" x="8.5" y="-778" font-family="Helvetica,sans-Serif" font-size="10.00">+</text>
<text text-anchor="start" x="26" y="-778" font-family="Helvetica,sans-Serif" font-size="10.00">find()</text>
<text text-anchor="start" x="26" y="-763" font-family="Helvetica,sans-Serif" font-size="10.00">and 14 more...</text>
<polygon fill="#666666" stroke="#666666" points="0,-938 0,-938 122,-938 122,-938 0,-938"/>
<polygon fill="#666666" stroke="#666666" points="0,-923 0,-923 122,-923 122,-923 0,-923"/>
<polygon fill="none" stroke="#666666" points="0,-756 0,-966 122,-966 122,-756 0,-756"/>
</a>
</g>
</g>
<!-- Node3&#45;&gt;Node2 -->
<g id="edge2_Node000002_Node000003" class="edge">
<title>Node3&#45;&gt;Node2</title>
<g id="a_edge2_Node000002_Node000003"><a xlink:title=" ">
<path fill="none" stroke="#63b8ff" d="M50.99,-755.76C52.32,-738.37 55.6,-720.85 62,-705 63.07,-702.34 64.35,-699.74 65.79,-697.21"/>
<polygon fill="none" stroke="#63b8ff" points="65.81,-697.18 65.83,-689.96 72.49,-687.21 72.47,-694.42 65.81,-697.18"/>
</a>
</g>
<text text-anchor="middle" x="91" y="-719" font-family="Helvetica,sans-Serif" font-size="10.00" fill="grey"> +elements</text>
</g>
<!-- Node4 -->
<g id="Node000004" class="node">
<title>Node4</title>
<g id="a_Node000004"><a xlink:title=" ">
<polygon fill="white" stroke="transparent" points="325,-885.5 239,-885.5 239,-836.5 325,-836.5 325,-885.5"/>
<text text-anchor="start" x="244" y="-873" font-family="Helvetica,sans-Serif" font-size="10.00">std::array&lt; T &gt;</text>
<text text-anchor="start" x="280" y="-858" font-family="Helvetica,sans-Serif" font-size="10.00"> </text>
<text text-anchor="start" x="280" y="-843" font-family="Helvetica,sans-Serif" font-size="10.00"> </text>
<polygon fill="#666666" stroke="#666666" points="239,-868 239,-868 325,-868 325,-868 239,-868"/>
<polygon fill="#666666" stroke="#666666" points="239,-853 239,-853 325,-853 325,-853 239,-853"/>
<polygon fill="none" stroke="#666666" points="239,-836.5 239,-885.5 325,-885.5 325,-836.5 239,-836.5"/>
</a>
</g>
</g>
<!-- Node4&#45;&gt;Node2 -->
<g id="edge3_Node000002_Node000004" class="edge">
<title>Node4&#45;&gt;Node2</title>
<g id="a_edge3_Node000002_Node000004"><a xlink:title=" ">
<path fill="none" stroke="orange" d="M246.65,-829.5C220.78,-806.08 185.82,-772.08 160,-738 148.07,-722.26 137.1,-703.23 128.66,-687.12"/>
<polygon fill="orange" stroke="orange" points="244.59,-832.35 254.37,-836.41 249.26,-827.13 244.59,-832.35"/>
</a>
</g>
<text text-anchor="start" x="160" y="-730" font-family="Helvetica,sans-Serif" font-size="10.00" fill="grey"> &lt; slick::orderbook</text>
<text text-anchor="start" x="160" y="-719" font-family="Helvetica,sans-Serif" font-size="10.00" fill="grey">::detail::LevelContainer,</text>
<text text-anchor="middle" x="218.5" y="-708" font-family="Helvetica,sans-Serif" font-size="10.00" fill="grey"> SideCount &gt;</text>
</g>
<!-- Node8 -->
<g id="Node000008" class="node">
<title>Node8</title>
<g id="a_Node000008"><a xlink:title=" ">
<polygon fill="white" stroke="transparent" points="342.5,-676 217.5,-676 217.5,-627 342.5,-627 342.5,-676"/>
<text text-anchor="start" x="223" y="-663.5" font-family="Helvetica,sans-Serif" font-size="10.00">std::array&lt; uint8_t, 2 &gt;</text>
<text text-anchor="start" x="236.5" y="-648.5" font-family="Helvetica,sans-Serif" font-size="10.00">+</text>
<text text-anchor="start" x="264" y="-648.5" font-family="Helvetica,sans-Serif" font-size="10.00">elements</text>
<text text-anchor="start" x="278.5" y="-633.5" font-family="Helvetica,sans-Serif" font-size="10.00"> </text>
<polygon fill="#666666" stroke="#666666" points="218,-658.5 218,-658.5 343,-658.5 343,-658.5 218,-658.5"/>
<polygon fill="#666666" stroke="#666666" points="218,-643.5 218,-643.5 262,-643.5 262,-643.5 218,-643.5"/>
<polygon fill="#666666" stroke="#666666" points="262,-643.5 262,-643.5 343,-643.5 343,-643.5 262,-643.5"/>
<polygon fill="none" stroke="#666666" points="217.5,-627 217.5,-676 342.5,-676 342.5,-627 217.5,-627"/>
</a>
</g>
</g>
<!-- Node4&#45;&gt;Node8 -->
<g id="edge8_Node000008_Node000004" class="edge">
<title>Node4&#45;&gt;Node8</title>
<g id="a_edge8_Node000008_Node000004"><a xlink:title=" ">
<path fill="none" stroke="orange" d="M281.67,-826.12C281.27,-783.87 280.58,-712.75 280.23,-676.03"/>
<polygon fill="orange" stroke="orange" points="278.17,-826.23 281.77,-836.2 285.17,-826.16 278.17,-826.23"/>
</a>
</g>
<text text-anchor="middle" x="317" y="-719" font-family="Helvetica,sans-Serif" font-size="10.00" fill="grey"> &lt; uint8_t, 2 &gt;</text>
</g>
<!-- Node5 -->
<g id="Node000005" class="node">
<title>Node5</title>
<g id="a_Node000005"><a xlink:title=" ">
<polygon fill="white" stroke="transparent" points="343.5,-1062 326.5,-1062 326.5,-1013 343.5,-1013 343.5,-1062"/>
<text text-anchor="start" x="332" y="-1049.5" font-family="Helvetica,sans-Serif" font-size="10.00">T</text>
<text text-anchor="start" x="333.5" y="-1034.5" font-family="Helvetica,sans-Serif" font-size="10.00"> </text>
<text text-anchor="start" x="333.5" y="-1019.5" font-family="Helvetica,sans-Serif" font-size="10.00"> </text>
<polygon fill="#666666" stroke="#666666" points="327,-1044.5 327,-1044.5 344,-1044.5 344,-1044.5 327,-1044.5"/>
<polygon fill="#666666" stroke="#666666" points="327,-1029.5 327,-1029.5 344,-1029.5 344,-1029.5 327,-1029.5"/>
<polygon fill="none" stroke="#666666" points="326.5,-1013 326.5,-1062 343.5,-1062 343.5,-1013 326.5,-1013"/>
</a>
</g>
</g>
<!-- Node5&#45;&gt;Node4 -->
<g id="edge4_Node000004_Node000005" class="edge">
<title>Node5&#45;&gt;Node4</title>
<g id="a_edge4_Node000004_Node000005"><a xlink:title=" ">
<path fill="none" stroke="#63b8ff" d="M326.45,-1028.11C319,-1020.27 308.54,-1007.87 303,-995 289.59,-963.86 284.63,-925.32 282.86,-897.75"/>
<polygon fill="none" stroke="#63b8ff" points="282.85,-897.54 278.54,-891.75 282.23,-885.56 286.53,-891.34 282.85,-897.54"/>
</a>
</g>
<text text-anchor="middle" x="332" y="-987" font-family="Helvetica,sans-Serif" font-size="10.00" fill="grey"> +elements</text>
</g>
<!-- Node11 -->
<g id="Node000011" class="node">
<title>Node11</title>
<g id="a_Node000011"><a xlink:title=" ">
<polygon fill="white" stroke="transparent" points="437,-885.5 343,-885.5 343,-836.5 437,-836.5 437,-885.5"/>
<text text-anchor="start" x="348" y="-873" font-family="Helvetica,sans-Serif" font-size="10.00">std::atomic&lt; T &gt;</text>
<text text-anchor="start" x="388" y="-858" font-family="Helvetica,sans-Serif" font-size="10.00"> </text>
<text text-anchor="start" x="388" y="-843" font-family="Helvetica,sans-Serif" font-size="10.00"> </text>
<polygon fill="#666666" stroke="#666666" points="343,-868 343,-868 437,-868 437,-868 343,-868"/>
<polygon fill="#666666" stroke="#666666" points="343,-853 343,-853 437,-853 437,-853 343,-853"/>
<polygon fill="none" stroke="#666666" points="343,-836.5 343,-885.5 437,-885.5 437,-836.5 343,-836.5"/>
</a>
</g>
</g>
<!-- Node5&#45;&gt;Node11 -->
<g id="edge12_Node000011_Node000005" class="edge">
<title>Node5&#45;&gt;Node11</title>
<g id="a_edge12_Node000011_Node000005"><a xlink:title=" ">
<path fill="none" stroke="#63b8ff" d="M343.66,-1025.1C349.36,-1017.07 356.57,-1005.86 361,-995 373.86,-963.45 381.44,-925.26 385.6,-897.91"/>
<polygon fill="none" stroke="#63b8ff" points="385.63,-897.68 382.52,-891.17 387.33,-885.8 390.44,-892.3 385.63,-897.68"/>
</a>
</g>
<text text-anchor="middle" x="377.5" y="-987" font-family="Helvetica,sans-Serif" font-size="10.00" fill="grey"> +ptr</text>
</g>
<!-- Node6 -->
<g id="Node000006" class="node">
<title>Node6</title>
<g id="a_Node000006"><a xlink:href="classslick_1_1orderbook_1_1ObserverManager.html" target="_top" xlink:title="Observer manager for notifying multiple observers Uses type erasure to support both concept&#45;based and...">
<polygon fill="white" stroke="transparent" points="569.5,-521.5 430.5,-521.5 430.5,-311.5 569.5,-311.5 569.5,-521.5"/>
<text text-anchor="start" x="436" y="-509.5" font-family="Helvetica,sans-Serif" font-size="10.00">slick::orderbook::Observer</text>
<text text-anchor="start" x="479" y="-498.5" font-family="Helvetica,sans-Serif" font-size="10.00">Manager</text>
<text text-anchor="start" x="498.5" y="-483.5" font-family="Helvetica,sans-Serif" font-size="10.00"> </text>
<text text-anchor="start" x="438.5" y="-468.5" font-family="Helvetica,sans-Serif" font-size="10.00">+</text>
<text text-anchor="start" x="455" y="-468.5" font-family="Helvetica,sans-Serif" font-size="10.00">ObserverManager()</text>
<text text-anchor="start" x="438.5" y="-453.5" font-family="Helvetica,sans-Serif" font-size="10.00">+</text>
<text text-anchor="start" x="455" y="-453.5" font-family="Helvetica,sans-Serif" font-size="10.00">~ObserverManager()</text>
<text text-anchor="start" x="438.5" y="-438.5" font-family="Helvetica,sans-Serif" font-size="10.00">+</text>
<text text-anchor="start" x="455" y="-438.5" font-family="Helvetica,sans-Serif" font-size="10.00">ObserverManager()</text>
<text text-anchor="start" x="438.5" y="-423.5" font-family="Helvetica,sans-Serif" font-size="10.00">+</text>
<text text-anchor="start" x="455" y="-423.5" font-family="Helvetica,sans-Serif" font-size="10.00">operator=()</text>
<text text-anchor="start" x="438.5" y="-408.5" font-family="Helvetica,sans-Serif" font-size="10.00">+</text>
<text text-anchor="start" x="455" y="-408.5" font-family="Helvetica,sans-Serif" font-size="10.00">ObserverManager()</text>
<text text-anchor="start" x="438.5" y="-393.5" font-family="Helvetica,sans-Serif" font-size="10.00">+</text>
<text text-anchor="start" x="455" y="-393.5" font-family="Helvetica,sans-Serif" font-size="10.00">operator=()</text>
<text text-anchor="start" x="438.5" y="-378.5" font-family="Helvetica,sans-Serif" font-size="10.00">+</text>
<text text-anchor="start" x="455" y="-378.5" font-family="Helvetica,sans-Serif" font-size="10.00">addObserver()</text>
<text text-anchor="start" x="438.5" y="-363.5" font-family="Helvetica,sans-Serif" font-size="10.00">+</text>
<text text-anchor="start" x="455" y="-363.5" font-family="Helvetica,sans-Serif" font-size="10.00">removeObserver()</text>
<text text-anchor="start" x="438.5" y="-348.5" font-family="Helvetica,sans-Serif" font-size="10.00">+</text>
<text text-anchor="start" x="455" y="-348.5" font-family="Helvetica,sans-Serif" font-size="10.00">clearObservers()</text>
<text text-anchor="start" x="438.5" y="-333.5" font-family="Helvetica,sans-Serif" font-size="10.00">+</text>
<text text-anchor="start" x="455" y="-333.5" font-family="Helvetica,sans-Serif" font-size="10.00">observerCount()</text>
<text text-anchor="start" x="455" y="-318.5" font-family="Helvetica,sans-Serif" font-size="10.00">and 6 more...</text>
<polygon fill="#666666" stroke="#666666" points="431,-493.5 431,-493.5 570,-493.5 570,-493.5 431,-493.5"/>
<polygon fill="#666666" stroke="#666666" points="431,-478.5 431,-478.5 570,-478.5 570,-478.5 431,-478.5"/>
<polygon fill="none" stroke="#666666" points="430.5,-311.5 430.5,-521.5 569.5,-521.5 569.5,-311.5 430.5,-311.5"/>
</a>
</g>
</g>
<!-- Node6&#45;&gt;Node1 -->
<g id="edge5_Node000001_Node000006" class="edge">
<title>Node6&#45;&gt;Node1</title>
<g id="a_edge5_Node000001_Node000006"><a xlink:title=" ">
<path fill="none" stroke="#63b8ff" d="M448.98,-311.14C440.1,-292.97 430.75,-273.85 421.56,-255.05"/>
<polygon fill="none" stroke="#63b8ff" points="421.44,-254.81 415.21,-251.18 416.17,-244.03 422.4,-247.67 421.44,-254.81"/>
</a>
</g>
<text text-anchor="middle" x="464.5" y="-270.5" font-family="Helvetica,sans-Serif" font-size="10.00" fill="grey"> #observers_</text>
</g>
<!-- Node7 -->
<g id="Node000007" class="node">
<title>Node7</title>
<g id="a_Node000007"><a xlink:href="structslick_1_1orderbook_1_1TopOfBook.html" target="_top" xlink:title="Top&#45;of&#45;book snapshot &#45; best bid and ask.">
<polygon fill="white" stroke="transparent" points="320.5,-531 173.5,-531 173.5,-302 320.5,-302 320.5,-531"/>
<text text-anchor="start" x="179" y="-518.5" font-family="Helvetica,sans-Serif" font-size="10.00">slick::orderbook::TopOfBook</text>
<text text-anchor="start" x="193.5" y="-503.5" font-family="Helvetica,sans-Serif" font-size="10.00">+</text>
<text text-anchor="start" x="222" y="-503.5" font-family="Helvetica,sans-Serif" font-size="10.00">symbol</text>
<text text-anchor="start" x="193.5" y="-488.5" font-family="Helvetica,sans-Serif" font-size="10.00">+</text>
<text text-anchor="start" x="222" y="-488.5" font-family="Helvetica,sans-Serif" font-size="10.00">best_bid</text>
<text text-anchor="start" x="193.5" y="-473.5" font-family="Helvetica,sans-Serif" font-size="10.00">+</text>
<text text-anchor="start" x="222" y="-473.5" font-family="Helvetica,sans-Serif" font-size="10.00">bid_quantity</text>
<text text-anchor="start" x="193.5" y="-458.5" font-family="Helvetica,sans-Serif" font-size="10.00">+</text>
<text text-anchor="start" x="222" y="-458.5" font-family="Helvetica,sans-Serif" font-size="10.00">best_ask</text>
<text text-anchor="start" x="193.5" y="-443.5" font-family="Helvetica,sans-Serif" font-size="10.00">+</text>
<text text-anchor="start" x="222" y="-443.5" font-family="Helvetica,sans-Serif" font-size="10.00">ask_quantity</text>
<text text-anchor="start" x="193.5" y="-428.5" font-family="Helvetica,sans-Serif" font-size="10.00">+</text>
<text text-anchor="start" x="222" y="-428.5" font-family="Helvetica,sans-Serif" font-size="10.00">timestamp</text>
<text text-anchor="start" x="193.5" y="-413.5" font-family="Helvetica,sans-Serif" font-size="10.00">+</text>
<text text-anchor="start" x="222" y="-413.5" font-family="Helvetica,sans-Serif" font-size="10.00">TopOfBook()</text>
<text text-anchor="start" x="193.5" y="-398.5" font-family="Helvetica,sans-Serif" font-size="10.00">+</text>
<text text-anchor="start" x="222" y="-398.5" font-family="Helvetica,sans-Serif" font-size="10.00">TopOfBook()</text>
<text text-anchor="start" x="193.5" y="-383.5" font-family="Helvetica,sans-Serif" font-size="10.00">+</text>
<text text-anchor="start" x="222" y="-383.5" font-family="Helvetica,sans-Serif" font-size="10.00">spread()</text>
<text text-anchor="start" x="193.5" y="-368.5" font-family="Helvetica,sans-Serif" font-size="10.00">+</text>
<text text-anchor="start" x="222" y="-368.5" font-family="Helvetica,sans-Serif" font-size="10.00">midPrice()</text>
<text text-anchor="start" x="193.5" y="-353.5" font-family="Helvetica,sans-Serif" font-size="10.00">+</text>
<text text-anchor="start" x="222" y="-353.5" font-family="Helvetica,sans-Serif" font-size="10.00">isCrossed()</text>
<text text-anchor="start" x="193.5" y="-338.5" font-family="Helvetica,sans-Serif" font-size="10.00">+</text>
<text text-anchor="start" x="222" y="-338.5" font-family="Helvetica,sans-Serif" font-size="10.00">hasBid()</text>
<text text-anchor="start" x="193.5" y="-323.5" font-family="Helvetica,sans-Serif" font-size="10.00">+</text>
<text text-anchor="start" x="222" y="-323.5" font-family="Helvetica,sans-Serif" font-size="10.00">hasAsk()</text>
<text text-anchor="start" x="193.5" y="-308.5" font-family="Helvetica,sans-Serif" font-size="10.00">+</text>
<text text-anchor="start" x="222" y="-308.5" font-family="Helvetica,sans-Serif" font-size="10.00">isValid()</text>
<polygon fill="#666666" stroke="#666666" points="174,-513.5 174,-513.5 321,-513.5 321,-513.5 174,-513.5"/>
<polygon fill="#666666" stroke="#666666" points="174,-423.5 174,-423.5 220,-423.5 220,-423.5 174,-423.5"/>
<polygon fill="#666666" stroke="#666666" points="220,-423.5 220,-423.5 321,-423.5 321,-423.5 220,-423.5"/>
<polygon fill="none" stroke="#666666" points="173.5,-302 173.5,-531 320.5,-531 320.5,-302 173.5,-302"/>
</a>
</g>
</g>
<!-- Node7&#45;&gt;Node1 -->
<g id="edge6_Node000001_Node000007" class="edge">
<title>Node7&#45;&gt;Node1</title>
<g id="a_edge6_Node000001_Node000007"><a xlink:title=" ">
<path fill="none" stroke="#63b8ff" d="M258.64,-301.83C261.61,-288.19 265.33,-274.64 270,-262 270.83,-259.75 271.7,-257.49 272.61,-255.24"/>
<polygon fill="none" stroke="#63b8ff" points="272.71,-255 271.4,-247.91 277.44,-243.97 278.75,-251.06 272.71,-255"/>
</a>
</g>
<text text-anchor="middle" x="306.5" y="-270.5" font-family="Helvetica,sans-Serif" font-size="10.00" fill="grey"> #cached_tob_</text>
</g>
<!-- Node8&#45;&gt;Node7 -->
<g id="edge7_Node000007_Node000008" class="edge">
<title>Node8&#45;&gt;Node7</title>
<g id="a_edge7_Node000007_Node000008"><a xlink:title=" ">
<path fill="none" stroke="#63b8ff" d="M258.12,-626.92C251.63,-618.43 245.36,-608.38 242,-598 236.41,-580.75 233.61,-562.09 232.61,-543.52"/>
<polygon fill="none" stroke="#63b8ff" points="232.6,-543.35 228.4,-537.48 232.2,-531.35 236.4,-537.22 232.6,-543.35"/>
</a>
</g>
<text text-anchor="middle" x="280" y="-571" font-family="Helvetica,sans-Serif" font-size="10.00" fill="grey"> +change_flags</text>
</g>
<!-- Node9 -->
<g id="Node000009" class="node">
<title>Node9</title>
<g id="a_Node000009"><a xlink:href="structslick_1_1orderbook_1_1detail_1_1PriceLevelL2.html" target="_top" xlink:title="Price level for Level 2 orderbook (aggregated) Stores total quantity at a specific price point.">
<polygon fill="white" stroke="transparent" points="710,-521.5 588,-521.5 588,-311.5 710,-311.5 710,-521.5"/>
<text text-anchor="start" x="593" y="-509.5" font-family="Helvetica,sans-Serif" font-size="10.00">slick::orderbook::detail</text>
<text text-anchor="start" x="615" y="-498.5" font-family="Helvetica,sans-Serif" font-size="10.00">::PriceLevelL2</text>
<text text-anchor="start" x="599.5" y="-483.5" font-family="Helvetica,sans-Serif" font-size="10.00">+</text>
<text text-anchor="start" x="620" y="-483.5" font-family="Helvetica,sans-Serif" font-size="10.00">price</text>
<text text-anchor="start" x="599.5" y="-468.5" font-family="Helvetica,sans-Serif" font-size="10.00">+</text>
<text text-anchor="start" x="620" y="-468.5" font-family="Helvetica,sans-Serif" font-size="10.00">quantity</text>
<text text-anchor="start" x="599.5" y="-453.5" font-family="Helvetica,sans-Serif" font-size="10.00">+</text>
<text text-anchor="start" x="620" y="-453.5" font-family="Helvetica,sans-Serif" font-size="10.00">timestamp</text>
<text text-anchor="start" x="599.5" y="-438.5" font-family="Helvetica,sans-Serif" font-size="10.00">+</text>
<text text-anchor="start" x="620" y="-438.5" font-family="Helvetica,sans-Serif" font-size="10.00">PriceLevelL2()</text>
<text text-anchor="start" x="599.5" y="-423.5" font-family="Helvetica,sans-Serif" font-size="10.00">+</text>
<text text-anchor="start" x="620" y="-423.5" font-family="Helvetica,sans-Serif" font-size="10.00">PriceLevelL2()</text>
<text text-anchor="start" x="599.5" y="-408.5" font-family="Helvetica,sans-Serif" font-size="10.00">+</text>
<text text-anchor="start" x="620" y="-408.5" font-family="Helvetica,sans-Serif" font-size="10.00">isEmpty()</text>
<text text-anchor="start" x="599.5" y="-393.5" font-family="Helvetica,sans-Serif" font-size="10.00">+</text>
<text text-anchor="start" x="620" y="-393.5" font-family="Helvetica,sans-Serif" font-size="10.00">operator==()</text>
<text text-anchor="start" x="599.5" y="-378.5" font-family="Helvetica,sans-Serif" font-size="10.00">+</text>
<text text-anchor="start" x="620" y="-378.5" font-family="Helvetica,sans-Serif" font-size="10.00">operator!=()</text>
<text text-anchor="start" x="599.5" y="-363.5" font-family="Helvetica,sans-Serif" font-size="10.00">+</text>
<text text-anchor="start" x="620" y="-363.5" font-family="Helvetica,sans-Serif" font-size="10.00">operator&lt;()</text>
<text text-anchor="start" x="599.5" y="-348.5" font-family="Helvetica,sans-Serif" font-size="10.00">+</text>
<text text-anchor="start" x="620" y="-348.5" font-family="Helvetica,sans-Serif" font-size="10.00">operator&gt;()</text>
<text text-anchor="start" x="599.5" y="-333.5" font-family="Helvetica,sans-Serif" font-size="10.00">+</text>
<text text-anchor="start" x="620" y="-333.5" font-family="Helvetica,sans-Serif" font-size="10.00">operator&lt;=()</text>
<text text-anchor="start" x="599.5" y="-318.5" font-family="Helvetica,sans-Serif" font-size="10.00">+</text>
<text text-anchor="start" x="620" y="-318.5" font-family="Helvetica,sans-Serif" font-size="10.00">operator&gt;=()</text>
<polygon fill="#666666" stroke="#666666" points="588,-493.5 588,-493.5 710,-493.5 710,-493.5 588,-493.5"/>
<polygon fill="#666666" stroke="#666666" points="588,-448.5 588,-448.5 618,-448.5 618,-448.5 588,-448.5"/>
<polygon fill="#666666" stroke="#666666" points="618,-448.5 618,-448.5 710,-448.5 710,-448.5 618,-448.5"/>
<polygon fill="none" stroke="#666666" points="588,-311.5 588,-521.5 710,-521.5 710,-311.5 588,-311.5"/>
</a>
</g>
</g>
<!-- Node9&#45;&gt;Node1 -->
<g id="edge9_Node000001_Node000009" class="edge">
<title>Node9&#45;&gt;Node1</title>
<g id="a_edge9_Node000001_Node000009"><a xlink:title=" ">
<path fill="none" stroke="#63b8ff" d="M587.8,-312.55C584.92,-308.92 581.99,-305.39 579,-302 540.13,-257.89 489.55,-216.19 446.49,-184.15"/>
<polygon fill="none" stroke="#63b8ff" points="446.23,-183.96 439.03,-183.62 436.57,-176.84 443.78,-177.18 446.23,-183.96"/>
</a>
</g>
<text text-anchor="middle" x="607" y="-276" font-family="Helvetica,sans-Serif" font-size="10.00" fill="grey"> #cached_best_ask_</text>
<text text-anchor="middle" x="607" y="-265" font-family="Helvetica,sans-Serif" font-size="10.00" fill="grey">#cached_best_bid_</text>
</g>
<!-- Node10 -->
<g id="Node000010" class="node">
<title>Node10</title>
<g id="a_Node000010"><a xlink:title=" ">
<polygon fill="white" stroke="transparent" points="455,-598 327,-598 327,-549 455,-549 455,-598"/>
<text text-anchor="start" x="332" y="-585.5" font-family="Helvetica,sans-Serif" font-size="10.00">std::atomic&lt; uint64_t &gt;</text>
<text text-anchor="start" x="354" y="-570.5" font-family="Helvetica,sans-Serif" font-size="10.00">+</text>
<text text-anchor="start" x="390" y="-570.5" font-family="Helvetica,sans-Serif" font-size="10.00">ptr</text>
<text text-anchor="start" x="389" y="-555.5" font-family="Helvetica,sans-Serif" font-size="10.00"> </text>
<polygon fill="#666666" stroke="#666666" points="327,-580.5 327,-580.5 455,-580.5 455,-580.5 327,-580.5"/>
<polygon fill="#666666" stroke="#666666" points="327,-565.5 327,-565.5 388,-565.5 388,-565.5 327,-565.5"/>
<polygon fill="#666666" stroke="#666666" points="388,-565.5 388,-565.5 455,-565.5 455,-565.5 388,-565.5"/>
<polygon fill="none" stroke="#666666" points="327,-549 327,-598 455,-598 455,-549 327,-549"/>
</a>
</g>
</g>
<!-- Node10&#45;&gt;Node1 -->
<g id="edge10_Node000001_Node000010" class="edge">
<title>Node10&#45;&gt;Node1</title>
<g id="a_edge10_Node000001_Node000010"><a xlink:title=" ">
<path fill="none" stroke="#63b8ff" d="M374.63,-548.83C371.53,-543.22 368.71,-537.09 367,-531 352.97,-481.16 351.7,-355.24 353.19,-256.36"/>
<polygon fill="none" stroke="#63b8ff" points="353.2,-256.14 349.3,-250.07 353.39,-244.14 357.3,-250.2 353.2,-256.14"/>
</a>
</g>
<text text-anchor="middle" x="394.5" y="-414" font-family="Helvetica,sans-Serif" font-size="10.00" fill="grey"> #tob_seq_</text>
</g>
<!-- Node11&#45;&gt;Node10 -->
<g id="edge11_Node000010_Node000011" class="edge">
<title>Node11&#45;&gt;Node10</title>
<g id="a_edge11_Node000010_Node000011"><a xlink:title=" ">
<path fill="none" stroke="orange" d="M390.12,-825.92C390.32,-767.24 390.74,-648.56 390.92,-598.08"/>
<polygon fill="orange" stroke="orange" points="386.62,-826.14 390.08,-836.15 393.62,-826.16 386.62,-826.14"/>
</a>
</g>
<text text-anchor="middle" x="424" y="-719" font-family="Helvetica,sans-Serif" font-size="10.00" fill="grey"> &lt; uint64_t &gt;</text>
</g>
</g>
</svg>
