<?xml version="1.0" encoding="UTF-8" standalone="no"?>
<!DOCTYPE svg PUBLIC "-//W3C//DTD SVG 1.1//EN"
 "http://www.w3.org/Graphics/SVG/1.1/DTD/svg11.dtd">
<!-- Generated by graphviz version 2.43.0 (0)
 -->
<!-- Title: slick::orderbook::OrderBookL3 Pages: 1 -->
<svg width="834pt" height="997pt"
 viewBox="0.00 0.00 834.00 997.00" xmlns="http://www.w3.org/2000/svg" xmlns:xlink="http://www.w3.org/1999/xlink">
<g id="graph0" class="graph" transform="scale(1 1) rotate(0) translate(4 993)">
<title>slick::orderbook::OrderBookL3</title>
<!-- Node1 -->
<g id="Node000001" class="node">
<title>Node1</title>
<g id="a_Node000001"><a xlink:title="Level 3 OrderBook &#45; Individual order tracking with price&#45;time priority.">
<polygon fill="#999999" stroke="transparent" points="504,-349 345,-349 345,0 504,0 504,-349"/>
<text text-anchor="start" x="351" y="-336.5" font-family="Helvetica,sans-Serif" font-size="10.00">slick::orderbook::OrderBookL3</text>
<text text-anchor="start" x="349.5" y="-321.5" font-family="Helvetica,sans-Serif" font-size="10.00">#</text>
<text text-anchor="start" x="362.5" y="-321.5" font-family="Helvetica,sans-Serif" font-size="10.00">symbol_</text>
<text text-anchor="start" x="349.5" y="-306.5" font-family="Helvetica,sans-Serif" font-size="10.00">#</text>
<text text-anchor="start" x="362.5" y="-306.5" font-family="Helvetica,sans-Serif" font-size="10.00">last_seq_num_</text>
<text text-anchor="start" x="349.5" y="-291.5" font-family="Helvetica,sans-Serif" font-size="10.00">#</text>
<text text-anchor="start" x="362.5" y="-291.5" font-family="Helvetica,sans-Serif" font-size="10.00">change_starting_index_</text>
<text text-anchor="start" x="349.5" y="-276.5" font-family="Helvetica,sans-Serif" font-size="10.00">+</text>
<text text-anchor="start" x="362.5" y="-276.5" font-family="Helvetica,sans-Serif" font-size="10.00">OrderBookL3()</text>
<text text-anchor="start" x="349.5" y="-261.5" font-family="Helvetica,sans-Serif" font-size="10.00">+</text>
<text text-anchor="start" x="362.5" y="-261.5" font-family="Helvetica,sans-Serif" font-size="10.00">~OrderBookL3()</text>
<text text-anchor="start" x="349.5" y="-246.5" font-family="Helvetica,sans-Serif" font-size="10.00">+</text>
<text text-anchor="start" x="362.5" y="-246.5" font-family="Helvetica,sans-Serif" font-size="10.00">OrderBookL3()</text>
<text text-anchor="start" x="349.5" y="-231.5" font-family="Helvetica,sans-Serif" font-size="10.00">+</text>
<text text-anchor="start" x="362.5" y="-231.5" font-family="Helvetica,sans-Serif" font-size="10.00">operator=()</text>
<text text-anchor="start" x="349.5" y="-216.5" font-family="Helvetica,sans-Serif" font-size="10.00">+</text>
<text text-anchor="start" x="362.5" y="-216.5" font-family="Helvetica,sans-Serif" font-size="10.00">OrderBookL3()</text>
<text text-anchor="start" x="349.5" y="-201.5" font-family="Helvetica,sans-Serif" font-size="10.00">+</text>
<text text-anchor="start" x="362.5" y="-201.5" font-family="Helvetica,sans-Serif" font-size="10.00">operator=()</text>
<text text-anchor="start" x="349.5" y="-186.5" font-family="Helvetica,sans-Serif" font-size="10.00">+</text>
<text text-anchor="start" x="362.5" y="-186.5" font-family="Helvetica,sans-Serif" font-size="10.00">symbol()</text>
<text text-anchor="start" x="349.5" y="-171.5" font-family="Helvetica,sans-Serif" font-size="10.00">+</text>
<text text-anchor="start" x="362.5" y="-171.5" font-family="Helvetica,sans-Serif" font-size="10.00">addOrModifyOrder()</text>
<text text-anchor="start" x="349.5" y="-156.5" font-family="Helvetica,sans-Serif" font-size="10.00">+</text>
<text text-anchor="start" x="362.5" y="-156.5" font-family="Helvetica,sans-Serif" font-size="10.00">addOrder()</text>
<text text-anchor="start" x="349.5" y="-141.5" font-family="Helvetica,sans-Serif" font-size="10.00">+</text>
<text text-anchor="start" x="362.5" y="-141.5" font-family="Helvetica,sans-Serif" font-size="10.00">modifyOrder()</text>
<text text-anchor="start" x="362.5" y="-126.5" font-family="Helvetica,sans-Serif" font-size="10.00">and 24 more...</text>
<text text-anchor="start" x="349.5" y="-111.5" font-family="Helvetica,sans-Serif" font-size="10.00">#</text>
<text text-anchor="start" x="362.5" y="-111.5" font-family="Helvetica,sans-Serif" font-size="10.00">getOrCreateLevel()</text>
<text text-anchor="start" x="349.5" y="-96.5" font-family="Helvetica,sans-Serif" font-size="10.00">#</text>
<text text-anchor="start" x="362.5" y="-96.5" font-family="Helvetica,sans-Serif" font-size="10.00">removeLevelIfEmpty()</text>
<text text-anchor="start" x="349.5" y="-81.5" font-family="Helvetica,sans-Serif" font-size="10.00">#</text>
<text text-anchor="start" x="362.5" y="-81.5" font-family="Helvetica,sans-Serif" font-size="10.00">notifyOrderUpdate()</text>
<text text-anchor="start" x="349.5" y="-66.5" font-family="Helvetica,sans-Serif" font-size="10.00">#</text>
<text text-anchor="start" x="362.5" y="-66.5" font-family="Helvetica,sans-Serif" font-size="10.00">notifyOrderDelete()</text>
<text text-anchor="start" x="349.5" y="-51.5" font-family="Helvetica,sans-Serif" font-size="10.00">#</text>
<text text-anchor="start" x="362.5" y="-51.5" font-family="Helvetica,sans-Serif" font-size="10.00">calculateLevelIndex()</text>
<text text-anchor="start" x="349.5" y="-36.5" font-family="Helvetica,sans-Serif" font-size="10.00">#</text>
<text text-anchor="start" x="362.5" y="-36.5" font-family="Helvetica,sans-Serif" font-size="10.00">notifyTrade()</text>
<text text-anchor="start" x="349.5" y="-21.5" font-family="Helvetica,sans-Serif" font-size="10.00">#</text>
<text text-anchor="start" x="362.5" y="-21.5" font-family="Helvetica,sans-Serif" font-size="10.00">notifyPriceLevelUpdate()</text>
<text text-anchor="start" x="349.5" y="-6.5" font-family="Helvetica,sans-Serif" font-size="10.00">#</text>
<text text-anchor="start" x="362.5" y="-6.5" font-family="Helvetica,sans-Serif" font-size="10.00">notifyTopOfBookIfChanged()</text>
<polygon fill="#666666" stroke="#666666" points="345.5,-331.5 345.5,-331.5 504.5,-331.5 504.5,-331.5 345.5,-331.5"/>
<polygon fill="#666666" stroke="#666666" points="345.5,-286.5 345.5,-286.5 360.5,-286.5 360.5,-286.5 345.5,-286.5"/>
<polygon fill="#666666" stroke="#666666" points="360.5,-286.5 360.5,-286.5 504.5,-286.5 504.5,-286.5 360.5,-286.5"/>
<polygon fill="none" stroke="#666666" points="345,0 345,-349 504,-349 504,0 345,0"/>
</a>
</g>
</g>
<!-- Node2 -->
<g id="Node000002" class="node">
<title>Node2</title>
<g id="a_Node000002"><a xlink:title=" ">
<polygon fill="white" stroke="transparent" points="187,-540.5 44,-540.5 44,-480.5 187,-480.5 187,-540.5"/>
<text text-anchor="start" x="49.5" y="-528.5" font-family="Helvetica,sans-Serif" font-size="10.00">std::array&lt; PriceLevelMap,</text>
<text text-anchor="start" x="84" y="-517.5" font-family="Helvetica,sans-Serif" font-size="10.00"> SideCount &gt;</text>
<text text-anchor="start" x="114" y="-502.5" font-family="Helvetica,sans-Serif" font-size="10.00"> </text>
<text text-anchor="start" x="114" y="-487.5" font-family="Helvetica,sans-Serif" font-size="10.00"> </text>
<polygon fill="#666666" stroke="#666666" points="44.5,-512.5 44.5,-512.5 187.5,-512.5 187.5,-512.5 44.5,-512.5"/>
<polygon fill="#666666" stroke="#666666" points="44.5,-497.5 44.5,-497.5 187.5,-497.5 187.5,-497.5 44.5,-497.5"/>
<polygon fill="none" stroke="#666666" points="44,-480.5 44,-540.5 187,-540.5 187,-480.5 44,-480.5"/>
</a>
</g>
</g>
<!-- Node2&#45;&gt;Node1 -->
<g id="edge1_Node000001_Node000002" class="edge">
<title>Node2&#45;&gt;Node1</title>
<g id="a_edge1_Node000001_Node000002"><a xlink:title=" ">
<path fill="none" stroke="#63b8ff" d="M134.1,-480.44C149.7,-456.84 173.12,-423.15 196.5,-396 239.53,-346.03 292.19,-294.57 336.06,-253.93"/>
<polygon fill="none" stroke="#63b8ff" points="336.18,-253.83 337.87,-246.82 345,-245.69 343.3,-252.7 336.18,-253.83"/>
</a>
</g>
<text text-anchor="middle" x="242.5" y="-370" font-family="Helvetica,sans-Serif" font-size="10.00" fill="grey"> #levels_</text>
</g>
<!-- Node3 -->
<g id="Node000003" class="node">
<title>Node3</title>
<g id="a_Node000003"><a xlink:title=" ">
<polygon fill="white" stroke="transparent" points="95,-812.5 0,-812.5 0,-763.5 95,-763.5 95,-812.5"/>
<text text-anchor="start" x="5.5" y="-800" font-family="Helvetica,sans-Serif" font-size="10.00">std::map&lt; K, T &gt;</text>
<text text-anchor="start" x="46" y="-785" font-family="Helvetica,sans-Serif" font-size="10.00"> </text>
<text text-anchor="start" x="46" y="-770" font-family="Helvetica,sans-Serif" font-size="10.00"> </text>
<polygon fill="#666666" stroke="#666666" points="0.5,-795 0.5,-795 95.5,-795 95.5,-795 0.5,-795"/>
<polygon fill="#666666" stroke="#666666" points="0.5,-780 0.5,-780 95.5,-780 95.5,-780 0.5,-780"/>
<polygon fill="none" stroke="#666666" points="0,-763.5 0,-812.5 95,-812.5 95,-763.5 0,-763.5"/>
</a>
</g>
</g>
<!-- Node3&#45;&gt;Node2 -->
<g id="edge2_Node000002_Node000003" class="edge">
<title>Node3&#45;&gt;Node2</title>
<g id="a_edge2_Node000002_Node000003"><a xlink:title=" ">
<path fill="none" stroke="#63b8ff" d="M51.06,-763.37C55.58,-734.69 64.06,-684.96 74.5,-643 82.15,-612.25 92.87,-578.1 101.42,-552.31"/>
<polygon fill="none" stroke="#63b8ff" points="101.49,-552.11 99.61,-545.15 105.31,-540.73 107.19,-547.69 101.49,-552.11"/>
</a>
</g>
<text text-anchor="middle" x="103.5" y="-651.5" font-family="Helvetica,sans-Serif" font-size="10.00" fill="grey"> +elements</text>
</g>
<!-- Node4 -->
<g id="Node000004" class="node">
<title>Node4</title>
<g id="a_Node000004"><a xlink:title=" ">
<polygon fill="white" stroke="transparent" points="27,-989 10,-989 10,-940 27,-940 27,-989"/>
<text text-anchor="start" x="15.5" y="-976.5" font-family="Helvetica,sans-Serif" font-size="10.00">K</text>
<text text-anchor="start" x="17" y="-961.5" font-family="Helvetica,sans-Serif" font-size="10.00"> </text>
<text text-anchor="start" x="17" y="-946.5" font-family="Helvetica,sans-Serif" font-size="10.00"> </text>
<polygon fill="#666666" stroke="#666666" points="10.5,-971.5 10.5,-971.5 27.5,-971.5 27.5,-971.5 10.5,-971.5"/>
<polygon fill="#666666" stroke="#666666" points="10.5,-956.5 10.5,-956.5 27.5,-956.5 27.5,-956.5 10.5,-956.5"/>
<polygon fill="none" stroke="#666666" points="10,-940 10,-989 27,-989 27,-940 10,-940"/>
</a>
</g>
</g>
<!-- Node4&#45;&gt;Node3 -->
<g id="edge3_Node000003_Node000004" class="edge">
<title>Node4&#45;&gt;Node3</title>
<g id="a_edge3_Node000003_Node000004"><a xlink:title=" ">
<path fill="none" stroke="#63b8ff" d="M17.92,-939.91C17.96,-930.84 18.34,-920.41 19.5,-911 23.14,-881.43 30.91,-848.54 37.34,-824.37"/>
<polygon fill="none" stroke="#63b8ff" points="37.4,-824.16 35.12,-817.32 40.56,-812.59 42.84,-819.43 37.4,-824.16"/>
</a>
</g>
<text text-anchor="middle" x="36.5" y="-914" font-family="Helvetica,sans-Serif" font-size="10.00" fill="grey"> +keys</text>
</g>
<!-- Node5 -->
<g id="Node000005" class="node">
<title>Node5</title>
<g id="a_Node000005"><a xlink:title=" ">
<polygon fill="white" stroke="transparent" points="124,-989 107,-989 107,-940 124,-940 124,-989"/>
<text text-anchor="start" x="112.5" y="-976.5" font-family="Helvetica,sans-Serif" font-size="10.00">T</text>
<text text-anchor="start" x="114" y="-961.5" font-family="Helvetica,sans-Serif" font-size="10.00"> </text>
<text text-anchor="start" x="114" y="-946.5" font-family="Helvetica,sans-Serif" font-size="10.00"> </text>
<polygon fill="#666666" stroke="#666666" points="107.5,-971.5 107.5,-971.5 124.5,-971.5 124.5,-971.5 107.5,-971.5"/>
<polygon fill="#666666" stroke="#666666" points="107.5,-956.5 107.5,-956.5 124.5,-956.5 124.5,-956.5 107.5,-956.5"/>
<polygon fill="none" stroke="#666666" points="107,-940 107,-989 124,-989 124,-940 107,-940"/>
</a>
</g>
</g>
<!-- Node5&#45;&gt;Node3 -->
<g id="edge4_Node000003_Node000005" class="edge">
<title>Node5&#45;&gt;Node3</title>
<g id="a_edge4_Node000003_Node000005"><a xlink:title=" ">
<path fill="none" stroke="#63b8ff" d="M106.68,-957.6C96.71,-950.42 80.77,-937.34 72.5,-922 56.16,-891.69 50.33,-852.5 48.34,-824.52"/>
<polygon fill="none" stroke="#63b8ff" points="48.34,-824.51 44.01,-818.75 47.67,-812.53 52,-818.3 48.34,-824.51"/>
</a>
</g>
<text text-anchor="middle" x="101.5" y="-914" font-family="Helvetica,sans-Serif" font-size="10.00" fill="grey"> +elements</text>
</g>
<!-- Node6 -->
<g id="Node000006" class="node">
<title>Node6</title>
<g id="a_Node000006"><a xlink:title=" ">
<polygon fill="white" stroke="transparent" points="199.5,-812.5 113.5,-812.5 113.5,-763.5 199.5,-763.5 199.5,-812.5"/>
<text text-anchor="start" x="118.5" y="-800" font-family="Helvetica,sans-Serif" font-size="10.00">std::array&lt; T &gt;</text>
<text text-anchor="start" x="154.5" y="-785" font-family="Helvetica,sans-Serif" font-size="10.00"> </text>
<text text-anchor="start" x="154.5" y="-770" font-family="Helvetica,sans-Serif" font-size="10.00"> </text>
<polygon fill="#666666" stroke="#666666" points="113.5,-795 113.5,-795 199.5,-795 199.5,-795 113.5,-795"/>
<polygon fill="#666666" stroke="#666666" points="113.5,-780 113.5,-780 199.5,-780 199.5,-780 113.5,-780"/>
<polygon fill="none" stroke="#666666" points="113.5,-763.5 113.5,-812.5 199.5,-812.5 199.5,-763.5 113.5,-763.5"/>
</a>
</g>
</g>
<!-- Node5&#45;&gt;Node6 -->
<g id="edge6_Node000006_Node000005" class="edge">
<title>Node5&#45;&gt;Node6</title>
<g id="a_edge6_Node000006_Node000005"><a xlink:title=" ">
<path fill="none" stroke="#63b8ff" d="M124.12,-947.33C127.8,-939.81 131.86,-930.64 134.5,-922 144.3,-889.93 150.03,-852.08 153.16,-824.98"/>
<polygon fill="none" stroke="#63b8ff" points="153.17,-824.91 149.84,-818.51 154.47,-812.98 157.79,-819.38 153.17,-824.91"/>
</a>
</g>
<text text-anchor="middle" x="167.5" y="-914" font-family="Helvetica,sans-Serif" font-size="10.00" fill="grey"> +elements</text>
</g>
<!-- Node6&#45;&gt;Node2 -->
<g id="edge5_Node000002_Node000006" class="edge">
<title>Node6&#45;&gt;Node2</title>
<g id="a_edge5_Node000002_Node000006"><a xlink:title=" ">
<path fill="none" stroke="orange" d="M151.41,-752.81C143.27,-698.08 127.45,-591.78 119.82,-540.52"/>
<polygon fill="orange" stroke="orange" points="148,-753.66 152.93,-763.03 154.92,-752.63 148,-753.66"/>
</a>
</g>
<text text-anchor="middle" x="214" y="-651.5" font-family="Helvetica,sans-Serif" font-size="10.00" fill="grey"> &lt; PriceLevelMap, SideCount &gt;</text>
</g>
<!-- Node7 -->
<g id="Node000007" class="node">
<title>Node7</title>
<g id="a_Node000007"><a xlink:href="classslick_1_1orderbook_1_1detail_1_1OrderMap.html" target="_top" xlink:title="Hash table for fast OrderId &#45;&gt; Order* lookup Uses std::unordered_map for simplicity and performance P...">
<polygon fill="white" stroke="transparent" points="327.5,-615.5 205.5,-615.5 205.5,-405.5 327.5,-405.5 327.5,-615.5"/>
<text text-anchor="start" x="210.5" y="-603.5" font-family="Helvetica,sans-Serif" font-size="10.00">slick::orderbook::detail</text>
<text text-anchor="start" x="239" y="-592.5" font-family="Helvetica,sans-Serif" font-size="10.00">::OrderMap</text>
<text text-anchor="start" x="264.5" y="-577.5" font-family="Helvetica,sans-Serif" font-size="10.00"> </text>
<text text-anchor="start" x="218.5" y="-562.5" font-family="Helvetica,sans-Serif" font-size="10.00">+</text>
<text text-anchor="start" x="240.5" y="-562.5" font-family="Helvetica,sans-Serif" font-size="10.00">OrderMap()</text>
<text text-anchor="start" x="218.5" y="-547.5" font-family="Helvetica,sans-Serif" font-size="10.00">+</text>
<text text-anchor="start" x="240.5" y="-547.5" font-family="Helvetica,sans-Serif" font-size="10.00">insert()</text>
<text text-anchor="start" x="218.5" y="-532.5" font-family="Helvetica,sans-Serif" font-size="10.00">+</text>
<text text-anchor="start" x="240.5" y="-532.5" font-family="Helvetica,sans-Serif" font-size="10.00">erase()</text>
<text text-anchor="start" x="218.5" y="-517.5" font-family="Helvetica,sans-Serif" font-size="10.00">+</text>
<text text-anchor="start" x="240.5" y="-517.5" font-family="Helvetica,sans-Serif" font-size="10.00">find()</text>
<text text-anchor="start" x="218.5" y="-502.5" font-family="Helvetica,sans-Serif" font-size="10.00">+</text>
<text text-anchor="start" x="240.5" y="-502.5" font-family="Helvetica,sans-Serif" font-size="10.00">find()</text>
<text text-anchor="start" x="218.5" y="-487.5" font-family="Helvetica,sans-Serif" font-size="10.00">+</text>
<text text-anchor="start" x="240.5" y="-487.5" font-family="Helvetica,sans-Serif" font-size="10.00">contains()</text>
<text text-anchor="start" x="218.5" y="-472.5" font-family="Helvetica,sans-Serif" font-size="10.00">+</text>
<text text-anchor="start" x="240.5" y="-472.5" font-family="Helvetica,sans-Serif" font-size="10.00">size()</text>
<text text-anchor="start" x="218.5" y="-457.5" font-family="Helvetica,sans-Serif" font-size="10.00">+</text>
<text text-anchor="start" x="240.5" y="-457.5" font-family="Helvetica,sans-Serif" font-size="10.00">empty()</text>
<text text-anchor="start" x="218.5" y="-442.5" font-family="Helvetica,sans-Serif" font-size="10.00">+</text>
<text text-anchor="start" x="240.5" y="-442.5" font-family="Helvetica,sans-Serif" font-size="10.00">reserve()</text>
<text text-anchor="start" x="218.5" y="-427.5" font-family="Helvetica,sans-Serif" font-size="10.00">+</text>
<text text-anchor="start" x="240.5" y="-427.5" font-family="Helvetica,sans-Serif" font-size="10.00">clear()</text>
<text text-anchor="start" x="240.5" y="-412.5" font-family="Helvetica,sans-Serif" font-size="10.00">and 6 more...</text>
<polygon fill="#666666" stroke="#666666" points="205.5,-587.5 205.5,-587.5 327.5,-587.5 327.5,-587.5 205.5,-587.5"/>
<polygon fill="#666666" stroke="#666666" points="205.5,-572.5 205.5,-572.5 327.5,-572.5 327.5,-572.5 205.5,-572.5"/>
<polygon fill="none" stroke="#666666" points="205.5,-405.5 205.5,-615.5 327.5,-615.5 327.5,-405.5 205.5,-405.5"/>
</a>
</g>
</g>
<!-- Node7&#45;&gt;Node1 -->
<g id="edge7_Node000001_Node000007" class="edge">
<title>Node7&#45;&gt;Node1</title>
<g id="a_edge7_Node000001_Node000007"><a xlink:title=" ">
<path fill="none" stroke="#63b8ff" d="M315.84,-405.19C323.46,-389.1 331.5,-372.1 339.63,-354.92"/>
<polygon fill="none" stroke="#63b8ff" points="339.84,-354.46 338.79,-347.33 344.97,-343.61 346.02,-350.75 339.84,-354.46"/>
</a>
</g>
<text text-anchor="middle" x="366.5" y="-370" font-family="Helvetica,sans-Serif" font-size="10.00" fill="grey"> #order_map_</text>
</g>
<!-- Node8 -->
<g id="Node000008" class="node">
<title>Node8</title>
<g id="a_Node000008"><a xlink:href="classslick_1_1orderbook_1_1detail_1_1ObjectPool.html" target="_top" xlink:title=" ">
<polygon fill="white" stroke="transparent" points="503.5,-621 345.5,-621 345.5,-400 503.5,-400 503.5,-621"/>
<text text-anchor="start" x="350.5" y="-608.5" font-family="Helvetica,sans-Serif" font-size="10.00">slick::orderbook::detail</text>
<text text-anchor="start" x="350.5" y="-597.5" font-family="Helvetica,sans-Serif" font-size="10.00">::ObjectPool&lt; slick::orderbook</text>
<text text-anchor="start" x="385" y="-586.5" font-family="Helvetica,sans-Serif" font-size="10.00">::detail::Order &gt;</text>
<text text-anchor="start" x="422.5" y="-571.5" font-family="Helvetica,sans-Serif" font-size="10.00"> </text>
<text text-anchor="start" x="366.5" y="-556.5" font-family="Helvetica,sans-Serif" font-size="10.00">+</text>
<text text-anchor="start" x="396.5" y="-556.5" font-family="Helvetica,sans-Serif" font-size="10.00">ObjectPool()</text>
<text text-anchor="start" x="366.5" y="-541.5" font-family="Helvetica,sans-Serif" font-size="10.00">+</text>
<text text-anchor="start" x="396.5" y="-541.5" font-family="Helvetica,sans-Serif" font-size="10.00">ObjectPool()</text>
<text text-anchor="start" x="366.5" y="-526.5" font-family="Helvetica,sans-Serif" font-size="10.00">+</text>
<text text-anchor="start" x="396.5" y="-526.5" font-family="Helvetica,sans-Serif" font-size="10.00">ObjectPool()</text>
<text text-anchor="start" x="366.5" y="-511.5" font-family="Helvetica,sans-Serif" font-size="10.00">+</text>
<text text-anchor="start" x="396.5" y="-511.5" font-family="Helvetica,sans-Serif" font-size="10.00">~ObjectPool()</text>
<text text-anchor="start" x="366.5" y="-496.5" font-family="Helvetica,sans-Serif" font-size="10.00">+</text>
<text text-anchor="start" x="396.5" y="-496.5" font-family="Helvetica,sans-Serif" font-size="10.00">operator=()</text>
<text text-anchor="start" x="366.5" y="-481.5" font-family="Helvetica,sans-Serif" font-size="10.00">+</text>
<text text-anchor="start" x="396.5" y="-481.5" font-family="Helvetica,sans-Serif" font-size="10.00">operator=()</text>
<text text-anchor="start" x="366.5" y="-466.5" font-family="Helvetica,sans-Serif" font-size="10.00">+</text>
<text text-anchor="start" x="396.5" y="-466.5" font-family="Helvetica,sans-Serif" font-size="10.00">allocate()</text>
<text text-anchor="start" x="366.5" y="-451.5" font-family="Helvetica,sans-Serif" font-size="10.00">+</text>
<text text-anchor="start" x="396.5" y="-451.5" font-family="Helvetica,sans-Serif" font-size="10.00">construct()</text>
<text text-anchor="start" x="366.5" y="-436.5" font-family="Helvetica,sans-Serif" font-size="10.00">+</text>
<text text-anchor="start" x="396.5" y="-436.5" font-family="Helvetica,sans-Serif" font-size="10.00">deallocate()</text>
<text text-anchor="start" x="366.5" y="-421.5" font-family="Helvetica,sans-Serif" font-size="10.00">+</text>
<text text-anchor="start" x="396.5" y="-421.5" font-family="Helvetica,sans-Serif" font-size="10.00">destroy()</text>
<text text-anchor="start" x="396.5" y="-406.5" font-family="Helvetica,sans-Serif" font-size="10.00">and 6 more...</text>
<polygon fill="#666666" stroke="#666666" points="345.5,-581.5 345.5,-581.5 503.5,-581.5 503.5,-581.5 345.5,-581.5"/>
<polygon fill="#666666" stroke="#666666" points="345.5,-566.5 345.5,-566.5 503.5,-566.5 503.5,-566.5 345.5,-566.5"/>
<polygon fill="none" stroke="#666666" points="345.5,-400 345.5,-621 503.5,-621 503.5,-400 345.5,-400"/>
</a>
</g>
</g>
<!-- Node8&#45;&gt;Node1 -->
<g id="edge8_Node000001_Node000008" class="edge">
<title>Node8&#45;&gt;Node1</title>
<g id="a_edge8_Node000001_Node000008"><a xlink:title=" ">
<path fill="none" stroke="#63b8ff" d="M424.5,-399.67C424.5,-387.23 424.5,-374.3 424.5,-361.22"/>
<polygon fill="none" stroke="#63b8ff" points="424.5,-361.17 420.5,-355.17 424.5,-349.17 428.5,-355.17 424.5,-361.17"/>
</a>
</g>
<text text-anchor="middle" x="459" y="-370" font-family="Helvetica,sans-Serif" font-size="10.00" fill="grey"> #order_pool_</text>
</g>
<!-- Node9 -->
<g id="Node000009" class="node">
<title>Node9</title>
<g id="a_Node000009"><a xlink:href="classslick_1_1orderbook_1_1detail_1_1ObjectPool.html" target="_top" xlink:title="Object pool for zero&#45;allocation management of frequently created/destroyed objects.">
<polygon fill="white" stroke="transparent" points="485.5,-893 363.5,-893 363.5,-683 485.5,-683 485.5,-893"/>
<text text-anchor="start" x="368.5" y="-881" font-family="Helvetica,sans-Serif" font-size="10.00">slick::orderbook::detail</text>
<text text-anchor="start" x="380.5" y="-870" font-family="Helvetica,sans-Serif" font-size="10.00">::ObjectPool&lt; T &gt;</text>
<text text-anchor="start" x="422.5" y="-855" font-family="Helvetica,sans-Serif" font-size="10.00"> </text>
<text text-anchor="start" x="375.5" y="-840" font-family="Helvetica,sans-Serif" font-size="10.00">+</text>
<text text-anchor="start" x="396.5" y="-840" font-family="Helvetica,sans-Serif" font-size="10.00">ObjectPool()</text>
<text text-anchor="start" x="375.5" y="-825" font-family="Helvetica,sans-Serif" font-size="10.00">+</text>
<text text-anchor="start" x="396.5" y="-825" font-family="Helvetica,sans-Serif" font-size="10.00">~ObjectPool()</text>
<text text-anchor="start" x="375.5" y="-810" font-family="Helvetica,sans-Serif" font-size="10.00">+</text>
<text text-anchor="start" x="396.5" y="-810" font-family="Helvetica,sans-Serif" font-size="10.00">ObjectPool()</text>
<text text-anchor="start" x="375.5" y="-795" font-family="Helvetica,sans-Serif" font-size="10.00">+</text>
<text text-anchor="start" x="396.5" y="-795" font-family="Helvetica,sans-Serif" font-size="10.00">operator=()</text>
<text text-anchor="start" x="375.5" y="-780" font-family="Helvetica,sans-Serif" font-size="10.00">+</text>
<text text-anchor="start" x="396.5" y="-780" font-family="Helvetica,sans-Serif" font-size="10.00">ObjectPool()</text>
<text text-anchor="start" x="375.5" y="-765" font-family="Helvetica,sans-Serif" font-size="10.00">+</text>
<text text-anchor="start" x="396.5" y="-765" font-family="Helvetica,sans-Serif" font-size="10.00">operator=()</text>
<text text-anchor="start" x="375.5" y="-750" font-family="Helvetica,sans-Serif" font-size="10.00">+</text>
<text text-anchor="start" x="396.5" y="-750" font-family="Helvetica,sans-Serif" font-size="10.00">allocate()</text>
<text text-anchor="start" x="375.5" y="-735" font-family="Helvetica,sans-Serif" font-size="10.00">+</text>
<text text-anchor="start" x="396.5" y="-735" font-family="Helvetica,sans-Serif" font-size="10.00">construct()</text>
<text text-anchor="start" x="375.5" y="-720" font-family="Helvetica,sans-Serif" font-size="10.00">+</text>
<text text-anchor="start" x="396.5" y="-720" font-family="Helvetica,sans-Serif" font-size="10.00">deallocate()</text>
<text text-anchor="start" x="375.5" y="-705" font-family="Helvetica,sans-Serif" font-size="10.00">+</text>
<text text-anchor="start" x="396.5" y="-705" font-family="Helvetica,sans-Serif" font-size="10.00">destroy()</text>
<text text-anchor="start" x="396.5" y="-690" font-family="Helvetica,sans-Serif" font-size="10.00">and 6 more...</text>
<polygon fill="#666666" stroke="#666666" points="363.5,-865 363.5,-865 485.5,-865 485.5,-865 363.5,-865"/>
<polygon fill="#666666" stroke="#666666" points="363.5,-850 363.5,-850 485.5,-850 485.5,-850 363.5,-850"/>
<polygon fill="none" stroke="#666666" points="363.5,-683 363.5,-893 485.5,-893 485.5,-683 363.5,-683"/>
</a>
</g>
</g>
<!-- Node9&#45;&gt;Node8 -->
<g id="edge9_Node000008_Node000009" class="edge">
<title>Node9&#45;&gt;Node8</title>
<g id="a_edge9_Node000008_Node000009"><a xlink:title=" ">
<path fill="none" stroke="orange" d="M424.5,-672.39C424.5,-655.49 424.5,-638.11 424.5,-621.31"/>
<polygon fill="orange" stroke="orange" points="421,-672.85 424.5,-682.85 428,-672.85 421,-672.85"/>
</a>
</g>
<text text-anchor="start" x="424.5" y="-657" font-family="Helvetica,sans-Serif" font-size="10.00" fill="grey"> &lt; slick::orderbook</text>
<text text-anchor="middle" x="471" y="-646" font-family="Helvetica,sans-Serif" font-size="10.00" fill="grey">::detail::Order &gt;</text>
</g>
<!-- Node10 -->
<g id="Node000010" class="node">
<title>Node10</title>
<g id="a_Node000010"><a xlink:href="classslick_1_1orderbook_1_1ObserverManager.html" target="_top" xlink:title="Observer manager for notifying multiple observers Uses type erasure to support both concept&#45;based and...">
<polygon fill="white" stroke="transparent" points="661,-615.5 522,-615.5 522,-405.5 661,-405.5 661,-615.5"/>
<text text-anchor="start" x="527.5" y="-603.5" font-family="Helvetica,sans-Serif" font-size="10.00">slick::orderbook::Observer</text>
<text text-anchor="start" x="570.5" y="-592.5" font-family="Helvetica,sans-Serif" font-size="10.00">Manager</text>
<text text-anchor="start" x="590" y="-577.5" font-family="Helvetica,sans-Serif" font-size="10.00"> </text>
<text text-anchor="start" x="530" y="-562.5" font-family="Helvetica,sans-Serif" font-size="10.00">+</text>
<text text-anchor="start" x="546.5" y="-562.5" font-family="Helvetica,sans-Serif" font-size="10.00">ObserverManager()</text>
<text text-anchor="start" x="530" y="-547.5" font-family="Helvetica,sans-Serif" font-size="10.00">+</text>
<text text-anchor="start" x="546.5" y="-547.5" font-family="Helvetica,sans-Serif" font-size="10.00">~ObserverManager()</text>
<text text-anchor="start" x="530" y="-532.5" font-family="Helvetica,sans-Serif" font-size="10.00">+</text>
<text text-anchor="start" x="546.5" y="-532.5" font-family="Helvetica,sans-Serif" font-size="10.00">ObserverManager()</text>
<text text-anchor="start" x="530" y="-517.5" font-family="Helvetica,sans-Serif" font-size="10.00">+</text>
<text text-anchor="start" x="546.5" y="-517.5" font-family="Helvetica,sans-Serif" font-size="10.00">operator=()</text>
<text text-anchor="start" x="530" y="-502.5" font-family="Helvetica,sans-Serif" font-size="10.00">+</text>
<text text-anchor="start" x="546.5" y="-502.5" font-family="Helvetica,sans-Serif" font-size="10.00">ObserverManager()</text>
<text text-anchor="start" x="530" y="-487.5" font-family="Helvetica,sans-Serif" font-size="10.00">+</text>
<text text-anchor="start" x="546.5" y="-487.5" font-family="Helvetica,sans-Serif" font-size="10.00">operator=()</text>
<text text-anchor="start" x="530" y="-472.5" font-family="Helvetica,sans-Serif" font-size="10.00">+</text>
<text text-anchor="start" x="546.5" y="-472.5" font-family="Helvetica,sans-Serif" font-size="10.00">addObserver()</text>
<text text-anchor="start" x="530" y="-457.5" font-family="Helvetica,sans-Serif" font-size="10.00">+</text>
<text text-anchor="start" x="546.5" y="-457.5" font-family="Helvetica,sans-Serif" font-size="10.00">removeObserver()</text>
<text text-anchor="start" x="530" y="-442.5" font-family="Helvetica,sans-Serif" font-size="10.00">+</text>
<text text-anchor="start" x="546.5" y="-442.5" font-family="Helvetica,sans-Serif" font-size="10.00">clearObservers()</text>
<text text-anchor="start" x="530" y="-427.5" font-family="Helvetica,sans-Serif" font-size="10.00">+</text>
<text text-anchor="start" x="546.5" y="-427.5" font-family="Helvetica,sans-Serif" font-size="10.00">observerCount()</text>
<text text-anchor="start" x="546.5" y="-412.5" font-family="Helvetica,sans-Serif" font-size="10.00">and 6 more...</text>
<polygon fill="#666666" stroke="#666666" points="522.5,-587.5 522.5,-587.5 661.5,-587.5 661.5,-587.5 522.5,-587.5"/>
<polygon fill="#666666" stroke="#666666" points="522.5,-572.5 522.5,-572.5 661.5,-572.5 661.5,-572.5 522.5,-572.5"/>
<polygon fill="none" stroke="#666666" points="522,-405.5 522,-615.5 661,-615.5 661,-405.5 522,-405.5"/>
</a>
</g>
</g>
<!-- Node10&#45;&gt;Node1 -->
<g id="edge10_Node000001_Node000010" class="edge">
<title>Node10&#45;&gt;Node1</title>
<g id="a_edge10_Node000001_Node000010"><a xlink:title=" ">
<path fill="none" stroke="#63b8ff" d="M539.35,-405.19C529.86,-386.21 519.73,-365.96 509.58,-345.66"/>
<polygon fill="none" stroke="#63b8ff" points="509.47,-345.44 503.21,-341.86 504.1,-334.71 510.36,-338.28 509.47,-345.44"/>
</a>
</g>
<text text-anchor="middle" x="555" y="-370" font-family="Helvetica,sans-Serif" font-size="10.00" fill="grey"> #observers_</text>
</g>
<!-- Node11 -->
<g id="Node000011" class="node">
<title>Node11</title>
<g id="a_Node000011"><a xlink:href="structslick_1_1orderbook_1_1TopOfBook.html" target="_top" xlink:title="Top&#45;of&#45;book snapshot &#45; best bid and ask.">
<polygon fill="white" stroke="transparent" points="826,-625 679,-625 679,-396 826,-396 826,-625"/>
<text text-anchor="start" x="684.5" y="-612.5" font-family="Helvetica,sans-Serif" font-size="10.00">slick::orderbook::TopOfBook</text>
<text text-anchor="start" x="699" y="-597.5" font-family="Helvetica,sans-Serif" font-size="10.00">+</text>
<text text-anchor="start" x="727.5" y="-597.5" font-family="Helvetica,sans-Serif" font-size="10.00">symbol</text>
<text text-anchor="start" x="699" y="-582.5" font-family="Helvetica,sans-Serif" font-size="10.00">+</text>
<text text-anchor="start" x="727.5" y="-582.5" font-family="Helvetica,sans-Serif" font-size="10.00">best_bid</text>
<text text-anchor="start" x="699" y="-567.5" font-family="Helvetica,sans-Serif" font-size="10.00">+</text>
<text text-anchor="start" x="727.5" y="-567.5" font-family="Helvetica,sans-Serif" font-size="10.00">bid_quantity</text>
<text text-anchor="start" x="699" y="-552.5" font-family="Helvetica,sans-Serif" font-size="10.00">+</text>
<text text-anchor="start" x="727.5" y="-552.5" font-family="Helvetica,sans-Serif" font-size="10.00">best_ask</text>
<text text-anchor="start" x="699" y="-537.5" font-family="Helvetica,sans-Serif" font-size="10.00">+</text>
<text text-anchor="start" x="727.5" y="-537.5" font-family="Helvetica,sans-Serif" font-size="10.00">ask_quantity</text>
<text text-anchor="start" x="699" y="-522.5" font-family="Helvetica,sans-Serif" font-size="10.00">+</text>
<text text-anchor="start" x="727.5" y="-522.5" font-family="Helvetica,sans-Serif" font-size="10.00">timestamp</text>
<text text-anchor="start" x="699" y="-507.5" font-family="Helvetica,sans-Serif" font-size="10.00">+</text>
<text text-anchor="start" x="727.5" y="-507.5" font-family="Helvetica,sans-Serif" font-size="10.00">TopOfBook()</text>
<text text-anchor="start" x="699" y="-492.5" font-family="Helvetica,sans-Serif" font-size="10.00">+</text>
<text text-anchor="start" x="727.5" y="-492.5" font-family="Helvetica,sans-Serif" font-size="10.00">TopOfBook()</text>
<text text-anchor="start" x="699" y="-477.5" font-family="Helvetica,sans-Serif" font-size="10.00">+</text>
<text text-anchor="start" x="727.5" y="-477.5" font-family="Helvetica,sans-Serif" font-size="10.00">spread()</text>
<text text-anchor="start" x="699" y="-462.5" font-family="Helvetica,sans-Serif" font-size="10.00">+</text>
<text text-anchor="start" x="727.5" y="-462.5" font-family="Helvetica,sans-Serif" font-size="10.00">midPrice()</text>
<text text-anchor="start" x="699" y="-447.5" font-family="Helvetica,sans-Serif" font-size="10.00">+</text>
<text text-anchor="start" x="727.5" y="-447.5" font-family="Helvetica,sans-Serif" font-size="10.00">isCrossed()</text>
<text text-anchor="start" x="699" y="-432.5" font-family="Helvetica,sans-Serif" font-size="10.00">+</text>
<text text-anchor="start" x="727.5" y="-432.5" font-family="Helvetica,sans-Serif" font-size="10.00">hasBid()</text>
<text text-anchor="start" x="699" y="-417.5" font-family="Helvetica,sans-Serif" font-size="10.00">+</text>
<text text-anchor="start" x="727.5" y="-417.5" font-family="Helvetica,sans-Serif" font-size="10.00">hasAsk()</text>
<text text-anchor="start" x="699" y="-402.5" font-family="Helvetica,sans-Serif" font-size="10.00">+</text>
<text text-anchor="start" x="727.5" y="-402.5" font-family="Helvetica,sans-Serif" font-size="10.00">isValid()</text>
<polygon fill="#666666" stroke="#666666" points="679.5,-607.5 679.5,-607.5 826.5,-607.5 826.5,-607.5 679.5,-607.5"/>
<polygon fill="#666666" stroke="#666666" points="679.5,-517.5 679.5,-517.5 725.5,-517.5 725.5,-517.5 679.5,-517.5"/>
<polygon fill="#666666" stroke="#666666" points="725.5,-517.5 725.5,-517.5 826.5,-517.5 826.5,-517.5 725.5,-517.5"/>
<polygon fill="none" stroke="#666666" points="679,-396 679,-625 826,-625 826,-396 679,-396"/>
</a>
</g>
</g>
<!-- Node11&#45;&gt;Node1 -->
<g id="edge11_Node000001_Node000011" class="edge">
<title>Node11&#45;&gt;Node1</title>
<g id="a_edge11_Node000001_Node000011"><a xlink:title=" ">
<path fill="none" stroke="#63b8ff" d="M678.77,-405.47C676.02,-402.24 673.26,-399.07 670.5,-396 622.29,-342.43 562.14,-288.33 513.39,-247.12"/>
<polygon fill="none" stroke="#63b8ff" points="513.29,-247.04 506.13,-246.24 504.11,-239.32 511.28,-240.12 513.29,-247.04"/>
</a>
</g>
<text text-anchor="middle" x="688" y="-370" font-family="Helvetica,sans-Serif" font-size="10.00" fill="grey"> #cached_tob_</text>
</g>
</g>
</svg>
