<?xml version="1.0" encoding="UTF-8" standalone="no"?>
<!DOCTYPE svg PUBLIC "-//W3C//DTD SVG 1.1//EN"
 "http://www.w3.org/Graphics/SVG/1.1/DTD/svg11.dtd">
<!-- Generated by graphviz version 2.43.0 (0)
 -->
<!-- Title: slick::orderbook::OrderBookL3 Pages: 1 -->
<svg width="846pt" height="1123pt"
 viewBox="0.00 0.00 846.00 1123.00" xmlns="http://www.w3.org/2000/svg" xmlns:xlink="http://www.w3.org/1999/xlink">
<g id="graph0" class="graph" transform="scale(1 1) rotate(0) translate(4 1119)">
<title>slick::orderbook::OrderBookL3</title>
<!-- Node1 -->
<g id="Node000001" class="node">
<title>Node1</title>
<g id="a_Node000001"><a xlink:title="Level 3 OrderBook &#45; Individual order tracking with price&#45;time priority.">
<polygon fill="#999999" stroke="transparent" points="523,-379 364,-379 364,0 523,0 523,-379"/>
<text text-anchor="start" x="370" y="-366.5" font-family="Helvetica,sans-Serif" font-size="10.00">slick::orderbook::OrderBookL3</text>
<text text-anchor="start" x="368.5" y="-351.5" font-family="Helvetica,sans-Serif" font-size="10.00">#</text>
<text text-anchor="start" x="381.5" y="-351.5" font-family="Helvetica,sans-Serif" font-size="10.00">symbol_</text>
<text text-anchor="start" x="368.5" y="-336.5" font-family="Helvetica,sans-Serif" font-size="10.00">#</text>
<text text-anchor="start" x="381.5" y="-336.5" font-family="Helvetica,sans-Serif" font-size="10.00">last_seq_num_</text>
<text text-anchor="start" x="368.5" y="-321.5" font-family="Helvetica,sans-Serif" font-size="10.00">#</text>
<text text-anchor="start" x="381.5" y="-321.5" font-family="Helvetica,sans-Serif" font-size="10.00">change_starting_index_</text>
<text text-anchor="start" x="368.5" y="-306.5" font-family="Helvetica,sans-Serif" font-size="10.00">#</text>
<text text-anchor="start" x="381.5" y="-306.5" font-family="Helvetica,sans-Serif" font-size="10.00">interested_num_levels_</text>
<text text-anchor="start" x="368.5" y="-291.5" font-family="Helvetica,sans-Serif" font-size="10.00">+</text>
<text text-anchor="start" x="381.5" y="-291.5" font-family="Helvetica,sans-Serif" font-size="10.00">OrderBookL3()</text>
<text text-anchor="start" x="368.5" y="-276.5" font-family="Helvetica,sans-Serif" font-size="10.00">+</text>
<text text-anchor="start" x="381.5" y="-276.5" font-family="Helvetica,sans-Serif" font-size="10.00">~OrderBookL3()</text>
<text text-anchor="start" x="368.5" y="-261.5" font-family="Helvetica,sans-Serif" font-size="10.00">+</text>
<text text-anchor="start" x="381.5" y="-261.5" font-family="Helvetica,sans-Serif" font-size="10.00">OrderBookL3()</text>
<text text-anchor="start" x="368.5" y="-246.5" font-family="Helvetica,sans-Serif" font-size="10.00">+</text>
<text text-anchor="start" x="381.5" y="-246.5" font-family="Helvetica,sans-Serif" font-size="10.00">operator=()</text>
<text text-anchor="start" x="368.5" y="-231.5" font-family="Helvetica,sans-Serif" font-size="10.00">+</text>
<text text-anchor="start" x="381.5" y="-231.5" font-family="Helvetica,sans-Serif" font-size="10.00">OrderBookL3()</text>
<text text-anchor="start" x="368.5" y="-216.5" font-family="Helvetica,sans-Serif" font-size="10.00">+</text>
<text text-anchor="start" x="381.5" y="-216.5" font-family="Helvetica,sans-Serif" font-size="10.00">operator=()</text>
<text text-anchor="start" x="368.5" y="-201.5" font-family="Helvetica,sans-Serif" font-size="10.00">+</text>
<text text-anchor="start" x="381.5" y="-201.5" font-family="Helvetica,sans-Serif" font-size="10.00">symbol()</text>
<text text-anchor="start" x="368.5" y="-186.5" font-family="Helvetica,sans-Serif" font-size="10.00">+</text>
<text text-anchor="start" x="381.5" y="-186.5" font-family="Helvetica,sans-Serif" font-size="10.00">addOrModifyOrder()</text>
<text text-anchor="start" x="368.5" y="-171.5" font-family="Helvetica,sans-Serif" font-size="10.00">+</text>
<text text-anchor="start" x="381.5" y="-171.5" font-family="Helvetica,sans-Serif" font-size="10.00">addOrder()</text>
<text text-anchor="start" x="368.5" y="-156.5" font-family="Helvetica,sans-Serif" font-size="10.00">+</text>
<text text-anchor="start" x="381.5" y="-156.5" font-family="Helvetica,sans-Serif" font-size="10.00">modifyOrder()</text>
<text text-anchor="start" x="381.5" y="-141.5" font-family="Helvetica,sans-Serif" font-size="10.00">and 25 more...</text>
<text text-anchor="start" x="368.5" y="-126.5" font-family="Helvetica,sans-Serif" font-size="10.00">#</text>
<text text-anchor="start" x="381.5" y="-126.5" font-family="Helvetica,sans-Serif" font-size="10.00">getOrCreateLevel()</text>
<text text-anchor="start" x="368.5" y="-111.5" font-family="Helvetica,sans-Serif" font-size="10.00">#</text>
<text text-anchor="start" x="381.5" y="-111.5" font-family="Helvetica,sans-Serif" font-size="10.00">removeLevelIfEmpty()</text>
<text text-anchor="start" x="368.5" y="-96.5" font-family="Helvetica,sans-Serif" font-size="10.00">#</text>
<text text-anchor="start" x="381.5" y="-96.5" font-family="Helvetica,sans-Serif" font-size="10.00">releaseSide()</text>
<text text-anchor="start" x="368.5" y="-81.5" font-family="Helvetica,sans-Serif" font-size="10.00">#</text>
<text text-anchor="start" x="381.5" y="-81.5" font-family="Helvetica,sans-Serif" font-size="10.00">notifyOrderUpdate()</text>
<text text-anchor="start" x="368.5" y="-66.5" font-family="Helvetica,sans-Serif" font-size="10.00">#</text>
<text text-anchor="start" x="381.5" y="-66.5" font-family="Helvetica,sans-Serif" font-size="10.00">notifyOrderDelete()</text>
<text text-anchor="start" x="368.5" y="-51.5" font-family="Helvetica,sans-Serif" font-size="10.00">#</text>
<text text-anchor="start" x="381.5" y="-51.5" font-family="Helvetica,sans-Serif" font-size="10.00">calculateLevelIndex()</text>
<text text-anchor="start" x="368.5" y="-36.5" font-family="Helvetica,sans-Serif" font-size="10.00">#</text>
<text text-anchor="start" x="381.5" y="-36.5" font-family="Helvetica,sans-Serif" font-size="10.00">notifyTrade()</text>
<text text-anchor="start" x="368.5" y="-21.5" font-family="Helvetica,sans-Serif" font-size="10.00">#</text>
<text text-anchor="start" x="381.5" y="-21.5" font-family="Helvetica,sans-Serif" font-size="10.00">notifyPriceLevelUpdate()</text>
<text text-anchor="start" x="368.5" y="-6.5" font-family="Helvetica,sans-Serif" font-size="10.00">#</text>
<text text-anchor="start" x="381.5" y="-6.5" font-family="Helvetica,sans-Serif" font-size="10.00">notifyTopOfBookIfChanged()</text>
<polygon fill="#666666" stroke="#666666" points="364.5,-361.5 364.5,-361.5 523.5,-361.5 523.5,-361.5 364.5,-361.5"/>
<polygon fill="#666666" stroke="#666666" points="364.5,-301.5 364.5,-301.5 379.5,-301.5 379.5,-301.5 364.5,-301.5"/>
<polygon fill="#666666" stroke="#666666" points="379.5,-301.5 379.5,-301.5 523.5,-301.5 523.5,-301.5 379.5,-301.5"/>
<polygon fill="none" stroke="#666666" points="364,0 364,-379 523,-379 523,0 364,0"/>
</a>
</g>
</g>
<!-- Node2 -->
<g id="Node000002" class="node">
<title>Node2</title>
<g id="a_Node000002"><a xlink:title=" ">
<polygon fill="white" stroke="transparent" points="200,-848 57,-848 57,-788 200,-788 200,-848"/>
<text text-anchor="start" x="62.5" y="-836" font-family="Helvetica,sans-Serif" font-size="10.00">std::array&lt; PriceLevelMap,</text>
<text text-anchor="start" x="97" y="-825" font-family="Helvetica,sans-Serif" font-size="10.00"> SideCount &gt;</text>
<text text-anchor="start" x="127" y="-810" font-family="Helvetica,sans-Serif" font-size="10.00"> </text>
<text text-anchor="start" x="127" y="-795" font-family="Helvetica,sans-Serif" font-size="10.00"> </text>
<polygon fill="#666666" stroke="#666666" points="57.5,-820 57.5,-820 200.5,-820 200.5,-820 57.5,-820"/>
<polygon fill="#666666" stroke="#666666" points="57.5,-805 57.5,-805 200.5,-805 200.5,-805 57.5,-805"/>
<polygon fill="none" stroke="#666666" points="57,-788 57,-848 200,-848 200,-788 57,-788"/>
</a>
</g>
</g>
<!-- Node2&#45;&gt;Node1 -->
<g id="edge1_Node000001_Node000002" class="edge">
<title>Node2&#45;&gt;Node1</title>
<g id="a_edge1_Node000001_Node000002"><a xlink:title=" ">
<path fill="none" stroke="#63b8ff" d="M123.74,-787.94C114.09,-720.09 98.16,-547.78 161.5,-426 203.97,-344.35 288.14,-279.93 353.52,-239.26"/>
<polygon fill="none" stroke="#63b8ff" points="353.61,-239.2 356.64,-232.66 363.84,-232.93 360.81,-239.48 353.61,-239.2"/>
</a>
</g>
<text text-anchor="middle" x="184.5" y="-538" font-family="Helvetica,sans-Serif" font-size="10.00" fill="grey"> #levels_</text>
</g>
<!-- Node3 -->
<g id="Node000003" class="node">
<title>Node3</title>
<g id="a_Node000003"><a xlink:title=" ">
<polygon fill="white" stroke="transparent" points="95,-1019 0,-1019 0,-970 95,-970 95,-1019"/>
<text text-anchor="start" x="5.5" y="-1006.5" font-family="Helvetica,sans-Serif" font-size="10.00">std::map&lt; K, T &gt;</text>
<text text-anchor="start" x="46" y="-991.5" font-family="Helvetica,sans-Serif" font-size="10.00"> </text>
<text text-anchor="start" x="46" y="-976.5" font-family="Helvetica,sans-Serif" font-size="10.00"> </text>
<polygon fill="#666666" stroke="#666666" points="0.5,-1001.5 0.5,-1001.5 95.5,-1001.5 95.5,-1001.5 0.5,-1001.5"/>
<polygon fill="#666666" stroke="#666666" points="0.5,-986.5 0.5,-986.5 95.5,-986.5 95.5,-986.5 0.5,-986.5"/>
<polygon fill="none" stroke="#666666" points="0,-970 0,-1019 95,-1019 95,-970 0,-970"/>
</a>
</g>
</g>
<!-- Node3&#45;&gt;Node2 -->
<g id="edge2_Node000002_Node000003" class="edge">
<title>Node3&#45;&gt;Node2</title>
<g id="a_edge2_Node000002_Node000003"><a xlink:title=" ">
<path fill="none" stroke="#63b8ff" d="M54.2,-969.93C57.04,-960.77 60.6,-950.27 64.5,-941 76.35,-912.83 92.31,-882.39 105.33,-858.96"/>
<polygon fill="none" stroke="#63b8ff" points="105.39,-858.86 104.84,-851.67 111.27,-848.4 111.82,-855.59 105.39,-858.86"/>
</a>
</g>
<text text-anchor="middle" x="93.5" y="-944" font-family="Helvetica,sans-Serif" font-size="10.00" fill="grey"> +elements</text>
</g>
<!-- Node4 -->
<g id="Node000004" class="node">
<title>Node4</title>
<g id="a_Node000004"><a xlink:title=" ">
<polygon fill="white" stroke="transparent" points="41,-1115 24,-1115 24,-1066 41,-1066 41,-1115"/>
<text text-anchor="start" x="29.5" y="-1102.5" font-family="Helvetica,sans-Serif" font-size="10.00">K</text>
<text text-anchor="start" x="31" y="-1087.5" font-family="Helvetica,sans-Serif" font-size="10.00"> </text>
<text text-anchor="start" x="31" y="-1072.5" font-family="Helvetica,sans-Serif" font-size="10.00"> </text>
<polygon fill="#666666" stroke="#666666" points="24.5,-1097.5 24.5,-1097.5 41.5,-1097.5 41.5,-1097.5 24.5,-1097.5"/>
<polygon fill="#666666" stroke="#666666" points="24.5,-1082.5 24.5,-1082.5 41.5,-1082.5 41.5,-1082.5 24.5,-1082.5"/>
<polygon fill="none" stroke="#666666" points="24,-1066 24,-1115 41,-1115 41,-1066 24,-1066"/>
</a>
</g>
</g>
<!-- Node4&#45;&gt;Node3 -->
<g id="edge3_Node000003_Node000004" class="edge">
<title>Node4&#45;&gt;Node3</title>
<g id="a_edge3_Node000003_Node000004"><a xlink:title=" ">
<path fill="none" stroke="#63b8ff" d="M31.42,-1065.83C31.41,-1056.76 31.88,-1046.34 33.5,-1037 33.85,-1034.99 34.28,-1032.95 34.77,-1030.9"/>
<polygon fill="none" stroke="#63b8ff" points="34.78,-1030.85 32.59,-1023.98 38.08,-1019.31 40.28,-1026.18 34.78,-1030.85"/>
</a>
</g>
<text text-anchor="middle" x="50.5" y="-1040" font-family="Helvetica,sans-Serif" font-size="10.00" fill="grey"> +keys</text>
</g>
<!-- Node5 -->
<g id="Node000005" class="node">
<title>Node5</title>
<g id="a_Node000005"><a xlink:title=" ">
<polygon fill="white" stroke="transparent" points="138,-1115 121,-1115 121,-1066 138,-1066 138,-1115"/>
<text text-anchor="start" x="126.5" y="-1102.5" font-family="Helvetica,sans-Serif" font-size="10.00">T</text>
<text text-anchor="start" x="128" y="-1087.5" font-family="Helvetica,sans-Serif" font-size="10.00"> </text>
<text text-anchor="start" x="128" y="-1072.5" font-family="Helvetica,sans-Serif" font-size="10.00"> </text>
<polygon fill="#666666" stroke="#666666" points="121.5,-1097.5 121.5,-1097.5 138.5,-1097.5 138.5,-1097.5 121.5,-1097.5"/>
<polygon fill="#666666" stroke="#666666" points="121.5,-1082.5 121.5,-1082.5 138.5,-1082.5 138.5,-1082.5 121.5,-1082.5"/>
<polygon fill="none" stroke="#666666" points="121,-1066 121,-1115 138,-1115 138,-1066 121,-1066"/>
</a>
</g>
</g>
<!-- Node5&#45;&gt;Node3 -->
<g id="edge4_Node000003_Node000005" class="edge">
<title>Node5&#45;&gt;Node3</title>
<g id="a_edge4_Node000003_Node000005"><a xlink:title=" ">
<path fill="none" stroke="#63b8ff" d="M120.85,-1081.93C111.87,-1073.89 97.6,-1060.62 86.5,-1048 81.29,-1042.07 76.03,-1035.48 71.13,-1029.04"/>
<polygon fill="none" stroke="#63b8ff" points="70.94,-1028.78 64.15,-1026.34 63.79,-1019.14 70.58,-1021.58 70.94,-1028.78"/>
</a>
</g>
<text text-anchor="middle" x="115.5" y="-1040" font-family="Helvetica,sans-Serif" font-size="10.00" fill="grey"> +elements</text>
</g>
<!-- Node6 -->
<g id="Node000006" class="node">
<title>Node6</title>
<g id="a_Node000006"><a xlink:title=" ">
<polygon fill="white" stroke="transparent" points="213.5,-1019 127.5,-1019 127.5,-970 213.5,-970 213.5,-1019"/>
<text text-anchor="start" x="132.5" y="-1006.5" font-family="Helvetica,sans-Serif" font-size="10.00">std::array&lt; T &gt;</text>
<text text-anchor="start" x="168.5" y="-991.5" font-family="Helvetica,sans-Serif" font-size="10.00"> </text>
<text text-anchor="start" x="168.5" y="-976.5" font-family="Helvetica,sans-Serif" font-size="10.00"> </text>
<polygon fill="#666666" stroke="#666666" points="127.5,-1001.5 127.5,-1001.5 213.5,-1001.5 213.5,-1001.5 127.5,-1001.5"/>
<polygon fill="#666666" stroke="#666666" points="127.5,-986.5 127.5,-986.5 213.5,-986.5 213.5,-986.5 127.5,-986.5"/>
<polygon fill="none" stroke="#666666" points="127.5,-970 127.5,-1019 213.5,-1019 213.5,-970 127.5,-970"/>
</a>
</g>
</g>
<!-- Node5&#45;&gt;Node6 -->
<g id="edge6_Node000006_Node000005" class="edge">
<title>Node5&#45;&gt;Node6</title>
<g id="a_edge6_Node000006_Node000005"><a xlink:title=" ">
<path fill="none" stroke="#63b8ff" d="M138.14,-1070.97C141.44,-1063.81 145.19,-1055.55 148.5,-1048 151.01,-1042.26 153.63,-1036.15 156.15,-1030.2"/>
<polygon fill="none" stroke="#63b8ff" points="156.16,-1030.16 154.8,-1023.08 160.81,-1019.09 162.17,-1026.17 156.16,-1030.16"/>
</a>
</g>
<text text-anchor="middle" x="182.5" y="-1040" font-family="Helvetica,sans-Serif" font-size="10.00" fill="grey"> +elements</text>
</g>
<!-- Node6&#45;&gt;Node2 -->
<g id="edge5_Node000002_Node000006" class="edge">
<title>Node6&#45;&gt;Node2</title>
<g id="a_edge5_Node000002_Node000006"><a xlink:title=" ">
<path fill="none" stroke="orange" d="M135.01,-962C132.83,-958.82 130.94,-955.48 129.5,-952 115.6,-918.52 118.37,-876.08 122.6,-848.26"/>
<polygon fill="orange" stroke="orange" points="132.38,-964.31 141.32,-969.98 137.87,-959.97 132.38,-964.31"/>
</a>
</g>
<text text-anchor="middle" x="206" y="-944" font-family="Helvetica,sans-Serif" font-size="10.00" fill="grey"> &lt; PriceLevelMap, SideCount &gt;</text>
</g>
<!-- Node12 -->
<g id="Node000012" class="node">
<title>Node12</title>
<g id="a_Node000012"><a xlink:title=" ">
<polygon fill="white" stroke="transparent" points="358,-842.5 233,-842.5 233,-793.5 358,-793.5 358,-842.5"/>
<text text-anchor="start" x="238.5" y="-830" font-family="Helvetica,sans-Serif" font-size="10.00">std::array&lt; uint8_t, 2 &gt;</text>
<text text-anchor="start" x="252" y="-815" font-family="Helvetica,sans-Serif" font-size="10.00">+</text>
<text text-anchor="start" x="279.5" y="-815" font-family="Helvetica,sans-Serif" font-size="10.00">elements</text>
<text text-anchor="start" x="294" y="-800" font-family="Helvetica,sans-Serif" font-size="10.00"> </text>
<polygon fill="#666666" stroke="#666666" points="233.5,-825 233.5,-825 358.5,-825 358.5,-825 233.5,-825"/>
<polygon fill="#666666" stroke="#666666" points="233.5,-810 233.5,-810 277.5,-810 277.5,-810 233.5,-810"/>
<polygon fill="#666666" stroke="#666666" points="277.5,-810 277.5,-810 358.5,-810 358.5,-810 277.5,-810"/>
<polygon fill="none" stroke="#666666" points="233,-793.5 233,-842.5 358,-842.5 358,-793.5 233,-793.5"/>
</a>
</g>
</g>
<!-- Node6&#45;&gt;Node12 -->
<g id="edge13_Node000012_Node000006" class="edge">
<title>Node6&#45;&gt;Node12</title>
<g id="a_edge13_Node000012_Node000006"><a xlink:title=" ">
<path fill="none" stroke="orange" d="M223.31,-986.39C244.99,-980.69 268.28,-970.44 282.5,-952 306.79,-920.49 304.37,-871.51 300.13,-842.61"/>
<polygon fill="orange" stroke="orange" points="222.44,-983 213.51,-988.69 224.04,-989.81 222.44,-983"/>
</a>
</g>
<text text-anchor="middle" x="324.5" y="-944" font-family="Helvetica,sans-Serif" font-size="10.00" fill="grey"> &lt; uint8_t, 2 &gt;</text>
</g>
<!-- Node7 -->
<g id="Node000007" class="node">
<title>Node7</title>
<g id="a_Node000007"><a xlink:href="classslick_1_1orderbook_1_1detail_1_1OrderMap.html" target="_top" xlink:title="Hash table for fast OrderId &#45;&gt; Order* lookup Uses std::unordered_map for simplicity and performance P...">
<polygon fill="white" stroke="transparent" points="504.5,-645.5 382.5,-645.5 382.5,-435.5 504.5,-435.5 504.5,-645.5"/>
<text text-anchor="start" x="387.5" y="-633.5" font-family="Helvetica,sans-Serif" font-size="10.00">slick::orderbook::detail</text>
<text text-anchor="start" x="416" y="-622.5" font-family="Helvetica,sans-Serif" font-size="10.00">::OrderMap</text>
<text text-anchor="start" x="441.5" y="-607.5" font-family="Helvetica,sans-Serif" font-size="10.00"> </text>
<text text-anchor="start" x="395.5" y="-592.5" font-family="Helvetica,sans-Serif" font-size="10.00">+</text>
<text text-anchor="start" x="417.5" y="-592.5" font-family="Helvetica,sans-Serif" font-size="10.00">OrderMap()</text>
<text text-anchor="start" x="395.5" y="-577.5" font-family="Helvetica,sans-Serif" font-size="10.00">+</text>
<text text-anchor="start" x="417.5" y="-577.5" font-family="Helvetica,sans-Serif" font-size="10.00">insert()</text>
<text text-anchor="start" x="395.5" y="-562.5" font-family="Helvetica,sans-Serif" font-size="10.00">+</text>
<text text-anchor="start" x="417.5" y="-562.5" font-family="Helvetica,sans-Serif" font-size="10.00">erase()</text>
<text text-anchor="start" x="395.5" y="-547.5" font-family="Helvetica,sans-Serif" font-size="10.00">+</text>
<text text-anchor="start" x="417.5" y="-547.5" font-family="Helvetica,sans-Serif" font-size="10.00">find()</text>
<text text-anchor="start" x="395.5" y="-532.5" font-family="Helvetica,sans-Serif" font-size="10.00">+</text>
<text text-anchor="start" x="417.5" y="-532.5" font-family="Helvetica,sans-Serif" font-size="10.00">find()</text>
<text text-anchor="start" x="395.5" y="-517.5" font-family="Helvetica,sans-Serif" font-size="10.00">+</text>
<text text-anchor="start" x="417.5" y="-517.5" font-family="Helvetica,sans-Serif" font-size="10.00">contains()</text>
<text text-anchor="start" x="395.5" y="-502.5" font-family="Helvetica,sans-Serif" font-size="10.00">+</text>
<text text-anchor="start" x="417.5" y="-502.5" font-family="Helvetica,sans-Serif" font-size="10.00">size()</text>
<text text-anchor="start" x="395.5" y="-487.5" font-family="Helvetica,sans-Serif" font-size="10.00">+</text>
<text text-anchor="start" x="417.5" y="-487.5" font-family="Helvetica,sans-Serif" font-size="10.00">empty()</text>
<text text-anchor="start" x="395.5" y="-472.5" font-family="Helvetica,sans-Serif" font-size="10.00">+</text>
<text text-anchor="start" x="417.5" y="-472.5" font-family="Helvetica,sans-Serif" font-size="10.00">reserve()</text>
<text text-anchor="start" x="395.5" y="-457.5" font-family="Helvetica,sans-Serif" font-size="10.00">+</text>
<text text-anchor="start" x="417.5" y="-457.5" font-family="Helvetica,sans-Serif" font-size="10.00">clear()</text>
<text text-anchor="start" x="417.5" y="-442.5" font-family="Helvetica,sans-Serif" font-size="10.00">and 6 more...</text>
<polygon fill="#666666" stroke="#666666" points="382.5,-617.5 382.5,-617.5 504.5,-617.5 504.5,-617.5 382.5,-617.5"/>
<polygon fill="#666666" stroke="#666666" points="382.5,-602.5 382.5,-602.5 504.5,-602.5 504.5,-602.5 382.5,-602.5"/>
<polygon fill="none" stroke="#666666" points="382.5,-435.5 382.5,-645.5 504.5,-645.5 504.5,-435.5 382.5,-435.5"/>
</a>
</g>
</g>
<!-- Node7&#45;&gt;Node1 -->
<g id="edge7_Node000001_Node000007" class="edge">
<title>Node7&#45;&gt;Node1</title>
<g id="a_edge7_Node000001_Node000007"><a xlink:title=" ">
<path fill="none" stroke="#63b8ff" d="M443.5,-435.26C443.5,-421.16 443.5,-406.32 443.5,-391.21"/>
<polygon fill="none" stroke="#63b8ff" points="443.5,-391.04 439.5,-385.04 443.5,-379.04 447.5,-385.04 443.5,-391.04"/>
</a>
</g>
<text text-anchor="middle" x="478.5" y="-400" font-family="Helvetica,sans-Serif" font-size="10.00" fill="grey"> #order_map_</text>
</g>
<!-- Node8 -->
<g id="Node000008" class="node">
<title>Node8</title>
<g id="a_Node000008"><a xlink:href="classslick_1_1orderbook_1_1detail_1_1ObjectPool.html" target="_top" xlink:title=" ">
<polygon fill="white" stroke="transparent" points="680.5,-651 522.5,-651 522.5,-430 680.5,-430 680.5,-651"/>
<text text-anchor="start" x="527.5" y="-638.5" font-family="Helvetica,sans-Serif" font-size="10.00">slick::orderbook::detail</text>
<text text-anchor="start" x="527.5" y="-627.5" font-family="Helvetica,sans-Serif" font-size="10.00">::ObjectPool&lt; slick::orderbook</text>
<text text-anchor="start" x="562" y="-616.5" font-family="Helvetica,sans-Serif" font-size="10.00">::detail::Order &gt;</text>
<text text-anchor="start" x="599.5" y="-601.5" font-family="Helvetica,sans-Serif" font-size="10.00"> </text>
<text text-anchor="start" x="543.5" y="-586.5" font-family="Helvetica,sans-Serif" font-size="10.00">+</text>
<text text-anchor="start" x="573.5" y="-586.5" font-family="Helvetica,sans-Serif" font-size="10.00">ObjectPool()</text>
<text text-anchor="start" x="543.5" y="-571.5" font-family="Helvetica,sans-Serif" font-size="10.00">+</text>
<text text-anchor="start" x="573.5" y="-571.5" font-family="Helvetica,sans-Serif" font-size="10.00">ObjectPool()</text>
<text text-anchor="start" x="543.5" y="-556.5" font-family="Helvetica,sans-Serif" font-size="10.00">+</text>
<text text-anchor="start" x="573.5" y="-556.5" font-family="Helvetica,sans-Serif" font-size="10.00">ObjectPool()</text>
<text text-anchor="start" x="543.5" y="-541.5" font-family="Helvetica,sans-Serif" font-size="10.00">+</text>
<text text-anchor="start" x="573.5" y="-541.5" font-family="Helvetica,sans-Serif" font-size="10.00">~ObjectPool()</text>
<text text-anchor="start" x="543.5" y="-526.5" font-family="Helvetica,sans-Serif" font-size="10.00">+</text>
<text text-anchor="start" x="573.5" y="-526.5" font-family="Helvetica,sans-Serif" font-size="10.00">operator=()</text>
<text text-anchor="start" x="543.5" y="-511.5" font-family="Helvetica,sans-Serif" font-size="10.00">+</text>
<text text-anchor="start" x="573.5" y="-511.5" font-family="Helvetica,sans-Serif" font-size="10.00">operator=()</text>
<text text-anchor="start" x="543.5" y="-496.5" font-family="Helvetica,sans-Serif" font-size="10.00">+</text>
<text text-anchor="start" x="573.5" y="-496.5" font-family="Helvetica,sans-Serif" font-size="10.00">allocate()</text>
<text text-anchor="start" x="543.5" y="-481.5" font-family="Helvetica,sans-Serif" font-size="10.00">+</text>
<text text-anchor="start" x="573.5" y="-481.5" font-family="Helvetica,sans-Serif" font-size="10.00">construct()</text>
<text text-anchor="start" x="543.5" y="-466.5" font-family="Helvetica,sans-Serif" font-size="10.00">+</text>
<text text-anchor="start" x="573.5" y="-466.5" font-family="Helvetica,sans-Serif" font-size="10.00">deallocate()</text>
<text text-anchor="start" x="543.5" y="-451.5" font-family="Helvetica,sans-Serif" font-size="10.00">+</text>
<text text-anchor="start" x="573.5" y="-451.5" font-family="Helvetica,sans-Serif" font-size="10.00">destroy()</text>
<text text-anchor="start" x="573.5" y="-436.5" font-family="Helvetica,sans-Serif" font-size="10.00">and 6 more...</text>
<polygon fill="#666666" stroke="#666666" points="522.5,-611.5 522.5,-611.5 680.5,-611.5 680.5,-611.5 522.5,-611.5"/>
<polygon fill="#666666" stroke="#666666" points="522.5,-596.5 522.5,-596.5 680.5,-596.5 680.5,-596.5 522.5,-596.5"/>
<polygon fill="none" stroke="#666666" points="522.5,-430 522.5,-651 680.5,-651 680.5,-430 522.5,-430"/>
</a>
</g>
</g>
<!-- Node8&#45;&gt;Node1 -->
<g id="edge8_Node000001_Node000008" class="edge">
<title>Node8&#45;&gt;Node1</title>
<g id="a_edge8_Node000001_Node000008"><a xlink:title=" ">
<path fill="none" stroke="#63b8ff" d="M551.72,-429.55C544.16,-412.84 536.18,-395.21 528.12,-377.41"/>
<polygon fill="none" stroke="#63b8ff" points="528.04,-377.24 521.92,-373.42 523.09,-366.31 529.21,-370.12 528.04,-377.24"/>
</a>
</g>
<text text-anchor="middle" x="575" y="-400" font-family="Helvetica,sans-Serif" font-size="10.00" fill="grey"> #order_pool_</text>
</g>
<!-- Node9 -->
<g id="Node000009" class="node">
<title>Node9</title>
<g id="a_Node000009"><a xlink:href="classslick_1_1orderbook_1_1detail_1_1ObjectPool.html" target="_top" xlink:title="Object pool for zero&#45;allocation management of frequently created/destroyed objects.">
<polygon fill="white" stroke="transparent" points="662.5,-923 540.5,-923 540.5,-713 662.5,-713 662.5,-923"/>
<text text-anchor="start" x="545.5" y="-911" font-family="Helvetica,sans-Serif" font-size="10.00">slick::orderbook::detail</text>
<text text-anchor="start" x="557.5" y="-900" font-family="Helvetica,sans-Serif" font-size="10.00">::ObjectPool&lt; T &gt;</text>
<text text-anchor="start" x="599.5" y="-885" font-family="Helvetica,sans-Serif" font-size="10.00"> </text>
<text text-anchor="start" x="552.5" y="-870" font-family="Helvetica,sans-Serif" font-size="10.00">+</text>
<text text-anchor="start" x="573.5" y="-870" font-family="Helvetica,sans-Serif" font-size="10.00">ObjectPool()</text>
<text text-anchor="start" x="552.5" y="-855" font-family="Helvetica,sans-Serif" font-size="10.00">+</text>
<text text-anchor="start" x="573.5" y="-855" font-family="Helvetica,sans-Serif" font-size="10.00">~ObjectPool()</text>
<text text-anchor="start" x="552.5" y="-840" font-family="Helvetica,sans-Serif" font-size="10.00">+</text>
<text text-anchor="start" x="573.5" y="-840" font-family="Helvetica,sans-Serif" font-size="10.00">ObjectPool()</text>
<text text-anchor="start" x="552.5" y="-825" font-family="Helvetica,sans-Serif" font-size="10.00">+</text>
<text text-anchor="start" x="573.5" y="-825" font-family="Helvetica,sans-Serif" font-size="10.00">operator=()</text>
<text text-anchor="start" x="552.5" y="-810" font-family="Helvetica,sans-Serif" font-size="10.00">+</text>
<text text-anchor="start" x="573.5" y="-810" font-family="Helvetica,sans-Serif" font-size="10.00">ObjectPool()</text>
<text text-anchor="start" x="552.5" y="-795" font-family="Helvetica,sans-Serif" font-size="10.00">+</text>
<text text-anchor="start" x="573.5" y="-795" font-family="Helvetica,sans-Serif" font-size="10.00">operator=()</text>
<text text-anchor="start" x="552.5" y="-780" font-family="Helvetica,sans-Serif" font-size="10.00">+</text>
<text text-anchor="start" x="573.5" y="-780" font-family="Helvetica,sans-Serif" font-size="10.00">allocate()</text>
<text text-anchor="start" x="552.5" y="-765" font-family="Helvetica,sans-Serif" font-size="10.00">+</text>
<text text-anchor="start" x="573.5" y="-765" font-family="Helvetica,sans-Serif" font-size="10.00">construct()</text>
<text text-anchor="start" x="552.5" y="-750" font-family="Helvetica,sans-Serif" font-size="10.00">+</text>
<text text-anchor="start" x="573.5" y="-750" font-family="Helvetica,sans-Serif" font-size="10.00">deallocate()</text>
<text text-anchor="start" x="552.5" y="-735" font-family="Helvetica,sans-Serif" font-size="10.00">+</text>
<text text-anchor="start" x="573.5" y="-735" font-family="Helvetica,sans-Serif" font-size="10.00">destroy()</text>
<text text-anchor="start" x="573.5" y="-720" font-family="Helvetica,sans-Serif" font-size="10.00">and 6 more...</text>
<polygon fill="#666666" stroke="#666666" points="540.5,-895 540.5,-895 662.5,-895 662.5,-895 540.5,-895"/>
<polygon fill="#666666" stroke="#666666" points="540.5,-880 540.5,-880 662.5,-880 662.5,-880 540.5,-880"/>
<polygon fill="none" stroke="#666666" points="540.5,-713 540.5,-923 662.5,-923 662.5,-713 540.5,-713"/>
</a>
</g>
</g>
<!-- Node9&#45;&gt;Node8 -->
<g id="edge9_Node000008_Node000009" class="edge">
<title>Node9&#45;&gt;Node8</title>
<g id="a_edge9_Node000008_Node000009"><a xlink:title=" ">
<path fill="none" stroke="orange" d="M601.5,-702.39C601.5,-685.49 601.5,-668.11 601.5,-651.31"/>
<polygon fill="orange" stroke="orange" points="598,-702.85 601.5,-712.85 605,-702.85 598,-702.85"/>
</a>
</g>
<text text-anchor="start" x="601.5" y="-687" font-family="Helvetica,sans-Serif" font-size="10.00" fill="grey"> &lt; slick::orderbook</text>
<text text-anchor="middle" x="648" y="-676" font-family="Helvetica,sans-Serif" font-size="10.00" fill="grey">::detail::Order &gt;</text>
</g>
<!-- Node10 -->
<g id="Node000010" class="node">
<title>Node10</title>
<g id="a_Node000010"><a xlink:href="classslick_1_1orderbook_1_1ObserverManager.html" target="_top" xlink:title="Observer manager for notifying multiple observers Uses type erasure to support both concept&#45;based and...">
<polygon fill="white" stroke="transparent" points="838,-645.5 699,-645.5 699,-435.5 838,-435.5 838,-645.5"/>
<text text-anchor="start" x="704.5" y="-633.5" font-family="Helvetica,sans-Serif" font-size="10.00">slick::orderbook::Observer</text>
<text text-anchor="start" x="747.5" y="-622.5" font-family="Helvetica,sans-Serif" font-size="10.00">Manager</text>
<text text-anchor="start" x="767" y="-607.5" font-family="Helvetica,sans-Serif" font-size="10.00"> </text>
<text text-anchor="start" x="707" y="-592.5" font-family="Helvetica,sans-Serif" font-size="10.00">+</text>
<text text-anchor="start" x="723.5" y="-592.5" font-family="Helvetica,sans-Serif" font-size="10.00">ObserverManager()</text>
<text text-anchor="start" x="707" y="-577.5" font-family="Helvetica,sans-Serif" font-size="10.00">+</text>
<text text-anchor="start" x="723.5" y="-577.5" font-family="Helvetica,sans-Serif" font-size="10.00">~ObserverManager()</text>
<text text-anchor="start" x="707" y="-562.5" font-family="Helvetica,sans-Serif" font-size="10.00">+</text>
<text text-anchor="start" x="723.5" y="-562.5" font-family="Helvetica,sans-Serif" font-size="10.00">ObserverManager()</text>
<text text-anchor="start" x="707" y="-547.5" font-family="Helvetica,sans-Serif" font-size="10.00">+</text>
<text text-anchor="start" x="723.5" y="-547.5" font-family="Helvetica,sans-Serif" font-size="10.00">operator=()</text>
<text text-anchor="start" x="707" y="-532.5" font-family="Helvetica,sans-Serif" font-size="10.00">+</text>
<text text-anchor="start" x="723.5" y="-532.5" font-family="Helvetica,sans-Serif" font-size="10.00">ObserverManager()</text>
<text text-anchor="start" x="707" y="-517.5" font-family="Helvetica,sans-Serif" font-size="10.00">+</text>
<text text-anchor="start" x="723.5" y="-517.5" font-family="Helvetica,sans-Serif" font-size="10.00">operator=()</text>
<text text-anchor="start" x="707" y="-502.5" font-family="Helvetica,sans-Serif" font-size="10.00">+</text>
<text text-anchor="start" x="723.5" y="-502.5" font-family="Helvetica,sans-Serif" font-size="10.00">addObserver()</text>
<text text-anchor="start" x="707" y="-487.5" font-family="Helvetica,sans-Serif" font-size="10.00">+</text>
<text text-anchor="start" x="723.5" y="-487.5" font-family="Helvetica,sans-Serif" font-size="10.00">removeObserver()</text>
<text text-anchor="start" x="707" y="-472.5" font-family="Helvetica,sans-Serif" font-size="10.00">+</text>
<text text-anchor="start" x="723.5" y="-472.5" font-family="Helvetica,sans-Serif" font-size="10.00">clearObservers()</text>
<text text-anchor="start" x="707" y="-457.5" font-family="Helvetica,sans-Serif" font-size="10.00">+</text>
<text text-anchor="start" x="723.5" y="-457.5" font-family="Helvetica,sans-Serif" font-size="10.00">observerCount()</text>
<text text-anchor="start" x="723.5" y="-442.5" font-family="Helvetica,sans-Serif" font-size="10.00">and 6 more...</text>
<polygon fill="#666666" stroke="#666666" points="699.5,-617.5 699.5,-617.5 838.5,-617.5 838.5,-617.5 699.5,-617.5"/>
<polygon fill="#666666" stroke="#666666" points="699.5,-602.5 699.5,-602.5 838.5,-602.5 838.5,-602.5 699.5,-602.5"/>
<polygon fill="none" stroke="#666666" points="699,-435.5 699,-645.5 838,-645.5 838,-435.5 699,-435.5"/>
</a>
</g>
</g>
<!-- Node10&#45;&gt;Node1 -->
<g id="edge10_Node000001_Node000010" class="edge">
<title>Node10&#45;&gt;Node1</title>
<g id="a_edge10_Node000001_Node000010"><a xlink:title=" ">
<path fill="none" stroke="#63b8ff" d="M698.83,-437.27C695.74,-433.42 692.62,-429.65 689.5,-426 641.11,-369.43 580.81,-311.54 532.02,-267.31"/>
<polygon fill="none" stroke="#63b8ff" points="531.96,-267.25 524.82,-266.2 523.05,-259.21 530.18,-260.26 531.96,-267.25"/>
</a>
</g>
<text text-anchor="middle" x="703" y="-400" font-family="Helvetica,sans-Serif" font-size="10.00" fill="grey"> #observers_</text>
</g>
<!-- Node11 -->
<g id="Node000011" class="node">
<title>Node11</title>
<g id="a_Node000011"><a xlink:href="structslick_1_1orderbook_1_1TopOfBook.html" target="_top" xlink:title="Top&#45;of&#45;book snapshot &#45; best bid and ask.">
<polygon fill="white" stroke="transparent" points="364,-655 217,-655 217,-426 364,-426 364,-655"/>
<text text-anchor="start" x="222.5" y="-642.5" font-family="Helvetica,sans-Serif" font-size="10.00">slick::orderbook::TopOfBook</text>
<text text-anchor="start" x="237" y="-627.5" font-family="Helvetica,sans-Serif" font-size="10.00">+</text>
<text text-anchor="start" x="265.5" y="-627.5" font-family="Helvetica,sans-Serif" font-size="10.00">symbol</text>
<text text-anchor="start" x="237" y="-612.5" font-family="Helvetica,sans-Serif" font-size="10.00">+</text>
<text text-anchor="start" x="265.5" y="-612.5" font-family="Helvetica,sans-Serif" font-size="10.00">best_bid</text>
<text text-anchor="start" x="237" y="-597.5" font-family="Helvetica,sans-Serif" font-size="10.00">+</text>
<text text-anchor="start" x="265.5" y="-597.5" font-family="Helvetica,sans-Serif" font-size="10.00">bid_quantity</text>
<text text-anchor="start" x="237" y="-582.5" font-family="Helvetica,sans-Serif" font-size="10.00">+</text>
<text text-anchor="start" x="265.5" y="-582.5" font-family="Helvetica,sans-Serif" font-size="10.00">best_ask</text>
<text text-anchor="start" x="237" y="-567.5" font-family="Helvetica,sans-Serif" font-size="10.00">+</text>
<text text-anchor="start" x="265.5" y="-567.5" font-family="Helvetica,sans-Serif" font-size="10.00">ask_quantity</text>
<text text-anchor="start" x="237" y="-552.5" font-family="Helvetica,sans-Serif" font-size="10.00">+</text>
<text text-anchor="start" x="265.5" y="-552.5" font-family="Helvetica,sans-Serif" font-size="10.00">timestamp</text>
<text text-anchor="start" x="237" y="-537.5" font-family="Helvetica,sans-Serif" font-size="10.00">+</text>
<text text-anchor="start" x="265.5" y="-537.5" font-family="Helvetica,sans-Serif" font-size="10.00">TopOfBook()</text>
<text text-anchor="start" x="237" y="-522.5" font-family="Helvetica,sans-Serif" font-size="10.00">+</text>
<text text-anchor="start" x="265.5" y="-522.5" font-family="Helvetica,sans-Serif" font-size="10.00">TopOfBook()</text>
<text text-anchor="start" x="237" y="-507.5" font-family="Helvetica,sans-Serif" font-size="10.00">+</text>
<text text-anchor="start" x="265.5" y="-507.5" font-family="Helvetica,sans-Serif" font-size="10.00">spread()</text>
<text text-anchor="start" x="237" y="-492.5" font-family="Helvetica,sans-Serif" font-size="10.00">+</text>
<text text-anchor="start" x="265.5" y="-492.5" font-family="Helvetica,sans-Serif" font-size="10.00">midPrice()</text>
<text text-anchor="start" x="237" y="-477.5" font-family="Helvetica,sans-Serif" font-size="10.00">+</text>
<text text-anchor="start" x="265.5" y="-477.5" font-family="Helvetica,sans-Serif" font-size="10.00">isCrossed()</text>
<text text-anchor="start" x="237" y="-462.5" font-family="Helvetica,sans-Serif" font-size="10.00">+</text>
<text text-anchor="start" x="265.5" y="-462.5" font-family="Helvetica,sans-Serif" font-size="10.00">hasBid()</text>
<text text-anchor="start" x="237" y="-447.5" font-family="Helvetica,sans-Serif" font-size="10.00">+</text>
<text text-anchor="start" x="265.5" y="-447.5" font-family="Helvetica,sans-Serif" font-size="10.00">hasAsk()</text>
<text text-anchor="start" x="237" y="-432.5" font-family="Helvetica,sans-Serif" font-size="10.00">+</text>
<text text-anchor="start" x="265.5" y="-432.5" font-family="Helvetica,sans-Serif" font-size="10.00">isValid()</text>
<polygon fill="#666666" stroke="#666666" points="217.5,-637.5 217.5,-637.5 364.5,-637.5 364.5,-637.5 217.5,-637.5"/>
<polygon fill="#666666" stroke="#666666" points="217.5,-547.5 217.5,-547.5 263.5,-547.5 263.5,-547.5 217.5,-547.5"/>
<polygon fill="#666666" stroke="#666666" points="263.5,-547.5 263.5,-547.5 364.5,-547.5 364.5,-547.5 263.5,-547.5"/>
<polygon fill="none" stroke="#666666" points="217,-426 217,-655 364,-655 364,-426 217,-426"/>
</a>
</g>
</g>
<!-- Node11&#45;&gt;Node1 -->
<g id="edge11_Node000001_Node000011" class="edge">
<title>Node11&#45;&gt;Node1</title>
<g id="a_edge11_Node000001_Node000011"><a xlink:title=" ">
<path fill="none" stroke="#63b8ff" d="M340.39,-425.71C346.43,-411.92 352.73,-397.55 359.1,-383.01"/>
<polygon fill="none" stroke="#63b8ff" points="359.17,-382.86 357.92,-375.76 363.99,-371.87 365.24,-378.97 359.17,-382.86"/>
</a>
</g>
<text text-anchor="middle" x="386" y="-400" font-family="Helvetica,sans-Serif" font-size="10.00" fill="grey"> #cached_tob_</text>
</g>
<!-- Node12&#45;&gt;Node11 -->
<g id="edge12_Node000011_Node000012" class="edge">
<title>Node12&#45;&gt;Node11</title>
<g id="a_edge12_Node000011_Node000012"><a xlink:title=" ">
<path fill="none" stroke="#63b8ff" d="M295.07,-793.03C294.55,-764.55 293.65,-714.86 292.78,-667.12"/>
<polygon fill="none" stroke="#63b8ff" points="292.78,-667.04 288.67,-661.11 292.56,-655.04 296.67,-660.97 292.78,-667.04"/>
</a>
</g>
<text text-anchor="middle" x="331.5" y="-681.5" font-family="Helvetica,sans-Serif" font-size="10.00" fill="grey"> +change_flags</text>
</g>
</g>
</svg>
