<?xml version="1.0" encoding="UTF-8" standalone="no"?>
<!DOCTYPE svg PUBLIC "-//W3C//DTD SVG 1.1//EN"
 "http://www.w3.org/Graphics/SVG/1.1/DTD/svg11.dtd">
<!-- Generated by graphviz version 2.43.0 (0)
 -->
<!-- Title: slick::orderbook::OrderBookL3 Pages: 1 -->
<svg width="834pt" height="1012pt"
 viewBox="0.00 0.00 834.00 1012.00" xmlns="http://www.w3.org/2000/svg" xmlns:xlink="http://www.w3.org/1999/xlink">
<g id="graph0" class="graph" transform="scale(1 1) rotate(0) translate(4 1008)">
<title>slick::orderbook::OrderBookL3</title>
<!-- Node1 -->
<g id="Node000001" class="node">
<title>Node1</title>
<g id="a_Node000001"><a xlink:title="Level 3 OrderBook &#45; Individual order tracking with price&#45;time priority.">
<polygon fill="#999999" stroke="transparent" points="504,-364 345,-364 345,0 504,0 504,-364"/>
<text text-anchor="start" x="351" y="-352" font-family="Helvetica,sans-Serif" font-size="10.00">slick::orderbook::OrderBookL3</text>
<text text-anchor="start" x="349.5" y="-337" font-family="Helvetica,sans-Serif" font-size="10.00">#</text>
<text text-anchor="start" x="362.5" y="-337" font-family="Helvetica,sans-Serif" font-size="10.00">symbol_</text>
<text text-anchor="start" x="349.5" y="-322" font-family="Helvetica,sans-Serif" font-size="10.00">#</text>
<text text-anchor="start" x="362.5" y="-322" font-family="Helvetica,sans-Serif" font-size="10.00">last_seq_num_</text>
<text text-anchor="start" x="349.5" y="-307" font-family="Helvetica,sans-Serif" font-size="10.00">#</text>
<text text-anchor="start" x="362.5" y="-307" font-family="Helvetica,sans-Serif" font-size="10.00">change_starting_index_</text>
<text text-anchor="start" x="349.5" y="-292" font-family="Helvetica,sans-Serif" font-size="10.00">#</text>
<text text-anchor="start" x="362.5" y="-292" font-family="Helvetica,sans-Serif" font-size="10.00">interested_num_levels_</text>
<text text-anchor="start" x="349.5" y="-277" font-family="Helvetica,sans-Serif" font-size="10.00">+</text>
<text text-anchor="start" x="362.5" y="-277" font-family="Helvetica,sans-Serif" font-size="10.00">OrderBookL3()</text>
<text text-anchor="start" x="349.5" y="-262" font-family="Helvetica,sans-Serif" font-size="10.00">+</text>
<text text-anchor="start" x="362.5" y="-262" font-family="Helvetica,sans-Serif" font-size="10.00">~OrderBookL3()</text>
<text text-anchor="start" x="349.5" y="-247" font-family="Helvetica,sans-Serif" font-size="10.00">+</text>
<text text-anchor="start" x="362.5" y="-247" font-family="Helvetica,sans-Serif" font-size="10.00">OrderBookL3()</text>
<text text-anchor="start" x="349.5" y="-232" font-family="Helvetica,sans-Serif" font-size="10.00">+</text>
<text text-anchor="start" x="362.5" y="-232" font-family="Helvetica,sans-Serif" font-size="10.00">operator=()</text>
<text text-anchor="start" x="349.5" y="-217" font-family="Helvetica,sans-Serif" font-size="10.00">+</text>
<text text-anchor="start" x="362.5" y="-217" font-family="Helvetica,sans-Serif" font-size="10.00">OrderBookL3()</text>
<text text-anchor="start" x="349.5" y="-202" font-family="Helvetica,sans-Serif" font-size="10.00">+</text>
<text text-anchor="start" x="362.5" y="-202" font-family="Helvetica,sans-Serif" font-size="10.00">operator=()</text>
<text text-anchor="start" x="349.5" y="-187" font-family="Helvetica,sans-Serif" font-size="10.00">+</text>
<text text-anchor="start" x="362.5" y="-187" font-family="Helvetica,sans-Serif" font-size="10.00">symbol()</text>
<text text-anchor="start" x="349.5" y="-172" font-family="Helvetica,sans-Serif" font-size="10.00">+</text>
<text text-anchor="start" x="362.5" y="-172" font-family="Helvetica,sans-Serif" font-size="10.00">addOrModifyOrder()</text>
<text text-anchor="start" x="349.5" y="-157" font-family="Helvetica,sans-Serif" font-size="10.00">+</text>
<text text-anchor="start" x="362.5" y="-157" font-family="Helvetica,sans-Serif" font-size="10.00">addOrder()</text>
<text text-anchor="start" x="349.5" y="-142" font-family="Helvetica,sans-Serif" font-size="10.00">+</text>
<text text-anchor="start" x="362.5" y="-142" font-family="Helvetica,sans-Serif" font-size="10.00">modifyOrder()</text>
<text text-anchor="start" x="362.5" y="-127" font-family="Helvetica,sans-Serif" font-size="10.00">and 25 more...</text>
<text text-anchor="start" x="349.5" y="-112" font-family="Helvetica,sans-Serif" font-size="10.00">#</text>
<text text-anchor="start" x="362.5" y="-112" font-family="Helvetica,sans-Serif" font-size="10.00">getOrCreateLevel()</text>
<text text-anchor="start" x="349.5" y="-97" font-family="Helvetica,sans-Serif" font-size="10.00">#</text>
<text text-anchor="start" x="362.5" y="-97" font-family="Helvetica,sans-Serif" font-size="10.00">removeLevelIfEmpty()</text>
<text text-anchor="start" x="349.5" y="-82" font-family="Helvetica,sans-Serif" font-size="10.00">#</text>
<text text-anchor="start" x="362.5" y="-82" font-family="Helvetica,sans-Serif" font-size="10.00">notifyOrderUpdate()</text>
<text text-anchor="start" x="349.5" y="-67" font-family="Helvetica,sans-Serif" font-size="10.00">#</text>
<text text-anchor="start" x="362.5" y="-67" font-family="Helvetica,sans-Serif" font-size="10.00">notifyOrderDelete()</text>
<text text-anchor="start" x="349.5" y="-52" font-family="Helvetica,sans-Serif" font-size="10.00">#</text>
<text text-anchor="start" x="362.5" y="-52" font-family="Helvetica,sans-Serif" font-size="10.00">calculateLevelIndex()</text>
<text text-anchor="start" x="349.5" y="-37" font-family="Helvetica,sans-Serif" font-size="10.00">#</text>
<text text-anchor="start" x="362.5" y="-37" font-family="Helvetica,sans-Serif" font-size="10.00">notifyTrade()</text>
<text text-anchor="start" x="349.5" y="-22" font-family="Helvetica,sans-Serif" font-size="10.00">#</text>
<text text-anchor="start" x="362.5" y="-22" font-family="Helvetica,sans-Serif" font-size="10.00">notifyPriceLevelUpdate()</text>
<text text-anchor="start" x="349.5" y="-7" font-family="Helvetica,sans-Serif" font-size="10.00">#</text>
<text text-anchor="start" x="362.5" y="-7" font-family="Helvetica,sans-Serif" font-size="10.00">notifyTopOfBookIfChanged()</text>
<polygon fill="#666666" stroke="#666666" points="345.5,-347 345.5,-347 504.5,-347 504.5,-347 345.5,-347"/>
<polygon fill="#666666" stroke="#666666" points="345.5,-287 345.5,-287 360.5,-287 360.5,-287 345.5,-287"/>
<polygon fill="#666666" stroke="#666666" points="360.5,-287 360.5,-287 504.5,-287 504.5,-287 360.5,-287"/>
<polygon fill="none" stroke="#666666" points="345,0 345,-364 504,-364 504,0 345,0"/>
</a>
</g>
</g>
<!-- Node2 -->
<g id="Node000002" class="node">
<title>Node2</title>
<g id="a_Node000002"><a xlink:title=" ">
<polygon fill="white" stroke="transparent" points="187,-555.5 44,-555.5 44,-495.5 187,-495.5 187,-555.5"/>
<text text-anchor="start" x="49.5" y="-543.5" font-family="Helvetica,sans-Serif" font-size="10.00">std::array&lt; PriceLevelMap,</text>
<text text-anchor="start" x="84" y="-532.5" font-family="Helvetica,sans-Serif" font-size="10.00"> SideCount &gt;</text>
<text text-anchor="start" x="114" y="-517.5" font-family="Helvetica,sans-Serif" font-size="10.00"> </text>
<text text-anchor="start" x="114" y="-502.5" font-family="Helvetica,sans-Serif" font-size="10.00"> </text>
<polygon fill="#666666" stroke="#666666" points="44.5,-527.5 44.5,-527.5 187.5,-527.5 187.5,-527.5 44.5,-527.5"/>
<polygon fill="#666666" stroke="#666666" points="44.5,-512.5 44.5,-512.5 187.5,-512.5 187.5,-512.5 44.5,-512.5"/>
<polygon fill="none" stroke="#666666" points="44,-495.5 44,-555.5 187,-555.5 187,-495.5 44,-495.5"/>
</a>
</g>
</g>
<!-- Node2&#45;&gt;Node1 -->
<g id="edge1_Node000001_Node000002" class="edge">
<title>Node2&#45;&gt;Node1</title>
<g id="a_edge1_Node000001_Node000002"><a xlink:title=" ">
<path fill="none" stroke="#63b8ff" d="M134.54,-495.06C150.21,-471.55 173.5,-438.16 196.5,-411 239.73,-359.94 292.29,-306.86 336.05,-264.78"/>
<polygon fill="none" stroke="#63b8ff" points="336.3,-264.54 337.86,-257.5 344.96,-256.24 343.4,-263.28 336.3,-264.54"/>
</a>
</g>
<text text-anchor="middle" x="242.5" y="-385" font-family="Helvetica,sans-Serif" font-size="10.00" fill="grey"> #levels_</text>
</g>
<!-- Node3 -->
<g id="Node000003" class="node">
<title>Node3</title>
<g id="a_Node000003"><a xlink:title=" ">
<polygon fill="white" stroke="transparent" points="95,-827.5 0,-827.5 0,-778.5 95,-778.5 95,-827.5"/>
<text text-anchor="start" x="5.5" y="-815" font-family="Helvetica,sans-Serif" font-size="10.00">std::map&lt; K, T &gt;</text>
<text text-anchor="start" x="46" y="-800" font-family="Helvetica,sans-Serif" font-size="10.00"> </text>
<text text-anchor="start" x="46" y="-785" font-family="Helvetica,sans-Serif" font-size="10.00"> </text>
<polygon fill="#666666" stroke="#666666" points="0.5,-810 0.5,-810 95.5,-810 95.5,-810 0.5,-810"/>
<polygon fill="#666666" stroke="#666666" points="0.5,-795 0.5,-795 95.5,-795 95.5,-795 0.5,-795"/>
<polygon fill="none" stroke="#666666" points="0,-778.5 0,-827.5 95,-827.5 95,-778.5 0,-778.5"/>
</a>
</g>
</g>
<!-- Node3&#45;&gt;Node2 -->
<g id="edge2_Node000002_Node000003" class="edge">
<title>Node3&#45;&gt;Node2</title>
<g id="a_edge2_Node000002_Node000003"><a xlink:title=" ">
<path fill="none" stroke="#63b8ff" d="M51.06,-778.37C55.58,-749.69 64.06,-699.96 74.5,-658 82.15,-627.25 92.87,-593.1 101.42,-567.31"/>
<polygon fill="none" stroke="#63b8ff" points="101.49,-567.11 99.61,-560.15 105.31,-555.73 107.19,-562.69 101.49,-567.11"/>
</a>
</g>
<text text-anchor="middle" x="103.5" y="-666.5" font-family="Helvetica,sans-Serif" font-size="10.00" fill="grey"> +elements</text>
</g>
<!-- Node4 -->
<g id="Node000004" class="node">
<title>Node4</title>
<g id="a_Node000004"><a xlink:title=" ">
<polygon fill="white" stroke="transparent" points="27,-1004 10,-1004 10,-955 27,-955 27,-1004"/>
<text text-anchor="start" x="15.5" y="-991.5" font-family="Helvetica,sans-Serif" font-size="10.00">K</text>
<text text-anchor="start" x="17" y="-976.5" font-family="Helvetica,sans-Serif" font-size="10.00"> </text>
<text text-anchor="start" x="17" y="-961.5" font-family="Helvetica,sans-Serif" font-size="10.00"> </text>
<polygon fill="#666666" stroke="#666666" points="10.5,-986.5 10.5,-986.5 27.5,-986.5 27.5,-986.5 10.5,-986.5"/>
<polygon fill="#666666" stroke="#666666" points="10.5,-971.5 10.5,-971.5 27.5,-971.5 27.5,-971.5 10.5,-971.5"/>
<polygon fill="none" stroke="#666666" points="10,-955 10,-1004 27,-1004 27,-955 10,-955"/>
</a>
</g>
</g>
<!-- Node4&#45;&gt;Node3 -->
<g id="edge3_Node000003_Node000004" class="edge">
<title>Node4&#45;&gt;Node3</title>
<g id="a_edge3_Node000003_Node000004"><a xlink:title=" ">
<path fill="none" stroke="#63b8ff" d="M17.92,-954.91C17.96,-945.84 18.34,-935.41 19.5,-926 23.14,-896.43 30.91,-863.54 37.34,-839.37"/>
<polygon fill="none" stroke="#63b8ff" points="37.4,-839.16 35.12,-832.32 40.56,-827.59 42.84,-834.43 37.4,-839.16"/>
</a>
</g>
<text text-anchor="middle" x="36.5" y="-929" font-family="Helvetica,sans-Serif" font-size="10.00" fill="grey"> +keys</text>
</g>
<!-- Node5 -->
<g id="Node000005" class="node">
<title>Node5</title>
<g id="a_Node000005"><a xlink:title=" ">
<polygon fill="white" stroke="transparent" points="124,-1004 107,-1004 107,-955 124,-955 124,-1004"/>
<text text-anchor="start" x="112.5" y="-991.5" font-family="Helvetica,sans-Serif" font-size="10.00">T</text>
<text text-anchor="start" x="114" y="-976.5" font-family="Helvetica,sans-Serif" font-size="10.00"> </text>
<text text-anchor="start" x="114" y="-961.5" font-family="Helvetica,sans-Serif" font-size="10.00"> </text>
<polygon fill="#666666" stroke="#666666" points="107.5,-986.5 107.5,-986.5 124.5,-986.5 124.5,-986.5 107.5,-986.5"/>
<polygon fill="#666666" stroke="#666666" points="107.5,-971.5 107.5,-971.5 124.5,-971.5 124.5,-971.5 107.5,-971.5"/>
<polygon fill="none" stroke="#666666" points="107,-955 107,-1004 124,-1004 124,-955 107,-955"/>
</a>
</g>
</g>
<!-- Node5&#45;&gt;Node3 -->
<g id="edge4_Node000003_Node000005" class="edge">
<title>Node5&#45;&gt;Node3</title>
<g id="a_edge4_Node000003_Node000005"><a xlink:title=" ">
<path fill="none" stroke="#63b8ff" d="M106.68,-972.6C96.71,-965.42 80.77,-952.34 72.5,-937 56.16,-906.69 50.33,-867.5 48.34,-839.52"/>
<polygon fill="none" stroke="#63b8ff" points="48.34,-839.51 44.01,-833.75 47.67,-827.53 52,-833.3 48.34,-839.51"/>
</a>
</g>
<text text-anchor="middle" x="101.5" y="-929" font-family="Helvetica,sans-Serif" font-size="10.00" fill="grey"> +elements</text>
</g>
<!-- Node6 -->
<g id="Node000006" class="node">
<title>Node6</title>
<g id="a_Node000006"><a xlink:title=" ">
<polygon fill="white" stroke="transparent" points="199.5,-827.5 113.5,-827.5 113.5,-778.5 199.5,-778.5 199.5,-827.5"/>
<text text-anchor="start" x="118.5" y="-815" font-family="Helvetica,sans-Serif" font-size="10.00">std::array&lt; T &gt;</text>
<text text-anchor="start" x="154.5" y="-800" font-family="Helvetica,sans-Serif" font-size="10.00"> </text>
<text text-anchor="start" x="154.5" y="-785" font-family="Helvetica,sans-Serif" font-size="10.00"> </text>
<polygon fill="#666666" stroke="#666666" points="113.5,-810 113.5,-810 199.5,-810 199.5,-810 113.5,-810"/>
<polygon fill="#666666" stroke="#666666" points="113.5,-795 113.5,-795 199.5,-795 199.5,-795 113.5,-795"/>
<polygon fill="none" stroke="#666666" points="113.5,-778.5 113.5,-827.5 199.5,-827.5 199.5,-778.5 113.5,-778.5"/>
</a>
</g>
</g>
<!-- Node5&#45;&gt;Node6 -->
<g id="edge6_Node000006_Node000005" class="edge">
<title>Node5&#45;&gt;Node6</title>
<g id="a_edge6_Node000006_Node000005"><a xlink:title=" ">
<path fill="none" stroke="#63b8ff" d="M124.12,-962.33C127.8,-954.81 131.86,-945.64 134.5,-937 144.3,-904.93 150.03,-867.08 153.16,-839.98"/>
<polygon fill="none" stroke="#63b8ff" points="153.17,-839.91 149.84,-833.51 154.47,-827.98 157.79,-834.38 153.17,-839.91"/>
</a>
</g>
<text text-anchor="middle" x="167.5" y="-929" font-family="Helvetica,sans-Serif" font-size="10.00" fill="grey"> +elements</text>
</g>
<!-- Node6&#45;&gt;Node2 -->
<g id="edge5_Node000002_Node000006" class="edge">
<title>Node6&#45;&gt;Node2</title>
<g id="a_edge5_Node000002_Node000006"><a xlink:title=" ">
<path fill="none" stroke="orange" d="M151.41,-767.81C143.27,-713.08 127.45,-606.78 119.82,-555.52"/>
<polygon fill="orange" stroke="orange" points="148,-768.66 152.93,-778.03 154.92,-767.63 148,-768.66"/>
</a>
</g>
<text text-anchor="middle" x="214" y="-666.5" font-family="Helvetica,sans-Serif" font-size="10.00" fill="grey"> &lt; PriceLevelMap, SideCount &gt;</text>
</g>
<!-- Node7 -->
<g id="Node000007" class="node">
<title>Node7</title>
<g id="a_Node000007"><a xlink:href="classslick_1_1orderbook_1_1detail_1_1OrderMap.html" target="_top" xlink:title="Hash table for fast OrderId &#45;&gt; Order* lookup Uses std::unordered_map for simplicity and performance P...">
<polygon fill="white" stroke="transparent" points="327.5,-630.5 205.5,-630.5 205.5,-420.5 327.5,-420.5 327.5,-630.5"/>
<text text-anchor="start" x="210.5" y="-618.5" font-family="Helvetica,sans-Serif" font-size="10.00">slick::orderbook::detail</text>
<text text-anchor="start" x="239" y="-607.5" font-family="Helvetica,sans-Serif" font-size="10.00">::OrderMap</text>
<text text-anchor="start" x="264.5" y="-592.5" font-family="Helvetica,sans-Serif" font-size="10.00"> </text>
<text text-anchor="start" x="218.5" y="-577.5" font-family="Helvetica,sans-Serif" font-size="10.00">+</text>
<text text-anchor="start" x="240.5" y="-577.5" font-family="Helvetica,sans-Serif" font-size="10.00">OrderMap()</text>
<text text-anchor="start" x="218.5" y="-562.5" font-family="Helvetica,sans-Serif" font-size="10.00">+</text>
<text text-anchor="start" x="240.5" y="-562.5" font-family="Helvetica,sans-Serif" font-size="10.00">insert()</text>
<text text-anchor="start" x="218.5" y="-547.5" font-family="Helvetica,sans-Serif" font-size="10.00">+</text>
<text text-anchor="start" x="240.5" y="-547.5" font-family="Helvetica,sans-Serif" font-size="10.00">erase()</text>
<text text-anchor="start" x="218.5" y="-532.5" font-family="Helvetica,sans-Serif" font-size="10.00">+</text>
<text text-anchor="start" x="240.5" y="-532.5" font-family="Helvetica,sans-Serif" font-size="10.00">find()</text>
<text text-anchor="start" x="218.5" y="-517.5" font-family="Helvetica,sans-Serif" font-size="10.00">+</text>
<text text-anchor="start" x="240.5" y="-517.5" font-family="Helvetica,sans-Serif" font-size="10.00">find()</text>
<text text-anchor="start" x="218.5" y="-502.5" font-family="Helvetica,sans-Serif" font-size="10.00">+</text>
<text text-anchor="start" x="240.5" y="-502.5" font-family="Helvetica,sans-Serif" font-size="10.00">contains()</text>
<text text-anchor="start" x="218.5" y="-487.5" font-family="Helvetica,sans-Serif" font-size="10.00">+</text>
<text text-anchor="start" x="240.5" y="-487.5" font-family="Helvetica,sans-Serif" font-size="10.00">size()</text>
<text text-anchor="start" x="218.5" y="-472.5" font-family="Helvetica,sans-Serif" font-size="10.00">+</text>
<text text-anchor="start" x="240.5" y="-472.5" font-family="Helvetica,sans-Serif" font-size="10.00">empty()</text>
<text text-anchor="start" x="218.5" y="-457.5" font-family="Helvetica,sans-Serif" font-size="10.00">+</text>
<text text-anchor="start" x="240.5" y="-457.5" font-family="Helvetica,sans-Serif" font-size="10.00">reserve()</text>
<text text-anchor="start" x="218.5" y="-442.5" font-family="Helvetica,sans-Serif" font-size="10.00">+</text>
<text text-anchor="start" x="240.5" y="-442.5" font-family="Helvetica,sans-Serif" font-size="10.00">clear()</text>
<text text-anchor="start" x="240.5" y="-427.5" font-family="Helvetica,sans-Serif" font-size="10.00">and 6 more...</text>
<polygon fill="#666666" stroke="#666666" points="205.5,-602.5 205.5,-602.5 327.5,-602.5 327.5,-602.5 205.5,-602.5"/>
<polygon fill="#666666" stroke="#666666" points="205.5,-587.5 205.5,-587.5 327.5,-587.5 327.5,-587.5 205.5,-587.5"/>
<polygon fill="none" stroke="#666666" points="205.5,-420.5 205.5,-630.5 327.5,-630.5 327.5,-420.5 205.5,-420.5"/>
</a>
</g>
</g>
<!-- Node7&#45;&gt;Node1 -->
<g id="edge7_Node000001_Node000007" class="edge">
<title>Node7&#45;&gt;Node1</title>
<g id="a_edge7_Node000001_Node000007"><a xlink:title=" ">
<path fill="none" stroke="#63b8ff" d="M314.76,-420.18C322.77,-402.88 331.27,-384.51 339.86,-365.94"/>
<polygon fill="none" stroke="#63b8ff" points="339.89,-365.88 338.78,-358.75 344.93,-354.99 346.04,-362.11 339.89,-365.88"/>
</a>
</g>
<text text-anchor="middle" x="366.5" y="-385" font-family="Helvetica,sans-Serif" font-size="10.00" fill="grey"> #order_map_</text>
</g>
<!-- Node8 -->
<g id="Node000008" class="node">
<title>Node8</title>
<g id="a_Node000008"><a xlink:href="classslick_1_1orderbook_1_1detail_1_1ObjectPool.html" target="_top" xlink:title=" ">
<polygon fill="white" stroke="transparent" points="503.5,-636 345.5,-636 345.5,-415 503.5,-415 503.5,-636"/>
<text text-anchor="start" x="350.5" y="-623.5" font-family="Helvetica,sans-Serif" font-size="10.00">slick::orderbook::detail</text>
<text text-anchor="start" x="350.5" y="-612.5" font-family="Helvetica,sans-Serif" font-size="10.00">::ObjectPool&lt; slick::orderbook</text>
<text text-anchor="start" x="385" y="-601.5" font-family="Helvetica,sans-Serif" font-size="10.00">::detail::Order &gt;</text>
<text text-anchor="start" x="422.5" y="-586.5" font-family="Helvetica,sans-Serif" font-size="10.00"> </text>
<text text-anchor="start" x="366.5" y="-571.5" font-family="Helvetica,sans-Serif" font-size="10.00">+</text>
<text text-anchor="start" x="396.5" y="-571.5" font-family="Helvetica,sans-Serif" font-size="10.00">ObjectPool()</text>
<text text-anchor="start" x="366.5" y="-556.5" font-family="Helvetica,sans-Serif" font-size="10.00">+</text>
<text text-anchor="start" x="396.5" y="-556.5" font-family="Helvetica,sans-Serif" font-size="10.00">ObjectPool()</text>
<text text-anchor="start" x="366.5" y="-541.5" font-family="Helvetica,sans-Serif" font-size="10.00">+</text>
<text text-anchor="start" x="396.5" y="-541.5" font-family="Helvetica,sans-Serif" font-size="10.00">ObjectPool()</text>
<text text-anchor="start" x="366.5" y="-526.5" font-family="Helvetica,sans-Serif" font-size="10.00">+</text>
<text text-anchor="start" x="396.5" y="-526.5" font-family="Helvetica,sans-Serif" font-size="10.00">~ObjectPool()</text>
<text text-anchor="start" x="366.5" y="-511.5" font-family="Helvetica,sans-Serif" font-size="10.00">+</text>
<text text-anchor="start" x="396.5" y="-511.5" font-family="Helvetica,sans-Serif" font-size="10.00">operator=()</text>
<text text-anchor="start" x="366.5" y="-496.5" font-family="Helvetica,sans-Serif" font-size="10.00">+</text>
<text text-anchor="start" x="396.5" y="-496.5" font-family="Helvetica,sans-Serif" font-size="10.00">operator=()</text>
<text text-anchor="start" x="366.5" y="-481.5" font-family="Helvetica,sans-Serif" font-size="10.00">+</text>
<text text-anchor="start" x="396.5" y="-481.5" font-family="Helvetica,sans-Serif" font-size="10.00">allocate()</text>
<text text-anchor="start" x="366.5" y="-466.5" font-family="Helvetica,sans-Serif" font-size="10.00">+</text>
<text text-anchor="start" x="396.5" y="-466.5" font-family="Helvetica,sans-Serif" font-size="10.00">construct()</text>
<text text-anchor="start" x="366.5" y="-451.5" font-family="Helvetica,sans-Serif" font-size="10.00">+</text>
<text text-anchor="start" x="396.5" y="-451.5" font-family="Helvetica,sans-Serif" font-size="10.00">deallocate()</text>
<text text-anchor="start" x="366.5" y="-436.5" font-family="Helvetica,sans-Serif" font-size="10.00">+</text>
<text text-anchor="start" x="396.5" y="-436.5" font-family="Helvetica,sans-Serif" font-size="10.00">destroy()</text>
<text text-anchor="start" x="396.5" y="-421.5" font-family="Helvetica,sans-Serif" font-size="10.00">and 6 more...</text>
<polygon fill="#666666" stroke="#666666" points="345.5,-596.5 345.5,-596.5 503.5,-596.5 503.5,-596.5 345.5,-596.5"/>
<polygon fill="#666666" stroke="#666666" points="345.5,-581.5 345.5,-581.5 503.5,-581.5 503.5,-581.5 345.5,-581.5"/>
<polygon fill="none" stroke="#666666" points="345.5,-415 345.5,-636 503.5,-636 503.5,-415 345.5,-415"/>
</a>
</g>
</g>
<!-- Node8&#45;&gt;Node1 -->
<g id="edge8_Node000001_Node000008" class="edge">
<title>Node8&#45;&gt;Node1</title>
<g id="a_edge8_Node000001_Node000008"><a xlink:title=" ">
<path fill="none" stroke="#63b8ff" d="M424.5,-414.57C424.5,-402.18 424.5,-389.29 424.5,-376.23"/>
<polygon fill="none" stroke="#63b8ff" points="424.5,-376.2 420.5,-370.2 424.5,-364.2 428.5,-370.2 424.5,-376.2"/>
</a>
</g>
<text text-anchor="middle" x="459" y="-385" font-family="Helvetica,sans-Serif" font-size="10.00" fill="grey"> #order_pool_</text>
</g>
<!-- Node9 -->
<g id="Node000009" class="node">
<title>Node9</title>
<g id="a_Node000009"><a xlink:href="classslick_1_1orderbook_1_1detail_1_1ObjectPool.html" target="_top" xlink:title="Object pool for zero&#45;allocation management of frequently created/destroyed objects.">
<polygon fill="white" stroke="transparent" points="485.5,-908 363.5,-908 363.5,-698 485.5,-698 485.5,-908"/>
<text text-anchor="start" x="368.5" y="-896" font-family="Helvetica,sans-Serif" font-size="10.00">slick::orderbook::detail</text>
<text text-anchor="start" x="380.5" y="-885" font-family="Helvetica,sans-Serif" font-size="10.00">::ObjectPool&lt; T &gt;</text>
<text text-anchor="start" x="422.5" y="-870" font-family="Helvetica,sans-Serif" font-size="10.00"> </text>
<text text-anchor="start" x="375.5" y="-855" font-family="Helvetica,sans-Serif" font-size="10.00">+</text>
<text text-anchor="start" x="396.5" y="-855" font-family="Helvetica,sans-Serif" font-size="10.00">ObjectPool()</text>
<text text-anchor="start" x="375.5" y="-840" font-family="Helvetica,sans-Serif" font-size="10.00">+</text>
<text text-anchor="start" x="396.5" y="-840" font-family="Helvetica,sans-Serif" font-size="10.00">~ObjectPool()</text>
<text text-anchor="start" x="375.5" y="-825" font-family="Helvetica,sans-Serif" font-size="10.00">+</text>
<text text-anchor="start" x="396.5" y="-825" font-family="Helvetica,sans-Serif" font-size="10.00">ObjectPool()</text>
<text text-anchor="start" x="375.5" y="-810" font-family="Helvetica,sans-Serif" font-size="10.00">+</text>
<text text-anchor="start" x="396.5" y="-810" font-family="Helvetica,sans-Serif" font-size="10.00">operator=()</text>
<text text-anchor="start" x="375.5" y="-795" font-family="Helvetica,sans-Serif" font-size="10.00">+</text>
<text text-anchor="start" x="396.5" y="-795" font-family="Helvetica,sans-Serif" font-size="10.00">ObjectPool()</text>
<text text-anchor="start" x="375.5" y="-780" font-family="Helvetica,sans-Serif" font-size="10.00">+</text>
<text text-anchor="start" x="396.5" y="-780" font-family="Helvetica,sans-Serif" font-size="10.00">operator=()</text>
<text text-anchor="start" x="375.5" y="-765" font-family="Helvetica,sans-Serif" font-size="10.00">+</text>
<text text-anchor="start" x="396.5" y="-765" font-family="Helvetica,sans-Serif" font-size="10.00">allocate()</text>
<text text-anchor="start" x="375.5" y="-750" font-family="Helvetica,sans-Serif" font-size="10.00">+</text>
<text text-anchor="start" x="396.5" y="-750" font-family="Helvetica,sans-Serif" font-size="10.00">construct()</text>
<text text-anchor="start" x="375.5" y="-735" font-family="Helvetica,sans-Serif" font-size="10.00">+</text>
<text text-anchor="start" x="396.5" y="-735" font-family="Helvetica,sans-Serif" font-size="10.00">deallocate()</text>
<text text-anchor="start" x="375.5" y="-720" font-family="Helvetica,sans-Serif" font-size="10.00">+</text>
<text text-anchor="start" x="396.5" y="-720" font-family="Helvetica,sans-Serif" font-size="10.00">destroy()</text>
<text text-anchor="start" x="396.5" y="-705" font-family="Helvetica,sans-Serif" font-size="10.00">and 6 more...</text>
<polygon fill="#666666" stroke="#666666" points="363.5,-880 363.5,-880 485.5,-880 485.5,-880 363.5,-880"/>
<polygon fill="#666666" stroke="#666666" points="363.5,-865 363.5,-865 485.5,-865 485.5,-865 363.5,-865"/>
<polygon fill="none" stroke="#666666" points="363.5,-698 363.5,-908 485.5,-908 485.5,-698 363.5,-698"/>
</a>
</g>
</g>
<!-- Node9&#45;&gt;Node8 -->
<g id="edge9_Node000008_Node000009" class="edge">
<title>Node9&#45;&gt;Node8</title>
<g id="a_edge9_Node000008_Node000009"><a xlink:title=" ">
<path fill="none" stroke="orange" d="M424.5,-687.39C424.5,-670.49 424.5,-653.11 424.5,-636.31"/>
<polygon fill="orange" stroke="orange" points="421,-687.85 424.5,-697.85 428,-687.85 421,-687.85"/>
</a>
</g>
<text text-anchor="start" x="424.5" y="-672" font-family="Helvetica,sans-Serif" font-size="10.00" fill="grey"> &lt; slick::orderbook</text>
<text text-anchor="middle" x="471" y="-661" font-family="Helvetica,sans-Serif" font-size="10.00" fill="grey">::detail::Order &gt;</text>
</g>
<!-- Node10 -->
<g id="Node000010" class="node">
<title>Node10</title>
<g id="a_Node000010"><a xlink:href="classslick_1_1orderbook_1_1ObserverManager.html" target="_top" xlink:title="Observer manager for notifying multiple observers Uses type erasure to support both concept&#45;based and...">
<polygon fill="white" stroke="transparent" points="661,-630.5 522,-630.5 522,-420.5 661,-420.5 661,-630.5"/>
<text text-anchor="start" x="527.5" y="-618.5" font-family="Helvetica,sans-Serif" font-size="10.00">slick::orderbook::Observer</text>
<text text-anchor="start" x="570.5" y="-607.5" font-family="Helvetica,sans-Serif" font-size="10.00">Manager</text>
<text text-anchor="start" x="590" y="-592.5" font-family="Helvetica,sans-Serif" font-size="10.00"> </text>
<text text-anchor="start" x="530" y="-577.5" font-family="Helvetica,sans-Serif" font-size="10.00">+</text>
<text text-anchor="start" x="546.5" y="-577.5" font-family="Helvetica,sans-Serif" font-size="10.00">ObserverManager()</text>
<text text-anchor="start" x="530" y="-562.5" font-family="Helvetica,sans-Serif" font-size="10.00">+</text>
<text text-anchor="start" x="546.5" y="-562.5" font-family="Helvetica,sans-Serif" font-size="10.00">~ObserverManager()</text>
<text text-anchor="start" x="530" y="-547.5" font-family="Helvetica,sans-Serif" font-size="10.00">+</text>
<text text-anchor="start" x="546.5" y="-547.5" font-family="Helvetica,sans-Serif" font-size="10.00">ObserverManager()</text>
<text text-anchor="start" x="530" y="-532.5" font-family="Helvetica,sans-Serif" font-size="10.00">+</text>
<text text-anchor="start" x="546.5" y="-532.5" font-family="Helvetica,sans-Serif" font-size="10.00">operator=()</text>
<text text-anchor="start" x="530" y="-517.5" font-family="Helvetica,sans-Serif" font-size="10.00">+</text>
<text text-anchor="start" x="546.5" y="-517.5" font-family="Helvetica,sans-Serif" font-size="10.00">ObserverManager()</text>
<text text-anchor="start" x="530" y="-502.5" font-family="Helvetica,sans-Serif" font-size="10.00">+</text>
<text text-anchor="start" x="546.5" y="-502.5" font-family="Helvetica,sans-Serif" font-size="10.00">operator=()</text>
<text text-anchor="start" x="530" y="-487.5" font-family="Helvetica,sans-Serif" font-size="10.00">+</text>
<text text-anchor="start" x="546.5" y="-487.5" font-family="Helvetica,sans-Serif" font-size="10.00">addObserver()</text>
<text text-anchor="start" x="530" y="-472.5" font-family="Helvetica,sans-Serif" font-size="10.00">+</text>
<text text-anchor="start" x="546.5" y="-472.5" font-family="Helvetica,sans-Serif" font-size="10.00">removeObserver()</text>
<text text-anchor="start" x="530" y="-457.5" font-family="Helvetica,sans-Serif" font-size="10.00">+</text>
<text text-anchor="start" x="546.5" y="-457.5" font-family="Helvetica,sans-Serif" font-size="10.00">clearObservers()</text>
<text text-anchor="start" x="530" y="-442.5" font-family="Helvetica,sans-Serif" font-size="10.00">+</text>
<text text-anchor="start" x="546.5" y="-442.5" font-family="Helvetica,sans-Serif" font-size="10.00">observerCount()</text>
<text text-anchor="start" x="546.5" y="-427.5" font-family="Helvetica,sans-Serif" font-size="10.00">and 6 more...</text>
<polygon fill="#666666" stroke="#666666" points="522.5,-602.5 522.5,-602.5 661.5,-602.5 661.5,-602.5 522.5,-602.5"/>
<polygon fill="#666666" stroke="#666666" points="522.5,-587.5 522.5,-587.5 661.5,-587.5 661.5,-587.5 522.5,-587.5"/>
<polygon fill="none" stroke="#666666" points="522,-420.5 522,-630.5 661,-630.5 661,-420.5 522,-420.5"/>
</a>
</g>
</g>
<!-- Node10&#45;&gt;Node1 -->
<g id="edge10_Node000001_Node000010" class="edge">
<title>Node10&#45;&gt;Node1</title>
<g id="a_edge10_Node000001_Node000010"><a xlink:title=" ">
<path fill="none" stroke="#63b8ff" d="M540.49,-420.18C530.64,-400.05 520.08,-378.45 509.49,-356.79"/>
<polygon fill="none" stroke="#63b8ff" points="509.39,-356.59 503.16,-352.96 504.12,-345.81 510.35,-349.44 509.39,-356.59"/>
</a>
</g>
<text text-anchor="middle" x="555" y="-385" font-family="Helvetica,sans-Serif" font-size="10.00" fill="grey"> #observers_</text>
</g>
<!-- Node11 -->
<g id="Node000011" class="node">
<title>Node11</title>
<g id="a_Node000011"><a xlink:href="structslick_1_1orderbook_1_1TopOfBook.html" target="_top" xlink:title="Top&#45;of&#45;book snapshot &#45; best bid and ask.">
<polygon fill="white" stroke="transparent" points="826,-640 679,-640 679,-411 826,-411 826,-640"/>
<text text-anchor="start" x="684.5" y="-627.5" font-family="Helvetica,sans-Serif" font-size="10.00">slick::orderbook::TopOfBook</text>
<text text-anchor="start" x="699" y="-612.5" font-family="Helvetica,sans-Serif" font-size="10.00">+</text>
<text text-anchor="start" x="727.5" y="-612.5" font-family="Helvetica,sans-Serif" font-size="10.00">symbol</text>
<text text-anchor="start" x="699" y="-597.5" font-family="Helvetica,sans-Serif" font-size="10.00">+</text>
<text text-anchor="start" x="727.5" y="-597.5" font-family="Helvetica,sans-Serif" font-size="10.00">best_bid</text>
<text text-anchor="start" x="699" y="-582.5" font-family="Helvetica,sans-Serif" font-size="10.00">+</text>
<text text-anchor="start" x="727.5" y="-582.5" font-family="Helvetica,sans-Serif" font-size="10.00">bid_quantity</text>
<text text-anchor="start" x="699" y="-567.5" font-family="Helvetica,sans-Serif" font-size="10.00">+</text>
<text text-anchor="start" x="727.5" y="-567.5" font-family="Helvetica,sans-Serif" font-size="10.00">best_ask</text>
<text text-anchor="start" x="699" y="-552.5" font-family="Helvetica,sans-Serif" font-size="10.00">+</text>
<text text-anchor="start" x="727.5" y="-552.5" font-family="Helvetica,sans-Serif" font-size="10.00">ask_quantity</text>
<text text-anchor="start" x="699" y="-537.5" font-family="Helvetica,sans-Serif" font-size="10.00">+</text>
<text text-anchor="start" x="727.5" y="-537.5" font-family="Helvetica,sans-Serif" font-size="10.00">timestamp</text>
<text text-anchor="start" x="699" y="-522.5" font-family="Helvetica,sans-Serif" font-size="10.00">+</text>
<text text-anchor="start" x="727.5" y="-522.5" font-family="Helvetica,sans-Serif" font-size="10.00">TopOfBook()</text>
<text text-anchor="start" x="699" y="-507.5" font-family="Helvetica,sans-Serif" font-size="10.00">+</text>
<text text-anchor="start" x="727.5" y="-507.5" font-family="Helvetica,sans-Serif" font-size="10.00">TopOfBook()</text>
<text text-anchor="start" x="699" y="-492.5" font-family="Helvetica,sans-Serif" font-size="10.00">+</text>
<text text-anchor="start" x="727.5" y="-492.5" font-family="Helvetica,sans-Serif" font-size="10.00">spread()</text>
<text text-anchor="start" x="699" y="-477.5" font-family="Helvetica,sans-Serif" font-size="10.00">+</text>
<text text-anchor="start" x="727.5" y="-477.5" font-family="Helvetica,sans-Serif" font-size="10.00">midPrice()</text>
<text text-anchor="start" x="699" y="-462.5" font-family="Helvetica,sans-Serif" font-size="10.00">+</text>
<text text-anchor="start" x="727.5" y="-462.5" font-family="Helvetica,sans-Serif" font-size="10.00">isCrossed()</text>
<text text-anchor="start" x="699" y="-447.5" font-family="Helvetica,sans-Serif" font-size="10.00">+</text>
<text text-anchor="start" x="727.5" y="-447.5" font-family="Helvetica,sans-Serif" font-size="10.00">hasBid()</text>
<text text-anchor="start" x="699" y="-432.5" font-family="Helvetica,sans-Serif" font-size="10.00">+</text>
<text text-anchor="start" x="727.5" y="-432.5" font-family="Helvetica,sans-Serif" font-size="10.00">hasAsk()</text>
<text text-anchor="start" x="699" y="-417.5" font-family="Helvetica,sans-Serif" font-size="10.00">+</text>
<text text-anchor="start" x="727.5" y="-417.5" font-family="Helvetica,sans-Serif" font-size="10.00">isValid()</text>
<polygon fill="#666666" stroke="#666666" points="679.5,-622.5 679.5,-622.5 826.5,-622.5 826.5,-622.5 679.5,-622.5"/>
<polygon fill="#666666" stroke="#666666" points="679.5,-532.5 679.5,-532.5 725.5,-532.5 725.5,-532.5 679.5,-532.5"/>
<polygon fill="#666666" stroke="#666666" points="725.5,-532.5 725.5,-532.5 826.5,-532.5 826.5,-532.5 725.5,-532.5"/>
<polygon fill="none" stroke="#666666" points="679,-411 679,-640 826,-640 826,-411 679,-411"/>
</a>
</g>
</g>
<!-- Node11&#45;&gt;Node1 -->
<g id="edge11_Node000001_Node000011" class="edge">
<title>Node11&#45;&gt;Node1</title>
<g id="a_edge11_Node000001_Node000011"><a xlink:title=" ">
<path fill="none" stroke="#63b8ff" d="M678.94,-420.81C676.14,-417.47 673.32,-414.19 670.5,-411 622.1,-356.31 562.08,-300.49 513.44,-257.76"/>
<polygon fill="none" stroke="#63b8ff" points="513.22,-257.57 506.07,-256.63 504.19,-249.67 511.33,-250.61 513.22,-257.57"/>
</a>
</g>
<text text-anchor="middle" x="688" y="-385" font-family="Helvetica,sans-Serif" font-size="10.00" fill="grey"> #cached_tob_</text>
</g>
</g>
</svg>
