<?xml version="1.0" encoding="UTF-8" standalone="no"?>
<!DOCTYPE svg PUBLIC "-//W3C//DTD SVG 1.1//EN"
 "http://www.w3.org/Graphics/SVG/1.1/DTD/svg11.dtd">
<!-- Generated by graphviz version 2.43.0 (0)
 -->
<!-- Title: slick::orderbook::detail::IntrusiveList&lt; T, NextPtr, PrevPtr &gt; Pages: 1 -->
<svg width="173pt" height="508pt"
 viewBox="0.00 0.00 173.00 508.00" xmlns="http://www.w3.org/2000/svg" xmlns:xlink="http://www.w3.org/1999/xlink">
<g id="graph0" class="graph" transform="scale(1 1) rotate(0) translate(4 504)">
<title>slick::orderbook::detail::IntrusiveList&lt; T, NextPtr, PrevPtr &gt;</title>
<!-- Node1 -->
<g id="Node000001" class="node">
<title>Node1</title>
<g id="a_Node000001"><a xlink:title="Intrusive doubly&#45;linked list for zero&#45;allocation order management.">
<polygon fill="#999999" stroke="transparent" points="142,-500 2,-500 2,-279 142,-279 142,-500"/>
<text text-anchor="start" x="7" y="-487.5" font-family="Helvetica,sans-Serif" font-size="10.00">slick::orderbook::detail</text>
<text text-anchor="start" x="7" y="-476.5" font-family="Helvetica,sans-Serif" font-size="10.00">::IntrusiveList&lt; T, NextPtr,</text>
<text text-anchor="start" x="47" y="-465.5" font-family="Helvetica,sans-Serif" font-size="10.00"> PrevPtr &gt;</text>
<text text-anchor="start" x="70" y="-450.5" font-family="Helvetica,sans-Serif" font-size="10.00"> </text>
<text text-anchor="start" x="16.5" y="-435.5" font-family="Helvetica,sans-Serif" font-size="10.00">+</text>
<text text-anchor="start" x="40" y="-435.5" font-family="Helvetica,sans-Serif" font-size="10.00">IntrusiveList()</text>
<text text-anchor="start" x="16.5" y="-420.5" font-family="Helvetica,sans-Serif" font-size="10.00">+</text>
<text text-anchor="start" x="40" y="-420.5" font-family="Helvetica,sans-Serif" font-size="10.00">~IntrusiveList()</text>
<text text-anchor="start" x="16.5" y="-405.5" font-family="Helvetica,sans-Serif" font-size="10.00">+</text>
<text text-anchor="start" x="40" y="-405.5" font-family="Helvetica,sans-Serif" font-size="10.00">IntrusiveList()</text>
<text text-anchor="start" x="16.5" y="-390.5" font-family="Helvetica,sans-Serif" font-size="10.00">+</text>
<text text-anchor="start" x="40" y="-390.5" font-family="Helvetica,sans-Serif" font-size="10.00">operator=()</text>
<text text-anchor="start" x="16.5" y="-375.5" font-family="Helvetica,sans-Serif" font-size="10.00">+</text>
<text text-anchor="start" x="40" y="-375.5" font-family="Helvetica,sans-Serif" font-size="10.00">IntrusiveList()</text>
<text text-anchor="start" x="16.5" y="-360.5" font-family="Helvetica,sans-Serif" font-size="10.00">+</text>
<text text-anchor="start" x="40" y="-360.5" font-family="Helvetica,sans-Serif" font-size="10.00">operator=()</text>
<text text-anchor="start" x="16.5" y="-345.5" font-family="Helvetica,sans-Serif" font-size="10.00">+</text>
<text text-anchor="start" x="40" y="-345.5" font-family="Helvetica,sans-Serif" font-size="10.00">empty()</text>
<text text-anchor="start" x="16.5" y="-330.5" font-family="Helvetica,sans-Serif" font-size="10.00">+</text>
<text text-anchor="start" x="40" y="-330.5" font-family="Helvetica,sans-Serif" font-size="10.00">size()</text>
<text text-anchor="start" x="16.5" y="-315.5" font-family="Helvetica,sans-Serif" font-size="10.00">+</text>
<text text-anchor="start" x="40" y="-315.5" font-family="Helvetica,sans-Serif" font-size="10.00">front()</text>
<text text-anchor="start" x="16.5" y="-300.5" font-family="Helvetica,sans-Serif" font-size="10.00">+</text>
<text text-anchor="start" x="40" y="-300.5" font-family="Helvetica,sans-Serif" font-size="10.00">front()</text>
<text text-anchor="start" x="40" y="-285.5" font-family="Helvetica,sans-Serif" font-size="10.00">and 22 more...</text>
<polygon fill="#666666" stroke="#666666" points="2,-460.5 2,-460.5 142,-460.5 142,-460.5 2,-460.5"/>
<polygon fill="#666666" stroke="#666666" points="2,-445.5 2,-445.5 142,-445.5 142,-445.5 2,-445.5"/>
<polygon fill="none" stroke="#666666" points="2,-279 2,-500 142,-500 142,-279 2,-279"/>
</a>
</g>
</g>
<!-- Node2 -->
<g id="Node000002" class="node">
<title>Node2</title>
<g id="a_Node000002"><a xlink:href="classslick_1_1orderbook_1_1detail_1_1IntrusiveList.html" target="_top" xlink:title=" ">
<polygon fill="white" stroke="transparent" points="144,-221 0,-221 0,0 144,0 144,-221"/>
<text text-anchor="start" x="5" y="-208.5" font-family="Helvetica,sans-Serif" font-size="10.00">slick::orderbook::detail</text>
<text text-anchor="start" x="5" y="-197.5" font-family="Helvetica,sans-Serif" font-size="10.00">::IntrusiveList&lt; slick</text>
<text text-anchor="start" x="5" y="-186.5" font-family="Helvetica,sans-Serif" font-size="10.00">::orderbook::detail::Order &gt;</text>
<text text-anchor="start" x="70" y="-171.5" font-family="Helvetica,sans-Serif" font-size="10.00"> </text>
<text text-anchor="start" x="15.5" y="-156.5" font-family="Helvetica,sans-Serif" font-size="10.00">+</text>
<text text-anchor="start" x="40" y="-156.5" font-family="Helvetica,sans-Serif" font-size="10.00">IntrusiveList()</text>
<text text-anchor="start" x="15.5" y="-141.5" font-family="Helvetica,sans-Serif" font-size="10.00">+</text>
<text text-anchor="start" x="40" y="-141.5" font-family="Helvetica,sans-Serif" font-size="10.00">IntrusiveList()</text>
<text text-anchor="start" x="15.5" y="-126.5" font-family="Helvetica,sans-Serif" font-size="10.00">+</text>
<text text-anchor="start" x="40" y="-126.5" font-family="Helvetica,sans-Serif" font-size="10.00">IntrusiveList()</text>
<text text-anchor="start" x="15.5" y="-111.5" font-family="Helvetica,sans-Serif" font-size="10.00">+</text>
<text text-anchor="start" x="40" y="-111.5" font-family="Helvetica,sans-Serif" font-size="10.00">~IntrusiveList()</text>
<text text-anchor="start" x="15.5" y="-96.5" font-family="Helvetica,sans-Serif" font-size="10.00">+</text>
<text text-anchor="start" x="40" y="-96.5" font-family="Helvetica,sans-Serif" font-size="10.00">operator=()</text>
<text text-anchor="start" x="15.5" y="-81.5" font-family="Helvetica,sans-Serif" font-size="10.00">+</text>
<text text-anchor="start" x="40" y="-81.5" font-family="Helvetica,sans-Serif" font-size="10.00">operator=()</text>
<text text-anchor="start" x="15.5" y="-66.5" font-family="Helvetica,sans-Serif" font-size="10.00">+</text>
<text text-anchor="start" x="40" y="-66.5" font-family="Helvetica,sans-Serif" font-size="10.00">empty()</text>
<text text-anchor="start" x="15.5" y="-51.5" font-family="Helvetica,sans-Serif" font-size="10.00">+</text>
<text text-anchor="start" x="40" y="-51.5" font-family="Helvetica,sans-Serif" font-size="10.00">size()</text>
<text text-anchor="start" x="15.5" y="-36.5" font-family="Helvetica,sans-Serif" font-size="10.00">+</text>
<text text-anchor="start" x="40" y="-36.5" font-family="Helvetica,sans-Serif" font-size="10.00">front()</text>
<text text-anchor="start" x="15.5" y="-21.5" font-family="Helvetica,sans-Serif" font-size="10.00">+</text>
<text text-anchor="start" x="40" y="-21.5" font-family="Helvetica,sans-Serif" font-size="10.00">front()</text>
<text text-anchor="start" x="40" y="-6.5" font-family="Helvetica,sans-Serif" font-size="10.00">and 22 more...</text>
<polygon fill="#666666" stroke="#666666" points="0,-181.5 0,-181.5 144,-181.5 144,-181.5 0,-181.5"/>
<polygon fill="#666666" stroke="#666666" points="0,-166.5 0,-166.5 144,-166.5 144,-166.5 0,-166.5"/>
<polygon fill="none" stroke="#666666" points="0,0 0,-221 144,-221 144,0 0,0"/>
</a>
</g>
</g>
<!-- Node1&#45;&gt;Node2 -->
<g id="edge1_Node000001_Node000002" class="edge">
<title>Node1&#45;&gt;Node2</title>
<g id="a_edge1_Node000001_Node000002"><a xlink:title=" ">
<path fill="none" stroke="orange" d="M72,-268.38C72,-252.72 72,-236.73 72,-221.24"/>
<polygon fill="orange" stroke="orange" points="68.5,-268.62 72,-278.62 75.5,-268.62 68.5,-268.62"/>
</a>
</g>
<text text-anchor="start" x="72" y="-253" font-family="Helvetica,sans-Serif" font-size="10.00" fill="grey"> &lt; slick::orderbook</text>
<text text-anchor="middle" x="118.5" y="-242" font-family="Helvetica,sans-Serif" font-size="10.00" fill="grey">::detail::Order &gt;</text>
</g>
</g>
</svg>
