<?xml version="1.0" encoding="UTF-8" standalone="no"?>
<!DOCTYPE svg PUBLIC "-//W3C//DTD SVG 1.1//EN"
 "http://www.w3.org/Graphics/SVG/1.1/DTD/svg11.dtd">
<!-- Generated by graphviz version 2.43.0 (0)
 -->
<!-- Title: slick::orderbook::OrderBookL2 Pages: 1 -->
<!--zoomable 914 -->

<svg id="main" version="1.1" xmlns="http://www.w3.org/2000/svg" xmlns:xlink="http://www.w3.org/1999/xlink" xml:space="preserve" onload="init(evt)">
<style type="text/css"><![CDATA[
.node, .edge {opacity: 0.7;}
.node.selected, .edge.selected {opacity: 1;}
.edge:hover path { stroke: red; }
.edge:hover polygon { stroke: red; fill: red; }
]]></style>

<defs>
  <circle id="rim" cx="0" cy="0" r="7"/>
  <circle id="rim2" cx="0" cy="0" r="3.5"/>
  <g id="zoomPlus">
    <use xlink:href="#rim" fill="#404040"><set attributeName="fill" to="#808080" begin="zoomplus.mouseover" end="zoomplus.mouseout"/></use>
    <path d="M-4,0h8M0,-4v8" fill="none" stroke="white" stroke-width="1.5" pointer-events="none"/>
  </g>
  <g id="zoomMin">
    <use xlink:href="#rim" fill="#404040"><set attributeName="fill" to="#808080" begin="zoomminus.mouseover" end="zoomminus.mouseout"/></use>
    <path d="M-4,0h8" fill="none" stroke="white" stroke-width="1.5" pointer-events="none"/>
  </g>
  <g id="arrowUp" transform="translate(30 24)">
    <use xlink:href="#rim"/>
    <path pointer-events="none" fill="none" stroke="white" stroke-width="1.5" d="M0,-3.0v7 M-2.5,-0.5L0,-3.0L2.5,-0.5"/>
  </g>
  <g id="arrowRight" transform="rotate(90) translate(36 -43)">
    <use xlink:href="#rim"/>
    <path pointer-events="none" fill="none" stroke="white" stroke-width="1.5" d="M0,-3.0v7 M-2.5,-0.5L0,-3.0L2.5,-0.5"/>
  </g>
  <g id="arrowDown" transform="rotate(180) translate(-30 -48)">
    <use xlink:href="#rim"/>
    <path pointer-events="none" fill="none" stroke="white" stroke-width="1.5" d="M0,-3.0v7 M-2.5,-0.5L0,-3.0L2.5,-0.5"/>
  </g>
  <g id="arrowLeft" transform="rotate(270) translate(-36 17)">
    <use xlink:href="#rim"/>
    <path pointer-events="none" fill="none" stroke="white" stroke-width="1.5" d="M0,-3.0v7 M-2.5,-0.5L0,-3.0L2.5,-0.5"/>
  </g>
  <g id="resetDef">
    <use xlink:href="#rim2" fill="#404040"><set attributeName="fill" to="#808080" begin="reset.mouseover" end="reset.mouseout"/></use>
  </g>
</defs>
<script type="application/ecmascript">
var viewWidth = 826;
var viewHeight = 914;
var sectionId = 'dynsection-0';
</script>
<script type="application/ecmascript" xlink:href="svg.min.js"/>
<svg id="graph" class="graph">
<g id="viewport">
<title>slick::orderbook::OrderBookL2</title>
<!-- Node1 -->
<g id="Node000001" class="node">
<title>Node1</title>
<g id="a_Node000001"><a xlink:title="Level 2 OrderBook &#45; aggregated price levels.">
<polygon fill="#999999" stroke="transparent" points="522.5,-244 363.5,-244 363.5,0 522.5,0 522.5,-244"/>
<text text-anchor="start" x="369.5" y="-232" font-family="Helvetica,sans-Serif" font-size="10.00">slick::orderbook::OrderBookL2</text>
<text text-anchor="start" x="368" y="-217" font-family="Helvetica,sans-Serif" font-size="10.00">#</text>
<text text-anchor="start" x="381" y="-217" font-family="Helvetica,sans-Serif" font-size="10.00">symbol_</text>
<text text-anchor="start" x="368" y="-202" font-family="Helvetica,sans-Serif" font-size="10.00">#</text>
<text text-anchor="start" x="381" y="-202" font-family="Helvetica,sans-Serif" font-size="10.00">last_seq_num_</text>
<text text-anchor="start" x="368" y="-187" font-family="Helvetica,sans-Serif" font-size="10.00">#</text>
<text text-anchor="start" x="381" y="-187" font-family="Helvetica,sans-Serif" font-size="10.00">change_starting_index_</text>
<text text-anchor="start" x="368" y="-172" font-family="Helvetica,sans-Serif" font-size="10.00">+</text>
<text text-anchor="start" x="381" y="-172" font-family="Helvetica,sans-Serif" font-size="10.00">OrderBookL2()</text>
<text text-anchor="start" x="368" y="-157" font-family="Helvetica,sans-Serif" font-size="10.00">+</text>
<text text-anchor="start" x="381" y="-157" font-family="Helvetica,sans-Serif" font-size="10.00">~OrderBookL2()</text>
<text text-anchor="start" x="368" y="-142" font-family="Helvetica,sans-Serif" font-size="10.00">+</text>
<text text-anchor="start" x="381" y="-142" font-family="Helvetica,sans-Serif" font-size="10.00">OrderBookL2()</text>
<text text-anchor="start" x="368" y="-127" font-family="Helvetica,sans-Serif" font-size="10.00">+</text>
<text text-anchor="start" x="381" y="-127" font-family="Helvetica,sans-Serif" font-size="10.00">operator=()</text>
<text text-anchor="start" x="368" y="-112" font-family="Helvetica,sans-Serif" font-size="10.00">+</text>
<text text-anchor="start" x="381" y="-112" font-family="Helvetica,sans-Serif" font-size="10.00">OrderBookL2()</text>
<text text-anchor="start" x="368" y="-97" font-family="Helvetica,sans-Serif" font-size="10.00">+</text>
<text text-anchor="start" x="381" y="-97" font-family="Helvetica,sans-Serif" font-size="10.00">operator=()</text>
<text text-anchor="start" x="368" y="-82" font-family="Helvetica,sans-Serif" font-size="10.00">+</text>
<text text-anchor="start" x="381" y="-82" font-family="Helvetica,sans-Serif" font-size="10.00">symbol()</text>
<text text-anchor="start" x="368" y="-67" font-family="Helvetica,sans-Serif" font-size="10.00">+</text>
<text text-anchor="start" x="381" y="-67" font-family="Helvetica,sans-Serif" font-size="10.00">updateLevel()</text>
<text text-anchor="start" x="368" y="-52" font-family="Helvetica,sans-Serif" font-size="10.00">+</text>
<text text-anchor="start" x="381" y="-52" font-family="Helvetica,sans-Serif" font-size="10.00">deleteLevel()</text>
<text text-anchor="start" x="368" y="-37" font-family="Helvetica,sans-Serif" font-size="10.00">+</text>
<text text-anchor="start" x="381" y="-37" font-family="Helvetica,sans-Serif" font-size="10.00">clearSide()</text>
<text text-anchor="start" x="381" y="-22" font-family="Helvetica,sans-Serif" font-size="10.00">and 16 more...</text>
<text text-anchor="start" x="368" y="-7" font-family="Helvetica,sans-Serif" font-size="10.00">#</text>
<text text-anchor="start" x="381" y="-7" font-family="Helvetica,sans-Serif" font-size="10.00">notifyTopOfBookIfChanged()</text>
<polygon fill="#666666" stroke="#666666" points="364,-227 364,-227 523,-227 523,-227 364,-227"/>
<polygon fill="#666666" stroke="#666666" points="364,-182 364,-182 379,-182 379,-182 364,-182"/>
<polygon fill="#666666" stroke="#666666" points="379,-182 379,-182 523,-182 523,-182 379,-182"/>
<polygon fill="none" stroke="#666666" points="363.5,0 363.5,-244 522.5,-244 522.5,0 363.5,0"/>
</a>
</g>
</g>
<!-- Node2 -->
<g id="Node000002" class="node">
<title>Node2</title>
<g id="a_Node000002"><a xlink:title=" ">
<polygon fill="white" stroke="transparent" points="209,-452 33,-452 33,-381 209,-381 209,-452"/>
<text text-anchor="start" x="38" y="-439.5" font-family="Helvetica,sans-Serif" font-size="10.00">std::array&lt; slick::</text>
<text text-anchor="start" x="38" y="-428.5" font-family="Helvetica,sans-Serif" font-size="10.00">orderbook::detail::LevelContainer,</text>
<text text-anchor="start" x="89" y="-417.5" font-family="Helvetica,sans-Serif" font-size="10.00"> SideCount &gt;</text>
<text text-anchor="start" x="119" y="-402.5" font-family="Helvetica,sans-Serif" font-size="10.00"> </text>
<text text-anchor="start" x="119" y="-387.5" font-family="Helvetica,sans-Serif" font-size="10.00"> </text>
<polygon fill="#666666" stroke="#666666" points="33,-412.5 33,-412.5 209,-412.5 209,-412.5 33,-412.5"/>
<polygon fill="#666666" stroke="#666666" points="33,-397.5 33,-397.5 209,-397.5 209,-397.5 33,-397.5"/>
<polygon fill="none" stroke="#666666" points="33,-381 33,-452 209,-452 209,-381 33,-381"/>
</a>
</g>
</g>
<!-- Node2&#45;&gt;Node1 -->
<g id="edge1_Node000001_Node000002" class="edge">
<title>Node2&#45;&gt;Node1</title>
<g id="a_edge1_Node000001_Node000002"><a xlink:title=" ">
<path fill="none" stroke="#63b8ff" d="M147.63,-380.97C166.28,-357.66 192.36,-326.76 218,-302 260.14,-261.31 310.93,-220.31 353.59,-187.83"/>
<polygon fill="none" stroke="#63b8ff" points="353.83,-187.65 356.2,-180.84 363.4,-180.4 361.03,-187.22 353.83,-187.65"/>
</a>
</g>
<text text-anchor="middle" x="280.5" y="-270.5" font-family="Helvetica,sans-Serif" font-size="10.00" fill="grey"> #sides_</text>
</g>
<!-- Node3 -->
<g id="Node000003" class="node">
<title>Node3</title>
<g id="a_Node000003"><a xlink:href="classslick_1_1orderbook_1_1detail_1_1LevelContainer.html" target="_top" xlink:title="Container for storing sorted price levels Uses a sorted vector for cache&#45;friendly storage (optimal fo...">
<polygon fill="white" stroke="transparent" points="122,-810 0,-810 0,-600 122,-600 122,-810"/>
<text text-anchor="start" x="5" y="-798" font-family="Helvetica,sans-Serif" font-size="10.00">slick::orderbook::detail</text>
<text text-anchor="start" x="21" y="-787" font-family="Helvetica,sans-Serif" font-size="10.00">::LevelContainer</text>
<text text-anchor="start" x="59" y="-772" font-family="Helvetica,sans-Serif" font-size="10.00"> </text>
<text text-anchor="start" x="8.5" y="-757" font-family="Helvetica,sans-Serif" font-size="10.00">+</text>
<text text-anchor="start" x="26" y="-757" font-family="Helvetica,sans-Serif" font-size="10.00">LevelContainer()</text>
<text text-anchor="start" x="8.5" y="-742" font-family="Helvetica,sans-Serif" font-size="10.00">+</text>
<text text-anchor="start" x="26" y="-742" font-family="Helvetica,sans-Serif" font-size="10.00">LevelContainer()</text>
<text text-anchor="start" x="8.5" y="-727" font-family="Helvetica,sans-Serif" font-size="10.00">+</text>
<text text-anchor="start" x="26" y="-727" font-family="Helvetica,sans-Serif" font-size="10.00">side()</text>
<text text-anchor="start" x="8.5" y="-712" font-family="Helvetica,sans-Serif" font-size="10.00">+</text>
<text text-anchor="start" x="26" y="-712" font-family="Helvetica,sans-Serif" font-size="10.00">size()</text>
<text text-anchor="start" x="8.5" y="-697" font-family="Helvetica,sans-Serif" font-size="10.00">+</text>
<text text-anchor="start" x="26" y="-697" font-family="Helvetica,sans-Serif" font-size="10.00">empty()</text>
<text text-anchor="start" x="8.5" y="-682" font-family="Helvetica,sans-Serif" font-size="10.00">+</text>
<text text-anchor="start" x="26" y="-682" font-family="Helvetica,sans-Serif" font-size="10.00">operator[]()</text>
<text text-anchor="start" x="8.5" y="-667" font-family="Helvetica,sans-Serif" font-size="10.00">+</text>
<text text-anchor="start" x="26" y="-667" font-family="Helvetica,sans-Serif" font-size="10.00">at()</text>
<text text-anchor="start" x="8.5" y="-652" font-family="Helvetica,sans-Serif" font-size="10.00">+</text>
<text text-anchor="start" x="26" y="-652" font-family="Helvetica,sans-Serif" font-size="10.00">best()</text>
<text text-anchor="start" x="8.5" y="-637" font-family="Helvetica,sans-Serif" font-size="10.00">+</text>
<text text-anchor="start" x="26" y="-637" font-family="Helvetica,sans-Serif" font-size="10.00">find()</text>
<text text-anchor="start" x="8.5" y="-622" font-family="Helvetica,sans-Serif" font-size="10.00">+</text>
<text text-anchor="start" x="26" y="-622" font-family="Helvetica,sans-Serif" font-size="10.00">find()</text>
<text text-anchor="start" x="26" y="-607" font-family="Helvetica,sans-Serif" font-size="10.00">and 14 more...</text>
<polygon fill="#666666" stroke="#666666" points="0,-782 0,-782 122,-782 122,-782 0,-782"/>
<polygon fill="#666666" stroke="#666666" points="0,-767 0,-767 122,-767 122,-767 0,-767"/>
<polygon fill="none" stroke="#666666" points="0,-600 0,-810 122,-810 122,-600 0,-600"/>
</a>
</g>
</g>
<!-- Node3&#45;&gt;Node2 -->
<g id="edge2_Node000002_Node000003" class="edge">
<title>Node3&#45;&gt;Node2</title>
<g id="a_edge2_Node000002_Node000003"><a xlink:title=" ">
<path fill="none" stroke="#63b8ff" d="M60,-599.98C61.27,-582.82 63.45,-565.32 67,-549 73.46,-519.3 86.2,-487.75 97.68,-463"/>
<polygon fill="none" stroke="#63b8ff" points="97.69,-462.97 96.66,-455.84 102.84,-452.13 103.88,-459.27 97.69,-462.97"/>
</a>
</g>
<text text-anchor="middle" x="96" y="-563" font-family="Helvetica,sans-Serif" font-size="10.00" fill="grey"> +elements</text>
</g>
<!-- Node4 -->
<g id="Node000004" class="node">
<title>Node4</title>
<g id="a_Node000004"><a xlink:title=" ">
<polygon fill="white" stroke="transparent" points="226,-729.5 140,-729.5 140,-680.5 226,-680.5 226,-729.5"/>
<text text-anchor="start" x="145" y="-717" font-family="Helvetica,sans-Serif" font-size="10.00">std::array&lt; T &gt;</text>
<text text-anchor="start" x="181" y="-702" font-family="Helvetica,sans-Serif" font-size="10.00"> </text>
<text text-anchor="start" x="181" y="-687" font-family="Helvetica,sans-Serif" font-size="10.00"> </text>
<polygon fill="#666666" stroke="#666666" points="140,-712 140,-712 226,-712 226,-712 140,-712"/>
<polygon fill="#666666" stroke="#666666" points="140,-697 140,-697 226,-697 226,-697 140,-697"/>
<polygon fill="none" stroke="#666666" points="140,-680.5 140,-729.5 226,-729.5 226,-680.5 140,-680.5"/>
</a>
</g>
</g>
<!-- Node4&#45;&gt;Node2 -->
<g id="edge3_Node000002_Node000004" class="edge">
<title>Node4&#45;&gt;Node2</title>
<g id="a_edge3_Node000002_Node000004"><a xlink:title=" ">
<path fill="none" stroke="orange" d="M175.67,-670.14C163.79,-615.25 140.46,-507.4 128.48,-452.06"/>
<polygon fill="orange" stroke="orange" points="172.28,-671.03 177.82,-680.07 179.13,-669.55 172.28,-671.03"/>
</a>
</g>
<text text-anchor="start" x="156" y="-574" font-family="Helvetica,sans-Serif" font-size="10.00" fill="grey"> &lt; slick::orderbook</text>
<text text-anchor="start" x="156" y="-563" font-family="Helvetica,sans-Serif" font-size="10.00" fill="grey">::detail::LevelContainer,</text>
<text text-anchor="middle" x="214.5" y="-552" font-family="Helvetica,sans-Serif" font-size="10.00" fill="grey"> SideCount &gt;</text>
</g>
<!-- Node5 -->
<g id="Node000005" class="node">
<title>Node5</title>
<g id="a_Node000005"><a xlink:title=" ">
<polygon fill="white" stroke="transparent" points="244.5,-906 227.5,-906 227.5,-857 244.5,-857 244.5,-906"/>
<text text-anchor="start" x="233" y="-893.5" font-family="Helvetica,sans-Serif" font-size="10.00">T</text>
<text text-anchor="start" x="234.5" y="-878.5" font-family="Helvetica,sans-Serif" font-size="10.00"> </text>
<text text-anchor="start" x="234.5" y="-863.5" font-family="Helvetica,sans-Serif" font-size="10.00"> </text>
<polygon fill="#666666" stroke="#666666" points="228,-888.5 228,-888.5 245,-888.5 245,-888.5 228,-888.5"/>
<polygon fill="#666666" stroke="#666666" points="228,-873.5 228,-873.5 245,-873.5 245,-873.5 228,-873.5"/>
<polygon fill="none" stroke="#666666" points="227.5,-857 227.5,-906 244.5,-906 244.5,-857 227.5,-857"/>
</a>
</g>
</g>
<!-- Node5&#45;&gt;Node4 -->
<g id="edge4_Node000004_Node000005" class="edge">
<title>Node5&#45;&gt;Node4</title>
<g id="a_edge4_Node000004_Node000005"><a xlink:title=" ">
<path fill="none" stroke="#63b8ff" d="M227.45,-872.11C220,-864.27 209.54,-851.87 204,-839 190.59,-807.86 185.63,-769.32 183.86,-741.75"/>
<polygon fill="none" stroke="#63b8ff" points="183.85,-741.54 179.54,-735.75 183.23,-729.56 187.53,-735.34 183.85,-741.54"/>
</a>
</g>
<text text-anchor="middle" x="233" y="-831" font-family="Helvetica,sans-Serif" font-size="10.00" fill="grey"> +elements</text>
</g>
<!-- Node10 -->
<g id="Node000010" class="node">
<title>Node10</title>
<g id="a_Node000010"><a xlink:title=" ">
<polygon fill="white" stroke="transparent" points="338,-729.5 244,-729.5 244,-680.5 338,-680.5 338,-729.5"/>
<text text-anchor="start" x="249" y="-717" font-family="Helvetica,sans-Serif" font-size="10.00">std::atomic&lt; T &gt;</text>
<text text-anchor="start" x="289" y="-702" font-family="Helvetica,sans-Serif" font-size="10.00"> </text>
<text text-anchor="start" x="289" y="-687" font-family="Helvetica,sans-Serif" font-size="10.00"> </text>
<polygon fill="#666666" stroke="#666666" points="244,-712 244,-712 338,-712 338,-712 244,-712"/>
<polygon fill="#666666" stroke="#666666" points="244,-697 244,-697 338,-697 338,-697 244,-697"/>
<polygon fill="none" stroke="#666666" points="244,-680.5 244,-729.5 338,-729.5 338,-680.5 244,-680.5"/>
</a>
</g>
</g>
<!-- Node5&#45;&gt;Node10 -->
<g id="edge10_Node000010_Node000005" class="edge">
<title>Node5&#45;&gt;Node10</title>
<g id="a_edge10_Node000010_Node000005"><a xlink:title=" ">
<path fill="none" stroke="#63b8ff" d="M244.66,-869.1C250.36,-861.07 257.57,-849.86 262,-839 274.86,-807.45 282.44,-769.26 286.6,-741.91"/>
<polygon fill="none" stroke="#63b8ff" points="286.63,-741.68 283.52,-735.17 288.33,-729.8 291.44,-736.3 286.63,-741.68"/>
</a>
</g>
<text text-anchor="middle" x="278.5" y="-831" font-family="Helvetica,sans-Serif" font-size="10.00" fill="grey"> +ptr</text>
</g>
<!-- Node6 -->
<g id="Node000006" class="node">
<title>Node6</title>
<g id="a_Node000006"><a xlink:href="classslick_1_1orderbook_1_1ObserverManager.html" target="_top" xlink:title="Observer manager for notifying multiple observers Uses type erasure to support both concept&#45;based and...">
<polygon fill="white" stroke="transparent" points="512.5,-521.5 373.5,-521.5 373.5,-311.5 512.5,-311.5 512.5,-521.5"/>
<text text-anchor="start" x="379" y="-509.5" font-family="Helvetica,sans-Serif" font-size="10.00">slick::orderbook::Observer</text>
<text text-anchor="start" x="422" y="-498.5" font-family="Helvetica,sans-Serif" font-size="10.00">Manager</text>
<text text-anchor="start" x="441.5" y="-483.5" font-family="Helvetica,sans-Serif" font-size="10.00"> </text>
<text text-anchor="start" x="381.5" y="-468.5" font-family="Helvetica,sans-Serif" font-size="10.00">+</text>
<text text-anchor="start" x="398" y="-468.5" font-family="Helvetica,sans-Serif" font-size="10.00">ObserverManager()</text>
<text text-anchor="start" x="381.5" y="-453.5" font-family="Helvetica,sans-Serif" font-size="10.00">+</text>
<text text-anchor="start" x="398" y="-453.5" font-family="Helvetica,sans-Serif" font-size="10.00">~ObserverManager()</text>
<text text-anchor="start" x="381.5" y="-438.5" font-family="Helvetica,sans-Serif" font-size="10.00">+</text>
<text text-anchor="start" x="398" y="-438.5" font-family="Helvetica,sans-Serif" font-size="10.00">ObserverManager()</text>
<text text-anchor="start" x="381.5" y="-423.5" font-family="Helvetica,sans-Serif" font-size="10.00">+</text>
<text text-anchor="start" x="398" y="-423.5" font-family="Helvetica,sans-Serif" font-size="10.00">operator=()</text>
<text text-anchor="start" x="381.5" y="-408.5" font-family="Helvetica,sans-Serif" font-size="10.00">+</text>
<text text-anchor="start" x="398" y="-408.5" font-family="Helvetica,sans-Serif" font-size="10.00">ObserverManager()</text>
<text text-anchor="start" x="381.5" y="-393.5" font-family="Helvetica,sans-Serif" font-size="10.00">+</text>
<text text-anchor="start" x="398" y="-393.5" font-family="Helvetica,sans-Serif" font-size="10.00">operator=()</text>
<text text-anchor="start" x="381.5" y="-378.5" font-family="Helvetica,sans-Serif" font-size="10.00">+</text>
<text text-anchor="start" x="398" y="-378.5" font-family="Helvetica,sans-Serif" font-size="10.00">addObserver()</text>
<text text-anchor="start" x="381.5" y="-363.5" font-family="Helvetica,sans-Serif" font-size="10.00">+</text>
<text text-anchor="start" x="398" y="-363.5" font-family="Helvetica,sans-Serif" font-size="10.00">removeObserver()</text>
<text text-anchor="start" x="381.5" y="-348.5" font-family="Helvetica,sans-Serif" font-size="10.00">+</text>
<text text-anchor="start" x="398" y="-348.5" font-family="Helvetica,sans-Serif" font-size="10.00">clearObservers()</text>
<text text-anchor="start" x="381.5" y="-333.5" font-family="Helvetica,sans-Serif" font-size="10.00">+</text>
<text text-anchor="start" x="398" y="-333.5" font-family="Helvetica,sans-Serif" font-size="10.00">observerCount()</text>
<text text-anchor="start" x="398" y="-318.5" font-family="Helvetica,sans-Serif" font-size="10.00">and 6 more...</text>
<polygon fill="#666666" stroke="#666666" points="374,-493.5 374,-493.5 513,-493.5 513,-493.5 374,-493.5"/>
<polygon fill="#666666" stroke="#666666" points="374,-478.5 374,-478.5 513,-478.5 513,-478.5 374,-478.5"/>
<polygon fill="none" stroke="#666666" points="373.5,-311.5 373.5,-521.5 512.5,-521.5 512.5,-311.5 373.5,-311.5"/>
</a>
</g>
</g>
<!-- Node6&#45;&gt;Node1 -->
<g id="edge5_Node000001_Node000006" class="edge">
<title>Node6&#45;&gt;Node1</title>
<g id="a_edge5_Node000001_Node000006"><a xlink:title=" ">
<path fill="none" stroke="#63b8ff" d="M443,-311.14C443,-293.31 443,-274.57 443,-256.11"/>
<polygon fill="none" stroke="#63b8ff" points="443,-256.03 439,-250.03 443,-244.03 447,-250.03 443,-256.03"/>
</a>
</g>
<text text-anchor="middle" x="475.5" y="-270.5" font-family="Helvetica,sans-Serif" font-size="10.00" fill="grey"> #observers_</text>
</g>
<!-- Node7 -->
<g id="Node000007" class="node">
<title>Node7</title>
<g id="a_Node000007"><a xlink:href="structslick_1_1orderbook_1_1TopOfBook.html" target="_top" xlink:title="Top&#45;of&#45;book snapshot &#45; best bid and ask.">
<polygon fill="white" stroke="transparent" points="677.5,-531 530.5,-531 530.5,-302 677.5,-302 677.5,-531"/>
<text text-anchor="start" x="536" y="-518.5" font-family="Helvetica,sans-Serif" font-size="10.00">slick::orderbook::TopOfBook</text>
<text text-anchor="start" x="550.5" y="-503.5" font-family="Helvetica,sans-Serif" font-size="10.00">+</text>
<text text-anchor="start" x="579" y="-503.5" font-family="Helvetica,sans-Serif" font-size="10.00">symbol</text>
<text text-anchor="start" x="550.5" y="-488.5" font-family="Helvetica,sans-Serif" font-size="10.00">+</text>
<text text-anchor="start" x="579" y="-488.5" font-family="Helvetica,sans-Serif" font-size="10.00">best_bid</text>
<text text-anchor="start" x="550.5" y="-473.5" font-family="Helvetica,sans-Serif" font-size="10.00">+</text>
<text text-anchor="start" x="579" y="-473.5" font-family="Helvetica,sans-Serif" font-size="10.00">bid_quantity</text>
<text text-anchor="start" x="550.5" y="-458.5" font-family="Helvetica,sans-Serif" font-size="10.00">+</text>
<text text-anchor="start" x="579" y="-458.5" font-family="Helvetica,sans-Serif" font-size="10.00">best_ask</text>
<text text-anchor="start" x="550.5" y="-443.5" font-family="Helvetica,sans-Serif" font-size="10.00">+</text>
<text text-anchor="start" x="579" y="-443.5" font-family="Helvetica,sans-Serif" font-size="10.00">ask_quantity</text>
<text text-anchor="start" x="550.5" y="-428.5" font-family="Helvetica,sans-Serif" font-size="10.00">+</text>
<text text-anchor="start" x="579" y="-428.5" font-family="Helvetica,sans-Serif" font-size="10.00">timestamp</text>
<text text-anchor="start" x="550.5" y="-413.5" font-family="Helvetica,sans-Serif" font-size="10.00">+</text>
<text text-anchor="start" x="579" y="-413.5" font-family="Helvetica,sans-Serif" font-size="10.00">TopOfBook()</text>
<text text-anchor="start" x="550.5" y="-398.5" font-family="Helvetica,sans-Serif" font-size="10.00">+</text>
<text text-anchor="start" x="579" y="-398.5" font-family="Helvetica,sans-Serif" font-size="10.00">TopOfBook()</text>
<text text-anchor="start" x="550.5" y="-383.5" font-family="Helvetica,sans-Serif" font-size="10.00">+</text>
<text text-anchor="start" x="579" y="-383.5" font-family="Helvetica,sans-Serif" font-size="10.00">spread()</text>
<text text-anchor="start" x="550.5" y="-368.5" font-family="Helvetica,sans-Serif" font-size="10.00">+</text>
<text text-anchor="start" x="579" y="-368.5" font-family="Helvetica,sans-Serif" font-size="10.00">midPrice()</text>
<text text-anchor="start" x="550.5" y="-353.5" font-family="Helvetica,sans-Serif" font-size="10.00">+</text>
<text text-anchor="start" x="579" y="-353.5" font-family="Helvetica,sans-Serif" font-size="10.00">isCrossed()</text>
<text text-anchor="start" x="550.5" y="-338.5" font-family="Helvetica,sans-Serif" font-size="10.00">+</text>
<text text-anchor="start" x="579" y="-338.5" font-family="Helvetica,sans-Serif" font-size="10.00">hasBid()</text>
<text text-anchor="start" x="550.5" y="-323.5" font-family="Helvetica,sans-Serif" font-size="10.00">+</text>
<text text-anchor="start" x="579" y="-323.5" font-family="Helvetica,sans-Serif" font-size="10.00">hasAsk()</text>
<text text-anchor="start" x="550.5" y="-308.5" font-family="Helvetica,sans-Serif" font-size="10.00">+</text>
<text text-anchor="start" x="579" y="-308.5" font-family="Helvetica,sans-Serif" font-size="10.00">isValid()</text>
<polygon fill="#666666" stroke="#666666" points="531,-513.5 531,-513.5 678,-513.5 678,-513.5 531,-513.5"/>
<polygon fill="#666666" stroke="#666666" points="531,-423.5 531,-423.5 577,-423.5 577,-423.5 531,-423.5"/>
<polygon fill="#666666" stroke="#666666" points="577,-423.5 577,-423.5 678,-423.5 678,-423.5 577,-423.5"/>
<polygon fill="none" stroke="#666666" points="530.5,-302 530.5,-531 677.5,-531 677.5,-302 530.5,-302"/>
</a>
</g>
</g>
<!-- Node7&#45;&gt;Node1 -->
<g id="edge6_Node000001_Node000007" class="edge">
<title>Node7&#45;&gt;Node1</title>
<g id="a_edge6_Node000001_Node000007"><a xlink:title=" ">
<path fill="none" stroke="#63b8ff" d="M541.52,-301.99C533.05,-286.6 524.29,-270.69 515.66,-255"/>
<polygon fill="none" stroke="#63b8ff" points="515.49,-254.7 509.1,-251.37 509.71,-244.19 516.1,-247.52 515.49,-254.7"/>
</a>
</g>
<text text-anchor="middle" x="564.5" y="-270.5" font-family="Helvetica,sans-Serif" font-size="10.00" fill="grey"> #cached_tob_</text>
</g>
<!-- Node8 -->
<g id="Node000008" class="node">
<title>Node8</title>
<g id="a_Node000008"><a xlink:href="structslick_1_1orderbook_1_1detail_1_1PriceLevelL2.html" target="_top" xlink:title="Price level for Level 2 orderbook (aggregated) Stores total quantity at a specific price point.">
<polygon fill="white" stroke="transparent" points="818,-521.5 696,-521.5 696,-311.5 818,-311.5 818,-521.5"/>
<text text-anchor="start" x="701" y="-509.5" font-family="Helvetica,sans-Serif" font-size="10.00">slick::orderbook::detail</text>
<text text-anchor="start" x="723" y="-498.5" font-family="Helvetica,sans-Serif" font-size="10.00">::PriceLevelL2</text>
<text text-anchor="start" x="707.5" y="-483.5" font-family="Helvetica,sans-Serif" font-size="10.00">+</text>
<text text-anchor="start" x="728" y="-483.5" font-family="Helvetica,sans-Serif" font-size="10.00">price</text>
<text text-anchor="start" x="707.5" y="-468.5" font-family="Helvetica,sans-Serif" font-size="10.00">+</text>
<text text-anchor="start" x="728" y="-468.5" font-family="Helvetica,sans-Serif" font-size="10.00">quantity</text>
<text text-anchor="start" x="707.5" y="-453.5" font-family="Helvetica,sans-Serif" font-size="10.00">+</text>
<text text-anchor="start" x="728" y="-453.5" font-family="Helvetica,sans-Serif" font-size="10.00">timestamp</text>
<text text-anchor="start" x="707.5" y="-438.5" font-family="Helvetica,sans-Serif" font-size="10.00">+</text>
<text text-anchor="start" x="728" y="-438.5" font-family="Helvetica,sans-Serif" font-size="10.00">PriceLevelL2()</text>
<text text-anchor="start" x="707.5" y="-423.5" font-family="Helvetica,sans-Serif" font-size="10.00">+</text>
<text text-anchor="start" x="728" y="-423.5" font-family="Helvetica,sans-Serif" font-size="10.00">PriceLevelL2()</text>
<text text-anchor="start" x="707.5" y="-408.5" font-family="Helvetica,sans-Serif" font-size="10.00">+</text>
<text text-anchor="start" x="728" y="-408.5" font-family="Helvetica,sans-Serif" font-size="10.00">isEmpty()</text>
<text text-anchor="start" x="707.5" y="-393.5" font-family="Helvetica,sans-Serif" font-size="10.00">+</text>
<text text-anchor="start" x="728" y="-393.5" font-family="Helvetica,sans-Serif" font-size="10.00">operator==()</text>
<text text-anchor="start" x="707.5" y="-378.5" font-family="Helvetica,sans-Serif" font-size="10.00">+</text>
<text text-anchor="start" x="728" y="-378.5" font-family="Helvetica,sans-Serif" font-size="10.00">operator!=()</text>
<text text-anchor="start" x="707.5" y="-363.5" font-family="Helvetica,sans-Serif" font-size="10.00">+</text>
<text text-anchor="start" x="728" y="-363.5" font-family="Helvetica,sans-Serif" font-size="10.00">operator&lt;()</text>
<text text-anchor="start" x="707.5" y="-348.5" font-family="Helvetica,sans-Serif" font-size="10.00">+</text>
<text text-anchor="start" x="728" y="-348.5" font-family="Helvetica,sans-Serif" font-size="10.00">operator&gt;()</text>
<text text-anchor="start" x="707.5" y="-333.5" font-family="Helvetica,sans-Serif" font-size="10.00">+</text>
<text text-anchor="start" x="728" y="-333.5" font-family="Helvetica,sans-Serif" font-size="10.00">operator&lt;=()</text>
<text text-anchor="start" x="707.5" y="-318.5" font-family="Helvetica,sans-Serif" font-size="10.00">+</text>
<text text-anchor="start" x="728" y="-318.5" font-family="Helvetica,sans-Serif" font-size="10.00">operator&gt;=()</text>
<polygon fill="#666666" stroke="#666666" points="696,-493.5 696,-493.5 818,-493.5 818,-493.5 696,-493.5"/>
<polygon fill="#666666" stroke="#666666" points="696,-448.5 696,-448.5 726,-448.5 726,-448.5 696,-448.5"/>
<polygon fill="#666666" stroke="#666666" points="726,-448.5 726,-448.5 818,-448.5 818,-448.5 726,-448.5"/>
<polygon fill="none" stroke="#666666" points="696,-311.5 696,-521.5 818,-521.5 818,-311.5 696,-311.5"/>
</a>
</g>
</g>
<!-- Node8&#45;&gt;Node1 -->
<g id="edge7_Node000001_Node000008" class="edge">
<title>Node8&#45;&gt;Node1</title>
<g id="a_edge7_Node000001_Node000008"><a xlink:title=" ">
<path fill="none" stroke="#63b8ff" d="M696,-312.37C693.06,-308.79 690.06,-305.32 687,-302 642.1,-253.34 582.26,-209.2 533.09,-176.93"/>
<polygon fill="none" stroke="#63b8ff" points="532.83,-176.77 525.62,-176.85 522.77,-170.23 529.98,-170.14 532.83,-176.77"/>
</a>
</g>
<text text-anchor="middle" x="714" y="-276" font-family="Helvetica,sans-Serif" font-size="10.00" fill="grey"> #cached_best_ask_</text>
<text text-anchor="middle" x="714" y="-265" font-family="Helvetica,sans-Serif" font-size="10.00" fill="grey">#cached_best_bid_</text>
</g>
<!-- Node9 -->
<g id="Node000009" class="node">
<title>Node9</title>
<g id="a_Node000009"><a xlink:title=" ">
<polygon fill="white" stroke="transparent" points="355,-441 227,-441 227,-392 355,-392 355,-441"/>
<text text-anchor="start" x="232" y="-428.5" font-family="Helvetica,sans-Serif" font-size="10.00">std::atomic&lt; uint64_t &gt;</text>
<text text-anchor="start" x="254" y="-413.5" font-family="Helvetica,sans-Serif" font-size="10.00">+</text>
<text text-anchor="start" x="290" y="-413.5" font-family="Helvetica,sans-Serif" font-size="10.00">ptr</text>
<text text-anchor="start" x="289" y="-398.5" font-family="Helvetica,sans-Serif" font-size="10.00"> </text>
<polygon fill="#666666" stroke="#666666" points="227,-423.5 227,-423.5 355,-423.5 355,-423.5 227,-423.5"/>
<polygon fill="#666666" stroke="#666666" points="227,-408.5 227,-408.5 288,-408.5 288,-408.5 227,-408.5"/>
<polygon fill="#666666" stroke="#666666" points="288,-408.5 288,-408.5 355,-408.5 355,-408.5 288,-408.5"/>
<polygon fill="none" stroke="#666666" points="227,-392 227,-441 355,-441 355,-392 227,-392"/>
</a>
</g>
</g>
<!-- Node9&#45;&gt;Node1 -->
<g id="edge8_Node000001_Node000009" class="edge">
<title>Node9&#45;&gt;Node1</title>
<g id="a_edge8_Node000001_Node000009"><a xlink:title=" ">
<path fill="none" stroke="#63b8ff" d="M303.44,-391.56C319.16,-361.31 347.44,-306.9 374.45,-254.92"/>
<polygon fill="none" stroke="#63b8ff" points="374.47,-254.87 373.69,-247.7 380.01,-244.22 380.79,-251.39 374.47,-254.87"/>
</a>
</g>
<text text-anchor="middle" x="394.5" y="-270.5" font-family="Helvetica,sans-Serif" font-size="10.00" fill="grey"> #tob_seq_</text>
</g>
<!-- Node10&#45;&gt;Node9 -->
<g id="edge9_Node000009_Node000010" class="edge">
<title>Node10&#45;&gt;Node9</title>
<g id="a_edge9_Node000009_Node000010"><a xlink:title=" ">
<path fill="none" stroke="orange" d="M291,-669.8C291,-610.91 291,-491.82 291,-441.16"/>
<polygon fill="orange" stroke="orange" points="287.5,-670.07 291,-680.07 294.5,-670.07 287.5,-670.07"/>
</a>
</g>
<text text-anchor="middle" x="324" y="-563" font-family="Helvetica,sans-Serif" font-size="10.00" fill="grey"> &lt; uint64_t &gt;</text>
</g>
</g>
</svg>

<g id="navigator" transform="translate(0 0)" fill="#404254">
  <rect fill="#f2f5e9" fill-opacity="0.5" stroke="#606060" stroke-width=".5" x="0" y="0" width="60" height="60"/>
  <use id="zoomplus" xlink:href="#zoomPlus" x="17" y="9" onmousedown="handleZoom(evt,'in')"/>
  <use id="zoomminus" xlink:href="#zoomMin" x="42" y="9" onmousedown="handleZoom(evt,'out')"/>
  <use id="reset" xlink:href="#resetDef" x="30" y="36" onmousedown="handleReset()"/>
   <use id="arrowup" xlink:href="#arrowUp" x="0" y="0" onmousedown="handlePan(0,-1)"/>
  <use id="arrowright" xlink:href="#arrowRight" x="0" y="0" onmousedown="handlePan(1,0)"/>
  <use id="arrowdown" xlink:href="#arrowDown" x="0" y="0" onmousedown="handlePan(0,1)"/>
  <use id="arrowleft" xlink:href="#arrowLeft" x="0" y="0" onmousedown="handlePan(-1,0)"/>
</g>
<svg viewBox="0 0 15 15" width="100%" height="30px" preserveAspectRatio="xMaxYMin meet">
 <g id="arrow_out" transform="scale(0.3 0.3)">
  <a xlink:href="classslick_1_1orderbook_1_1OrderBookL2__coll__graph_org.svg" target="_base">
   <rect id="button" ry="5" rx="5" y="6" x="6" height="38" width="38"
        fill="#f2f5e9" fill-opacity="0.5" stroke="#606060" stroke-width="1.0"/>
   <path id="arrow"
     d="M 11.500037,31.436501 C 11.940474,20.09759 22.043105,11.32322 32.158766,21.979434 L 37.068811,17.246167 C 37.068811,17.246167 37.088388,32 37.088388,32 L 22.160133,31.978069 C 22.160133,31.978069 26.997745,27.140456 26.997745,27.140456 C 18.528582,18.264221 13.291696,25.230495 11.500037,31.436501 z"
     style="fill:#404040;"/>
  </a>
 </g>
</svg>

<style type='text/css'>
<![CDATA[
[data-mouse-over-selected='false'] { opacity: 0.7; }
[data-mouse-over-selected='true']  { opacity: 1.0; }
]]>
</style>
<script type="application/ecmascript"><![CDATA[
document.addEventListener('DOMContentLoaded', (event) => {
  highlightEdges();
  highlightAdjacentNodes();
});
]]></script>
</svg>
