<?xml version="1.0" encoding="UTF-8" standalone="no"?>
<!DOCTYPE svg PUBLIC "-//W3C//DTD SVG 1.1//EN"
 "http://www.w3.org/Graphics/SVG/1.1/DTD/svg11.dtd">
<!-- Generated by graphviz version 2.43.0 (0)
 -->
<!-- Title: slick::orderbook::IOrderBookObserver Pages: 1 -->
<svg width="144pt" height="158pt"
 viewBox="0.00 0.00 144.00 158.00" xmlns="http://www.w3.org/2000/svg" xmlns:xlink="http://www.w3.org/1999/xlink">
<g id="graph0" class="graph" transform="scale(1 1) rotate(0) translate(4 154)">
<title>slick::orderbook::IOrderBookObserver</title>
<!-- Node1 -->
<g id="Node000001" class="node">
<title>Node1</title>
<g id="a_Node000001"><a xlink:title="Base interface for orderbook observers Observers receive callbacks for orderbook events.">
<polygon fill="#999999" stroke="transparent" points="136,-150 0,-150 0,0 136,0 136,-150"/>
<text text-anchor="start" x="10.5" y="-138" font-family="Helvetica,sans-Serif" font-size="10.00">slick::orderbook::IOrder</text>
<text text-anchor="start" x="33" y="-127" font-family="Helvetica,sans-Serif" font-size="10.00">BookObserver</text>
<text text-anchor="start" x="66" y="-112" font-family="Helvetica,sans-Serif" font-size="10.00"> </text>
<text text-anchor="start" x="4" y="-97" font-family="Helvetica,sans-Serif" font-size="10.00">+</text>
<text text-anchor="start" x="17" y="-97" font-family="Helvetica,sans-Serif" font-size="10.00">~IOrderBookObserver()</text>
<text text-anchor="start" x="4" y="-82" font-family="Helvetica,sans-Serif" font-size="10.00">+</text>
<text text-anchor="start" x="17" y="-82" font-family="Helvetica,sans-Serif" font-size="10.00">onPriceLevelUpdate()</text>
<text text-anchor="start" x="4" y="-67" font-family="Helvetica,sans-Serif" font-size="10.00">+</text>
<text text-anchor="start" x="17" y="-67" font-family="Helvetica,sans-Serif" font-size="10.00">onOrderUpdate()</text>
<text text-anchor="start" x="4" y="-52" font-family="Helvetica,sans-Serif" font-size="10.00">+</text>
<text text-anchor="start" x="17" y="-52" font-family="Helvetica,sans-Serif" font-size="10.00">onTrade()</text>
<text text-anchor="start" x="4" y="-37" font-family="Helvetica,sans-Serif" font-size="10.00">+</text>
<text text-anchor="start" x="17" y="-37" font-family="Helvetica,sans-Serif" font-size="10.00">onTopOfBookUpdate()</text>
<text text-anchor="start" x="4" y="-22" font-family="Helvetica,sans-Serif" font-size="10.00">+</text>
<text text-anchor="start" x="17" y="-22" font-family="Helvetica,sans-Serif" font-size="10.00">onSnapshotBegin()</text>
<text text-anchor="start" x="4" y="-7" font-family="Helvetica,sans-Serif" font-size="10.00">+</text>
<text text-anchor="start" x="17" y="-7" font-family="Helvetica,sans-Serif" font-size="10.00">onSnapshotEnd()</text>
<polygon fill="#666666" stroke="#666666" points="0,-122 0,-122 136,-122 136,-122 0,-122"/>
<polygon fill="#666666" stroke="#666666" points="0,-107 0,-107 136,-107 136,-107 0,-107"/>
<polygon fill="none" stroke="#666666" points="0,0 0,-150 136,-150 136,0 0,0"/>
</a>
</g>
</g>
</g>
</svg>
