<?xml version="1.0" encoding="UTF-8" standalone="no"?>
<!DOCTYPE svg PUBLIC "-//W3C//DTD SVG 1.1//EN"
 "http://www.w3.org/Graphics/SVG/1.1/DTD/svg11.dtd">
<!-- Generated by graphviz version 2.43.0 (0)
 -->
<!-- Title: slick::orderbook::OrderBookL3 Pages: 1 -->
<!--zoomable 1108 -->

<svg id="main" version="1.1" xmlns="http://www.w3.org/2000/svg" xmlns:xlink="http://www.w3.org/1999/xlink" xml:space="preserve" onload="init(evt)">
<style type="text/css"><![CDATA[
.node, .edge {opacity: 0.7;}
.node.selected, .edge.selected {opacity: 1;}
.edge:hover path { stroke: red; }
.edge:hover polygon { stroke: red; fill: red; }
]]></style>

<defs>
  <circle id="rim" cx="0" cy="0" r="7"/>
  <circle id="rim2" cx="0" cy="0" r="3.5"/>
  <g id="zoomPlus">
    <use xlink:href="#rim" fill="#404040"><set attributeName="fill" to="#808080" begin="zoomplus.mouseover" end="zoomplus.mouseout"/></use>
    <path d="M-4,0h8M0,-4v8" fill="none" stroke="white" stroke-width="1.5" pointer-events="none"/>
  </g>
  <g id="zoomMin">
    <use xlink:href="#rim" fill="#404040"><set attributeName="fill" to="#808080" begin="zoomminus.mouseover" end="zoomminus.mouseout"/></use>
    <path d="M-4,0h8" fill="none" stroke="white" stroke-width="1.5" pointer-events="none"/>
  </g>
  <g id="arrowUp" transform="translate(30 24)">
    <use xlink:href="#rim"/>
    <path pointer-events="none" fill="none" stroke="white" stroke-width="1.5" d="M0,-3.0v7 M-2.5,-0.5L0,-3.0L2.5,-0.5"/>
  </g>
  <g id="arrowRight" transform="rotate(90) translate(36 -43)">
    <use xlink:href="#rim"/>
    <path pointer-events="none" fill="none" stroke="white" stroke-width="1.5" d="M0,-3.0v7 M-2.5,-0.5L0,-3.0L2.5,-0.5"/>
  </g>
  <g id="arrowDown" transform="rotate(180) translate(-30 -48)">
    <use xlink:href="#rim"/>
    <path pointer-events="none" fill="none" stroke="white" stroke-width="1.5" d="M0,-3.0v7 M-2.5,-0.5L0,-3.0L2.5,-0.5"/>
  </g>
  <g id="arrowLeft" transform="rotate(270) translate(-36 17)">
    <use xlink:href="#rim"/>
    <path pointer-events="none" fill="none" stroke="white" stroke-width="1.5" d="M0,-3.0v7 M-2.5,-0.5L0,-3.0L2.5,-0.5"/>
  </g>
  <g id="resetDef">
    <use xlink:href="#rim2" fill="#404040"><set attributeName="fill" to="#808080" begin="reset.mouseover" end="reset.mouseout"/></use>
  </g>
</defs>
<script type="application/ecmascript">
var viewWidth = 846;
var viewHeight = 1108;
var sectionId = 'dynsection-0';
</script>
<script type="application/ecmascript" xlink:href="svg.min.js"/>
<svg id="graph" class="graph">
<g id="viewport">
<title>slick::orderbook::OrderBookL3</title>
<!-- Node1 -->
<g id="Node000001" class="node">
<title>Node1</title>
<g id="a_Node000001"><a xlink:title="Level 3 OrderBook &#45; Individual order tracking with price&#45;time priority.">
<polygon fill="#999999" stroke="transparent" points="523,-364 364,-364 364,0 523,0 523,-364"/>
<text text-anchor="start" x="370" y="-352" font-family="Helvetica,sans-Serif" font-size="10.00">slick::orderbook::OrderBookL3</text>
<text text-anchor="start" x="368.5" y="-337" font-family="Helvetica,sans-Serif" font-size="10.00">#</text>
<text text-anchor="start" x="381.5" y="-337" font-family="Helvetica,sans-Serif" font-size="10.00">symbol_</text>
<text text-anchor="start" x="368.5" y="-322" font-family="Helvetica,sans-Serif" font-size="10.00">#</text>
<text text-anchor="start" x="381.5" y="-322" font-family="Helvetica,sans-Serif" font-size="10.00">last_seq_num_</text>
<text text-anchor="start" x="368.5" y="-307" font-family="Helvetica,sans-Serif" font-size="10.00">#</text>
<text text-anchor="start" x="381.5" y="-307" font-family="Helvetica,sans-Serif" font-size="10.00">change_starting_index_</text>
<text text-anchor="start" x="368.5" y="-292" font-family="Helvetica,sans-Serif" font-size="10.00">#</text>
<text text-anchor="start" x="381.5" y="-292" font-family="Helvetica,sans-Serif" font-size="10.00">interested_num_levels_</text>
<text text-anchor="start" x="368.5" y="-277" font-family="Helvetica,sans-Serif" font-size="10.00">+</text>
<text text-anchor="start" x="381.5" y="-277" font-family="Helvetica,sans-Serif" font-size="10.00">OrderBookL3()</text>
<text text-anchor="start" x="368.5" y="-262" font-family="Helvetica,sans-Serif" font-size="10.00">+</text>
<text text-anchor="start" x="381.5" y="-262" font-family="Helvetica,sans-Serif" font-size="10.00">~OrderBookL3()</text>
<text text-anchor="start" x="368.5" y="-247" font-family="Helvetica,sans-Serif" font-size="10.00">+</text>
<text text-anchor="start" x="381.5" y="-247" font-family="Helvetica,sans-Serif" font-size="10.00">OrderBookL3()</text>
<text text-anchor="start" x="368.5" y="-232" font-family="Helvetica,sans-Serif" font-size="10.00">+</text>
<text text-anchor="start" x="381.5" y="-232" font-family="Helvetica,sans-Serif" font-size="10.00">operator=()</text>
<text text-anchor="start" x="368.5" y="-217" font-family="Helvetica,sans-Serif" font-size="10.00">+</text>
<text text-anchor="start" x="381.5" y="-217" font-family="Helvetica,sans-Serif" font-size="10.00">OrderBookL3()</text>
<text text-anchor="start" x="368.5" y="-202" font-family="Helvetica,sans-Serif" font-size="10.00">+</text>
<text text-anchor="start" x="381.5" y="-202" font-family="Helvetica,sans-Serif" font-size="10.00">operator=()</text>
<text text-anchor="start" x="368.5" y="-187" font-family="Helvetica,sans-Serif" font-size="10.00">+</text>
<text text-anchor="start" x="381.5" y="-187" font-family="Helvetica,sans-Serif" font-size="10.00">symbol()</text>
<text text-anchor="start" x="368.5" y="-172" font-family="Helvetica,sans-Serif" font-size="10.00">+</text>
<text text-anchor="start" x="381.5" y="-172" font-family="Helvetica,sans-Serif" font-size="10.00">addOrModifyOrder()</text>
<text text-anchor="start" x="368.5" y="-157" font-family="Helvetica,sans-Serif" font-size="10.00">+</text>
<text text-anchor="start" x="381.5" y="-157" font-family="Helvetica,sans-Serif" font-size="10.00">addOrder()</text>
<text text-anchor="start" x="368.5" y="-142" font-family="Helvetica,sans-Serif" font-size="10.00">+</text>
<text text-anchor="start" x="381.5" y="-142" font-family="Helvetica,sans-Serif" font-size="10.00">modifyOrder()</text>
<text text-anchor="start" x="381.5" y="-127" font-family="Helvetica,sans-Serif" font-size="10.00">and 25 more...</text>
<text text-anchor="start" x="368.5" y="-112" font-family="Helvetica,sans-Serif" font-size="10.00">#</text>
<text text-anchor="start" x="381.5" y="-112" font-family="Helvetica,sans-Serif" font-size="10.00">getOrCreateLevel()</text>
<text text-anchor="start" x="368.5" y="-97" font-family="Helvetica,sans-Serif" font-size="10.00">#</text>
<text text-anchor="start" x="381.5" y="-97" font-family="Helvetica,sans-Serif" font-size="10.00">removeLevelIfEmpty()</text>
<text text-anchor="start" x="368.5" y="-82" font-family="Helvetica,sans-Serif" font-size="10.00">#</text>
<text text-anchor="start" x="381.5" y="-82" font-family="Helvetica,sans-Serif" font-size="10.00">notifyOrderUpdate()</text>
<text text-anchor="start" x="368.5" y="-67" font-family="Helvetica,sans-Serif" font-size="10.00">#</text>
<text text-anchor="start" x="381.5" y="-67" font-family="Helvetica,sans-Serif" font-size="10.00">notifyOrderDelete()</text>
<text text-anchor="start" x="368.5" y="-52" font-family="Helvetica,sans-Serif" font-size="10.00">#</text>
<text text-anchor="start" x="381.5" y="-52" font-family="Helvetica,sans-Serif" font-size="10.00">calculateLevelIndex()</text>
<text text-anchor="start" x="368.5" y="-37" font-family="Helvetica,sans-Serif" font-size="10.00">#</text>
<text text-anchor="start" x="381.5" y="-37" font-family="Helvetica,sans-Serif" font-size="10.00">notifyTrade()</text>
<text text-anchor="start" x="368.5" y="-22" font-family="Helvetica,sans-Serif" font-size="10.00">#</text>
<text text-anchor="start" x="381.5" y="-22" font-family="Helvetica,sans-Serif" font-size="10.00">notifyPriceLevelUpdate()</text>
<text text-anchor="start" x="368.5" y="-7" font-family="Helvetica,sans-Serif" font-size="10.00">#</text>
<text text-anchor="start" x="381.5" y="-7" font-family="Helvetica,sans-Serif" font-size="10.00">notifyTopOfBookIfChanged()</text>
<polygon fill="#666666" stroke="#666666" points="364.5,-347 364.5,-347 523.5,-347 523.5,-347 364.5,-347"/>
<polygon fill="#666666" stroke="#666666" points="364.5,-287 364.5,-287 379.5,-287 379.5,-287 364.5,-287"/>
<polygon fill="#666666" stroke="#666666" points="379.5,-287 379.5,-287 523.5,-287 523.5,-287 379.5,-287"/>
<polygon fill="none" stroke="#666666" points="364,0 364,-364 523,-364 523,0 364,0"/>
</a>
</g>
</g>
<!-- Node2 -->
<g id="Node000002" class="node">
<title>Node2</title>
<g id="a_Node000002"><a xlink:title=" ">
<polygon fill="white" stroke="transparent" points="200,-833 57,-833 57,-773 200,-773 200,-833"/>
<text text-anchor="start" x="62.5" y="-821" font-family="Helvetica,sans-Serif" font-size="10.00">std::array&lt; PriceLevelMap,</text>
<text text-anchor="start" x="97" y="-810" font-family="Helvetica,sans-Serif" font-size="10.00"> SideCount &gt;</text>
<text text-anchor="start" x="127" y="-795" font-family="Helvetica,sans-Serif" font-size="10.00"> </text>
<text text-anchor="start" x="127" y="-780" font-family="Helvetica,sans-Serif" font-size="10.00"> </text>
<polygon fill="#666666" stroke="#666666" points="57.5,-805 57.5,-805 200.5,-805 200.5,-805 57.5,-805"/>
<polygon fill="#666666" stroke="#666666" points="57.5,-790 57.5,-790 200.5,-790 200.5,-790 57.5,-790"/>
<polygon fill="none" stroke="#666666" points="57,-773 57,-833 200,-833 200,-773 57,-773"/>
</a>
</g>
</g>
<!-- Node2&#45;&gt;Node1 -->
<g id="edge1_Node000001_Node000002" class="edge">
<title>Node2&#45;&gt;Node1</title>
<g id="a_edge1_Node000001_Node000002"><a xlink:title=" ">
<path fill="none" stroke="#63b8ff" d="M123.61,-772.87C113.68,-704.88 97.2,-532.27 161.5,-411 203.97,-330.91 287.87,-268.79 353.17,-229.76"/>
<polygon fill="none" stroke="#63b8ff" points="353.54,-229.53 356.69,-223.05 363.89,-223.45 360.74,-229.94 353.54,-229.53"/>
</a>
</g>
<text text-anchor="middle" x="184.5" y="-523" font-family="Helvetica,sans-Serif" font-size="10.00" fill="grey"> #levels_</text>
</g>
<!-- Node3 -->
<g id="Node000003" class="node">
<title>Node3</title>
<g id="a_Node000003"><a xlink:title=" ">
<polygon fill="white" stroke="transparent" points="95,-1004 0,-1004 0,-955 95,-955 95,-1004"/>
<text text-anchor="start" x="5.5" y="-991.5" font-family="Helvetica,sans-Serif" font-size="10.00">std::map&lt; K, T &gt;</text>
<text text-anchor="start" x="46" y="-976.5" font-family="Helvetica,sans-Serif" font-size="10.00"> </text>
<text text-anchor="start" x="46" y="-961.5" font-family="Helvetica,sans-Serif" font-size="10.00"> </text>
<polygon fill="#666666" stroke="#666666" points="0.5,-986.5 0.5,-986.5 95.5,-986.5 95.5,-986.5 0.5,-986.5"/>
<polygon fill="#666666" stroke="#666666" points="0.5,-971.5 0.5,-971.5 95.5,-971.5 95.5,-971.5 0.5,-971.5"/>
<polygon fill="none" stroke="#666666" points="0,-955 0,-1004 95,-1004 95,-955 0,-955"/>
</a>
</g>
</g>
<!-- Node3&#45;&gt;Node2 -->
<g id="edge2_Node000002_Node000003" class="edge">
<title>Node3&#45;&gt;Node2</title>
<g id="a_edge2_Node000002_Node000003"><a xlink:title=" ">
<path fill="none" stroke="#63b8ff" d="M54.2,-954.93C57.04,-945.77 60.6,-935.27 64.5,-926 76.35,-897.83 92.31,-867.39 105.33,-843.96"/>
<polygon fill="none" stroke="#63b8ff" points="105.39,-843.86 104.84,-836.67 111.27,-833.4 111.82,-840.59 105.39,-843.86"/>
</a>
</g>
<text text-anchor="middle" x="93.5" y="-929" font-family="Helvetica,sans-Serif" font-size="10.00" fill="grey"> +elements</text>
</g>
<!-- Node4 -->
<g id="Node000004" class="node">
<title>Node4</title>
<g id="a_Node000004"><a xlink:title=" ">
<polygon fill="white" stroke="transparent" points="41,-1100 24,-1100 24,-1051 41,-1051 41,-1100"/>
<text text-anchor="start" x="29.5" y="-1087.5" font-family="Helvetica,sans-Serif" font-size="10.00">K</text>
<text text-anchor="start" x="31" y="-1072.5" font-family="Helvetica,sans-Serif" font-size="10.00"> </text>
<text text-anchor="start" x="31" y="-1057.5" font-family="Helvetica,sans-Serif" font-size="10.00"> </text>
<polygon fill="#666666" stroke="#666666" points="24.5,-1082.5 24.5,-1082.5 41.5,-1082.5 41.5,-1082.5 24.5,-1082.5"/>
<polygon fill="#666666" stroke="#666666" points="24.5,-1067.5 24.5,-1067.5 41.5,-1067.5 41.5,-1067.5 24.5,-1067.5"/>
<polygon fill="none" stroke="#666666" points="24,-1051 24,-1100 41,-1100 41,-1051 24,-1051"/>
</a>
</g>
</g>
<!-- Node4&#45;&gt;Node3 -->
<g id="edge3_Node000003_Node000004" class="edge">
<title>Node4&#45;&gt;Node3</title>
<g id="a_edge3_Node000003_Node000004"><a xlink:title=" ">
<path fill="none" stroke="#63b8ff" d="M31.42,-1050.83C31.41,-1041.76 31.88,-1031.34 33.5,-1022 33.85,-1019.99 34.28,-1017.95 34.77,-1015.9"/>
<polygon fill="none" stroke="#63b8ff" points="34.78,-1015.85 32.59,-1008.98 38.08,-1004.31 40.28,-1011.18 34.78,-1015.85"/>
</a>
</g>
<text text-anchor="middle" x="50.5" y="-1025" font-family="Helvetica,sans-Serif" font-size="10.00" fill="grey"> +keys</text>
</g>
<!-- Node5 -->
<g id="Node000005" class="node">
<title>Node5</title>
<g id="a_Node000005"><a xlink:title=" ">
<polygon fill="white" stroke="transparent" points="138,-1100 121,-1100 121,-1051 138,-1051 138,-1100"/>
<text text-anchor="start" x="126.5" y="-1087.5" font-family="Helvetica,sans-Serif" font-size="10.00">T</text>
<text text-anchor="start" x="128" y="-1072.5" font-family="Helvetica,sans-Serif" font-size="10.00"> </text>
<text text-anchor="start" x="128" y="-1057.5" font-family="Helvetica,sans-Serif" font-size="10.00"> </text>
<polygon fill="#666666" stroke="#666666" points="121.5,-1082.5 121.5,-1082.5 138.5,-1082.5 138.5,-1082.5 121.5,-1082.5"/>
<polygon fill="#666666" stroke="#666666" points="121.5,-1067.5 121.5,-1067.5 138.5,-1067.5 138.5,-1067.5 121.5,-1067.5"/>
<polygon fill="none" stroke="#666666" points="121,-1051 121,-1100 138,-1100 138,-1051 121,-1051"/>
</a>
</g>
</g>
<!-- Node5&#45;&gt;Node3 -->
<g id="edge4_Node000003_Node000005" class="edge">
<title>Node5&#45;&gt;Node3</title>
<g id="a_edge4_Node000003_Node000005"><a xlink:title=" ">
<path fill="none" stroke="#63b8ff" d="M120.85,-1066.93C111.87,-1058.89 97.6,-1045.62 86.5,-1033 81.29,-1027.07 76.03,-1020.48 71.13,-1014.04"/>
<polygon fill="none" stroke="#63b8ff" points="70.94,-1013.78 64.15,-1011.34 63.79,-1004.14 70.58,-1006.58 70.94,-1013.78"/>
</a>
</g>
<text text-anchor="middle" x="115.5" y="-1025" font-family="Helvetica,sans-Serif" font-size="10.00" fill="grey"> +elements</text>
</g>
<!-- Node6 -->
<g id="Node000006" class="node">
<title>Node6</title>
<g id="a_Node000006"><a xlink:title=" ">
<polygon fill="white" stroke="transparent" points="213.5,-1004 127.5,-1004 127.5,-955 213.5,-955 213.5,-1004"/>
<text text-anchor="start" x="132.5" y="-991.5" font-family="Helvetica,sans-Serif" font-size="10.00">std::array&lt; T &gt;</text>
<text text-anchor="start" x="168.5" y="-976.5" font-family="Helvetica,sans-Serif" font-size="10.00"> </text>
<text text-anchor="start" x="168.5" y="-961.5" font-family="Helvetica,sans-Serif" font-size="10.00"> </text>
<polygon fill="#666666" stroke="#666666" points="127.5,-986.5 127.5,-986.5 213.5,-986.5 213.5,-986.5 127.5,-986.5"/>
<polygon fill="#666666" stroke="#666666" points="127.5,-971.5 127.5,-971.5 213.5,-971.5 213.5,-971.5 127.5,-971.5"/>
<polygon fill="none" stroke="#666666" points="127.5,-955 127.5,-1004 213.5,-1004 213.5,-955 127.5,-955"/>
</a>
</g>
</g>
<!-- Node5&#45;&gt;Node6 -->
<g id="edge6_Node000006_Node000005" class="edge">
<title>Node5&#45;&gt;Node6</title>
<g id="a_edge6_Node000006_Node000005"><a xlink:title=" ">
<path fill="none" stroke="#63b8ff" d="M138.14,-1055.97C141.44,-1048.81 145.19,-1040.55 148.5,-1033 151.01,-1027.26 153.63,-1021.15 156.15,-1015.2"/>
<polygon fill="none" stroke="#63b8ff" points="156.16,-1015.16 154.8,-1008.08 160.81,-1004.09 162.17,-1011.17 156.16,-1015.16"/>
</a>
</g>
<text text-anchor="middle" x="182.5" y="-1025" font-family="Helvetica,sans-Serif" font-size="10.00" fill="grey"> +elements</text>
</g>
<!-- Node6&#45;&gt;Node2 -->
<g id="edge5_Node000002_Node000006" class="edge">
<title>Node6&#45;&gt;Node2</title>
<g id="a_edge5_Node000002_Node000006"><a xlink:title=" ">
<path fill="none" stroke="orange" d="M135.01,-947C132.83,-943.82 130.94,-940.48 129.5,-937 115.6,-903.52 118.37,-861.08 122.6,-833.26"/>
<polygon fill="orange" stroke="orange" points="132.38,-949.31 141.32,-954.98 137.87,-944.97 132.38,-949.31"/>
</a>
</g>
<text text-anchor="middle" x="206" y="-929" font-family="Helvetica,sans-Serif" font-size="10.00" fill="grey"> &lt; PriceLevelMap, SideCount &gt;</text>
</g>
<!-- Node12 -->
<g id="Node000012" class="node">
<title>Node12</title>
<g id="a_Node000012"><a xlink:title=" ">
<polygon fill="white" stroke="transparent" points="358,-827.5 233,-827.5 233,-778.5 358,-778.5 358,-827.5"/>
<text text-anchor="start" x="238.5" y="-815" font-family="Helvetica,sans-Serif" font-size="10.00">std::array&lt; uint8_t, 2 &gt;</text>
<text text-anchor="start" x="252" y="-800" font-family="Helvetica,sans-Serif" font-size="10.00">+</text>
<text text-anchor="start" x="279.5" y="-800" font-family="Helvetica,sans-Serif" font-size="10.00">elements</text>
<text text-anchor="start" x="294" y="-785" font-family="Helvetica,sans-Serif" font-size="10.00"> </text>
<polygon fill="#666666" stroke="#666666" points="233.5,-810 233.5,-810 358.5,-810 358.5,-810 233.5,-810"/>
<polygon fill="#666666" stroke="#666666" points="233.5,-795 233.5,-795 277.5,-795 277.5,-795 233.5,-795"/>
<polygon fill="#666666" stroke="#666666" points="277.5,-795 277.5,-795 358.5,-795 358.5,-795 277.5,-795"/>
<polygon fill="none" stroke="#666666" points="233,-778.5 233,-827.5 358,-827.5 358,-778.5 233,-778.5"/>
</a>
</g>
</g>
<!-- Node6&#45;&gt;Node12 -->
<g id="edge13_Node000012_Node000006" class="edge">
<title>Node6&#45;&gt;Node12</title>
<g id="a_edge13_Node000012_Node000006"><a xlink:title=" ">
<path fill="none" stroke="orange" d="M223.31,-971.39C244.99,-965.69 268.28,-955.44 282.5,-937 306.79,-905.49 304.37,-856.51 300.13,-827.61"/>
<polygon fill="orange" stroke="orange" points="222.44,-968 213.51,-973.69 224.04,-974.81 222.44,-968"/>
</a>
</g>
<text text-anchor="middle" x="324.5" y="-929" font-family="Helvetica,sans-Serif" font-size="10.00" fill="grey"> &lt; uint8_t, 2 &gt;</text>
</g>
<!-- Node7 -->
<g id="Node000007" class="node">
<title>Node7</title>
<g id="a_Node000007"><a xlink:href="classslick_1_1orderbook_1_1detail_1_1OrderMap.html" target="_top" xlink:title="Hash table for fast OrderId &#45;&gt; Order* lookup Uses std::unordered_map for simplicity and performance P...">
<polygon fill="white" stroke="transparent" points="504.5,-630.5 382.5,-630.5 382.5,-420.5 504.5,-420.5 504.5,-630.5"/>
<text text-anchor="start" x="387.5" y="-618.5" font-family="Helvetica,sans-Serif" font-size="10.00">slick::orderbook::detail</text>
<text text-anchor="start" x="416" y="-607.5" font-family="Helvetica,sans-Serif" font-size="10.00">::OrderMap</text>
<text text-anchor="start" x="441.5" y="-592.5" font-family="Helvetica,sans-Serif" font-size="10.00"> </text>
<text text-anchor="start" x="395.5" y="-577.5" font-family="Helvetica,sans-Serif" font-size="10.00">+</text>
<text text-anchor="start" x="417.5" y="-577.5" font-family="Helvetica,sans-Serif" font-size="10.00">OrderMap()</text>
<text text-anchor="start" x="395.5" y="-562.5" font-family="Helvetica,sans-Serif" font-size="10.00">+</text>
<text text-anchor="start" x="417.5" y="-562.5" font-family="Helvetica,sans-Serif" font-size="10.00">insert()</text>
<text text-anchor="start" x="395.5" y="-547.5" font-family="Helvetica,sans-Serif" font-size="10.00">+</text>
<text text-anchor="start" x="417.5" y="-547.5" font-family="Helvetica,sans-Serif" font-size="10.00">erase()</text>
<text text-anchor="start" x="395.5" y="-532.5" font-family="Helvetica,sans-Serif" font-size="10.00">+</text>
<text text-anchor="start" x="417.5" y="-532.5" font-family="Helvetica,sans-Serif" font-size="10.00">find()</text>
<text text-anchor="start" x="395.5" y="-517.5" font-family="Helvetica,sans-Serif" font-size="10.00">+</text>
<text text-anchor="start" x="417.5" y="-517.5" font-family="Helvetica,sans-Serif" font-size="10.00">find()</text>
<text text-anchor="start" x="395.5" y="-502.5" font-family="Helvetica,sans-Serif" font-size="10.00">+</text>
<text text-anchor="start" x="417.5" y="-502.5" font-family="Helvetica,sans-Serif" font-size="10.00">contains()</text>
<text text-anchor="start" x="395.5" y="-487.5" font-family="Helvetica,sans-Serif" font-size="10.00">+</text>
<text text-anchor="start" x="417.5" y="-487.5" font-family="Helvetica,sans-Serif" font-size="10.00">size()</text>
<text text-anchor="start" x="395.5" y="-472.5" font-family="Helvetica,sans-Serif" font-size="10.00">+</text>
<text text-anchor="start" x="417.5" y="-472.5" font-family="Helvetica,sans-Serif" font-size="10.00">empty()</text>
<text text-anchor="start" x="395.5" y="-457.5" font-family="Helvetica,sans-Serif" font-size="10.00">+</text>
<text text-anchor="start" x="417.5" y="-457.5" font-family="Helvetica,sans-Serif" font-size="10.00">reserve()</text>
<text text-anchor="start" x="395.5" y="-442.5" font-family="Helvetica,sans-Serif" font-size="10.00">+</text>
<text text-anchor="start" x="417.5" y="-442.5" font-family="Helvetica,sans-Serif" font-size="10.00">clear()</text>
<text text-anchor="start" x="417.5" y="-427.5" font-family="Helvetica,sans-Serif" font-size="10.00">and 6 more...</text>
<polygon fill="#666666" stroke="#666666" points="382.5,-602.5 382.5,-602.5 504.5,-602.5 504.5,-602.5 382.5,-602.5"/>
<polygon fill="#666666" stroke="#666666" points="382.5,-587.5 382.5,-587.5 504.5,-587.5 504.5,-587.5 382.5,-587.5"/>
<polygon fill="none" stroke="#666666" points="382.5,-420.5 382.5,-630.5 504.5,-630.5 504.5,-420.5 382.5,-420.5"/>
</a>
</g>
</g>
<!-- Node7&#45;&gt;Node1 -->
<g id="edge7_Node000001_Node000007" class="edge">
<title>Node7&#45;&gt;Node1</title>
<g id="a_edge7_Node000001_Node000007"><a xlink:title=" ">
<path fill="none" stroke="#63b8ff" d="M443.5,-420.18C443.5,-406.1 443.5,-391.3 443.5,-376.26"/>
<polygon fill="none" stroke="#63b8ff" points="443.5,-376.16 439.5,-370.16 443.5,-364.16 447.5,-370.16 443.5,-376.16"/>
</a>
</g>
<text text-anchor="middle" x="478.5" y="-385" font-family="Helvetica,sans-Serif" font-size="10.00" fill="grey"> #order_map_</text>
</g>
<!-- Node8 -->
<g id="Node000008" class="node">
<title>Node8</title>
<g id="a_Node000008"><a xlink:href="classslick_1_1orderbook_1_1detail_1_1ObjectPool.html" target="_top" xlink:title=" ">
<polygon fill="white" stroke="transparent" points="680.5,-636 522.5,-636 522.5,-415 680.5,-415 680.5,-636"/>
<text text-anchor="start" x="527.5" y="-623.5" font-family="Helvetica,sans-Serif" font-size="10.00">slick::orderbook::detail</text>
<text text-anchor="start" x="527.5" y="-612.5" font-family="Helvetica,sans-Serif" font-size="10.00">::ObjectPool&lt; slick::orderbook</text>
<text text-anchor="start" x="562" y="-601.5" font-family="Helvetica,sans-Serif" font-size="10.00">::detail::Order &gt;</text>
<text text-anchor="start" x="599.5" y="-586.5" font-family="Helvetica,sans-Serif" font-size="10.00"> </text>
<text text-anchor="start" x="543.5" y="-571.5" font-family="Helvetica,sans-Serif" font-size="10.00">+</text>
<text text-anchor="start" x="573.5" y="-571.5" font-family="Helvetica,sans-Serif" font-size="10.00">ObjectPool()</text>
<text text-anchor="start" x="543.5" y="-556.5" font-family="Helvetica,sans-Serif" font-size="10.00">+</text>
<text text-anchor="start" x="573.5" y="-556.5" font-family="Helvetica,sans-Serif" font-size="10.00">ObjectPool()</text>
<text text-anchor="start" x="543.5" y="-541.5" font-family="Helvetica,sans-Serif" font-size="10.00">+</text>
<text text-anchor="start" x="573.5" y="-541.5" font-family="Helvetica,sans-Serif" font-size="10.00">ObjectPool()</text>
<text text-anchor="start" x="543.5" y="-526.5" font-family="Helvetica,sans-Serif" font-size="10.00">+</text>
<text text-anchor="start" x="573.5" y="-526.5" font-family="Helvetica,sans-Serif" font-size="10.00">~ObjectPool()</text>
<text text-anchor="start" x="543.5" y="-511.5" font-family="Helvetica,sans-Serif" font-size="10.00">+</text>
<text text-anchor="start" x="573.5" y="-511.5" font-family="Helvetica,sans-Serif" font-size="10.00">operator=()</text>
<text text-anchor="start" x="543.5" y="-496.5" font-family="Helvetica,sans-Serif" font-size="10.00">+</text>
<text text-anchor="start" x="573.5" y="-496.5" font-family="Helvetica,sans-Serif" font-size="10.00">operator=()</text>
<text text-anchor="start" x="543.5" y="-481.5" font-family="Helvetica,sans-Serif" font-size="10.00">+</text>
<text text-anchor="start" x="573.5" y="-481.5" font-family="Helvetica,sans-Serif" font-size="10.00">allocate()</text>
<text text-anchor="start" x="543.5" y="-466.5" font-family="Helvetica,sans-Serif" font-size="10.00">+</text>
<text text-anchor="start" x="573.5" y="-466.5" font-family="Helvetica,sans-Serif" font-size="10.00">construct()</text>
<text text-anchor="start" x="543.5" y="-451.5" font-family="Helvetica,sans-Serif" font-size="10.00">+</text>
<text text-anchor="start" x="573.5" y="-451.5" font-family="Helvetica,sans-Serif" font-size="10.00">deallocate()</text>
<text text-anchor="start" x="543.5" y="-436.5" font-family="Helvetica,sans-Serif" font-size="10.00">+</text>
<text text-anchor="start" x="573.5" y="-436.5" font-family="Helvetica,sans-Serif" font-size="10.00">destroy()</text>
<text text-anchor="start" x="573.5" y="-421.5" font-family="Helvetica,sans-Serif" font-size="10.00">and 6 more...</text>
<polygon fill="#666666" stroke="#666666" points="522.5,-596.5 522.5,-596.5 680.5,-596.5 680.5,-596.5 522.5,-596.5"/>
<polygon fill="#666666" stroke="#666666" points="522.5,-581.5 522.5,-581.5 680.5,-581.5 680.5,-581.5 522.5,-581.5"/>
<polygon fill="none" stroke="#666666" points="522.5,-415 522.5,-636 680.5,-636 680.5,-415 522.5,-415"/>
</a>
</g>
</g>
<!-- Node8&#45;&gt;Node1 -->
<g id="edge8_Node000001_Node000008" class="edge">
<title>Node8&#45;&gt;Node1</title>
<g id="a_edge8_Node000001_Node000008"><a xlink:title=" ">
<path fill="none" stroke="#63b8ff" d="M550.64,-414.57C543.39,-398.89 535.77,-382.43 528.08,-365.82"/>
<polygon fill="none" stroke="#63b8ff" points="528.06,-365.77 521.91,-362.01 523.02,-354.88 529.17,-358.65 528.06,-365.77"/>
</a>
</g>
<text text-anchor="middle" x="571" y="-385" font-family="Helvetica,sans-Serif" font-size="10.00" fill="grey"> #order_pool_</text>
</g>
<!-- Node9 -->
<g id="Node000009" class="node">
<title>Node9</title>
<g id="a_Node000009"><a xlink:href="classslick_1_1orderbook_1_1detail_1_1ObjectPool.html" target="_top" xlink:title="Object pool for zero&#45;allocation management of frequently created/destroyed objects.">
<polygon fill="white" stroke="transparent" points="662.5,-908 540.5,-908 540.5,-698 662.5,-698 662.5,-908"/>
<text text-anchor="start" x="545.5" y="-896" font-family="Helvetica,sans-Serif" font-size="10.00">slick::orderbook::detail</text>
<text text-anchor="start" x="557.5" y="-885" font-family="Helvetica,sans-Serif" font-size="10.00">::ObjectPool&lt; T &gt;</text>
<text text-anchor="start" x="599.5" y="-870" font-family="Helvetica,sans-Serif" font-size="10.00"> </text>
<text text-anchor="start" x="552.5" y="-855" font-family="Helvetica,sans-Serif" font-size="10.00">+</text>
<text text-anchor="start" x="573.5" y="-855" font-family="Helvetica,sans-Serif" font-size="10.00">ObjectPool()</text>
<text text-anchor="start" x="552.5" y="-840" font-family="Helvetica,sans-Serif" font-size="10.00">+</text>
<text text-anchor="start" x="573.5" y="-840" font-family="Helvetica,sans-Serif" font-size="10.00">~ObjectPool()</text>
<text text-anchor="start" x="552.5" y="-825" font-family="Helvetica,sans-Serif" font-size="10.00">+</text>
<text text-anchor="start" x="573.5" y="-825" font-family="Helvetica,sans-Serif" font-size="10.00">ObjectPool()</text>
<text text-anchor="start" x="552.5" y="-810" font-family="Helvetica,sans-Serif" font-size="10.00">+</text>
<text text-anchor="start" x="573.5" y="-810" font-family="Helvetica,sans-Serif" font-size="10.00">operator=()</text>
<text text-anchor="start" x="552.5" y="-795" font-family="Helvetica,sans-Serif" font-size="10.00">+</text>
<text text-anchor="start" x="573.5" y="-795" font-family="Helvetica,sans-Serif" font-size="10.00">ObjectPool()</text>
<text text-anchor="start" x="552.5" y="-780" font-family="Helvetica,sans-Serif" font-size="10.00">+</text>
<text text-anchor="start" x="573.5" y="-780" font-family="Helvetica,sans-Serif" font-size="10.00">operator=()</text>
<text text-anchor="start" x="552.5" y="-765" font-family="Helvetica,sans-Serif" font-size="10.00">+</text>
<text text-anchor="start" x="573.5" y="-765" font-family="Helvetica,sans-Serif" font-size="10.00">allocate()</text>
<text text-anchor="start" x="552.5" y="-750" font-family="Helvetica,sans-Serif" font-size="10.00">+</text>
<text text-anchor="start" x="573.5" y="-750" font-family="Helvetica,sans-Serif" font-size="10.00">construct()</text>
<text text-anchor="start" x="552.5" y="-735" font-family="Helvetica,sans-Serif" font-size="10.00">+</text>
<text text-anchor="start" x="573.5" y="-735" font-family="Helvetica,sans-Serif" font-size="10.00">deallocate()</text>
<text text-anchor="start" x="552.5" y="-720" font-family="Helvetica,sans-Serif" font-size="10.00">+</text>
<text text-anchor="start" x="573.5" y="-720" font-family="Helvetica,sans-Serif" font-size="10.00">destroy()</text>
<text text-anchor="start" x="573.5" y="-705" font-family="Helvetica,sans-Serif" font-size="10.00">and 6 more...</text>
<polygon fill="#666666" stroke="#666666" points="540.5,-880 540.5,-880 662.5,-880 662.5,-880 540.5,-880"/>
<polygon fill="#666666" stroke="#666666" points="540.5,-865 540.5,-865 662.5,-865 662.5,-865 540.5,-865"/>
<polygon fill="none" stroke="#666666" points="540.5,-698 540.5,-908 662.5,-908 662.5,-698 540.5,-698"/>
</a>
</g>
</g>
<!-- Node9&#45;&gt;Node8 -->
<g id="edge9_Node000008_Node000009" class="edge">
<title>Node9&#45;&gt;Node8</title>
<g id="a_edge9_Node000008_Node000009"><a xlink:title=" ">
<path fill="none" stroke="orange" d="M601.5,-687.39C601.5,-670.49 601.5,-653.11 601.5,-636.31"/>
<polygon fill="orange" stroke="orange" points="598,-687.85 601.5,-697.85 605,-687.85 598,-687.85"/>
</a>
</g>
<text text-anchor="start" x="601.5" y="-672" font-family="Helvetica,sans-Serif" font-size="10.00" fill="grey"> &lt; slick::orderbook</text>
<text text-anchor="middle" x="648" y="-661" font-family="Helvetica,sans-Serif" font-size="10.00" fill="grey">::detail::Order &gt;</text>
</g>
<!-- Node10 -->
<g id="Node000010" class="node">
<title>Node10</title>
<g id="a_Node000010"><a xlink:href="classslick_1_1orderbook_1_1ObserverManager.html" target="_top" xlink:title="Observer manager for notifying multiple observers Uses type erasure to support both concept&#45;based and...">
<polygon fill="white" stroke="transparent" points="838,-630.5 699,-630.5 699,-420.5 838,-420.5 838,-630.5"/>
<text text-anchor="start" x="704.5" y="-618.5" font-family="Helvetica,sans-Serif" font-size="10.00">slick::orderbook::Observer</text>
<text text-anchor="start" x="747.5" y="-607.5" font-family="Helvetica,sans-Serif" font-size="10.00">Manager</text>
<text text-anchor="start" x="767" y="-592.5" font-family="Helvetica,sans-Serif" font-size="10.00"> </text>
<text text-anchor="start" x="707" y="-577.5" font-family="Helvetica,sans-Serif" font-size="10.00">+</text>
<text text-anchor="start" x="723.5" y="-577.5" font-family="Helvetica,sans-Serif" font-size="10.00">ObserverManager()</text>
<text text-anchor="start" x="707" y="-562.5" font-family="Helvetica,sans-Serif" font-size="10.00">+</text>
<text text-anchor="start" x="723.5" y="-562.5" font-family="Helvetica,sans-Serif" font-size="10.00">~ObserverManager()</text>
<text text-anchor="start" x="707" y="-547.5" font-family="Helvetica,sans-Serif" font-size="10.00">+</text>
<text text-anchor="start" x="723.5" y="-547.5" font-family="Helvetica,sans-Serif" font-size="10.00">ObserverManager()</text>
<text text-anchor="start" x="707" y="-532.5" font-family="Helvetica,sans-Serif" font-size="10.00">+</text>
<text text-anchor="start" x="723.5" y="-532.5" font-family="Helvetica,sans-Serif" font-size="10.00">operator=()</text>
<text text-anchor="start" x="707" y="-517.5" font-family="Helvetica,sans-Serif" font-size="10.00">+</text>
<text text-anchor="start" x="723.5" y="-517.5" font-family="Helvetica,sans-Serif" font-size="10.00">ObserverManager()</text>
<text text-anchor="start" x="707" y="-502.5" font-family="Helvetica,sans-Serif" font-size="10.00">+</text>
<text text-anchor="start" x="723.5" y="-502.5" font-family="Helvetica,sans-Serif" font-size="10.00">operator=()</text>
<text text-anchor="start" x="707" y="-487.5" font-family="Helvetica,sans-Serif" font-size="10.00">+</text>
<text text-anchor="start" x="723.5" y="-487.5" font-family="Helvetica,sans-Serif" font-size="10.00">addObserver()</text>
<text text-anchor="start" x="707" y="-472.5" font-family="Helvetica,sans-Serif" font-size="10.00">+</text>
<text text-anchor="start" x="723.5" y="-472.5" font-family="Helvetica,sans-Serif" font-size="10.00">removeObserver()</text>
<text text-anchor="start" x="707" y="-457.5" font-family="Helvetica,sans-Serif" font-size="10.00">+</text>
<text text-anchor="start" x="723.5" y="-457.5" font-family="Helvetica,sans-Serif" font-size="10.00">clearObservers()</text>
<text text-anchor="start" x="707" y="-442.5" font-family="Helvetica,sans-Serif" font-size="10.00">+</text>
<text text-anchor="start" x="723.5" y="-442.5" font-family="Helvetica,sans-Serif" font-size="10.00">observerCount()</text>
<text text-anchor="start" x="723.5" y="-427.5" font-family="Helvetica,sans-Serif" font-size="10.00">and 6 more...</text>
<polygon fill="#666666" stroke="#666666" points="699.5,-602.5 699.5,-602.5 838.5,-602.5 838.5,-602.5 699.5,-602.5"/>
<polygon fill="#666666" stroke="#666666" points="699.5,-587.5 699.5,-587.5 838.5,-587.5 838.5,-587.5 699.5,-587.5"/>
<polygon fill="none" stroke="#666666" points="699,-420.5 699,-630.5 838,-630.5 838,-420.5 699,-420.5"/>
</a>
</g>
</g>
<!-- Node10&#45;&gt;Node1 -->
<g id="edge10_Node000001_Node000010" class="edge">
<title>Node10&#45;&gt;Node1</title>
<g id="a_edge10_Node000001_Node000010"><a xlink:title=" ">
<path fill="none" stroke="#63b8ff" d="M698.9,-422.21C695.79,-418.37 692.65,-414.62 689.5,-411 641.49,-355.79 581.35,-299.84 532.54,-257.19"/>
<polygon fill="none" stroke="#63b8ff" points="532.31,-256.99 525.16,-256.07 523.26,-249.11 530.41,-250.03 532.31,-256.99"/>
</a>
</g>
<text text-anchor="middle" x="703" y="-385" font-family="Helvetica,sans-Serif" font-size="10.00" fill="grey"> #observers_</text>
</g>
<!-- Node11 -->
<g id="Node000011" class="node">
<title>Node11</title>
<g id="a_Node000011"><a xlink:href="structslick_1_1orderbook_1_1TopOfBook.html" target="_top" xlink:title="Top&#45;of&#45;book snapshot &#45; best bid and ask.">
<polygon fill="white" stroke="transparent" points="364,-640 217,-640 217,-411 364,-411 364,-640"/>
<text text-anchor="start" x="222.5" y="-627.5" font-family="Helvetica,sans-Serif" font-size="10.00">slick::orderbook::TopOfBook</text>
<text text-anchor="start" x="237" y="-612.5" font-family="Helvetica,sans-Serif" font-size="10.00">+</text>
<text text-anchor="start" x="265.5" y="-612.5" font-family="Helvetica,sans-Serif" font-size="10.00">symbol</text>
<text text-anchor="start" x="237" y="-597.5" font-family="Helvetica,sans-Serif" font-size="10.00">+</text>
<text text-anchor="start" x="265.5" y="-597.5" font-family="Helvetica,sans-Serif" font-size="10.00">best_bid</text>
<text text-anchor="start" x="237" y="-582.5" font-family="Helvetica,sans-Serif" font-size="10.00">+</text>
<text text-anchor="start" x="265.5" y="-582.5" font-family="Helvetica,sans-Serif" font-size="10.00">bid_quantity</text>
<text text-anchor="start" x="237" y="-567.5" font-family="Helvetica,sans-Serif" font-size="10.00">+</text>
<text text-anchor="start" x="265.5" y="-567.5" font-family="Helvetica,sans-Serif" font-size="10.00">best_ask</text>
<text text-anchor="start" x="237" y="-552.5" font-family="Helvetica,sans-Serif" font-size="10.00">+</text>
<text text-anchor="start" x="265.5" y="-552.5" font-family="Helvetica,sans-Serif" font-size="10.00">ask_quantity</text>
<text text-anchor="start" x="237" y="-537.5" font-family="Helvetica,sans-Serif" font-size="10.00">+</text>
<text text-anchor="start" x="265.5" y="-537.5" font-family="Helvetica,sans-Serif" font-size="10.00">timestamp</text>
<text text-anchor="start" x="237" y="-522.5" font-family="Helvetica,sans-Serif" font-size="10.00">+</text>
<text text-anchor="start" x="265.5" y="-522.5" font-family="Helvetica,sans-Serif" font-size="10.00">TopOfBook()</text>
<text text-anchor="start" x="237" y="-507.5" font-family="Helvetica,sans-Serif" font-size="10.00">+</text>
<text text-anchor="start" x="265.5" y="-507.5" font-family="Helvetica,sans-Serif" font-size="10.00">TopOfBook()</text>
<text text-anchor="start" x="237" y="-492.5" font-family="Helvetica,sans-Serif" font-size="10.00">+</text>
<text text-anchor="start" x="265.5" y="-492.5" font-family="Helvetica,sans-Serif" font-size="10.00">spread()</text>
<text text-anchor="start" x="237" y="-477.5" font-family="Helvetica,sans-Serif" font-size="10.00">+</text>
<text text-anchor="start" x="265.5" y="-477.5" font-family="Helvetica,sans-Serif" font-size="10.00">midPrice()</text>
<text text-anchor="start" x="237" y="-462.5" font-family="Helvetica,sans-Serif" font-size="10.00">+</text>
<text text-anchor="start" x="265.5" y="-462.5" font-family="Helvetica,sans-Serif" font-size="10.00">isCrossed()</text>
<text text-anchor="start" x="237" y="-447.5" font-family="Helvetica,sans-Serif" font-size="10.00">+</text>
<text text-anchor="start" x="265.5" y="-447.5" font-family="Helvetica,sans-Serif" font-size="10.00">hasBid()</text>
<text text-anchor="start" x="237" y="-432.5" font-family="Helvetica,sans-Serif" font-size="10.00">+</text>
<text text-anchor="start" x="265.5" y="-432.5" font-family="Helvetica,sans-Serif" font-size="10.00">hasAsk()</text>
<text text-anchor="start" x="237" y="-417.5" font-family="Helvetica,sans-Serif" font-size="10.00">+</text>
<text text-anchor="start" x="265.5" y="-417.5" font-family="Helvetica,sans-Serif" font-size="10.00">isValid()</text>
<polygon fill="#666666" stroke="#666666" points="217.5,-622.5 217.5,-622.5 364.5,-622.5 364.5,-622.5 217.5,-622.5"/>
<polygon fill="#666666" stroke="#666666" points="217.5,-532.5 217.5,-532.5 263.5,-532.5 263.5,-532.5 217.5,-532.5"/>
<polygon fill="#666666" stroke="#666666" points="263.5,-532.5 263.5,-532.5 364.5,-532.5 364.5,-532.5 263.5,-532.5"/>
<polygon fill="none" stroke="#666666" points="217,-411 217,-640 364,-640 364,-411 217,-411"/>
</a>
</g>
</g>
<!-- Node11&#45;&gt;Node1 -->
<g id="edge11_Node000001_Node000011" class="edge">
<title>Node11&#45;&gt;Node1</title>
<g id="a_edge11_Node000001_Node000011"><a xlink:title=" ">
<path fill="none" stroke="#63b8ff" d="M341.45,-410.79C347.12,-398.13 353,-385 358.95,-371.72"/>
<polygon fill="none" stroke="#63b8ff" points="359.05,-371.49 357.85,-364.38 363.96,-360.54 365.15,-367.65 359.05,-371.49"/>
</a>
</g>
<text text-anchor="middle" x="390" y="-385" font-family="Helvetica,sans-Serif" font-size="10.00" fill="grey"> #cached_tob_</text>
</g>
<!-- Node12&#45;&gt;Node11 -->
<g id="edge12_Node000011_Node000012" class="edge">
<title>Node12&#45;&gt;Node11</title>
<g id="a_edge12_Node000011_Node000012"><a xlink:title=" ">
<path fill="none" stroke="#63b8ff" d="M295.07,-778.03C294.55,-749.55 293.65,-699.86 292.78,-652.12"/>
<polygon fill="none" stroke="#63b8ff" points="292.78,-652.04 288.67,-646.11 292.56,-640.04 296.67,-645.97 292.78,-652.04"/>
</a>
</g>
<text text-anchor="middle" x="331.5" y="-666.5" font-family="Helvetica,sans-Serif" font-size="10.00" fill="grey"> +change_flags</text>
</g>
</g>
</svg>

<g id="navigator" transform="translate(0 0)" fill="#404254">
  <rect fill="#f2f5e9" fill-opacity="0.5" stroke="#606060" stroke-width=".5" x="0" y="0" width="60" height="60"/>
  <use id="zoomplus" xlink:href="#zoomPlus" x="17" y="9" onmousedown="handleZoom(evt,'in')"/>
  <use id="zoomminus" xlink:href="#zoomMin" x="42" y="9" onmousedown="handleZoom(evt,'out')"/>
  <use id="reset" xlink:href="#resetDef" x="30" y="36" onmousedown="handleReset()"/>
   <use id="arrowup" xlink:href="#arrowUp" x="0" y="0" onmousedown="handlePan(0,-1)"/>
  <use id="arrowright" xlink:href="#arrowRight" x="0" y="0" onmousedown="handlePan(1,0)"/>
  <use id="arrowdown" xlink:href="#arrowDown" x="0" y="0" onmousedown="handlePan(0,1)"/>
  <use id="arrowleft" xlink:href="#arrowLeft" x="0" y="0" onmousedown="handlePan(-1,0)"/>
</g>
<svg viewBox="0 0 15 15" width="100%" height="30px" preserveAspectRatio="xMaxYMin meet">
 <g id="arrow_out" transform="scale(0.3 0.3)">
  <a xlink:href="classslick_1_1orderbook_1_1OrderBookL3__coll__graph_org.svg" target="_base">
   <rect id="button" ry="5" rx="5" y="6" x="6" height="38" width="38"
        fill="#f2f5e9" fill-opacity="0.5" stroke="#606060" stroke-width="1.0"/>
   <path id="arrow"
     d="M 11.500037,31.436501 C 11.940474,20.09759 22.043105,11.32322 32.158766,21.979434 L 37.068811,17.246167 C 37.068811,17.246167 37.088388,32 37.088388,32 L 22.160133,31.978069 C 22.160133,31.978069 26.997745,27.140456 26.997745,27.140456 C 18.528582,18.264221 13.291696,25.230495 11.500037,31.436501 z"
     style="fill:#404040;"/>
  </a>
 </g>
</svg>

<style type='text/css'>
<![CDATA[
[data-mouse-over-selected='false'] { opacity: 0.7; }
[data-mouse-over-selected='true']  { opacity: 1.0; }
]]>
</style>
<script type="application/ecmascript"><![CDATA[
document.addEventListener('DOMContentLoaded', (event) => {
  highlightEdges();
  highlightAdjacentNodes();
});
]]></script>
</svg>
