<?xml version="1.0" encoding="UTF-8" standalone="no"?>
<!DOCTYPE svg PUBLIC "-//W3C//DTD SVG 1.1//EN"
 "http://www.w3.org/Graphics/SVG/1.1/DTD/svg11.dtd">
<!-- Generated by graphviz version 2.43.0 (0)
 -->
<!-- Title: slick/orderbook/concepts.hpp Pages: 1 -->
<svg width="346pt" height="269pt"
 viewBox="0.00 0.00 345.64 269.00" xmlns="http://www.w3.org/2000/svg" xmlns:xlink="http://www.w3.org/1999/xlink">

<svg id="main" version="1.1" xmlns="http://www.w3.org/2000/svg" xmlns:xlink="http://www.w3.org/1999/xlink" xml:space="preserve" onload="init(evt)">
<style type="text/css"><![CDATA[
.node, .edge {opacity: 0.7;}
.node.selected, .edge.selected {opacity: 1;}
.edge:hover path { stroke: red; }
.edge:hover polygon { stroke: red; fill: red; }
]]></style>
<script type="application/ecmascript" xlink:href="svg.min.js"/>
<svg id="graph" class="graph">
<g id="graph0" class="graph" transform="scale(1 1) rotate(0) translate(4 265)">
<title>slick/orderbook/concepts.hpp</title>
<!-- Node1 -->
<g id="Node000001" class="node">
<title>Node1</title>
<g id="a_Node000001"><a xlink:title=" ">
<polygon fill="#999999" stroke="#666666" points="301.31,-261 142.31,-261 142.31,-242 301.31,-242 301.31,-261"/>
<text text-anchor="middle" x="221.81" y="-249" font-family="Helvetica,sans-Serif" font-size="10.00">slick/orderbook/concepts.hpp</text>
</a>
</g>
</g>
<!-- Node2 -->
<g id="Node000002" class="node">
<title>Node2</title>
<g id="a_Node000002"><a xlink:href="observer_8hpp.html" target="_top" xlink:title=" ">
<polygon fill="white" stroke="#666666" points="247.81,-206 89.81,-206 89.81,-187 247.81,-187 247.81,-206"/>
<text text-anchor="middle" x="168.81" y="-194" font-family="Helvetica,sans-Serif" font-size="10.00">slick/orderbook/observer.hpp</text>
</a>
</g>
</g>
<!-- Node1&#45;&gt;Node2 -->
<g id="edge1_Node000001_Node000002" class="edge">
<title>Node1&#45;&gt;Node2</title>
<g id="a_edge1_Node000001_Node000002"><a xlink:title=" ">
<path fill="none" stroke="#63b8ff" d="M205.83,-234.52C196.49,-225.18 185.06,-213.75 177.4,-206.09"/>
<polygon fill="#63b8ff" stroke="#63b8ff" points="203.51,-237.15 213.06,-241.75 208.46,-232.2 203.51,-237.15"/>
</a>
</g>
</g>
<!-- Node3 -->
<g id="Node000003" class="node">
<title>Node3</title>
<g id="a_Node000003"><a xlink:href="orderbook_8hpp.html" target="_top" xlink:title=" ">
<polygon fill="white" stroke="#666666" points="254.31,-19 89.31,-19 89.31,0 254.31,0 254.31,-19"/>
<text text-anchor="middle" x="171.81" y="-7" font-family="Helvetica,sans-Serif" font-size="10.00">slick/orderbook/orderbook.hpp</text>
</a>
</g>
</g>
<!-- Node1&#45;&gt;Node3 -->
<g id="edge10_Node000001_Node000003" class="edge">
<title>Node1&#45;&gt;Node3</title>
<g id="a_edge10_Node000001_Node000003"><a xlink:title=" ">
<path fill="none" stroke="#63b8ff" d="M249.17,-237.07C288.45,-215.74 353.99,-171.36 333.81,-121 311.08,-64.27 240.58,-32.77 200.47,-19.01"/>
<polygon fill="#63b8ff" stroke="#63b8ff" points="247.05,-234.23 239.82,-241.98 250.3,-240.43 247.05,-234.23"/>
</a>
</g>
</g>
<!-- Node2&#45;&gt;Node3 -->
<g id="edge2_Node000002_Node000003" class="edge">
<title>Node2&#45;&gt;Node3</title>
<g id="a_edge2_Node000002_Node000003"><a xlink:title=" ">
<path fill="none" stroke="#63b8ff" d="M102.03,-185.09C63.86,-177.62 21.34,-166.2 9.81,-151 -35.3,-91.53 89.62,-39.03 145.91,-19.06"/>
<polygon fill="#63b8ff" stroke="#63b8ff" points="101.66,-188.58 112.14,-187 102.96,-181.7 101.66,-188.58"/>
</a>
</g>
</g>
<!-- Node4 -->
<g id="Node000004" class="node">
<title>Node4</title>
<g id="a_Node000004"><a xlink:href="orderbook__l2_8hpp.html" target="_top" xlink:title=" ">
<polygon fill="white" stroke="#666666" points="162.81,-151 18.81,-151 18.81,-121 162.81,-121 162.81,-151"/>
<text text-anchor="start" x="26.81" y="-139" font-family="Helvetica,sans-Serif" font-size="10.00">slick/orderbook/orderbook</text>
<text text-anchor="middle" x="90.81" y="-128" font-family="Helvetica,sans-Serif" font-size="10.00">_l2.hpp</text>
</a>
</g>
</g>
<!-- Node2&#45;&gt;Node4 -->
<g id="edge3_Node000002_Node000004" class="edge">
<title>Node2&#45;&gt;Node4</title>
<g id="a_edge3_Node000002_Node000004"><a xlink:title=" ">
<path fill="none" stroke="#63b8ff" d="M149.16,-180.77C137.05,-171.68 121.59,-160.09 109.63,-151.11"/>
<polygon fill="#63b8ff" stroke="#63b8ff" points="147.2,-183.67 157.3,-186.87 151.4,-178.07 147.2,-183.67"/>
</a>
</g>
</g>
<!-- Node6 -->
<g id="Node000006" class="node">
<title>Node6</title>
<g id="a_Node000006"><a xlink:href="orderbook__l3_8hpp.html" target="_top" xlink:title=" ">
<polygon fill="white" stroke="#666666" points="324.81,-151 180.81,-151 180.81,-121 324.81,-121 324.81,-151"/>
<text text-anchor="start" x="188.81" y="-139" font-family="Helvetica,sans-Serif" font-size="10.00">slick/orderbook/orderbook</text>
<text text-anchor="middle" x="252.81" y="-128" font-family="Helvetica,sans-Serif" font-size="10.00">_l3.hpp</text>
</a>
</g>
</g>
<!-- Node2&#45;&gt;Node6 -->
<g id="edge7_Node000002_Node000006" class="edge">
<title>Node2&#45;&gt;Node6</title>
<g id="a_edge7_Node000002_Node000006"><a xlink:title=" ">
<path fill="none" stroke="#63b8ff" d="M189.58,-181.03C202.69,-171.9 219.53,-160.17 232.54,-151.11"/>
<polygon fill="#63b8ff" stroke="#63b8ff" points="187.41,-178.28 181.2,-186.87 191.41,-184.03 187.41,-178.28"/>
</a>
</g>
</g>
<!-- Node4&#45;&gt;Node3 -->
<g id="edge4_Node000004_Node000003" class="edge">
<title>Node4&#45;&gt;Node3</title>
<g id="a_edge4_Node000004_Node000003"><a xlink:title=" ">
<path fill="none" stroke="#63b8ff" d="M84.68,-110.72C81.83,-93.92 80.95,-71.67 90.81,-55 101.51,-36.91 122.47,-25.68 140.39,-19.03"/>
<polygon fill="#63b8ff" stroke="#63b8ff" points="81.32,-111.76 86.74,-120.86 88.18,-110.36 81.32,-111.76"/>
</a>
</g>
</g>
<!-- Node5 -->
<g id="Node000005" class="node">
<title>Node5</title>
<g id="a_Node000005"><a xlink:href="orderbook__manager_8hpp.html" target="_top" xlink:title=" ">
<polygon fill="white" stroke="#666666" points="243.81,-85 99.81,-85 99.81,-55 243.81,-55 243.81,-85"/>
<text text-anchor="start" x="107.81" y="-73" font-family="Helvetica,sans-Serif" font-size="10.00">slick/orderbook/orderbook</text>
<text text-anchor="middle" x="171.81" y="-62" font-family="Helvetica,sans-Serif" font-size="10.00">_manager.hpp</text>
</a>
</g>
</g>
<!-- Node4&#45;&gt;Node5 -->
<g id="edge5_Node000004_Node000005" class="edge">
<title>Node4&#45;&gt;Node5</title>
<g id="a_edge5_Node000004_Node000005"><a xlink:title=" ">
<path fill="none" stroke="#63b8ff" d="M116.78,-114.48C128.89,-104.91 142.99,-93.77 153.88,-85.16"/>
<polygon fill="#63b8ff" stroke="#63b8ff" points="114.46,-111.85 108.78,-120.8 118.8,-117.34 114.46,-111.85"/>
</a>
</g>
</g>
<!-- Node5&#45;&gt;Node3 -->
<g id="edge6_Node000005_Node000003" class="edge">
<title>Node5&#45;&gt;Node3</title>
<g id="a_edge6_Node000005_Node000003"><a xlink:title=" ">
<path fill="none" stroke="#63b8ff" d="M171.81,-44.75C171.81,-35.72 171.81,-26.03 171.81,-19.27"/>
<polygon fill="#63b8ff" stroke="#63b8ff" points="168.31,-44.84 171.81,-54.84 175.31,-44.84 168.31,-44.84"/>
</a>
</g>
</g>
<!-- Node6&#45;&gt;Node3 -->
<g id="edge8_Node000006_Node000003" class="edge">
<title>Node6&#45;&gt;Node3</title>
<g id="a_edge8_Node000006_Node000003"><a xlink:title=" ">
<path fill="none" stroke="#63b8ff" d="M258.94,-110.72C261.79,-93.92 262.67,-71.67 252.81,-55 242.11,-36.91 221.15,-25.68 203.23,-19.03"/>
<polygon fill="#63b8ff" stroke="#63b8ff" points="255.44,-110.36 256.88,-120.86 262.3,-111.76 255.44,-110.36"/>
</a>
</g>
</g>
<!-- Node6&#45;&gt;Node5 -->
<g id="edge9_Node000006_Node000005" class="edge">
<title>Node6&#45;&gt;Node5</title>
<g id="a_edge9_Node000006_Node000005"><a xlink:title=" ">
<path fill="none" stroke="#63b8ff" d="M226.83,-114.48C214.73,-104.91 200.63,-93.77 189.73,-85.16"/>
<polygon fill="#63b8ff" stroke="#63b8ff" points="224.82,-117.34 234.83,-120.8 229.16,-111.85 224.82,-117.34"/>
</a>
</g>
</g>
</g>
</svg>
</svg>

<style type='text/css'>
<![CDATA[
[data-mouse-over-selected='false'] { opacity: 0.7; }
[data-mouse-over-selected='true']  { opacity: 1.0; }
]]>
</style>
<script type="application/ecmascript"><![CDATA[
document.addEventListener('DOMContentLoaded', (event) => {
  highlightEdges();
  highlightAdjacentNodes();
});
]]></script>
</svg>
