<?xml version="1.0" encoding="UTF-8" standalone="no"?>
<!DOCTYPE svg PUBLIC "-//W3C//DTD SVG 1.1//EN"
 "http://www.w3.org/Graphics/SVG/1.1/DTD/svg11.dtd">
<!-- Generated by graphviz version 2.43.0 (0)
 -->
<!-- Title: slick/orderbook/concepts.hpp Pages: 1 -->
<svg width="430pt" height="192pt"
 viewBox="0.00 0.00 430.00 192.00" xmlns="http://www.w3.org/2000/svg" xmlns:xlink="http://www.w3.org/1999/xlink">
<g id="graph0" class="graph" transform="scale(1 1) rotate(0) translate(4 188)">
<title>slick/orderbook/concepts.hpp</title>
<!-- Node1 -->
<g id="Node000001" class="node">
<title>Node1</title>
<g id="a_Node000001"><a xlink:title=" ">
<polygon fill="#999999" stroke="#666666" points="324,-184 165,-184 165,-165 324,-165 324,-184"/>
<text text-anchor="middle" x="244.5" y="-172" font-family="Helvetica,sans-Serif" font-size="10.00">slick/orderbook/concepts.hpp</text>
</a>
</g>
</g>
<!-- Node2 -->
<g id="Node000002" class="node">
<title>Node2</title>
<g id="a_Node000002"><a xlink:href="config_8hpp.html" target="_top" xlink:title=" ">
<polygon fill="white" stroke="#666666" points="145,-74 0,-74 0,-55 145,-55 145,-74"/>
<text text-anchor="middle" x="72.5" y="-62" font-family="Helvetica,sans-Serif" font-size="10.00">slick/orderbook/config.hpp</text>
</a>
</g>
</g>
<!-- Node1&#45;&gt;Node2 -->
<g id="edge1_Node000001_Node000002" class="edge">
<title>Node1&#45;&gt;Node2</title>
<g id="a_edge1_Node000001_Node000002"><a xlink:title=" ">
<path fill="none" stroke="#63b8ff" d="M181.88,-165C155.26,-158.73 125.38,-147.85 103.5,-129 89.87,-117.26 81.69,-98.14 77.18,-83.94"/>
<polygon fill="#63b8ff" stroke="#63b8ff" points="80.52,-82.91 74.42,-74.25 73.79,-84.82 80.52,-82.91"/>
</a>
</g>
</g>
<!-- Node4 -->
<g id="Node000004" class="node">
<title>Node4</title>
<g id="a_Node000004"><a xlink:href="types_8hpp.html" target="_top" xlink:title=" ">
<polygon fill="white" stroke="#666666" points="256,-129 113,-129 113,-110 256,-110 256,-129"/>
<text text-anchor="middle" x="184.5" y="-117" font-family="Helvetica,sans-Serif" font-size="10.00">slick/orderbook/types.hpp</text>
</a>
</g>
</g>
<!-- Node1&#45;&gt;Node4 -->
<g id="edge3_Node000001_Node000004" class="edge">
<title>Node1&#45;&gt;Node4</title>
<g id="a_edge3_Node000001_Node000004"><a xlink:title=" ">
<path fill="none" stroke="#63b8ff" d="M234.86,-164.98C225.99,-157.15 212.63,-145.34 201.89,-135.86"/>
<polygon fill="#63b8ff" stroke="#63b8ff" points="204.13,-133.17 194.32,-129.17 199.49,-138.41 204.13,-133.17"/>
</a>
</g>
</g>
<!-- Node7 -->
<g id="Node000007" class="node">
<title>Node7</title>
<g id="a_Node000007"><a xlink:title=" ">
<polygon fill="#e0e0e0" stroke="#999999" points="334.5,-129 274.5,-129 274.5,-110 334.5,-110 334.5,-129"/>
<text text-anchor="middle" x="304.5" y="-117" font-family="Helvetica,sans-Serif" font-size="10.00">concepts</text>
</a>
</g>
</g>
<!-- Node1&#45;&gt;Node7 -->
<g id="edge7_Node000001_Node000007" class="edge">
<title>Node1&#45;&gt;Node7</title>
<g id="a_edge7_Node000001_Node000007"><a xlink:title=" ">
<path fill="none" stroke="#63b8ff" d="M254.14,-164.98C263.01,-157.15 276.37,-145.34 287.11,-135.86"/>
<polygon fill="#63b8ff" stroke="#63b8ff" points="289.51,-138.41 294.68,-129.17 284.87,-133.17 289.51,-138.41"/>
</a>
</g>
</g>
<!-- Node8 -->
<g id="Node000008" class="node">
<title>Node8</title>
<g id="a_Node000008"><a xlink:title=" ">
<polygon fill="#e0e0e0" stroke="#999999" points="422,-129 353,-129 353,-110 422,-110 422,-129"/>
<text text-anchor="middle" x="387.5" y="-117" font-family="Helvetica,sans-Serif" font-size="10.00">type_traits</text>
</a>
</g>
</g>
<!-- Node1&#45;&gt;Node8 -->
<g id="edge8_Node000001_Node000008" class="edge">
<title>Node1&#45;&gt;Node8</title>
<g id="a_edge8_Node000001_Node000008"><a xlink:title=" ">
<path fill="none" stroke="#63b8ff" d="M267.48,-164.98C291,-156.27 327.79,-142.63 354.44,-132.75"/>
<polygon fill="#63b8ff" stroke="#63b8ff" points="355.95,-135.93 364.11,-129.17 353.51,-129.36 355.95,-135.93"/>
</a>
</g>
</g>
<!-- Node3 -->
<g id="Node000003" class="node">
<title>Node3</title>
<g id="a_Node000003"><a xlink:title=" ">
<polygon fill="#e0e0e0" stroke="#999999" points="98.5,-19 46.5,-19 46.5,0 98.5,0 98.5,-19"/>
<text text-anchor="middle" x="72.5" y="-7" font-family="Helvetica,sans-Serif" font-size="10.00">cassert</text>
</a>
</g>
</g>
<!-- Node2&#45;&gt;Node3 -->
<g id="edge2_Node000002_Node000003" class="edge">
<title>Node2&#45;&gt;Node3</title>
<g id="a_edge2_Node000002_Node000003"><a xlink:title=" ">
<path fill="none" stroke="#63b8ff" d="M72.5,-54.75C72.5,-47.8 72.5,-37.85 72.5,-29.13"/>
<polygon fill="#63b8ff" stroke="#63b8ff" points="76,-29.09 72.5,-19.09 69,-29.09 76,-29.09"/>
</a>
</g>
</g>
<!-- Node4&#45;&gt;Node2 -->
<g id="edge4_Node000004_Node000002" class="edge">
<title>Node4&#45;&gt;Node2</title>
<g id="a_edge4_Node000004_Node000002"><a xlink:title=" ">
<path fill="none" stroke="#63b8ff" d="M166.51,-109.98C148.57,-101.5 120.78,-88.35 100.07,-78.54"/>
<polygon fill="#63b8ff" stroke="#63b8ff" points="101.36,-75.28 90.82,-74.17 98.36,-81.61 101.36,-75.28"/>
</a>
</g>
</g>
<!-- Node5 -->
<g id="Node000005" class="node">
<title>Node5</title>
<g id="a_Node000005"><a xlink:title=" ">
<polygon fill="#e0e0e0" stroke="#999999" points="213.5,-74 163.5,-74 163.5,-55 213.5,-55 213.5,-74"/>
<text text-anchor="middle" x="188.5" y="-62" font-family="Helvetica,sans-Serif" font-size="10.00">cstdint</text>
</a>
</g>
</g>
<!-- Node4&#45;&gt;Node5 -->
<g id="edge5_Node000004_Node000005" class="edge">
<title>Node4&#45;&gt;Node5</title>
<g id="a_edge5_Node000004_Node000005"><a xlink:title=" ">
<path fill="none" stroke="#63b8ff" d="M185.16,-109.75C185.68,-102.8 186.44,-92.85 187.09,-84.13"/>
<polygon fill="#63b8ff" stroke="#63b8ff" points="190.59,-84.32 187.85,-74.09 183.61,-83.8 190.59,-84.32"/>
</a>
</g>
</g>
<!-- Node6 -->
<g id="Node000006" class="node">
<title>Node6</title>
<g id="a_Node000006"><a xlink:title=" ">
<polygon fill="#e0e0e0" stroke="#999999" points="305,-74 232,-74 232,-55 305,-55 305,-74"/>
<text text-anchor="middle" x="268.5" y="-62" font-family="Helvetica,sans-Serif" font-size="10.00">string_view</text>
</a>
</g>
</g>
<!-- Node4&#45;&gt;Node6 -->
<g id="edge6_Node000004_Node000006" class="edge">
<title>Node4&#45;&gt;Node6</title>
<g id="a_edge6_Node000004_Node000006"><a xlink:title=" ">
<path fill="none" stroke="#63b8ff" d="M198,-109.98C210.9,-101.84 230.6,-89.41 245.9,-79.76"/>
<polygon fill="#63b8ff" stroke="#63b8ff" points="248.17,-82.47 254.76,-74.17 244.43,-76.55 248.17,-82.47"/>
</a>
</g>
</g>
</g>
</svg>
