<?xml version="1.0" encoding="UTF-8" standalone="no"?>
<!DOCTYPE svg PUBLIC "-//W3C//DTD SVG 1.1//EN"
 "http://www.w3.org/Graphics/SVG/1.1/DTD/svg11.dtd">
<!-- Generated by graphviz version 2.43.0 (0)
 -->
<!-- Title: slick/orderbook/config.hpp Pages: 1 -->
<svg width="654pt" height="379pt"
 viewBox="0.00 0.00 654.00 379.00" xmlns="http://www.w3.org/2000/svg" xmlns:xlink="http://www.w3.org/1999/xlink">
<g id="graph0" class="graph" transform="scale(1 1) rotate(0) translate(4 375)">
<title>slick/orderbook/config.hpp</title>
<!-- Node1 -->
<g id="Node000001" class="node">
<title>Node1</title>
<g id="a_Node000001"><a xlink:title=" ">
<polygon fill="#999999" stroke="#666666" points="375.5,-371 230.5,-371 230.5,-352 375.5,-352 375.5,-371"/>
<text text-anchor="middle" x="303" y="-359" font-family="Helvetica,sans-Serif" font-size="10.00">slick/orderbook/config.hpp</text>
</a>
</g>
</g>
<!-- Node2 -->
<g id="Node000002" class="node">
<title>Node2</title>
<g id="a_Node000002"><a xlink:href="concepts_8hpp.html" target="_top" xlink:title=" ">
<polygon fill="white" stroke="#666666" points="224.5,-261 65.5,-261 65.5,-242 224.5,-242 224.5,-261"/>
<text text-anchor="middle" x="145" y="-249" font-family="Helvetica,sans-Serif" font-size="10.00">slick/orderbook/concepts.hpp</text>
</a>
</g>
</g>
<!-- Node1&#45;&gt;Node2 -->
<g id="edge1_Node000001_Node000002" class="edge">
<title>Node1&#45;&gt;Node2</title>
<g id="a_edge1_Node000001_Node000002"><a xlink:title=" ">
<path fill="none" stroke="#63b8ff" d="M281.8,-346.01C248.46,-323.22 184.82,-279.72 157.72,-261.2"/>
<polygon fill="#63b8ff" stroke="#63b8ff" points="280.11,-349.09 290.34,-351.84 284.06,-343.31 280.11,-349.09"/>
</a>
</g>
</g>
<!-- Node3 -->
<g id="Node000003" class="node">
<title>Node3</title>
<g id="a_Node000003"><a xlink:href="observer_8hpp.html" target="_top" xlink:title=" ">
<polygon fill="white" stroke="#666666" points="336,-206 178,-206 178,-187 336,-187 336,-206"/>
<text text-anchor="middle" x="257" y="-194" font-family="Helvetica,sans-Serif" font-size="10.00">slick/orderbook/observer.hpp</text>
</a>
</g>
</g>
<!-- Node1&#45;&gt;Node3 -->
<g id="edge17_Node000001_Node000003" class="edge">
<title>Node1&#45;&gt;Node3</title>
<g id="a_edge17_Node000001_Node000003"><a xlink:title=" ">
<path fill="none" stroke="#63b8ff" d="M296.54,-342.2C289.67,-322.36 278.75,-289.67 271,-261 265.75,-241.6 261.04,-218.48 258.65,-206.19"/>
<polygon fill="#63b8ff" stroke="#63b8ff" points="293.29,-343.51 299.9,-351.8 299.9,-341.2 293.29,-343.51"/>
</a>
</g>
</g>
<!-- Node4 -->
<g id="Node000004" class="node">
<title>Node4</title>
<g id="a_Node000004"><a xlink:href="orderbook_8hpp.html" target="_top" xlink:title=" ">
<polygon fill="white" stroke="#666666" points="334.5,-19 169.5,-19 169.5,0 334.5,0 334.5,-19"/>
<text text-anchor="middle" x="252" y="-7" font-family="Helvetica,sans-Serif" font-size="10.00">slick/orderbook/orderbook.hpp</text>
</a>
</g>
</g>
<!-- Node1&#45;&gt;Node4 -->
<g id="edge18_Node000001_Node000004" class="edge">
<title>Node1&#45;&gt;Node4</title>
<g id="a_edge18_Node000001_Node000004"><a xlink:title=" ">
<path fill="none" stroke="#63b8ff" d="M220.08,-351.86C178.79,-345.48 128.88,-334.55 87,-316 43.23,-296.62 0,-300.37 0,-252.5 0,-252.5 0,-252.5 0,-135 0,-57.9 95.99,-28.54 169.49,-17.37"/>
<polygon fill="#63b8ff" stroke="#63b8ff" points="219.7,-355.34 230.11,-353.35 220.73,-348.42 219.7,-355.34"/>
</a>
</g>
</g>
<!-- Node5 -->
<g id="Node000005" class="node">
<title>Node5</title>
<g id="a_Node000005"><a xlink:href="orderbook__l2_8hpp.html" target="_top" xlink:title=" ">
<polygon fill="white" stroke="#666666" points="374,-151 230,-151 230,-121 374,-121 374,-151"/>
<text text-anchor="start" x="238" y="-139" font-family="Helvetica,sans-Serif" font-size="10.00">slick/orderbook/orderbook</text>
<text text-anchor="middle" x="302" y="-128" font-family="Helvetica,sans-Serif" font-size="10.00">_l2.hpp</text>
</a>
</g>
</g>
<!-- Node1&#45;&gt;Node5 -->
<g id="edge19_Node000001_Node000005" class="edge">
<title>Node1&#45;&gt;Node5</title>
<g id="a_edge19_Node000001_Node000005"><a xlink:title=" ">
<path fill="none" stroke="#63b8ff" d="M220.37,-351.02C163.74,-339.73 92.49,-315.03 56,-261 9.16,-191.64 141.32,-159.16 229.63,-145.55"/>
<polygon fill="#63b8ff" stroke="#63b8ff" points="219.93,-354.49 230.41,-352.91 221.23,-347.61 219.93,-354.49"/>
</a>
</g>
</g>
<!-- Node6 -->
<g id="Node000006" class="node">
<title>Node6</title>
<g id="a_Node000006"><a xlink:href="orderbook__manager_8hpp.html" target="_top" xlink:title=" ">
<polygon fill="white" stroke="#666666" points="536,-85 392,-85 392,-55 536,-55 536,-85"/>
<text text-anchor="start" x="400" y="-73" font-family="Helvetica,sans-Serif" font-size="10.00">slick/orderbook/orderbook</text>
<text text-anchor="middle" x="464" y="-62" font-family="Helvetica,sans-Serif" font-size="10.00">_manager.hpp</text>
</a>
</g>
</g>
<!-- Node1&#45;&gt;Node6 -->
<g id="edge21_Node000001_Node000006" class="edge">
<title>Node1&#45;&gt;Node6</title>
<g id="a_edge21_Node000001_Node000006"><a xlink:title=" ">
<path fill="none" stroke="#63b8ff" d="M385.68,-351.12C487.18,-337.26 646,-306.88 646,-252.5 646,-252.5 646,-252.5 646,-195.5 646,-134.82 576.23,-101.55 523.09,-85.02"/>
<polygon fill="#63b8ff" stroke="#63b8ff" points="385.19,-347.66 375.74,-352.45 386.12,-354.59 385.19,-347.66"/>
</a>
</g>
</g>
<!-- Node7 -->
<g id="Node000007" class="node">
<title>Node7</title>
<g id="a_Node000007"><a xlink:href="orderbook__l3_8hpp.html" target="_top" xlink:title=" ">
<polygon fill="white" stroke="#666666" points="536,-151 392,-151 392,-121 536,-121 536,-151"/>
<text text-anchor="start" x="400" y="-139" font-family="Helvetica,sans-Serif" font-size="10.00">slick/orderbook/orderbook</text>
<text text-anchor="middle" x="464" y="-128" font-family="Helvetica,sans-Serif" font-size="10.00">_l3.hpp</text>
</a>
</g>
</g>
<!-- Node1&#45;&gt;Node7 -->
<g id="edge20_Node000001_Node000007" class="edge">
<title>Node1&#45;&gt;Node7</title>
<g id="a_edge20_Node000001_Node000007"><a xlink:title=" ">
<path fill="none" stroke="#63b8ff" d="M385.92,-355.69C445.25,-350.32 517.87,-339.11 537,-316 580.01,-264.03 510.48,-183.32 478.62,-151.04"/>
<polygon fill="#63b8ff" stroke="#63b8ff" points="385.43,-352.22 375.77,-356.57 386.03,-359.2 385.43,-352.22"/>
</a>
</g>
</g>
<!-- Node8 -->
<g id="Node000008" class="node">
<title>Node8</title>
<g id="a_Node000008"><a xlink:href="events_8hpp.html" target="_top" xlink:title=" ">
<polygon fill="white" stroke="#666666" points="428.5,-261 279.5,-261 279.5,-242 428.5,-242 428.5,-261"/>
<text text-anchor="middle" x="354" y="-249" font-family="Helvetica,sans-Serif" font-size="10.00">slick/orderbook/events.hpp</text>
</a>
</g>
</g>
<!-- Node1&#45;&gt;Node8 -->
<g id="edge12_Node000001_Node000008" class="edge">
<title>Node1&#45;&gt;Node8</title>
<g id="a_edge12_Node000001_Node000008"><a xlink:title=" ">
<path fill="none" stroke="#63b8ff" d="M311.53,-342.44C322.63,-318.92 341.61,-278.73 349.91,-261.16"/>
<polygon fill="#63b8ff" stroke="#63b8ff" points="308.28,-341.12 307.17,-351.66 314.61,-344.11 308.28,-341.12"/>
</a>
</g>
</g>
<!-- Node9 -->
<g id="Node000009" class="node">
<title>Node9</title>
<g id="a_Node000009"><a xlink:href="types_8hpp.html" target="_top" xlink:title=" ">
<polygon fill="white" stroke="#666666" points="527.5,-316 384.5,-316 384.5,-297 527.5,-297 527.5,-316"/>
<text text-anchor="middle" x="456" y="-304" font-family="Helvetica,sans-Serif" font-size="10.00">slick/orderbook/types.hpp</text>
</a>
</g>
</g>
<!-- Node1&#45;&gt;Node9 -->
<g id="edge22_Node000001_Node000009" class="edge">
<title>Node1&#45;&gt;Node9</title>
<g id="a_edge22_Node000001_Node000009"><a xlink:title=" ">
<path fill="none" stroke="#63b8ff" d="M337.15,-348.67C365.68,-338.79 405.69,-324.93 431.23,-316.08"/>
<polygon fill="#63b8ff" stroke="#63b8ff" points="335.89,-345.4 327.58,-351.98 338.18,-352.02 335.89,-345.4"/>
</a>
</g>
</g>
<!-- Node2&#45;&gt;Node3 -->
<g id="edge2_Node000002_Node000003" class="edge">
<title>Node2&#45;&gt;Node3</title>
<g id="a_edge2_Node000002_Node000003"><a xlink:title=" ">
<path fill="none" stroke="#63b8ff" d="M172.19,-237.63C192.82,-227.87 220.62,-214.71 238.68,-206.17"/>
<polygon fill="#63b8ff" stroke="#63b8ff" points="170.54,-234.54 162.99,-241.98 173.53,-240.87 170.54,-234.54"/>
</a>
</g>
</g>
<!-- Node2&#45;&gt;Node4 -->
<g id="edge11_Node000002_Node000004" class="edge">
<title>Node2&#45;&gt;Node4</title>
<g id="a_edge11_Node000002_Node000004"><a xlink:title=" ">
<path fill="none" stroke="#63b8ff" d="M142.97,-231.62C139.96,-193.42 138.76,-106.23 183,-55 196.79,-39.03 217.7,-26.65 232.88,-19.05"/>
<polygon fill="#63b8ff" stroke="#63b8ff" points="139.51,-232.18 143.92,-241.81 146.48,-231.53 139.51,-232.18"/>
</a>
</g>
</g>
<!-- Node3&#45;&gt;Node4 -->
<g id="edge3_Node000003_Node000004" class="edge">
<title>Node3&#45;&gt;Node4</title>
<g id="a_edge3_Node000003_Node000004"><a xlink:title=" ">
<path fill="none" stroke="#63b8ff" d="M239.37,-179.29C232.21,-171.51 224.75,-161.59 221,-151 203.92,-102.73 234.07,-41.67 246.77,-19.26"/>
<polygon fill="#63b8ff" stroke="#63b8ff" points="237.31,-182.18 246.84,-186.81 242.28,-177.24 237.31,-182.18"/>
</a>
</g>
</g>
<!-- Node3&#45;&gt;Node5 -->
<g id="edge4_Node000003_Node000005" class="edge">
<title>Node3&#45;&gt;Node5</title>
<g id="a_edge4_Node000003_Node000005"><a xlink:title=" ">
<path fill="none" stroke="#63b8ff" d="M269.78,-178.88C276.53,-170.11 284.71,-159.48 291.14,-151.11"/>
<polygon fill="#63b8ff" stroke="#63b8ff" points="266.96,-176.81 263.64,-186.87 272.51,-181.08 266.96,-176.81"/>
</a>
</g>
</g>
<!-- Node3&#45;&gt;Node7 -->
<g id="edge8_Node000003_Node000007" class="edge">
<title>Node3&#45;&gt;Node7</title>
<g id="a_edge8_Node000003_Node000007"><a xlink:title=" ">
<path fill="none" stroke="#63b8ff" d="M296.99,-184.2C330.44,-174.75 378.31,-161.22 414.23,-151.06"/>
<polygon fill="#63b8ff" stroke="#63b8ff" points="295.77,-180.91 287.1,-186.99 297.67,-187.64 295.77,-180.91"/>
</a>
</g>
</g>
<!-- Node5&#45;&gt;Node4 -->
<g id="edge5_Node000005_Node000004" class="edge">
<title>Node5&#45;&gt;Node4</title>
<g id="a_edge5_Node000005_Node000004"><a xlink:title=" ">
<path fill="none" stroke="#63b8ff" d="M292.45,-111.23C281.17,-83.13 262.98,-37.84 255.44,-19.07"/>
<polygon fill="#63b8ff" stroke="#63b8ff" points="289.29,-112.74 296.26,-120.72 295.79,-110.13 289.29,-112.74"/>
</a>
</g>
</g>
<!-- Node5&#45;&gt;Node6 -->
<g id="edge6_Node000005_Node000006" class="edge">
<title>Node5&#45;&gt;Node6</title>
<g id="a_edge6_Node000005_Node000006"><a xlink:title=" ">
<path fill="none" stroke="#63b8ff" d="M347.09,-117.19C372.81,-107.02 404.6,-94.47 428.53,-85.01"/>
<polygon fill="#63b8ff" stroke="#63b8ff" points="345.57,-114.03 337.55,-120.95 348.14,-120.54 345.57,-114.03"/>
</a>
</g>
</g>
<!-- Node6&#45;&gt;Node4 -->
<g id="edge7_Node000006_Node000004" class="edge">
<title>Node6&#45;&gt;Node4</title>
<g id="a_edge7_Node000006_Node000004"><a xlink:title=" ">
<path fill="none" stroke="#63b8ff" d="M403.46,-52.29C364.13,-41.44 314.5,-27.75 283,-19.05"/>
<polygon fill="#63b8ff" stroke="#63b8ff" points="402.65,-55.7 413.22,-54.99 404.51,-48.95 402.65,-55.7"/>
</a>
</g>
</g>
<!-- Node7&#45;&gt;Node4 -->
<g id="edge9_Node000007_Node000004" class="edge">
<title>Node7&#45;&gt;Node4</title>
<g id="a_edge9_Node000007_Node000004"><a xlink:title=" ">
<path fill="none" stroke="#63b8ff" d="M431.26,-115.77C384.48,-88.3 300.45,-38.95 266.66,-19.11"/>
<polygon fill="#63b8ff" stroke="#63b8ff" points="429.7,-118.91 440.09,-120.96 433.24,-112.88 429.7,-118.91"/>
</a>
</g>
</g>
<!-- Node7&#45;&gt;Node6 -->
<g id="edge10_Node000007_Node000006" class="edge">
<title>Node7&#45;&gt;Node6</title>
<g id="a_edge10_Node000007_Node000006"><a xlink:title=" ">
<path fill="none" stroke="#63b8ff" d="M464,-110.54C464,-101.96 464,-92.61 464,-85.16"/>
<polygon fill="#63b8ff" stroke="#63b8ff" points="460.5,-110.8 464,-120.8 467.5,-110.8 460.5,-110.8"/>
</a>
</g>
</g>
<!-- Node8&#45;&gt;Node3 -->
<g id="edge13_Node000008_Node000003" class="edge">
<title>Node8&#45;&gt;Node3</title>
<g id="a_edge13_Node000008_Node000003"><a xlink:title=" ">
<path fill="none" stroke="#63b8ff" d="M329.23,-236.97C311.5,-227.28 288.15,-214.52 272.87,-206.17"/>
<polygon fill="#63b8ff" stroke="#63b8ff" points="327.96,-240.26 338.42,-241.98 331.32,-234.12 327.96,-240.26"/>
</a>
</g>
</g>
<!-- Node8&#45;&gt;Node4 -->
<g id="edge14_Node000008_Node000004" class="edge">
<title>Node8&#45;&gt;Node4</title>
<g id="a_edge14_Node000008_Node000004"><a xlink:title=" ">
<path fill="none" stroke="#63b8ff" d="M269.2,-240.36C226.83,-233.37 181.87,-222.33 169,-206 119.93,-143.73 211.83,-48.16 242.52,-19.15"/>
<polygon fill="#63b8ff" stroke="#63b8ff" points="268.9,-243.85 279.33,-241.96 270,-236.94 268.9,-243.85"/>
</a>
</g>
</g>
<!-- Node8&#45;&gt;Node5 -->
<g id="edge15_Node000008_Node000005" class="edge">
<title>Node8&#45;&gt;Node5</title>
<g id="a_edge15_Node000008_Node000005"><a xlink:title=" ">
<path fill="none" stroke="#63b8ff" d="M354.08,-231.73C353.5,-218.66 351.4,-201.12 345,-187 338.76,-173.23 327.52,-160.37 318.1,-151.14"/>
<polygon fill="#63b8ff" stroke="#63b8ff" points="350.59,-231.93 354.28,-241.86 357.59,-231.79 350.59,-231.93"/>
</a>
</g>
</g>
<!-- Node8&#45;&gt;Node7 -->
<g id="edge16_Node000008_Node000007" class="edge">
<title>Node8&#45;&gt;Node7</title>
<g id="a_edge16_Node000008_Node000007"><a xlink:title=" ">
<path fill="none" stroke="#63b8ff" d="M369.35,-234.67C390.86,-212.47 429.64,-172.45 450.26,-151.18"/>
<polygon fill="#63b8ff" stroke="#63b8ff" points="366.71,-232.35 362.27,-241.97 371.74,-237.22 366.71,-232.35"/>
</a>
</g>
</g>
<!-- Node9&#45;&gt;Node2 -->
<g id="edge23_Node000009_Node000002" class="edge">
<title>Node9&#45;&gt;Node2</title>
<g id="a_edge23_Node000009_Node000002"><a xlink:title=" ">
<path fill="none" stroke="#63b8ff" d="M395.84,-295.25C337.44,-285.3 249.82,-270.36 195.1,-261.04"/>
<polygon fill="#63b8ff" stroke="#63b8ff" points="395.59,-298.75 406.03,-296.98 396.76,-291.85 395.59,-298.75"/>
</a>
</g>
</g>
<!-- Node9&#45;&gt;Node4 -->
<g id="edge25_Node000009_Node000004" class="edge">
<title>Node9&#45;&gt;Node4</title>
<g id="a_edge25_Node000009_Node000004"><a xlink:title=" ">
<path fill="none" stroke="#63b8ff" d="M477.45,-290.64C488.04,-282.64 500.54,-272.14 510,-261 528.31,-239.45 530.43,-231.8 542,-206 569.47,-144.75 594.16,-100.71 545,-55 515.23,-27.32 410.6,-16.86 334.85,-12.9"/>
<polygon fill="#63b8ff" stroke="#63b8ff" points="475.13,-288 469.12,-296.73 479.26,-293.65 475.13,-288"/>
</a>
</g>
</g>
<!-- Node9&#45;&gt;Node5 -->
<g id="edge26_Node000009_Node000005" class="edge">
<title>Node9&#45;&gt;Node5</title>
<g id="a_edge26_Node000009_Node000005"><a xlink:title=" ">
<path fill="none" stroke="#63b8ff" d="M453.55,-287.01C451.08,-273.59 446.24,-255.5 437,-242 408.82,-200.84 359.49,-168.48 328.9,-151.1"/>
<polygon fill="#63b8ff" stroke="#63b8ff" points="450.11,-287.65 455.12,-296.98 457.02,-286.56 450.11,-287.65"/>
</a>
</g>
</g>
<!-- Node9&#45;&gt;Node6 -->
<g id="edge28_Node000009_Node000006" class="edge">
<title>Node9&#45;&gt;Node6</title>
<g id="a_edge28_Node000009_Node000006"><a xlink:title=" ">
<path fill="none" stroke="#63b8ff" d="M469.71,-288.88C490.92,-261.94 530.72,-206.2 545,-151 548.34,-138.09 551.5,-132.64 545,-121 535.9,-104.69 519.05,-93.04 503.07,-85.11"/>
<polygon fill="#63b8ff" stroke="#63b8ff" points="466.83,-286.87 463.3,-296.86 472.29,-291.26 466.83,-286.87"/>
</a>
</g>
</g>
<!-- Node9&#45;&gt;Node7 -->
<g id="edge27_Node000009_Node000007" class="edge">
<title>Node9&#45;&gt;Node7</title>
<g id="a_edge27_Node000009_Node000007"><a xlink:title=" ">
<path fill="none" stroke="#63b8ff" d="M463.15,-287.18C465.87,-279.26 468.65,-269.81 470,-261 476.05,-221.59 470.22,-174.38 466.53,-151.23"/>
<polygon fill="#63b8ff" stroke="#63b8ff" points="459.77,-286.23 459.6,-296.82 466.34,-288.65 459.77,-286.23"/>
</a>
</g>
</g>
<!-- Node9&#45;&gt;Node8 -->
<g id="edge24_Node000009_Node000008" class="edge">
<title>Node9&#45;&gt;Node8</title>
<g id="a_edge24_Node000009_Node000008"><a xlink:title=" ">
<path fill="none" stroke="#63b8ff" d="M430.73,-292.37C411.99,-282.63 386.98,-269.64 370.69,-261.17"/>
<polygon fill="#63b8ff" stroke="#63b8ff" points="429.12,-295.48 439.61,-296.98 432.35,-289.27 429.12,-295.48"/>
</a>
</g>
</g>
</g>
</svg>
