<?xml version="1.0" encoding="UTF-8" standalone="no"?>
<!DOCTYPE svg PUBLIC "-//W3C//DTD SVG 1.1//EN"
 "http://www.w3.org/Graphics/SVG/1.1/DTD/svg11.dtd">
<!-- Generated by graphviz version 2.43.0 (0)
 -->
<!-- Title: slick/orderbook/config.hpp Pages: 1 -->
<svg width="1517pt" height="412pt"
 viewBox="0.00 0.00 1517.00 412.00" xmlns="http://www.w3.org/2000/svg" xmlns:xlink="http://www.w3.org/1999/xlink">
<g id="graph0" class="graph" transform="scale(1 1) rotate(0) translate(4 408)">
<title>slick/orderbook/config.hpp</title>
<!-- Node1 -->
<g id="Node000001" class="node">
<title>Node1</title>
<g id="a_Node000001"><a xlink:title=" ">
<polygon fill="#999999" stroke="#666666" points="819.5,-404 674.5,-404 674.5,-385 819.5,-385 819.5,-404"/>
<text text-anchor="middle" x="747" y="-392" font-family="Helvetica,sans-Serif" font-size="10.00">slick/orderbook/config.hpp</text>
</a>
</g>
</g>
<!-- Node2 -->
<g id="Node000002" class="node">
<title>Node2</title>
<g id="a_Node000002"><a xlink:href="concepts_8hpp.html" target="_top" xlink:title=" ">
<polygon fill="white" stroke="#666666" points="224.5,-277.5 65.5,-277.5 65.5,-258.5 224.5,-258.5 224.5,-277.5"/>
<text text-anchor="middle" x="145" y="-265.5" font-family="Helvetica,sans-Serif" font-size="10.00">slick/orderbook/concepts.hpp</text>
</a>
</g>
</g>
<!-- Node1&#45;&gt;Node2 -->
<g id="edge1_Node000001_Node000002" class="edge">
<title>Node1&#45;&gt;Node2</title>
<g id="a_edge1_Node000001_Node000002"><a xlink:title=" ">
<path fill="none" stroke="#63b8ff" d="M663.9,-392.38C539.8,-389.68 312.64,-380.45 238,-349 199.73,-332.87 165.8,-294.9 151.81,-277.72"/>
<polygon fill="#63b8ff" stroke="#63b8ff" points="664.05,-395.88 674.12,-392.59 664.19,-388.88 664.05,-395.88"/>
</a>
</g>
</g>
<!-- Node3 -->
<g id="Node000003" class="node">
<title>Node3</title>
<g id="a_Node000003"><a xlink:href="observer_8hpp.html" target="_top" xlink:title=" ">
<polygon fill="white" stroke="#666666" points="277,-211.5 119,-211.5 119,-192.5 277,-192.5 277,-211.5"/>
<text text-anchor="middle" x="198" y="-199.5" font-family="Helvetica,sans-Serif" font-size="10.00">slick/orderbook/observer.hpp</text>
</a>
</g>
</g>
<!-- Node1&#45;&gt;Node3 -->
<g id="edge39_Node000001_Node000003" class="edge">
<title>Node1&#45;&gt;Node3</title>
<g id="a_edge39_Node000001_Node000003"><a xlink:title=" ">
<path fill="none" stroke="#63b8ff" d="M664.24,-390.78C531.26,-385.76 276.08,-373.25 189,-349 125.81,-331.4 91.48,-338.8 57,-283 32.88,-243.98 96.64,-222.21 146.15,-211.55"/>
<polygon fill="#63b8ff" stroke="#63b8ff" points="664.26,-394.28 674.38,-391.16 664.52,-387.29 664.26,-394.28"/>
</a>
</g>
</g>
<!-- Node4 -->
<g id="Node000004" class="node">
<title>Node4</title>
<g id="a_Node000004"><a xlink:href="orderbook_8hpp.html" target="_top" xlink:title=" ">
<polygon fill="white" stroke="#666666" points="437.5,-19 272.5,-19 272.5,0 437.5,0 437.5,-19"/>
<text text-anchor="middle" x="355" y="-7" font-family="Helvetica,sans-Serif" font-size="10.00">slick/orderbook/orderbook.hpp</text>
</a>
</g>
</g>
<!-- Node1&#45;&gt;Node4 -->
<g id="edge40_Node000001_Node000004" class="edge">
<title>Node1&#45;&gt;Node4</title>
<g id="a_edge40_Node000001_Node000004"><a xlink:title=" ">
<path fill="none" stroke="#63b8ff" d="M664.29,-391.02C498.69,-385.61 137.8,-371.4 86,-349 38.09,-328.28 0,-321.2 0,-269 0,-269 0,-269 0,-135 0,-73.36 192.98,-34.94 294.38,-19"/>
<polygon fill="#63b8ff" stroke="#63b8ff" points="664.32,-394.52 674.43,-391.35 664.55,-387.53 664.32,-394.52"/>
</a>
</g>
</g>
<!-- Node5 -->
<g id="Node000005" class="node">
<title>Node5</title>
<g id="a_Node000005"><a xlink:href="orderbook__l2_8hpp.html" target="_top" xlink:title=" ">
<polygon fill="white" stroke="#666666" points="484,-151 340,-151 340,-121 484,-121 484,-151"/>
<text text-anchor="start" x="348" y="-139" font-family="Helvetica,sans-Serif" font-size="10.00">slick/orderbook/orderbook</text>
<text text-anchor="middle" x="412" y="-128" font-family="Helvetica,sans-Serif" font-size="10.00">_l2.hpp</text>
</a>
</g>
</g>
<!-- Node1&#45;&gt;Node5 -->
<g id="edge41_Node000001_Node000005" class="edge">
<title>Node1&#45;&gt;Node5</title>
<g id="a_edge41_Node000001_Node000005"><a xlink:title=" ">
<path fill="none" stroke="#63b8ff" d="M664.13,-387.13C540.12,-375.6 315.96,-346.33 271,-283 263.28,-272.13 265.31,-265.06 271,-253 293.94,-204.42 348.32,-169.31 382.44,-151.14"/>
<polygon fill="#63b8ff" stroke="#63b8ff" points="664.07,-390.64 674.34,-388.06 664.7,-383.67 664.07,-390.64"/>
</a>
</g>
</g>
<!-- Node6 -->
<g id="Node000006" class="node">
<title>Node6</title>
<g id="a_Node000006"><a xlink:href="orderbook__manager_8hpp.html" target="_top" xlink:title=" ">
<polygon fill="white" stroke="#666666" points="883,-85 739,-85 739,-55 883,-55 883,-85"/>
<text text-anchor="start" x="747" y="-73" font-family="Helvetica,sans-Serif" font-size="10.00">slick/orderbook/orderbook</text>
<text text-anchor="middle" x="811" y="-62" font-family="Helvetica,sans-Serif" font-size="10.00">_manager.hpp</text>
</a>
</g>
</g>
<!-- Node1&#45;&gt;Node6 -->
<g id="edge43_Node000001_Node000006" class="edge">
<title>Node1&#45;&gt;Node6</title>
<g id="a_edge43_Node000001_Node000006"><a xlink:title=" ">
<path fill="none" stroke="#63b8ff" d="M761.62,-376.74C767.7,-368.84 774.21,-358.98 778,-349 796.7,-299.82 807.37,-134.99 810.22,-85.3"/>
<polygon fill="#63b8ff" stroke="#63b8ff" points="758.72,-374.76 755.11,-384.72 764.14,-379.18 758.72,-374.76"/>
</a>
</g>
</g>
<!-- Node7 -->
<g id="Node000007" class="node">
<title>Node7</title>
<g id="a_Node000007"><a xlink:href="orderbook__l3_8hpp.html" target="_top" xlink:title=" ">
<polygon fill="white" stroke="#666666" points="1037,-151 893,-151 893,-121 1037,-121 1037,-151"/>
<text text-anchor="start" x="901" y="-139" font-family="Helvetica,sans-Serif" font-size="10.00">slick/orderbook/orderbook</text>
<text text-anchor="middle" x="965" y="-128" font-family="Helvetica,sans-Serif" font-size="10.00">_l3.hpp</text>
</a>
</g>
</g>
<!-- Node1&#45;&gt;Node7 -->
<g id="edge42_Node000001_Node000007" class="edge">
<title>Node1&#45;&gt;Node7</title>
<g id="a_edge42_Node000001_Node000007"><a xlink:title=" ">
<path fill="none" stroke="#63b8ff" d="M829.79,-389.9C944.28,-384.19 1144.68,-371.34 1214,-349 1269.36,-331.16 1298.05,-333.44 1327,-283 1338.02,-263.81 1328.66,-197.72 1318,-187 1279.8,-148.6 1128.87,-139.34 1037.18,-137.32"/>
<polygon fill="#63b8ff" stroke="#63b8ff" points="829.48,-386.41 819.66,-390.4 829.82,-393.4 829.48,-386.41"/>
</a>
</g>
</g>
<!-- Node8 -->
<g id="Node000008" class="node">
<title>Node8</title>
<g id="a_Node000008"><a xlink:href="flat__map_8hpp.html" target="_top" xlink:title=" ">
<polygon fill="white" stroke="#666666" points="937,-217 815,-217 815,-187 937,-187 937,-217"/>
<text text-anchor="start" x="823" y="-205" font-family="Helvetica,sans-Serif" font-size="10.00">slick/orderbook/detail</text>
<text text-anchor="middle" x="876" y="-194" font-family="Helvetica,sans-Serif" font-size="10.00">/flat_map.hpp</text>
</a>
</g>
</g>
<!-- Node1&#45;&gt;Node8 -->
<g id="edge12_Node000001_Node000008" class="edge">
<title>Node1&#45;&gt;Node8</title>
<g id="a_edge12_Node000001_Node000008"><a xlink:title=" ">
<path fill="none" stroke="#63b8ff" d="M773.01,-379.9C785.77,-372.2 800.59,-361.59 811,-349 845.31,-307.52 864.95,-245.06 872.45,-217.24"/>
<polygon fill="#63b8ff" stroke="#63b8ff" points="771.1,-376.96 764.18,-384.98 774.59,-383.03 771.1,-376.96"/>
</a>
</g>
</g>
<!-- Node9 -->
<g id="Node000009" class="node">
<title>Node9</title>
<g id="a_Node000009"><a xlink:href="intrusive__list_8hpp.html" target="_top" xlink:title=" ">
<polygon fill="white" stroke="#666666" points="1318,-283 1196,-283 1196,-253 1318,-253 1318,-283"/>
<text text-anchor="start" x="1204" y="-271" font-family="Helvetica,sans-Serif" font-size="10.00">slick/orderbook/detail</text>
<text text-anchor="middle" x="1257" y="-260" font-family="Helvetica,sans-Serif" font-size="10.00">/intrusive_list.hpp</text>
</a>
</g>
</g>
<!-- Node1&#45;&gt;Node9 -->
<g id="edge15_Node000001_Node000009" class="edge">
<title>Node1&#45;&gt;Node9</title>
<g id="a_edge15_Node000001_Node000009"><a xlink:title=" ">
<path fill="none" stroke="#63b8ff" d="M829.77,-391.88C938.33,-388.6 1122.03,-378.7 1182,-349 1212.03,-334.13 1236.22,-301.89 1248.4,-283.2"/>
<polygon fill="#63b8ff" stroke="#63b8ff" points="829.4,-388.39 819.51,-392.18 829.61,-395.39 829.4,-388.39"/>
</a>
</g>
</g>
<!-- Node10 -->
<g id="Node000010" class="node">
<title>Node10</title>
<g id="a_Node000010"><a xlink:href="price__level__l3_8hpp.html" target="_top" xlink:title=" ">
<polygon fill="white" stroke="#666666" points="1293,-217 1171,-217 1171,-187 1293,-187 1293,-217"/>
<text text-anchor="start" x="1179" y="-205" font-family="Helvetica,sans-Serif" font-size="10.00">slick/orderbook/detail</text>
<text text-anchor="middle" x="1232" y="-194" font-family="Helvetica,sans-Serif" font-size="10.00">/price_level_l3.hpp</text>
</a>
</g>
</g>
<!-- Node1&#45;&gt;Node10 -->
<g id="edge33_Node000001_Node000010" class="edge">
<title>Node1&#45;&gt;Node10</title>
<g id="a_edge33_Node000001_Node000010"><a xlink:title=" ">
<path fill="none" stroke="#63b8ff" d="M829.7,-387.3C882.52,-381.45 951.77,-370.26 1010,-349 1064.27,-329.18 1073.69,-314.7 1122,-283 1155.17,-261.24 1192.18,-233.59 1213.7,-217.15"/>
<polygon fill="#63b8ff" stroke="#63b8ff" points="829.27,-383.82 819.7,-388.36 830.01,-390.78 829.27,-383.82"/>
</a>
</g>
</g>
<!-- Node11 -->
<g id="Node000011" class="node">
<title>Node11</title>
<g id="a_Node000011"><a xlink:href="level__container_8hpp.html" target="_top" xlink:title=" ">
<polygon fill="white" stroke="#666666" points="645,-217 523,-217 523,-187 645,-187 645,-217"/>
<text text-anchor="start" x="531" y="-205" font-family="Helvetica,sans-Serif" font-size="10.00">slick/orderbook/detail</text>
<text text-anchor="middle" x="584" y="-194" font-family="Helvetica,sans-Serif" font-size="10.00">/level_container.hpp</text>
</a>
</g>
</g>
<!-- Node1&#45;&gt;Node11 -->
<g id="edge19_Node000001_Node000011" class="edge">
<title>Node1&#45;&gt;Node11</title>
<g id="a_edge19_Node000001_Node000011"><a xlink:title=" ">
<path fill="none" stroke="#63b8ff" d="M673.02,-382.11C652.35,-375.56 631.58,-365.24 617,-349 582.97,-311.1 581.71,-245.65 582.98,-217.06"/>
<polygon fill="#63b8ff" stroke="#63b8ff" points="672.23,-385.53 682.81,-384.95 674.18,-378.8 672.23,-385.53"/>
</a>
</g>
</g>
<!-- Node12 -->
<g id="Node000012" class="node">
<title>Node12</title>
<g id="a_Node000012"><a xlink:href="memory__pool_8hpp.html" target="_top" xlink:title=" ">
<polygon fill="white" stroke="#666666" points="1509,-349 1387,-349 1387,-319 1509,-319 1509,-349"/>
<text text-anchor="start" x="1395" y="-337" font-family="Helvetica,sans-Serif" font-size="10.00">slick/orderbook/detail</text>
<text text-anchor="middle" x="1448" y="-326" font-family="Helvetica,sans-Serif" font-size="10.00">/memory_pool.hpp</text>
</a>
</g>
</g>
<!-- Node1&#45;&gt;Node12 -->
<g id="edge21_Node000001_Node000012" class="edge">
<title>Node1&#45;&gt;Node12</title>
<g id="a_edge21_Node000001_Node000012"><a xlink:title=" ">
<path fill="none" stroke="#63b8ff" d="M829.78,-390.61C949.87,-385.74 1179.26,-373.89 1373,-349 1377.47,-348.43 1382.07,-347.76 1386.69,-347.03"/>
<polygon fill="#63b8ff" stroke="#63b8ff" points="829.41,-387.12 819.56,-391.02 829.69,-394.12 829.41,-387.12"/>
</a>
</g>
</g>
<!-- Node13 -->
<g id="Node000013" class="node">
<title>Node13</title>
<g id="a_Node000013"><a xlink:href="order_8hpp.html" target="_top" xlink:title=" ">
<polygon fill="white" stroke="#666666" points="1064,-283 942,-283 942,-253 1064,-253 1064,-283"/>
<text text-anchor="start" x="950" y="-271" font-family="Helvetica,sans-Serif" font-size="10.00">slick/orderbook/detail</text>
<text text-anchor="middle" x="1003" y="-260" font-family="Helvetica,sans-Serif" font-size="10.00">/order.hpp</text>
</a>
</g>
</g>
<!-- Node1&#45;&gt;Node13 -->
<g id="edge23_Node000001_Node000013" class="edge">
<title>Node1&#45;&gt;Node13</title>
<g id="a_edge23_Node000001_Node000013"><a xlink:title=" ">
<path fill="none" stroke="#63b8ff" d="M829.67,-383.5C861.94,-377.02 898.26,-366.4 928,-349 956.59,-332.27 980.96,-301.33 993.65,-283.22"/>
<polygon fill="#63b8ff" stroke="#63b8ff" points="828.96,-380.07 819.79,-385.38 830.27,-386.95 828.96,-380.07"/>
</a>
</g>
</g>
<!-- Node14 -->
<g id="Node000014" class="node">
<title>Node14</title>
<g id="a_Node000014"><a xlink:href="order__map_8hpp.html" target="_top" xlink:title=" ">
<polygon fill="white" stroke="#666666" points="1153,-217 1031,-217 1031,-187 1153,-187 1153,-217"/>
<text text-anchor="start" x="1039" y="-205" font-family="Helvetica,sans-Serif" font-size="10.00">slick/orderbook/detail</text>
<text text-anchor="middle" x="1092" y="-194" font-family="Helvetica,sans-Serif" font-size="10.00">/order_map.hpp</text>
</a>
</g>
</g>
<!-- Node1&#45;&gt;Node14 -->
<g id="edge28_Node000001_Node000014" class="edge">
<title>Node1&#45;&gt;Node14</title>
<g id="a_edge28_Node000001_Node000014"><a xlink:title=" ">
<path fill="none" stroke="#63b8ff" d="M824.36,-383.32C865.28,-376.44 915.85,-365.53 959,-349 1013.67,-328.06 1038.06,-329.97 1073,-283 1087.57,-263.41 1091.15,-234.3 1091.93,-217.12"/>
<polygon fill="#63b8ff" stroke="#63b8ff" points="823.75,-379.88 814.44,-384.95 824.88,-386.79 823.75,-379.88"/>
</a>
</g>
</g>
<!-- Node15 -->
<g id="Node000015" class="node">
<title>Node15</title>
<g id="a_Node000015"><a xlink:href="price__level__l2_8hpp.html" target="_top" xlink:title=" ">
<polygon fill="white" stroke="#666666" points="569,-283 447,-283 447,-253 569,-253 569,-283"/>
<text text-anchor="start" x="455" y="-271" font-family="Helvetica,sans-Serif" font-size="10.00">slick/orderbook/detail</text>
<text text-anchor="middle" x="508" y="-260" font-family="Helvetica,sans-Serif" font-size="10.00">/price_level_l2.hpp</text>
</a>
</g>
</g>
<!-- Node1&#45;&gt;Node15 -->
<g id="edge29_Node000001_Node000015" class="edge">
<title>Node1&#45;&gt;Node15</title>
<g id="a_edge29_Node000001_Node000015"><a xlink:title=" ">
<path fill="none" stroke="#63b8ff" d="M674.64,-382.83C644.76,-376.21 610.71,-365.66 583,-349 554.61,-331.93 530.16,-301.11 517.42,-283.11"/>
<polygon fill="#63b8ff" stroke="#63b8ff" points="674.09,-386.29 684.59,-384.93 675.53,-379.44 674.09,-386.29"/>
</a>
</g>
</g>
<!-- Node16 -->
<g id="Node000016" class="node">
<title>Node16</title>
<g id="a_Node000016"><a xlink:href="events_8hpp.html" target="_top" xlink:title=" ">
<polygon fill="white" stroke="#666666" points="428.5,-277.5 279.5,-277.5 279.5,-258.5 428.5,-258.5 428.5,-277.5"/>
<text text-anchor="middle" x="354" y="-265.5" font-family="Helvetica,sans-Serif" font-size="10.00">slick/orderbook/events.hpp</text>
</a>
</g>
</g>
<!-- Node1&#45;&gt;Node16 -->
<g id="edge34_Node000001_Node000016" class="edge">
<title>Node1&#45;&gt;Node16</title>
<g id="a_edge34_Node000001_Node000016"><a xlink:title=" ">
<path fill="none" stroke="#63b8ff" d="M685.81,-383.11C645.12,-375.46 590.76,-363.83 544,-349 478.5,-328.22 404.37,-293.61 371.41,-277.6"/>
<polygon fill="#63b8ff" stroke="#63b8ff" points="685.38,-386.59 695.85,-384.97 686.65,-379.71 685.38,-386.59"/>
</a>
</g>
</g>
<!-- Node17 -->
<g id="Node000017" class="node">
<title>Node17</title>
<g id="a_Node000017"><a xlink:href="types_8hpp.html" target="_top" xlink:title=" ">
<polygon fill="white" stroke="#666666" points="768.5,-343.5 625.5,-343.5 625.5,-324.5 768.5,-324.5 768.5,-343.5"/>
<text text-anchor="middle" x="697" y="-331.5" font-family="Helvetica,sans-Serif" font-size="10.00">slick/orderbook/types.hpp</text>
</a>
</g>
</g>
<!-- Node1&#45;&gt;Node17 -->
<g id="edge44_Node000001_Node000017" class="edge">
<title>Node1&#45;&gt;Node17</title>
<g id="a_edge44_Node000001_Node000017"><a xlink:title=" ">
<path fill="none" stroke="#63b8ff" d="M732.86,-376.95C723.6,-366.12 711.88,-352.41 704.41,-343.67"/>
<polygon fill="#63b8ff" stroke="#63b8ff" points="730.46,-379.54 739.62,-384.87 735.79,-374.99 730.46,-379.54"/>
</a>
</g>
</g>
<!-- Node2&#45;&gt;Node3 -->
<g id="edge2_Node000002_Node000003" class="edge">
<title>Node2&#45;&gt;Node3</title>
<g id="a_edge2_Node000002_Node000003"><a xlink:title=" ">
<path fill="none" stroke="#63b8ff" d="M158.56,-250.62C168.76,-238.31 182.35,-221.89 190.63,-211.91"/>
<polygon fill="#63b8ff" stroke="#63b8ff" points="155.83,-248.43 152.15,-258.37 161.22,-252.9 155.83,-248.43"/>
</a>
</g>
</g>
<!-- Node2&#45;&gt;Node4 -->
<g id="edge11_Node000002_Node000004" class="edge">
<title>Node2&#45;&gt;Node4</title>
<g id="a_edge11_Node000002_Node000004"><a xlink:title=" ">
<path fill="none" stroke="#63b8ff" d="M129.27,-250.51C115.8,-234.28 100.04,-208.85 110,-187 153.07,-92.56 276.08,-38.62 329.6,-19.03"/>
<polygon fill="#63b8ff" stroke="#63b8ff" points="126.71,-252.9 135.96,-258.08 131.96,-248.27 126.71,-252.9"/>
</a>
</g>
</g>
<!-- Node3&#45;&gt;Node4 -->
<g id="edge3_Node000003_Node000004" class="edge">
<title>Node3&#45;&gt;Node4</title>
<g id="a_edge3_Node000003_Node000004"><a xlink:title=" ">
<path fill="none" stroke="#63b8ff" d="M206.55,-182.91C220.99,-153.65 252.44,-95.15 291,-55 305.34,-40.07 325.4,-27.09 339.22,-19.06"/>
<polygon fill="#63b8ff" stroke="#63b8ff" points="203.22,-181.76 202.02,-192.28 209.52,-184.8 203.22,-181.76"/>
</a>
</g>
</g>
<!-- Node3&#45;&gt;Node5 -->
<g id="edge4_Node000003_Node000005" class="edge">
<title>Node3&#45;&gt;Node5</title>
<g id="a_edge4_Node000003_Node000005"><a xlink:title=" ">
<path fill="none" stroke="#63b8ff" d="M236.51,-189.48C272.48,-178.73 326.26,-162.64 364.8,-151.12"/>
<polygon fill="#63b8ff" stroke="#63b8ff" points="235.44,-186.15 226.86,-192.37 237.44,-192.86 235.44,-186.15"/>
</a>
</g>
</g>
<!-- Node3&#45;&gt;Node7 -->
<g id="edge8_Node000003_Node000007" class="edge">
<title>Node3&#45;&gt;Node7</title>
<g id="a_edge8_Node000003_Node000007"><a xlink:title=" ">
<path fill="none" stroke="#63b8ff" d="M287.53,-193.53C441.23,-180.7 752.29,-154.75 892.99,-143.01"/>
<polygon fill="#63b8ff" stroke="#63b8ff" points="286.87,-190.07 277.19,-194.39 287.45,-197.05 286.87,-190.07"/>
</a>
</g>
</g>
<!-- Node5&#45;&gt;Node4 -->
<g id="edge5_Node000005_Node000004" class="edge">
<title>Node5&#45;&gt;Node4</title>
<g id="a_edge5_Node000005_Node000004"><a xlink:title=" ">
<path fill="none" stroke="#63b8ff" d="M401.28,-111.6C388.44,-83.53 367.55,-37.92 358.92,-19.07"/>
<polygon fill="#63b8ff" stroke="#63b8ff" points="398.12,-113.08 405.46,-120.72 404.48,-110.17 398.12,-113.08"/>
</a>
</g>
</g>
<!-- Node5&#45;&gt;Node6 -->
<g id="edge6_Node000005_Node000006" class="edge">
<title>Node5&#45;&gt;Node6</title>
<g id="a_edge6_Node000005_Node000006"><a xlink:title=" ">
<path fill="none" stroke="#63b8ff" d="M494.21,-121.81C566.29,-110.25 670.06,-93.61 738.95,-82.56"/>
<polygon fill="#63b8ff" stroke="#63b8ff" points="493.58,-118.37 484.26,-123.41 494.68,-125.28 493.58,-118.37"/>
</a>
</g>
</g>
<!-- Node6&#45;&gt;Node4 -->
<g id="edge7_Node000006_Node000004" class="edge">
<title>Node6&#45;&gt;Node4</title>
<g id="a_edge7_Node000006_Node000004"><a xlink:title=" ">
<path fill="none" stroke="#63b8ff" d="M728.82,-55.55C727.54,-55.36 726.26,-55.18 725,-55 624.74,-40.82 508.79,-27.34 433.8,-19.01"/>
<polygon fill="#63b8ff" stroke="#63b8ff" points="728.37,-59.02 738.77,-57.02 729.39,-52.09 728.37,-59.02"/>
</a>
</g>
</g>
<!-- Node7&#45;&gt;Node4 -->
<g id="edge9_Node000007_Node000004" class="edge">
<title>Node7&#45;&gt;Node4</title>
<g id="a_edge9_Node000007_Node000004"><a xlink:title=" ">
<path fill="none" stroke="#63b8ff" d="M951.15,-112.08C938.37,-93.19 917.52,-67.55 892,-55 814.24,-16.77 567.82,-10.57 437.56,-10.06"/>
<polygon fill="#63b8ff" stroke="#63b8ff" points="948.39,-114.24 956.77,-120.72 954.26,-110.43 948.39,-114.24"/>
</a>
</g>
</g>
<!-- Node7&#45;&gt;Node6 -->
<g id="edge10_Node000007_Node000006" class="edge">
<title>Node7&#45;&gt;Node6</title>
<g id="a_edge10_Node000007_Node000006"><a xlink:title=" ">
<path fill="none" stroke="#63b8ff" d="M921.82,-117.05C897.42,-106.91 867.37,-94.43 844.72,-85.01"/>
<polygon fill="#63b8ff" stroke="#63b8ff" points="920.63,-120.35 931.2,-120.95 923.31,-113.89 920.63,-120.35"/>
</a>
</g>
</g>
<!-- Node8&#45;&gt;Node6 -->
<g id="edge14_Node000008_Node000006" class="edge">
<title>Node8&#45;&gt;Node6</title>
<g id="a_edge14_Node000008_Node000006"><a xlink:title=" ">
<path fill="none" stroke="#63b8ff" d="M864.37,-177.75C850.92,-150.84 829.2,-107.4 818.07,-85.14"/>
<polygon fill="#63b8ff" stroke="#63b8ff" points="861.32,-179.46 868.92,-186.84 867.58,-176.33 861.32,-179.46"/>
</a>
</g>
</g>
<!-- Node8&#45;&gt;Node7 -->
<g id="edge13_Node000008_Node000007" class="edge">
<title>Node8&#45;&gt;Node7</title>
<g id="a_edge13_Node000008_Node000007"><a xlink:title=" ">
<path fill="none" stroke="#63b8ff" d="M904.16,-180.75C917.54,-171.13 933.22,-159.86 945.3,-151.16"/>
<polygon fill="#63b8ff" stroke="#63b8ff" points="901.83,-178.12 895.75,-186.8 905.91,-183.8 901.83,-178.12"/>
</a>
</g>
</g>
<!-- Node9&#45;&gt;Node7 -->
<g id="edge18_Node000009_Node000007" class="edge">
<title>Node9&#45;&gt;Node7</title>
<g id="a_edge18_Node000009_Node000007"><a xlink:title=" ">
<path fill="none" stroke="#63b8ff" d="M1282.23,-246.09C1299.78,-229.05 1317.48,-204.95 1302,-187 1268.53,-148.2 1126.02,-139.02 1037.38,-137.13"/>
<polygon fill="#63b8ff" stroke="#63b8ff" points="1279.8,-243.58 1274.81,-252.93 1284.54,-248.72 1279.8,-243.58"/>
</a>
</g>
</g>
<!-- Node9&#45;&gt;Node10 -->
<g id="edge16_Node000009_Node000010" class="edge">
<title>Node9&#45;&gt;Node10</title>
<g id="a_edge16_Node000009_Node000010"><a xlink:title=" ">
<path fill="none" stroke="#63b8ff" d="M1247.78,-243.39C1244.34,-234.59 1240.54,-224.86 1237.53,-217.16"/>
<polygon fill="#63b8ff" stroke="#63b8ff" points="1244.55,-244.76 1251.45,-252.8 1251.07,-242.21 1244.55,-244.76"/>
</a>
</g>
</g>
<!-- Node10&#45;&gt;Node7 -->
<g id="edge17_Node000010_Node000007" class="edge">
<title>Node10&#45;&gt;Node7</title>
<g id="a_edge17_Node000010_Node000007"><a xlink:title=" ">
<path fill="none" stroke="#63b8ff" d="M1163.51,-184.58C1120.17,-174.19 1064.73,-160.9 1023.46,-151.01"/>
<polygon fill="#63b8ff" stroke="#63b8ff" points="1162.87,-188.03 1173.41,-186.95 1164.5,-181.22 1162.87,-188.03"/>
</a>
</g>
</g>
<!-- Node11&#45;&gt;Node5 -->
<g id="edge20_Node000011_Node000005" class="edge">
<title>Node11&#45;&gt;Node5</title>
<g id="a_edge20_Node000011_Node000005"><a xlink:title=" ">
<path fill="none" stroke="#63b8ff" d="M536.85,-183.46C509.41,-173.25 475.29,-160.55 449.66,-151.01"/>
<polygon fill="#63b8ff" stroke="#63b8ff" points="535.66,-186.75 546.25,-186.95 538.1,-180.19 535.66,-186.75"/>
</a>
</g>
</g>
<!-- Node12&#45;&gt;Node7 -->
<g id="edge22_Node000012_Node000007" class="edge">
<title>Node12&#45;&gt;Node7</title>
<g id="a_edge22_Node000012_Node000007"><a xlink:title=" ">
<path fill="none" stroke="#63b8ff" d="M1443.03,-309.05C1434.76,-275.71 1414.76,-216.13 1373,-187 1320.25,-150.2 1139.51,-140.44 1037.17,-137.88"/>
<polygon fill="#63b8ff" stroke="#63b8ff" points="1439.65,-309.94 1445.32,-318.88 1446.46,-308.35 1439.65,-309.94"/>
</a>
</g>
</g>
<!-- Node13&#45;&gt;Node7 -->
<g id="edge27_Node000013_Node000007" class="edge">
<title>Node13&#45;&gt;Node7</title>
<g id="a_edge27_Node000013_Node000007"><a xlink:title=" ">
<path fill="none" stroke="#63b8ff" d="M995.99,-243.04C988.12,-216.08 975.58,-173.21 969.13,-151.14"/>
<polygon fill="#63b8ff" stroke="#63b8ff" points="992.7,-244.22 998.86,-252.84 999.41,-242.26 992.7,-244.22"/>
</a>
</g>
</g>
<!-- Node13&#45;&gt;Node10 -->
<g id="edge26_Node000013_Node000010" class="edge">
<title>Node13&#45;&gt;Node10</title>
<g id="a_edge26_Node000013_Node000010"><a xlink:title=" ">
<path fill="none" stroke="#63b8ff" d="M1062.92,-250.25C1099.92,-239.91 1146.84,-226.8 1181.86,-217.01"/>
<polygon fill="#63b8ff" stroke="#63b8ff" points="1061.94,-246.89 1053.26,-252.95 1063.83,-253.63 1061.94,-246.89"/>
</a>
</g>
</g>
<!-- Node13&#45;&gt;Node14 -->
<g id="edge24_Node000013_Node000014" class="edge">
<title>Node13&#45;&gt;Node14</title>
<g id="a_edge24_Node000013_Node000014"><a xlink:title=" ">
<path fill="none" stroke="#63b8ff" d="M1031.16,-246.75C1044.54,-237.13 1060.22,-225.86 1072.3,-217.16"/>
<polygon fill="#63b8ff" stroke="#63b8ff" points="1028.83,-244.12 1022.75,-252.8 1032.91,-249.8 1028.83,-244.12"/>
</a>
</g>
</g>
<!-- Node14&#45;&gt;Node7 -->
<g id="edge25_Node000014_Node000007" class="edge">
<title>Node14&#45;&gt;Node7</title>
<g id="a_edge25_Node000014_Node000007"><a xlink:title=" ">
<path fill="none" stroke="#63b8ff" d="M1055.05,-182.38C1035.17,-172.36 1011.07,-160.22 992.81,-151.01"/>
<polygon fill="#63b8ff" stroke="#63b8ff" points="1053.62,-185.58 1064.13,-186.95 1056.77,-179.33 1053.62,-185.58"/>
</a>
</g>
</g>
<!-- Node15&#45;&gt;Node5 -->
<g id="edge31_Node000015_Node000005" class="edge">
<title>Node15&#45;&gt;Node5</title>
<g id="a_edge31_Node000015_Node000005"><a xlink:title=" ">
<path fill="none" stroke="#63b8ff" d="M491.35,-244.45C471.53,-217.61 439.03,-173.6 422.44,-151.14"/>
<polygon fill="#63b8ff" stroke="#63b8ff" points="488.79,-246.88 497.54,-252.84 494.42,-242.72 488.79,-246.88"/>
</a>
</g>
</g>
<!-- Node15&#45;&gt;Node7 -->
<g id="edge32_Node000015_Node000007" class="edge">
<title>Node15&#45;&gt;Node7</title>
<g id="a_edge32_Node000015_Node000007"><a xlink:title=" ">
<path fill="none" stroke="#63b8ff" d="M502.44,-242.73C499.92,-224.92 500.08,-201.43 514,-187 539.78,-160.29 772.12,-145.8 892.85,-140.02"/>
<polygon fill="#63b8ff" stroke="#63b8ff" points="499.01,-243.46 504.21,-252.69 505.91,-242.23 499.01,-243.46"/>
</a>
</g>
</g>
<!-- Node15&#45;&gt;Node11 -->
<g id="edge30_Node000015_Node000011" class="edge">
<title>Node15&#45;&gt;Node11</title>
<g id="a_edge30_Node000015_Node000011"><a xlink:title=" ">
<path fill="none" stroke="#63b8ff" d="M532.7,-246.2C543.98,-236.7 557.05,-225.69 567.18,-217.16"/>
<polygon fill="#63b8ff" stroke="#63b8ff" points="530.26,-243.68 524.87,-252.8 534.77,-249.03 530.26,-243.68"/>
</a>
</g>
</g>
<!-- Node16&#45;&gt;Node3 -->
<g id="edge35_Node000016_Node000003" class="edge">
<title>Node16&#45;&gt;Node3</title>
<g id="a_edge35_Node000016_Node000003"><a xlink:title=" ">
<path fill="none" stroke="#63b8ff" d="M323.56,-254.51C292.72,-241.86 245.85,-222.63 218.95,-211.6"/>
<polygon fill="#63b8ff" stroke="#63b8ff" points="322.38,-257.81 332.96,-258.37 325.04,-251.33 322.38,-257.81"/>
</a>
</g>
</g>
<!-- Node16&#45;&gt;Node4 -->
<g id="edge36_Node000016_Node000004" class="edge">
<title>Node16&#45;&gt;Node4</title>
<g id="a_edge36_Node000016_Node000004"><a xlink:title=" ">
<path fill="none" stroke="#63b8ff" d="M347.97,-248.66C339.6,-221.07 326.04,-167.19 331,-121 335.13,-82.55 347.11,-37.84 352.42,-19.28"/>
<polygon fill="#63b8ff" stroke="#63b8ff" points="344.72,-250 351.06,-258.48 351.39,-247.89 344.72,-250"/>
</a>
</g>
</g>
<!-- Node16&#45;&gt;Node5 -->
<g id="edge37_Node000016_Node000005" class="edge">
<title>Node16&#45;&gt;Node5</title>
<g id="a_edge37_Node000016_Node000005"><a xlink:title=" ">
<path fill="none" stroke="#63b8ff" d="M362.02,-249.02C373.69,-222.86 395.13,-174.82 405.72,-151.07"/>
<polygon fill="#63b8ff" stroke="#63b8ff" points="358.68,-247.91 357.81,-258.47 365.08,-250.76 358.68,-247.91"/>
</a>
</g>
</g>
<!-- Node16&#45;&gt;Node7 -->
<g id="edge38_Node000016_Node000007" class="edge">
<title>Node16&#45;&gt;Node7</title>
<g id="a_edge38_Node000016_Node000007"><a xlink:title=" ">
<path fill="none" stroke="#63b8ff" d="M373.9,-252.4C400.48,-233.74 449.72,-202.05 497,-187 568.83,-164.13 780.21,-148.25 892.68,-141.17"/>
<polygon fill="#63b8ff" stroke="#63b8ff" points="371.59,-249.75 365.48,-258.4 375.66,-255.44 371.59,-249.75"/>
</a>
</g>
</g>
<!-- Node17&#45;&gt;Node2 -->
<g id="edge45_Node000017_Node000002" class="edge">
<title>Node17&#45;&gt;Node2</title>
<g id="a_edge45_Node000017_Node000002"><a xlink:title=" ">
<path fill="none" stroke="#63b8ff" d="M615.28,-323.53C508.12,-311.1 321.68,-289.48 218.67,-277.54"/>
<polygon fill="#63b8ff" stroke="#63b8ff" points="615.06,-327.02 625.4,-324.7 615.87,-320.07 615.06,-327.02"/>
</a>
</g>
</g>
<!-- Node17&#45;&gt;Node4 -->
<g id="edge52_Node000017_Node000004" class="edge">
<title>Node17&#45;&gt;Node4</title>
<g id="a_edge52_Node000017_Node000004"><a xlink:title=" ">
<path fill="none" stroke="#63b8ff" d="M700.31,-314.2C704.44,-288.98 711,-242.76 711,-203 711,-203 711,-203 711,-135 711,-73.29 517.98,-34.96 416.2,-19.03"/>
<polygon fill="#63b8ff" stroke="#63b8ff" points="696.83,-313.76 698.61,-324.21 703.73,-314.94 696.83,-313.76"/>
</a>
</g>
</g>
<!-- Node17&#45;&gt;Node5 -->
<g id="edge53_Node000017_Node000005" class="edge">
<title>Node17&#45;&gt;Node5</title>
<g id="a_edge53_Node000017_Node000005"><a xlink:title=" ">
<path fill="none" stroke="#63b8ff" d="M697.23,-313.79C696.49,-282.42 690.2,-220.32 654,-187 629.58,-164.52 546.25,-150.95 484.16,-143.73"/>
<polygon fill="#63b8ff" stroke="#63b8ff" points="693.73,-314.21 697.29,-324.19 700.73,-314.17 693.73,-314.21"/>
</a>
</g>
</g>
<!-- Node17&#45;&gt;Node6 -->
<g id="edge55_Node000017_Node000006" class="edge">
<title>Node17&#45;&gt;Node6</title>
<g id="a_edge55_Node000017_Node000006"><a xlink:title=" ">
<path fill="none" stroke="#63b8ff" d="M707.94,-315.71C713.57,-306.3 720.23,-294.29 725,-283 754.19,-213.81 739.06,-187.99 773,-121 779.6,-107.97 789.71,-94.88 797.83,-85.36"/>
<polygon fill="#63b8ff" stroke="#63b8ff" points="704.82,-314.1 702.57,-324.45 710.79,-317.76 704.82,-314.1"/>
</a>
</g>
</g>
<!-- Node17&#45;&gt;Node7 -->
<g id="edge54_Node000017_Node000007" class="edge">
<title>Node17&#45;&gt;Node7</title>
<g id="a_edge54_Node000017_Node000007"><a xlink:title=" ">
<path fill="none" stroke="#63b8ff" d="M721.05,-319.53C751.18,-302.9 804.62,-274.22 852,-253 892.83,-234.71 916.53,-250.66 946,-217 962.17,-198.53 965.19,-168.76 965.43,-151.22"/>
<polygon fill="#63b8ff" stroke="#63b8ff" points="719.17,-316.57 712.12,-324.48 722.57,-322.69 719.17,-316.57"/>
</a>
</g>
</g>
<!-- Node17&#45;&gt;Node10 -->
<g id="edge50_Node000017_Node000010" class="edge">
<title>Node17&#45;&gt;Node10</title>
<g id="a_edge50_Node000017_Node000010"><a xlink:title=" ">
<path fill="none" stroke="#63b8ff" d="M779.01,-329.95C856.33,-325.26 974.69,-313.32 1073,-283 1124.82,-267.02 1180.32,-235.35 1210.09,-217.01"/>
<polygon fill="#63b8ff" stroke="#63b8ff" points="778.63,-326.47 768.85,-330.54 779.04,-333.46 778.63,-326.47"/>
</a>
</g>
</g>
<!-- Node17&#45;&gt;Node11 -->
<g id="edge46_Node000017_Node000011" class="edge">
<title>Node17&#45;&gt;Node11</title>
<g id="a_edge46_Node000017_Node000011"><a xlink:title=" ">
<path fill="none" stroke="#63b8ff" d="M682.86,-316.73C660.5,-291 617.34,-241.35 596.23,-217.07"/>
<polygon fill="#63b8ff" stroke="#63b8ff" points="680.38,-319.22 689.59,-324.47 685.67,-314.63 680.38,-319.22"/>
</a>
</g>
</g>
<!-- Node17&#45;&gt;Node13 -->
<g id="edge47_Node000017_Node000013" class="edge">
<title>Node17&#45;&gt;Node13</title>
<g id="a_edge47_Node000017_Node000013"><a xlink:title=" ">
<path fill="none" stroke="#63b8ff" d="M747.87,-322.36C801.23,-311.2 885.09,-293.66 941.97,-281.76"/>
<polygon fill="#63b8ff" stroke="#63b8ff" points="747.02,-318.96 737.95,-324.44 748.46,-325.81 747.02,-318.96"/>
</a>
</g>
</g>
<!-- Node17&#45;&gt;Node14 -->
<g id="edge48_Node000017_Node000014" class="edge">
<title>Node17&#45;&gt;Node14</title>
<g id="a_edge48_Node000017_Node000014"><a xlink:title=" ">
<path fill="none" stroke="#63b8ff" d="M734.52,-321.39C766,-311.53 812.1,-296.82 852,-283 888.28,-270.44 896.68,-265.43 933,-253 970.51,-240.17 1013.41,-226.75 1045.19,-217.05"/>
<polygon fill="#63b8ff" stroke="#63b8ff" points="733.34,-318.09 724.84,-324.41 735.43,-324.77 733.34,-318.09"/>
</a>
</g>
</g>
<!-- Node17&#45;&gt;Node15 -->
<g id="edge49_Node000017_Node000015" class="edge">
<title>Node17&#45;&gt;Node15</title>
<g id="a_edge49_Node000017_Node000015"><a xlink:title=" ">
<path fill="none" stroke="#63b8ff" d="M661.76,-321.07C630.01,-310.31 583.29,-294.49 549.69,-283.12"/>
<polygon fill="#63b8ff" stroke="#63b8ff" points="660.92,-324.48 671.51,-324.37 663.16,-317.85 660.92,-324.48"/>
</a>
</g>
</g>
<!-- Node17&#45;&gt;Node16 -->
<g id="edge51_Node000017_Node000016" class="edge">
<title>Node17&#45;&gt;Node16</title>
<g id="a_edge51_Node000017_Node000016"><a xlink:title=" ">
<path fill="none" stroke="#63b8ff" d="M641.09,-322.57C573.77,-310.01 462,-289.15 399.63,-277.51"/>
<polygon fill="#63b8ff" stroke="#63b8ff" points="640.63,-326.04 651.1,-324.44 641.91,-319.16 640.63,-326.04"/>
</a>
</g>
</g>
</g>
</svg>
