<?xml version="1.0" encoding="UTF-8" standalone="no"?>
<!DOCTYPE svg PUBLIC "-//W3C//DTD SVG 1.1//EN"
 "http://www.w3.org/Graphics/SVG/1.1/DTD/svg11.dtd">
<!-- Generated by graphviz version 2.43.0 (0)
 -->
<!-- Title: slick/orderbook/events.hpp Pages: 1 -->
<svg width="387pt" height="269pt"
 viewBox="0.00 0.00 386.75 269.00" xmlns="http://www.w3.org/2000/svg" xmlns:xlink="http://www.w3.org/1999/xlink">
<g id="graph0" class="graph" transform="scale(1 1) rotate(0) translate(4 265)">
<title>slick/orderbook/events.hpp</title>
<!-- Node1 -->
<g id="Node000001" class="node">
<title>Node1</title>
<g id="a_Node000001"><a xlink:title=" ">
<polygon fill="#999999" stroke="#666666" points="256.25,-261 107.25,-261 107.25,-242 256.25,-242 256.25,-261"/>
<text text-anchor="middle" x="181.75" y="-249" font-family="Helvetica,sans-Serif" font-size="10.00">slick/orderbook/events.hpp</text>
</a>
</g>
</g>
<!-- Node2 -->
<g id="Node000002" class="node">
<title>Node2</title>
<g id="a_Node000002"><a xlink:href="observer_8hpp.html" target="_top" xlink:title=" ">
<polygon fill="white" stroke="#666666" points="207.75,-206 49.75,-206 49.75,-187 207.75,-187 207.75,-206"/>
<text text-anchor="middle" x="128.75" y="-194" font-family="Helvetica,sans-Serif" font-size="10.00">slick/orderbook/observer.hpp</text>
</a>
</g>
</g>
<!-- Node1&#45;&gt;Node2 -->
<g id="edge1_Node000001_Node000002" class="edge">
<title>Node1&#45;&gt;Node2</title>
<g id="a_edge1_Node000001_Node000002"><a xlink:title=" ">
<path fill="none" stroke="#63b8ff" d="M165.77,-234.52C156.43,-225.18 145.01,-213.75 137.34,-206.09"/>
<polygon fill="#63b8ff" stroke="#63b8ff" points="163.45,-237.15 173,-241.75 168.4,-232.2 163.45,-237.15"/>
</a>
</g>
</g>
<!-- Node3 -->
<g id="Node000003" class="node">
<title>Node3</title>
<g id="a_Node000003"><a xlink:href="orderbook_8hpp.html" target="_top" xlink:title=" ">
<polygon fill="white" stroke="#666666" points="177.25,-19 12.25,-19 12.25,0 177.25,0 177.25,-19"/>
<text text-anchor="middle" x="94.75" y="-7" font-family="Helvetica,sans-Serif" font-size="10.00">slick/orderbook/orderbook.hpp</text>
</a>
</g>
</g>
<!-- Node1&#45;&gt;Node3 -->
<g id="edge10_Node000001_Node000003" class="edge">
<title>Node1&#45;&gt;Node3</title>
<g id="a_edge10_Node000001_Node000003"><a xlink:title=" ">
<path fill="none" stroke="#63b8ff" d="M97.48,-241.98C75.55,-235.49 54.3,-224.49 40.75,-206 22.88,-181.62 -48.24,-290.14 55.75,-55 62.15,-40.53 74.96,-27.37 84.16,-19.17"/>
<polygon fill="#63b8ff" stroke="#63b8ff" points="96.68,-245.39 107.24,-244.58 98.48,-238.62 96.68,-245.39"/>
</a>
</g>
</g>
<!-- Node4 -->
<g id="Node000004" class="node">
<title>Node4</title>
<g id="a_Node000004"><a xlink:href="orderbook__l2_8hpp.html" target="_top" xlink:title=" ">
<polygon fill="white" stroke="#666666" points="216.75,-151 72.75,-151 72.75,-121 216.75,-121 216.75,-151"/>
<text text-anchor="start" x="80.75" y="-139" font-family="Helvetica,sans-Serif" font-size="10.00">slick/orderbook/orderbook</text>
<text text-anchor="middle" x="144.75" y="-128" font-family="Helvetica,sans-Serif" font-size="10.00">_l2.hpp</text>
</a>
</g>
</g>
<!-- Node1&#45;&gt;Node4 -->
<g id="edge11_Node000001_Node000004" class="edge">
<title>Node1&#45;&gt;Node4</title>
<g id="a_edge11_Node000001_Node000004"><a xlink:title=" ">
<path fill="none" stroke="#63b8ff" d="M199.95,-234.79C212.44,-222 225.35,-203.44 216.75,-187 208.43,-171.09 192.48,-159.22 177.71,-151.05"/>
<polygon fill="#63b8ff" stroke="#63b8ff" points="197.26,-232.52 192.41,-241.94 202.08,-237.59 197.26,-232.52"/>
</a>
</g>
</g>
<!-- Node6 -->
<g id="Node000006" class="node">
<title>Node6</title>
<g id="a_Node000006"><a xlink:href="orderbook__l3_8hpp.html" target="_top" xlink:title=" ">
<polygon fill="white" stroke="#666666" points="378.75,-151 234.75,-151 234.75,-121 378.75,-121 378.75,-151"/>
<text text-anchor="start" x="242.75" y="-139" font-family="Helvetica,sans-Serif" font-size="10.00">slick/orderbook/orderbook</text>
<text text-anchor="middle" x="306.75" y="-128" font-family="Helvetica,sans-Serif" font-size="10.00">_l3.hpp</text>
</a>
</g>
</g>
<!-- Node1&#45;&gt;Node6 -->
<g id="edge12_Node000001_Node000006" class="edge">
<title>Node1&#45;&gt;Node6</title>
<g id="a_edge12_Node000001_Node000006"><a xlink:title=" ">
<path fill="none" stroke="#63b8ff" d="M199.58,-235.2C209.43,-226.68 221.85,-215.84 232.75,-206 253.49,-187.29 277.01,-165.21 291.86,-151.15"/>
<polygon fill="#63b8ff" stroke="#63b8ff" points="197.29,-232.55 192,-241.73 201.86,-237.85 197.29,-232.55"/>
</a>
</g>
</g>
<!-- Node2&#45;&gt;Node3 -->
<g id="edge2_Node000002_Node000003" class="edge">
<title>Node2&#45;&gt;Node3</title>
<g id="a_edge2_Node000002_Node000003"><a xlink:title=" ">
<path fill="none" stroke="#63b8ff" d="M97.47,-182.24C84.58,-175.03 70.99,-164.73 63.75,-151 39.75,-105.48 74.45,-42.24 88.92,-19.28"/>
<polygon fill="#63b8ff" stroke="#63b8ff" points="96.14,-185.49 106.63,-186.95 99.34,-179.27 96.14,-185.49"/>
</a>
</g>
</g>
<!-- Node2&#45;&gt;Node4 -->
<g id="edge3_Node000002_Node000004" class="edge">
<title>Node2&#45;&gt;Node4</title>
<g id="a_edge3_Node000002_Node000004"><a xlink:title=" ">
<path fill="none" stroke="#63b8ff" d="M133.75,-177.22C136.06,-168.79 138.75,-158.95 140.89,-151.11"/>
<polygon fill="#63b8ff" stroke="#63b8ff" points="130.37,-176.3 131.11,-186.87 137.13,-178.15 130.37,-176.3"/>
</a>
</g>
</g>
<!-- Node2&#45;&gt;Node6 -->
<g id="edge7_Node000002_Node000006" class="edge">
<title>Node2&#45;&gt;Node6</title>
<g id="a_edge7_Node000002_Node000006"><a xlink:title=" ">
<path fill="none" stroke="#63b8ff" d="M164.26,-183.83C192.96,-174.4 233.47,-161.09 263.96,-151.06"/>
<polygon fill="#63b8ff" stroke="#63b8ff" points="163.04,-180.55 154.63,-186.99 165.23,-187.2 163.04,-180.55"/>
</a>
</g>
</g>
<!-- Node4&#45;&gt;Node3 -->
<g id="edge4_Node000004_Node000003" class="edge">
<title>Node4&#45;&gt;Node3</title>
<g id="a_edge4_Node000004_Node000003"><a xlink:title=" ">
<path fill="none" stroke="#63b8ff" d="M128.68,-112.37C123.34,-104.06 117.75,-94.39 113.75,-85 104.03,-62.16 98.41,-33.18 96.06,-19.04"/>
<polygon fill="#63b8ff" stroke="#63b8ff" points="125.83,-114.39 134.29,-120.77 131.65,-110.51 125.83,-114.39"/>
</a>
</g>
</g>
<!-- Node5 -->
<g id="Node000005" class="node">
<title>Node5</title>
<g id="a_Node000005"><a xlink:href="orderbook__manager_8hpp.html" target="_top" xlink:title=" ">
<polygon fill="white" stroke="#666666" points="266.75,-85 122.75,-85 122.75,-55 266.75,-55 266.75,-85"/>
<text text-anchor="start" x="130.75" y="-73" font-family="Helvetica,sans-Serif" font-size="10.00">slick/orderbook/orderbook</text>
<text text-anchor="middle" x="194.75" y="-62" font-family="Helvetica,sans-Serif" font-size="10.00">_manager.hpp</text>
</a>
</g>
</g>
<!-- Node4&#45;&gt;Node5 -->
<g id="edge5_Node000004_Node000005" class="edge">
<title>Node4&#45;&gt;Node5</title>
<g id="a_edge5_Node000004_Node000005"><a xlink:title=" ">
<path fill="none" stroke="#63b8ff" d="M162.09,-112.81C169.25,-103.64 177.35,-93.28 183.69,-85.16"/>
<polygon fill="#63b8ff" stroke="#63b8ff" points="159.25,-110.76 155.85,-120.8 164.76,-115.07 159.25,-110.76"/>
</a>
</g>
</g>
<!-- Node5&#45;&gt;Node3 -->
<g id="edge6_Node000005_Node000003" class="edge">
<title>Node5&#45;&gt;Node3</title>
<g id="a_edge6_Node000005_Node000003"><a xlink:title=" ">
<path fill="none" stroke="#63b8ff" d="M161.9,-49.78C144.21,-39.43 123.26,-27.18 109.52,-19.14"/>
<polygon fill="#63b8ff" stroke="#63b8ff" points="160.4,-52.96 170.8,-54.99 163.94,-46.92 160.4,-52.96"/>
</a>
</g>
</g>
<!-- Node6&#45;&gt;Node3 -->
<g id="edge8_Node000006_Node000003" class="edge">
<title>Node6&#45;&gt;Node3</title>
<g id="a_edge8_Node000006_Node000003"><a xlink:title=" ">
<path fill="none" stroke="#63b8ff" d="M303.45,-110.88C299.74,-92.96 291.95,-69.24 275.75,-55 248.9,-31.39 211.5,-19.87 177.67,-14.41"/>
<polygon fill="#63b8ff" stroke="#63b8ff" points="300.04,-111.67 305.24,-120.9 306.93,-110.44 300.04,-111.67"/>
</a>
</g>
</g>
<!-- Node6&#45;&gt;Node5 -->
<g id="edge9_Node000006_Node000005" class="edge">
<title>Node6&#45;&gt;Node5</title>
<g id="a_edge9_Node000006_Node000005"><a xlink:title=" ">
<path fill="none" stroke="#63b8ff" d="M273.45,-115.97C256.06,-106.03 235.16,-94.09 219.27,-85.01"/>
<polygon fill="#63b8ff" stroke="#63b8ff" points="271.75,-119.03 282.17,-120.95 275.23,-112.95 271.75,-119.03"/>
</a>
</g>
</g>
</g>
</svg>
