<?xml version="1.0" encoding="UTF-8" standalone="no"?>
<!DOCTYPE svg PUBLIC "-//W3C//DTD SVG 1.1//EN"
 "http://www.w3.org/Graphics/SVG/1.1/DTD/svg11.dtd">
<!-- Generated by graphviz version 2.43.0 (0)
 -->
<!-- Title: slick/orderbook/detail/flat_map.hpp Pages: 1 -->
<svg width="252pt" height="225pt"
 viewBox="0.00 0.00 252.00 225.00" xmlns="http://www.w3.org/2000/svg" xmlns:xlink="http://www.w3.org/1999/xlink">
<g id="graph0" class="graph" transform="scale(1 1) rotate(0) translate(4 221)">
<title>slick/orderbook/detail/flat_map.hpp</title>
<!-- Node1 -->
<g id="Node000001" class="node">
<title>Node1</title>
<g id="a_Node000001"><a xlink:title=" ">
<polygon fill="#999999" stroke="#666666" points="183,-217 61,-217 61,-187 183,-187 183,-217"/>
<text text-anchor="start" x="69" y="-205" font-family="Helvetica,sans-Serif" font-size="10.00">slick/orderbook/detail</text>
<text text-anchor="middle" x="122" y="-194" font-family="Helvetica,sans-Serif" font-size="10.00">/flat_map.hpp</text>
</a>
</g>
</g>
<!-- Node2 -->
<g id="Node000002" class="node">
<title>Node2</title>
<g id="a_Node000002"><a xlink:href="orderbook__l3_8hpp.html" target="_top" xlink:title=" ">
<polygon fill="white" stroke="#666666" points="144,-151 0,-151 0,-121 144,-121 144,-151"/>
<text text-anchor="start" x="8" y="-139" font-family="Helvetica,sans-Serif" font-size="10.00">slick/orderbook/orderbook</text>
<text text-anchor="middle" x="72" y="-128" font-family="Helvetica,sans-Serif" font-size="10.00">_l3.hpp</text>
</a>
</g>
</g>
<!-- Node1&#45;&gt;Node2 -->
<g id="edge1_Node000001_Node000002" class="edge">
<title>Node1&#45;&gt;Node2</title>
<g id="a_edge1_Node000001_Node000002"><a xlink:title=" ">
<path fill="none" stroke="#63b8ff" d="M104.66,-178.81C97.5,-169.64 89.4,-159.28 83.07,-151.16"/>
<polygon fill="#63b8ff" stroke="#63b8ff" points="101.99,-181.07 110.9,-186.8 107.5,-176.76 101.99,-181.07"/>
</a>
</g>
</g>
<!-- Node4 -->
<g id="Node000004" class="node">
<title>Node4</title>
<g id="a_Node000004"><a xlink:href="orderbook__manager_8hpp.html" target="_top" xlink:title=" ">
<polygon fill="white" stroke="#666666" points="244,-85 100,-85 100,-55 244,-55 244,-85"/>
<text text-anchor="start" x="108" y="-73" font-family="Helvetica,sans-Serif" font-size="10.00">slick/orderbook/orderbook</text>
<text text-anchor="middle" x="172" y="-62" font-family="Helvetica,sans-Serif" font-size="10.00">_manager.hpp</text>
</a>
</g>
</g>
<!-- Node1&#45;&gt;Node4 -->
<g id="edge5_Node000001_Node000004" class="edge">
<title>Node1&#45;&gt;Node4</title>
<g id="a_edge5_Node000001_Node000004"><a xlink:title=" ">
<path fill="none" stroke="#63b8ff" d="M138.16,-178.4C143.5,-170.1 149.08,-160.42 153,-151 162.21,-128.86 167.51,-101.32 170.07,-85.01"/>
<polygon fill="#63b8ff" stroke="#63b8ff" points="135.19,-176.54 132.53,-186.8 141.01,-180.44 135.19,-176.54"/>
</a>
</g>
</g>
<!-- Node3 -->
<g id="Node000003" class="node">
<title>Node3</title>
<g id="a_Node000003"><a xlink:href="orderbook_8hpp.html" target="_top" xlink:title=" ">
<polygon fill="white" stroke="#666666" points="204.5,-19 39.5,-19 39.5,0 204.5,0 204.5,-19"/>
<text text-anchor="middle" x="122" y="-7" font-family="Helvetica,sans-Serif" font-size="10.00">slick/orderbook/orderbook.hpp</text>
</a>
</g>
</g>
<!-- Node2&#45;&gt;Node3 -->
<g id="edge2_Node000002_Node000003" class="edge">
<title>Node2&#45;&gt;Node3</title>
<g id="a_edge2_Node000002_Node000003"><a xlink:title=" ">
<path fill="none" stroke="#63b8ff" d="M75.35,-110.6C78.17,-94.35 83.04,-72.79 91,-55 97.08,-41.42 107.46,-27.65 114.52,-19.1"/>
<polygon fill="#63b8ff" stroke="#63b8ff" points="71.83,-110.47 73.72,-120.9 78.74,-111.57 71.83,-110.47"/>
</a>
</g>
</g>
<!-- Node2&#45;&gt;Node4 -->
<g id="edge3_Node000002_Node000004" class="edge">
<title>Node2&#45;&gt;Node4</title>
<g id="a_edge3_Node000002_Node000004"><a xlink:title=" ">
<path fill="none" stroke="#63b8ff" d="M102.78,-115.3C118,-105.56 136.03,-94.02 149.87,-85.16"/>
<polygon fill="#63b8ff" stroke="#63b8ff" points="100.73,-112.46 94.19,-120.8 104.5,-118.35 100.73,-112.46"/>
</a>
</g>
</g>
<!-- Node4&#45;&gt;Node3 -->
<g id="edge4_Node000004_Node000003" class="edge">
<title>Node4&#45;&gt;Node3</title>
<g id="a_edge4_Node000004_Node000003"><a xlink:title=" ">
<path fill="none" stroke="#63b8ff" d="M153.27,-47.09C145.01,-37.42 135.77,-26.61 129.49,-19.27"/>
<polygon fill="#63b8ff" stroke="#63b8ff" points="150.74,-49.51 159.9,-54.84 156.06,-44.96 150.74,-49.51"/>
</a>
</g>
</g>
</g>
</svg>
