<?xml version="1.0" encoding="UTF-8" standalone="no"?>
<!DOCTYPE svg PUBLIC "-//W3C//DTD SVG 1.1//EN"
 "http://www.w3.org/Graphics/SVG/1.1/DTD/svg11.dtd">
<!-- Generated by graphviz version 2.43.0 (0)
 -->
<!-- Title: slick/orderbook/detail/flat_map.hpp Pages: 1 -->
<svg width="281pt" height="148pt"
 viewBox="0.00 0.00 280.50 148.00" xmlns="http://www.w3.org/2000/svg" xmlns:xlink="http://www.w3.org/1999/xlink">

<svg id="main" version="1.1" xmlns="http://www.w3.org/2000/svg" xmlns:xlink="http://www.w3.org/1999/xlink" xml:space="preserve" onload="init(evt)">
<style type="text/css"><![CDATA[
.node, .edge {opacity: 0.7;}
.node.selected, .edge.selected {opacity: 1;}
.edge:hover path { stroke: red; }
.edge:hover polygon { stroke: red; fill: red; }
]]></style>
<script type="application/ecmascript" xlink:href="svg.min.js"/>
<svg id="graph" class="graph">
<g id="graph0" class="graph" transform="scale(1 1) rotate(0) translate(4 144)">
<title>slick/orderbook/detail/flat_map.hpp</title>
<!-- Node1 -->
<g id="Node000001" class="node">
<title>Node1</title>
<g id="a_Node000001"><a xlink:title=" ">
<polygon fill="#999999" stroke="#666666" points="250.5,-140 128.5,-140 128.5,-110 250.5,-110 250.5,-140"/>
<text text-anchor="start" x="136.5" y="-128" font-family="Helvetica,sans-Serif" font-size="10.00">slick/orderbook/detail</text>
<text text-anchor="middle" x="189.5" y="-117" font-family="Helvetica,sans-Serif" font-size="10.00">/flat_map.hpp</text>
</a>
</g>
</g>
<!-- Node2 -->
<g id="Node000002" class="node">
<title>Node2</title>
<g id="a_Node000002"><a xlink:href="config_8hpp.html" target="_top" xlink:title=" ">
<polygon fill="white" stroke="#666666" points="145,-74 0,-74 0,-55 145,-55 145,-74"/>
<text text-anchor="middle" x="72.5" y="-62" font-family="Helvetica,sans-Serif" font-size="10.00">slick/orderbook/config.hpp</text>
</a>
</g>
</g>
<!-- Node1&#45;&gt;Node2 -->
<g id="edge1_Node000001_Node000002" class="edge">
<title>Node1&#45;&gt;Node2</title>
<g id="a_edge1_Node000001_Node000002"><a xlink:title=" ">
<path fill="none" stroke="#63b8ff" d="M161.48,-109.99C142.48,-100.49 117.53,-88.02 98.89,-78.69"/>
<polygon fill="#63b8ff" stroke="#63b8ff" points="100.29,-75.48 89.78,-74.14 97.16,-81.74 100.29,-75.48"/>
</a>
</g>
</g>
<!-- Node4 -->
<g id="Node000004" class="node">
<title>Node4</title>
<g id="a_Node000004"><a xlink:title=" ">
<polygon fill="#e0e0e0" stroke="#999999" points="216,-74 163,-74 163,-55 216,-55 216,-74"/>
<text text-anchor="middle" x="189.5" y="-62" font-family="Helvetica,sans-Serif" font-size="10.00">version</text>
</a>
</g>
</g>
<!-- Node1&#45;&gt;Node4 -->
<g id="edge3_Node000001_Node000004" class="edge">
<title>Node1&#45;&gt;Node4</title>
<g id="a_edge3_Node000001_Node000004"><a xlink:title=" ">
<path fill="none" stroke="#63b8ff" d="M189.5,-109.84C189.5,-102.21 189.5,-92.7 189.5,-84.45"/>
<polygon fill="#63b8ff" stroke="#63b8ff" points="193,-84.27 189.5,-74.27 186,-84.27 193,-84.27"/>
</a>
</g>
</g>
<!-- Node5 -->
<g id="Node000005" class="node">
<title>Node5</title>
<g id="a_Node000005"><a xlink:title=" ">
<polygon fill="#e0e0e0" stroke="#999999" points="272.5,-74 234.5,-74 234.5,-55 272.5,-55 272.5,-74"/>
<text text-anchor="middle" x="253.5" y="-62" font-family="Helvetica,sans-Serif" font-size="10.00">map</text>
</a>
</g>
</g>
<!-- Node1&#45;&gt;Node5 -->
<g id="edge4_Node000001_Node000005" class="edge">
<title>Node1&#45;&gt;Node5</title>
<g id="a_edge4_Node000001_Node000005"><a xlink:title=" ">
<path fill="none" stroke="#63b8ff" d="M204.99,-109.84C214.47,-101.17 226.61,-90.08 236.38,-81.15"/>
<polygon fill="#63b8ff" stroke="#63b8ff" points="238.89,-83.6 243.91,-74.27 234.17,-78.43 238.89,-83.6"/>
</a>
</g>
</g>
<!-- Node3 -->
<g id="Node000003" class="node">
<title>Node3</title>
<g id="a_Node000003"><a xlink:title=" ">
<polygon fill="#e0e0e0" stroke="#999999" points="98.5,-19 46.5,-19 46.5,0 98.5,0 98.5,-19"/>
<text text-anchor="middle" x="72.5" y="-7" font-family="Helvetica,sans-Serif" font-size="10.00">cassert</text>
</a>
</g>
</g>
<!-- Node2&#45;&gt;Node3 -->
<g id="edge2_Node000002_Node000003" class="edge">
<title>Node2&#45;&gt;Node3</title>
<g id="a_edge2_Node000002_Node000003"><a xlink:title=" ">
<path fill="none" stroke="#63b8ff" d="M72.5,-54.75C72.5,-47.8 72.5,-37.85 72.5,-29.13"/>
<polygon fill="#63b8ff" stroke="#63b8ff" points="76,-29.09 72.5,-19.09 69,-29.09 76,-29.09"/>
</a>
</g>
</g>
</g>
</svg>
</svg>

<style type='text/css'>
<![CDATA[
[data-mouse-over-selected='false'] { opacity: 0.7; }
[data-mouse-over-selected='true']  { opacity: 1.0; }
]]>
</style>
<script type="application/ecmascript"><![CDATA[
document.addEventListener('DOMContentLoaded', (event) => {
  highlightEdges();
  highlightAdjacentNodes();
});
]]></script>
</svg>
