<?xml version="1.0" encoding="UTF-8" standalone="no"?>
<!DOCTYPE svg PUBLIC "-//W3C//DTD SVG 1.1//EN"
 "http://www.w3.org/Graphics/SVG/1.1/DTD/svg11.dtd">
<!-- Generated by graphviz version 2.43.0 (0)
 -->
<!-- Title: slick/orderbook/detail/intrusive_list.hpp Pages: 1 -->
<svg width="235pt" height="291pt"
 viewBox="0.00 0.00 235.00 291.00" xmlns="http://www.w3.org/2000/svg" xmlns:xlink="http://www.w3.org/1999/xlink">
<g id="graph0" class="graph" transform="scale(1 1) rotate(0) translate(4 287)">
<title>slick/orderbook/detail/intrusive_list.hpp</title>
<!-- Node1 -->
<g id="Node000001" class="node">
<title>Node1</title>
<g id="a_Node000001"><a xlink:title=" ">
<polygon fill="#999999" stroke="#666666" points="166,-283 44,-283 44,-253 166,-253 166,-283"/>
<text text-anchor="start" x="52" y="-271" font-family="Helvetica,sans-Serif" font-size="10.00">slick/orderbook/detail</text>
<text text-anchor="middle" x="105" y="-260" font-family="Helvetica,sans-Serif" font-size="10.00">/intrusive_list.hpp</text>
</a>
</g>
</g>
<!-- Node2 -->
<g id="Node000002" class="node">
<title>Node2</title>
<g id="a_Node000002"><a xlink:href="price__level__l3_8hpp.html" target="_top" xlink:title=" ">
<polygon fill="white" stroke="#666666" points="122,-217 0,-217 0,-187 122,-187 122,-217"/>
<text text-anchor="start" x="8" y="-205" font-family="Helvetica,sans-Serif" font-size="10.00">slick/orderbook/detail</text>
<text text-anchor="middle" x="61" y="-194" font-family="Helvetica,sans-Serif" font-size="10.00">/price_level_l3.hpp</text>
</a>
</g>
</g>
<!-- Node1&#45;&gt;Node2 -->
<g id="edge1_Node000001_Node000002" class="edge">
<title>Node1&#45;&gt;Node2</title>
<g id="a_edge1_Node000001_Node000002"><a xlink:title=" ">
<path fill="none" stroke="#63b8ff" d="M89.55,-244.53C83.29,-235.43 76.26,-225.19 70.74,-217.16"/>
<polygon fill="#63b8ff" stroke="#63b8ff" points="86.69,-246.54 95.23,-252.8 92.45,-242.57 86.69,-246.54"/>
</a>
</g>
</g>
<!-- Node3 -->
<g id="Node000003" class="node">
<title>Node3</title>
<g id="a_Node000003"><a xlink:href="orderbook__l3_8hpp.html" target="_top" xlink:title=" ">
<polygon fill="white" stroke="#666666" points="177,-151 33,-151 33,-121 177,-121 177,-151"/>
<text text-anchor="start" x="41" y="-139" font-family="Helvetica,sans-Serif" font-size="10.00">slick/orderbook/orderbook</text>
<text text-anchor="middle" x="105" y="-128" font-family="Helvetica,sans-Serif" font-size="10.00">_l3.hpp</text>
</a>
</g>
</g>
<!-- Node1&#45;&gt;Node3 -->
<g id="edge6_Node000001_Node000003" class="edge">
<title>Node1&#45;&gt;Node3</title>
<g id="a_edge6_Node000001_Node000003"><a xlink:title=" ">
<path fill="none" stroke="#63b8ff" d="M119.77,-244.22C124.31,-235.98 128.7,-226.39 131,-217 134.17,-204.05 134.17,-199.95 131,-187 127.84,-174.07 120.7,-160.77 114.7,-151.14"/>
<polygon fill="#63b8ff" stroke="#63b8ff" points="116.74,-242.47 114.7,-252.86 122.78,-246.01 116.74,-242.47"/>
</a>
</g>
</g>
<!-- Node2&#45;&gt;Node3 -->
<g id="edge2_Node000002_Node000003" class="edge">
<title>Node2&#45;&gt;Node3</title>
<g id="a_edge2_Node000002_Node000003"><a xlink:title=" ">
<path fill="none" stroke="#63b8ff" d="M76.45,-178.53C82.71,-169.43 89.74,-159.19 95.26,-151.16"/>
<polygon fill="#63b8ff" stroke="#63b8ff" points="73.55,-176.57 70.77,-186.8 79.31,-180.54 73.55,-176.57"/>
</a>
</g>
</g>
<!-- Node4 -->
<g id="Node000004" class="node">
<title>Node4</title>
<g id="a_Node000004"><a xlink:href="orderbook_8hpp.html" target="_top" xlink:title=" ">
<polygon fill="white" stroke="#666666" points="187.5,-19 22.5,-19 22.5,0 187.5,0 187.5,-19"/>
<text text-anchor="middle" x="105" y="-7" font-family="Helvetica,sans-Serif" font-size="10.00">slick/orderbook/orderbook.hpp</text>
</a>
</g>
</g>
<!-- Node3&#45;&gt;Node4 -->
<g id="edge3_Node000003_Node000004" class="edge">
<title>Node3&#45;&gt;Node4</title>
<g id="a_edge3_Node000003_Node000004"><a xlink:title=" ">
<path fill="none" stroke="#63b8ff" d="M87.35,-112.47C81.97,-104.29 76.75,-94.67 74,-85 70.35,-72.18 70.01,-67.72 74,-55 78.4,-40.99 88.95,-27.53 96.52,-19.15"/>
<polygon fill="#63b8ff" stroke="#63b8ff" points="84.53,-114.55 93.14,-120.72 90.26,-110.53 84.53,-114.55"/>
</a>
</g>
</g>
<!-- Node5 -->
<g id="Node000005" class="node">
<title>Node5</title>
<g id="a_Node000005"><a xlink:href="orderbook__manager_8hpp.html" target="_top" xlink:title=" ">
<polygon fill="white" stroke="#666666" points="227,-85 83,-85 83,-55 227,-55 227,-85"/>
<text text-anchor="start" x="91" y="-73" font-family="Helvetica,sans-Serif" font-size="10.00">slick/orderbook/orderbook</text>
<text text-anchor="middle" x="155" y="-62" font-family="Helvetica,sans-Serif" font-size="10.00">_manager.hpp</text>
</a>
</g>
</g>
<!-- Node3&#45;&gt;Node5 -->
<g id="edge4_Node000003_Node000005" class="edge">
<title>Node3&#45;&gt;Node5</title>
<g id="a_edge4_Node000003_Node000005"><a xlink:title=" ">
<path fill="none" stroke="#63b8ff" d="M122.34,-112.81C129.5,-103.64 137.6,-93.28 143.93,-85.16"/>
<polygon fill="#63b8ff" stroke="#63b8ff" points="119.5,-110.76 116.1,-120.8 125.01,-115.07 119.5,-110.76"/>
</a>
</g>
</g>
<!-- Node5&#45;&gt;Node4 -->
<g id="edge5_Node000005_Node000004" class="edge">
<title>Node5&#45;&gt;Node4</title>
<g id="a_edge5_Node000005_Node000004"><a xlink:title=" ">
<path fill="none" stroke="#63b8ff" d="M136.27,-47.09C128.01,-37.42 118.77,-26.61 112.49,-19.27"/>
<polygon fill="#63b8ff" stroke="#63b8ff" points="133.74,-49.51 142.9,-54.84 139.06,-44.96 133.74,-49.51"/>
</a>
</g>
</g>
</g>
</svg>
