<?xml version="1.0" encoding="UTF-8" standalone="no"?>
<!DOCTYPE svg PUBLIC "-//W3C//DTD SVG 1.1//EN"
 "http://www.w3.org/Graphics/SVG/1.1/DTD/svg11.dtd">
<!-- Generated by graphviz version 2.43.0 (0)
 -->
<!-- Title: slick/orderbook/detail/memory_pool.hpp Pages: 1 -->
<svg width="640pt" height="148pt"
 viewBox="0.00 0.00 639.50 148.00" xmlns="http://www.w3.org/2000/svg" xmlns:xlink="http://www.w3.org/1999/xlink">
<g id="graph0" class="graph" transform="scale(1 1) rotate(0) translate(4 144)">
<title>slick/orderbook/detail/memory_pool.hpp</title>
<!-- Node1 -->
<g id="Node000001" class="node">
<title>Node1</title>
<g id="a_Node000001"><a xlink:title=" ">
<polygon fill="#999999" stroke="#666666" points="456,-140 334,-140 334,-110 456,-110 456,-140"/>
<text text-anchor="start" x="342" y="-128" font-family="Helvetica,sans-Serif" font-size="10.00">slick/orderbook/detail</text>
<text text-anchor="middle" x="395" y="-117" font-family="Helvetica,sans-Serif" font-size="10.00">/memory_pool.hpp</text>
</a>
</g>
</g>
<!-- Node2 -->
<g id="Node000002" class="node">
<title>Node2</title>
<g id="a_Node000002"><a xlink:href="config_8hpp.html" target="_top" xlink:title=" ">
<polygon fill="white" stroke="#666666" points="208.5,-74 63.5,-74 63.5,-55 208.5,-55 208.5,-74"/>
<text text-anchor="middle" x="136" y="-62" font-family="Helvetica,sans-Serif" font-size="10.00">slick/orderbook/config.hpp</text>
</a>
</g>
</g>
<!-- Node1&#45;&gt;Node2 -->
<g id="edge1_Node000001_Node000002" class="edge">
<title>Node1&#45;&gt;Node2</title>
<g id="a_edge1_Node000001_Node000002"><a xlink:title=" ">
<path fill="none" stroke="#63b8ff" d="M333.95,-110.21C287.98,-99.83 225.87,-85.8 183.56,-76.24"/>
<polygon fill="#63b8ff" stroke="#63b8ff" points="184.31,-72.82 173.78,-74.03 182.77,-79.65 184.31,-72.82"/>
</a>
</g>
</g>
<!-- Node5 -->
<g id="Node000005" class="node">
<title>Node5</title>
<g id="a_Node000005"><a xlink:title=" ">
<polygon fill="#e0e0e0" stroke="#999999" points="279.5,-74 226.5,-74 226.5,-55 279.5,-55 279.5,-74"/>
<text text-anchor="middle" x="253" y="-62" font-family="Helvetica,sans-Serif" font-size="10.00">cstddef</text>
</a>
</g>
</g>
<!-- Node1&#45;&gt;Node5 -->
<g id="edge4_Node000001_Node000005" class="edge">
<title>Node1&#45;&gt;Node5</title>
<g id="a_edge4_Node000001_Node000005"><a xlink:title=" ">
<path fill="none" stroke="#63b8ff" d="M360.99,-109.99C337.4,-100.27 306.26,-87.44 283.48,-78.06"/>
<polygon fill="#63b8ff" stroke="#63b8ff" points="284.55,-74.71 273.97,-74.14 281.88,-81.18 284.55,-74.71"/>
</a>
</g>
</g>
<!-- Node6 -->
<g id="Node000006" class="node">
<title>Node6</title>
<g id="a_Node000006"><a xlink:title=" ">
<polygon fill="#e0e0e0" stroke="#999999" points="348,-74 298,-74 298,-55 348,-55 348,-74"/>
<text text-anchor="middle" x="323" y="-62" font-family="Helvetica,sans-Serif" font-size="10.00">cstdint</text>
</a>
</g>
</g>
<!-- Node1&#45;&gt;Node6 -->
<g id="edge5_Node000001_Node000006" class="edge">
<title>Node1&#45;&gt;Node6</title>
<g id="a_edge5_Node000001_Node000006"><a xlink:title=" ">
<path fill="none" stroke="#63b8ff" d="M377.57,-109.84C366.69,-101 352.7,-89.63 341.61,-80.62"/>
<polygon fill="#63b8ff" stroke="#63b8ff" points="343.76,-77.86 333.79,-74.27 339.34,-83.29 343.76,-77.86"/>
</a>
</g>
</g>
<!-- Node7 -->
<g id="Node000007" class="node">
<title>Node7</title>
<g id="a_Node000007"><a xlink:title=" ">
<polygon fill="#e0e0e0" stroke="#999999" points="424,-74 366,-74 366,-55 424,-55 424,-74"/>
<text text-anchor="middle" x="395" y="-62" font-family="Helvetica,sans-Serif" font-size="10.00">memory</text>
</a>
</g>
</g>
<!-- Node1&#45;&gt;Node7 -->
<g id="edge6_Node000001_Node000007" class="edge">
<title>Node1&#45;&gt;Node7</title>
<g id="a_edge6_Node000001_Node000007"><a xlink:title=" ">
<path fill="none" stroke="#63b8ff" d="M395,-109.84C395,-102.21 395,-92.7 395,-84.45"/>
<polygon fill="#63b8ff" stroke="#63b8ff" points="398.5,-84.27 395,-74.27 391.5,-84.27 398.5,-84.27"/>
</a>
</g>
</g>
<!-- Node8 -->
<g id="Node000008" class="node">
<title>Node8</title>
<g id="a_Node000008"><a xlink:title=" ">
<polygon fill="#e0e0e0" stroke="#999999" points="479.5,-74 442.5,-74 442.5,-55 479.5,-55 479.5,-74"/>
<text text-anchor="middle" x="461" y="-62" font-family="Helvetica,sans-Serif" font-size="10.00">new</text>
</a>
</g>
</g>
<!-- Node1&#45;&gt;Node8 -->
<g id="edge7_Node000001_Node000008" class="edge">
<title>Node1&#45;&gt;Node8</title>
<g id="a_edge7_Node000001_Node000008"><a xlink:title=" ">
<path fill="none" stroke="#63b8ff" d="M410.98,-109.84C420.75,-101.17 433.27,-90.08 443.34,-81.15"/>
<polygon fill="#63b8ff" stroke="#63b8ff" points="445.95,-83.52 451.11,-74.27 441.31,-78.28 445.95,-83.52"/>
</a>
</g>
</g>
<!-- Node9 -->
<g id="Node000009" class="node">
<title>Node9</title>
<g id="a_Node000009"><a xlink:title=" ">
<polygon fill="#e0e0e0" stroke="#999999" points="566.5,-74 497.5,-74 497.5,-55 566.5,-55 566.5,-74"/>
<text text-anchor="middle" x="532" y="-62" font-family="Helvetica,sans-Serif" font-size="10.00">type_traits</text>
</a>
</g>
</g>
<!-- Node1&#45;&gt;Node9 -->
<g id="edge8_Node000001_Node000009" class="edge">
<title>Node1&#45;&gt;Node9</title>
<g id="a_edge8_Node000001_Node000009"><a xlink:title=" ">
<path fill="none" stroke="#63b8ff" d="M427.81,-109.99C450.47,-100.31 480.35,-87.56 502.3,-78.18"/>
<polygon fill="#63b8ff" stroke="#63b8ff" points="503.95,-81.29 511.77,-74.14 501.2,-74.85 503.95,-81.29"/>
</a>
</g>
</g>
<!-- Node10 -->
<g id="Node000010" class="node">
<title>Node10</title>
<g id="a_Node000010"><a xlink:title=" ">
<polygon fill="#e0e0e0" stroke="#999999" points="631.5,-74 584.5,-74 584.5,-55 631.5,-55 631.5,-74"/>
<text text-anchor="middle" x="608" y="-62" font-family="Helvetica,sans-Serif" font-size="10.00">vector</text>
</a>
</g>
</g>
<!-- Node1&#45;&gt;Node10 -->
<g id="edge9_Node000001_Node000010" class="edge">
<title>Node1&#45;&gt;Node10</title>
<g id="a_edge9_Node000001_Node000010"><a xlink:title=" ">
<path fill="none" stroke="#63b8ff" d="M446.02,-109.99C485.73,-99.08 539.71,-84.26 574.21,-74.78"/>
<polygon fill="#63b8ff" stroke="#63b8ff" points="575.54,-78.05 584.25,-72.02 573.68,-71.3 575.54,-78.05"/>
</a>
</g>
</g>
<!-- Node3 -->
<g id="Node000003" class="node">
<title>Node3</title>
<g id="a_Node000003"><a xlink:href="version_8hpp.html" target="_top" xlink:title=" ">
<polygon fill="white" stroke="#666666" points="152,-19 0,-19 0,0 152,0 152,-19"/>
<text text-anchor="middle" x="76" y="-7" font-family="Helvetica,sans-Serif" font-size="10.00">slick/orderbook/version.hpp</text>
</a>
</g>
</g>
<!-- Node2&#45;&gt;Node3 -->
<g id="edge2_Node000002_Node000003" class="edge">
<title>Node2&#45;&gt;Node3</title>
<g id="a_edge2_Node000002_Node000003"><a xlink:title=" ">
<path fill="none" stroke="#63b8ff" d="M126.36,-54.98C117.49,-47.15 104.13,-35.34 93.39,-25.86"/>
<polygon fill="#63b8ff" stroke="#63b8ff" points="95.63,-23.17 85.82,-19.17 90.99,-28.41 95.63,-23.17"/>
</a>
</g>
</g>
<!-- Node4 -->
<g id="Node000004" class="node">
<title>Node4</title>
<g id="a_Node000004"><a xlink:title=" ">
<polygon fill="#e0e0e0" stroke="#999999" points="222,-19 170,-19 170,0 222,0 222,-19"/>
<text text-anchor="middle" x="196" y="-7" font-family="Helvetica,sans-Serif" font-size="10.00">cassert</text>
</a>
</g>
</g>
<!-- Node2&#45;&gt;Node4 -->
<g id="edge3_Node000002_Node000004" class="edge">
<title>Node2&#45;&gt;Node4</title>
<g id="a_edge3_Node000002_Node000004"><a xlink:title=" ">
<path fill="none" stroke="#63b8ff" d="M145.64,-54.98C154.51,-47.15 167.87,-35.34 178.61,-25.86"/>
<polygon fill="#63b8ff" stroke="#63b8ff" points="181.01,-28.41 186.18,-19.17 176.37,-23.17 181.01,-28.41"/>
</a>
</g>
</g>
</g>
</svg>
