<?xml version="1.0" encoding="UTF-8" standalone="no"?>
<!DOCTYPE svg PUBLIC "-//W3C//DTD SVG 1.1//EN"
 "http://www.w3.org/Graphics/SVG/1.1/DTD/svg11.dtd">
<!-- Generated by graphviz version 2.43.0 (0)
 -->
<!-- Title: slick/orderbook/observer.hpp Pages: 1 -->
<svg width="538pt" height="247pt"
 viewBox="0.00 0.00 537.50 247.00" xmlns="http://www.w3.org/2000/svg" xmlns:xlink="http://www.w3.org/1999/xlink">
<g id="graph0" class="graph" transform="scale(1 1) rotate(0) translate(4 243)">
<title>slick/orderbook/observer.hpp</title>
<!-- Node1 -->
<g id="Node000001" class="node">
<title>Node1</title>
<g id="a_Node000001"><a xlink:title=" ">
<polygon fill="#999999" stroke="#666666" points="387.5,-239 229.5,-239 229.5,-220 387.5,-220 387.5,-239"/>
<text text-anchor="middle" x="308.5" y="-227" font-family="Helvetica,sans-Serif" font-size="10.00">slick/orderbook/observer.hpp</text>
</a>
</g>
</g>
<!-- Node2 -->
<g id="Node000002" class="node">
<title>Node2</title>
<g id="a_Node000002"><a xlink:href="config_8hpp.html" target="_top" xlink:title=" ">
<polygon fill="white" stroke="#666666" points="145,-74 0,-74 0,-55 145,-55 145,-74"/>
<text text-anchor="middle" x="72.5" y="-62" font-family="Helvetica,sans-Serif" font-size="10.00">slick/orderbook/config.hpp</text>
</a>
</g>
</g>
<!-- Node1&#45;&gt;Node2 -->
<g id="edge1_Node000001_Node000002" class="edge">
<title>Node1&#45;&gt;Node2</title>
<g id="a_edge1_Node000001_Node000002"><a xlink:title=" ">
<path fill="none" stroke="#63b8ff" d="M229.29,-225.57C162.67,-221.25 74.82,-210.54 52.5,-184 28.31,-155.25 48.05,-108.3 61.89,-82.99"/>
<polygon fill="#63b8ff" stroke="#63b8ff" points="65.02,-84.56 66.97,-74.15 58.95,-81.08 65.02,-84.56"/>
</a>
</g>
</g>
<!-- Node4 -->
<g id="Node000004" class="node">
<title>Node4</title>
<g id="a_Node000004"><a xlink:href="events_8hpp.html" target="_top" xlink:title=" ">
<polygon fill="white" stroke="#666666" points="211,-184 62,-184 62,-165 211,-165 211,-184"/>
<text text-anchor="middle" x="136.5" y="-172" font-family="Helvetica,sans-Serif" font-size="10.00">slick/orderbook/events.hpp</text>
</a>
</g>
</g>
<!-- Node1&#45;&gt;Node4 -->
<g id="edge3_Node000001_Node000004" class="edge">
<title>Node1&#45;&gt;Node4</title>
<g id="a_edge3_Node000001_Node000004"><a xlink:title=" ">
<path fill="none" stroke="#63b8ff" d="M280.87,-219.98C251.99,-211.09 206.49,-197.07 174.3,-187.15"/>
<polygon fill="#63b8ff" stroke="#63b8ff" points="174.94,-183.68 164.35,-184.08 172.88,-190.37 174.94,-183.68"/>
</a>
</g>
</g>
<!-- Node9 -->
<g id="Node000009" class="node">
<title>Node9</title>
<g id="a_Node000009"><a xlink:href="concepts_8hpp.html" target="_top" xlink:title=" ">
<polygon fill="white" stroke="#666666" points="388,-184 229,-184 229,-165 388,-165 388,-184"/>
<text text-anchor="middle" x="308.5" y="-172" font-family="Helvetica,sans-Serif" font-size="10.00">slick/orderbook/concepts.hpp</text>
</a>
</g>
</g>
<!-- Node1&#45;&gt;Node9 -->
<g id="edge10_Node000001_Node000009" class="edge">
<title>Node1&#45;&gt;Node9</title>
<g id="a_edge10_Node000001_Node000009"><a xlink:title=" ">
<path fill="none" stroke="#63b8ff" d="M308.5,-219.75C308.5,-212.8 308.5,-202.85 308.5,-194.13"/>
<polygon fill="#63b8ff" stroke="#63b8ff" points="312,-194.09 308.5,-184.09 305,-194.09 312,-194.09"/>
</a>
</g>
</g>
<!-- Node12 -->
<g id="Node000012" class="node">
<title>Node12</title>
<g id="a_Node000012"><a xlink:title=" ">
<polygon fill="#e0e0e0" stroke="#999999" points="453,-184 406,-184 406,-165 453,-165 453,-184"/>
<text text-anchor="middle" x="429.5" y="-172" font-family="Helvetica,sans-Serif" font-size="10.00">vector</text>
</a>
</g>
</g>
<!-- Node1&#45;&gt;Node12 -->
<g id="edge15_Node000001_Node000012" class="edge">
<title>Node1&#45;&gt;Node12</title>
<g id="a_edge15_Node000001_Node000012"><a xlink:title=" ">
<path fill="none" stroke="#63b8ff" d="M327.94,-219.98C347.49,-211.42 377.88,-198.11 400.32,-188.28"/>
<polygon fill="#63b8ff" stroke="#63b8ff" points="401.95,-191.39 409.71,-184.17 399.14,-184.98 401.95,-191.39"/>
</a>
</g>
</g>
<!-- Node13 -->
<g id="Node000013" class="node">
<title>Node13</title>
<g id="a_Node000013"><a xlink:title=" ">
<polygon fill="#e0e0e0" stroke="#999999" points="529.5,-184 471.5,-184 471.5,-165 529.5,-165 529.5,-184"/>
<text text-anchor="middle" x="500.5" y="-172" font-family="Helvetica,sans-Serif" font-size="10.00">memory</text>
</a>
</g>
</g>
<!-- Node1&#45;&gt;Node13 -->
<g id="edge16_Node000001_Node000013" class="edge">
<title>Node1&#45;&gt;Node13</title>
<g id="a_edge16_Node000001_Node000013"><a xlink:title=" ">
<path fill="none" stroke="#63b8ff" d="M339.35,-219.98C372.58,-210.81 425.54,-196.19 461.61,-186.24"/>
<polygon fill="#63b8ff" stroke="#63b8ff" points="462.59,-189.59 471.3,-183.56 460.73,-182.85 462.59,-189.59"/>
</a>
</g>
</g>
<!-- Node3 -->
<g id="Node000003" class="node">
<title>Node3</title>
<g id="a_Node000003"><a xlink:title=" ">
<polygon fill="#e0e0e0" stroke="#999999" points="98.5,-19 46.5,-19 46.5,0 98.5,0 98.5,-19"/>
<text text-anchor="middle" x="72.5" y="-7" font-family="Helvetica,sans-Serif" font-size="10.00">cassert</text>
</a>
</g>
</g>
<!-- Node2&#45;&gt;Node3 -->
<g id="edge2_Node000002_Node000003" class="edge">
<title>Node2&#45;&gt;Node3</title>
<g id="a_edge2_Node000002_Node000003"><a xlink:title=" ">
<path fill="none" stroke="#63b8ff" d="M72.5,-54.75C72.5,-47.8 72.5,-37.85 72.5,-29.13"/>
<polygon fill="#63b8ff" stroke="#63b8ff" points="76,-29.09 72.5,-19.09 69,-29.09 76,-29.09"/>
</a>
</g>
</g>
<!-- Node4&#45;&gt;Node2 -->
<g id="edge4_Node000004_Node000002" class="edge">
<title>Node4&#45;&gt;Node2</title>
<g id="a_edge4_Node000004_Node000002"><a xlink:title=" ">
<path fill="none" stroke="#63b8ff" d="M126.81,-164.77C117.94,-156.34 104.93,-142.84 96.5,-129 87.88,-114.84 81.49,-97.08 77.48,-83.94"/>
<polygon fill="#63b8ff" stroke="#63b8ff" points="80.8,-82.82 74.67,-74.18 74.07,-84.75 80.8,-82.82"/>
</a>
</g>
</g>
<!-- Node5 -->
<g id="Node000005" class="node">
<title>Node5</title>
<g id="a_Node000005"><a xlink:href="types_8hpp.html" target="_top" xlink:title=" ">
<polygon fill="white" stroke="#666666" points="282,-129 139,-129 139,-110 282,-110 282,-129"/>
<text text-anchor="middle" x="210.5" y="-117" font-family="Helvetica,sans-Serif" font-size="10.00">slick/orderbook/types.hpp</text>
</a>
</g>
</g>
<!-- Node4&#45;&gt;Node5 -->
<g id="edge5_Node000004_Node000005" class="edge">
<title>Node4&#45;&gt;Node5</title>
<g id="a_edge5_Node000004_Node000005"><a xlink:title=" ">
<path fill="none" stroke="#63b8ff" d="M148.39,-164.98C159.65,-156.92 176.79,-144.65 190.21,-135.03"/>
<polygon fill="#63b8ff" stroke="#63b8ff" points="192.3,-137.84 198.39,-129.17 188.23,-132.15 192.3,-137.84"/>
</a>
</g>
</g>
<!-- Node5&#45;&gt;Node2 -->
<g id="edge6_Node000005_Node000002" class="edge">
<title>Node5&#45;&gt;Node2</title>
<g id="a_edge6_Node000005_Node000002"><a xlink:title=" ">
<path fill="none" stroke="#63b8ff" d="M188.33,-109.98C165.73,-101.3 130.44,-87.75 104.75,-77.88"/>
<polygon fill="#63b8ff" stroke="#63b8ff" points="105.67,-74.49 95.08,-74.17 103.16,-81.02 105.67,-74.49"/>
</a>
</g>
</g>
<!-- Node6 -->
<g id="Node000006" class="node">
<title>Node6</title>
<g id="a_Node000006"><a xlink:title=" ">
<polygon fill="#e0e0e0" stroke="#999999" points="213.5,-74 163.5,-74 163.5,-55 213.5,-55 213.5,-74"/>
<text text-anchor="middle" x="188.5" y="-62" font-family="Helvetica,sans-Serif" font-size="10.00">cstdint</text>
</a>
</g>
</g>
<!-- Node5&#45;&gt;Node6 -->
<g id="edge7_Node000005_Node000006" class="edge">
<title>Node5&#45;&gt;Node6</title>
<g id="a_edge7_Node000005_Node000006"><a xlink:title=" ">
<path fill="none" stroke="#63b8ff" d="M206.87,-109.75C203.92,-102.65 199.67,-92.4 195.99,-83.56"/>
<polygon fill="#63b8ff" stroke="#63b8ff" points="199.13,-81.98 192.07,-74.09 192.67,-84.67 199.13,-81.98"/>
</a>
</g>
</g>
<!-- Node7 -->
<g id="Node000007" class="node">
<title>Node7</title>
<g id="a_Node000007"><a xlink:title=" ">
<polygon fill="#e0e0e0" stroke="#999999" points="305,-74 232,-74 232,-55 305,-55 305,-74"/>
<text text-anchor="middle" x="268.5" y="-62" font-family="Helvetica,sans-Serif" font-size="10.00">string_view</text>
</a>
</g>
</g>
<!-- Node5&#45;&gt;Node7 -->
<g id="edge8_Node000005_Node000007" class="edge">
<title>Node5&#45;&gt;Node7</title>
<g id="a_edge8_Node000005_Node000007"><a xlink:title=" ">
<path fill="none" stroke="#63b8ff" d="M219.82,-109.98C228.31,-102.23 241.06,-90.58 251.38,-81.14"/>
<polygon fill="#63b8ff" stroke="#63b8ff" points="253.99,-83.5 259.01,-74.17 249.27,-78.33 253.99,-83.5"/>
</a>
</g>
</g>
<!-- Node8 -->
<g id="Node000008" class="node">
<title>Node8</title>
<g id="a_Node000008"><a xlink:title=" ">
<polygon fill="#e0e0e0" stroke="#999999" points="367.5,-74 323.5,-74 323.5,-55 367.5,-55 367.5,-74"/>
<text text-anchor="middle" x="345.5" y="-62" font-family="Helvetica,sans-Serif" font-size="10.00">limits</text>
</a>
</g>
</g>
<!-- Node5&#45;&gt;Node8 -->
<g id="edge9_Node000005_Node000008" class="edge">
<title>Node5&#45;&gt;Node8</title>
<g id="a_edge9_Node000005_Node000008"><a xlink:title=" ">
<path fill="none" stroke="#63b8ff" d="M232.19,-109.98C254.3,-101.3 288.82,-87.75 313.95,-77.88"/>
<polygon fill="#63b8ff" stroke="#63b8ff" points="315.39,-81.08 323.42,-74.17 312.83,-74.57 315.39,-81.08"/>
</a>
</g>
</g>
<!-- Node9&#45;&gt;Node2 -->
<g id="edge11_Node000009_Node000002" class="edge">
<title>Node9&#45;&gt;Node2</title>
<g id="a_edge11_Node000009_Node000002"><a xlink:title=" ">
<path fill="none" stroke="#63b8ff" d="M233.25,-164.98C199.7,-158.7 160.78,-147.81 129.5,-129 110.34,-117.48 93.96,-97.47 83.74,-82.98"/>
<polygon fill="#63b8ff" stroke="#63b8ff" points="86.45,-80.74 77.95,-74.41 80.64,-84.66 86.45,-80.74"/>
</a>
</g>
</g>
<!-- Node9&#45;&gt;Node5 -->
<g id="edge12_Node000009_Node000005" class="edge">
<title>Node9&#45;&gt;Node5</title>
<g id="a_edge12_Node000009_Node000005"><a xlink:title=" ">
<path fill="none" stroke="#63b8ff" d="M292.75,-164.98C277.27,-156.61 253.41,-143.7 235.36,-133.95"/>
<polygon fill="#63b8ff" stroke="#63b8ff" points="236.99,-130.85 226.53,-129.17 233.66,-137.01 236.99,-130.85"/>
</a>
</g>
</g>
<!-- Node10 -->
<g id="Node000010" class="node">
<title>Node10</title>
<g id="a_Node000010"><a xlink:title=" ">
<polygon fill="#e0e0e0" stroke="#999999" points="360.5,-129 300.5,-129 300.5,-110 360.5,-110 360.5,-129"/>
<text text-anchor="middle" x="330.5" y="-117" font-family="Helvetica,sans-Serif" font-size="10.00">concepts</text>
</a>
</g>
</g>
<!-- Node9&#45;&gt;Node10 -->
<g id="edge13_Node000009_Node000010" class="edge">
<title>Node9&#45;&gt;Node10</title>
<g id="a_edge13_Node000009_Node000010"><a xlink:title=" ">
<path fill="none" stroke="#63b8ff" d="M312.13,-164.75C315.08,-157.65 319.33,-147.4 323.01,-138.56"/>
<polygon fill="#63b8ff" stroke="#63b8ff" points="326.33,-139.67 326.93,-129.09 319.87,-136.98 326.33,-139.67"/>
</a>
</g>
</g>
<!-- Node11 -->
<g id="Node000011" class="node">
<title>Node11</title>
<g id="a_Node000011"><a xlink:title=" ">
<polygon fill="#e0e0e0" stroke="#999999" points="448,-129 379,-129 379,-110 448,-110 448,-129"/>
<text text-anchor="middle" x="413.5" y="-117" font-family="Helvetica,sans-Serif" font-size="10.00">type_traits</text>
</a>
</g>
</g>
<!-- Node9&#45;&gt;Node11 -->
<g id="edge14_Node000009_Node000011" class="edge">
<title>Node9&#45;&gt;Node11</title>
<g id="a_edge14_Node000009_Node000011"><a xlink:title=" ">
<path fill="none" stroke="#63b8ff" d="M325.37,-164.98C342.11,-156.54 368,-143.47 387.39,-133.68"/>
<polygon fill="#63b8ff" stroke="#63b8ff" points="388.97,-136.8 396.32,-129.17 385.82,-130.55 388.97,-136.8"/>
</a>
</g>
</g>
</g>
</svg>
