<?xml version="1.0" encoding="UTF-8" standalone="no"?>
<!DOCTYPE svg PUBLIC "-//W3C//DTD SVG 1.1//EN"
 "http://www.w3.org/Graphics/SVG/1.1/DTD/svg11.dtd">
<!-- Generated by graphviz version 2.43.0 (0)
 -->
<!-- Title: slick/orderbook/observer.hpp Pages: 1 -->
<svg width="328pt" height="214pt"
 viewBox="0.00 0.00 327.54 214.00" xmlns="http://www.w3.org/2000/svg" xmlns:xlink="http://www.w3.org/1999/xlink">

<svg id="main" version="1.1" xmlns="http://www.w3.org/2000/svg" xmlns:xlink="http://www.w3.org/1999/xlink" xml:space="preserve" onload="init(evt)">
<style type="text/css"><![CDATA[
.node, .edge {opacity: 0.7;}
.node.selected, .edge.selected {opacity: 1;}
.edge:hover path { stroke: red; }
.edge:hover polygon { stroke: red; fill: red; }
]]></style>
<script type="application/ecmascript" xlink:href="svg.min.js"/>
<svg id="graph" class="graph">
<g id="graph0" class="graph" transform="scale(1 1) rotate(0) translate(4 210)">
<title>slick/orderbook/observer.hpp</title>
<!-- Node1 -->
<g id="Node000001" class="node">
<title>Node1</title>
<g id="a_Node000001"><a xlink:title=" ">
<polygon fill="#999999" stroke="#666666" points="164.54,-206 6.54,-206 6.54,-187 164.54,-187 164.54,-206"/>
<text text-anchor="middle" x="85.54" y="-194" font-family="Helvetica,sans-Serif" font-size="10.00">slick/orderbook/observer.hpp</text>
</a>
</g>
</g>
<!-- Node2 -->
<g id="Node000002" class="node">
<title>Node2</title>
<g id="a_Node000002"><a xlink:href="orderbook_8hpp.html" target="_top" xlink:title=" ">
<polygon fill="white" stroke="#666666" points="180.04,-19 15.04,-19 15.04,0 180.04,0 180.04,-19"/>
<text text-anchor="middle" x="97.54" y="-7" font-family="Helvetica,sans-Serif" font-size="10.00">slick/orderbook/orderbook.hpp</text>
</a>
</g>
</g>
<!-- Node1&#45;&gt;Node2 -->
<g id="edge1_Node000001_Node000002" class="edge">
<title>Node1&#45;&gt;Node2</title>
<g id="a_edge1_Node000001_Node000002"><a xlink:title=" ">
<path fill="none" stroke="#63b8ff" d="M44.67,-183.12C29.3,-176.26 13.4,-165.98 4.54,-151 -2.25,-139.52 -0.03,-133.53 4.54,-121 21.12,-75.54 65.56,-35.82 86.43,-19.02"/>
<polygon fill="#63b8ff" stroke="#63b8ff" points="43.53,-186.44 54.12,-186.97 46.18,-179.96 43.53,-186.44"/>
</a>
</g>
</g>
<!-- Node3 -->
<g id="Node000003" class="node">
<title>Node3</title>
<g id="a_Node000003"><a xlink:href="orderbook__l2_8hpp.html" target="_top" xlink:title=" ">
<polygon fill="white" stroke="#666666" points="157.54,-151 13.54,-151 13.54,-121 157.54,-121 157.54,-151"/>
<text text-anchor="start" x="21.54" y="-139" font-family="Helvetica,sans-Serif" font-size="10.00">slick/orderbook/orderbook</text>
<text text-anchor="middle" x="85.54" y="-128" font-family="Helvetica,sans-Serif" font-size="10.00">_l2.hpp</text>
</a>
</g>
</g>
<!-- Node1&#45;&gt;Node3 -->
<g id="edge2_Node000001_Node000003" class="edge">
<title>Node1&#45;&gt;Node3</title>
<g id="a_edge2_Node000001_Node000003"><a xlink:title=" ">
<path fill="none" stroke="#63b8ff" d="M85.54,-176.65C85.54,-168.36 85.54,-158.78 85.54,-151.11"/>
<polygon fill="#63b8ff" stroke="#63b8ff" points="82.04,-176.87 85.54,-186.87 89.04,-176.87 82.04,-176.87"/>
</a>
</g>
</g>
<!-- Node5 -->
<g id="Node000005" class="node">
<title>Node5</title>
<g id="a_Node000005"><a xlink:href="orderbook__l3_8hpp.html" target="_top" xlink:title=" ">
<polygon fill="white" stroke="#666666" points="319.54,-151 175.54,-151 175.54,-121 319.54,-121 319.54,-151"/>
<text text-anchor="start" x="183.54" y="-139" font-family="Helvetica,sans-Serif" font-size="10.00">slick/orderbook/orderbook</text>
<text text-anchor="middle" x="247.54" y="-128" font-family="Helvetica,sans-Serif" font-size="10.00">_l3.hpp</text>
</a>
</g>
</g>
<!-- Node1&#45;&gt;Node5 -->
<g id="edge6_Node000001_Node000005" class="edge">
<title>Node1&#45;&gt;Node5</title>
<g id="a_edge6_Node000001_Node000005"><a xlink:title=" ">
<path fill="none" stroke="#63b8ff" d="M118.54,-183.58C144.62,-174.16 181.08,-161 208.59,-151.06"/>
<polygon fill="#63b8ff" stroke="#63b8ff" points="117.31,-180.31 109.09,-186.99 119.69,-186.89 117.31,-180.31"/>
</a>
</g>
</g>
<!-- Node3&#45;&gt;Node2 -->
<g id="edge3_Node000003_Node000002" class="edge">
<title>Node3&#45;&gt;Node2</title>
<g id="a_edge3_Node000003_Node000002"><a xlink:title=" ">
<path fill="none" stroke="#63b8ff" d="M73.43,-111.76C66.64,-95.67 60.62,-73.84 66.54,-55 70.94,-40.99 81.49,-27.53 89.06,-19.15"/>
<polygon fill="#63b8ff" stroke="#63b8ff" points="70.3,-113.34 77.65,-120.96 76.66,-110.41 70.3,-113.34"/>
</a>
</g>
</g>
<!-- Node4 -->
<g id="Node000004" class="node">
<title>Node4</title>
<g id="a_Node000004"><a xlink:href="orderbook__manager_8hpp.html" target="_top" xlink:title=" ">
<polygon fill="white" stroke="#666666" points="219.54,-85 75.54,-85 75.54,-55 219.54,-55 219.54,-85"/>
<text text-anchor="start" x="83.54" y="-73" font-family="Helvetica,sans-Serif" font-size="10.00">slick/orderbook/orderbook</text>
<text text-anchor="middle" x="147.54" y="-62" font-family="Helvetica,sans-Serif" font-size="10.00">_manager.hpp</text>
</a>
</g>
</g>
<!-- Node3&#45;&gt;Node4 -->
<g id="edge4_Node000003_Node000004" class="edge">
<title>Node3&#45;&gt;Node4</title>
<g id="a_edge4_Node000003_Node000004"><a xlink:title=" ">
<path fill="none" stroke="#63b8ff" d="M106.49,-113.37C115.51,-104.06 125.8,-93.44 133.82,-85.16"/>
<polygon fill="#63b8ff" stroke="#63b8ff" points="103.74,-111.18 99.3,-120.8 108.77,-116.05 103.74,-111.18"/>
</a>
</g>
</g>
<!-- Node4&#45;&gt;Node2 -->
<g id="edge5_Node000004_Node000002" class="edge">
<title>Node4&#45;&gt;Node2</title>
<g id="a_edge5_Node000004_Node000002"><a xlink:title=" ">
<path fill="none" stroke="#63b8ff" d="M128.81,-47.09C120.55,-37.42 111.31,-26.61 105.03,-19.27"/>
<polygon fill="#63b8ff" stroke="#63b8ff" points="126.28,-49.51 135.43,-54.84 131.6,-44.96 126.28,-49.51"/>
</a>
</g>
</g>
<!-- Node5&#45;&gt;Node2 -->
<g id="edge7_Node000005_Node000002" class="edge">
<title>Node5&#45;&gt;Node2</title>
<g id="a_edge7_Node000005_Node000002"><a xlink:title=" ">
<path fill="none" stroke="#63b8ff" d="M247.74,-110.92C246.61,-93.38 242.3,-70.13 228.54,-55 211.4,-36.17 186,-25.3 162.11,-19.03"/>
<polygon fill="#63b8ff" stroke="#63b8ff" points="244.24,-111.11 248.08,-120.99 251.24,-110.87 244.24,-111.11"/>
</a>
</g>
</g>
<!-- Node5&#45;&gt;Node4 -->
<g id="edge8_Node000005_Node000004" class="edge">
<title>Node5&#45;&gt;Node4</title>
<g id="a_edge8_Node000005_Node000004"><a xlink:title=" ">
<path fill="none" stroke="#63b8ff" d="M216.76,-115.3C201.53,-105.56 183.51,-94.02 169.67,-85.16"/>
<polygon fill="#63b8ff" stroke="#63b8ff" points="215.03,-118.35 225.34,-120.8 218.81,-112.46 215.03,-118.35"/>
</a>
</g>
</g>
</g>
</svg>
</svg>

<style type='text/css'>
<![CDATA[
[data-mouse-over-selected='false'] { opacity: 0.7; }
[data-mouse-over-selected='true']  { opacity: 1.0; }
]]>
</style>
<script type="application/ecmascript"><![CDATA[
document.addEventListener('DOMContentLoaded', (event) => {
  highlightEdges();
  highlightAdjacentNodes();
});
]]></script>
</svg>
