<?xml version="1.0" encoding="UTF-8" standalone="no"?>
<!DOCTYPE svg PUBLIC "-//W3C//DTD SVG 1.1//EN"
 "http://www.w3.org/Graphics/SVG/1.1/DTD/svg11.dtd">
<!-- Generated by graphviz version 2.43.0 (0)
 -->
<!-- Title: slick/orderbook/observer.hpp Pages: 1 -->
<!--zoomable 247 -->

<svg id="main" version="1.1" xmlns="http://www.w3.org/2000/svg" xmlns:xlink="http://www.w3.org/1999/xlink" xml:space="preserve" onload="init(evt)">
<style type="text/css"><![CDATA[
.node, .edge {opacity: 0.7;}
.node.selected, .edge.selected {opacity: 1;}
.edge:hover path { stroke: red; }
.edge:hover polygon { stroke: red; fill: red; }
]]></style>

<defs>
  <circle id="rim" cx="0" cy="0" r="7"/>
  <circle id="rim2" cx="0" cy="0" r="3.5"/>
  <g id="zoomPlus">
    <use xlink:href="#rim" fill="#404040"><set attributeName="fill" to="#808080" begin="zoomplus.mouseover" end="zoomplus.mouseout"/></use>
    <path d="M-4,0h8M0,-4v8" fill="none" stroke="white" stroke-width="1.5" pointer-events="none"/>
  </g>
  <g id="zoomMin">
    <use xlink:href="#rim" fill="#404040"><set attributeName="fill" to="#808080" begin="zoomminus.mouseover" end="zoomminus.mouseout"/></use>
    <path d="M-4,0h8" fill="none" stroke="white" stroke-width="1.5" pointer-events="none"/>
  </g>
  <g id="arrowUp" transform="translate(30 24)">
    <use xlink:href="#rim"/>
    <path pointer-events="none" fill="none" stroke="white" stroke-width="1.5" d="M0,-3.0v7 M-2.5,-0.5L0,-3.0L2.5,-0.5"/>
  </g>
  <g id="arrowRight" transform="rotate(90) translate(36 -43)">
    <use xlink:href="#rim"/>
    <path pointer-events="none" fill="none" stroke="white" stroke-width="1.5" d="M0,-3.0v7 M-2.5,-0.5L0,-3.0L2.5,-0.5"/>
  </g>
  <g id="arrowDown" transform="rotate(180) translate(-30 -48)">
    <use xlink:href="#rim"/>
    <path pointer-events="none" fill="none" stroke="white" stroke-width="1.5" d="M0,-3.0v7 M-2.5,-0.5L0,-3.0L2.5,-0.5"/>
  </g>
  <g id="arrowLeft" transform="rotate(270) translate(-36 17)">
    <use xlink:href="#rim"/>
    <path pointer-events="none" fill="none" stroke="white" stroke-width="1.5" d="M0,-3.0v7 M-2.5,-0.5L0,-3.0L2.5,-0.5"/>
  </g>
  <g id="resetDef">
    <use xlink:href="#rim2" fill="#404040"><set attributeName="fill" to="#808080" begin="reset.mouseover" end="reset.mouseout"/></use>
  </g>
</defs>
<script type="application/ecmascript">
var viewWidth = 578;
var viewHeight = 247;
var sectionId = 'dynsection-0';
</script>
<script type="application/ecmascript" xlink:href="svg.min.js"/>
<svg id="graph" class="graph">
<g id="viewport">
<title>slick/orderbook/observer.hpp</title>
<!-- Node1 -->
<g id="Node000001" class="node">
<title>Node1</title>
<g id="a_Node000001"><a xlink:title=" ">
<polygon fill="#999999" stroke="#666666" points="409.98,-239 251.98,-239 251.98,-220 409.98,-220 409.98,-239"/>
<text text-anchor="middle" x="330.98" y="-227" font-family="Helvetica,sans-Serif" font-size="10.00">slick/orderbook/observer.hpp</text>
</a>
</g>
</g>
<!-- Node2 -->
<g id="Node000002" class="node">
<title>Node2</title>
<g id="a_Node000002"><a xlink:href="config_8hpp.html" target="_top" xlink:title=" ">
<polygon fill="white" stroke="#666666" points="164.48,-74 19.48,-74 19.48,-55 164.48,-55 164.48,-74"/>
<text text-anchor="middle" x="91.98" y="-62" font-family="Helvetica,sans-Serif" font-size="10.00">slick/orderbook/config.hpp</text>
</a>
</g>
</g>
<!-- Node1&#45;&gt;Node2 -->
<g id="edge1_Node000001_Node000002" class="edge">
<title>Node1&#45;&gt;Node2</title>
<g id="a_edge1_Node000001_Node000002"><a xlink:title=" ">
<path fill="none" stroke="#63b8ff" d="M251.61,-228.93C166.9,-227.5 40.7,-219.27 9.98,-184 1.25,-173.97 -7.88,-143.57 12.98,-110 22.14,-95.28 38.04,-84.98 53.18,-78.04"/>
<polygon fill="#63b8ff" stroke="#63b8ff" points="54.59,-81.24 62.45,-74.13 51.88,-74.79 54.59,-81.24"/>
</a>
</g>
</g>
<!-- Node4 -->
<g id="Node000004" class="node">
<title>Node4</title>
<g id="a_Node000004"><a xlink:href="events_8hpp.html" target="_top" xlink:title=" ">
<polygon fill="white" stroke="#666666" points="168.48,-184 19.48,-184 19.48,-165 168.48,-165 168.48,-184"/>
<text text-anchor="middle" x="93.98" y="-172" font-family="Helvetica,sans-Serif" font-size="10.00">slick/orderbook/events.hpp</text>
</a>
</g>
</g>
<!-- Node1&#45;&gt;Node4 -->
<g id="edge3_Node000001_Node000004" class="edge">
<title>Node1&#45;&gt;Node4</title>
<g id="a_edge3_Node000001_Node000004"><a xlink:title=" ">
<path fill="none" stroke="#63b8ff" d="M292.91,-219.98C252,-210.84 186.88,-196.27 142.37,-186.32"/>
<polygon fill="#63b8ff" stroke="#63b8ff" points="142.88,-182.85 132.36,-184.08 141.36,-189.68 142.88,-182.85"/>
</a>
</g>
</g>
<!-- Node10 -->
<g id="Node000010" class="node">
<title>Node10</title>
<g id="a_Node000010"><a xlink:href="concepts_8hpp.html" target="_top" xlink:title=" ">
<polygon fill="white" stroke="#666666" points="345.48,-184 186.48,-184 186.48,-165 345.48,-165 345.48,-184"/>
<text text-anchor="middle" x="265.98" y="-172" font-family="Helvetica,sans-Serif" font-size="10.00">slick/orderbook/concepts.hpp</text>
</a>
</g>
</g>
<!-- Node1&#45;&gt;Node10 -->
<g id="edge11_Node000001_Node000010" class="edge">
<title>Node1&#45;&gt;Node10</title>
<g id="a_edge11_Node000001_Node000010"><a xlink:title=" ">
<path fill="none" stroke="#63b8ff" d="M320.54,-219.98C310.84,-212.07 296.17,-200.11 284.48,-190.58"/>
<polygon fill="#63b8ff" stroke="#63b8ff" points="286.58,-187.78 276.62,-184.17 282.16,-193.2 286.58,-187.78"/>
</a>
</g>
</g>
<!-- Node13 -->
<g id="Node000013" class="node">
<title>Node13</title>
<g id="a_Node000013"><a xlink:title=" ">
<polygon fill="#e0e0e0" stroke="#999999" points="427.98,-184 363.98,-184 363.98,-165 427.98,-165 427.98,-184"/>
<text text-anchor="middle" x="395.98" y="-172" font-family="Helvetica,sans-Serif" font-size="10.00">algorithm</text>
</a>
</g>
</g>
<!-- Node1&#45;&gt;Node13 -->
<g id="edge16_Node000001_Node000013" class="edge">
<title>Node1&#45;&gt;Node13</title>
<g id="a_edge16_Node000001_Node000013"><a xlink:title=" ">
<path fill="none" stroke="#63b8ff" d="M341.43,-219.98C351.13,-212.07 365.8,-200.11 377.48,-190.58"/>
<polygon fill="#63b8ff" stroke="#63b8ff" points="379.81,-193.2 385.35,-184.17 375.39,-187.78 379.81,-193.2"/>
</a>
</g>
</g>
<!-- Node14 -->
<g id="Node000014" class="node">
<title>Node14</title>
<g id="a_Node000014"><a xlink:title=" ">
<polygon fill="#e0e0e0" stroke="#999999" points="493.48,-184 446.48,-184 446.48,-165 493.48,-165 493.48,-184"/>
<text text-anchor="middle" x="469.98" y="-172" font-family="Helvetica,sans-Serif" font-size="10.00">vector</text>
</a>
</g>
</g>
<!-- Node1&#45;&gt;Node14 -->
<g id="edge17_Node000001_Node000014" class="edge">
<title>Node1&#45;&gt;Node14</title>
<g id="a_edge17_Node000001_Node000014"><a xlink:title=" ">
<path fill="none" stroke="#63b8ff" d="M353.32,-219.98C376.18,-211.27 411.94,-197.63 437.85,-187.75"/>
<polygon fill="#63b8ff" stroke="#63b8ff" points="439.15,-191 447.24,-184.17 436.65,-184.46 439.15,-191"/>
</a>
</g>
</g>
<!-- Node15 -->
<g id="Node000015" class="node">
<title>Node15</title>
<g id="a_Node000015"><a xlink:title=" ">
<polygon fill="#e0e0e0" stroke="#999999" points="569.98,-184 511.98,-184 511.98,-165 569.98,-165 569.98,-184"/>
<text text-anchor="middle" x="540.98" y="-172" font-family="Helvetica,sans-Serif" font-size="10.00">memory</text>
</a>
</g>
</g>
<!-- Node1&#45;&gt;Node15 -->
<g id="edge18_Node000001_Node000015" class="edge">
<title>Node1&#45;&gt;Node15</title>
<g id="a_edge18_Node000001_Node000015"><a xlink:title=" ">
<path fill="none" stroke="#63b8ff" d="M364.72,-219.98C402.16,-210.54 462.48,-195.31 501.93,-185.36"/>
<polygon fill="#63b8ff" stroke="#63b8ff" points="502.89,-188.72 511.73,-182.88 501.18,-181.94 502.89,-188.72"/>
</a>
</g>
</g>
<!-- Node3 -->
<g id="Node000003" class="node">
<title>Node3</title>
<g id="a_Node000003"><a xlink:title=" ">
<polygon fill="#e0e0e0" stroke="#999999" points="117.98,-19 65.98,-19 65.98,0 117.98,0 117.98,-19"/>
<text text-anchor="middle" x="91.98" y="-7" font-family="Helvetica,sans-Serif" font-size="10.00">cassert</text>
</a>
</g>
</g>
<!-- Node2&#45;&gt;Node3 -->
<g id="edge2_Node000002_Node000003" class="edge">
<title>Node2&#45;&gt;Node3</title>
<g id="a_edge2_Node000002_Node000003"><a xlink:title=" ">
<path fill="none" stroke="#63b8ff" d="M91.98,-54.75C91.98,-47.8 91.98,-37.85 91.98,-29.13"/>
<polygon fill="#63b8ff" stroke="#63b8ff" points="95.48,-29.09 91.98,-19.09 88.48,-29.09 95.48,-29.09"/>
</a>
</g>
</g>
<!-- Node4&#45;&gt;Node2 -->
<g id="edge4_Node000004_Node000002" class="edge">
<title>Node4&#45;&gt;Node2</title>
<g id="a_edge4_Node000004_Node000002"><a xlink:title=" ">
<path fill="none" stroke="#63b8ff" d="M93.82,-164.66C93.5,-147.17 92.77,-107.8 92.33,-84.27"/>
<polygon fill="#63b8ff" stroke="#63b8ff" points="95.83,-84.09 92.14,-74.16 88.83,-84.22 95.83,-84.09"/>
</a>
</g>
</g>
<!-- Node5 -->
<g id="Node000005" class="node">
<title>Node5</title>
<g id="a_Node000005"><a xlink:href="types_8hpp.html" target="_top" xlink:title=" ">
<polygon fill="white" stroke="#666666" points="301.48,-129 158.48,-129 158.48,-110 301.48,-110 301.48,-129"/>
<text text-anchor="middle" x="229.98" y="-117" font-family="Helvetica,sans-Serif" font-size="10.00">slick/orderbook/types.hpp</text>
</a>
</g>
</g>
<!-- Node4&#45;&gt;Node5 -->
<g id="edge5_Node000004_Node000005" class="edge">
<title>Node4&#45;&gt;Node5</title>
<g id="a_edge5_Node000004_Node000005"><a xlink:title=" ">
<path fill="none" stroke="#63b8ff" d="M115.83,-164.98C138.11,-156.3 172.89,-142.75 198.2,-132.88"/>
<polygon fill="#63b8ff" stroke="#63b8ff" points="199.69,-136.06 207.74,-129.17 197.15,-129.54 199.69,-136.06"/>
</a>
</g>
</g>
<!-- Node9 -->
<g id="Node000009" class="node">
<title>Node9</title>
<g id="a_Node000009"><a xlink:title=" ">
<polygon fill="#e0e0e0" stroke="#999999" points="63.98,-129 21.98,-129 21.98,-110 63.98,-110 63.98,-129"/>
<text text-anchor="middle" x="42.98" y="-117" font-family="Helvetica,sans-Serif" font-size="10.00">array</text>
</a>
</g>
</g>
<!-- Node4&#45;&gt;Node9 -->
<g id="edge10_Node000004_Node000009" class="edge">
<title>Node4&#45;&gt;Node9</title>
<g id="a_edge10_Node000004_Node000009"><a xlink:title=" ">
<path fill="none" stroke="#63b8ff" d="M85.56,-164.75C78.21,-157.11 67.35,-145.82 58.44,-136.56"/>
<polygon fill="#63b8ff" stroke="#63b8ff" points="60.7,-133.87 51.25,-129.09 55.66,-138.72 60.7,-133.87"/>
</a>
</g>
</g>
<!-- Node5&#45;&gt;Node2 -->
<g id="edge6_Node000005_Node000002" class="edge">
<title>Node5&#45;&gt;Node2</title>
<g id="a_edge6_Node000005_Node000002"><a xlink:title=" ">
<path fill="none" stroke="#63b8ff" d="M207.81,-109.98C185.21,-101.3 149.92,-87.75 124.23,-77.88"/>
<polygon fill="#63b8ff" stroke="#63b8ff" points="125.15,-74.49 114.56,-74.17 122.64,-81.02 125.15,-74.49"/>
</a>
</g>
</g>
<!-- Node6 -->
<g id="Node000006" class="node">
<title>Node6</title>
<g id="a_Node000006"><a xlink:title=" ">
<polygon fill="#e0e0e0" stroke="#999999" points="294.98,-74 244.98,-74 244.98,-55 294.98,-55 294.98,-74"/>
<text text-anchor="middle" x="269.98" y="-62" font-family="Helvetica,sans-Serif" font-size="10.00">cstdint</text>
</a>
</g>
</g>
<!-- Node5&#45;&gt;Node6 -->
<g id="edge7_Node000005_Node000006" class="edge">
<title>Node5&#45;&gt;Node6</title>
<g id="a_edge7_Node000005_Node000006"><a xlink:title=" ">
<path fill="none" stroke="#63b8ff" d="M236.59,-109.75C242.24,-102.26 250.53,-91.28 257.44,-82.13"/>
<polygon fill="#63b8ff" stroke="#63b8ff" points="260.27,-84.18 263.5,-74.09 254.68,-79.96 260.27,-84.18"/>
</a>
</g>
</g>
<!-- Node7 -->
<g id="Node000007" class="node">
<title>Node7</title>
<g id="a_Node000007"><a xlink:title=" ">
<polygon fill="#e0e0e0" stroke="#999999" points="386.48,-74 313.48,-74 313.48,-55 386.48,-55 386.48,-74"/>
<text text-anchor="middle" x="349.98" y="-62" font-family="Helvetica,sans-Serif" font-size="10.00">string_view</text>
</a>
</g>
</g>
<!-- Node5&#45;&gt;Node7 -->
<g id="edge8_Node000005_Node000007" class="edge">
<title>Node5&#45;&gt;Node7</title>
<g id="a_edge8_Node000005_Node000007"><a xlink:title=" ">
<path fill="none" stroke="#63b8ff" d="M249.26,-109.98C268.66,-101.42 298.79,-88.11 321.05,-78.28"/>
<polygon fill="#63b8ff" stroke="#63b8ff" points="322.62,-81.41 330.35,-74.17 319.79,-75.01 322.62,-81.41"/>
</a>
</g>
</g>
<!-- Node8 -->
<g id="Node000008" class="node">
<title>Node8</title>
<g id="a_Node000008"><a xlink:title=" ">
<polygon fill="#e0e0e0" stroke="#999999" points="226.98,-74 182.98,-74 182.98,-55 226.98,-55 226.98,-74"/>
<text text-anchor="middle" x="204.98" y="-62" font-family="Helvetica,sans-Serif" font-size="10.00">limits</text>
</a>
</g>
</g>
<!-- Node5&#45;&gt;Node8 -->
<g id="edge9_Node000005_Node000008" class="edge">
<title>Node5&#45;&gt;Node8</title>
<g id="a_edge9_Node000005_Node000008"><a xlink:title=" ">
<path fill="none" stroke="#63b8ff" d="M225.86,-109.75C222.47,-102.57 217.57,-92.18 213.37,-83.27"/>
<polygon fill="#63b8ff" stroke="#63b8ff" points="216.47,-81.64 209.04,-74.09 210.14,-84.63 216.47,-81.64"/>
</a>
</g>
</g>
<!-- Node10&#45;&gt;Node2 -->
<g id="edge12_Node000010_Node000002" class="edge">
<title>Node10&#45;&gt;Node2</title>
<g id="a_edge12_Node000010_Node000002"><a xlink:title=" ">
<path fill="none" stroke="#63b8ff" d="M231.14,-164.97C206.71,-157.91 174.07,-146.21 148.98,-129 130.55,-116.35 114.04,-96.54 103.59,-82.41"/>
<polygon fill="#63b8ff" stroke="#63b8ff" points="106.3,-80.19 97.64,-74.08 100.6,-84.26 106.3,-80.19"/>
</a>
</g>
</g>
<!-- Node10&#45;&gt;Node5 -->
<g id="edge13_Node000010_Node000005" class="edge">
<title>Node10&#45;&gt;Node5</title>
<g id="a_edge13_Node000010_Node000005"><a xlink:title=" ">
<path fill="none" stroke="#63b8ff" d="M260.04,-164.75C255.01,-157.34 247.65,-146.5 241.47,-137.41"/>
<polygon fill="#63b8ff" stroke="#63b8ff" points="244.33,-135.39 235.82,-129.09 238.54,-139.33 244.33,-135.39"/>
</a>
</g>
</g>
<!-- Node11 -->
<g id="Node000011" class="node">
<title>Node11</title>
<g id="a_Node000011"><a xlink:title=" ">
<polygon fill="#e0e0e0" stroke="#999999" points="379.98,-129 319.98,-129 319.98,-110 379.98,-110 379.98,-129"/>
<text text-anchor="middle" x="349.98" y="-117" font-family="Helvetica,sans-Serif" font-size="10.00">concepts</text>
</a>
</g>
</g>
<!-- Node10&#45;&gt;Node11 -->
<g id="edge14_Node000010_Node000011" class="edge">
<title>Node10&#45;&gt;Node11</title>
<g id="a_edge14_Node000010_Node000011"><a xlink:title=" ">
<path fill="none" stroke="#63b8ff" d="M279.48,-164.98C292.38,-156.84 312.09,-144.41 327.39,-134.76"/>
<polygon fill="#63b8ff" stroke="#63b8ff" points="329.65,-137.47 336.24,-129.17 325.92,-131.55 329.65,-137.47"/>
</a>
</g>
</g>
<!-- Node12 -->
<g id="Node000012" class="node">
<title>Node12</title>
<g id="a_Node000012"><a xlink:title=" ">
<polygon fill="#e0e0e0" stroke="#999999" points="467.48,-129 398.48,-129 398.48,-110 467.48,-110 467.48,-129"/>
<text text-anchor="middle" x="432.98" y="-117" font-family="Helvetica,sans-Serif" font-size="10.00">type_traits</text>
</a>
</g>
</g>
<!-- Node10&#45;&gt;Node12 -->
<g id="edge15_Node000010_Node000012" class="edge">
<title>Node10&#45;&gt;Node12</title>
<g id="a_edge15_Node000010_Node000012"><a xlink:title=" ">
<path fill="none" stroke="#63b8ff" d="M292.82,-164.98C320.85,-156.09 365.03,-142.07 396.29,-132.15"/>
<polygon fill="#63b8ff" stroke="#63b8ff" points="397.47,-135.44 405.94,-129.08 395.35,-128.77 397.47,-135.44"/>
</a>
</g>
</g>
</g>
</svg>

<g id="navigator" transform="translate(0 0)" fill="#404254">
  <rect fill="#f2f5e9" fill-opacity="0.5" stroke="#606060" stroke-width=".5" x="0" y="0" width="60" height="60"/>
  <use id="zoomplus" xlink:href="#zoomPlus" x="17" y="9" onmousedown="handleZoom(evt,'in')"/>
  <use id="zoomminus" xlink:href="#zoomMin" x="42" y="9" onmousedown="handleZoom(evt,'out')"/>
  <use id="reset" xlink:href="#resetDef" x="30" y="36" onmousedown="handleReset()"/>
   <use id="arrowup" xlink:href="#arrowUp" x="0" y="0" onmousedown="handlePan(0,-1)"/>
  <use id="arrowright" xlink:href="#arrowRight" x="0" y="0" onmousedown="handlePan(1,0)"/>
  <use id="arrowdown" xlink:href="#arrowDown" x="0" y="0" onmousedown="handlePan(0,1)"/>
  <use id="arrowleft" xlink:href="#arrowLeft" x="0" y="0" onmousedown="handlePan(-1,0)"/>
</g>
<svg viewBox="0 0 15 15" width="100%" height="30px" preserveAspectRatio="xMaxYMin meet">
 <g id="arrow_out" transform="scale(0.3 0.3)">
  <a xlink:href="observer_8hpp__incl_org.svg" target="_base">
   <rect id="button" ry="5" rx="5" y="6" x="6" height="38" width="38"
        fill="#f2f5e9" fill-opacity="0.5" stroke="#606060" stroke-width="1.0"/>
   <path id="arrow"
     d="M 11.500037,31.436501 C 11.940474,20.09759 22.043105,11.32322 32.158766,21.979434 L 37.068811,17.246167 C 37.068811,17.246167 37.088388,32 37.088388,32 L 22.160133,31.978069 C 22.160133,31.978069 26.997745,27.140456 26.997745,27.140456 C 18.528582,18.264221 13.291696,25.230495 11.500037,31.436501 z"
     style="fill:#404040;"/>
  </a>
 </g>
</svg>

<style type='text/css'>
<![CDATA[
[data-mouse-over-selected='false'] { opacity: 0.7; }
[data-mouse-over-selected='true']  { opacity: 1.0; }
]]>
</style>
<script type="application/ecmascript"><![CDATA[
document.addEventListener('DOMContentLoaded', (event) => {
  highlightEdges();
  highlightAdjacentNodes();
});
]]></script>
</svg>
