<?xml version="1.0" encoding="UTF-8" standalone="no"?>
<!DOCTYPE svg PUBLIC "-//W3C//DTD SVG 1.1//EN"
 "http://www.w3.org/Graphics/SVG/1.1/DTD/svg11.dtd">
<!-- Generated by graphviz version 2.43.0 (0)
 -->
<!-- Title: slick/orderbook/observer.hpp Pages: 1 -->
<svg width="495pt" height="247pt"
 viewBox="0.00 0.00 494.78 247.00" xmlns="http://www.w3.org/2000/svg" xmlns:xlink="http://www.w3.org/1999/xlink">

<svg id="main" version="1.1" xmlns="http://www.w3.org/2000/svg" xmlns:xlink="http://www.w3.org/1999/xlink" xml:space="preserve" onload="init(evt)">
<style type="text/css"><![CDATA[
.node, .edge {opacity: 0.7;}
.node.selected, .edge.selected {opacity: 1;}
.edge:hover path { stroke: red; }
.edge:hover polygon { stroke: red; fill: red; }
]]></style>
<script type="application/ecmascript" xlink:href="svg.min.js"/>
<svg id="graph" class="graph">
<g id="graph0" class="graph" transform="scale(1 1) rotate(0) translate(4 243)">
<title>slick/orderbook/observer.hpp</title>
<!-- Node1 -->
<g id="Node000001" class="node">
<title>Node1</title>
<g id="a_Node000001"><a xlink:title=" ">
<polygon fill="#999999" stroke="#666666" points="344.78,-239 186.78,-239 186.78,-220 344.78,-220 344.78,-239"/>
<text text-anchor="middle" x="265.78" y="-227" font-family="Helvetica,sans-Serif" font-size="10.00">slick/orderbook/observer.hpp</text>
</a>
</g>
</g>
<!-- Node2 -->
<g id="Node000002" class="node">
<title>Node2</title>
<g id="a_Node000002"><a xlink:href="config_8hpp.html" target="_top" xlink:title=" ">
<polygon fill="white" stroke="#666666" points="164.28,-74 19.28,-74 19.28,-55 164.28,-55 164.28,-74"/>
<text text-anchor="middle" x="91.78" y="-62" font-family="Helvetica,sans-Serif" font-size="10.00">slick/orderbook/config.hpp</text>
</a>
</g>
</g>
<!-- Node1&#45;&gt;Node2 -->
<g id="edge1_Node000001_Node000002" class="edge">
<title>Node1&#45;&gt;Node2</title>
<g id="a_edge1_Node000001_Node000002"><a xlink:title=" ">
<path fill="none" stroke="#63b8ff" d="M186.57,-225.57C119.96,-221.25 32.11,-210.54 9.78,-184 1.17,-173.77 -7.71,-142.98 12.78,-110 21.94,-95.28 37.84,-84.98 52.98,-78.04"/>
<polygon fill="#63b8ff" stroke="#63b8ff" points="54.39,-81.24 62.25,-74.13 51.68,-74.79 54.39,-81.24"/>
</a>
</g>
</g>
<!-- Node4 -->
<g id="Node000004" class="node">
<title>Node4</title>
<g id="a_Node000004"><a xlink:href="events_8hpp.html" target="_top" xlink:title=" ">
<polygon fill="white" stroke="#666666" points="168.28,-184 19.28,-184 19.28,-165 168.28,-165 168.28,-184"/>
<text text-anchor="middle" x="93.78" y="-172" font-family="Helvetica,sans-Serif" font-size="10.00">slick/orderbook/events.hpp</text>
</a>
</g>
</g>
<!-- Node1&#45;&gt;Node4 -->
<g id="edge3_Node000001_Node000004" class="edge">
<title>Node1&#45;&gt;Node4</title>
<g id="a_edge3_Node000001_Node000004"><a xlink:title=" ">
<path fill="none" stroke="#63b8ff" d="M238.15,-219.98C209.27,-211.09 163.77,-197.07 131.58,-187.15"/>
<polygon fill="#63b8ff" stroke="#63b8ff" points="132.22,-183.68 121.63,-184.08 130.16,-190.37 132.22,-183.68"/>
</a>
</g>
</g>
<!-- Node10 -->
<g id="Node000010" class="node">
<title>Node10</title>
<g id="a_Node000010"><a xlink:href="concepts_8hpp.html" target="_top" xlink:title=" ">
<polygon fill="white" stroke="#666666" points="345.28,-184 186.28,-184 186.28,-165 345.28,-165 345.28,-184"/>
<text text-anchor="middle" x="265.78" y="-172" font-family="Helvetica,sans-Serif" font-size="10.00">slick/orderbook/concepts.hpp</text>
</a>
</g>
</g>
<!-- Node1&#45;&gt;Node10 -->
<g id="edge11_Node000001_Node000010" class="edge">
<title>Node1&#45;&gt;Node10</title>
<g id="a_edge11_Node000001_Node000010"><a xlink:title=" ">
<path fill="none" stroke="#63b8ff" d="M265.78,-219.75C265.78,-212.8 265.78,-202.85 265.78,-194.13"/>
<polygon fill="#63b8ff" stroke="#63b8ff" points="269.28,-194.09 265.78,-184.09 262.28,-194.09 269.28,-194.09"/>
</a>
</g>
</g>
<!-- Node13 -->
<g id="Node000013" class="node">
<title>Node13</title>
<g id="a_Node000013"><a xlink:title=" ">
<polygon fill="#e0e0e0" stroke="#999999" points="410.28,-184 363.28,-184 363.28,-165 410.28,-165 410.28,-184"/>
<text text-anchor="middle" x="386.78" y="-172" font-family="Helvetica,sans-Serif" font-size="10.00">vector</text>
</a>
</g>
</g>
<!-- Node1&#45;&gt;Node13 -->
<g id="edge16_Node000001_Node000013" class="edge">
<title>Node1&#45;&gt;Node13</title>
<g id="a_edge16_Node000001_Node000013"><a xlink:title=" ">
<path fill="none" stroke="#63b8ff" d="M285.22,-219.98C304.78,-211.42 335.16,-198.11 357.61,-188.28"/>
<polygon fill="#63b8ff" stroke="#63b8ff" points="359.23,-191.39 366.99,-184.17 356.42,-184.98 359.23,-191.39"/>
</a>
</g>
</g>
<!-- Node14 -->
<g id="Node000014" class="node">
<title>Node14</title>
<g id="a_Node000014"><a xlink:title=" ">
<polygon fill="#e0e0e0" stroke="#999999" points="486.78,-184 428.78,-184 428.78,-165 486.78,-165 486.78,-184"/>
<text text-anchor="middle" x="457.78" y="-172" font-family="Helvetica,sans-Serif" font-size="10.00">memory</text>
</a>
</g>
</g>
<!-- Node1&#45;&gt;Node14 -->
<g id="edge17_Node000001_Node000014" class="edge">
<title>Node1&#45;&gt;Node14</title>
<g id="a_edge17_Node000001_Node000014"><a xlink:title=" ">
<path fill="none" stroke="#63b8ff" d="M296.63,-219.98C329.87,-210.81 382.83,-196.19 418.89,-186.24"/>
<polygon fill="#63b8ff" stroke="#63b8ff" points="419.88,-189.59 428.59,-183.56 418.01,-182.85 419.88,-189.59"/>
</a>
</g>
</g>
<!-- Node3 -->
<g id="Node000003" class="node">
<title>Node3</title>
<g id="a_Node000003"><a xlink:title=" ">
<polygon fill="#e0e0e0" stroke="#999999" points="117.78,-19 65.78,-19 65.78,0 117.78,0 117.78,-19"/>
<text text-anchor="middle" x="91.78" y="-7" font-family="Helvetica,sans-Serif" font-size="10.00">cassert</text>
</a>
</g>
</g>
<!-- Node2&#45;&gt;Node3 -->
<g id="edge2_Node000002_Node000003" class="edge">
<title>Node2&#45;&gt;Node3</title>
<g id="a_edge2_Node000002_Node000003"><a xlink:title=" ">
<path fill="none" stroke="#63b8ff" d="M91.78,-54.75C91.78,-47.8 91.78,-37.85 91.78,-29.13"/>
<polygon fill="#63b8ff" stroke="#63b8ff" points="95.28,-29.09 91.78,-19.09 88.28,-29.09 95.28,-29.09"/>
</a>
</g>
</g>
<!-- Node4&#45;&gt;Node2 -->
<g id="edge4_Node000004_Node000002" class="edge">
<title>Node4&#45;&gt;Node2</title>
<g id="a_edge4_Node000004_Node000002"><a xlink:title=" ">
<path fill="none" stroke="#63b8ff" d="M93.62,-164.66C93.3,-147.17 92.57,-107.8 92.13,-84.27"/>
<polygon fill="#63b8ff" stroke="#63b8ff" points="95.63,-84.09 91.94,-74.16 88.63,-84.22 95.63,-84.09"/>
</a>
</g>
</g>
<!-- Node5 -->
<g id="Node000005" class="node">
<title>Node5</title>
<g id="a_Node000005"><a xlink:href="types_8hpp.html" target="_top" xlink:title=" ">
<polygon fill="white" stroke="#666666" points="301.28,-129 158.28,-129 158.28,-110 301.28,-110 301.28,-129"/>
<text text-anchor="middle" x="229.78" y="-117" font-family="Helvetica,sans-Serif" font-size="10.00">slick/orderbook/types.hpp</text>
</a>
</g>
</g>
<!-- Node4&#45;&gt;Node5 -->
<g id="edge5_Node000004_Node000005" class="edge">
<title>Node4&#45;&gt;Node5</title>
<g id="a_edge5_Node000004_Node000005"><a xlink:title=" ">
<path fill="none" stroke="#63b8ff" d="M115.63,-164.98C137.91,-156.3 172.69,-142.75 198,-132.88"/>
<polygon fill="#63b8ff" stroke="#63b8ff" points="199.49,-136.06 207.54,-129.17 196.95,-129.54 199.49,-136.06"/>
</a>
</g>
</g>
<!-- Node9 -->
<g id="Node000009" class="node">
<title>Node9</title>
<g id="a_Node000009"><a xlink:title=" ">
<polygon fill="#e0e0e0" stroke="#999999" points="63.78,-129 21.78,-129 21.78,-110 63.78,-110 63.78,-129"/>
<text text-anchor="middle" x="42.78" y="-117" font-family="Helvetica,sans-Serif" font-size="10.00">array</text>
</a>
</g>
</g>
<!-- Node4&#45;&gt;Node9 -->
<g id="edge10_Node000004_Node000009" class="edge">
<title>Node4&#45;&gt;Node9</title>
<g id="a_edge10_Node000004_Node000009"><a xlink:title=" ">
<path fill="none" stroke="#63b8ff" d="M85.36,-164.75C78.01,-157.11 67.15,-145.82 58.24,-136.56"/>
<polygon fill="#63b8ff" stroke="#63b8ff" points="60.5,-133.87 51.05,-129.09 55.46,-138.72 60.5,-133.87"/>
</a>
</g>
</g>
<!-- Node5&#45;&gt;Node2 -->
<g id="edge6_Node000005_Node000002" class="edge">
<title>Node5&#45;&gt;Node2</title>
<g id="a_edge6_Node000005_Node000002"><a xlink:title=" ">
<path fill="none" stroke="#63b8ff" d="M207.61,-109.98C185.01,-101.3 149.72,-87.75 124.03,-77.88"/>
<polygon fill="#63b8ff" stroke="#63b8ff" points="124.95,-74.49 114.36,-74.17 122.44,-81.02 124.95,-74.49"/>
</a>
</g>
</g>
<!-- Node6 -->
<g id="Node000006" class="node">
<title>Node6</title>
<g id="a_Node000006"><a xlink:title=" ">
<polygon fill="#e0e0e0" stroke="#999999" points="294.78,-74 244.78,-74 244.78,-55 294.78,-55 294.78,-74"/>
<text text-anchor="middle" x="269.78" y="-62" font-family="Helvetica,sans-Serif" font-size="10.00">cstdint</text>
</a>
</g>
</g>
<!-- Node5&#45;&gt;Node6 -->
<g id="edge7_Node000005_Node000006" class="edge">
<title>Node5&#45;&gt;Node6</title>
<g id="a_edge7_Node000005_Node000006"><a xlink:title=" ">
<path fill="none" stroke="#63b8ff" d="M236.39,-109.75C242.04,-102.26 250.33,-91.28 257.23,-82.13"/>
<polygon fill="#63b8ff" stroke="#63b8ff" points="260.07,-84.18 263.3,-74.09 254.48,-79.96 260.07,-84.18"/>
</a>
</g>
</g>
<!-- Node7 -->
<g id="Node000007" class="node">
<title>Node7</title>
<g id="a_Node000007"><a xlink:title=" ">
<polygon fill="#e0e0e0" stroke="#999999" points="386.28,-74 313.28,-74 313.28,-55 386.28,-55 386.28,-74"/>
<text text-anchor="middle" x="349.78" y="-62" font-family="Helvetica,sans-Serif" font-size="10.00">string_view</text>
</a>
</g>
</g>
<!-- Node5&#45;&gt;Node7 -->
<g id="edge8_Node000005_Node000007" class="edge">
<title>Node5&#45;&gt;Node7</title>
<g id="a_edge8_Node000005_Node000007"><a xlink:title=" ">
<path fill="none" stroke="#63b8ff" d="M249.06,-109.98C268.45,-101.42 298.59,-88.11 320.85,-78.28"/>
<polygon fill="#63b8ff" stroke="#63b8ff" points="322.42,-81.41 330.15,-74.17 319.59,-75.01 322.42,-81.41"/>
</a>
</g>
</g>
<!-- Node8 -->
<g id="Node000008" class="node">
<title>Node8</title>
<g id="a_Node000008"><a xlink:title=" ">
<polygon fill="#e0e0e0" stroke="#999999" points="226.78,-74 182.78,-74 182.78,-55 226.78,-55 226.78,-74"/>
<text text-anchor="middle" x="204.78" y="-62" font-family="Helvetica,sans-Serif" font-size="10.00">limits</text>
</a>
</g>
</g>
<!-- Node5&#45;&gt;Node8 -->
<g id="edge9_Node000005_Node000008" class="edge">
<title>Node5&#45;&gt;Node8</title>
<g id="a_edge9_Node000005_Node000008"><a xlink:title=" ">
<path fill="none" stroke="#63b8ff" d="M225.66,-109.75C222.27,-102.57 217.37,-92.18 213.16,-83.27"/>
<polygon fill="#63b8ff" stroke="#63b8ff" points="216.27,-81.64 208.83,-74.09 209.94,-84.63 216.27,-81.64"/>
</a>
</g>
</g>
<!-- Node10&#45;&gt;Node2 -->
<g id="edge12_Node000010_Node000002" class="edge">
<title>Node10&#45;&gt;Node2</title>
<g id="a_edge12_Node000010_Node000002"><a xlink:title=" ">
<path fill="none" stroke="#63b8ff" d="M230.94,-164.97C206.51,-157.91 173.87,-146.21 148.78,-129 130.35,-116.35 113.84,-96.54 103.39,-82.41"/>
<polygon fill="#63b8ff" stroke="#63b8ff" points="106.1,-80.19 97.44,-74.08 100.4,-84.26 106.1,-80.19"/>
</a>
</g>
</g>
<!-- Node10&#45;&gt;Node5 -->
<g id="edge13_Node000010_Node000005" class="edge">
<title>Node10&#45;&gt;Node5</title>
<g id="a_edge13_Node000010_Node000005"><a xlink:title=" ">
<path fill="none" stroke="#63b8ff" d="M259.84,-164.75C254.81,-157.34 247.45,-146.5 241.27,-137.41"/>
<polygon fill="#63b8ff" stroke="#63b8ff" points="244.13,-135.39 235.62,-129.09 238.34,-139.33 244.13,-135.39"/>
</a>
</g>
</g>
<!-- Node11 -->
<g id="Node000011" class="node">
<title>Node11</title>
<g id="a_Node000011"><a xlink:title=" ">
<polygon fill="#e0e0e0" stroke="#999999" points="379.78,-129 319.78,-129 319.78,-110 379.78,-110 379.78,-129"/>
<text text-anchor="middle" x="349.78" y="-117" font-family="Helvetica,sans-Serif" font-size="10.00">concepts</text>
</a>
</g>
</g>
<!-- Node10&#45;&gt;Node11 -->
<g id="edge14_Node000010_Node000011" class="edge">
<title>Node10&#45;&gt;Node11</title>
<g id="a_edge14_Node000010_Node000011"><a xlink:title=" ">
<path fill="none" stroke="#63b8ff" d="M279.28,-164.98C292.18,-156.84 311.89,-144.41 327.18,-134.76"/>
<polygon fill="#63b8ff" stroke="#63b8ff" points="329.45,-137.47 336.04,-129.17 325.72,-131.55 329.45,-137.47"/>
</a>
</g>
</g>
<!-- Node12 -->
<g id="Node000012" class="node">
<title>Node12</title>
<g id="a_Node000012"><a xlink:title=" ">
<polygon fill="#e0e0e0" stroke="#999999" points="467.28,-129 398.28,-129 398.28,-110 467.28,-110 467.28,-129"/>
<text text-anchor="middle" x="432.78" y="-117" font-family="Helvetica,sans-Serif" font-size="10.00">type_traits</text>
</a>
</g>
</g>
<!-- Node10&#45;&gt;Node12 -->
<g id="edge15_Node000010_Node000012" class="edge">
<title>Node10&#45;&gt;Node12</title>
<g id="a_edge15_Node000010_Node000012"><a xlink:title=" ">
<path fill="none" stroke="#63b8ff" d="M292.61,-164.98C320.65,-156.09 364.83,-142.07 396.08,-132.15"/>
<polygon fill="#63b8ff" stroke="#63b8ff" points="397.27,-135.44 405.74,-129.08 395.15,-128.77 397.27,-135.44"/>
</a>
</g>
</g>
</g>
</svg>
</svg>

<style type='text/css'>
<![CDATA[
[data-mouse-over-selected='false'] { opacity: 0.7; }
[data-mouse-over-selected='true']  { opacity: 1.0; }
]]>
</style>
<script type="application/ecmascript"><![CDATA[
document.addEventListener('DOMContentLoaded', (event) => {
  highlightEdges();
  highlightAdjacentNodes();
});
]]></script>
</svg>
