<?xml version="1.0" encoding="UTF-8" standalone="no"?>
<!DOCTYPE svg PUBLIC "-//W3C//DTD SVG 1.1//EN"
 "http://www.w3.org/Graphics/SVG/1.1/DTD/svg11.dtd">
<!-- Generated by graphviz version 2.43.0 (0)
 -->
<!-- Title: slick/orderbook/orderbook_l2.hpp Pages: 1 -->
<svg width="1081pt" height="335pt"
 viewBox="0.00 0.00 1080.76 335.00" xmlns="http://www.w3.org/2000/svg" xmlns:xlink="http://www.w3.org/1999/xlink">
<g id="graph0" class="graph" transform="scale(1 1) rotate(0) translate(4 331)">
<title>slick/orderbook/orderbook_l2.hpp</title>
<!-- Node1 -->
<g id="Node000001" class="node">
<title>Node1</title>
<g id="a_Node000001"><a xlink:title=" ">
<polygon fill="#999999" stroke="#666666" points="636.76,-327 492.76,-327 492.76,-297 636.76,-297 636.76,-327"/>
<text text-anchor="start" x="500.76" y="-315" font-family="Helvetica,sans-Serif" font-size="10.00">slick/orderbook/orderbook</text>
<text text-anchor="middle" x="564.76" y="-304" font-family="Helvetica,sans-Serif" font-size="10.00">_l2.hpp</text>
</a>
</g>
</g>
<!-- Node2 -->
<g id="Node000002" class="node">
<title>Node2</title>
<g id="a_Node000002"><a xlink:href="config_8hpp.html" target="_top" xlink:title=" ">
<polygon fill="white" stroke="#666666" points="457.26,-74 312.26,-74 312.26,-55 457.26,-55 457.26,-74"/>
<text text-anchor="middle" x="384.76" y="-62" font-family="Helvetica,sans-Serif" font-size="10.00">slick/orderbook/config.hpp</text>
</a>
</g>
</g>
<!-- Node1&#45;&gt;Node2 -->
<g id="edge1_Node000001_Node000002" class="edge">
<title>Node1&#45;&gt;Node2</title>
<g id="a_edge1_Node000001_Node000002"><a xlink:title=" ">
<path fill="none" stroke="#63b8ff" d="M492.59,-308.28C354.2,-301.22 60.84,-276.73 11.76,-195 -53.87,-85.72 172.68,-66.87 301.55,-64.74"/>
<polygon fill="#63b8ff" stroke="#63b8ff" points="301.84,-68.23 311.79,-64.6 301.75,-61.23 301.84,-68.23"/>
</a>
</g>
</g>
<!-- Node4 -->
<g id="Node000004" class="node">
<title>Node4</title>
<g id="a_Node000004"><a xlink:href="types_8hpp.html" target="_top" xlink:title=" ">
<polygon fill="white" stroke="#666666" points="802.26,-129 659.26,-129 659.26,-110 802.26,-110 802.26,-129"/>
<text text-anchor="middle" x="730.76" y="-117" font-family="Helvetica,sans-Serif" font-size="10.00">slick/orderbook/types.hpp</text>
</a>
</g>
</g>
<!-- Node1&#45;&gt;Node4 -->
<g id="edge3_Node000001_Node000004" class="edge">
<title>Node1&#45;&gt;Node4</title>
<g id="a_edge3_Node000001_Node000004"><a xlink:title=" ">
<path fill="none" stroke="#63b8ff" d="M637.08,-297.92C730.46,-279.32 884.73,-242.19 915.76,-195 944.55,-151.22 874.66,-133.17 812.7,-125.72"/>
<polygon fill="#63b8ff" stroke="#63b8ff" points="812.77,-122.21 802.44,-124.58 811.99,-129.17 812.77,-122.21"/>
</a>
</g>
</g>
<!-- Node8 -->
<g id="Node000008" class="node">
<title>Node8</title>
<g id="a_Node000008"><a xlink:href="events_8hpp.html" target="_top" xlink:title=" ">
<polygon fill="white" stroke="#666666" points="459.26,-189.5 310.26,-189.5 310.26,-170.5 459.26,-170.5 459.26,-189.5"/>
<text text-anchor="middle" x="384.76" y="-177.5" font-family="Helvetica,sans-Serif" font-size="10.00">slick/orderbook/events.hpp</text>
</a>
</g>
</g>
<!-- Node1&#45;&gt;Node8 -->
<g id="edge8_Node000001_Node000008" class="edge">
<title>Node1&#45;&gt;Node8</title>
<g id="a_edge8_Node000001_Node000008"><a xlink:title=" ">
<path fill="none" stroke="#63b8ff" d="M545.15,-296.84C510.86,-272.07 440.31,-221.12 405.34,-195.87"/>
<polygon fill="#63b8ff" stroke="#63b8ff" points="407.03,-192.77 396.87,-189.75 402.93,-198.44 407.03,-192.77"/>
</a>
</g>
</g>
<!-- Node9 -->
<g id="Node000009" class="node">
<title>Node9</title>
<g id="a_Node000009"><a xlink:href="observer_8hpp.html" target="_top" xlink:title=" ">
<polygon fill="white" stroke="#666666" points="379.76,-255.5 221.76,-255.5 221.76,-236.5 379.76,-236.5 379.76,-255.5"/>
<text text-anchor="middle" x="300.76" y="-243.5" font-family="Helvetica,sans-Serif" font-size="10.00">slick/orderbook/observer.hpp</text>
</a>
</g>
</g>
<!-- Node1&#45;&gt;Node9 -->
<g id="edge11_Node000001_Node000009" class="edge">
<title>Node1&#45;&gt;Node9</title>
<g id="a_edge11_Node000001_Node000009"><a xlink:title=" ">
<path fill="none" stroke="#63b8ff" d="M506.82,-296.95C458.38,-285.21 390.27,-268.7 345.83,-257.93"/>
<polygon fill="#63b8ff" stroke="#63b8ff" points="346.44,-254.47 335.89,-255.52 344.79,-261.27 346.44,-254.47"/>
</a>
</g>
</g>
<!-- Node13 -->
<g id="Node000013" class="node">
<title>Node13</title>
<g id="a_Node000013"><a xlink:title=" ">
<polygon fill="#e0e0e0" stroke="#999999" points="524.26,-189.5 477.26,-189.5 477.26,-170.5 524.26,-170.5 524.26,-189.5"/>
<text text-anchor="middle" x="500.76" y="-177.5" font-family="Helvetica,sans-Serif" font-size="10.00">vector</text>
</a>
</g>
</g>
<!-- Node1&#45;&gt;Node13 -->
<g id="edge32_Node000001_Node000013" class="edge">
<title>Node1&#45;&gt;Node13</title>
<g id="a_edge32_Node000001_Node000013"><a xlink:title=" ">
<path fill="none" stroke="#63b8ff" d="M557.79,-296.84C546.06,-273.02 522.41,-224.99 509.56,-198.88"/>
<polygon fill="#63b8ff" stroke="#63b8ff" points="512.62,-197.17 505.07,-189.75 506.34,-200.27 512.62,-197.17"/>
</a>
</g>
</g>
<!-- Node14 -->
<g id="Node000014" class="node">
<title>Node14</title>
<g id="a_Node000014"><a xlink:title=" ">
<polygon fill="#e0e0e0" stroke="#999999" points="78.76,-189.5 20.76,-189.5 20.76,-170.5 78.76,-170.5 78.76,-189.5"/>
<text text-anchor="middle" x="49.76" y="-177.5" font-family="Helvetica,sans-Serif" font-size="10.00">memory</text>
</a>
</g>
</g>
<!-- Node1&#45;&gt;Node14 -->
<g id="edge31_Node000001_Node000014" class="edge">
<title>Node1&#45;&gt;Node14</title>
<g id="a_edge31_Node000001_Node000014"><a xlink:title=" ">
<path fill="none" stroke="#63b8ff" d="M492.53,-307.39C420.34,-302.25 306.85,-289.97 212.76,-261 159.79,-244.69 102.7,-213.05 72.13,-194.83"/>
<polygon fill="#63b8ff" stroke="#63b8ff" points="73.9,-191.81 63.53,-189.64 70.28,-197.8 73.9,-191.81"/>
</a>
</g>
</g>
<!-- Node15 -->
<g id="Node000015" class="node">
<title>Node15</title>
<g id="a_Node000015"><a xlink:href="price__level__l2_8hpp.html" target="_top" xlink:title=" ">
<polygon fill="white" stroke="#666666" points="664.76,-195 542.76,-195 542.76,-165 664.76,-165 664.76,-195"/>
<text text-anchor="start" x="550.76" y="-183" font-family="Helvetica,sans-Serif" font-size="10.00">slick/orderbook/detail</text>
<text text-anchor="middle" x="603.76" y="-172" font-family="Helvetica,sans-Serif" font-size="10.00">/price_level_l2.hpp</text>
</a>
</g>
</g>
<!-- Node1&#45;&gt;Node15 -->
<g id="edge21_Node000001_Node000015" class="edge">
<title>Node1&#45;&gt;Node15</title>
<g id="a_edge21_Node000001_Node000015"><a xlink:title=" ">
<path fill="none" stroke="#63b8ff" d="M569.01,-296.84C575.63,-274.76 588.49,-231.89 596.58,-204.94"/>
<polygon fill="#63b8ff" stroke="#63b8ff" points="600,-205.73 599.52,-195.14 593.29,-203.71 600,-205.73"/>
</a>
</g>
</g>
<!-- Node16 -->
<g id="Node000016" class="node">
<title>Node16</title>
<g id="a_Node000016"><a xlink:href="level__container_8hpp.html" target="_top" xlink:title=" ">
<polygon fill="white" stroke="#666666" points="753.76,-261 631.76,-261 631.76,-231 753.76,-231 753.76,-261"/>
<text text-anchor="start" x="639.76" y="-249" font-family="Helvetica,sans-Serif" font-size="10.00">slick/orderbook/detail</text>
<text text-anchor="middle" x="692.76" y="-238" font-family="Helvetica,sans-Serif" font-size="10.00">/level_container.hpp</text>
</a>
</g>
</g>
<!-- Node1&#45;&gt;Node16 -->
<g id="edge24_Node000001_Node000016" class="edge">
<title>Node1&#45;&gt;Node16</title>
<g id="a_edge24_Node000001_Node000016"><a xlink:title=" ">
<path fill="none" stroke="#63b8ff" d="M592.85,-296.95C611.27,-287.74 635.57,-275.6 655.59,-265.59"/>
<polygon fill="#63b8ff" stroke="#63b8ff" points="657.36,-268.61 664.74,-261.01 654.23,-262.35 657.36,-268.61"/>
</a>
</g>
</g>
<!-- Node19 -->
<g id="Node000019" class="node">
<title>Node19</title>
<g id="a_Node000019"><a xlink:title=" ">
<polygon fill="#e0e0e0" stroke="#999999" points="1004.76,-255.5 962.76,-255.5 962.76,-236.5 1004.76,-236.5 1004.76,-255.5"/>
<text text-anchor="middle" x="983.76" y="-243.5" font-family="Helvetica,sans-Serif" font-size="10.00">array</text>
</a>
</g>
</g>
<!-- Node1&#45;&gt;Node19 -->
<g id="edge33_Node000001_Node000019" class="edge">
<title>Node1&#45;&gt;Node19</title>
<g id="a_edge33_Node000001_Node000019"><a xlink:title=" ">
<path fill="none" stroke="#63b8ff" d="M636.91,-307.02C714.87,-301.47 842.23,-288.77 948.76,-261 950.92,-260.44 953.13,-259.77 955.33,-259.05"/>
<polygon fill="#63b8ff" stroke="#63b8ff" points="956.61,-262.31 964.8,-255.59 954.2,-255.74 956.61,-262.31"/>
</a>
</g>
</g>
<!-- Node20 -->
<g id="Node000020" class="node">
<title>Node20</title>
<g id="a_Node000020"><a xlink:title=" ">
<polygon fill="#e0e0e0" stroke="#999999" points="1072.76,-255.5 1022.76,-255.5 1022.76,-236.5 1072.76,-236.5 1072.76,-255.5"/>
<text text-anchor="middle" x="1047.76" y="-243.5" font-family="Helvetica,sans-Serif" font-size="10.00">atomic</text>
</a>
</g>
</g>
<!-- Node1&#45;&gt;Node20 -->
<g id="edge34_Node000001_Node000020" class="edge">
<title>Node1&#45;&gt;Node20</title>
<g id="a_edge34_Node000001_Node000020"><a xlink:title=" ">
<path fill="none" stroke="#63b8ff" d="M637.02,-309.15C726.69,-305.44 883.64,-294.33 1013.76,-261 1015.92,-260.45 1018.12,-259.78 1020.32,-259.05"/>
<polygon fill="#63b8ff" stroke="#63b8ff" points="1021.6,-262.31 1029.73,-255.52 1019.14,-255.76 1021.6,-262.31"/>
</a>
</g>
</g>
<!-- Node3 -->
<g id="Node000003" class="node">
<title>Node3</title>
<g id="a_Node000003"><a xlink:title=" ">
<polygon fill="#e0e0e0" stroke="#999999" points="410.76,-19 358.76,-19 358.76,0 410.76,0 410.76,-19"/>
<text text-anchor="middle" x="384.76" y="-7" font-family="Helvetica,sans-Serif" font-size="10.00">cassert</text>
</a>
</g>
</g>
<!-- Node2&#45;&gt;Node3 -->
<g id="edge2_Node000002_Node000003" class="edge">
<title>Node2&#45;&gt;Node3</title>
<g id="a_edge2_Node000002_Node000003"><a xlink:title=" ">
<path fill="none" stroke="#63b8ff" d="M384.76,-54.75C384.76,-47.8 384.76,-37.85 384.76,-29.13"/>
<polygon fill="#63b8ff" stroke="#63b8ff" points="388.26,-29.09 384.76,-19.09 381.26,-29.09 388.26,-29.09"/>
</a>
</g>
</g>
<!-- Node4&#45;&gt;Node2 -->
<g id="edge4_Node000004_Node000002" class="edge">
<title>Node4&#45;&gt;Node2</title>
<g id="a_edge4_Node000004_Node000002"><a xlink:title=" ">
<path fill="none" stroke="#63b8ff" d="M675.17,-109.98C613.97,-100.61 515.66,-85.55 450.64,-75.59"/>
<polygon fill="#63b8ff" stroke="#63b8ff" points="450.91,-72.09 440.5,-74.04 449.85,-79.01 450.91,-72.09"/>
</a>
</g>
</g>
<!-- Node5 -->
<g id="Node000005" class="node">
<title>Node5</title>
<g id="a_Node000005"><a xlink:title=" ">
<polygon fill="#e0e0e0" stroke="#999999" points="755.76,-74 705.76,-74 705.76,-55 755.76,-55 755.76,-74"/>
<text text-anchor="middle" x="730.76" y="-62" font-family="Helvetica,sans-Serif" font-size="10.00">cstdint</text>
</a>
</g>
</g>
<!-- Node4&#45;&gt;Node5 -->
<g id="edge5_Node000004_Node000005" class="edge">
<title>Node4&#45;&gt;Node5</title>
<g id="a_edge5_Node000004_Node000005"><a xlink:title=" ">
<path fill="none" stroke="#63b8ff" d="M730.76,-109.75C730.76,-102.8 730.76,-92.85 730.76,-84.13"/>
<polygon fill="#63b8ff" stroke="#63b8ff" points="734.26,-84.09 730.76,-74.09 727.26,-84.09 734.26,-84.09"/>
</a>
</g>
</g>
<!-- Node6 -->
<g id="Node000006" class="node">
<title>Node6</title>
<g id="a_Node000006"><a xlink:title=" ">
<polygon fill="#e0e0e0" stroke="#999999" points="847.26,-74 774.26,-74 774.26,-55 847.26,-55 847.26,-74"/>
<text text-anchor="middle" x="810.76" y="-62" font-family="Helvetica,sans-Serif" font-size="10.00">string_view</text>
</a>
</g>
</g>
<!-- Node4&#45;&gt;Node6 -->
<g id="edge6_Node000004_Node000006" class="edge">
<title>Node4&#45;&gt;Node6</title>
<g id="a_edge6_Node000004_Node000006"><a xlink:title=" ">
<path fill="none" stroke="#63b8ff" d="M743.61,-109.98C755.9,-101.84 774.67,-89.41 789.24,-79.76"/>
<polygon fill="#63b8ff" stroke="#63b8ff" points="791.27,-82.61 797.67,-74.17 787.4,-76.78 791.27,-82.61"/>
</a>
</g>
</g>
<!-- Node7 -->
<g id="Node000007" class="node">
<title>Node7</title>
<g id="a_Node000007"><a xlink:title=" ">
<polygon fill="#e0e0e0" stroke="#999999" points="687.76,-74 643.76,-74 643.76,-55 687.76,-55 687.76,-74"/>
<text text-anchor="middle" x="665.76" y="-62" font-family="Helvetica,sans-Serif" font-size="10.00">limits</text>
</a>
</g>
</g>
<!-- Node4&#45;&gt;Node7 -->
<g id="edge7_Node000004_Node000007" class="edge">
<title>Node4&#45;&gt;Node7</title>
<g id="a_edge7_Node000004_Node000007"><a xlink:title=" ">
<path fill="none" stroke="#63b8ff" d="M720.32,-109.98C710.61,-102.07 695.94,-90.11 684.26,-80.58"/>
<polygon fill="#63b8ff" stroke="#63b8ff" points="686.36,-77.78 676.39,-74.17 681.93,-83.2 686.36,-77.78"/>
</a>
</g>
</g>
<!-- Node8&#45;&gt;Node2 -->
<g id="edge9_Node000008_Node000002" class="edge">
<title>Node8&#45;&gt;Node2</title>
<g id="a_edge9_Node000008_Node000002"><a xlink:title=" ">
<path fill="none" stroke="#63b8ff" d="M384.76,-170.47C384.76,-152.23 384.76,-109.07 384.76,-84.14"/>
<polygon fill="#63b8ff" stroke="#63b8ff" points="388.26,-84.13 384.76,-74.13 381.26,-84.13 388.26,-84.13"/>
</a>
</g>
</g>
<!-- Node8&#45;&gt;Node4 -->
<g id="edge10_Node000008_Node000004" class="edge">
<title>Node8&#45;&gt;Node4</title>
<g id="a_edge10_Node000008_Node000004"><a xlink:title=" ">
<path fill="none" stroke="#63b8ff" d="M435.07,-170.49C497.47,-159.94 603.73,-141.98 670.44,-130.7"/>
<polygon fill="#63b8ff" stroke="#63b8ff" points="671.11,-134.13 680.39,-129.02 669.94,-127.23 671.11,-134.13"/>
</a>
</g>
</g>
<!-- Node9&#45;&gt;Node2 -->
<g id="edge12_Node000009_Node000002" class="edge">
<title>Node9&#45;&gt;Node2</title>
<g id="a_edge12_Node000009_Node000002"><a xlink:title=" ">
<path fill="none" stroke="#63b8ff" d="M299.02,-236.25C296.41,-221.16 292.71,-189.5 301.76,-165 314.71,-129.95 345.8,-98.49 366.04,-80.72"/>
<polygon fill="#63b8ff" stroke="#63b8ff" points="368.37,-83.33 373.71,-74.18 363.83,-78.01 368.37,-83.33"/>
</a>
</g>
</g>
<!-- Node9&#45;&gt;Node8 -->
<g id="edge13_Node000009_Node000008" class="edge">
<title>Node9&#45;&gt;Node8</title>
<g id="a_edge13_Node000009_Node000008"><a xlink:title=" ">
<path fill="none" stroke="#63b8ff" d="M312.09,-236.37C325.62,-226.06 348.48,-208.65 364.95,-196.09"/>
<polygon fill="#63b8ff" stroke="#63b8ff" points="367.51,-198.54 373.34,-189.7 363.27,-192.98 367.51,-198.54"/>
</a>
</g>
</g>
<!-- Node10 -->
<g id="Node000010" class="node">
<title>Node10</title>
<g id="a_Node000010"><a xlink:href="concepts_8hpp.html" target="_top" xlink:title=" ">
<polygon fill="white" stroke="#666666" points="255.26,-189.5 96.26,-189.5 96.26,-170.5 255.26,-170.5 255.26,-189.5"/>
<text text-anchor="middle" x="175.76" y="-177.5" font-family="Helvetica,sans-Serif" font-size="10.00">slick/orderbook/concepts.hpp</text>
</a>
</g>
</g>
<!-- Node9&#45;&gt;Node10 -->
<g id="edge14_Node000009_Node000010" class="edge">
<title>Node9&#45;&gt;Node10</title>
<g id="a_edge14_Node000009_Node000010"><a xlink:title=" ">
<path fill="none" stroke="#63b8ff" d="M283.9,-236.37C262.84,-225.59 226.57,-207.02 201.9,-194.38"/>
<polygon fill="#63b8ff" stroke="#63b8ff" points="203.25,-191.14 192.75,-189.7 200.06,-197.37 203.25,-191.14"/>
</a>
</g>
</g>
<!-- Node9&#45;&gt;Node13 -->
<g id="edge19_Node000009_Node000013" class="edge">
<title>Node9&#45;&gt;Node13</title>
<g id="a_edge19_Node000009_Node000013"><a xlink:title=" ">
<path fill="none" stroke="#63b8ff" d="M333.67,-236.5C367.83,-227.37 422.61,-211.89 468.76,-195 470.15,-194.49 471.56,-193.95 472.98,-193.4"/>
<polygon fill="#63b8ff" stroke="#63b8ff" points="474.4,-196.6 482.3,-189.54 471.73,-190.13 474.4,-196.6"/>
</a>
</g>
</g>
<!-- Node9&#45;&gt;Node14 -->
<g id="edge20_Node000009_Node000014" class="edge">
<title>Node9&#45;&gt;Node14</title>
<g id="a_edge20_Node000009_Node000014"><a xlink:title=" ">
<path fill="none" stroke="#63b8ff" d="M256.45,-236.43C212.86,-227.59 144.61,-212.62 86.76,-195 84.84,-194.41 82.87,-193.78 80.9,-193.12"/>
<polygon fill="#63b8ff" stroke="#63b8ff" points="81.71,-189.69 71.12,-189.63 79.36,-196.28 81.71,-189.69"/>
</a>
</g>
</g>
<!-- Node10&#45;&gt;Node2 -->
<g id="edge15_Node000010_Node000002" class="edge">
<title>Node10&#45;&gt;Node2</title>
<g id="a_edge15_Node000010_Node000002"><a xlink:title=" ">
<path fill="none" stroke="#63b8ff" d="M185.47,-170.38C201.74,-156.27 235.98,-128 268.76,-110 293.57,-96.37 323.43,-85.02 346.65,-77.19"/>
<polygon fill="#63b8ff" stroke="#63b8ff" points="347.75,-80.51 356.15,-74.06 345.56,-73.87 347.75,-80.51"/>
</a>
</g>
</g>
<!-- Node10&#45;&gt;Node4 -->
<g id="edge16_Node000010_Node000004" class="edge">
<title>Node10&#45;&gt;Node4</title>
<g id="a_edge16_Node000010_Node000004"><a xlink:title=" ">
<path fill="none" stroke="#63b8ff" d="M251.71,-170.47C268.21,-168.64 285.57,-166.74 301.76,-165 422.61,-152.02 562.68,-137.61 649.02,-128.8"/>
<polygon fill="#63b8ff" stroke="#63b8ff" points="649.42,-132.28 659.01,-127.78 648.71,-125.31 649.42,-132.28"/>
</a>
</g>
</g>
<!-- Node11 -->
<g id="Node000011" class="node">
<title>Node11</title>
<g id="a_Node000011"><a xlink:title=" ">
<polygon fill="#e0e0e0" stroke="#999999" points="123.76,-129 63.76,-129 63.76,-110 123.76,-110 123.76,-129"/>
<text text-anchor="middle" x="93.76" y="-117" font-family="Helvetica,sans-Serif" font-size="10.00">concepts</text>
</a>
</g>
</g>
<!-- Node10&#45;&gt;Node11 -->
<g id="edge17_Node000010_Node000011" class="edge">
<title>Node10&#45;&gt;Node11</title>
<g id="a_edge17_Node000010_Node000011"><a xlink:title=" ">
<path fill="none" stroke="#63b8ff" d="M163.66,-170.37C150.7,-161.12 129.9,-146.28 114.36,-135.19"/>
<polygon fill="#63b8ff" stroke="#63b8ff" points="116.08,-132.13 105.91,-129.17 112.02,-137.82 116.08,-132.13"/>
</a>
</g>
</g>
<!-- Node12 -->
<g id="Node000012" class="node">
<title>Node12</title>
<g id="a_Node000012"><a xlink:title=" ">
<polygon fill="#e0e0e0" stroke="#999999" points="211.26,-129 142.26,-129 142.26,-110 211.26,-110 211.26,-129"/>
<text text-anchor="middle" x="176.76" y="-117" font-family="Helvetica,sans-Serif" font-size="10.00">type_traits</text>
</a>
</g>
</g>
<!-- Node10&#45;&gt;Node12 -->
<g id="edge18_Node000010_Node000012" class="edge">
<title>Node10&#45;&gt;Node12</title>
<g id="a_edge18_Node000010_Node000012"><a xlink:title=" ">
<path fill="none" stroke="#63b8ff" d="M175.91,-170.37C176.05,-162.25 176.26,-149.81 176.44,-139.39"/>
<polygon fill="#63b8ff" stroke="#63b8ff" points="179.94,-139.23 176.61,-129.17 172.94,-139.11 179.94,-139.23"/>
</a>
</g>
</g>
<!-- Node15&#45;&gt;Node2 -->
<g id="edge22_Node000015_Node000002" class="edge">
<title>Node15&#45;&gt;Node2</title>
<g id="a_edge22_Node000015_Node000002"><a xlink:title=" ">
<path fill="none" stroke="#63b8ff" d="M576.47,-164.85C533.81,-142.75 451.93,-100.31 410.35,-78.76"/>
<polygon fill="#63b8ff" stroke="#63b8ff" points="411.89,-75.62 401.4,-74.12 408.67,-81.83 411.89,-75.62"/>
</a>
</g>
</g>
<!-- Node15&#45;&gt;Node4 -->
<g id="edge23_Node000015_Node000004" class="edge">
<title>Node15&#45;&gt;Node4</title>
<g id="a_edge23_Node000015_Node000004"><a xlink:title=" ">
<path fill="none" stroke="#63b8ff" d="M634.18,-164.99C654.99,-155.4 682.38,-142.79 702.67,-133.44"/>
<polygon fill="#63b8ff" stroke="#63b8ff" points="704.39,-136.5 712,-129.14 701.46,-130.14 704.39,-136.5"/>
</a>
</g>
</g>
<!-- Node16&#45;&gt;Node2 -->
<g id="edge25_Node000016_Node000002" class="edge">
<title>Node16&#45;&gt;Node2</title>
<g id="a_edge25_Node000016_Node000002"><a xlink:title=" ">
<path fill="none" stroke="#63b8ff" d="M693.29,-231C693.19,-213.4 690.34,-183.3 673.76,-165 621.08,-106.87 532.86,-82.69 467.72,-72.64"/>
<polygon fill="#63b8ff" stroke="#63b8ff" points="467.87,-69.13 457.47,-71.15 466.86,-76.06 467.87,-69.13"/>
</a>
</g>
</g>
<!-- Node16&#45;&gt;Node4 -->
<g id="edge26_Node000016_Node000004" class="edge">
<title>Node16&#45;&gt;Node4</title>
<g id="a_edge26_Node000016_Node000004"><a xlink:title=" ">
<path fill="none" stroke="#63b8ff" d="M697.12,-230.72C704.05,-208.02 717.57,-163.72 725.19,-138.75"/>
<polygon fill="#63b8ff" stroke="#63b8ff" points="728.57,-139.66 728.14,-129.07 721.88,-137.61 728.57,-139.66"/>
</a>
</g>
</g>
<!-- Node16&#45;&gt;Node13 -->
<g id="edge28_Node000016_Node000013" class="edge">
<title>Node16&#45;&gt;Node13</title>
<g id="a_edge28_Node000016_Node000013"><a xlink:title=" ">
<path fill="none" stroke="#63b8ff" d="M643.99,-230.99C612.32,-221.57 570.28,-208.45 533.76,-195 532.37,-194.49 530.96,-193.95 529.54,-193.4"/>
<polygon fill="#63b8ff" stroke="#63b8ff" points="530.76,-190.12 520.18,-189.61 528.13,-196.61 530.76,-190.12"/>
</a>
</g>
</g>
<!-- Node16&#45;&gt;Node15 -->
<g id="edge27_Node000016_Node000015" class="edge">
<title>Node16&#45;&gt;Node15</title>
<g id="a_edge27_Node000016_Node000015"><a xlink:title=" ">
<path fill="none" stroke="#63b8ff" d="M673.01,-230.8C660.91,-222.1 645.23,-210.82 631.85,-201.2"/>
<polygon fill="#63b8ff" stroke="#63b8ff" points="633.62,-198.16 623.46,-195.16 629.53,-203.84 633.62,-198.16"/>
</a>
</g>
</g>
<!-- Node17 -->
<g id="Node000017" class="node">
<title>Node17</title>
<g id="a_Node000017"><a xlink:title=" ">
<polygon fill="#e0e0e0" stroke="#999999" points="822.76,-189.5 758.76,-189.5 758.76,-170.5 822.76,-170.5 822.76,-189.5"/>
<text text-anchor="middle" x="790.76" y="-177.5" font-family="Helvetica,sans-Serif" font-size="10.00">algorithm</text>
</a>
</g>
</g>
<!-- Node16&#45;&gt;Node17 -->
<g id="edge29_Node000016_Node000017" class="edge">
<title>Node16&#45;&gt;Node17</title>
<g id="a_edge29_Node000016_Node000017"><a xlink:title=" ">
<path fill="none" stroke="#63b8ff" d="M714.51,-230.8C730.63,-220.27 752.52,-205.97 768.71,-195.4"/>
<polygon fill="#63b8ff" stroke="#63b8ff" points="771.04,-198.06 777.5,-189.66 767.22,-192.2 771.04,-198.06"/>
</a>
</g>
</g>
<!-- Node18 -->
<g id="Node000018" class="node">
<title>Node18</title>
<g id="a_Node000018"><a xlink:title=" ">
<polygon fill="#e0e0e0" stroke="#999999" points="906.26,-189.5 841.26,-189.5 841.26,-170.5 906.26,-170.5 906.26,-189.5"/>
<text text-anchor="middle" x="873.76" y="-177.5" font-family="Helvetica,sans-Serif" font-size="10.00">functional</text>
</a>
</g>
</g>
<!-- Node16&#45;&gt;Node18 -->
<g id="edge30_Node000016_Node000018" class="edge">
<title>Node16&#45;&gt;Node18</title>
<g id="a_edge30_Node000016_Node000018"><a xlink:title=" ">
<path fill="none" stroke="#63b8ff" d="M732.48,-230.95C764.64,-219.58 809.46,-203.74 839.93,-192.96"/>
<polygon fill="#63b8ff" stroke="#63b8ff" points="841.41,-196.15 849.67,-189.52 839.08,-189.55 841.41,-196.15"/>
</a>
</g>
</g>
</g>
</svg>
