<?xml version="1.0" encoding="UTF-8" standalone="no"?>
<!DOCTYPE svg PUBLIC "-//W3C//DTD SVG 1.1//EN"
 "http://www.w3.org/Graphics/SVG/1.1/DTD/svg11.dtd">
<!-- Generated by graphviz version 2.43.0 (0)
 -->
<!-- Title: slick/orderbook/orderbook_l3.hpp Pages: 1 -->
<svg width="1855pt" height="335pt"
 viewBox="0.00 0.00 1854.50 335.00" xmlns="http://www.w3.org/2000/svg" xmlns:xlink="http://www.w3.org/1999/xlink">
<g id="graph0" class="graph" transform="scale(1 1) rotate(0) translate(4 331)">
<title>slick/orderbook/orderbook_l3.hpp</title>
<!-- Node1 -->
<g id="Node000001" class="node">
<title>Node1</title>
<g id="a_Node000001"><a xlink:title=" ">
<polygon fill="#999999" stroke="#666666" points="1199,-327 1055,-327 1055,-297 1199,-297 1199,-327"/>
<text text-anchor="start" x="1063" y="-315" font-family="Helvetica,sans-Serif" font-size="10.00">slick/orderbook/orderbook</text>
<text text-anchor="middle" x="1127" y="-304" font-family="Helvetica,sans-Serif" font-size="10.00">_l3.hpp</text>
</a>
</g>
</g>
<!-- Node2 -->
<g id="Node000002" class="node">
<title>Node2</title>
<g id="a_Node000002"><a xlink:href="config_8hpp.html" target="_top" xlink:title=" ">
<polygon fill="white" stroke="#666666" points="795.5,-74 650.5,-74 650.5,-55 795.5,-55 795.5,-74"/>
<text text-anchor="middle" x="723" y="-62" font-family="Helvetica,sans-Serif" font-size="10.00">slick/orderbook/config.hpp</text>
</a>
</g>
</g>
<!-- Node1&#45;&gt;Node2 -->
<g id="edge1_Node000001_Node000002" class="edge">
<title>Node1&#45;&gt;Node2</title>
<g id="a_edge1_Node000001_Node000002"><a xlink:title=" ">
<path fill="none" stroke="#63b8ff" d="M1199.17,-306.57C1247.28,-301.04 1310.53,-288.67 1360,-261 1423.32,-225.58 1472.12,-162.45 1422,-110 1401.01,-88.04 986.71,-73.24 806.05,-67.81"/>
<polygon fill="#63b8ff" stroke="#63b8ff" points="805.9,-64.31 795.8,-67.51 805.69,-71.3 805.9,-64.31"/>
</a>
</g>
</g>
<!-- Node4 -->
<g id="Node000004" class="node">
<title>Node4</title>
<g id="a_Node000004"><a xlink:href="types_8hpp.html" target="_top" xlink:title=" ">
<polygon fill="white" stroke="#666666" points="368.5,-129 225.5,-129 225.5,-110 368.5,-110 368.5,-129"/>
<text text-anchor="middle" x="297" y="-117" font-family="Helvetica,sans-Serif" font-size="10.00">slick/orderbook/types.hpp</text>
</a>
</g>
</g>
<!-- Node1&#45;&gt;Node4 -->
<g id="edge3_Node000001_Node000004" class="edge">
<title>Node1&#45;&gt;Node4</title>
<g id="a_edge3_Node000001_Node000004"><a xlink:title=" ">
<path fill="none" stroke="#63b8ff" d="M1054.9,-309.62C861.2,-305.52 339.29,-291.74 268,-261 219.51,-240.09 169.32,-209.34 198,-165 208.19,-149.25 225.43,-139.02 242.69,-132.4"/>
<polygon fill="#63b8ff" stroke="#63b8ff" points="243.94,-135.67 252.24,-129.08 241.64,-129.05 243.94,-135.67"/>
</a>
</g>
</g>
<!-- Node8 -->
<g id="Node000008" class="node">
<title>Node8</title>
<g id="a_Node000008"><a xlink:href="events_8hpp.html" target="_top" xlink:title=" ">
<polygon fill="white" stroke="#666666" points="730.5,-189.5 581.5,-189.5 581.5,-170.5 730.5,-170.5 730.5,-189.5"/>
<text text-anchor="middle" x="656" y="-177.5" font-family="Helvetica,sans-Serif" font-size="10.00">slick/orderbook/events.hpp</text>
</a>
</g>
</g>
<!-- Node1&#45;&gt;Node8 -->
<g id="edge8_Node000001_Node000008" class="edge">
<title>Node1&#45;&gt;Node8</title>
<g id="a_edge8_Node000001_Node000008"><a xlink:title=" ">
<path fill="none" stroke="#63b8ff" d="M1054.8,-306.06C989.95,-300.1 892.8,-287.38 812,-261 761.35,-244.46 707.03,-213.13 677.74,-194.98"/>
<polygon fill="#63b8ff" stroke="#63b8ff" points="679.47,-191.93 669.14,-189.58 675.75,-197.86 679.47,-191.93"/>
</a>
</g>
</g>
<!-- Node9 -->
<g id="Node000009" class="node">
<title>Node9</title>
<g id="a_Node000009"><a xlink:href="observer_8hpp.html" target="_top" xlink:title=" ">
<polygon fill="white" stroke="#666666" points="979,-255.5 821,-255.5 821,-236.5 979,-236.5 979,-255.5"/>
<text text-anchor="middle" x="900" y="-243.5" font-family="Helvetica,sans-Serif" font-size="10.00">slick/orderbook/observer.hpp</text>
</a>
</g>
</g>
<!-- Node1&#45;&gt;Node9 -->
<g id="edge11_Node000001_Node000009" class="edge">
<title>Node1&#45;&gt;Node9</title>
<g id="a_edge11_Node000001_Node000009"><a xlink:title=" ">
<path fill="none" stroke="#63b8ff" d="M1077.18,-296.95C1035.97,-285.34 978.2,-269.05 939.96,-258.27"/>
<polygon fill="#63b8ff" stroke="#63b8ff" points="940.78,-254.86 930.21,-255.52 938.88,-261.6 940.78,-254.86"/>
</a>
</g>
</g>
<!-- Node13 -->
<g id="Node000013" class="node">
<title>Node13</title>
<g id="a_Node000013"><a xlink:title=" ">
<polygon fill="#e0e0e0" stroke="#999999" points="1150.5,-189.5 1103.5,-189.5 1103.5,-170.5 1150.5,-170.5 1150.5,-189.5"/>
<text text-anchor="middle" x="1127" y="-177.5" font-family="Helvetica,sans-Serif" font-size="10.00">vector</text>
</a>
</g>
</g>
<!-- Node1&#45;&gt;Node13 -->
<g id="edge56_Node000001_Node000013" class="edge">
<title>Node1&#45;&gt;Node13</title>
<g id="a_edge56_Node000001_Node000013"><a xlink:title=" ">
<path fill="none" stroke="#63b8ff" d="M1127,-296.84C1127,-273.34 1127,-226.26 1127,-199.93"/>
<polygon fill="#63b8ff" stroke="#63b8ff" points="1130.5,-199.75 1127,-189.75 1123.5,-199.75 1130.5,-199.75"/>
</a>
</g>
</g>
<!-- Node14 -->
<g id="Node000014" class="node">
<title>Node14</title>
<g id="a_Node000014"><a xlink:title=" ">
<polygon fill="#e0e0e0" stroke="#999999" points="1227,-189.5 1169,-189.5 1169,-170.5 1227,-170.5 1227,-189.5"/>
<text text-anchor="middle" x="1198" y="-177.5" font-family="Helvetica,sans-Serif" font-size="10.00">memory</text>
</a>
</g>
</g>
<!-- Node1&#45;&gt;Node14 -->
<g id="edge54_Node000001_Node000014" class="edge">
<title>Node1&#45;&gt;Node14</title>
<g id="a_edge54_Node000001_Node000014"><a xlink:title=" ">
<path fill="none" stroke="#63b8ff" d="M1134.73,-296.84C1147.8,-272.92 1174.21,-224.56 1188.42,-198.53"/>
<polygon fill="#63b8ff" stroke="#63b8ff" points="1191.5,-200.2 1193.22,-189.75 1185.36,-196.85 1191.5,-200.2"/>
</a>
</g>
</g>
<!-- Node15 -->
<g id="Node000015" class="node">
<title>Node15</title>
<g id="a_Node000015"><a xlink:href="price__level__l2_8hpp.html" target="_top" xlink:title=" ">
<polygon fill="white" stroke="#666666" points="122,-195 0,-195 0,-165 122,-165 122,-195"/>
<text text-anchor="start" x="8" y="-183" font-family="Helvetica,sans-Serif" font-size="10.00">slick/orderbook/detail</text>
<text text-anchor="middle" x="61" y="-172" font-family="Helvetica,sans-Serif" font-size="10.00">/price_level_l2.hpp</text>
</a>
</g>
</g>
<!-- Node1&#45;&gt;Node15 -->
<g id="edge21_Node000001_Node000015" class="edge">
<title>Node1&#45;&gt;Node15</title>
<g id="a_edge21_Node000001_Node000015"><a xlink:title=" ">
<path fill="none" stroke="#63b8ff" d="M1054.69,-310.46C840.41,-308.43 218.59,-299.28 136,-261 109.61,-248.77 88,-222.64 74.87,-203.56"/>
<polygon fill="#63b8ff" stroke="#63b8ff" points="77.72,-201.52 69.28,-195.1 71.88,-205.38 77.72,-201.52"/>
</a>
</g>
</g>
<!-- Node16 -->
<g id="Node000016" class="node">
<title>Node16</title>
<g id="a_Node000016"><a xlink:href="price__level__l3_8hpp.html" target="_top" xlink:title=" ">
<polygon fill="white" stroke="#666666" points="615,-261 493,-261 493,-231 615,-231 615,-261"/>
<text text-anchor="start" x="501" y="-249" font-family="Helvetica,sans-Serif" font-size="10.00">slick/orderbook/detail</text>
<text text-anchor="middle" x="554" y="-238" font-family="Helvetica,sans-Serif" font-size="10.00">/price_level_l3.hpp</text>
</a>
</g>
</g>
<!-- Node1&#45;&gt;Node16 -->
<g id="edge24_Node000001_Node000016" class="edge">
<title>Node1&#45;&gt;Node16</title>
<g id="a_edge24_Node000001_Node000016"><a xlink:title=" ">
<path fill="none" stroke="#63b8ff" d="M1054.94,-303.37C964.87,-293.77 805.98,-276.64 670,-261 655.51,-259.33 640.01,-257.5 625.21,-255.72"/>
<polygon fill="#63b8ff" stroke="#63b8ff" points="625.44,-252.22 615.09,-254.5 624.6,-259.17 625.44,-252.22"/>
</a>
</g>
</g>
<!-- Node17 -->
<g id="Node000017" class="node">
<title>Node17</title>
<g id="a_Node000017"><a xlink:href="intrusive__list_8hpp.html" target="_top" xlink:title=" ">
<polygon fill="white" stroke="#666666" points="1085,-195 963,-195 963,-165 1085,-165 1085,-195"/>
<text text-anchor="start" x="971" y="-183" font-family="Helvetica,sans-Serif" font-size="10.00">slick/orderbook/detail</text>
<text text-anchor="middle" x="1024" y="-172" font-family="Helvetica,sans-Serif" font-size="10.00">/intrusive_list.hpp</text>
</a>
</g>
</g>
<!-- Node1&#45;&gt;Node17 -->
<g id="edge53_Node000001_Node000017" class="edge">
<title>Node1&#45;&gt;Node17</title>
<g id="a_edge53_Node000001_Node000017"><a xlink:title=" ">
<path fill="none" stroke="#63b8ff" d="M1115.78,-296.84C1097.9,-274.28 1062.81,-229.98 1041.57,-203.18"/>
<polygon fill="#63b8ff" stroke="#63b8ff" points="1044.16,-200.81 1035.21,-195.14 1038.67,-205.15 1044.16,-200.81"/>
</a>
</g>
</g>
<!-- Node20 -->
<g id="Node000020" class="node">
<title>Node20</title>
<g id="a_Node000020"><a xlink:href="order_8hpp.html" target="_top" xlink:title=" ">
<polygon fill="white" stroke="#666666" points="488,-195 366,-195 366,-165 488,-165 488,-195"/>
<text text-anchor="start" x="374" y="-183" font-family="Helvetica,sans-Serif" font-size="10.00">slick/orderbook/detail</text>
<text text-anchor="middle" x="427" y="-172" font-family="Helvetica,sans-Serif" font-size="10.00">/order.hpp</text>
</a>
</g>
</g>
<!-- Node1&#45;&gt;Node20 -->
<g id="edge35_Node000001_Node000020" class="edge">
<title>Node1&#45;&gt;Node20</title>
<g id="a_edge35_Node000001_Node000020"><a xlink:title=" ">
<path fill="none" stroke="#63b8ff" d="M1054.86,-308.82C897.32,-303.56 532.7,-288.54 484,-261 461.75,-248.42 446.02,-223.15 436.79,-204.36"/>
<polygon fill="#63b8ff" stroke="#63b8ff" points="439.94,-202.83 432.57,-195.23 433.59,-205.77 439.94,-202.83"/>
</a>
</g>
</g>
<!-- Node21 -->
<g id="Node000021" class="node">
<title>Node21</title>
<g id="a_Node000021"><a xlink:href="order__map_8hpp.html" target="_top" xlink:title=" ">
<polygon fill="white" stroke="#666666" points="399,-261 277,-261 277,-231 399,-231 399,-261"/>
<text text-anchor="start" x="285" y="-249" font-family="Helvetica,sans-Serif" font-size="10.00">slick/orderbook/detail</text>
<text text-anchor="middle" x="338" y="-238" font-family="Helvetica,sans-Serif" font-size="10.00">/order_map.hpp</text>
</a>
</g>
</g>
<!-- Node1&#45;&gt;Node21 -->
<g id="edge36_Node000001_Node000021" class="edge">
<title>Node1&#45;&gt;Node21</title>
<g id="a_edge36_Node000001_Node000021"><a xlink:title=" ">
<path fill="none" stroke="#63b8ff" d="M1054.8,-307.62C928.34,-301.29 658.66,-286 432,-261 424.59,-260.18 416.86,-259.22 409.17,-258.18"/>
<polygon fill="#63b8ff" stroke="#63b8ff" points="409.48,-254.69 399.1,-256.79 408.52,-261.63 409.48,-254.69"/>
</a>
</g>
</g>
<!-- Node23 -->
<g id="Node000023" class="node">
<title>Node23</title>
<g id="a_Node000023"><a xlink:href="memory__pool_8hpp.html" target="_top" xlink:title=" ">
<polygon fill="white" stroke="#666666" points="1351,-261 1229,-261 1229,-231 1351,-231 1351,-261"/>
<text text-anchor="start" x="1237" y="-249" font-family="Helvetica,sans-Serif" font-size="10.00">slick/orderbook/detail</text>
<text text-anchor="middle" x="1290" y="-238" font-family="Helvetica,sans-Serif" font-size="10.00">/memory_pool.hpp</text>
</a>
</g>
</g>
<!-- Node1&#45;&gt;Node23 -->
<g id="edge41_Node000001_Node000023" class="edge">
<title>Node1&#45;&gt;Node23</title>
<g id="a_edge41_Node000001_Node000023"><a xlink:title=" ">
<path fill="none" stroke="#63b8ff" d="M1162.77,-296.95C1186.87,-287.49 1218.85,-274.93 1244.73,-264.78"/>
<polygon fill="#63b8ff" stroke="#63b8ff" points="1246.28,-267.93 1254.31,-261.01 1243.73,-261.41 1246.28,-267.93"/>
</a>
</g>
</g>
<!-- Node25 -->
<g id="Node000025" class="node">
<title>Node25</title>
<g id="a_Node000025"><a xlink:href="flat__map_8hpp.html" target="_top" xlink:title=" ">
<polygon fill="white" stroke="#666666" points="1562,-261 1440,-261 1440,-231 1562,-231 1562,-261"/>
<text text-anchor="start" x="1448" y="-249" font-family="Helvetica,sans-Serif" font-size="10.00">slick/orderbook/detail</text>
<text text-anchor="middle" x="1501" y="-238" font-family="Helvetica,sans-Serif" font-size="10.00">/flat_map.hpp</text>
</a>
</g>
</g>
<!-- Node1&#45;&gt;Node25 -->
<g id="edge49_Node000001_Node000025" class="edge">
<title>Node1&#45;&gt;Node25</title>
<g id="a_edge49_Node000001_Node000025"><a xlink:title=" ">
<path fill="none" stroke="#63b8ff" d="M1199.26,-299.31C1259.86,-289.41 1348.65,-274.69 1426,-261 1427.25,-260.78 1428.51,-260.56 1429.77,-260.33"/>
<polygon fill="#63b8ff" stroke="#63b8ff" points="1430.4,-263.77 1439.62,-258.55 1429.16,-256.88 1430.4,-263.77"/>
</a>
</g>
</g>
<!-- Node28 -->
<g id="Node000028" class="node">
<title>Node28</title>
<g id="a_Node000028"><a xlink:title=" ">
<polygon fill="#e0e0e0" stroke="#999999" points="1644,-255.5 1580,-255.5 1580,-236.5 1644,-236.5 1644,-255.5"/>
<text text-anchor="middle" x="1612" y="-243.5" font-family="Helvetica,sans-Serif" font-size="10.00">algorithm</text>
</a>
</g>
</g>
<!-- Node1&#45;&gt;Node28 -->
<g id="edge55_Node000001_Node000028" class="edge">
<title>Node1&#45;&gt;Node28</title>
<g id="a_edge55_Node000001_Node000028"><a xlink:title=" ">
<path fill="none" stroke="#63b8ff" d="M1199.31,-307.68C1287.85,-302.51 1441.95,-289.94 1571,-261 1573.99,-260.33 1577.06,-259.52 1580.12,-258.63"/>
<polygon fill="#63b8ff" stroke="#63b8ff" points="1581.22,-261.95 1589.7,-255.59 1579.1,-255.28 1581.22,-261.95"/>
</a>
</g>
</g>
<!-- Node29 -->
<g id="Node000029" class="node">
<title>Node29</title>
<g id="a_Node000029"><a xlink:title=" ">
<polygon fill="#e0e0e0" stroke="#999999" points="1704,-255.5 1662,-255.5 1662,-236.5 1704,-236.5 1704,-255.5"/>
<text text-anchor="middle" x="1683" y="-243.5" font-family="Helvetica,sans-Serif" font-size="10.00">array</text>
</a>
</g>
</g>
<!-- Node1&#45;&gt;Node29 -->
<g id="edge57_Node000001_Node000029" class="edge">
<title>Node1&#45;&gt;Node29</title>
<g id="a_edge57_Node000001_Node000029"><a xlink:title=" ">
<path fill="none" stroke="#63b8ff" d="M1199.43,-311.85C1302.15,-311.32 1495.23,-303.94 1653,-261 1654.49,-260.59 1656,-260.12 1657.5,-259.59"/>
<polygon fill="#63b8ff" stroke="#63b8ff" points="1659.28,-262.65 1667.19,-255.6 1656.61,-256.18 1659.28,-262.65"/>
</a>
</g>
</g>
<!-- Node30 -->
<g id="Node000030" class="node">
<title>Node30</title>
<g id="a_Node000030"><a xlink:title=" ">
<polygon fill="#e0e0e0" stroke="#999999" points="1763.5,-255.5 1722.5,-255.5 1722.5,-236.5 1763.5,-236.5 1763.5,-255.5"/>
<text text-anchor="middle" x="1743" y="-243.5" font-family="Helvetica,sans-Serif" font-size="10.00">tuple</text>
</a>
</g>
</g>
<!-- Node1&#45;&gt;Node30 -->
<g id="edge58_Node000001_Node000030" class="edge">
<title>Node1&#45;&gt;Node30</title>
<g id="a_edge58_Node000001_Node000030"><a xlink:title=" ">
<path fill="none" stroke="#63b8ff" d="M1199.23,-308C1333.81,-301.89 1617.93,-286.38 1713,-261 1714.49,-260.6 1716,-260.13 1717.51,-259.61"/>
<polygon fill="#63b8ff" stroke="#63b8ff" points="1719.28,-262.67 1727.2,-255.64 1716.62,-256.19 1719.28,-262.67"/>
</a>
</g>
</g>
<!-- Node31 -->
<g id="Node000031" class="node">
<title>Node31</title>
<g id="a_Node000031"><a xlink:title=" ">
<polygon fill="#e0e0e0" stroke="#999999" points="1846.5,-255.5 1781.5,-255.5 1781.5,-236.5 1846.5,-236.5 1846.5,-255.5"/>
<text text-anchor="middle" x="1814" y="-243.5" font-family="Helvetica,sans-Serif" font-size="10.00">functional</text>
</a>
</g>
</g>
<!-- Node1&#45;&gt;Node31 -->
<g id="edge59_Node000001_Node000031" class="edge">
<title>Node1&#45;&gt;Node31</title>
<g id="a_edge59_Node000001_Node000031"><a xlink:title=" ">
<path fill="none" stroke="#63b8ff" d="M1199.04,-311.3C1319.25,-310.5 1567.8,-303.27 1773,-261 1776.07,-260.37 1779.22,-259.57 1782.36,-258.68"/>
<polygon fill="#63b8ff" stroke="#63b8ff" points="1783.67,-261.94 1792.15,-255.6 1781.56,-255.26 1783.67,-261.94"/>
</a>
</g>
</g>
<!-- Node3 -->
<g id="Node000003" class="node">
<title>Node3</title>
<g id="a_Node000003"><a xlink:title=" ">
<polygon fill="#e0e0e0" stroke="#999999" points="749,-19 697,-19 697,0 749,0 749,-19"/>
<text text-anchor="middle" x="723" y="-7" font-family="Helvetica,sans-Serif" font-size="10.00">cassert</text>
</a>
</g>
</g>
<!-- Node2&#45;&gt;Node3 -->
<g id="edge2_Node000002_Node000003" class="edge">
<title>Node2&#45;&gt;Node3</title>
<g id="a_edge2_Node000002_Node000003"><a xlink:title=" ">
<path fill="none" stroke="#63b8ff" d="M723,-54.75C723,-47.8 723,-37.85 723,-29.13"/>
<polygon fill="#63b8ff" stroke="#63b8ff" points="726.5,-29.09 723,-19.09 719.5,-29.09 726.5,-29.09"/>
</a>
</g>
</g>
<!-- Node4&#45;&gt;Node2 -->
<g id="edge4_Node000004_Node000002" class="edge">
<title>Node4&#45;&gt;Node2</title>
<g id="a_edge4_Node000004_Node000002"><a xlink:title=" ">
<path fill="none" stroke="#63b8ff" d="M365.44,-109.98C441.57,-100.51 564.33,-85.24 644.35,-75.29"/>
<polygon fill="#63b8ff" stroke="#63b8ff" points="644.88,-78.75 654.37,-74.04 644.02,-71.8 644.88,-78.75"/>
</a>
</g>
</g>
<!-- Node5 -->
<g id="Node000005" class="node">
<title>Node5</title>
<g id="a_Node000005"><a xlink:title=" ">
<polygon fill="#e0e0e0" stroke="#999999" points="543,-74 493,-74 493,-55 543,-55 543,-74"/>
<text text-anchor="middle" x="518" y="-62" font-family="Helvetica,sans-Serif" font-size="10.00">cstdint</text>
</a>
</g>
</g>
<!-- Node4&#45;&gt;Node5 -->
<g id="edge5_Node000004_Node000005" class="edge">
<title>Node4&#45;&gt;Node5</title>
<g id="a_edge5_Node000004_Node000005"><a xlink:title=" ">
<path fill="none" stroke="#63b8ff" d="M332.51,-109.98C373.9,-100.06 441.88,-83.76 483.04,-73.88"/>
<polygon fill="#63b8ff" stroke="#63b8ff" points="483.98,-77.26 492.89,-71.52 482.35,-70.45 483.98,-77.26"/>
</a>
</g>
</g>
<!-- Node6 -->
<g id="Node000006" class="node">
<title>Node6</title>
<g id="a_Node000006"><a xlink:title=" ">
<polygon fill="#e0e0e0" stroke="#999999" points="294.5,-74 221.5,-74 221.5,-55 294.5,-55 294.5,-74"/>
<text text-anchor="middle" x="258" y="-62" font-family="Helvetica,sans-Serif" font-size="10.00">string_view</text>
</a>
</g>
</g>
<!-- Node4&#45;&gt;Node6 -->
<g id="edge6_Node000004_Node000006" class="edge">
<title>Node4&#45;&gt;Node6</title>
<g id="a_edge6_Node000004_Node000006"><a xlink:title=" ">
<path fill="none" stroke="#63b8ff" d="M290.56,-109.75C285.11,-102.34 277.14,-91.5 270.44,-82.41"/>
<polygon fill="#63b8ff" stroke="#63b8ff" points="273.07,-80.07 264.32,-74.09 267.43,-84.22 273.07,-80.07"/>
</a>
</g>
</g>
<!-- Node7 -->
<g id="Node000007" class="node">
<title>Node7</title>
<g id="a_Node000007"><a xlink:title=" ">
<polygon fill="#e0e0e0" stroke="#999999" points="357,-74 313,-74 313,-55 357,-55 357,-74"/>
<text text-anchor="middle" x="335" y="-62" font-family="Helvetica,sans-Serif" font-size="10.00">limits</text>
</a>
</g>
</g>
<!-- Node4&#45;&gt;Node7 -->
<g id="edge7_Node000004_Node000007" class="edge">
<title>Node4&#45;&gt;Node7</title>
<g id="a_edge7_Node000004_Node000007"><a xlink:title=" ">
<path fill="none" stroke="#63b8ff" d="M303.27,-109.75C308.59,-102.34 316.36,-91.5 322.88,-82.41"/>
<polygon fill="#63b8ff" stroke="#63b8ff" points="325.86,-84.26 328.84,-74.09 320.17,-80.18 325.86,-84.26"/>
</a>
</g>
</g>
<!-- Node8&#45;&gt;Node2 -->
<g id="edge9_Node000008_Node000002" class="edge">
<title>Node8&#45;&gt;Node2</title>
<g id="a_edge9_Node000008_Node000002"><a xlink:title=" ">
<path fill="none" stroke="#63b8ff" d="M661.04,-170.47C672,-151.9 698.2,-107.51 712.78,-82.82"/>
<polygon fill="#63b8ff" stroke="#63b8ff" points="715.84,-84.52 717.91,-74.13 709.81,-80.96 715.84,-84.52"/>
</a>
</g>
</g>
<!-- Node8&#45;&gt;Node4 -->
<g id="edge10_Node000008_Node000004" class="edge">
<title>Node8&#45;&gt;Node4</title>
<g id="a_edge10_Node000008_Node000004"><a xlink:title=" ">
<path fill="none" stroke="#63b8ff" d="M603.8,-170.49C538.92,-159.92 428.35,-141.9 359.16,-130.63"/>
<polygon fill="#63b8ff" stroke="#63b8ff" points="359.7,-127.17 349.26,-129.02 358.57,-134.08 359.7,-127.17"/>
</a>
</g>
</g>
<!-- Node9&#45;&gt;Node2 -->
<g id="edge12_Node000009_Node000002" class="edge">
<title>Node9&#45;&gt;Node2</title>
<g id="a_edge12_Node000009_Node000002"><a xlink:title=" ">
<path fill="none" stroke="#63b8ff" d="M856.49,-236.46C830.26,-229.32 797.8,-216.69 776,-195 744.67,-163.83 731.1,-111.56 725.87,-83.92"/>
<polygon fill="#63b8ff" stroke="#63b8ff" points="729.31,-83.28 724.16,-74.02 722.42,-84.47 729.31,-83.28"/>
</a>
</g>
</g>
<!-- Node9&#45;&gt;Node8 -->
<g id="edge13_Node000009_Node000008" class="edge">
<title>Node9&#45;&gt;Node8</title>
<g id="a_edge13_Node000009_Node000008"><a xlink:title=" ">
<path fill="none" stroke="#63b8ff" d="M867.35,-236.44C823.7,-224.99 746.29,-204.68 698.24,-192.08"/>
<polygon fill="#63b8ff" stroke="#63b8ff" points="699.02,-188.67 688.46,-189.51 697.25,-195.44 699.02,-188.67"/>
</a>
</g>
</g>
<!-- Node10 -->
<g id="Node000010" class="node">
<title>Node10</title>
<g id="a_Node000010"><a xlink:href="concepts_8hpp.html" target="_top" xlink:title=" ">
<polygon fill="white" stroke="#666666" points="944.5,-189.5 785.5,-189.5 785.5,-170.5 944.5,-170.5 944.5,-189.5"/>
<text text-anchor="middle" x="865" y="-177.5" font-family="Helvetica,sans-Serif" font-size="10.00">slick/orderbook/concepts.hpp</text>
</a>
</g>
</g>
<!-- Node9&#45;&gt;Node10 -->
<g id="edge14_Node000009_Node000010" class="edge">
<title>Node9&#45;&gt;Node10</title>
<g id="a_edge14_Node000009_Node000010"><a xlink:title=" ">
<path fill="none" stroke="#63b8ff" d="M895.28,-236.37C890.04,-226.78 881.43,-211.05 874.73,-198.8"/>
<polygon fill="#63b8ff" stroke="#63b8ff" points="877.74,-197 869.87,-189.91 871.6,-200.36 877.74,-197"/>
</a>
</g>
</g>
<!-- Node9&#45;&gt;Node13 -->
<g id="edge19_Node000009_Node000013" class="edge">
<title>Node9&#45;&gt;Node13</title>
<g id="a_edge19_Node000009_Node000013"><a xlink:title=" ">
<path fill="none" stroke="#63b8ff" d="M940.27,-236.47C979.86,-227.64 1041.79,-212.69 1094,-195 1095.44,-194.51 1096.9,-193.99 1098.37,-193.45"/>
<polygon fill="#63b8ff" stroke="#63b8ff" points="1099.99,-196.57 1107.99,-189.63 1097.41,-190.06 1099.99,-196.57"/>
</a>
</g>
</g>
<!-- Node9&#45;&gt;Node14 -->
<g id="edge20_Node000009_Node000014" class="edge">
<title>Node9&#45;&gt;Node14</title>
<g id="a_edge20_Node000009_Node000014"><a xlink:title=" ">
<path fill="none" stroke="#63b8ff" d="M957.68,-236.48C1010.56,-228.05 1090.77,-213.71 1159,-195 1161.43,-194.33 1163.92,-193.59 1166.42,-192.8"/>
<polygon fill="#63b8ff" stroke="#63b8ff" points="1167.56,-196.11 1175.92,-189.59 1165.32,-189.47 1167.56,-196.11"/>
</a>
</g>
</g>
<!-- Node10&#45;&gt;Node2 -->
<g id="edge15_Node000010_Node000002" class="edge">
<title>Node10&#45;&gt;Node2</title>
<g id="a_edge15_Node000010_Node000002"><a xlink:title=" ">
<path fill="none" stroke="#63b8ff" d="M854.33,-170.47C830.38,-151.32 772.08,-104.73 741.87,-80.58"/>
<polygon fill="#63b8ff" stroke="#63b8ff" points="743.79,-77.64 733.8,-74.13 739.42,-83.11 743.79,-77.64"/>
</a>
</g>
</g>
<!-- Node10&#45;&gt;Node4 -->
<g id="edge16_Node000010_Node000004" class="edge">
<title>Node10&#45;&gt;Node4</title>
<g id="a_edge16_Node000010_Node000004"><a xlink:title=" ">
<path fill="none" stroke="#63b8ff" d="M789.39,-170.47C772.79,-168.63 755.31,-166.73 739,-165 613.27,-151.69 467.32,-137.18 378.6,-128.46"/>
<polygon fill="#63b8ff" stroke="#63b8ff" points="378.9,-124.97 368.6,-127.48 378.21,-131.94 378.9,-124.97"/>
</a>
</g>
</g>
<!-- Node11 -->
<g id="Node000011" class="node">
<title>Node11</title>
<g id="a_Node000011"><a xlink:title=" ">
<polygon fill="#e0e0e0" stroke="#999999" points="895,-129 835,-129 835,-110 895,-110 895,-129"/>
<text text-anchor="middle" x="865" y="-117" font-family="Helvetica,sans-Serif" font-size="10.00">concepts</text>
</a>
</g>
</g>
<!-- Node10&#45;&gt;Node11 -->
<g id="edge17_Node000010_Node000011" class="edge">
<title>Node10&#45;&gt;Node11</title>
<g id="a_edge17_Node000010_Node000011"><a xlink:title=" ">
<path fill="none" stroke="#63b8ff" d="M865,-170.37C865,-162.25 865,-149.81 865,-139.39"/>
<polygon fill="#63b8ff" stroke="#63b8ff" points="868.5,-139.17 865,-129.17 861.5,-139.17 868.5,-139.17"/>
</a>
</g>
</g>
<!-- Node12 -->
<g id="Node000012" class="node">
<title>Node12</title>
<g id="a_Node000012"><a xlink:title=" ">
<polygon fill="#e0e0e0" stroke="#999999" points="1048.5,-129 979.5,-129 979.5,-110 1048.5,-110 1048.5,-129"/>
<text text-anchor="middle" x="1014" y="-117" font-family="Helvetica,sans-Serif" font-size="10.00">type_traits</text>
</a>
</g>
</g>
<!-- Node10&#45;&gt;Node12 -->
<g id="edge18_Node000010_Node000012" class="edge">
<title>Node10&#45;&gt;Node12</title>
<g id="a_edge18_Node000010_Node000012"><a xlink:title=" ">
<path fill="none" stroke="#63b8ff" d="M886.67,-170.49C911.94,-160.57 953.91,-144.09 982.72,-132.78"/>
<polygon fill="#63b8ff" stroke="#63b8ff" points="984.28,-135.93 992.31,-129.02 981.72,-129.41 984.28,-135.93"/>
</a>
</g>
</g>
<!-- Node15&#45;&gt;Node2 -->
<g id="edge22_Node000015_Node000002" class="edge">
<title>Node15&#45;&gt;Node2</title>
<g id="a_edge22_Node000015_Node000002"><a xlink:title=" ">
<path fill="none" stroke="#63b8ff" d="M85.57,-164.97C115.39,-148.7 167.66,-122.51 216,-110 293.9,-89.84 517.58,-75.84 640.18,-69.44"/>
<polygon fill="#63b8ff" stroke="#63b8ff" points="640.47,-72.93 650.27,-68.92 640.1,-65.94 640.47,-72.93"/>
</a>
</g>
</g>
<!-- Node15&#45;&gt;Node4 -->
<g id="edge23_Node000015_Node000004" class="edge">
<title>Node15&#45;&gt;Node4</title>
<g id="a_edge23_Node000015_Node000004"><a xlink:title=" ">
<path fill="none" stroke="#63b8ff" d="M117.53,-164.99C158.96,-154.72 214.43,-140.97 252.67,-131.49"/>
<polygon fill="#63b8ff" stroke="#63b8ff" points="253.63,-134.86 262.49,-129.05 251.94,-128.06 253.63,-134.86"/>
</a>
</g>
</g>
<!-- Node16&#45;&gt;Node2 -->
<g id="edge25_Node000016_Node000002" class="edge">
<title>Node16&#45;&gt;Node2</title>
<g id="a_edge25_Node000016_Node000002"><a xlink:title=" ">
<path fill="none" stroke="#63b8ff" d="M554.07,-230.72C554.82,-213.65 558.24,-184.91 572,-165 601.53,-122.27 655.96,-93.21 690.77,-78"/>
<polygon fill="#63b8ff" stroke="#63b8ff" points="692.19,-81.2 700.03,-74.08 689.46,-74.76 692.19,-81.2"/>
</a>
</g>
</g>
<!-- Node16&#45;&gt;Node4 -->
<g id="edge26_Node000016_Node000004" class="edge">
<title>Node16&#45;&gt;Node4</title>
<g id="a_edge26_Node000016_Node000004"><a xlink:title=" ">
<path fill="none" stroke="#63b8ff" d="M547.96,-230.99C539.38,-212.82 521.88,-181.49 497,-165 462.16,-141.91 417.17,-130.64 378.69,-125.21"/>
<polygon fill="#63b8ff" stroke="#63b8ff" points="378.9,-121.7 368.54,-123.88 378,-128.65 378.9,-121.7"/>
</a>
</g>
</g>
<!-- Node16&#45;&gt;Node17 -->
<g id="edge27_Node000016_Node000017" class="edge">
<title>Node16&#45;&gt;Node17</title>
<g id="a_edge27_Node000016_Node000017"><a xlink:title=" ">
<path fill="none" stroke="#63b8ff" d="M615.03,-238.7C691.4,-230.51 826.41,-215.05 952.62,-194.98"/>
<polygon fill="#63b8ff" stroke="#63b8ff" points="953.54,-198.38 962.86,-193.34 952.43,-191.47 953.54,-198.38"/>
</a>
</g>
</g>
<!-- Node16&#45;&gt;Node20 -->
<g id="edge32_Node000016_Node000020" class="edge">
<title>Node16&#45;&gt;Node20</title>
<g id="a_edge32_Node000016_Node000020"><a xlink:title=" ">
<path fill="none" stroke="#63b8ff" d="M526.13,-230.95C507.85,-221.74 483.75,-209.6 463.88,-199.59"/>
<polygon fill="#63b8ff" stroke="#63b8ff" points="465.31,-196.39 454.81,-195.01 462.16,-202.64 465.31,-196.39"/>
</a>
</g>
</g>
<!-- Node17&#45;&gt;Node2 -->
<g id="edge28_Node000017_Node000002" class="edge">
<title>Node17&#45;&gt;Node2</title>
<g id="a_edge28_Node000017_Node000002"><a xlink:title=" ">
<path fill="none" stroke="#63b8ff" d="M1003.66,-164.92C980.49,-149.45 941.03,-124.85 904,-110 865.15,-94.42 819.36,-83.22 783.55,-75.96"/>
<polygon fill="#63b8ff" stroke="#63b8ff" points="784.22,-72.52 773.73,-74.01 782.86,-79.39 784.22,-72.52"/>
</a>
</g>
</g>
<!-- Node17&#45;&gt;Node12 -->
<g id="edge31_Node000017_Node000012" class="edge">
<title>Node17&#45;&gt;Node12</title>
<g id="a_edge31_Node000017_Node000012"><a xlink:title=" ">
<path fill="none" stroke="#63b8ff" d="M1021.58,-164.84C1020.26,-157.13 1018.61,-147.49 1017.19,-139.17"/>
<polygon fill="#63b8ff" stroke="#63b8ff" points="1020.63,-138.53 1015.5,-129.27 1013.73,-139.71 1020.63,-138.53"/>
</a>
</g>
</g>
<!-- Node18 -->
<g id="Node000018" class="node">
<title>Node18</title>
<g id="a_Node000018"><a xlink:title=" ">
<polygon fill="#e0e0e0" stroke="#999999" points="1254.5,-129 1201.5,-129 1201.5,-110 1254.5,-110 1254.5,-129"/>
<text text-anchor="middle" x="1228" y="-117" font-family="Helvetica,sans-Serif" font-size="10.00">cstddef</text>
</a>
</g>
</g>
<!-- Node17&#45;&gt;Node18 -->
<g id="edge29_Node000017_Node000018" class="edge">
<title>Node17&#45;&gt;Node18</title>
<g id="a_edge29_Node000017_Node000018"><a xlink:title=" ">
<path fill="none" stroke="#63b8ff" d="M1072.86,-164.99C1109.4,-154.51 1158.55,-140.42 1191.65,-130.92"/>
<polygon fill="#63b8ff" stroke="#63b8ff" points="1192.73,-134.25 1201.38,-128.13 1190.8,-127.53 1192.73,-134.25"/>
</a>
</g>
</g>
<!-- Node19 -->
<g id="Node000019" class="node">
<title>Node19</title>
<g id="a_Node000019"><a xlink:title=" ">
<polygon fill="#e0e0e0" stroke="#999999" points="1119.5,-129 1066.5,-129 1066.5,-110 1119.5,-110 1119.5,-129"/>
<text text-anchor="middle" x="1093" y="-117" font-family="Helvetica,sans-Serif" font-size="10.00">iterator</text>
</a>
</g>
</g>
<!-- Node17&#45;&gt;Node19 -->
<g id="edge30_Node000017_Node000019" class="edge">
<title>Node17&#45;&gt;Node19</title>
<g id="a_edge30_Node000017_Node000019"><a xlink:title=" ">
<path fill="none" stroke="#63b8ff" d="M1040.7,-164.84C1051.03,-156.09 1064.28,-144.85 1074.86,-135.88"/>
<polygon fill="#63b8ff" stroke="#63b8ff" points="1077.3,-138.4 1082.66,-129.27 1072.77,-133.06 1077.3,-138.4"/>
</a>
</g>
</g>
<!-- Node20&#45;&gt;Node2 -->
<g id="edge33_Node000020_Node000002" class="edge">
<title>Node20&#45;&gt;Node2</title>
<g id="a_edge33_Node000020_Node000002"><a xlink:title=" ">
<path fill="none" stroke="#63b8ff" d="M446.01,-164.83C467.71,-149.3 504.76,-124.63 540,-110 578.23,-94.13 623.4,-83.08 659.3,-75.95"/>
<polygon fill="#63b8ff" stroke="#63b8ff" points="660.01,-79.38 669.17,-74.05 658.69,-72.51 660.01,-79.38"/>
</a>
</g>
</g>
<!-- Node20&#45;&gt;Node4 -->
<g id="edge34_Node000020_Node000004" class="edge">
<title>Node20&#45;&gt;Node4</title>
<g id="a_edge34_Node000020_Node000004"><a xlink:title=" ">
<path fill="none" stroke="#63b8ff" d="M395.86,-164.99C374.46,-155.36 346.27,-142.67 325.47,-133.31"/>
<polygon fill="#63b8ff" stroke="#63b8ff" points="326.75,-130.05 316.2,-129.14 323.88,-136.43 326.75,-130.05"/>
</a>
</g>
</g>
<!-- Node21&#45;&gt;Node2 -->
<g id="edge37_Node000021_Node000002" class="edge">
<title>Node21&#45;&gt;Node2</title>
<g id="a_edge37_Node000021_Node000002"><a xlink:title=" ">
<path fill="none" stroke="#63b8ff" d="M337.57,-230.78C337.8,-213.23 340.82,-183.47 357,-165 395.37,-121.22 555.32,-90.45 650.61,-75.61"/>
<polygon fill="#63b8ff" stroke="#63b8ff" points="651.41,-79.02 660.76,-74.05 650.34,-72.1 651.41,-79.02"/>
</a>
</g>
</g>
<!-- Node21&#45;&gt;Node4 -->
<g id="edge38_Node000021_Node000004" class="edge">
<title>Node21&#45;&gt;Node4</title>
<g id="a_edge38_Node000021_Node000004"><a xlink:title=" ">
<path fill="none" stroke="#63b8ff" d="M276.67,-237.1C250.68,-230.38 222.81,-217.96 207,-195 199.44,-184.02 199.97,-176.33 207,-165 216.53,-149.65 233.1,-139.44 249.45,-132.71"/>
<polygon fill="#63b8ff" stroke="#63b8ff" points="250.85,-135.93 258.99,-129.15 248.39,-129.37 250.85,-135.93"/>
</a>
</g>
</g>
<!-- Node21&#45;&gt;Node20 -->
<g id="edge39_Node000021_Node000020" class="edge">
<title>Node21&#45;&gt;Node20</title>
<g id="a_edge39_Node000021_Node000020"><a xlink:title=" ">
<path fill="none" stroke="#63b8ff" d="M357.75,-230.8C369.85,-222.1 385.53,-210.82 398.91,-201.2"/>
<polygon fill="#63b8ff" stroke="#63b8ff" points="401.23,-203.84 407.3,-195.16 397.14,-198.16 401.23,-203.84"/>
</a>
</g>
</g>
<!-- Node22 -->
<g id="Node000022" class="node">
<title>Node22</title>
<g id="a_Node000022"><a xlink:title=" ">
<polygon fill="#e0e0e0" stroke="#999999" points="309.5,-189.5 216.5,-189.5 216.5,-170.5 309.5,-170.5 309.5,-189.5"/>
<text text-anchor="middle" x="263" y="-177.5" font-family="Helvetica,sans-Serif" font-size="10.00">unordered_map</text>
</a>
</g>
</g>
<!-- Node21&#45;&gt;Node22 -->
<g id="edge40_Node000021_Node000022" class="edge">
<title>Node21&#45;&gt;Node22</title>
<g id="a_edge40_Node000021_Node000022"><a xlink:title=" ">
<path fill="none" stroke="#63b8ff" d="M321.36,-230.8C309.43,-220.62 293.39,-206.93 281.14,-196.48"/>
<polygon fill="#63b8ff" stroke="#63b8ff" points="283.24,-193.67 273.36,-189.84 278.7,-199 283.24,-193.67"/>
</a>
</g>
</g>
<!-- Node23&#45;&gt;Node2 -->
<g id="edge42_Node000023_Node000002" class="edge">
<title>Node23&#45;&gt;Node2</title>
<g id="a_edge42_Node000023_Node000002"><a xlink:title=" ">
<path fill="none" stroke="#63b8ff" d="M1351.22,-231.48C1370.47,-224.03 1389.64,-212.57 1401,-195 1421.51,-163.27 1426.82,-137.57 1401,-110 1361.1,-67.4 977.59,-64.07 805.67,-64.75"/>
<polygon fill="#63b8ff" stroke="#63b8ff" points="805.63,-61.25 795.65,-64.8 805.66,-68.25 805.63,-61.25"/>
</a>
</g>
</g>
<!-- Node23&#45;&gt;Node5 -->
<g id="edge44_Node000023_Node000005" class="edge">
<title>Node23&#45;&gt;Node5</title>
<g id="a_edge44_Node000023_Node000005"><a xlink:title=" ">
<path fill="none" stroke="#63b8ff" d="M1326.38,-230.86C1341.83,-222.83 1358.25,-211.11 1367,-195 1373.36,-183.28 1373.88,-176.42 1367,-165 1340.02,-120.21 1313.36,-124.05 1263,-110 1129.64,-72.79 779.18,-82.77 641,-74 611.6,-72.13 578.26,-69.82 553.71,-68.07"/>
<polygon fill="#63b8ff" stroke="#63b8ff" points="553.66,-64.56 543.44,-67.34 553.16,-71.54 553.66,-64.56"/>
</a>
</g>
</g>
<!-- Node23&#45;&gt;Node12 -->
<g id="edge47_Node000023_Node000012" class="edge">
<title>Node23&#45;&gt;Node12</title>
<g id="a_edge47_Node000023_Node000012"><a xlink:title=" ">
<path fill="none" stroke="#63b8ff" d="M1284.53,-230.92C1276.68,-212.67 1260.41,-181.25 1236,-165 1235.07,-164.38 1122.95,-142.09 1058.43,-129.3"/>
<polygon fill="#63b8ff" stroke="#63b8ff" points="1058.99,-125.84 1048.5,-127.33 1057.63,-132.71 1058.99,-125.84"/>
</a>
</g>
</g>
<!-- Node23&#45;&gt;Node13 -->
<g id="edge48_Node000023_Node000013" class="edge">
<title>Node23&#45;&gt;Node13</title>
<g id="a_edge48_Node000023_Node000013"><a xlink:title=" ">
<path fill="none" stroke="#63b8ff" d="M1252.32,-230.9C1226.3,-221.06 1190.94,-207.51 1160,-195 1158.8,-194.51 1157.58,-194.02 1156.34,-193.51"/>
<polygon fill="#63b8ff" stroke="#63b8ff" points="1157.42,-190.17 1146.85,-189.55 1154.73,-196.63 1157.42,-190.17"/>
</a>
</g>
</g>
<!-- Node23&#45;&gt;Node14 -->
<g id="edge45_Node000023_Node000014" class="edge">
<title>Node23&#45;&gt;Node14</title>
<g id="a_edge45_Node000023_Node000014"><a xlink:title=" ">
<path fill="none" stroke="#63b8ff" d="M1269.58,-230.8C1254.45,-220.27 1233.9,-205.97 1218.7,-195.4"/>
<polygon fill="#63b8ff" stroke="#63b8ff" points="1220.65,-192.5 1210.45,-189.66 1216.66,-198.24 1220.65,-192.5"/>
</a>
</g>
</g>
<!-- Node23&#45;&gt;Node18 -->
<g id="edge43_Node000023_Node000018" class="edge">
<title>Node23&#45;&gt;Node18</title>
<g id="a_edge43_Node000023_Node000018"><a xlink:title=" ">
<path fill="none" stroke="#63b8ff" d="M1288.41,-230.94C1286.07,-214.33 1280.65,-186.29 1269,-165 1263.18,-154.36 1254.26,-144.26 1246.23,-136.38"/>
<polygon fill="#63b8ff" stroke="#63b8ff" points="1248.34,-133.56 1238.64,-129.3 1243.57,-138.68 1248.34,-133.56"/>
</a>
</g>
</g>
<!-- Node24 -->
<g id="Node000024" class="node">
<title>Node24</title>
<g id="a_Node000024"><a xlink:title=" ">
<polygon fill="#e0e0e0" stroke="#999999" points="1358.5,-189.5 1321.5,-189.5 1321.5,-170.5 1358.5,-170.5 1358.5,-189.5"/>
<text text-anchor="middle" x="1340" y="-177.5" font-family="Helvetica,sans-Serif" font-size="10.00">new</text>
</a>
</g>
</g>
<!-- Node23&#45;&gt;Node24 -->
<g id="edge46_Node000023_Node000024" class="edge">
<title>Node23&#45;&gt;Node24</title>
<g id="a_edge46_Node000023_Node000024"><a xlink:title=" ">
<path fill="none" stroke="#63b8ff" d="M1301.1,-230.8C1308.66,-221.11 1318.72,-208.24 1326.71,-198.01"/>
<polygon fill="#63b8ff" stroke="#63b8ff" points="1329.69,-199.88 1333.09,-189.84 1324.18,-195.57 1329.69,-199.88"/>
</a>
</g>
</g>
<!-- Node25&#45;&gt;Node2 -->
<g id="edge50_Node000025_Node000002" class="edge">
<title>Node25&#45;&gt;Node2</title>
<g id="a_edge50_Node000025_Node000002"><a xlink:title=" ">
<path fill="none" stroke="#63b8ff" d="M1503.47,-230.91C1507.46,-203.03 1511.69,-140.85 1477,-110 1427.77,-66.22 991.24,-63.75 805.77,-64.72"/>
<polygon fill="#63b8ff" stroke="#63b8ff" points="805.51,-61.22 795.53,-64.77 805.55,-68.22 805.51,-61.22"/>
</a>
</g>
</g>
<!-- Node26 -->
<g id="Node000026" class="node">
<title>Node26</title>
<g id="a_Node000026"><a xlink:title=" ">
<polygon fill="#e0e0e0" stroke="#999999" points="1582.5,-189.5 1529.5,-189.5 1529.5,-170.5 1582.5,-170.5 1582.5,-189.5"/>
<text text-anchor="middle" x="1556" y="-177.5" font-family="Helvetica,sans-Serif" font-size="10.00">version</text>
</a>
</g>
</g>
<!-- Node25&#45;&gt;Node26 -->
<g id="edge51_Node000025_Node000026" class="edge">
<title>Node25&#45;&gt;Node26</title>
<g id="a_edge51_Node000025_Node000026"><a xlink:title=" ">
<path fill="none" stroke="#63b8ff" d="M1513.21,-230.8C1521.61,-221.01 1532.81,-207.98 1541.65,-197.7"/>
<polygon fill="#63b8ff" stroke="#63b8ff" points="1544.54,-199.71 1548.4,-189.84 1539.23,-195.15 1544.54,-199.71"/>
</a>
</g>
</g>
<!-- Node27 -->
<g id="Node000027" class="node">
<title>Node27</title>
<g id="a_Node000027"><a xlink:title=" ">
<polygon fill="#e0e0e0" stroke="#999999" points="1639,-189.5 1601,-189.5 1601,-170.5 1639,-170.5 1639,-189.5"/>
<text text-anchor="middle" x="1620" y="-177.5" font-family="Helvetica,sans-Serif" font-size="10.00">map</text>
</a>
</g>
</g>
<!-- Node25&#45;&gt;Node27 -->
<g id="edge52_Node000025_Node000027" class="edge">
<title>Node25&#45;&gt;Node27</title>
<g id="a_edge52_Node000025_Node000027"><a xlink:title=" ">
<path fill="none" stroke="#63b8ff" d="M1527.12,-230.95C1547.34,-220.08 1575.18,-205.11 1595.09,-194.4"/>
<polygon fill="#63b8ff" stroke="#63b8ff" points="1597.01,-197.34 1604.16,-189.52 1593.7,-191.17 1597.01,-197.34"/>
</a>
</g>
</g>
</g>
</svg>
