<?xml version="1.0" encoding="UTF-8" standalone="no"?>
<!DOCTYPE svg PUBLIC "-//W3C//DTD SVG 1.1//EN"
 "http://www.w3.org/Graphics/SVG/1.1/DTD/svg11.dtd">
<!-- Generated by graphviz version 2.43.0 (0)
 -->
<!-- Title: slick/orderbook/orderbook_l3.hpp Pages: 1 -->
<!--zoomable 324 -->

<svg id="main" version="1.1" xmlns="http://www.w3.org/2000/svg" xmlns:xlink="http://www.w3.org/1999/xlink" xml:space="preserve" onload="init(evt)">
<style type="text/css"><![CDATA[
.node, .edge {opacity: 0.7;}
.node.selected, .edge.selected {opacity: 1;}
.edge:hover path { stroke: red; }
.edge:hover polygon { stroke: red; fill: red; }
]]></style>

<defs>
  <circle id="rim" cx="0" cy="0" r="7"/>
  <circle id="rim2" cx="0" cy="0" r="3.5"/>
  <g id="zoomPlus">
    <use xlink:href="#rim" fill="#404040"><set attributeName="fill" to="#808080" begin="zoomplus.mouseover" end="zoomplus.mouseout"/></use>
    <path d="M-4,0h8M0,-4v8" fill="none" stroke="white" stroke-width="1.5" pointer-events="none"/>
  </g>
  <g id="zoomMin">
    <use xlink:href="#rim" fill="#404040"><set attributeName="fill" to="#808080" begin="zoomminus.mouseover" end="zoomminus.mouseout"/></use>
    <path d="M-4,0h8" fill="none" stroke="white" stroke-width="1.5" pointer-events="none"/>
  </g>
  <g id="arrowUp" transform="translate(30 24)">
    <use xlink:href="#rim"/>
    <path pointer-events="none" fill="none" stroke="white" stroke-width="1.5" d="M0,-3.0v7 M-2.5,-0.5L0,-3.0L2.5,-0.5"/>
  </g>
  <g id="arrowRight" transform="rotate(90) translate(36 -43)">
    <use xlink:href="#rim"/>
    <path pointer-events="none" fill="none" stroke="white" stroke-width="1.5" d="M0,-3.0v7 M-2.5,-0.5L0,-3.0L2.5,-0.5"/>
  </g>
  <g id="arrowDown" transform="rotate(180) translate(-30 -48)">
    <use xlink:href="#rim"/>
    <path pointer-events="none" fill="none" stroke="white" stroke-width="1.5" d="M0,-3.0v7 M-2.5,-0.5L0,-3.0L2.5,-0.5"/>
  </g>
  <g id="arrowLeft" transform="rotate(270) translate(-36 17)">
    <use xlink:href="#rim"/>
    <path pointer-events="none" fill="none" stroke="white" stroke-width="1.5" d="M0,-3.0v7 M-2.5,-0.5L0,-3.0L2.5,-0.5"/>
  </g>
  <g id="resetDef">
    <use xlink:href="#rim2" fill="#404040"><set attributeName="fill" to="#808080" begin="reset.mouseover" end="reset.mouseout"/></use>
  </g>
</defs>
<script type="application/ecmascript">
var viewWidth = 1673;
var viewHeight = 324;
var sectionId = 'dynsection-0';
</script>
<script type="application/ecmascript" xlink:href="svg.min.js"/>
<svg id="graph" class="graph">
<g id="viewport">
<title>slick/orderbook/orderbook_l3.hpp</title>
<!-- Node1 -->
<g id="Node000001" class="node">
<title>Node1</title>
<g id="a_Node000001"><a xlink:title=" ">
<polygon fill="#999999" stroke="#666666" points="901.93,-316 757.93,-316 757.93,-286 901.93,-286 901.93,-316"/>
<text text-anchor="start" x="765.93" y="-304" font-family="Helvetica,sans-Serif" font-size="10.00">slick/orderbook/orderbook</text>
<text text-anchor="middle" x="829.93" y="-293" font-family="Helvetica,sans-Serif" font-size="10.00">_l3.hpp</text>
</a>
</g>
</g>
<!-- Node2 -->
<g id="Node000002" class="node">
<title>Node2</title>
<g id="a_Node000002"><a xlink:href="config_8hpp.html" target="_top" xlink:title=" ">
<polygon fill="white" stroke="#666666" points="256.43,-74 111.43,-74 111.43,-55 256.43,-55 256.43,-74"/>
<text text-anchor="middle" x="183.93" y="-62" font-family="Helvetica,sans-Serif" font-size="10.00">slick/orderbook/config.hpp</text>
</a>
</g>
</g>
<!-- Node1&#45;&gt;Node2 -->
<g id="edge1_Node000001_Node000002" class="edge">
<title>Node1&#45;&gt;Node2</title>
<g id="a_edge1_Node000001_Node000002"><a xlink:title=" ">
<path fill="none" stroke="#63b8ff" d="M757.81,-297.85C607.75,-292.86 266.55,-278.66 153.93,-250 84.92,-232.44 46.55,-243.83 7.93,-184 -27.57,-128.99 71.07,-93.24 134.69,-76.53"/>
<polygon fill="#63b8ff" stroke="#63b8ff" points="135.75,-79.87 144.58,-74.01 134.02,-73.09 135.75,-79.87"/>
</a>
</g>
</g>
<!-- Node4 -->
<g id="Node000004" class="node">
<title>Node4</title>
<g id="a_Node000004"><a xlink:href="types_8hpp.html" target="_top" xlink:title=" ">
<polygon fill="white" stroke="#666666" points="481.43,-129 338.43,-129 338.43,-110 481.43,-110 481.43,-129"/>
<text text-anchor="middle" x="409.93" y="-117" font-family="Helvetica,sans-Serif" font-size="10.00">slick/orderbook/types.hpp</text>
</a>
</g>
</g>
<!-- Node1&#45;&gt;Node4 -->
<g id="edge3_Node000001_Node000004" class="edge">
<title>Node1&#45;&gt;Node4</title>
<g id="a_edge3_Node000001_Node000004"><a xlink:title=" ">
<path fill="none" stroke="#63b8ff" d="M757.77,-296.04C684.89,-290.53 579.04,-277.88 549.93,-250 521.98,-223.23 556.43,-194.12 530.93,-165 516.8,-148.86 496.3,-138.57 476.17,-132.01"/>
<polygon fill="#63b8ff" stroke="#63b8ff" points="476.94,-128.59 466.35,-129.08 474.93,-135.29 476.94,-128.59"/>
</a>
</g>
</g>
<!-- Node7 -->
<g id="Node000007" class="node">
<title>Node7</title>
<g id="a_Node000007"><a xlink:href="events_8hpp.html" target="_top" xlink:title=" ">
<polygon fill="white" stroke="#666666" points="166.43,-184 17.43,-184 17.43,-165 166.43,-165 166.43,-184"/>
<text text-anchor="middle" x="91.93" y="-172" font-family="Helvetica,sans-Serif" font-size="10.00">slick/orderbook/events.hpp</text>
</a>
</g>
</g>
<!-- Node1&#45;&gt;Node7 -->
<g id="edge7_Node000001_Node000007" class="edge">
<title>Node1&#45;&gt;Node7</title>
<g id="a_edge7_Node000001_Node000007"><a xlink:title=" ">
<path fill="none" stroke="#63b8ff" d="M757.77,-298.08C618.64,-293.71 318.39,-280.94 219.93,-250 177.95,-236.81 134.9,-207.96 110.97,-190.28"/>
<polygon fill="#63b8ff" stroke="#63b8ff" points="112.86,-187.33 102.77,-184.11 108.65,-192.92 112.86,-187.33"/>
</a>
</g>
</g>
<!-- Node8 -->
<g id="Node000008" class="node">
<title>Node8</title>
<g id="a_Node000008"><a xlink:href="observer_8hpp.html" target="_top" xlink:title=" ">
<polygon fill="white" stroke="#666666" points="386.93,-244.5 228.93,-244.5 228.93,-225.5 386.93,-225.5 386.93,-244.5"/>
<text text-anchor="middle" x="307.93" y="-232.5" font-family="Helvetica,sans-Serif" font-size="10.00">slick/orderbook/observer.hpp</text>
</a>
</g>
</g>
<!-- Node1&#45;&gt;Node8 -->
<g id="edge10_Node000001_Node000008" class="edge">
<title>Node1&#45;&gt;Node8</title>
<g id="a_edge10_Node000001_Node000008"><a xlink:title=" ">
<path fill="none" stroke="#63b8ff" d="M757.9,-291.17C660.83,-279.27 488.59,-258.15 387.7,-245.78"/>
<polygon fill="#63b8ff" stroke="#63b8ff" points="387.91,-242.28 377.56,-244.54 387.06,-249.23 387.91,-242.28"/>
</a>
</g>
</g>
<!-- Node12 -->
<g id="Node000012" class="node">
<title>Node12</title>
<g id="a_Node000012"><a xlink:title=" ">
<polygon fill="#e0e0e0" stroke="#999999" points="445.43,-184 398.43,-184 398.43,-165 445.43,-165 445.43,-184"/>
<text text-anchor="middle" x="421.93" y="-172" font-family="Helvetica,sans-Serif" font-size="10.00">vector</text>
</a>
</g>
</g>
<!-- Node1&#45;&gt;Node12 -->
<g id="edge28_Node000001_Node000012" class="edge">
<title>Node1&#45;&gt;Node12</title>
<g id="a_edge28_Node000001_Node000012"><a xlink:title=" ">
<path fill="none" stroke="#63b8ff" d="M757.73,-294.62C673.36,-287.4 539.58,-272.79 494.93,-250 468.56,-236.54 446.1,-209.89 433.31,-192.38"/>
<polygon fill="#63b8ff" stroke="#63b8ff" points="436.15,-190.34 427.53,-184.18 430.43,-194.37 436.15,-190.34"/>
</a>
</g>
</g>
<!-- Node13 -->
<g id="Node000013" class="node">
<title>Node13</title>
<g id="a_Node000013"><a xlink:title=" ">
<polygon fill="#e0e0e0" stroke="#999999" points="521.93,-184 463.93,-184 463.93,-165 521.93,-165 521.93,-184"/>
<text text-anchor="middle" x="492.93" y="-172" font-family="Helvetica,sans-Serif" font-size="10.00">memory</text>
</a>
</g>
</g>
<!-- Node1&#45;&gt;Node13 -->
<g id="edge26_Node000001_Node000013" class="edge">
<title>Node1&#45;&gt;Node13</title>
<g id="a_edge26_Node000001_Node000013"><a xlink:title=" ">
<path fill="none" stroke="#63b8ff" d="M757.93,-297.07C676.96,-292.33 552.18,-280.22 516.93,-250 500.77,-236.14 495.4,-211.34 493.67,-194.18"/>
<polygon fill="#63b8ff" stroke="#63b8ff" points="497.16,-193.94 492.98,-184.2 490.18,-194.42 497.16,-193.94"/>
</a>
</g>
</g>
<!-- Node14 -->
<g id="Node000014" class="node">
<title>Node14</title>
<g id="a_Node000014"><a xlink:title=" ">
<polygon fill="#e0e0e0" stroke="#999999" points="680.93,-250 558.93,-250 558.93,-220 680.93,-220 680.93,-250"/>
<text text-anchor="start" x="566.93" y="-238" font-family="Helvetica,sans-Serif" font-size="10.00">slick/orderbook/detail</text>
<text text-anchor="middle" x="619.93" y="-227" font-family="Helvetica,sans-Serif" font-size="10.00">/price_level.hpp</text>
</a>
</g>
</g>
<!-- Node1&#45;&gt;Node14 -->
<g id="edge20_Node000001_Node000014" class="edge">
<title>Node1&#45;&gt;Node14</title>
<g id="a_edge20_Node000001_Node000014"><a xlink:title=" ">
<path fill="none" stroke="#63b8ff" d="M783.85,-285.95C751.98,-276.24 709.41,-263.27 675.64,-252.98"/>
<polygon fill="#63b8ff" stroke="#63b8ff" points="676.5,-249.58 665.91,-250.01 674.46,-256.28 676.5,-249.58"/>
</a>
</g>
</g>
<!-- Node15 -->
<g id="Node000015" class="node">
<title>Node15</title>
<g id="a_Node000015"><a xlink:title=" ">
<polygon fill="#e0e0e0" stroke="#999999" points="820.93,-250 698.93,-250 698.93,-220 820.93,-220 820.93,-250"/>
<text text-anchor="start" x="706.93" y="-238" font-family="Helvetica,sans-Serif" font-size="10.00">slick/orderbook/detail</text>
<text text-anchor="middle" x="759.93" y="-227" font-family="Helvetica,sans-Serif" font-size="10.00">/order.hpp</text>
</a>
</g>
</g>
<!-- Node1&#45;&gt;Node15 -->
<g id="edge21_Node000001_Node000015" class="edge">
<title>Node1&#45;&gt;Node15</title>
<g id="a_edge21_Node000001_Node000015"><a xlink:title=" ">
<path fill="none" stroke="#63b8ff" d="M814.4,-285.8C805.15,-277.34 793.25,-266.46 782.94,-257.03"/>
<polygon fill="#63b8ff" stroke="#63b8ff" points="785.17,-254.33 775.42,-250.16 780.44,-259.49 785.17,-254.33"/>
</a>
</g>
</g>
<!-- Node16 -->
<g id="Node000016" class="node">
<title>Node16</title>
<g id="a_Node000016"><a xlink:title=" ">
<polygon fill="#e0e0e0" stroke="#999999" points="960.93,-250 838.93,-250 838.93,-220 960.93,-220 960.93,-250"/>
<text text-anchor="start" x="846.93" y="-238" font-family="Helvetica,sans-Serif" font-size="10.00">slick/orderbook/detail</text>
<text text-anchor="middle" x="899.93" y="-227" font-family="Helvetica,sans-Serif" font-size="10.00">/order_map.hpp</text>
</a>
</g>
</g>
<!-- Node1&#45;&gt;Node16 -->
<g id="edge22_Node000001_Node000016" class="edge">
<title>Node1&#45;&gt;Node16</title>
<g id="a_edge22_Node000001_Node000016"><a xlink:title=" ">
<path fill="none" stroke="#63b8ff" d="M845.47,-285.8C854.71,-277.34 866.61,-266.46 876.93,-257.03"/>
<polygon fill="#63b8ff" stroke="#63b8ff" points="879.42,-259.49 884.44,-250.16 874.7,-254.33 879.42,-259.49"/>
</a>
</g>
</g>
<!-- Node17 -->
<g id="Node000017" class="node">
<title>Node17</title>
<g id="a_Node000017"><a xlink:title=" ">
<polygon fill="#e0e0e0" stroke="#999999" points="1100.93,-250 978.93,-250 978.93,-220 1100.93,-220 1100.93,-250"/>
<text text-anchor="start" x="986.93" y="-238" font-family="Helvetica,sans-Serif" font-size="10.00">slick/orderbook/detail</text>
<text text-anchor="middle" x="1039.93" y="-227" font-family="Helvetica,sans-Serif" font-size="10.00">/memory_pool.hpp</text>
</a>
</g>
</g>
<!-- Node1&#45;&gt;Node17 -->
<g id="edge23_Node000001_Node000017" class="edge">
<title>Node1&#45;&gt;Node17</title>
<g id="a_edge23_Node000001_Node000017"><a xlink:title=" ">
<path fill="none" stroke="#63b8ff" d="M876.02,-285.95C907.89,-276.24 950.46,-263.27 984.23,-252.98"/>
<polygon fill="#63b8ff" stroke="#63b8ff" points="985.41,-256.28 993.95,-250.01 983.37,-249.58 985.41,-256.28"/>
</a>
</g>
</g>
<!-- Node18 -->
<g id="Node000018" class="node">
<title>Node18</title>
<g id="a_Node000018"><a xlink:title=" ">
<polygon fill="#e0e0e0" stroke="#999999" points="1240.93,-250 1118.93,-250 1118.93,-220 1240.93,-220 1240.93,-250"/>
<text text-anchor="start" x="1126.93" y="-238" font-family="Helvetica,sans-Serif" font-size="10.00">slick/orderbook/detail</text>
<text text-anchor="middle" x="1179.93" y="-227" font-family="Helvetica,sans-Serif" font-size="10.00">/flat_map.hpp</text>
</a>
</g>
</g>
<!-- Node1&#45;&gt;Node18 -->
<g id="edge24_Node000001_Node000018" class="edge">
<title>Node1&#45;&gt;Node18</title>
<g id="a_edge24_Node000001_Node000018"><a xlink:title=" ">
<path fill="none" stroke="#63b8ff" d="M901.94,-287.56C956.11,-278.11 1032.44,-264.58 1108.61,-250.23"/>
<polygon fill="#63b8ff" stroke="#63b8ff" points="1109.69,-253.59 1118.86,-248.29 1108.39,-246.71 1109.69,-253.59"/>
</a>
</g>
</g>
<!-- Node19 -->
<g id="Node000019" class="node">
<title>Node19</title>
<g id="a_Node000019"><a xlink:title=" ">
<polygon fill="#e0e0e0" stroke="#999999" points="1380.93,-250 1258.93,-250 1258.93,-220 1380.93,-220 1380.93,-250"/>
<text text-anchor="start" x="1266.93" y="-238" font-family="Helvetica,sans-Serif" font-size="10.00">slick/orderbook/detail</text>
<text text-anchor="middle" x="1319.93" y="-227" font-family="Helvetica,sans-Serif" font-size="10.00">/intrusive_list.hpp</text>
</a>
</g>
</g>
<!-- Node1&#45;&gt;Node19 -->
<g id="edge25_Node000001_Node000019" class="edge">
<title>Node1&#45;&gt;Node19</title>
<g id="a_edge25_Node000001_Node000019"><a xlink:title=" ">
<path fill="none" stroke="#63b8ff" d="M902.26,-293.14C984.02,-284.99 1121.28,-270.13 1248.94,-250.08"/>
<polygon fill="#63b8ff" stroke="#63b8ff" points="1249.57,-253.52 1258.9,-248.5 1248.48,-246.61 1249.57,-253.52"/>
</a>
</g>
</g>
<!-- Node20 -->
<g id="Node000020" class="node">
<title>Node20</title>
<g id="a_Node000020"><a xlink:title=" ">
<polygon fill="#e0e0e0" stroke="#999999" points="1462.93,-244.5 1398.93,-244.5 1398.93,-225.5 1462.93,-225.5 1462.93,-244.5"/>
<text text-anchor="middle" x="1430.93" y="-232.5" font-family="Helvetica,sans-Serif" font-size="10.00">algorithm</text>
</a>
</g>
</g>
<!-- Node1&#45;&gt;Node20 -->
<g id="edge27_Node000001_Node000020" class="edge">
<title>Node1&#45;&gt;Node20</title>
<g id="a_edge27_Node000001_Node000020"><a xlink:title=" ">
<path fill="none" stroke="#63b8ff" d="M902.35,-299.06C1009.88,-296.42 1217.58,-286.56 1389.93,-250 1393,-249.35 1396.15,-248.54 1399.28,-247.64"/>
<polygon fill="#63b8ff" stroke="#63b8ff" points="1400.6,-250.9 1409.08,-244.55 1398.49,-244.22 1400.6,-250.9"/>
</a>
</g>
</g>
<!-- Node21 -->
<g id="Node000021" class="node">
<title>Node21</title>
<g id="a_Node000021"><a xlink:title=" ">
<polygon fill="#e0e0e0" stroke="#999999" points="1522.93,-244.5 1480.93,-244.5 1480.93,-225.5 1522.93,-225.5 1522.93,-244.5"/>
<text text-anchor="middle" x="1501.93" y="-232.5" font-family="Helvetica,sans-Serif" font-size="10.00">array</text>
</a>
</g>
</g>
<!-- Node1&#45;&gt;Node21 -->
<g id="edge29_Node000001_Node000021" class="edge">
<title>Node1&#45;&gt;Node21</title>
<g id="a_edge29_Node000001_Node000021"><a xlink:title=" ">
<path fill="none" stroke="#63b8ff" d="M902.01,-297.63C1046.34,-292.35 1366.04,-277.85 1471.93,-250 1473.61,-249.56 1475.32,-249.02 1477.01,-248.43"/>
<polygon fill="#63b8ff" stroke="#63b8ff" points="1478.55,-251.58 1486.45,-244.51 1475.87,-245.11 1478.55,-251.58"/>
</a>
</g>
</g>
<!-- Node22 -->
<g id="Node000022" class="node">
<title>Node22</title>
<g id="a_Node000022"><a xlink:title=" ">
<polygon fill="#e0e0e0" stroke="#999999" points="1582.43,-244.5 1541.43,-244.5 1541.43,-225.5 1582.43,-225.5 1582.43,-244.5"/>
<text text-anchor="middle" x="1561.93" y="-232.5" font-family="Helvetica,sans-Serif" font-size="10.00">tuple</text>
</a>
</g>
</g>
<!-- Node1&#45;&gt;Node22 -->
<g id="edge30_Node000001_Node000022" class="edge">
<title>Node1&#45;&gt;Node22</title>
<g id="a_edge30_Node000001_Node000022"><a xlink:title=" ">
<path fill="none" stroke="#63b8ff" d="M902.21,-298.18C1056.69,-293.76 1414.48,-280.48 1531.93,-250 1533.62,-249.56 1535.32,-249.03 1537.02,-248.44"/>
<polygon fill="#63b8ff" stroke="#63b8ff" points="1538.55,-251.59 1546.46,-244.53 1535.88,-245.12 1538.55,-251.59"/>
</a>
</g>
</g>
<!-- Node23 -->
<g id="Node000023" class="node">
<title>Node23</title>
<g id="a_Node000023"><a xlink:title=" ">
<polygon fill="#e0e0e0" stroke="#999999" points="1665.43,-244.5 1600.43,-244.5 1600.43,-225.5 1665.43,-225.5 1665.43,-244.5"/>
<text text-anchor="middle" x="1632.93" y="-232.5" font-family="Helvetica,sans-Serif" font-size="10.00">functional</text>
</a>
</g>
</g>
<!-- Node1&#45;&gt;Node23 -->
<g id="edge31_Node000001_Node000023" class="edge">
<title>Node1&#45;&gt;Node23</title>
<g id="a_edge31_Node000001_Node000023"><a xlink:title=" ">
<path fill="none" stroke="#63b8ff" d="M901.94,-297.69C1065.55,-292.07 1461.2,-276.13 1591.93,-250 1595,-249.39 1598.16,-248.6 1601.3,-247.72"/>
<polygon fill="#63b8ff" stroke="#63b8ff" points="1602.6,-250.98 1611.1,-244.64 1600.51,-244.3 1602.6,-250.98"/>
</a>
</g>
</g>
<!-- Node3 -->
<g id="Node000003" class="node">
<title>Node3</title>
<g id="a_Node000003"><a xlink:title=" ">
<polygon fill="#e0e0e0" stroke="#999999" points="209.93,-19 157.93,-19 157.93,0 209.93,0 209.93,-19"/>
<text text-anchor="middle" x="183.93" y="-7" font-family="Helvetica,sans-Serif" font-size="10.00">cassert</text>
</a>
</g>
</g>
<!-- Node2&#45;&gt;Node3 -->
<g id="edge2_Node000002_Node000003" class="edge">
<title>Node2&#45;&gt;Node3</title>
<g id="a_edge2_Node000002_Node000003"><a xlink:title=" ">
<path fill="none" stroke="#63b8ff" d="M183.93,-54.75C183.93,-47.8 183.93,-37.85 183.93,-29.13"/>
<polygon fill="#63b8ff" stroke="#63b8ff" points="187.43,-29.09 183.93,-19.09 180.43,-29.09 187.43,-29.09"/>
</a>
</g>
</g>
<!-- Node4&#45;&gt;Node2 -->
<g id="edge4_Node000004_Node000002" class="edge">
<title>Node4&#45;&gt;Node2</title>
<g id="a_edge4_Node000004_Node000002"><a xlink:title=" ">
<path fill="none" stroke="#63b8ff" d="M373.62,-109.98C334.69,-100.86 272.77,-86.33 230.34,-76.38"/>
<polygon fill="#63b8ff" stroke="#63b8ff" points="231.06,-72.96 220.53,-74.08 229.46,-79.77 231.06,-72.96"/>
</a>
</g>
</g>
<!-- Node5 -->
<g id="Node000005" class="node">
<title>Node5</title>
<g id="a_Node000005"><a xlink:title=" ">
<polygon fill="#e0e0e0" stroke="#999999" points="394.93,-74 344.93,-74 344.93,-55 394.93,-55 394.93,-74"/>
<text text-anchor="middle" x="369.93" y="-62" font-family="Helvetica,sans-Serif" font-size="10.00">cstdint</text>
</a>
</g>
</g>
<!-- Node4&#45;&gt;Node5 -->
<g id="edge5_Node000004_Node000005" class="edge">
<title>Node4&#45;&gt;Node5</title>
<g id="a_edge5_Node000004_Node000005"><a xlink:title=" ">
<path fill="none" stroke="#63b8ff" d="M403.33,-109.75C397.68,-102.26 389.39,-91.28 382.48,-82.13"/>
<polygon fill="#63b8ff" stroke="#63b8ff" points="385.23,-79.96 376.41,-74.09 379.65,-84.18 385.23,-79.96"/>
</a>
</g>
</g>
<!-- Node6 -->
<g id="Node000006" class="node">
<title>Node6</title>
<g id="a_Node000006"><a xlink:title=" ">
<polygon fill="#e0e0e0" stroke="#999999" points="486.43,-74 413.43,-74 413.43,-55 486.43,-55 486.43,-74"/>
<text text-anchor="middle" x="449.93" y="-62" font-family="Helvetica,sans-Serif" font-size="10.00">string_view</text>
</a>
</g>
</g>
<!-- Node4&#45;&gt;Node6 -->
<g id="edge6_Node000004_Node000006" class="edge">
<title>Node4&#45;&gt;Node6</title>
<g id="a_edge6_Node000004_Node000006"><a xlink:title=" ">
<path fill="none" stroke="#63b8ff" d="M416.54,-109.75C422.19,-102.26 430.48,-91.28 437.38,-82.13"/>
<polygon fill="#63b8ff" stroke="#63b8ff" points="440.22,-84.18 443.45,-74.09 434.63,-79.96 440.22,-84.18"/>
</a>
</g>
</g>
<!-- Node7&#45;&gt;Node2 -->
<g id="edge8_Node000007_Node000002" class="edge">
<title>Node7&#45;&gt;Node2</title>
<g id="a_edge8_Node000007_Node000002"><a xlink:title=" ">
<path fill="none" stroke="#63b8ff" d="M99.46,-164.66C114.83,-146.61 150.05,-105.28 169.81,-82.08"/>
<polygon fill="#63b8ff" stroke="#63b8ff" points="172.74,-84.04 176.56,-74.16 167.41,-79.5 172.74,-84.04"/>
</a>
</g>
</g>
<!-- Node7&#45;&gt;Node4 -->
<g id="edge9_Node000007_Node000004" class="edge">
<title>Node7&#45;&gt;Node4</title>
<g id="a_edge9_Node000007_Node000004"><a xlink:title=" ">
<path fill="none" stroke="#63b8ff" d="M143.02,-164.98C199.04,-155.65 288.88,-140.67 348.65,-130.71"/>
<polygon fill="#63b8ff" stroke="#63b8ff" points="349.42,-134.13 358.7,-129.04 348.26,-127.23 349.42,-134.13"/>
</a>
</g>
</g>
<!-- Node8&#45;&gt;Node2 -->
<g id="edge11_Node000008_Node000002" class="edge">
<title>Node8&#45;&gt;Node2</title>
<g id="a_edge11_Node000008_Node000002"><a xlink:title=" ">
<path fill="none" stroke="#63b8ff" d="M277.07,-225.45C255.68,-217.95 228.21,-204.91 211.93,-184 189.08,-154.63 184.41,-109.62 183.73,-84.37"/>
<polygon fill="#63b8ff" stroke="#63b8ff" points="187.23,-84.25 183.65,-74.28 180.23,-84.31 187.23,-84.25"/>
</a>
</g>
</g>
<!-- Node8&#45;&gt;Node7 -->
<g id="edge12_Node000008_Node000007" class="edge">
<title>Node8&#45;&gt;Node7</title>
<g id="a_edge12_Node000008_Node000007"><a xlink:title=" ">
<path fill="none" stroke="#63b8ff" d="M276.52,-225.49C238.69,-215.25 175.02,-198 133.24,-186.69"/>
<polygon fill="#63b8ff" stroke="#63b8ff" points="133.95,-183.25 123.38,-184.02 132.12,-190.01 133.95,-183.25"/>
</a>
</g>
</g>
<!-- Node9 -->
<g id="Node000009" class="node">
<title>Node9</title>
<g id="a_Node000009"><a xlink:href="concepts_8hpp.html" target="_top" xlink:title=" ">
<polygon fill="white" stroke="#666666" points="380.43,-184 221.43,-184 221.43,-165 380.43,-165 380.43,-184"/>
<text text-anchor="middle" x="300.93" y="-172" font-family="Helvetica,sans-Serif" font-size="10.00">slick/orderbook/concepts.hpp</text>
</a>
</g>
</g>
<!-- Node8&#45;&gt;Node9 -->
<g id="edge13_Node000008_Node000009" class="edge">
<title>Node8&#45;&gt;Node9</title>
<g id="a_edge13_Node000008_Node000009"><a xlink:title=" ">
<path fill="none" stroke="#63b8ff" d="M306.9,-225.37C305.93,-217.25 304.44,-204.81 303.19,-194.39"/>
<polygon fill="#63b8ff" stroke="#63b8ff" points="306.63,-193.68 301.97,-184.17 299.68,-194.51 306.63,-193.68"/>
</a>
</g>
</g>
<!-- Node8&#45;&gt;Node12 -->
<g id="edge18_Node000008_Node000012" class="edge">
<title>Node8&#45;&gt;Node12</title>
<g id="a_edge18_Node000008_Node000012"><a xlink:title=" ">
<path fill="none" stroke="#63b8ff" d="M324.75,-225.37C343.53,-215.73 374.14,-200.03 395.99,-188.81"/>
<polygon fill="#63b8ff" stroke="#63b8ff" points="397.74,-191.85 405.04,-184.17 394.55,-185.62 397.74,-191.85"/>
</a>
</g>
</g>
<!-- Node8&#45;&gt;Node13 -->
<g id="edge19_Node000008_Node000013" class="edge">
<title>Node8&#45;&gt;Node13</title>
<g id="a_edge19_Node000008_Node000013"><a xlink:title=" ">
<path fill="none" stroke="#63b8ff" d="M334.83,-225.49C366.89,-215.36 420.62,-198.37 456.41,-187.05"/>
<polygon fill="#63b8ff" stroke="#63b8ff" points="457.52,-190.37 466,-184.02 455.41,-183.69 457.52,-190.37"/>
</a>
</g>
</g>
<!-- Node9&#45;&gt;Node2 -->
<g id="edge14_Node000009_Node000002" class="edge">
<title>Node9&#45;&gt;Node2</title>
<g id="a_edge14_Node000009_Node000002"><a xlink:title=" ">
<path fill="none" stroke="#63b8ff" d="M301.89,-164.64C302.83,-151.3 302.62,-125.93 289.93,-110 277.28,-94.11 257.94,-83.82 239.22,-77.19"/>
<polygon fill="#63b8ff" stroke="#63b8ff" points="240.12,-73.81 229.53,-74.05 237.96,-80.46 240.12,-73.81"/>
</a>
</g>
</g>
<!-- Node9&#45;&gt;Node4 -->
<g id="edge15_Node000009_Node000004" class="edge">
<title>Node9&#45;&gt;Node4</title>
<g id="a_edge15_Node000009_Node000004"><a xlink:title=" ">
<path fill="none" stroke="#63b8ff" d="M318.45,-164.98C335.9,-156.5 362.94,-143.35 383.1,-133.54"/>
<polygon fill="#63b8ff" stroke="#63b8ff" points="384.64,-136.69 392.1,-129.17 381.58,-130.4 384.64,-136.69"/>
</a>
</g>
</g>
<!-- Node10 -->
<g id="Node000010" class="node">
<title>Node10</title>
<g id="a_Node000010"><a xlink:title=" ">
<polygon fill="#e0e0e0" stroke="#999999" points="559.93,-129 499.93,-129 499.93,-110 559.93,-110 559.93,-129"/>
<text text-anchor="middle" x="529.93" y="-117" font-family="Helvetica,sans-Serif" font-size="10.00">concepts</text>
</a>
</g>
</g>
<!-- Node9&#45;&gt;Node10 -->
<g id="edge16_Node000009_Node000010" class="edge">
<title>Node9&#45;&gt;Node10</title>
<g id="a_edge16_Node000009_Node000010"><a xlink:title=" ">
<path fill="none" stroke="#63b8ff" d="M337.73,-164.98C379.39,-155.34 447.06,-139.68 489.99,-129.74"/>
<polygon fill="#63b8ff" stroke="#63b8ff" points="490.86,-133.14 499.81,-127.47 489.28,-126.32 490.86,-133.14"/>
</a>
</g>
</g>
<!-- Node11 -->
<g id="Node000011" class="node">
<title>Node11</title>
<g id="a_Node000011"><a xlink:title=" ">
<polygon fill="#e0e0e0" stroke="#999999" points="281.43,-129 212.43,-129 212.43,-110 281.43,-110 281.43,-129"/>
<text text-anchor="middle" x="246.93" y="-117" font-family="Helvetica,sans-Serif" font-size="10.00">type_traits</text>
</a>
</g>
</g>
<!-- Node9&#45;&gt;Node11 -->
<g id="edge17_Node000009_Node000011" class="edge">
<title>Node9&#45;&gt;Node11</title>
<g id="a_edge17_Node000009_Node000011"><a xlink:title=" ">
<path fill="none" stroke="#63b8ff" d="M292.02,-164.75C284.15,-157.03 272.5,-145.6 263.01,-136.28"/>
<polygon fill="#63b8ff" stroke="#63b8ff" points="265.27,-133.6 255.68,-129.09 260.37,-138.59 265.27,-133.6"/>
</a>
</g>
</g>
</g>
</svg>

<g id="navigator" transform="translate(0 0)" fill="#404254">
  <rect fill="#f2f5e9" fill-opacity="0.5" stroke="#606060" stroke-width=".5" x="0" y="0" width="60" height="60"/>
  <use id="zoomplus" xlink:href="#zoomPlus" x="17" y="9" onmousedown="handleZoom(evt,'in')"/>
  <use id="zoomminus" xlink:href="#zoomMin" x="42" y="9" onmousedown="handleZoom(evt,'out')"/>
  <use id="reset" xlink:href="#resetDef" x="30" y="36" onmousedown="handleReset()"/>
   <use id="arrowup" xlink:href="#arrowUp" x="0" y="0" onmousedown="handlePan(0,-1)"/>
  <use id="arrowright" xlink:href="#arrowRight" x="0" y="0" onmousedown="handlePan(1,0)"/>
  <use id="arrowdown" xlink:href="#arrowDown" x="0" y="0" onmousedown="handlePan(0,1)"/>
  <use id="arrowleft" xlink:href="#arrowLeft" x="0" y="0" onmousedown="handlePan(-1,0)"/>
</g>
<svg viewBox="0 0 15 15" width="100%" height="30px" preserveAspectRatio="xMaxYMin meet">
 <g id="arrow_out" transform="scale(0.3 0.3)">
  <a xlink:href="orderbook__l3_8hpp__incl_org.svg" target="_base">
   <rect id="button" ry="5" rx="5" y="6" x="6" height="38" width="38"
        fill="#f2f5e9" fill-opacity="0.5" stroke="#606060" stroke-width="1.0"/>
   <path id="arrow"
     d="M 11.500037,31.436501 C 11.940474,20.09759 22.043105,11.32322 32.158766,21.979434 L 37.068811,17.246167 C 37.068811,17.246167 37.088388,32 37.088388,32 L 22.160133,31.978069 C 22.160133,31.978069 26.997745,27.140456 26.997745,27.140456 C 18.528582,18.264221 13.291696,25.230495 11.500037,31.436501 z"
     style="fill:#404040;"/>
  </a>
 </g>
</svg>

<style type='text/css'>
<![CDATA[
[data-mouse-over-selected='false'] { opacity: 0.7; }
[data-mouse-over-selected='true']  { opacity: 1.0; }
]]>
</style>
<script type="application/ecmascript"><![CDATA[
document.addEventListener('DOMContentLoaded', (event) => {
  highlightEdges();
  highlightAdjacentNodes();
});
]]></script>
</svg>
