<?xml version="1.0" encoding="UTF-8" standalone="no"?>
<!DOCTYPE svg PUBLIC "-//W3C//DTD SVG 1.1//EN"
 "http://www.w3.org/Graphics/SVG/1.1/DTD/svg11.dtd">
<!-- Generated by graphviz version 2.43.0 (0)
 -->
<!-- Title: slick/orderbook/orderbook_manager.hpp Pages: 1 -->
<svg width="2122pt" height="390pt"
 viewBox="0.00 0.00 2122.27 390.00" xmlns="http://www.w3.org/2000/svg" xmlns:xlink="http://www.w3.org/1999/xlink">
<g id="graph0" class="graph" transform="scale(1 1) rotate(0) translate(4 386)">
<title>slick/orderbook/orderbook_manager.hpp</title>
<!-- Node1 -->
<g id="Node000001" class="node">
<title>Node1</title>
<g id="a_Node000001"><a xlink:title=" ">
<polygon fill="#999999" stroke="#666666" points="1168.27,-382 1024.27,-382 1024.27,-352 1168.27,-352 1168.27,-382"/>
<text text-anchor="start" x="1032.27" y="-370" font-family="Helvetica,sans-Serif" font-size="10.00">slick/orderbook/orderbook</text>
<text text-anchor="middle" x="1096.27" y="-359" font-family="Helvetica,sans-Serif" font-size="10.00">_manager.hpp</text>
</a>
</g>
</g>
<!-- Node2 -->
<g id="Node000002" class="node">
<title>Node2</title>
<g id="a_Node000002"><a xlink:href="config_8hpp.html" target="_top" xlink:title=" ">
<polygon fill="white" stroke="#666666" points="1031.77,-74 886.77,-74 886.77,-55 1031.77,-55 1031.77,-74"/>
<text text-anchor="middle" x="959.27" y="-62" font-family="Helvetica,sans-Serif" font-size="10.00">slick/orderbook/config.hpp</text>
</a>
</g>
</g>
<!-- Node1&#45;&gt;Node2 -->
<g id="edge1_Node000001_Node000002" class="edge">
<title>Node1&#45;&gt;Node2</title>
<g id="a_edge1_Node000001_Node000002"><a xlink:title=" ">
<path fill="none" stroke="#63b8ff" d="M1168.42,-362.42C1372.35,-351.34 1938.27,-313.61 1938.27,-236 1938.27,-236 1938.27,-236 1938.27,-173.5 1938.27,-83.67 1278.69,-68.55 1042.31,-66.01"/>
<polygon fill="#63b8ff" stroke="#63b8ff" points="1042.09,-62.51 1032.05,-65.9 1042.02,-69.51 1042.09,-62.51"/>
</a>
</g>
</g>
<!-- Node4 -->
<g id="Node000004" class="node">
<title>Node4</title>
<g id="a_Node000004"><a xlink:href="types_8hpp.html" target="_top" xlink:title=" ">
<polygon fill="white" stroke="#666666" points="328.77,-129 185.77,-129 185.77,-110 328.77,-110 328.77,-129"/>
<text text-anchor="middle" x="257.27" y="-117" font-family="Helvetica,sans-Serif" font-size="10.00">slick/orderbook/types.hpp</text>
</a>
</g>
</g>
<!-- Node1&#45;&gt;Node4 -->
<g id="edge3_Node000001_Node000004" class="edge">
<title>Node1&#45;&gt;Node4</title>
<g id="a_edge3_Node000001_Node000004"><a xlink:title=" ">
<path fill="none" stroke="#63b8ff" d="M1023.89,-364.54C797.87,-359.7 117.91,-342.97 79.27,-316 42.82,-290.56 27.64,-257.65 51.27,-220 83.07,-169.33 148.76,-143.84 197.45,-131.44"/>
<polygon fill="#63b8ff" stroke="#63b8ff" points="198.37,-134.82 207.26,-129.06 196.72,-128.02 198.37,-134.82"/>
</a>
</g>
</g>
<!-- Node7 -->
<g id="Node000007" class="node">
<title>Node7</title>
<g id="a_Node000007"><a xlink:href="orderbook__l2_8hpp.html" target="_top" xlink:title=" ">
<polygon fill="white" stroke="#666666" points="462.27,-316 318.27,-316 318.27,-286 462.27,-286 462.27,-316"/>
<text text-anchor="start" x="326.27" y="-304" font-family="Helvetica,sans-Serif" font-size="10.00">slick/orderbook/orderbook</text>
<text text-anchor="middle" x="390.27" y="-293" font-family="Helvetica,sans-Serif" font-size="10.00">_l2.hpp</text>
</a>
</g>
</g>
<!-- Node1&#45;&gt;Node7 -->
<g id="edge7_Node000001_Node000007" class="edge">
<title>Node1&#45;&gt;Node7</title>
<g id="a_edge7_Node000001_Node000007"><a xlink:title=" ">
<path fill="none" stroke="#63b8ff" d="M1024.03,-359.45C891.86,-347.47 611.91,-322.09 472.59,-309.46"/>
<polygon fill="#63b8ff" stroke="#63b8ff" points="472.68,-305.96 462.4,-308.54 472.05,-312.93 472.68,-305.96"/>
</a>
</g>
</g>
<!-- Node13 -->
<g id="Node000013" class="node">
<title>Node13</title>
<g id="a_Node000013"><a xlink:title=" ">
<polygon fill="#e0e0e0" stroke="#999999" points="485.77,-184 438.77,-184 438.77,-165 485.77,-165 485.77,-184"/>
<text text-anchor="middle" x="462.27" y="-172" font-family="Helvetica,sans-Serif" font-size="10.00">vector</text>
</a>
</g>
</g>
<!-- Node1&#45;&gt;Node13 -->
<g id="edge49_Node000001_Node000013" class="edge">
<title>Node1&#45;&gt;Node13</title>
<g id="a_edge49_Node000001_Node000013"><a xlink:title=" ">
<path fill="none" stroke="#63b8ff" d="M1024.19,-365.06C814.39,-361.95 213.7,-350.13 132.27,-316 92.23,-299.22 77.75,-289.74 60.27,-250 54.9,-237.8 51.37,-229.93 60.27,-220 84.68,-192.73 335.98,-180.36 428.4,-176.71"/>
<polygon fill="#63b8ff" stroke="#63b8ff" points="428.75,-180.2 438.61,-176.32 428.48,-173.21 428.75,-180.2"/>
</a>
</g>
</g>
<!-- Node14 -->
<g id="Node000014" class="node">
<title>Node14</title>
<g id="a_Node000014"><a xlink:title=" ">
<polygon fill="#e0e0e0" stroke="#999999" points="584.27,-184 526.27,-184 526.27,-165 584.27,-165 584.27,-184"/>
<text text-anchor="middle" x="555.27" y="-172" font-family="Helvetica,sans-Serif" font-size="10.00">memory</text>
</a>
</g>
</g>
<!-- Node1&#45;&gt;Node14 -->
<g id="edge46_Node000001_Node000014" class="edge">
<title>Node1&#45;&gt;Node14</title>
<g id="a_edge46_Node000001_Node000014"><a xlink:title=" ">
<path fill="none" stroke="#63b8ff" d="M1024.14,-363.63C856.63,-357.76 445.23,-341.2 309.27,-316 212.66,-298.09 156.46,-329.17 98.27,-250 24.5,-149.63 -212.86,-265.36 494.27,-184 501.34,-183.19 508.87,-182.22 516.13,-181.24"/>
<polygon fill="#63b8ff" stroke="#63b8ff" points="516.71,-184.69 526.14,-179.85 515.75,-177.75 516.71,-184.69"/>
</a>
</g>
</g>
<!-- Node18 -->
<g id="Node000018" class="node">
<title>Node18</title>
<g id="a_Node000018"><a xlink:href="orderbook__l3_8hpp.html" target="_top" xlink:title=" ">
<polygon fill="white" stroke="#666666" points="1168.27,-316 1024.27,-316 1024.27,-286 1168.27,-286 1168.27,-316"/>
<text text-anchor="start" x="1032.27" y="-304" font-family="Helvetica,sans-Serif" font-size="10.00">slick/orderbook/orderbook</text>
<text text-anchor="middle" x="1096.27" y="-293" font-family="Helvetica,sans-Serif" font-size="10.00">_l3.hpp</text>
</a>
</g>
</g>
<!-- Node1&#45;&gt;Node18 -->
<g id="edge28_Node000001_Node000018" class="edge">
<title>Node1&#45;&gt;Node18</title>
<g id="a_edge28_Node000001_Node000018"><a xlink:title=" ">
<path fill="none" stroke="#63b8ff" d="M1096.27,-351.8C1096.27,-344.34 1096.27,-334.99 1096.27,-326.41"/>
<polygon fill="#63b8ff" stroke="#63b8ff" points="1099.77,-326.16 1096.27,-316.16 1092.77,-326.16 1099.77,-326.16"/>
</a>
</g>
</g>
<!-- Node22 -->
<g id="Node000022" class="node">
<title>Node22</title>
<g id="a_Node000022"><a xlink:title=" ">
<polygon fill="#e0e0e0" stroke="#999999" points="1910.27,-250 1788.27,-250 1788.27,-220 1910.27,-220 1910.27,-250"/>
<text text-anchor="start" x="1796.27" y="-238" font-family="Helvetica,sans-Serif" font-size="10.00">slick/orderbook/detail</text>
<text text-anchor="middle" x="1849.27" y="-227" font-family="Helvetica,sans-Serif" font-size="10.00">/flat_map.hpp</text>
</a>
</g>
</g>
<!-- Node1&#45;&gt;Node22 -->
<g id="edge45_Node000001_Node000022" class="edge">
<title>Node1&#45;&gt;Node22</title>
<g id="a_edge45_Node000001_Node000022"><a xlink:title=" ">
<path fill="none" stroke="#63b8ff" d="M1168.58,-354C1292.61,-333.33 1553.86,-289.42 1774.27,-250 1775.51,-249.78 1776.77,-249.55 1778.04,-249.32"/>
<polygon fill="#63b8ff" stroke="#63b8ff" points="1778.67,-252.77 1787.89,-247.54 1777.42,-245.88 1778.67,-252.77"/>
</a>
</g>
</g>
<!-- Node27 -->
<g id="Node000027" class="node">
<title>Node27</title>
<g id="a_Node000027"><a xlink:title=" ">
<polygon fill="#e0e0e0" stroke="#999999" points="2052.27,-310.5 1966.27,-310.5 1966.27,-291.5 2052.27,-291.5 2052.27,-310.5"/>
<text text-anchor="middle" x="2009.27" y="-298.5" font-family="Helvetica,sans-Serif" font-size="10.00">shared_mutex</text>
</a>
</g>
</g>
<!-- Node1&#45;&gt;Node27 -->
<g id="edge47_Node000001_Node000027" class="edge">
<title>Node1&#45;&gt;Node27</title>
<g id="a_edge47_Node000001_Node000027"><a xlink:title=" ">
<path fill="none" stroke="#63b8ff" d="M1168.31,-366.21C1316.14,-365.68 1664.12,-359.43 1952.27,-316 1957.75,-315.17 1963.47,-314.07 1969.09,-312.84"/>
<polygon fill="#63b8ff" stroke="#63b8ff" points="1970.06,-316.2 1979,-310.52 1968.47,-309.39 1970.06,-316.2"/>
</a>
</g>
</g>
<!-- Node28 -->
<g id="Node000028" class="node">
<title>Node28</title>
<g id="a_Node000028"><a xlink:title=" ">
<polygon fill="#e0e0e0" stroke="#999999" points="2114.27,-310.5 2070.27,-310.5 2070.27,-291.5 2114.27,-291.5 2114.27,-310.5"/>
<text text-anchor="middle" x="2092.27" y="-298.5" font-family="Helvetica,sans-Serif" font-size="10.00">string</text>
</a>
</g>
</g>
<!-- Node1&#45;&gt;Node28 -->
<g id="edge48_Node000001_Node000028" class="edge">
<title>Node1&#45;&gt;Node28</title>
<g id="a_edge48_Node000001_Node000028"><a xlink:title=" ">
<path fill="none" stroke="#63b8ff" d="M1168.49,-365.72C1362.55,-364.4 1892.02,-357.06 2061.27,-316 2063,-315.58 2064.76,-315.06 2066.51,-314.48"/>
<polygon fill="#63b8ff" stroke="#63b8ff" points="2068.27,-317.55 2076.26,-310.59 2065.68,-311.04 2068.27,-317.55"/>
</a>
</g>
</g>
<!-- Node3 -->
<g id="Node000003" class="node">
<title>Node3</title>
<g id="a_Node000003"><a xlink:title=" ">
<polygon fill="#e0e0e0" stroke="#999999" points="985.27,-19 933.27,-19 933.27,0 985.27,0 985.27,-19"/>
<text text-anchor="middle" x="959.27" y="-7" font-family="Helvetica,sans-Serif" font-size="10.00">cassert</text>
</a>
</g>
</g>
<!-- Node2&#45;&gt;Node3 -->
<g id="edge2_Node000002_Node000003" class="edge">
<title>Node2&#45;&gt;Node3</title>
<g id="a_edge2_Node000002_Node000003"><a xlink:title=" ">
<path fill="none" stroke="#63b8ff" d="M959.27,-54.75C959.27,-47.8 959.27,-37.85 959.27,-29.13"/>
<polygon fill="#63b8ff" stroke="#63b8ff" points="962.77,-29.09 959.27,-19.09 955.77,-29.09 962.77,-29.09"/>
</a>
</g>
</g>
<!-- Node4&#45;&gt;Node2 -->
<g id="edge4_Node000004_Node000002" class="edge">
<title>Node4&#45;&gt;Node2</title>
<g id="a_edge4_Node000004_Node000002"><a xlink:title=" ">
<path fill="none" stroke="#63b8ff" d="M329.05,-111.26C333.86,-110.82 338.63,-110.4 343.27,-110 534.01,-93.69 758.33,-78.48 876.61,-70.78"/>
<polygon fill="#63b8ff" stroke="#63b8ff" points="876.92,-74.26 886.67,-70.12 876.47,-67.28 876.92,-74.26"/>
</a>
</g>
</g>
<!-- Node5 -->
<g id="Node000005" class="node">
<title>Node5</title>
<g id="a_Node000005"><a xlink:title=" ">
<polygon fill="#e0e0e0" stroke="#999999" points="242.27,-74 192.27,-74 192.27,-55 242.27,-55 242.27,-74"/>
<text text-anchor="middle" x="217.27" y="-62" font-family="Helvetica,sans-Serif" font-size="10.00">cstdint</text>
</a>
</g>
</g>
<!-- Node4&#45;&gt;Node5 -->
<g id="edge5_Node000004_Node000005" class="edge">
<title>Node4&#45;&gt;Node5</title>
<g id="a_edge5_Node000004_Node000005"><a xlink:title=" ">
<path fill="none" stroke="#63b8ff" d="M250.66,-109.75C245.01,-102.26 236.72,-91.28 229.82,-82.13"/>
<polygon fill="#63b8ff" stroke="#63b8ff" points="232.57,-79.96 223.75,-74.09 226.98,-84.18 232.57,-79.96"/>
</a>
</g>
</g>
<!-- Node6 -->
<g id="Node000006" class="node">
<title>Node6</title>
<g id="a_Node000006"><a xlink:title=" ">
<polygon fill="#e0e0e0" stroke="#999999" points="333.77,-74 260.77,-74 260.77,-55 333.77,-55 333.77,-74"/>
<text text-anchor="middle" x="297.27" y="-62" font-family="Helvetica,sans-Serif" font-size="10.00">string_view</text>
</a>
</g>
</g>
<!-- Node4&#45;&gt;Node6 -->
<g id="edge6_Node000004_Node000006" class="edge">
<title>Node4&#45;&gt;Node6</title>
<g id="a_edge6_Node000004_Node000006"><a xlink:title=" ">
<path fill="none" stroke="#63b8ff" d="M263.87,-109.75C269.52,-102.26 277.81,-91.28 284.72,-82.13"/>
<polygon fill="#63b8ff" stroke="#63b8ff" points="287.56,-84.18 290.79,-74.09 281.97,-79.96 287.56,-84.18"/>
</a>
</g>
</g>
<!-- Node7&#45;&gt;Node2 -->
<g id="edge8_Node000007_Node000002" class="edge">
<title>Node7&#45;&gt;Node2</title>
<g id="a_edge8_Node000007_Node000002"><a xlink:title=" ">
<path fill="none" stroke="#63b8ff" d="M374.16,-285.79C358.03,-269.76 337.21,-242.93 349.27,-220 369.36,-181.81 389.42,-181.56 429.27,-165 579.39,-102.6 769.71,-79.07 876.62,-70.39"/>
<polygon fill="#63b8ff" stroke="#63b8ff" points="877.01,-73.87 886.7,-69.6 876.46,-66.9 877.01,-73.87"/>
</a>
</g>
</g>
<!-- Node7&#45;&gt;Node4 -->
<g id="edge9_Node000007_Node000004" class="edge">
<title>Node7&#45;&gt;Node4</title>
<g id="a_edge9_Node000007_Node000004"><a xlink:title=" ">
<path fill="none" stroke="#63b8ff" d="M334.13,-285.89C314.67,-278.31 294.45,-266.91 281.27,-250 255.93,-217.49 254.38,-166.56 255.67,-139.27"/>
<polygon fill="#63b8ff" stroke="#63b8ff" points="259.18,-139.35 256.34,-129.14 252.19,-138.89 259.18,-139.35"/>
</a>
</g>
</g>
<!-- Node8 -->
<g id="Node000008" class="node">
<title>Node8</title>
<g id="a_Node000008"><a xlink:href="events_8hpp.html" target="_top" xlink:title=" ">
<polygon fill="white" stroke="#666666" points="761.77,-184 612.77,-184 612.77,-165 761.77,-165 761.77,-184"/>
<text text-anchor="middle" x="687.27" y="-172" font-family="Helvetica,sans-Serif" font-size="10.00">slick/orderbook/events.hpp</text>
</a>
</g>
</g>
<!-- Node7&#45;&gt;Node8 -->
<g id="edge10_Node000007_Node000008" class="edge">
<title>Node7&#45;&gt;Node8</title>
<g id="a_edge10_Node000007_Node000008"><a xlink:title=" ">
<path fill="none" stroke="#63b8ff" d="M392.83,-285.92C396.94,-267.67 406.83,-236.26 428.27,-220 442.58,-209.15 537.32,-194.8 608.11,-185.37"/>
<polygon fill="#63b8ff" stroke="#63b8ff" points="608.91,-188.8 618.36,-184.02 607.99,-181.86 608.91,-188.8"/>
</a>
</g>
</g>
<!-- Node9 -->
<g id="Node000009" class="node">
<title>Node9</title>
<g id="a_Node000009"><a xlink:href="observer_8hpp.html" target="_top" xlink:title=" ">
<polygon fill="white" stroke="#666666" points="871.27,-244.5 713.27,-244.5 713.27,-225.5 871.27,-225.5 871.27,-244.5"/>
<text text-anchor="middle" x="792.27" y="-232.5" font-family="Helvetica,sans-Serif" font-size="10.00">slick/orderbook/observer.hpp</text>
</a>
</g>
</g>
<!-- Node7&#45;&gt;Node9 -->
<g id="edge13_Node000007_Node000009" class="edge">
<title>Node7&#45;&gt;Node9</title>
<g id="a_edge13_Node000007_Node000009"><a xlink:title=" ">
<path fill="none" stroke="#63b8ff" d="M462.6,-288.48C538.49,-276.4 656.59,-257.6 728.92,-246.08"/>
<polygon fill="#63b8ff" stroke="#63b8ff" points="729.49,-249.54 738.82,-244.51 728.39,-242.63 729.49,-249.54"/>
</a>
</g>
</g>
<!-- Node7&#45;&gt;Node13 -->
<g id="edge26_Node000007_Node000013" class="edge">
<title>Node7&#45;&gt;Node13</title>
<g id="a_edge26_Node000007_Node000013"><a xlink:title=" ">
<path fill="none" stroke="#63b8ff" d="M376.57,-285.9C362.12,-269.25 343.25,-241.17 357.27,-220 373.05,-196.17 404.43,-185.06 428.79,-179.91"/>
<polygon fill="#63b8ff" stroke="#63b8ff" points="429.55,-183.33 438.74,-178.05 428.26,-176.45 429.55,-183.33"/>
</a>
</g>
</g>
<!-- Node7&#45;&gt;Node14 -->
<g id="edge25_Node000007_Node000014" class="edge">
<title>Node7&#45;&gt;Node14</title>
<g id="a_edge25_Node000007_Node000014"><a xlink:title=" ">
<path fill="none" stroke="#63b8ff" d="M386.66,-285.82C383.12,-268.32 380.2,-238.6 395.27,-220 410.4,-201.32 473.71,-188.1 516.01,-181.14"/>
<polygon fill="#63b8ff" stroke="#63b8ff" points="516.68,-184.58 526,-179.55 515.58,-177.67 516.68,-184.58"/>
</a>
</g>
</g>
<!-- Node15 -->
<g id="Node000015" class="node">
<title>Node15</title>
<g id="a_Node000015"><a xlink:title=" ">
<polygon fill="#e0e0e0" stroke="#999999" points="559.27,-250 437.27,-250 437.27,-220 559.27,-220 559.27,-250"/>
<text text-anchor="start" x="445.27" y="-238" font-family="Helvetica,sans-Serif" font-size="10.00">slick/orderbook/detail</text>
<text text-anchor="middle" x="498.27" y="-227" font-family="Helvetica,sans-Serif" font-size="10.00">/price_level.hpp</text>
</a>
</g>
</g>
<!-- Node7&#45;&gt;Node15 -->
<g id="edge23_Node000007_Node000015" class="edge">
<title>Node7&#45;&gt;Node15</title>
<g id="a_edge23_Node000007_Node000015"><a xlink:title=" ">
<path fill="none" stroke="#63b8ff" d="M413.97,-285.95C429.16,-276.95 449.09,-265.14 465.75,-255.27"/>
<polygon fill="#63b8ff" stroke="#63b8ff" points="467.8,-258.12 474.62,-250.01 464.23,-252.1 467.8,-258.12"/>
</a>
</g>
</g>
<!-- Node16 -->
<g id="Node000016" class="node">
<title>Node16</title>
<g id="a_Node000016"><a xlink:title=" ">
<polygon fill="#e0e0e0" stroke="#999999" points="229.27,-250 107.27,-250 107.27,-220 229.27,-220 229.27,-250"/>
<text text-anchor="start" x="115.27" y="-238" font-family="Helvetica,sans-Serif" font-size="10.00">slick/orderbook/detail</text>
<text text-anchor="middle" x="168.27" y="-227" font-family="Helvetica,sans-Serif" font-size="10.00">/level_container.hpp</text>
</a>
</g>
</g>
<!-- Node7&#45;&gt;Node16 -->
<g id="edge24_Node000007_Node000016" class="edge">
<title>Node7&#45;&gt;Node16</title>
<g id="a_edge24_Node000007_Node000016"><a xlink:title=" ">
<path fill="none" stroke="#63b8ff" d="M341.55,-285.95C307.72,-276.2 262.47,-263.16 226.69,-252.84"/>
<polygon fill="#63b8ff" stroke="#63b8ff" points="227.45,-249.42 216.87,-250.01 225.51,-256.15 227.45,-249.42"/>
</a>
</g>
</g>
<!-- Node17 -->
<g id="Node000017" class="node">
<title>Node17</title>
<g id="a_Node000017"><a xlink:title=" ">
<polygon fill="#e0e0e0" stroke="#999999" points="619.27,-244.5 577.27,-244.5 577.27,-225.5 619.27,-225.5 619.27,-244.5"/>
<text text-anchor="middle" x="598.27" y="-232.5" font-family="Helvetica,sans-Serif" font-size="10.00">array</text>
</a>
</g>
</g>
<!-- Node7&#45;&gt;Node17 -->
<g id="edge27_Node000007_Node000017" class="edge">
<title>Node7&#45;&gt;Node17</title>
<g id="a_edge27_Node000007_Node000017"><a xlink:title=" ">
<path fill="none" stroke="#63b8ff" d="M449.56,-285.93C484.55,-276.99 529.45,-264.4 568.27,-250 569.32,-249.61 570.38,-249.2 571.45,-248.77"/>
<polygon fill="#63b8ff" stroke="#63b8ff" points="573.23,-251.81 581.02,-244.63 570.45,-245.39 573.23,-251.81"/>
</a>
</g>
</g>
<!-- Node8&#45;&gt;Node2 -->
<g id="edge11_Node000008_Node000002" class="edge">
<title>Node8&#45;&gt;Node2</title>
<g id="a_edge11_Node000008_Node000002"><a xlink:title=" ">
<path fill="none" stroke="#63b8ff" d="M696.63,-164.68C711.76,-150.93 743.04,-124.45 774.27,-110 809.88,-93.53 852.27,-82.76 887.48,-75.95"/>
<polygon fill="#63b8ff" stroke="#63b8ff" points="888.5,-79.32 897.69,-74.05 887.21,-72.44 888.5,-79.32"/>
</a>
</g>
</g>
<!-- Node8&#45;&gt;Node4 -->
<g id="edge12_Node000008_Node000004" class="edge">
<title>Node8&#45;&gt;Node4</title>
<g id="a_edge12_Node000008_Node000004"><a xlink:title=" ">
<path fill="none" stroke="#63b8ff" d="M618.18,-164.98C541.34,-155.51 417.43,-140.24 336.66,-130.29"/>
<polygon fill="#63b8ff" stroke="#63b8ff" points="336.89,-126.79 326.54,-129.04 336.04,-133.74 336.89,-126.79"/>
</a>
</g>
</g>
<!-- Node9&#45;&gt;Node2 -->
<g id="edge14_Node000009_Node000002" class="edge">
<title>Node9&#45;&gt;Node2</title>
<g id="a_edge14_Node000009_Node000002"><a xlink:title=" ">
<path fill="none" stroke="#63b8ff" d="M858.13,-225.5C907.36,-217.64 968.73,-204.1 984.27,-184 1007.31,-154.19 985.84,-108.04 970.89,-83.04"/>
<polygon fill="#63b8ff" stroke="#63b8ff" points="973.68,-80.9 965.4,-74.29 967.75,-84.62 973.68,-80.9"/>
</a>
</g>
</g>
<!-- Node9&#45;&gt;Node8 -->
<g id="edge15_Node000009_Node000008" class="edge">
<title>Node9&#45;&gt;Node8</title>
<g id="a_edge15_Node000009_Node000008"><a xlink:title=" ">
<path fill="none" stroke="#63b8ff" d="M776.77,-225.37C759.64,-215.82 731.79,-200.31 711.71,-189.12"/>
<polygon fill="#63b8ff" stroke="#63b8ff" points="713.26,-185.98 702.82,-184.17 709.86,-192.09 713.26,-185.98"/>
</a>
</g>
</g>
<!-- Node10 -->
<g id="Node000010" class="node">
<title>Node10</title>
<g id="a_Node000010"><a xlink:href="concepts_8hpp.html" target="_top" xlink:title=" ">
<polygon fill="white" stroke="#666666" points="975.77,-184 816.77,-184 816.77,-165 975.77,-165 975.77,-184"/>
<text text-anchor="middle" x="896.27" y="-172" font-family="Helvetica,sans-Serif" font-size="10.00">slick/orderbook/concepts.hpp</text>
</a>
</g>
</g>
<!-- Node9&#45;&gt;Node10 -->
<g id="edge16_Node000009_Node000010" class="edge">
<title>Node9&#45;&gt;Node10</title>
<g id="a_edge16_Node000009_Node000010"><a xlink:title=" ">
<path fill="none" stroke="#63b8ff" d="M807.61,-225.37C824.59,-215.82 852.17,-200.31 872.06,-189.12"/>
<polygon fill="#63b8ff" stroke="#63b8ff" points="873.86,-192.12 880.86,-184.17 870.43,-186.02 873.86,-192.12"/>
</a>
</g>
</g>
<!-- Node9&#45;&gt;Node13 -->
<g id="edge21_Node000009_Node000013" class="edge">
<title>Node9&#45;&gt;Node13</title>
<g id="a_edge21_Node000009_Node000013"><a xlink:title=" ">
<path fill="none" stroke="#63b8ff" d="M744.28,-225.49C676.49,-213.48 554.41,-191.83 495.65,-181.42"/>
<polygon fill="#63b8ff" stroke="#63b8ff" points="496.23,-177.97 485.78,-179.67 495.01,-184.86 496.23,-177.97"/>
</a>
</g>
</g>
<!-- Node9&#45;&gt;Node14 -->
<g id="edge22_Node000009_Node000014" class="edge">
<title>Node9&#45;&gt;Node14</title>
<g id="a_edge22_Node000009_Node000014"><a xlink:title=" ">
<path fill="none" stroke="#63b8ff" d="M757.81,-225.49C714.36,-214.77 639.87,-196.38 594.35,-185.15"/>
<polygon fill="#63b8ff" stroke="#63b8ff" points="595.09,-181.72 584.54,-182.73 593.41,-188.52 595.09,-181.72"/>
</a>
</g>
</g>
<!-- Node10&#45;&gt;Node2 -->
<g id="edge17_Node000010_Node000002" class="edge">
<title>Node10&#45;&gt;Node2</title>
<g id="a_edge17_Node000010_Node000002"><a xlink:title=" ">
<path fill="none" stroke="#63b8ff" d="M907.28,-164.71C916.97,-156.43 930.81,-143.22 939.27,-129 947.58,-115.03 952.79,-97.25 955.81,-84.06"/>
<polygon fill="#63b8ff" stroke="#63b8ff" points="959.24,-84.74 957.84,-74.24 952.38,-83.32 959.24,-84.74"/>
</a>
</g>
</g>
<!-- Node10&#45;&gt;Node4 -->
<g id="edge18_Node000010_Node000004" class="edge">
<title>Node10&#45;&gt;Node4</title>
<g id="a_edge18_Node000010_Node000004"><a xlink:title=" ">
<path fill="none" stroke="#63b8ff" d="M816.62,-166.17C812.11,-165.77 807.63,-165.38 803.27,-165 638.5,-150.76 445.65,-135.33 338.89,-126.9"/>
<polygon fill="#63b8ff" stroke="#63b8ff" points="339.08,-123.4 328.83,-126.11 338.53,-130.38 339.08,-123.4"/>
</a>
</g>
</g>
<!-- Node11 -->
<g id="Node000011" class="node">
<title>Node11</title>
<g id="a_Node000011"><a xlink:title=" ">
<polygon fill="#e0e0e0" stroke="#999999" points="843.27,-129 783.27,-129 783.27,-110 843.27,-110 843.27,-129"/>
<text text-anchor="middle" x="813.27" y="-117" font-family="Helvetica,sans-Serif" font-size="10.00">concepts</text>
</a>
</g>
</g>
<!-- Node10&#45;&gt;Node11 -->
<g id="edge19_Node000010_Node000011" class="edge">
<title>Node10&#45;&gt;Node11</title>
<g id="a_edge19_Node000010_Node000011"><a xlink:title=" ">
<path fill="none" stroke="#63b8ff" d="M882.93,-164.98C870.18,-156.84 850.71,-144.41 835.6,-134.76"/>
<polygon fill="#63b8ff" stroke="#63b8ff" points="837.16,-131.6 826.85,-129.17 833.39,-137.5 837.16,-131.6"/>
</a>
</g>
</g>
<!-- Node12 -->
<g id="Node000012" class="node">
<title>Node12</title>
<g id="a_Node000012"><a xlink:title=" ">
<polygon fill="#e0e0e0" stroke="#999999" points="930.77,-129 861.77,-129 861.77,-110 930.77,-110 930.77,-129"/>
<text text-anchor="middle" x="896.27" y="-117" font-family="Helvetica,sans-Serif" font-size="10.00">type_traits</text>
</a>
</g>
</g>
<!-- Node10&#45;&gt;Node12 -->
<g id="edge20_Node000010_Node000012" class="edge">
<title>Node10&#45;&gt;Node12</title>
<g id="a_edge20_Node000010_Node000012"><a xlink:title=" ">
<path fill="none" stroke="#63b8ff" d="M896.27,-164.75C896.27,-157.8 896.27,-147.85 896.27,-139.13"/>
<polygon fill="#63b8ff" stroke="#63b8ff" points="899.77,-139.09 896.27,-129.09 892.77,-139.09 899.77,-139.09"/>
</a>
</g>
</g>
<!-- Node18&#45;&gt;Node2 -->
<g id="edge29_Node000018_Node000002" class="edge">
<title>Node18&#45;&gt;Node2</title>
<g id="a_edge29_Node000018_Node000002"><a xlink:title=" ">
<path fill="none" stroke="#63b8ff" d="M1168.3,-297.02C1332.52,-289.86 1722.03,-270.79 1741.27,-250 1750.32,-240.21 1749.73,-230.3 1741.27,-220 1653.31,-112.97 1224.61,-78.85 1041.95,-69.06"/>
<polygon fill="#63b8ff" stroke="#63b8ff" points="1042.03,-65.56 1031.86,-68.54 1041.67,-72.55 1042.03,-65.56"/>
</a>
</g>
</g>
<!-- Node18&#45;&gt;Node4 -->
<g id="edge30_Node000018_Node000004" class="edge">
<title>Node18&#45;&gt;Node4</title>
<g id="a_edge30_Node000018_Node000004"><a xlink:title=" ">
<path fill="none" stroke="#63b8ff" d="M1045.47,-285.92C1018.18,-277.36 984.46,-265.15 956.27,-250 936.69,-239.48 935.97,-230.29 916.27,-220 871.04,-196.38 854.32,-203.71 807.27,-184 790.22,-176.86 788.03,-170.12 770.27,-165 691.62,-142.35 463.04,-129.33 339.24,-123.76"/>
<polygon fill="#63b8ff" stroke="#63b8ff" points="339.2,-120.25 329.05,-123.31 338.89,-127.25 339.2,-120.25"/>
</a>
</g>
</g>
<!-- Node18&#45;&gt;Node8 -->
<g id="edge31_Node000018_Node000008" class="edge">
<title>Node18&#45;&gt;Node8</title>
<g id="a_edge31_Node000018_Node000008"><a xlink:title=" ">
<path fill="none" stroke="#63b8ff" d="M1028.68,-285.93C995.92,-277.75 956.56,-265.89 923.27,-250 902.24,-239.96 901.57,-229.46 880.27,-220 842.92,-203.42 798.66,-192.64 761.96,-185.85"/>
<polygon fill="#63b8ff" stroke="#63b8ff" points="762.27,-182.36 751.82,-184.04 761.04,-189.25 762.27,-182.36"/>
</a>
</g>
</g>
<!-- Node18&#45;&gt;Node9 -->
<g id="edge32_Node000018_Node000009" class="edge">
<title>Node18&#45;&gt;Node9</title>
<g id="a_edge32_Node000018_Node000009"><a xlink:title=" ">
<path fill="none" stroke="#63b8ff" d="M1029.55,-285.95C973.19,-274.09 893.69,-257.35 842.56,-246.59"/>
<polygon fill="#63b8ff" stroke="#63b8ff" points="843.23,-243.15 832.73,-244.52 841.79,-250 843.23,-243.15"/>
</a>
</g>
</g>
<!-- Node18&#45;&gt;Node13 -->
<g id="edge41_Node000018_Node000013" class="edge">
<title>Node18&#45;&gt;Node13</title>
<g id="a_edge41_Node000018_Node000013"><a xlink:title=" ">
<path fill="none" stroke="#63b8ff" d="M1024.03,-297.05C917.55,-291.8 724.26,-278.59 661.27,-250 643.22,-241.81 645.66,-229.5 628.27,-220 605.58,-207.61 537.53,-191.6 495.93,-182.55"/>
<polygon fill="#63b8ff" stroke="#63b8ff" points="496.49,-179.09 485.97,-180.41 495.01,-185.93 496.49,-179.09"/>
</a>
</g>
</g>
<!-- Node18&#45;&gt;Node14 -->
<g id="edge39_Node000018_Node000014" class="edge">
<title>Node18&#45;&gt;Node14</title>
<g id="a_edge39_Node000018_Node000014"><a xlink:title=" ">
<path fill="none" stroke="#63b8ff" d="M1023.91,-294.93C927.09,-287.43 761,-271.87 704.27,-250 682.53,-241.62 681.68,-231.24 661.27,-220 638.02,-207.2 610.34,-195.69 589.09,-187.59"/>
<polygon fill="#63b8ff" stroke="#63b8ff" points="590.11,-184.24 579.52,-184 587.65,-190.79 590.11,-184.24"/>
</a>
</g>
</g>
<!-- Node18&#45;&gt;Node15 -->
<g id="edge33_Node000018_Node000015" class="edge">
<title>Node18&#45;&gt;Node15</title>
<g id="a_edge33_Node000018_Node000015"><a xlink:title=" ">
<path fill="none" stroke="#63b8ff" d="M1024.25,-295.54C924.34,-288.83 737.89,-274.41 569.34,-250.06"/>
<polygon fill="#63b8ff" stroke="#63b8ff" points="569.69,-246.57 559.29,-248.59 568.68,-253.5 569.69,-246.57"/>
</a>
</g>
</g>
<!-- Node18&#45;&gt;Node17 -->
<g id="edge42_Node000018_Node000017" class="edge">
<title>Node18&#45;&gt;Node17</title>
<g id="a_edge42_Node000018_Node000017"><a xlink:title=" ">
<path fill="none" stroke="#63b8ff" d="M1024.22,-298.28C932.25,-294.72 768.8,-283.75 633.27,-250 630.96,-249.43 628.61,-248.73 626.27,-247.97"/>
<polygon fill="#63b8ff" stroke="#63b8ff" points="627.44,-244.67 616.85,-244.52 625.04,-251.25 627.44,-244.67"/>
</a>
</g>
</g>
<!-- Node19 -->
<g id="Node000019" class="node">
<title>Node19</title>
<g id="a_Node000019"><a xlink:title=" ">
<polygon fill="#e0e0e0" stroke="#999999" points="1087.27,-250 965.27,-250 965.27,-220 1087.27,-220 1087.27,-250"/>
<text text-anchor="start" x="973.27" y="-238" font-family="Helvetica,sans-Serif" font-size="10.00">slick/orderbook/detail</text>
<text text-anchor="middle" x="1026.27" y="-227" font-family="Helvetica,sans-Serif" font-size="10.00">/order.hpp</text>
</a>
</g>
</g>
<!-- Node18&#45;&gt;Node19 -->
<g id="edge34_Node000018_Node000019" class="edge">
<title>Node18&#45;&gt;Node19</title>
<g id="a_edge34_Node000018_Node000019"><a xlink:title=" ">
<path fill="none" stroke="#63b8ff" d="M1080.73,-285.8C1071.49,-277.34 1059.59,-266.46 1049.27,-257.03"/>
<polygon fill="#63b8ff" stroke="#63b8ff" points="1051.5,-254.33 1041.76,-250.16 1046.78,-259.49 1051.5,-254.33"/>
</a>
</g>
</g>
<!-- Node20 -->
<g id="Node000020" class="node">
<title>Node20</title>
<g id="a_Node000020"><a xlink:title=" ">
<polygon fill="#e0e0e0" stroke="#999999" points="1227.27,-250 1105.27,-250 1105.27,-220 1227.27,-220 1227.27,-250"/>
<text text-anchor="start" x="1113.27" y="-238" font-family="Helvetica,sans-Serif" font-size="10.00">slick/orderbook/detail</text>
<text text-anchor="middle" x="1166.27" y="-227" font-family="Helvetica,sans-Serif" font-size="10.00">/order_map.hpp</text>
</a>
</g>
</g>
<!-- Node18&#45;&gt;Node20 -->
<g id="edge35_Node000018_Node000020" class="edge">
<title>Node18&#45;&gt;Node20</title>
<g id="a_edge35_Node000018_Node000020"><a xlink:title=" ">
<path fill="none" stroke="#63b8ff" d="M1111.8,-285.8C1121.05,-277.34 1132.95,-266.46 1143.26,-257.03"/>
<polygon fill="#63b8ff" stroke="#63b8ff" points="1145.76,-259.49 1150.78,-250.16 1141.03,-254.33 1145.76,-259.49"/>
</a>
</g>
</g>
<!-- Node21 -->
<g id="Node000021" class="node">
<title>Node21</title>
<g id="a_Node000021"><a xlink:title=" ">
<polygon fill="#e0e0e0" stroke="#999999" points="1367.27,-250 1245.27,-250 1245.27,-220 1367.27,-220 1367.27,-250"/>
<text text-anchor="start" x="1253.27" y="-238" font-family="Helvetica,sans-Serif" font-size="10.00">slick/orderbook/detail</text>
<text text-anchor="middle" x="1306.27" y="-227" font-family="Helvetica,sans-Serif" font-size="10.00">/memory_pool.hpp</text>
</a>
</g>
</g>
<!-- Node18&#45;&gt;Node21 -->
<g id="edge36_Node000018_Node000021" class="edge">
<title>Node18&#45;&gt;Node21</title>
<g id="a_edge36_Node000018_Node000021"><a xlink:title=" ">
<path fill="none" stroke="#63b8ff" d="M1142.35,-285.95C1174.22,-276.24 1216.79,-263.27 1250.57,-252.98"/>
<polygon fill="#63b8ff" stroke="#63b8ff" points="1251.74,-256.28 1260.29,-250.01 1249.7,-249.58 1251.74,-256.28"/>
</a>
</g>
</g>
<!-- Node18&#45;&gt;Node22 -->
<g id="edge37_Node000018_Node000022" class="edge">
<title>Node18&#45;&gt;Node22</title>
<g id="a_edge37_Node000018_Node000022"><a xlink:title=" ">
<path fill="none" stroke="#63b8ff" d="M1168.28,-297.32C1292.42,-292.1 1554.51,-278.52 1774.27,-250 1775.52,-249.84 1776.79,-249.67 1778.07,-249.49"/>
<polygon fill="#63b8ff" stroke="#63b8ff" points="1778.59,-252.95 1787.96,-248.02 1777.55,-246.03 1778.59,-252.95"/>
</a>
</g>
</g>
<!-- Node23 -->
<g id="Node000023" class="node">
<title>Node23</title>
<g id="a_Node000023"><a xlink:title=" ">
<polygon fill="#e0e0e0" stroke="#999999" points="1507.27,-250 1385.27,-250 1385.27,-220 1507.27,-220 1507.27,-250"/>
<text text-anchor="start" x="1393.27" y="-238" font-family="Helvetica,sans-Serif" font-size="10.00">slick/orderbook/detail</text>
<text text-anchor="middle" x="1446.27" y="-227" font-family="Helvetica,sans-Serif" font-size="10.00">/intrusive_list.hpp</text>
</a>
</g>
</g>
<!-- Node18&#45;&gt;Node23 -->
<g id="edge38_Node000018_Node000023" class="edge">
<title>Node18&#45;&gt;Node23</title>
<g id="a_edge38_Node000018_Node000023"><a xlink:title=" ">
<path fill="none" stroke="#63b8ff" d="M1168.28,-287.56C1222.44,-278.11 1298.77,-264.58 1374.94,-250.23"/>
<polygon fill="#63b8ff" stroke="#63b8ff" points="1376.02,-253.59 1385.2,-248.29 1374.72,-246.71 1376.02,-253.59"/>
</a>
</g>
</g>
<!-- Node24 -->
<g id="Node000024" class="node">
<title>Node24</title>
<g id="a_Node000024"><a xlink:title=" ">
<polygon fill="#e0e0e0" stroke="#999999" points="1589.27,-244.5 1525.27,-244.5 1525.27,-225.5 1589.27,-225.5 1589.27,-244.5"/>
<text text-anchor="middle" x="1557.27" y="-232.5" font-family="Helvetica,sans-Serif" font-size="10.00">algorithm</text>
</a>
</g>
</g>
<!-- Node18&#45;&gt;Node24 -->
<g id="edge40_Node000018_Node000024" class="edge">
<title>Node18&#45;&gt;Node24</title>
<g id="a_edge40_Node000018_Node000024"><a xlink:title=" ">
<path fill="none" stroke="#63b8ff" d="M1168.39,-296.04C1252.69,-290.35 1395.98,-277.38 1516.27,-250 1519.25,-249.32 1522.32,-248.5 1525.38,-247.61"/>
<polygon fill="#63b8ff" stroke="#63b8ff" points="1526.49,-250.93 1534.96,-244.57 1524.37,-244.26 1526.49,-250.93"/>
</a>
</g>
</g>
<!-- Node25 -->
<g id="Node000025" class="node">
<title>Node25</title>
<g id="a_Node000025"><a xlink:title=" ">
<polygon fill="#e0e0e0" stroke="#999999" points="1648.77,-244.5 1607.77,-244.5 1607.77,-225.5 1648.77,-225.5 1648.77,-244.5"/>
<text text-anchor="middle" x="1628.27" y="-232.5" font-family="Helvetica,sans-Serif" font-size="10.00">tuple</text>
</a>
</g>
</g>
<!-- Node18&#45;&gt;Node25 -->
<g id="edge43_Node000018_Node000025" class="edge">
<title>Node18&#45;&gt;Node25</title>
<g id="a_edge43_Node000018_Node000025"><a xlink:title=" ">
<path fill="none" stroke="#63b8ff" d="M1168.31,-300.37C1267.06,-299.19 1449.2,-290.93 1598.27,-250 1599.76,-249.59 1601.26,-249.11 1602.77,-248.59"/>
<polygon fill="#63b8ff" stroke="#63b8ff" points="1604.55,-251.64 1612.46,-244.59 1601.88,-245.17 1604.55,-251.64"/>
</a>
</g>
</g>
<!-- Node26 -->
<g id="Node000026" class="node">
<title>Node26</title>
<g id="a_Node000026"><a xlink:title=" ">
<polygon fill="#e0e0e0" stroke="#999999" points="1731.77,-244.5 1666.77,-244.5 1666.77,-225.5 1731.77,-225.5 1731.77,-244.5"/>
<text text-anchor="middle" x="1699.27" y="-232.5" font-family="Helvetica,sans-Serif" font-size="10.00">functional</text>
</a>
</g>
</g>
<!-- Node18&#45;&gt;Node26 -->
<g id="edge44_Node000018_Node000026" class="edge">
<title>Node18&#45;&gt;Node26</title>
<g id="a_edge44_Node000018_Node000026"><a xlink:title=" ">
<path fill="none" stroke="#63b8ff" d="M1168.5,-299.1C1276.28,-296.51 1485.06,-286.72 1658.27,-250 1661.33,-249.35 1664.49,-248.54 1667.62,-247.64"/>
<polygon fill="#63b8ff" stroke="#63b8ff" points="1668.93,-250.9 1677.41,-244.55 1666.82,-244.22 1668.93,-250.9"/>
</a>
</g>
</g>
</g>
</svg>
