<?xml version="1.0" encoding="UTF-8" standalone="no"?>
<!DOCTYPE svg PUBLIC "-//W3C//DTD SVG 1.1//EN"
 "http://www.w3.org/Graphics/SVG/1.1/DTD/svg11.dtd">
<!-- Generated by graphviz version 2.43.0 (0)
 -->
<!-- Title: slick/orderbook/orderbook.hpp Pages: 1 -->
<!--zoomable 445 -->

<svg id="main" version="1.1" xmlns="http://www.w3.org/2000/svg" xmlns:xlink="http://www.w3.org/1999/xlink" xml:space="preserve" onload="init(evt)">
<style type="text/css"><![CDATA[
.node, .edge {opacity: 0.7;}
.node.selected, .edge.selected {opacity: 1;}
.edge:hover path { stroke: red; }
.edge:hover polygon { stroke: red; fill: red; }
]]></style>

<defs>
  <circle id="rim" cx="0" cy="0" r="7"/>
  <circle id="rim2" cx="0" cy="0" r="3.5"/>
  <g id="zoomPlus">
    <use xlink:href="#rim" fill="#404040"><set attributeName="fill" to="#808080" begin="zoomplus.mouseover" end="zoomplus.mouseout"/></use>
    <path d="M-4,0h8M0,-4v8" fill="none" stroke="white" stroke-width="1.5" pointer-events="none"/>
  </g>
  <g id="zoomMin">
    <use xlink:href="#rim" fill="#404040"><set attributeName="fill" to="#808080" begin="zoomminus.mouseover" end="zoomminus.mouseout"/></use>
    <path d="M-4,0h8" fill="none" stroke="white" stroke-width="1.5" pointer-events="none"/>
  </g>
  <g id="arrowUp" transform="translate(30 24)">
    <use xlink:href="#rim"/>
    <path pointer-events="none" fill="none" stroke="white" stroke-width="1.5" d="M0,-3.0v7 M-2.5,-0.5L0,-3.0L2.5,-0.5"/>
  </g>
  <g id="arrowRight" transform="rotate(90) translate(36 -43)">
    <use xlink:href="#rim"/>
    <path pointer-events="none" fill="none" stroke="white" stroke-width="1.5" d="M0,-3.0v7 M-2.5,-0.5L0,-3.0L2.5,-0.5"/>
  </g>
  <g id="arrowDown" transform="rotate(180) translate(-30 -48)">
    <use xlink:href="#rim"/>
    <path pointer-events="none" fill="none" stroke="white" stroke-width="1.5" d="M0,-3.0v7 M-2.5,-0.5L0,-3.0L2.5,-0.5"/>
  </g>
  <g id="arrowLeft" transform="rotate(270) translate(-36 17)">
    <use xlink:href="#rim"/>
    <path pointer-events="none" fill="none" stroke="white" stroke-width="1.5" d="M0,-3.0v7 M-2.5,-0.5L0,-3.0L2.5,-0.5"/>
  </g>
  <g id="resetDef">
    <use xlink:href="#rim2" fill="#404040"><set attributeName="fill" to="#808080" begin="reset.mouseover" end="reset.mouseout"/></use>
  </g>
</defs>
<script type="application/ecmascript">
var viewWidth = 2372;
var viewHeight = 445;
var sectionId = 'dynsection-0';
</script>
<script type="application/ecmascript" xlink:href="svg.min.js"/>
<svg id="graph" class="graph">
<g id="viewport">
<title>slick/orderbook/orderbook.hpp</title>
<!-- Node1 -->
<g id="Node000001" class="node">
<title>Node1</title>
<g id="a_Node000001"><a xlink:title=" ">
<polygon fill="#999999" stroke="#666666" points="648,-437 483,-437 483,-418 648,-418 648,-437"/>
<text text-anchor="middle" x="565.5" y="-425" font-family="Helvetica,sans-Serif" font-size="10.00">slick/orderbook/orderbook.hpp</text>
</a>
</g>
</g>
<!-- Node2 -->
<g id="Node000002" class="node">
<title>Node2</title>
<g id="a_Node000002"><a xlink:href="config_8hpp.html" target="_top" xlink:title=" ">
<polygon fill="white" stroke="#666666" points="670,-74 525,-74 525,-55 670,-55 670,-74"/>
<text text-anchor="middle" x="597.5" y="-62" font-family="Helvetica,sans-Serif" font-size="10.00">slick/orderbook/config.hpp</text>
</a>
</g>
</g>
<!-- Node1&#45;&gt;Node2 -->
<g id="edge1_Node000001_Node000002" class="edge">
<title>Node1&#45;&gt;Node2</title>
<g id="a_edge1_Node000001_Node000002"><a xlink:title=" ">
<path fill="none" stroke="#63b8ff" d="M648.41,-426.82C926.77,-427.49 1826.54,-426.09 2112.5,-382 2228.22,-364.16 2363.5,-419.08 2363.5,-302 2363.5,-302 2363.5,-302 2363.5,-173.5 2363.5,-88.05 1028.79,-69.55 680.05,-66.17"/>
<polygon fill="#63b8ff" stroke="#63b8ff" points="680.05,-62.67 670.02,-66.08 679.99,-69.67 680.05,-62.67"/>
</a>
</g>
</g>
<!-- Node4 -->
<g id="Node000004" class="node">
<title>Node4</title>
<g id="a_Node000004"><a xlink:href="types_8hpp.html" target="_top" xlink:title=" ">
<polygon fill="white" stroke="#666666" points="510,-129 367,-129 367,-110 510,-110 510,-129"/>
<text text-anchor="middle" x="438.5" y="-117" font-family="Helvetica,sans-Serif" font-size="10.00">slick/orderbook/types.hpp</text>
</a>
</g>
</g>
<!-- Node1&#45;&gt;Node4 -->
<g id="edge3_Node000001_Node000004" class="edge">
<title>Node1&#45;&gt;Node4</title>
<g id="a_edge3_Node000001_Node000004"><a xlink:title=" ">
<path fill="none" stroke="#63b8ff" d="M492.64,-417.96C455.29,-411.56 409.91,-400.6 372.5,-382 303.86,-347.88 278.66,-324.71 261.5,-250 252.71,-211.74 256.02,-190.92 285.5,-165 305.31,-147.59 331.58,-136.97 356.76,-130.5"/>
<polygon fill="#63b8ff" stroke="#63b8ff" points="357.79,-133.86 366.71,-128.14 356.18,-127.05 357.79,-133.86"/>
</a>
</g>
</g>
<!-- Node7 -->
<g id="Node000007" class="node">
<title>Node7</title>
<g id="a_Node000007"><a xlink:href="concepts_8hpp.html" target="_top" xlink:title=" ">
<polygon fill="white" stroke="#666666" points="159,-184 0,-184 0,-165 159,-165 159,-184"/>
<text text-anchor="middle" x="79.5" y="-172" font-family="Helvetica,sans-Serif" font-size="10.00">slick/orderbook/concepts.hpp</text>
</a>
</g>
</g>
<!-- Node1&#45;&gt;Node7 -->
<g id="edge7_Node000001_Node000007" class="edge">
<title>Node1&#45;&gt;Node7</title>
<g id="a_edge7_Node000001_Node000007"><a xlink:title=" ">
<path fill="none" stroke="#63b8ff" d="M482.86,-422.97C365.12,-417.2 160.39,-404.1 134.5,-382 78.28,-334 76.26,-235.61 78.12,-194.36"/>
<polygon fill="#63b8ff" stroke="#63b8ff" points="81.62,-194.52 78.71,-184.33 74.63,-194.11 81.62,-194.52"/>
</a>
</g>
</g>
<!-- Node10 -->
<g id="Node000010" class="node">
<title>Node10</title>
<g id="a_Node000010"><a xlink:href="events_8hpp.html" target="_top" xlink:title=" ">
<polygon fill="white" stroke="#666666" points="513,-184 364,-184 364,-165 513,-165 513,-184"/>
<text text-anchor="middle" x="438.5" y="-172" font-family="Helvetica,sans-Serif" font-size="10.00">slick/orderbook/events.hpp</text>
</a>
</g>
</g>
<!-- Node1&#45;&gt;Node10 -->
<g id="edge12_Node000001_Node000010" class="edge">
<title>Node1&#45;&gt;Node10</title>
<g id="a_edge12_Node000001_Node000010"><a xlink:title=" ">
<path fill="none" stroke="#63b8ff" d="M531.27,-417.97C466.49,-399.76 327.39,-350.33 270.5,-250 248.32,-210.89 301.47,-192.26 353.73,-183.42"/>
<polygon fill="#63b8ff" stroke="#63b8ff" points="354.47,-186.85 363.8,-181.83 353.38,-179.93 354.47,-186.85"/>
</a>
</g>
</g>
<!-- Node11 -->
<g id="Node000011" class="node">
<title>Node11</title>
<g id="a_Node000011"><a xlink:href="observer_8hpp.html" target="_top" xlink:title=" ">
<polygon fill="white" stroke="#666666" points="588.5,-244.5 430.5,-244.5 430.5,-225.5 588.5,-225.5 588.5,-244.5"/>
<text text-anchor="middle" x="509.5" y="-232.5" font-family="Helvetica,sans-Serif" font-size="10.00">slick/orderbook/observer.hpp</text>
</a>
</g>
</g>
<!-- Node1&#45;&gt;Node11 -->
<g id="edge15_Node000001_Node000011" class="edge">
<title>Node1&#45;&gt;Node11</title>
<g id="a_edge15_Node000001_Node000011"><a xlink:title=" ">
<path fill="none" stroke="#63b8ff" d="M562.95,-417.82C554.42,-388.81 526.79,-294.8 514.96,-254.56"/>
<polygon fill="#63b8ff" stroke="#63b8ff" points="518.24,-253.34 512.07,-244.73 511.53,-255.31 518.24,-253.34"/>
</a>
</g>
</g>
<!-- Node14 -->
<g id="Node000014" class="node">
<title>Node14</title>
<g id="a_Node000014"><a xlink:href="orderbook__l2_8hpp.html" target="_top" xlink:title=" ">
<polygon fill="white" stroke="#666666" points="688.5,-316 544.5,-316 544.5,-286 688.5,-286 688.5,-316"/>
<text text-anchor="start" x="552.5" y="-304" font-family="Helvetica,sans-Serif" font-size="10.00">slick/orderbook/orderbook</text>
<text text-anchor="middle" x="616.5" y="-293" font-family="Helvetica,sans-Serif" font-size="10.00">_l2.hpp</text>
</a>
</g>
</g>
<!-- Node1&#45;&gt;Node14 -->
<g id="edge21_Node000001_Node000014" class="edge">
<title>Node1&#45;&gt;Node14</title>
<g id="a_edge21_Node000001_Node000014"><a xlink:title=" ">
<path fill="none" stroke="#63b8ff" d="M569.01,-417.94C576.7,-399.15 595.31,-353.73 606.81,-325.64"/>
<polygon fill="#63b8ff" stroke="#63b8ff" points="610.15,-326.74 610.7,-316.16 603.67,-324.09 610.15,-326.74"/>
</a>
</g>
</g>
<!-- Node18 -->
<g id="Node000018" class="node">
<title>Node18</title>
<g id="a_Node000018"><a xlink:href="orderbook__l3_8hpp.html" target="_top" xlink:title=" ">
<polygon fill="white" stroke="#666666" points="1465.5,-316 1321.5,-316 1321.5,-286 1465.5,-286 1465.5,-316"/>
<text text-anchor="start" x="1329.5" y="-304" font-family="Helvetica,sans-Serif" font-size="10.00">slick/orderbook/orderbook</text>
<text text-anchor="middle" x="1393.5" y="-293" font-family="Helvetica,sans-Serif" font-size="10.00">_l3.hpp</text>
</a>
</g>
</g>
<!-- Node1&#45;&gt;Node18 -->
<g id="edge31_Node000001_Node000018" class="edge">
<title>Node1&#45;&gt;Node18</title>
<g id="a_edge31_Node000001_Node000018"><a xlink:title=" ">
<path fill="none" stroke="#63b8ff" d="M622.09,-417.99C765.48,-396.43 1143.62,-339.57 1311.36,-314.35"/>
<polygon fill="#63b8ff" stroke="#63b8ff" points="1312,-317.79 1321.37,-312.85 1310.96,-310.87 1312,-317.79"/>
</a>
</g>
</g>
<!-- Node27 -->
<g id="Node000027" class="node">
<title>Node27</title>
<g id="a_Node000027"><a xlink:href="orderbook__manager_8hpp.html" target="_top" xlink:title=" ">
<polygon fill="white" stroke="#666666" points="2103.5,-382 1959.5,-382 1959.5,-352 2103.5,-352 2103.5,-382"/>
<text text-anchor="start" x="1967.5" y="-370" font-family="Helvetica,sans-Serif" font-size="10.00">slick/orderbook/orderbook</text>
<text text-anchor="middle" x="2031.5" y="-359" font-family="Helvetica,sans-Serif" font-size="10.00">_manager.hpp</text>
</a>
</g>
</g>
<!-- Node1&#45;&gt;Node27 -->
<g id="edge48_Node000001_Node000027" class="edge">
<title>Node1&#45;&gt;Node27</title>
<g id="a_edge48_Node000001_Node000027"><a xlink:title=" ">
<path fill="none" stroke="#63b8ff" d="M648.25,-423.2C906.03,-412.91 1692.64,-381.52 1949.45,-371.27"/>
<polygon fill="#63b8ff" stroke="#63b8ff" points="1949.61,-374.77 1959.46,-370.87 1949.33,-367.78 1949.61,-374.77"/>
</a>
</g>
</g>
<!-- Node3 -->
<g id="Node000003" class="node">
<title>Node3</title>
<g id="a_Node000003"><a xlink:title=" ">
<polygon fill="#e0e0e0" stroke="#999999" points="623.5,-19 571.5,-19 571.5,0 623.5,0 623.5,-19"/>
<text text-anchor="middle" x="597.5" y="-7" font-family="Helvetica,sans-Serif" font-size="10.00">cassert</text>
</a>
</g>
</g>
<!-- Node2&#45;&gt;Node3 -->
<g id="edge2_Node000002_Node000003" class="edge">
<title>Node2&#45;&gt;Node3</title>
<g id="a_edge2_Node000002_Node000003"><a xlink:title=" ">
<path fill="none" stroke="#63b8ff" d="M597.5,-54.75C597.5,-47.8 597.5,-37.85 597.5,-29.13"/>
<polygon fill="#63b8ff" stroke="#63b8ff" points="601,-29.09 597.5,-19.09 594,-29.09 601,-29.09"/>
</a>
</g>
</g>
<!-- Node4&#45;&gt;Node2 -->
<g id="edge4_Node000004_Node000002" class="edge">
<title>Node4&#45;&gt;Node2</title>
<g id="a_edge4_Node000004_Node000002"><a xlink:title=" ">
<path fill="none" stroke="#63b8ff" d="M464.05,-109.98C490.62,-101.13 532.44,-87.19 562.17,-77.28"/>
<polygon fill="#63b8ff" stroke="#63b8ff" points="563.37,-80.56 571.75,-74.08 561.16,-73.92 563.37,-80.56"/>
</a>
</g>
</g>
<!-- Node5 -->
<g id="Node000005" class="node">
<title>Node5</title>
<g id="a_Node000005"><a xlink:title=" ">
<polygon fill="#e0e0e0" stroke="#999999" points="389.5,-74 339.5,-74 339.5,-55 389.5,-55 389.5,-74"/>
<text text-anchor="middle" x="364.5" y="-62" font-family="Helvetica,sans-Serif" font-size="10.00">cstdint</text>
</a>
</g>
</g>
<!-- Node4&#45;&gt;Node5 -->
<g id="edge5_Node000004_Node000005" class="edge">
<title>Node4&#45;&gt;Node5</title>
<g id="a_edge5_Node000004_Node000005"><a xlink:title=" ">
<path fill="none" stroke="#63b8ff" d="M426.61,-109.98C415.35,-101.92 398.21,-89.65 384.79,-80.03"/>
<polygon fill="#63b8ff" stroke="#63b8ff" points="386.77,-77.15 376.61,-74.17 382.7,-82.84 386.77,-77.15"/>
</a>
</g>
</g>
<!-- Node6 -->
<g id="Node000006" class="node">
<title>Node6</title>
<g id="a_Node000006"><a xlink:title=" ">
<polygon fill="#e0e0e0" stroke="#999999" points="481,-74 408,-74 408,-55 481,-55 481,-74"/>
<text text-anchor="middle" x="444.5" y="-62" font-family="Helvetica,sans-Serif" font-size="10.00">string_view</text>
</a>
</g>
</g>
<!-- Node4&#45;&gt;Node6 -->
<g id="edge6_Node000004_Node000006" class="edge">
<title>Node4&#45;&gt;Node6</title>
<g id="a_edge6_Node000004_Node000006"><a xlink:title=" ">
<path fill="none" stroke="#63b8ff" d="M439.49,-109.75C440.28,-102.8 441.4,-92.85 442.39,-84.13"/>
<polygon fill="#63b8ff" stroke="#63b8ff" points="445.88,-84.42 443.53,-74.09 438.92,-83.63 445.88,-84.42"/>
</a>
</g>
</g>
<!-- Node7&#45;&gt;Node2 -->
<g id="edge8_Node000007_Node000002" class="edge">
<title>Node7&#45;&gt;Node2</title>
<g id="a_edge8_Node000007_Node000002"><a xlink:title=" ">
<path fill="none" stroke="#63b8ff" d="M114.94,-164.91C167.68,-152.24 269.99,-128.1 357.5,-110 418.91,-97.3 489.51,-84.41 538.16,-75.8"/>
<polygon fill="#63b8ff" stroke="#63b8ff" points="538.96,-79.21 548.2,-74.03 537.75,-72.32 538.96,-79.21"/>
</a>
</g>
</g>
<!-- Node7&#45;&gt;Node4 -->
<g id="edge9_Node000007_Node000004" class="edge">
<title>Node7&#45;&gt;Node4</title>
<g id="a_edge9_Node000007_Node000004"><a xlink:title=" ">
<path fill="none" stroke="#63b8ff" d="M137.18,-164.98C200.81,-155.59 303.1,-140.49 370.56,-130.53"/>
<polygon fill="#63b8ff" stroke="#63b8ff" points="371.28,-133.96 380.67,-129.04 370.26,-127.04 371.28,-133.96"/>
</a>
</g>
</g>
<!-- Node8 -->
<g id="Node000008" class="node">
<title>Node8</title>
<g id="a_Node000008"><a xlink:title=" ">
<polygon fill="#e0e0e0" stroke="#999999" points="68.5,-129 8.5,-129 8.5,-110 68.5,-110 68.5,-129"/>
<text text-anchor="middle" x="38.5" y="-117" font-family="Helvetica,sans-Serif" font-size="10.00">concepts</text>
</a>
</g>
</g>
<!-- Node7&#45;&gt;Node8 -->
<g id="edge10_Node000007_Node000008" class="edge">
<title>Node7&#45;&gt;Node8</title>
<g id="a_edge10_Node000007_Node000008"><a xlink:title=" ">
<path fill="none" stroke="#63b8ff" d="M72.73,-164.75C66.94,-157.26 58.44,-146.28 51.36,-137.13"/>
<polygon fill="#63b8ff" stroke="#63b8ff" points="54.03,-134.86 45.14,-129.09 48.49,-139.14 54.03,-134.86"/>
</a>
</g>
</g>
<!-- Node9 -->
<g id="Node000009" class="node">
<title>Node9</title>
<g id="a_Node000009"><a xlink:title=" ">
<polygon fill="#e0e0e0" stroke="#999999" points="156,-129 87,-129 87,-110 156,-110 156,-129"/>
<text text-anchor="middle" x="121.5" y="-117" font-family="Helvetica,sans-Serif" font-size="10.00">type_traits</text>
</a>
</g>
</g>
<!-- Node7&#45;&gt;Node9 -->
<g id="edge11_Node000007_Node000009" class="edge">
<title>Node7&#45;&gt;Node9</title>
<g id="a_edge11_Node000007_Node000009"><a xlink:title=" ">
<path fill="none" stroke="#63b8ff" d="M86.44,-164.75C92.37,-157.26 101.07,-146.28 108.32,-137.13"/>
<polygon fill="#63b8ff" stroke="#63b8ff" points="111.23,-139.1 114.69,-129.09 105.74,-134.75 111.23,-139.1"/>
</a>
</g>
</g>
<!-- Node10&#45;&gt;Node2 -->
<g id="edge13_Node000010_Node000002" class="edge">
<title>Node10&#45;&gt;Node2</title>
<g id="a_edge13_Node000010_Node000002"><a xlink:title=" ">
<path fill="none" stroke="#63b8ff" d="M456.1,-165C472.88,-156.62 498.61,-143.07 519.5,-129 541.49,-114.18 564.85,-94.6 580.2,-81.12"/>
<polygon fill="#63b8ff" stroke="#63b8ff" points="582.7,-83.58 587.85,-74.32 578.05,-78.35 582.7,-83.58"/>
</a>
</g>
</g>
<!-- Node10&#45;&gt;Node4 -->
<g id="edge14_Node000010_Node000004" class="edge">
<title>Node10&#45;&gt;Node4</title>
<g id="a_edge14_Node000010_Node000004"><a xlink:title=" ">
<path fill="none" stroke="#63b8ff" d="M438.5,-164.75C438.5,-157.8 438.5,-147.85 438.5,-139.13"/>
<polygon fill="#63b8ff" stroke="#63b8ff" points="442,-139.09 438.5,-129.09 435,-139.09 442,-139.09"/>
</a>
</g>
</g>
<!-- Node11&#45;&gt;Node2 -->
<g id="edge16_Node000011_Node000002" class="edge">
<title>Node11&#45;&gt;Node2</title>
<g id="a_edge16_Node000011_Node000002"><a xlink:title=" ">
<path fill="none" stroke="#63b8ff" d="M513.98,-225.41C527.69,-199.17 569.24,-119.61 588.06,-83.58"/>
<polygon fill="#63b8ff" stroke="#63b8ff" points="591.39,-84.76 592.92,-74.27 585.19,-81.52 591.39,-84.76"/>
</a>
</g>
</g>
<!-- Node11&#45;&gt;Node7 -->
<g id="edge18_Node000011_Node000007" class="edge">
<title>Node11&#45;&gt;Node7</title>
<g id="a_edge18_Node000011_Node000007"><a xlink:title=" ">
<path fill="none" stroke="#63b8ff" d="M457.42,-225.46C445.62,-223.6 433.14,-221.68 421.5,-220 331.98,-207.06 229.01,-193.89 159.65,-185.28"/>
<polygon fill="#63b8ff" stroke="#63b8ff" points="160.02,-181.8 149.66,-184.04 159.16,-188.74 160.02,-181.8"/>
</a>
</g>
</g>
<!-- Node11&#45;&gt;Node10 -->
<g id="edge17_Node000011_Node000010" class="edge">
<title>Node11&#45;&gt;Node10</title>
<g id="a_edge17_Node000011_Node000010"><a xlink:title=" ">
<path fill="none" stroke="#63b8ff" d="M499.02,-225.37C488.01,-216.3 470.46,-201.84 457.09,-190.82"/>
<polygon fill="#63b8ff" stroke="#63b8ff" points="458.96,-187.83 449.02,-184.17 454.51,-193.23 458.96,-187.83"/>
</a>
</g>
</g>
<!-- Node12 -->
<g id="Node000012" class="node">
<title>Node12</title>
<g id="a_Node000012"><a xlink:title=" ">
<polygon fill="#e0e0e0" stroke="#999999" points="1241,-184 1194,-184 1194,-165 1241,-165 1241,-184"/>
<text text-anchor="middle" x="1217.5" y="-172" font-family="Helvetica,sans-Serif" font-size="10.00">vector</text>
</a>
</g>
</g>
<!-- Node11&#45;&gt;Node12 -->
<g id="edge19_Node000011_Node000012" class="edge">
<title>Node11&#45;&gt;Node12</title>
<g id="a_edge19_Node000011_Node000012"><a xlink:title=" ">
<path fill="none" stroke="#63b8ff" d="M588.6,-227.44C616.95,-225.09 649.16,-222.43 678.5,-220 869.64,-204.19 1098.91,-185.28 1183.78,-178.28"/>
<polygon fill="#63b8ff" stroke="#63b8ff" points="1184.18,-181.76 1193.86,-177.45 1183.6,-174.78 1184.18,-181.76"/>
</a>
</g>
</g>
<!-- Node13 -->
<g id="Node000013" class="node">
<title>Node13</title>
<g id="a_Node000013"><a xlink:title=" ">
<polygon fill="#e0e0e0" stroke="#999999" points="939.5,-184 881.5,-184 881.5,-165 939.5,-165 939.5,-184"/>
<text text-anchor="middle" x="910.5" y="-172" font-family="Helvetica,sans-Serif" font-size="10.00">memory</text>
</a>
</g>
</g>
<!-- Node11&#45;&gt;Node13 -->
<g id="edge20_Node000011_Node000013" class="edge">
<title>Node11&#45;&gt;Node13</title>
<g id="a_edge20_Node000011_Node000013"><a xlink:title=" ">
<path fill="none" stroke="#63b8ff" d="M567.81,-225.49C650.66,-213.41 800.25,-191.58 871.17,-181.24"/>
<polygon fill="#63b8ff" stroke="#63b8ff" points="872.06,-184.65 881.45,-179.74 871.04,-177.72 872.06,-184.65"/>
</a>
</g>
</g>
<!-- Node14&#45;&gt;Node2 -->
<g id="edge22_Node000014_Node000002" class="edge">
<title>Node14&#45;&gt;Node2</title>
<g id="a_edge22_Node000014_Node000002"><a xlink:title=" ">
<path fill="none" stroke="#63b8ff" d="M615.34,-285.68C612.06,-245.25 602.74,-130.17 599.04,-84.51"/>
<polygon fill="#63b8ff" stroke="#63b8ff" points="602.51,-83.94 598.21,-74.26 595.53,-84.51 602.51,-83.94"/>
</a>
</g>
</g>
<!-- Node14&#45;&gt;Node4 -->
<g id="edge23_Node000014_Node000004" class="edge">
<title>Node14&#45;&gt;Node4</title>
<g id="a_edge23_Node000014_Node000004"><a xlink:title=" ">
<path fill="none" stroke="#63b8ff" d="M544.16,-300.2C453.33,-298.72 305.16,-290.03 270.5,-250 225.31,-197.81 336.4,-152.61 399.11,-132.15"/>
<polygon fill="#63b8ff" stroke="#63b8ff" points="400.27,-135.46 408.73,-129.08 398.14,-128.79 400.27,-135.46"/>
</a>
</g>
</g>
<!-- Node14&#45;&gt;Node10 -->
<g id="edge24_Node000014_Node000010" class="edge">
<title>Node14&#45;&gt;Node10</title>
<g id="a_edge24_Node000014_Node000010"><a xlink:title=" ">
<path fill="none" stroke="#63b8ff" d="M544.16,-299.79C456.02,-297.82 314.71,-288.53 281.5,-250 252.2,-216.01 309.95,-196.36 363.49,-185.87"/>
<polygon fill="#63b8ff" stroke="#63b8ff" points="364.22,-189.3 373.41,-184.02 362.94,-182.42 364.22,-189.3"/>
</a>
</g>
</g>
<!-- Node14&#45;&gt;Node11 -->
<g id="edge25_Node000014_Node000011" class="edge">
<title>Node14&#45;&gt;Node11</title>
<g id="a_edge25_Node000014_Node000011"><a xlink:title=" ">
<path fill="none" stroke="#63b8ff" d="M593.02,-285.95C575,-275.18 550.26,-260.38 532.39,-249.69"/>
<polygon fill="#63b8ff" stroke="#63b8ff" points="534.12,-246.65 523.74,-244.52 530.53,-252.65 534.12,-246.65"/>
</a>
</g>
</g>
<!-- Node14&#45;&gt;Node12 -->
<g id="edge29_Node000014_Node000012" class="edge">
<title>Node14&#45;&gt;Node12</title>
<g id="a_edge29_Node000014_Node000012"><a xlink:title=" ">
<path fill="none" stroke="#63b8ff" d="M633.23,-285.8C660.18,-262.95 710.34,-220.48 711.5,-220 797.34,-184.33 1084.95,-177.23 1183.8,-175.84"/>
<polygon fill="#63b8ff" stroke="#63b8ff" points="1183.88,-179.34 1193.84,-175.71 1183.79,-172.34 1183.88,-179.34"/>
</a>
</g>
</g>
<!-- Node14&#45;&gt;Node13 -->
<g id="edge28_Node000014_Node000013" class="edge">
<title>Node14&#45;&gt;Node13</title>
<g id="a_edge28_Node000014_Node000013"><a xlink:title=" ">
<path fill="none" stroke="#63b8ff" d="M623.32,-285.87C632.94,-267.56 652.29,-236.09 678.5,-220 738.58,-183.12 822.57,-175.71 871.28,-174.81"/>
<polygon fill="#63b8ff" stroke="#63b8ff" points="871.44,-178.31 881.41,-174.71 871.37,-171.31 871.44,-178.31"/>
</a>
</g>
</g>
<!-- Node15 -->
<g id="Node000015" class="node">
<title>Node15</title>
<g id="a_Node000015"><a xlink:title=" ">
<polygon fill="#e0e0e0" stroke="#999999" points="842.5,-250 720.5,-250 720.5,-220 842.5,-220 842.5,-250"/>
<text text-anchor="start" x="728.5" y="-238" font-family="Helvetica,sans-Serif" font-size="10.00">slick/orderbook/detail</text>
<text text-anchor="middle" x="781.5" y="-227" font-family="Helvetica,sans-Serif" font-size="10.00">/price_level.hpp</text>
</a>
</g>
</g>
<!-- Node14&#45;&gt;Node15 -->
<g id="edge26_Node000014_Node000015" class="edge">
<title>Node14&#45;&gt;Node15</title>
<g id="a_edge26_Node000014_Node000015"><a xlink:title=" ">
<path fill="none" stroke="#63b8ff" d="M652.71,-285.95C677.21,-276.45 709.77,-263.82 736.02,-253.64"/>
<polygon fill="#63b8ff" stroke="#63b8ff" points="737.32,-256.89 745.37,-250.01 734.79,-250.37 737.32,-256.89"/>
</a>
</g>
</g>
<!-- Node16 -->
<g id="Node000016" class="node">
<title>Node16</title>
<g id="a_Node000016"><a xlink:title=" ">
<polygon fill="#e0e0e0" stroke="#999999" points="412.5,-250 290.5,-250 290.5,-220 412.5,-220 412.5,-250"/>
<text text-anchor="start" x="298.5" y="-238" font-family="Helvetica,sans-Serif" font-size="10.00">slick/orderbook/detail</text>
<text text-anchor="middle" x="351.5" y="-227" font-family="Helvetica,sans-Serif" font-size="10.00">/level_container.hpp</text>
</a>
</g>
</g>
<!-- Node14&#45;&gt;Node16 -->
<g id="edge27_Node000014_Node000016" class="edge">
<title>Node14&#45;&gt;Node16</title>
<g id="a_edge27_Node000014_Node000016"><a xlink:title=" ">
<path fill="none" stroke="#63b8ff" d="M558.34,-285.95C517.35,-276.06 462.33,-262.77 419.34,-252.38"/>
<polygon fill="#63b8ff" stroke="#63b8ff" points="420.06,-248.96 409.52,-250.01 418.42,-255.76 420.06,-248.96"/>
</a>
</g>
</g>
<!-- Node17 -->
<g id="Node000017" class="node">
<title>Node17</title>
<g id="a_Node000017"><a xlink:title=" ">
<polygon fill="#e0e0e0" stroke="#999999" points="902.5,-244.5 860.5,-244.5 860.5,-225.5 902.5,-225.5 902.5,-244.5"/>
<text text-anchor="middle" x="881.5" y="-232.5" font-family="Helvetica,sans-Serif" font-size="10.00">array</text>
</a>
</g>
</g>
<!-- Node14&#45;&gt;Node17 -->
<g id="edge30_Node000014_Node000017" class="edge">
<title>Node14&#45;&gt;Node17</title>
<g id="a_edge30_Node000014_Node000017"><a xlink:title=" ">
<path fill="none" stroke="#63b8ff" d="M688.58,-289.03C735.67,-280.81 798.1,-267.88 851.5,-250 852.9,-249.53 854.31,-249.02 855.73,-248.47"/>
<polygon fill="#63b8ff" stroke="#63b8ff" points="857.13,-251.68 864.96,-244.54 854.38,-245.24 857.13,-251.68"/>
</a>
</g>
</g>
<!-- Node18&#45;&gt;Node2 -->
<g id="edge32_Node000018_Node000002" class="edge">
<title>Node18&#45;&gt;Node2</title>
<g id="a_edge32_Node000018_Node000002"><a xlink:title=" ">
<path fill="none" stroke="#63b8ff" d="M1465.54,-297.26C1587.38,-291.89 1823.44,-277.96 1848.5,-250 1857.4,-240.07 1857.33,-229.99 1848.5,-220 1770.86,-132.19 946.98,-83.14 680.29,-69.48"/>
<polygon fill="#63b8ff" stroke="#63b8ff" points="680.45,-65.98 670.28,-68.97 680.09,-72.98 680.45,-65.98"/>
</a>
</g>
</g>
<!-- Node18&#45;&gt;Node4 -->
<g id="edge33_Node000018_Node000004" class="edge">
<title>Node18&#45;&gt;Node4</title>
<g id="a_edge33_Node000018_Node000004"><a xlink:title=" ">
<path fill="none" stroke="#63b8ff" d="M1321.44,-295.5C1221.55,-288.53 1046.6,-273.41 987.5,-250 966.51,-241.69 967.18,-229.05 946.5,-220 804.48,-157.84 623.19,-134.27 520.04,-125.51"/>
<polygon fill="#63b8ff" stroke="#63b8ff" points="520.26,-122.02 510,-124.69 519.68,-128.99 520.26,-122.02"/>
</a>
</g>
</g>
<!-- Node18&#45;&gt;Node10 -->
<g id="edge34_Node000018_Node000010" class="edge">
<title>Node18&#45;&gt;Node10</title>
<g id="a_edge34_Node000018_Node000010"><a xlink:title=" ">
<path fill="none" stroke="#63b8ff" d="M1321.47,-296.09C1214.67,-289.58 1019.89,-274.71 954.5,-250 932.7,-241.76 933.38,-228.02 911.5,-220 750.13,-160.88 697.59,-200.26 526.5,-184 525.56,-183.91 524.62,-183.82 523.68,-183.73"/>
<polygon fill="#63b8ff" stroke="#63b8ff" points="523.68,-180.22 513.39,-182.75 523.01,-187.18 523.68,-180.22"/>
</a>
</g>
</g>
<!-- Node18&#45;&gt;Node11 -->
<g id="edge35_Node000018_Node000011" class="edge">
<title>Node18&#45;&gt;Node11</title>
<g id="a_edge35_Node000018_Node000011"><a xlink:title=" ">
<path fill="none" stroke="#63b8ff" d="M1321.16,-294.76C1160.45,-283.13 774.1,-255.16 598.75,-242.46"/>
<polygon fill="#63b8ff" stroke="#63b8ff" points="598.76,-238.95 588.53,-241.72 598.25,-245.93 598.76,-238.95"/>
</a>
</g>
</g>
<!-- Node18&#45;&gt;Node12 -->
<g id="edge44_Node000018_Node000012" class="edge">
<title>Node18&#45;&gt;Node12</title>
<g id="a_edge44_Node000018_Node000012"><a xlink:title=" ">
<path fill="none" stroke="#63b8ff" d="M1465.67,-300.42C1565.01,-298.65 1725.22,-285.95 1665.5,-220 1637.79,-189.4 1350.61,-179 1251.17,-176.3"/>
<polygon fill="#63b8ff" stroke="#63b8ff" points="1251.16,-172.8 1241.07,-176.03 1250.97,-179.79 1251.16,-172.8"/>
</a>
</g>
</g>
<!-- Node18&#45;&gt;Node13 -->
<g id="edge42_Node000018_Node000013" class="edge">
<title>Node18&#45;&gt;Node13</title>
<g id="a_edge42_Node000018_Node000013"><a xlink:title=" ">
<path fill="none" stroke="#63b8ff" d="M1465.52,-297.82C1553.63,-292.73 1685.03,-275.87 1632.5,-220 1620.7,-207.45 1098.42,-183.71 949.66,-177.19"/>
<polygon fill="#63b8ff" stroke="#63b8ff" points="949.75,-173.69 939.61,-176.75 949.45,-180.69 949.75,-173.69"/>
</a>
</g>
</g>
<!-- Node18&#45;&gt;Node15 -->
<g id="edge36_Node000018_Node000015" class="edge">
<title>Node18&#45;&gt;Node15</title>
<g id="a_edge36_Node000018_Node000015"><a xlink:title=" ">
<path fill="none" stroke="#63b8ff" d="M1321.32,-295.77C1219.16,-289.24 1026.4,-274.95 852.62,-250.06"/>
<polygon fill="#63b8ff" stroke="#63b8ff" points="852.92,-246.57 842.52,-248.6 851.91,-253.49 852.92,-246.57"/>
</a>
</g>
</g>
<!-- Node18&#45;&gt;Node17 -->
<g id="edge45_Node000018_Node000017" class="edge">
<title>Node18&#45;&gt;Node17</title>
<g id="a_edge45_Node000018_Node000017"><a xlink:title=" ">
<path fill="none" stroke="#63b8ff" d="M1321.32,-298.6C1226.96,-295.38 1057.14,-284.79 916.5,-250 914.2,-249.43 911.84,-248.74 909.5,-247.98"/>
<polygon fill="#63b8ff" stroke="#63b8ff" points="910.67,-244.68 900.08,-244.53 908.27,-251.25 910.67,-244.68"/>
</a>
</g>
</g>
<!-- Node19 -->
<g id="Node000019" class="node">
<title>Node19</title>
<g id="a_Node000019"><a xlink:title=" ">
<polygon fill="#e0e0e0" stroke="#999999" points="1839.5,-250 1717.5,-250 1717.5,-220 1839.5,-220 1839.5,-250"/>
<text text-anchor="start" x="1725.5" y="-238" font-family="Helvetica,sans-Serif" font-size="10.00">slick/orderbook/detail</text>
<text text-anchor="middle" x="1778.5" y="-227" font-family="Helvetica,sans-Serif" font-size="10.00">/order.hpp</text>
</a>
</g>
</g>
<!-- Node18&#45;&gt;Node19 -->
<g id="edge37_Node000018_Node000019" class="edge">
<title>Node18&#45;&gt;Node19</title>
<g id="a_edge37_Node000018_Node000019"><a xlink:title=" ">
<path fill="none" stroke="#63b8ff" d="M1465.62,-288.88C1528.5,-279.07 1622.13,-264.15 1703.5,-250 1704.75,-249.78 1706.01,-249.56 1707.28,-249.34"/>
<polygon fill="#63b8ff" stroke="#63b8ff" points="1707.9,-252.78 1717.13,-247.58 1706.67,-245.89 1707.9,-252.78"/>
</a>
</g>
</g>
<!-- Node20 -->
<g id="Node000020" class="node">
<title>Node20</title>
<g id="a_Node000020"><a xlink:title=" ">
<polygon fill="#e0e0e0" stroke="#999999" points="1118.5,-250 996.5,-250 996.5,-220 1118.5,-220 1118.5,-250"/>
<text text-anchor="start" x="1004.5" y="-238" font-family="Helvetica,sans-Serif" font-size="10.00">slick/orderbook/detail</text>
<text text-anchor="middle" x="1057.5" y="-227" font-family="Helvetica,sans-Serif" font-size="10.00">/order_map.hpp</text>
</a>
</g>
</g>
<!-- Node18&#45;&gt;Node20 -->
<g id="edge38_Node000018_Node000020" class="edge">
<title>Node18&#45;&gt;Node20</title>
<g id="a_edge38_Node000018_Node000020"><a xlink:title=" ">
<path fill="none" stroke="#63b8ff" d="M1321.48,-286.7C1270.35,-277.2 1199.8,-263.98 1128.62,-250.21"/>
<polygon fill="#63b8ff" stroke="#63b8ff" points="1129.06,-246.73 1118.58,-248.26 1127.73,-253.6 1129.06,-246.73"/>
</a>
</g>
</g>
<!-- Node21 -->
<g id="Node000021" class="node">
<title>Node21</title>
<g id="a_Node000021"><a xlink:title=" ">
<polygon fill="#e0e0e0" stroke="#999999" points="1258.5,-250 1136.5,-250 1136.5,-220 1258.5,-220 1258.5,-250"/>
<text text-anchor="start" x="1144.5" y="-238" font-family="Helvetica,sans-Serif" font-size="10.00">slick/orderbook/detail</text>
<text text-anchor="middle" x="1197.5" y="-227" font-family="Helvetica,sans-Serif" font-size="10.00">/memory_pool.hpp</text>
</a>
</g>
</g>
<!-- Node18&#45;&gt;Node21 -->
<g id="edge39_Node000018_Node000021" class="edge">
<title>Node18&#45;&gt;Node21</title>
<g id="a_edge39_Node000018_Node000021"><a xlink:title=" ">
<path fill="none" stroke="#63b8ff" d="M1350.49,-285.95C1321,-276.33 1281.69,-263.49 1250.3,-253.24"/>
<polygon fill="#63b8ff" stroke="#63b8ff" points="1251.01,-249.79 1240.41,-250.01 1248.83,-256.44 1251.01,-249.79"/>
</a>
</g>
</g>
<!-- Node22 -->
<g id="Node000022" class="node">
<title>Node22</title>
<g id="a_Node000022"><a xlink:title=" ">
<polygon fill="#e0e0e0" stroke="#999999" points="2055.5,-250 1933.5,-250 1933.5,-220 2055.5,-220 2055.5,-250"/>
<text text-anchor="start" x="1941.5" y="-238" font-family="Helvetica,sans-Serif" font-size="10.00">slick/orderbook/detail</text>
<text text-anchor="middle" x="1994.5" y="-227" font-family="Helvetica,sans-Serif" font-size="10.00">/flat_map.hpp</text>
</a>
</g>
</g>
<!-- Node18&#45;&gt;Node22 -->
<g id="edge40_Node000018_Node000022" class="edge">
<title>Node18&#45;&gt;Node22</title>
<g id="a_edge40_Node000018_Node000022"><a xlink:title=" ">
<path fill="none" stroke="#63b8ff" d="M1465.9,-293.07C1561.23,-283.82 1734.04,-266.69 1881.5,-250 1895.01,-248.47 1909.43,-246.75 1923.28,-245.06"/>
<polygon fill="#63b8ff" stroke="#63b8ff" points="1923.75,-248.53 1933.24,-243.83 1922.89,-241.58 1923.75,-248.53"/>
</a>
</g>
</g>
<!-- Node23 -->
<g id="Node000023" class="node">
<title>Node23</title>
<g id="a_Node000023"><a xlink:title=" ">
<polygon fill="#e0e0e0" stroke="#999999" points="1398.5,-250 1276.5,-250 1276.5,-220 1398.5,-220 1398.5,-250"/>
<text text-anchor="start" x="1284.5" y="-238" font-family="Helvetica,sans-Serif" font-size="10.00">slick/orderbook/detail</text>
<text text-anchor="middle" x="1337.5" y="-227" font-family="Helvetica,sans-Serif" font-size="10.00">/intrusive_list.hpp</text>
</a>
</g>
</g>
<!-- Node18&#45;&gt;Node23 -->
<g id="edge41_Node000018_Node000023" class="edge">
<title>Node18&#45;&gt;Node23</title>
<g id="a_edge41_Node000018_Node000023"><a xlink:title=" ">
<path fill="none" stroke="#63b8ff" d="M1381.07,-285.8C1373.89,-277.59 1364.71,-267.1 1356.63,-257.87"/>
<polygon fill="#63b8ff" stroke="#63b8ff" points="1359.11,-255.38 1349.89,-250.16 1353.84,-259.99 1359.11,-255.38"/>
</a>
</g>
</g>
<!-- Node24 -->
<g id="Node000024" class="node">
<title>Node24</title>
<g id="a_Node000024"><a xlink:title=" ">
<polygon fill="#e0e0e0" stroke="#999999" points="1480.5,-244.5 1416.5,-244.5 1416.5,-225.5 1480.5,-225.5 1480.5,-244.5"/>
<text text-anchor="middle" x="1448.5" y="-232.5" font-family="Helvetica,sans-Serif" font-size="10.00">algorithm</text>
</a>
</g>
</g>
<!-- Node18&#45;&gt;Node24 -->
<g id="edge43_Node000018_Node000024" class="edge">
<title>Node18&#45;&gt;Node24</title>
<g id="a_edge43_Node000018_Node000024"><a xlink:title=" ">
<path fill="none" stroke="#63b8ff" d="M1405.71,-285.8C1414.11,-276.01 1425.31,-262.98 1434.15,-252.7"/>
<polygon fill="#63b8ff" stroke="#63b8ff" points="1437.04,-254.71 1440.9,-244.84 1431.73,-250.15 1437.04,-254.71"/>
</a>
</g>
</g>
<!-- Node25 -->
<g id="Node000025" class="node">
<title>Node25</title>
<g id="a_Node000025"><a xlink:title=" ">
<polygon fill="#e0e0e0" stroke="#999999" points="1540,-244.5 1499,-244.5 1499,-225.5 1540,-225.5 1540,-244.5"/>
<text text-anchor="middle" x="1519.5" y="-232.5" font-family="Helvetica,sans-Serif" font-size="10.00">tuple</text>
</a>
</g>
</g>
<!-- Node18&#45;&gt;Node25 -->
<g id="edge46_Node000018_Node000025" class="edge">
<title>Node18&#45;&gt;Node25</title>
<g id="a_edge46_Node000018_Node000025"><a xlink:title=" ">
<path fill="none" stroke="#63b8ff" d="M1421.15,-285.95C1442.76,-274.98 1472.58,-259.83 1493.7,-249.11"/>
<polygon fill="#63b8ff" stroke="#63b8ff" points="1495.4,-252.17 1502.73,-244.52 1492.23,-245.93 1495.4,-252.17"/>
</a>
</g>
</g>
<!-- Node26 -->
<g id="Node000026" class="node">
<title>Node26</title>
<g id="a_Node000026"><a xlink:title=" ">
<polygon fill="#e0e0e0" stroke="#999999" points="1623,-244.5 1558,-244.5 1558,-225.5 1623,-225.5 1623,-244.5"/>
<text text-anchor="middle" x="1590.5" y="-232.5" font-family="Helvetica,sans-Serif" font-size="10.00">functional</text>
</a>
</g>
</g>
<!-- Node18&#45;&gt;Node26 -->
<g id="edge47_Node000018_Node000026" class="edge">
<title>Node18&#45;&gt;Node26</title>
<g id="a_edge47_Node000018_Node000026"><a xlink:title=" ">
<path fill="none" stroke="#63b8ff" d="M1437.95,-286C1469.2,-276.09 1511.97,-262.42 1549.5,-250 1551.73,-249.26 1554.02,-248.5 1556.34,-247.72"/>
<polygon fill="#63b8ff" stroke="#63b8ff" points="1557.46,-251.04 1565.81,-244.52 1555.21,-244.4 1557.46,-251.04"/>
</a>
</g>
</g>
<!-- Node27&#45;&gt;Node2 -->
<g id="edge49_Node000027_Node000002" class="edge">
<title>Node27&#45;&gt;Node2</title>
<g id="a_edge49_Node000027_Node000002"><a xlink:title=" ">
<path fill="none" stroke="#63b8ff" d="M2061.83,-351.84C2099.69,-331.82 2159.5,-291.43 2159.5,-236 2159.5,-236 2159.5,-236 2159.5,-173.5 2159.5,-98.67 1003.47,-72.66 680.45,-66.85"/>
<polygon fill="#63b8ff" stroke="#63b8ff" points="680.28,-63.35 670.22,-66.67 680.16,-70.35 680.28,-63.35"/>
</a>
</g>
</g>
<!-- Node27&#45;&gt;Node4 -->
<g id="edge50_Node000027_Node000004" class="edge">
<title>Node27&#45;&gt;Node4</title>
<g id="a_edge50_Node000027_Node000004"><a xlink:title=" ">
<path fill="none" stroke="#63b8ff" d="M2017.92,-351.83C2003.85,-335.37 1985.62,-307.7 1998.5,-286 2015.56,-257.27 2047.44,-278.73 2064.5,-250 2071.31,-238.53 2073.6,-229.74 2064.5,-220 2011.26,-163.04 842.98,-130.38 520.37,-122.42"/>
<polygon fill="#63b8ff" stroke="#63b8ff" points="520.25,-118.92 510.17,-122.17 520.08,-125.91 520.25,-118.92"/>
</a>
</g>
</g>
<!-- Node27&#45;&gt;Node12 -->
<g id="edge57_Node000027_Node000012" class="edge">
<title>Node27&#45;&gt;Node12</title>
<g id="a_edge57_Node000027_Node000012"><a xlink:title=" ">
<path fill="none" stroke="#63b8ff" d="M2051.19,-351.72C2061.75,-342.79 2073.75,-330.29 2079.5,-316 2089.68,-290.69 2064.52,-220.01 2064.5,-220 2032.91,-193.4 1406.09,-179.24 1251.66,-176.15"/>
<polygon fill="#63b8ff" stroke="#63b8ff" points="1251.44,-172.65 1241.37,-175.95 1251.3,-179.65 1251.44,-172.65"/>
</a>
</g>
</g>
<!-- Node27&#45;&gt;Node13 -->
<g id="edge54_Node000027_Node000013" class="edge">
<title>Node27&#45;&gt;Node13</title>
<g id="a_edge54_Node000027_Node000013"><a xlink:title=" ">
<path fill="none" stroke="#63b8ff" d="M2012.58,-351.97C1999.3,-342.05 1981.19,-328.37 1965.5,-316 1912.68,-274.35 1911.28,-244.15 1848.5,-220 1805.98,-203.64 1122.33,-181.92 949.8,-176.67"/>
<polygon fill="#63b8ff" stroke="#63b8ff" points="949.75,-173.17 939.65,-176.37 949.53,-180.17 949.75,-173.17"/>
</a>
</g>
</g>
<!-- Node27&#45;&gt;Node14 -->
<g id="edge51_Node000027_Node000014" class="edge">
<title>Node27&#45;&gt;Node14</title>
<g id="a_edge51_Node000027_Node000014"><a xlink:title=" ">
<path fill="none" stroke="#63b8ff" d="M1959.38,-362.74C1720.11,-351.92 953.26,-317.23 699.16,-305.74"/>
<polygon fill="#63b8ff" stroke="#63b8ff" points="699.04,-302.23 688.89,-305.27 698.72,-309.22 699.04,-302.23"/>
</a>
</g>
</g>
<!-- Node27&#45;&gt;Node18 -->
<g id="edge52_Node000027_Node000018" class="edge">
<title>Node27&#45;&gt;Node18</title>
<g id="a_edge52_Node000027_Node000018"><a xlink:title=" ">
<path fill="none" stroke="#63b8ff" d="M1959.24,-358.75C1839.65,-346.76 1601.31,-322.85 1475.55,-310.23"/>
<polygon fill="#63b8ff" stroke="#63b8ff" points="1475.89,-306.75 1465.59,-309.23 1475.19,-313.71 1475.89,-306.75"/>
</a>
</g>
</g>
<!-- Node27&#45;&gt;Node22 -->
<g id="edge53_Node000027_Node000022" class="edge">
<title>Node27&#45;&gt;Node22</title>
<g id="a_edge53_Node000027_Node000022"><a xlink:title=" ">
<path fill="none" stroke="#63b8ff" d="M2044.86,-351.8C2058.44,-335.56 2075.98,-308.31 2064.5,-286 2057.96,-273.28 2046.51,-263.09 2034.75,-255.3"/>
<polygon fill="#63b8ff" stroke="#63b8ff" points="2036.55,-252.3 2026.2,-250.06 2032.89,-258.27 2036.55,-252.3"/>
</a>
</g>
</g>
<!-- Node28 -->
<g id="Node000028" class="node">
<title>Node28</title>
<g id="a_Node000028"><a xlink:title=" ">
<polygon fill="#e0e0e0" stroke="#999999" points="2273.5,-310.5 2187.5,-310.5 2187.5,-291.5 2273.5,-291.5 2273.5,-310.5"/>
<text text-anchor="middle" x="2230.5" y="-298.5" font-family="Helvetica,sans-Serif" font-size="10.00">shared_mutex</text>
</a>
</g>
</g>
<!-- Node27&#45;&gt;Node28 -->
<g id="edge55_Node000027_Node000028" class="edge">
<title>Node27&#45;&gt;Node28</title>
<g id="a_edge55_Node000027_Node000028"><a xlink:title=" ">
<path fill="none" stroke="#63b8ff" d="M2075.17,-351.95C2110.84,-340.48 2160.66,-324.46 2194.17,-313.68"/>
<polygon fill="#63b8ff" stroke="#63b8ff" points="2195.57,-316.91 2204.02,-310.52 2193.43,-310.25 2195.57,-316.91"/>
</a>
</g>
</g>
<!-- Node29 -->
<g id="Node000029" class="node">
<title>Node29</title>
<g id="a_Node000029"><a xlink:title=" ">
<polygon fill="#e0e0e0" stroke="#999999" points="2335.5,-310.5 2291.5,-310.5 2291.5,-291.5 2335.5,-291.5 2335.5,-310.5"/>
<text text-anchor="middle" x="2313.5" y="-298.5" font-family="Helvetica,sans-Serif" font-size="10.00">string</text>
</a>
</g>
</g>
<!-- Node27&#45;&gt;Node29 -->
<g id="edge56_Node000027_Node000029" class="edge">
<title>Node27&#45;&gt;Node29</title>
<g id="a_edge56_Node000027_Node000029"><a xlink:title=" ">
<path fill="none" stroke="#63b8ff" d="M2103.74,-356.08C2154.5,-348.03 2223.58,-334.9 2282.5,-316 2283.94,-315.54 2285.4,-315.03 2286.87,-314.48"/>
<polygon fill="#63b8ff" stroke="#63b8ff" points="2288.48,-317.61 2296.39,-310.56 2285.82,-311.13 2288.48,-317.61"/>
</a>
</g>
</g>
<!-- Node30 -->
<g id="Node000030" class="node">
<title>Node30</title>
<g id="a_Node000030"><a xlink:title=" ">
<polygon fill="#e0e0e0" stroke="#999999" points="2055.5,-310.5 2007.5,-310.5 2007.5,-291.5 2055.5,-291.5 2055.5,-310.5"/>
<text text-anchor="middle" x="2031.5" y="-298.5" font-family="Helvetica,sans-Serif" font-size="10.00">mutex</text>
</a>
</g>
</g>
<!-- Node27&#45;&gt;Node30 -->
<g id="edge58_Node000027_Node000030" class="edge">
<title>Node27&#45;&gt;Node30</title>
<g id="a_edge58_Node000027_Node000030"><a xlink:title=" ">
<path fill="none" stroke="#63b8ff" d="M2031.5,-351.8C2031.5,-342.7 2031.5,-330.79 2031.5,-320.9"/>
<polygon fill="#63b8ff" stroke="#63b8ff" points="2035,-320.84 2031.5,-310.84 2028,-320.84 2035,-320.84"/>
</a>
</g>
</g>
</g>
</svg>

<g id="navigator" transform="translate(0 0)" fill="#404254">
  <rect fill="#f2f5e9" fill-opacity="0.5" stroke="#606060" stroke-width=".5" x="0" y="0" width="60" height="60"/>
  <use id="zoomplus" xlink:href="#zoomPlus" x="17" y="9" onmousedown="handleZoom(evt,'in')"/>
  <use id="zoomminus" xlink:href="#zoomMin" x="42" y="9" onmousedown="handleZoom(evt,'out')"/>
  <use id="reset" xlink:href="#resetDef" x="30" y="36" onmousedown="handleReset()"/>
   <use id="arrowup" xlink:href="#arrowUp" x="0" y="0" onmousedown="handlePan(0,-1)"/>
  <use id="arrowright" xlink:href="#arrowRight" x="0" y="0" onmousedown="handlePan(1,0)"/>
  <use id="arrowdown" xlink:href="#arrowDown" x="0" y="0" onmousedown="handlePan(0,1)"/>
  <use id="arrowleft" xlink:href="#arrowLeft" x="0" y="0" onmousedown="handlePan(-1,0)"/>
</g>
<svg viewBox="0 0 15 15" width="100%" height="30px" preserveAspectRatio="xMaxYMin meet">
 <g id="arrow_out" transform="scale(0.3 0.3)">
  <a xlink:href="orderbook_8hpp__incl_org.svg" target="_base">
   <rect id="button" ry="5" rx="5" y="6" x="6" height="38" width="38"
        fill="#f2f5e9" fill-opacity="0.5" stroke="#606060" stroke-width="1.0"/>
   <path id="arrow"
     d="M 11.500037,31.436501 C 11.940474,20.09759 22.043105,11.32322 32.158766,21.979434 L 37.068811,17.246167 C 37.068811,17.246167 37.088388,32 37.088388,32 L 22.160133,31.978069 C 22.160133,31.978069 26.997745,27.140456 26.997745,27.140456 C 18.528582,18.264221 13.291696,25.230495 11.500037,31.436501 z"
     style="fill:#404040;"/>
  </a>
 </g>
</svg>

<style type='text/css'>
<![CDATA[
[data-mouse-over-selected='false'] { opacity: 0.7; }
[data-mouse-over-selected='true']  { opacity: 1.0; }
]]>
</style>
<script type="application/ecmascript"><![CDATA[
document.addEventListener('DOMContentLoaded', (event) => {
  highlightEdges();
  highlightAdjacentNodes();
});
]]></script>
</svg>
