<?xml version="1.0" encoding="UTF-8" standalone="no"?>
<!DOCTYPE svg PUBLIC "-//W3C//DTD SVG 1.1//EN"
 "http://www.w3.org/Graphics/SVG/1.1/DTD/svg11.dtd">
<!-- Generated by graphviz version 2.43.0 (0)
 -->
<!-- Title: slick/orderbook/detail/order_map.hpp Pages: 1 -->
<svg width="376pt" height="269pt"
 viewBox="0.00 0.00 375.50 269.00" xmlns="http://www.w3.org/2000/svg" xmlns:xlink="http://www.w3.org/1999/xlink">
<g id="graph0" class="graph" transform="scale(1 1) rotate(0) translate(4 265)">
<title>slick/orderbook/detail/order_map.hpp</title>
<!-- Node1 -->
<g id="Node000001" class="node">
<title>Node1</title>
<g id="a_Node000001"><a xlink:title=" ">
<polygon fill="#999999" stroke="#666666" points="255.5,-261 133.5,-261 133.5,-231 255.5,-231 255.5,-261"/>
<text text-anchor="start" x="141.5" y="-249" font-family="Helvetica,sans-Serif" font-size="10.00">slick/orderbook/detail</text>
<text text-anchor="middle" x="194.5" y="-238" font-family="Helvetica,sans-Serif" font-size="10.00">/order_map.hpp</text>
</a>
</g>
</g>
<!-- Node2 -->
<g id="Node000002" class="node">
<title>Node2</title>
<g id="a_Node000002"><a xlink:href="config_8hpp.html" target="_top" xlink:title=" ">
<polygon fill="white" stroke="#666666" points="145,-74 0,-74 0,-55 145,-55 145,-74"/>
<text text-anchor="middle" x="72.5" y="-62" font-family="Helvetica,sans-Serif" font-size="10.00">slick/orderbook/config.hpp</text>
</a>
</g>
</g>
<!-- Node1&#45;&gt;Node2 -->
<g id="edge1_Node000001_Node000002" class="edge">
<title>Node1&#45;&gt;Node2</title>
<g id="a_edge1_Node000001_Node000002"><a xlink:title=" ">
<path fill="none" stroke="#63b8ff" d="M133.48,-231.89C113.38,-224.45 93,-212.9 80.5,-195 57.25,-161.71 62.78,-111.1 68.08,-84.06"/>
<polygon fill="#63b8ff" stroke="#63b8ff" points="71.56,-84.55 70.26,-74.04 64.72,-83.07 71.56,-84.55"/>
</a>
</g>
</g>
<!-- Node4 -->
<g id="Node000004" class="node">
<title>Node4</title>
<g id="a_Node000004"><a xlink:href="types_8hpp.html" target="_top" xlink:title=" ">
<polygon fill="white" stroke="#666666" points="301,-129 158,-129 158,-110 301,-110 301,-129"/>
<text text-anchor="middle" x="229.5" y="-117" font-family="Helvetica,sans-Serif" font-size="10.00">slick/orderbook/types.hpp</text>
</a>
</g>
</g>
<!-- Node1&#45;&gt;Node4 -->
<g id="edge3_Node000001_Node000004" class="edge">
<title>Node1&#45;&gt;Node4</title>
<g id="a_edge3_Node000001_Node000004"><a xlink:title=" ">
<path fill="none" stroke="#63b8ff" d="M203.69,-230.72C209.48,-221.03 216.57,-207.71 220.5,-195 226.14,-176.75 228.27,-154.97 229.07,-139.68"/>
<polygon fill="#63b8ff" stroke="#63b8ff" points="232.57,-139.55 229.45,-129.43 225.58,-139.29 232.57,-139.55"/>
</a>
</g>
</g>
<!-- Node8 -->
<g id="Node000008" class="node">
<title>Node8</title>
<g id="a_Node000008"><a xlink:href="order_8hpp.html" target="_top" xlink:title=" ">
<polygon fill="white" stroke="#666666" points="211.5,-195 89.5,-195 89.5,-165 211.5,-165 211.5,-195"/>
<text text-anchor="start" x="97.5" y="-183" font-family="Helvetica,sans-Serif" font-size="10.00">slick/orderbook/detail</text>
<text text-anchor="middle" x="150.5" y="-172" font-family="Helvetica,sans-Serif" font-size="10.00">/order.hpp</text>
</a>
</g>
</g>
<!-- Node1&#45;&gt;Node8 -->
<g id="edge8_Node000001_Node000008" class="edge">
<title>Node1&#45;&gt;Node8</title>
<g id="a_edge8_Node000001_Node000008"><a xlink:title=" ">
<path fill="none" stroke="#63b8ff" d="M184.73,-230.8C179.21,-222.76 172.17,-212.53 165.92,-203.43"/>
<polygon fill="#63b8ff" stroke="#63b8ff" points="168.79,-201.42 160.24,-195.16 163.02,-205.39 168.79,-201.42"/>
</a>
</g>
</g>
<!-- Node9 -->
<g id="Node000009" class="node">
<title>Node9</title>
<g id="a_Node000009"><a xlink:title=" ">
<polygon fill="#e0e0e0" stroke="#999999" points="361,-189.5 268,-189.5 268,-170.5 361,-170.5 361,-189.5"/>
<text text-anchor="middle" x="314.5" y="-177.5" font-family="Helvetica,sans-Serif" font-size="10.00">unordered_map</text>
</a>
</g>
</g>
<!-- Node1&#45;&gt;Node9 -->
<g id="edge11_Node000001_Node000009" class="edge">
<title>Node1&#45;&gt;Node9</title>
<g id="a_edge11_Node000001_Node000009"><a xlink:title=" ">
<path fill="none" stroke="#63b8ff" d="M220.83,-230.95C241.32,-220.03 269.56,-204.97 289.66,-194.25"/>
<polygon fill="#63b8ff" stroke="#63b8ff" points="291.35,-197.31 298.53,-189.52 288.06,-191.14 291.35,-197.31"/>
</a>
</g>
</g>
<!-- Node3 -->
<g id="Node000003" class="node">
<title>Node3</title>
<g id="a_Node000003"><a xlink:title=" ">
<polygon fill="#e0e0e0" stroke="#999999" points="98.5,-19 46.5,-19 46.5,0 98.5,0 98.5,-19"/>
<text text-anchor="middle" x="72.5" y="-7" font-family="Helvetica,sans-Serif" font-size="10.00">cassert</text>
</a>
</g>
</g>
<!-- Node2&#45;&gt;Node3 -->
<g id="edge2_Node000002_Node000003" class="edge">
<title>Node2&#45;&gt;Node3</title>
<g id="a_edge2_Node000002_Node000003"><a xlink:title=" ">
<path fill="none" stroke="#63b8ff" d="M72.5,-54.75C72.5,-47.8 72.5,-37.85 72.5,-29.13"/>
<polygon fill="#63b8ff" stroke="#63b8ff" points="76,-29.09 72.5,-19.09 69,-29.09 76,-29.09"/>
</a>
</g>
</g>
<!-- Node4&#45;&gt;Node2 -->
<g id="edge4_Node000004_Node000002" class="edge">
<title>Node4&#45;&gt;Node2</title>
<g id="a_edge4_Node000004_Node000002"><a xlink:title=" ">
<path fill="none" stroke="#63b8ff" d="M204.28,-109.98C178.14,-101.16 137.1,-87.31 107.77,-77.41"/>
<polygon fill="#63b8ff" stroke="#63b8ff" points="108.52,-73.96 97.92,-74.08 106.28,-80.6 108.52,-73.96"/>
</a>
</g>
</g>
<!-- Node5 -->
<g id="Node000005" class="node">
<title>Node5</title>
<g id="a_Node000005"><a xlink:title=" ">
<polygon fill="#e0e0e0" stroke="#999999" points="213.5,-74 163.5,-74 163.5,-55 213.5,-55 213.5,-74"/>
<text text-anchor="middle" x="188.5" y="-62" font-family="Helvetica,sans-Serif" font-size="10.00">cstdint</text>
</a>
</g>
</g>
<!-- Node4&#45;&gt;Node5 -->
<g id="edge5_Node000004_Node000005" class="edge">
<title>Node4&#45;&gt;Node5</title>
<g id="a_edge5_Node000004_Node000005"><a xlink:title=" ">
<path fill="none" stroke="#63b8ff" d="M222.73,-109.75C216.94,-102.26 208.44,-91.28 201.36,-82.13"/>
<polygon fill="#63b8ff" stroke="#63b8ff" points="204.03,-79.86 195.14,-74.09 198.49,-84.14 204.03,-79.86"/>
</a>
</g>
</g>
<!-- Node6 -->
<g id="Node000006" class="node">
<title>Node6</title>
<g id="a_Node000006"><a xlink:title=" ">
<polygon fill="#e0e0e0" stroke="#999999" points="305,-74 232,-74 232,-55 305,-55 305,-74"/>
<text text-anchor="middle" x="268.5" y="-62" font-family="Helvetica,sans-Serif" font-size="10.00">string_view</text>
</a>
</g>
</g>
<!-- Node4&#45;&gt;Node6 -->
<g id="edge6_Node000004_Node000006" class="edge">
<title>Node4&#45;&gt;Node6</title>
<g id="a_edge6_Node000004_Node000006"><a xlink:title=" ">
<path fill="none" stroke="#63b8ff" d="M235.94,-109.75C241.39,-102.34 249.36,-91.5 256.06,-82.41"/>
<polygon fill="#63b8ff" stroke="#63b8ff" points="259.07,-84.22 262.18,-74.09 253.43,-80.07 259.07,-84.22"/>
</a>
</g>
</g>
<!-- Node7 -->
<g id="Node000007" class="node">
<title>Node7</title>
<g id="a_Node000007"><a xlink:title=" ">
<polygon fill="#e0e0e0" stroke="#999999" points="367.5,-74 323.5,-74 323.5,-55 367.5,-55 367.5,-74"/>
<text text-anchor="middle" x="345.5" y="-62" font-family="Helvetica,sans-Serif" font-size="10.00">limits</text>
</a>
</g>
</g>
<!-- Node4&#45;&gt;Node7 -->
<g id="edge7_Node000004_Node000007" class="edge">
<title>Node4&#45;&gt;Node7</title>
<g id="a_edge7_Node000004_Node000007"><a xlink:title=" ">
<path fill="none" stroke="#63b8ff" d="M248.14,-109.98C266.8,-101.46 295.75,-88.23 317.24,-78.41"/>
<polygon fill="#63b8ff" stroke="#63b8ff" points="318.88,-81.51 326.52,-74.17 315.97,-75.14 318.88,-81.51"/>
</a>
</g>
</g>
<!-- Node8&#45;&gt;Node2 -->
<g id="edge9_Node000008_Node000002" class="edge">
<title>Node8&#45;&gt;Node2</title>
<g id="a_edge9_Node000008_Node000002"><a xlink:title=" ">
<path fill="none" stroke="#63b8ff" d="M140.62,-164.63C126.27,-143.75 99.71,-105.09 84.33,-82.72"/>
<polygon fill="#63b8ff" stroke="#63b8ff" points="87.05,-80.49 78.5,-74.23 81.28,-84.45 87.05,-80.49"/>
</a>
</g>
</g>
<!-- Node8&#45;&gt;Node4 -->
<g id="edge10_Node000008_Node000004" class="edge">
<title>Node8&#45;&gt;Node4</title>
<g id="a_edge10_Node000008_Node000004"><a xlink:title=" ">
<path fill="none" stroke="#63b8ff" d="M169.62,-164.84C181.68,-155.91 197.21,-144.41 209.44,-135.35"/>
<polygon fill="#63b8ff" stroke="#63b8ff" points="211.71,-138.03 217.66,-129.27 207.54,-132.4 211.71,-138.03"/>
</a>
</g>
</g>
</g>
</svg>
