<?xml version="1.0" encoding="UTF-8" standalone="no"?>
<!DOCTYPE svg PUBLIC "-//W3C//DTD SVG 1.1//EN"
 "http://www.w3.org/Graphics/SVG/1.1/DTD/svg11.dtd">
<!-- Generated by graphviz version 2.43.0 (0)
 -->
<!-- Title: slick/orderbook/orderbook_l2.hpp Pages: 1 -->
<!--zoomable 324 -->

<svg id="main" version="1.1" xmlns="http://www.w3.org/2000/svg" xmlns:xlink="http://www.w3.org/1999/xlink" xml:space="preserve" onload="init(evt)">
<style type="text/css"><![CDATA[
.node, .edge {opacity: 0.7;}
.node.selected, .edge.selected {opacity: 1;}
.edge:hover path { stroke: red; }
.edge:hover polygon { stroke: red; fill: red; }
]]></style>

<defs>
  <circle id="rim" cx="0" cy="0" r="7"/>
  <circle id="rim2" cx="0" cy="0" r="3.5"/>
  <g id="zoomPlus">
    <use xlink:href="#rim" fill="#404040"><set attributeName="fill" to="#808080" begin="zoomplus.mouseover" end="zoomplus.mouseout"/></use>
    <path d="M-4,0h8M0,-4v8" fill="none" stroke="white" stroke-width="1.5" pointer-events="none"/>
  </g>
  <g id="zoomMin">
    <use xlink:href="#rim" fill="#404040"><set attributeName="fill" to="#808080" begin="zoomminus.mouseover" end="zoomminus.mouseout"/></use>
    <path d="M-4,0h8" fill="none" stroke="white" stroke-width="1.5" pointer-events="none"/>
  </g>
  <g id="arrowUp" transform="translate(30 24)">
    <use xlink:href="#rim"/>
    <path pointer-events="none" fill="none" stroke="white" stroke-width="1.5" d="M0,-3.0v7 M-2.5,-0.5L0,-3.0L2.5,-0.5"/>
  </g>
  <g id="arrowRight" transform="rotate(90) translate(36 -43)">
    <use xlink:href="#rim"/>
    <path pointer-events="none" fill="none" stroke="white" stroke-width="1.5" d="M0,-3.0v7 M-2.5,-0.5L0,-3.0L2.5,-0.5"/>
  </g>
  <g id="arrowDown" transform="rotate(180) translate(-30 -48)">
    <use xlink:href="#rim"/>
    <path pointer-events="none" fill="none" stroke="white" stroke-width="1.5" d="M0,-3.0v7 M-2.5,-0.5L0,-3.0L2.5,-0.5"/>
  </g>
  <g id="arrowLeft" transform="rotate(270) translate(-36 17)">
    <use xlink:href="#rim"/>
    <path pointer-events="none" fill="none" stroke="white" stroke-width="1.5" d="M0,-3.0v7 M-2.5,-0.5L0,-3.0L2.5,-0.5"/>
  </g>
  <g id="resetDef">
    <use xlink:href="#rim2" fill="#404040"><set attributeName="fill" to="#808080" begin="reset.mouseover" end="reset.mouseout"/></use>
  </g>
</defs>
<script type="application/ecmascript">
var viewWidth = 898;
var viewHeight = 324;
var sectionId = 'dynsection-0';
</script>
<script type="application/ecmascript" xlink:href="svg.min.js"/>
<svg id="graph" class="graph">
<g id="viewport">
<title>slick/orderbook/orderbook_l2.hpp</title>
<!-- Node1 -->
<g id="Node000001" class="node">
<title>Node1</title>
<g id="a_Node000001"><a xlink:title=" ">
<polygon fill="#999999" stroke="#666666" points="565.04,-316 421.04,-316 421.04,-286 565.04,-286 565.04,-316"/>
<text text-anchor="start" x="429.04" y="-304" font-family="Helvetica,sans-Serif" font-size="10.00">slick/orderbook/orderbook</text>
<text text-anchor="middle" x="493.04" y="-293" font-family="Helvetica,sans-Serif" font-size="10.00">_l2.hpp</text>
</a>
</g>
</g>
<!-- Node2 -->
<g id="Node000002" class="node">
<title>Node2</title>
<g id="a_Node000002"><a xlink:href="config_8hpp.html" target="_top" xlink:title=" ">
<polygon fill="white" stroke="#666666" points="256.54,-74 111.54,-74 111.54,-55 256.54,-55 256.54,-74"/>
<text text-anchor="middle" x="184.04" y="-62" font-family="Helvetica,sans-Serif" font-size="10.00">slick/orderbook/config.hpp</text>
</a>
</g>
</g>
<!-- Node1&#45;&gt;Node2 -->
<g id="edge1_Node000001_Node000002" class="edge">
<title>Node1&#45;&gt;Node2</title>
<g id="a_edge1_Node000001_Node000002"><a xlink:title=" ">
<path fill="none" stroke="#63b8ff" d="M420.94,-294.49C297.09,-283.25 52.87,-252.7 8.04,-184 -27.74,-129.17 71.01,-93.35 134.72,-76.58"/>
<polygon fill="#63b8ff" stroke="#63b8ff" points="135.8,-79.92 144.62,-74.05 134.07,-73.13 135.8,-79.92"/>
</a>
</g>
</g>
<!-- Node4 -->
<g id="Node000004" class="node">
<title>Node4</title>
<g id="a_Node000004"><a xlink:href="types_8hpp.html" target="_top" xlink:title=" ">
<polygon fill="white" stroke="#666666" points="481.54,-129 338.54,-129 338.54,-110 481.54,-110 481.54,-129"/>
<text text-anchor="middle" x="410.04" y="-117" font-family="Helvetica,sans-Serif" font-size="10.00">slick/orderbook/types.hpp</text>
</a>
</g>
</g>
<!-- Node1&#45;&gt;Node4 -->
<g id="edge3_Node000001_Node000004" class="edge">
<title>Node1&#45;&gt;Node4</title>
<g id="a_edge3_Node000001_Node000004"><a xlink:title=" ">
<path fill="none" stroke="#63b8ff" d="M504.29,-285.69C523.4,-259.52 557.65,-203.14 531.04,-165 519.86,-148.98 502.24,-138.71 483.87,-132.13"/>
<polygon fill="#63b8ff" stroke="#63b8ff" points="484.81,-128.76 474.22,-129.02 482.66,-135.42 484.81,-128.76"/>
</a>
</g>
</g>
<!-- Node7 -->
<g id="Node000007" class="node">
<title>Node7</title>
<g id="a_Node000007"><a xlink:href="events_8hpp.html" target="_top" xlink:title=" ">
<polygon fill="white" stroke="#666666" points="166.54,-184 17.54,-184 17.54,-165 166.54,-165 166.54,-184"/>
<text text-anchor="middle" x="92.04" y="-172" font-family="Helvetica,sans-Serif" font-size="10.00">slick/orderbook/events.hpp</text>
</a>
</g>
</g>
<!-- Node1&#45;&gt;Node7 -->
<g id="edge7_Node000001_Node000007" class="edge">
<title>Node1&#45;&gt;Node7</title>
<g id="a_edge7_Node000001_Node000007"><a xlink:title=" ">
<path fill="none" stroke="#63b8ff" d="M420.83,-293.65C364.73,-287.09 285.69,-274.27 220.04,-250 179.2,-234.9 136.37,-207.17 112.07,-190.13"/>
<polygon fill="#63b8ff" stroke="#63b8ff" points="113.87,-187.13 103.7,-184.18 109.81,-192.83 113.87,-187.13"/>
</a>
</g>
</g>
<!-- Node8 -->
<g id="Node000008" class="node">
<title>Node8</title>
<g id="a_Node000008"><a xlink:href="observer_8hpp.html" target="_top" xlink:title=" ">
<polygon fill="white" stroke="#666666" points="387.04,-244.5 229.04,-244.5 229.04,-225.5 387.04,-225.5 387.04,-244.5"/>
<text text-anchor="middle" x="308.04" y="-232.5" font-family="Helvetica,sans-Serif" font-size="10.00">slick/orderbook/observer.hpp</text>
</a>
</g>
</g>
<!-- Node1&#45;&gt;Node8 -->
<g id="edge10_Node000001_Node000008" class="edge">
<title>Node1&#45;&gt;Node8</title>
<g id="a_edge10_Node000001_Node000008"><a xlink:title=" ">
<path fill="none" stroke="#63b8ff" d="M452.44,-285.95C419.43,-274.53 373.37,-258.6 342.22,-247.82"/>
<polygon fill="#63b8ff" stroke="#63b8ff" points="343.26,-244.48 332.66,-244.52 340.97,-251.09 343.26,-244.48"/>
</a>
</g>
</g>
<!-- Node12 -->
<g id="Node000012" class="node">
<title>Node12</title>
<g id="a_Node000012"><a xlink:title=" ">
<polygon fill="#e0e0e0" stroke="#999999" points="445.54,-184 398.54,-184 398.54,-165 445.54,-165 445.54,-184"/>
<text text-anchor="middle" x="422.04" y="-172" font-family="Helvetica,sans-Serif" font-size="10.00">vector</text>
</a>
</g>
</g>
<!-- Node1&#45;&gt;Node12 -->
<g id="edge23_Node000001_Node000012" class="edge">
<title>Node1&#45;&gt;Node12</title>
<g id="a_edge23_Node000001_Node000012"><a xlink:title=" ">
<path fill="none" stroke="#63b8ff" d="M484.9,-285.72C471.84,-262.81 446.24,-217.93 432.07,-193.09"/>
<polygon fill="#63b8ff" stroke="#63b8ff" points="434.92,-191.02 426.93,-184.07 428.84,-194.49 434.92,-191.02"/>
</a>
</g>
</g>
<!-- Node13 -->
<g id="Node000013" class="node">
<title>Node13</title>
<g id="a_Node000013"><a xlink:title=" ">
<polygon fill="#e0e0e0" stroke="#999999" points="522.04,-184 464.04,-184 464.04,-165 522.04,-165 522.04,-184"/>
<text text-anchor="middle" x="493.04" y="-172" font-family="Helvetica,sans-Serif" font-size="10.00">memory</text>
</a>
</g>
</g>
<!-- Node1&#45;&gt;Node13 -->
<g id="edge22_Node000001_Node000013" class="edge">
<title>Node1&#45;&gt;Node13</title>
<g id="a_edge22_Node000001_Node000013"><a xlink:title=" ">
<path fill="none" stroke="#63b8ff" d="M493.04,-285.72C493.04,-263.12 493.04,-219.12 493.04,-194.09"/>
<polygon fill="#63b8ff" stroke="#63b8ff" points="496.54,-194.07 493.04,-184.07 489.54,-194.07 496.54,-194.07"/>
</a>
</g>
</g>
<!-- Node14 -->
<g id="Node000014" class="node">
<title>Node14</title>
<g id="a_Node000014"><a xlink:title=" ">
<polygon fill="#e0e0e0" stroke="#999999" points="690.04,-250 568.04,-250 568.04,-220 690.04,-220 690.04,-250"/>
<text text-anchor="start" x="576.04" y="-238" font-family="Helvetica,sans-Serif" font-size="10.00">slick/orderbook/detail</text>
<text text-anchor="middle" x="629.04" y="-227" font-family="Helvetica,sans-Serif" font-size="10.00">/price_level.hpp</text>
</a>
</g>
</g>
<!-- Node1&#45;&gt;Node14 -->
<g id="edge20_Node000001_Node000014" class="edge">
<title>Node1&#45;&gt;Node14</title>
<g id="a_edge20_Node000001_Node000014"><a xlink:title=" ">
<path fill="none" stroke="#63b8ff" d="M522.89,-285.95C542.64,-276.66 568.74,-264.38 590.12,-254.32"/>
<polygon fill="#63b8ff" stroke="#63b8ff" points="591.71,-257.44 599.27,-250.01 588.73,-251.1 591.71,-257.44"/>
</a>
</g>
</g>
<!-- Node15 -->
<g id="Node000015" class="node">
<title>Node15</title>
<g id="a_Node000015"><a xlink:title=" ">
<polygon fill="#e0e0e0" stroke="#999999" points="830.04,-250 708.04,-250 708.04,-220 830.04,-220 830.04,-250"/>
<text text-anchor="start" x="716.04" y="-238" font-family="Helvetica,sans-Serif" font-size="10.00">slick/orderbook/detail</text>
<text text-anchor="middle" x="769.04" y="-227" font-family="Helvetica,sans-Serif" font-size="10.00">/level_container.hpp</text>
</a>
</g>
</g>
<!-- Node1&#45;&gt;Node15 -->
<g id="edge21_Node000001_Node000015" class="edge">
<title>Node1&#45;&gt;Node15</title>
<g id="a_edge21_Node000001_Node000015"><a xlink:title=" ">
<path fill="none" stroke="#63b8ff" d="M553.61,-285.95C596.39,-276.03 653.86,-262.71 698.67,-252.32"/>
<polygon fill="#63b8ff" stroke="#63b8ff" points="699.66,-255.68 708.61,-250.01 698.08,-248.86 699.66,-255.68"/>
</a>
</g>
</g>
<!-- Node16 -->
<g id="Node000016" class="node">
<title>Node16</title>
<g id="a_Node000016"><a xlink:title=" ">
<polygon fill="#e0e0e0" stroke="#999999" points="890.04,-244.5 848.04,-244.5 848.04,-225.5 890.04,-225.5 890.04,-244.5"/>
<text text-anchor="middle" x="869.04" y="-232.5" font-family="Helvetica,sans-Serif" font-size="10.00">array</text>
</a>
</g>
</g>
<!-- Node1&#45;&gt;Node16 -->
<g id="edge24_Node000001_Node000016" class="edge">
<title>Node1&#45;&gt;Node16</title>
<g id="a_edge24_Node000001_Node000016"><a xlink:title=" ">
<path fill="none" stroke="#63b8ff" d="M565.27,-295.74C636.19,-290.13 746.86,-277.51 839.04,-250 840.49,-249.57 841.95,-249.08 843.42,-248.55"/>
<polygon fill="#63b8ff" stroke="#63b8ff" points="845,-251.68 852.88,-244.6 842.3,-245.22 845,-251.68"/>
</a>
</g>
</g>
<!-- Node3 -->
<g id="Node000003" class="node">
<title>Node3</title>
<g id="a_Node000003"><a xlink:title=" ">
<polygon fill="#e0e0e0" stroke="#999999" points="210.04,-19 158.04,-19 158.04,0 210.04,0 210.04,-19"/>
<text text-anchor="middle" x="184.04" y="-7" font-family="Helvetica,sans-Serif" font-size="10.00">cassert</text>
</a>
</g>
</g>
<!-- Node2&#45;&gt;Node3 -->
<g id="edge2_Node000002_Node000003" class="edge">
<title>Node2&#45;&gt;Node3</title>
<g id="a_edge2_Node000002_Node000003"><a xlink:title=" ">
<path fill="none" stroke="#63b8ff" d="M184.04,-54.75C184.04,-47.8 184.04,-37.85 184.04,-29.13"/>
<polygon fill="#63b8ff" stroke="#63b8ff" points="187.54,-29.09 184.04,-19.09 180.54,-29.09 187.54,-29.09"/>
</a>
</g>
</g>
<!-- Node4&#45;&gt;Node2 -->
<g id="edge4_Node000004_Node000002" class="edge">
<title>Node4&#45;&gt;Node2</title>
<g id="a_edge4_Node000004_Node000002"><a xlink:title=" ">
<path fill="none" stroke="#63b8ff" d="M373.73,-109.98C334.8,-100.86 272.88,-86.33 230.45,-76.38"/>
<polygon fill="#63b8ff" stroke="#63b8ff" points="231.17,-72.96 220.64,-74.08 229.57,-79.77 231.17,-72.96"/>
</a>
</g>
</g>
<!-- Node5 -->
<g id="Node000005" class="node">
<title>Node5</title>
<g id="a_Node000005"><a xlink:title=" ">
<polygon fill="#e0e0e0" stroke="#999999" points="395.04,-74 345.04,-74 345.04,-55 395.04,-55 395.04,-74"/>
<text text-anchor="middle" x="370.04" y="-62" font-family="Helvetica,sans-Serif" font-size="10.00">cstdint</text>
</a>
</g>
</g>
<!-- Node4&#45;&gt;Node5 -->
<g id="edge5_Node000004_Node000005" class="edge">
<title>Node4&#45;&gt;Node5</title>
<g id="a_edge5_Node000004_Node000005"><a xlink:title=" ">
<path fill="none" stroke="#63b8ff" d="M403.44,-109.75C397.79,-102.26 389.5,-91.28 382.59,-82.13"/>
<polygon fill="#63b8ff" stroke="#63b8ff" points="385.34,-79.96 376.52,-74.09 379.75,-84.18 385.34,-79.96"/>
</a>
</g>
</g>
<!-- Node6 -->
<g id="Node000006" class="node">
<title>Node6</title>
<g id="a_Node000006"><a xlink:title=" ">
<polygon fill="#e0e0e0" stroke="#999999" points="486.54,-74 413.54,-74 413.54,-55 486.54,-55 486.54,-74"/>
<text text-anchor="middle" x="450.04" y="-62" font-family="Helvetica,sans-Serif" font-size="10.00">string_view</text>
</a>
</g>
</g>
<!-- Node4&#45;&gt;Node6 -->
<g id="edge6_Node000004_Node000006" class="edge">
<title>Node4&#45;&gt;Node6</title>
<g id="a_edge6_Node000004_Node000006"><a xlink:title=" ">
<path fill="none" stroke="#63b8ff" d="M416.65,-109.75C422.3,-102.26 430.59,-91.28 437.49,-82.13"/>
<polygon fill="#63b8ff" stroke="#63b8ff" points="440.33,-84.18 443.56,-74.09 434.74,-79.96 440.33,-84.18"/>
</a>
</g>
</g>
<!-- Node7&#45;&gt;Node2 -->
<g id="edge8_Node000007_Node000002" class="edge">
<title>Node7&#45;&gt;Node2</title>
<g id="a_edge8_Node000007_Node000002"><a xlink:title=" ">
<path fill="none" stroke="#63b8ff" d="M99.57,-164.66C114.94,-146.61 150.16,-105.28 169.92,-82.08"/>
<polygon fill="#63b8ff" stroke="#63b8ff" points="172.85,-84.04 176.67,-74.16 167.52,-79.5 172.85,-84.04"/>
</a>
</g>
</g>
<!-- Node7&#45;&gt;Node4 -->
<g id="edge9_Node000007_Node000004" class="edge">
<title>Node7&#45;&gt;Node4</title>
<g id="a_edge9_Node000007_Node000004"><a xlink:title=" ">
<path fill="none" stroke="#63b8ff" d="M143.13,-164.98C199.15,-155.65 288.99,-140.67 348.76,-130.71"/>
<polygon fill="#63b8ff" stroke="#63b8ff" points="349.52,-134.13 358.81,-129.04 348.37,-127.23 349.52,-134.13"/>
</a>
</g>
</g>
<!-- Node8&#45;&gt;Node2 -->
<g id="edge11_Node000008_Node000002" class="edge">
<title>Node8&#45;&gt;Node2</title>
<g id="a_edge11_Node000008_Node000002"><a xlink:title=" ">
<path fill="none" stroke="#63b8ff" d="M277.18,-225.45C255.78,-217.95 228.32,-204.91 212.04,-184 189.19,-154.63 184.52,-109.62 183.84,-84.37"/>
<polygon fill="#63b8ff" stroke="#63b8ff" points="187.34,-84.25 183.76,-74.28 180.34,-84.31 187.34,-84.25"/>
</a>
</g>
</g>
<!-- Node8&#45;&gt;Node7 -->
<g id="edge12_Node000008_Node000007" class="edge">
<title>Node8&#45;&gt;Node7</title>
<g id="a_edge12_Node000008_Node000007"><a xlink:title=" ">
<path fill="none" stroke="#63b8ff" d="M276.63,-225.49C238.8,-215.25 175.13,-198 133.35,-186.69"/>
<polygon fill="#63b8ff" stroke="#63b8ff" points="134.06,-183.25 123.49,-184.02 132.23,-190.01 134.06,-183.25"/>
</a>
</g>
</g>
<!-- Node9 -->
<g id="Node000009" class="node">
<title>Node9</title>
<g id="a_Node000009"><a xlink:href="concepts_8hpp.html" target="_top" xlink:title=" ">
<polygon fill="white" stroke="#666666" points="380.54,-184 221.54,-184 221.54,-165 380.54,-165 380.54,-184"/>
<text text-anchor="middle" x="301.04" y="-172" font-family="Helvetica,sans-Serif" font-size="10.00">slick/orderbook/concepts.hpp</text>
</a>
</g>
</g>
<!-- Node8&#45;&gt;Node9 -->
<g id="edge13_Node000008_Node000009" class="edge">
<title>Node8&#45;&gt;Node9</title>
<g id="a_edge13_Node000008_Node000009"><a xlink:title=" ">
<path fill="none" stroke="#63b8ff" d="M307.01,-225.37C306.04,-217.25 304.55,-204.81 303.3,-194.39"/>
<polygon fill="#63b8ff" stroke="#63b8ff" points="306.74,-193.68 302.08,-184.17 299.79,-194.51 306.74,-193.68"/>
</a>
</g>
</g>
<!-- Node8&#45;&gt;Node12 -->
<g id="edge18_Node000008_Node000012" class="edge">
<title>Node8&#45;&gt;Node12</title>
<g id="a_edge18_Node000008_Node000012"><a xlink:title=" ">
<path fill="none" stroke="#63b8ff" d="M324.86,-225.37C343.64,-215.73 374.25,-200.03 396.09,-188.81"/>
<polygon fill="#63b8ff" stroke="#63b8ff" points="397.85,-191.85 405.15,-184.17 394.66,-185.62 397.85,-191.85"/>
</a>
</g>
</g>
<!-- Node8&#45;&gt;Node13 -->
<g id="edge19_Node000008_Node000013" class="edge">
<title>Node8&#45;&gt;Node13</title>
<g id="a_edge19_Node000008_Node000013"><a xlink:title=" ">
<path fill="none" stroke="#63b8ff" d="M334.94,-225.49C367,-215.36 420.73,-198.37 456.52,-187.05"/>
<polygon fill="#63b8ff" stroke="#63b8ff" points="457.63,-190.37 466.11,-184.02 455.52,-183.69 457.63,-190.37"/>
</a>
</g>
</g>
<!-- Node9&#45;&gt;Node2 -->
<g id="edge14_Node000009_Node000002" class="edge">
<title>Node9&#45;&gt;Node2</title>
<g id="a_edge14_Node000009_Node000002"><a xlink:title=" ">
<path fill="none" stroke="#63b8ff" d="M302,-164.64C302.93,-151.3 302.73,-125.93 290.04,-110 277.39,-94.11 258.05,-83.82 239.33,-77.19"/>
<polygon fill="#63b8ff" stroke="#63b8ff" points="240.23,-73.81 229.64,-74.05 238.07,-80.46 240.23,-73.81"/>
</a>
</g>
</g>
<!-- Node9&#45;&gt;Node4 -->
<g id="edge15_Node000009_Node000004" class="edge">
<title>Node9&#45;&gt;Node4</title>
<g id="a_edge15_Node000009_Node000004"><a xlink:title=" ">
<path fill="none" stroke="#63b8ff" d="M318.55,-164.98C336.01,-156.5 363.05,-143.35 383.21,-133.54"/>
<polygon fill="#63b8ff" stroke="#63b8ff" points="384.75,-136.69 392.21,-129.17 381.69,-130.4 384.75,-136.69"/>
</a>
</g>
</g>
<!-- Node10 -->
<g id="Node000010" class="node">
<title>Node10</title>
<g id="a_Node000010"><a xlink:title=" ">
<polygon fill="#e0e0e0" stroke="#999999" points="560.04,-129 500.04,-129 500.04,-110 560.04,-110 560.04,-129"/>
<text text-anchor="middle" x="530.04" y="-117" font-family="Helvetica,sans-Serif" font-size="10.00">concepts</text>
</a>
</g>
</g>
<!-- Node9&#45;&gt;Node10 -->
<g id="edge16_Node000009_Node000010" class="edge">
<title>Node9&#45;&gt;Node10</title>
<g id="a_edge16_Node000009_Node000010"><a xlink:title=" ">
<path fill="none" stroke="#63b8ff" d="M337.83,-164.98C379.5,-155.34 447.17,-139.68 490.1,-129.74"/>
<polygon fill="#63b8ff" stroke="#63b8ff" points="490.97,-133.14 499.92,-127.47 489.39,-126.32 490.97,-133.14"/>
</a>
</g>
</g>
<!-- Node11 -->
<g id="Node000011" class="node">
<title>Node11</title>
<g id="a_Node000011"><a xlink:title=" ">
<polygon fill="#e0e0e0" stroke="#999999" points="281.54,-129 212.54,-129 212.54,-110 281.54,-110 281.54,-129"/>
<text text-anchor="middle" x="247.04" y="-117" font-family="Helvetica,sans-Serif" font-size="10.00">type_traits</text>
</a>
</g>
</g>
<!-- Node9&#45;&gt;Node11 -->
<g id="edge17_Node000009_Node000011" class="edge">
<title>Node9&#45;&gt;Node11</title>
<g id="a_edge17_Node000009_Node000011"><a xlink:title=" ">
<path fill="none" stroke="#63b8ff" d="M292.13,-164.75C284.26,-157.03 272.61,-145.6 263.12,-136.28"/>
<polygon fill="#63b8ff" stroke="#63b8ff" points="265.38,-133.6 255.79,-129.09 260.48,-138.59 265.38,-133.6"/>
</a>
</g>
</g>
</g>
</svg>

<g id="navigator" transform="translate(0 0)" fill="#404254">
  <rect fill="#f2f5e9" fill-opacity="0.5" stroke="#606060" stroke-width=".5" x="0" y="0" width="60" height="60"/>
  <use id="zoomplus" xlink:href="#zoomPlus" x="17" y="9" onmousedown="handleZoom(evt,'in')"/>
  <use id="zoomminus" xlink:href="#zoomMin" x="42" y="9" onmousedown="handleZoom(evt,'out')"/>
  <use id="reset" xlink:href="#resetDef" x="30" y="36" onmousedown="handleReset()"/>
   <use id="arrowup" xlink:href="#arrowUp" x="0" y="0" onmousedown="handlePan(0,-1)"/>
  <use id="arrowright" xlink:href="#arrowRight" x="0" y="0" onmousedown="handlePan(1,0)"/>
  <use id="arrowdown" xlink:href="#arrowDown" x="0" y="0" onmousedown="handlePan(0,1)"/>
  <use id="arrowleft" xlink:href="#arrowLeft" x="0" y="0" onmousedown="handlePan(-1,0)"/>
</g>
<svg viewBox="0 0 15 15" width="100%" height="30px" preserveAspectRatio="xMaxYMin meet">
 <g id="arrow_out" transform="scale(0.3 0.3)">
  <a xlink:href="orderbook__l2_8hpp__incl_org.svg" target="_base">
   <rect id="button" ry="5" rx="5" y="6" x="6" height="38" width="38"
        fill="#f2f5e9" fill-opacity="0.5" stroke="#606060" stroke-width="1.0"/>
   <path id="arrow"
     d="M 11.500037,31.436501 C 11.940474,20.09759 22.043105,11.32322 32.158766,21.979434 L 37.068811,17.246167 C 37.068811,17.246167 37.088388,32 37.088388,32 L 22.160133,31.978069 C 22.160133,31.978069 26.997745,27.140456 26.997745,27.140456 C 18.528582,18.264221 13.291696,25.230495 11.500037,31.436501 z"
     style="fill:#404040;"/>
  </a>
 </g>
</svg>

<style type='text/css'>
<![CDATA[
[data-mouse-over-selected='false'] { opacity: 0.7; }
[data-mouse-over-selected='true']  { opacity: 1.0; }
]]>
</style>
<script type="application/ecmascript"><![CDATA[
document.addEventListener('DOMContentLoaded', (event) => {
  highlightEdges();
  highlightAdjacentNodes();
});
]]></script>
</svg>
