<?xml version="1.0" encoding="UTF-8" standalone="no"?>
<!DOCTYPE svg PUBLIC "-//W3C//DTD SVG 1.1//EN"
 "http://www.w3.org/Graphics/SVG/1.1/DTD/svg11.dtd">
<!-- Generated by graphviz version 2.43.0 (0)
 -->
<!-- Title: slick/orderbook/orderbook_l3.hpp Pages: 1 -->
<!--zoomable 335 -->

<svg id="main" version="1.1" xmlns="http://www.w3.org/2000/svg" xmlns:xlink="http://www.w3.org/1999/xlink" xml:space="preserve" onload="init(evt)">
<style type="text/css"><![CDATA[
.node, .edge {opacity: 0.7;}
.node.selected, .edge.selected {opacity: 1;}
.edge:hover path { stroke: red; }
.edge:hover polygon { stroke: red; fill: red; }
]]></style>

<defs>
  <circle id="rim" cx="0" cy="0" r="7"/>
  <circle id="rim2" cx="0" cy="0" r="3.5"/>
  <g id="zoomPlus">
    <use xlink:href="#rim" fill="#404040"><set attributeName="fill" to="#808080" begin="zoomplus.mouseover" end="zoomplus.mouseout"/></use>
    <path d="M-4,0h8M0,-4v8" fill="none" stroke="white" stroke-width="1.5" pointer-events="none"/>
  </g>
  <g id="zoomMin">
    <use xlink:href="#rim" fill="#404040"><set attributeName="fill" to="#808080" begin="zoomminus.mouseover" end="zoomminus.mouseout"/></use>
    <path d="M-4,0h8" fill="none" stroke="white" stroke-width="1.5" pointer-events="none"/>
  </g>
  <g id="arrowUp" transform="translate(30 24)">
    <use xlink:href="#rim"/>
    <path pointer-events="none" fill="none" stroke="white" stroke-width="1.5" d="M0,-3.0v7 M-2.5,-0.5L0,-3.0L2.5,-0.5"/>
  </g>
  <g id="arrowRight" transform="rotate(90) translate(36 -43)">
    <use xlink:href="#rim"/>
    <path pointer-events="none" fill="none" stroke="white" stroke-width="1.5" d="M0,-3.0v7 M-2.5,-0.5L0,-3.0L2.5,-0.5"/>
  </g>
  <g id="arrowDown" transform="rotate(180) translate(-30 -48)">
    <use xlink:href="#rim"/>
    <path pointer-events="none" fill="none" stroke="white" stroke-width="1.5" d="M0,-3.0v7 M-2.5,-0.5L0,-3.0L2.5,-0.5"/>
  </g>
  <g id="arrowLeft" transform="rotate(270) translate(-36 17)">
    <use xlink:href="#rim"/>
    <path pointer-events="none" fill="none" stroke="white" stroke-width="1.5" d="M0,-3.0v7 M-2.5,-0.5L0,-3.0L2.5,-0.5"/>
  </g>
  <g id="resetDef">
    <use xlink:href="#rim2" fill="#404040"><set attributeName="fill" to="#808080" begin="reset.mouseover" end="reset.mouseout"/></use>
  </g>
</defs>
<script type="application/ecmascript">
var viewWidth = 1781;
var viewHeight = 335;
var sectionId = 'dynsection-0';
</script>
<script type="application/ecmascript" xlink:href="svg.min.js"/>
<svg id="graph" class="graph">
<g id="viewport">
<title>slick/orderbook/orderbook_l3.hpp</title>
<!-- Node1 -->
<g id="Node000001" class="node">
<title>Node1</title>
<g id="a_Node000001"><a xlink:title=" ">
<polygon fill="#999999" stroke="#666666" points="1057,-327 913,-327 913,-297 1057,-297 1057,-327"/>
<text text-anchor="start" x="921" y="-315" font-family="Helvetica,sans-Serif" font-size="10.00">slick/orderbook/orderbook</text>
<text text-anchor="middle" x="985" y="-304" font-family="Helvetica,sans-Serif" font-size="10.00">_l3.hpp</text>
</a>
</g>
</g>
<!-- Node2 -->
<g id="Node000002" class="node">
<title>Node2</title>
<g id="a_Node000002"><a xlink:href="config_8hpp.html" target="_top" xlink:title=" ">
<polygon fill="white" stroke="#666666" points="772.5,-74 627.5,-74 627.5,-55 772.5,-55 772.5,-74"/>
<text text-anchor="middle" x="700" y="-62" font-family="Helvetica,sans-Serif" font-size="10.00">slick/orderbook/config.hpp</text>
</a>
</g>
</g>
<!-- Node1&#45;&gt;Node2 -->
<g id="edge1_Node000001_Node000002" class="edge">
<title>Node1&#45;&gt;Node2</title>
<g id="a_edge1_Node000001_Node000002"><a xlink:title=" ">
<path fill="none" stroke="#63b8ff" d="M1057.11,-310.96C1127.23,-308.5 1235.4,-298.18 1321,-261 1372.73,-238.53 1429.81,-215.15 1404,-165 1384.76,-127.61 1366.57,-124.24 1327,-110 1229.17,-74.78 929.59,-67.34 782.81,-65.83"/>
<polygon fill="#63b8ff" stroke="#63b8ff" points="782.54,-62.33 772.51,-65.73 782.47,-69.33 782.54,-62.33"/>
</a>
</g>
</g>
<!-- Node4 -->
<g id="Node000004" class="node">
<title>Node4</title>
<g id="a_Node000004"><a xlink:href="types_8hpp.html" target="_top" xlink:title=" ">
<polygon fill="white" stroke="#666666" points="538.5,-129 395.5,-129 395.5,-110 538.5,-110 538.5,-129"/>
<text text-anchor="middle" x="467" y="-117" font-family="Helvetica,sans-Serif" font-size="10.00">slick/orderbook/types.hpp</text>
</a>
</g>
</g>
<!-- Node1&#45;&gt;Node4 -->
<g id="edge3_Node000001_Node000004" class="edge">
<title>Node1&#45;&gt;Node4</title>
<g id="a_edge3_Node000001_Node000004"><a xlink:title=" ">
<path fill="none" stroke="#63b8ff" d="M912.99,-309.76C713.44,-305.95 163.1,-292.65 88,-261 48,-244.14 33.48,-234.74 16,-195 10.63,-182.8 7.05,-174.88 16,-165 40.25,-138.24 261.66,-126.98 384.98,-122.74"/>
<polygon fill="#63b8ff" stroke="#63b8ff" points="385.27,-126.24 395.14,-122.4 385.03,-119.24 385.27,-126.24"/>
</a>
</g>
</g>
<!-- Node8 -->
<g id="Node000008" class="node">
<title>Node8</title>
<g id="a_Node000008"><a xlink:href="events_8hpp.html" target="_top" xlink:title=" ">
<polygon fill="white" stroke="#666666" points="334.5,-189.5 185.5,-189.5 185.5,-170.5 334.5,-170.5 334.5,-189.5"/>
<text text-anchor="middle" x="260" y="-177.5" font-family="Helvetica,sans-Serif" font-size="10.00">slick/orderbook/events.hpp</text>
</a>
</g>
</g>
<!-- Node1&#45;&gt;Node8 -->
<g id="edge8_Node000001_Node000008" class="edge">
<title>Node1&#45;&gt;Node8</title>
<g id="a_edge8_Node000001_Node000008"><a xlink:title=" ">
<path fill="none" stroke="#63b8ff" d="M912.74,-308.48C817.29,-304.04 644.4,-292.12 500,-261 422.36,-244.27 334.66,-211.26 289.85,-193.32"/>
<polygon fill="#63b8ff" stroke="#63b8ff" points="291.02,-190.02 280.44,-189.52 288.4,-196.51 291.02,-190.02"/>
</a>
</g>
</g>
<!-- Node9 -->
<g id="Node000009" class="node">
<title>Node9</title>
<g id="a_Node000009"><a xlink:title=" ">
<polygon fill="#e0e0e0" stroke="#999999" points="42,-129 0,-129 0,-110 42,-110 42,-129"/>
<text text-anchor="middle" x="21" y="-117" font-family="Helvetica,sans-Serif" font-size="10.00">array</text>
</a>
</g>
</g>
<!-- Node1&#45;&gt;Node9 -->
<g id="edge58_Node000001_Node000009" class="edge">
<title>Node1&#45;&gt;Node9</title>
<g id="a_edge58_Node000001_Node000009"><a xlink:title=" ">
<path fill="none" stroke="#63b8ff" d="M912.76,-311.55C703.33,-312.53 106.23,-310.9 35,-261 -1.4,-235.5 0.25,-208.93 7,-165 8.35,-156.19 11.13,-146.74 13.85,-138.82"/>
<polygon fill="#63b8ff" stroke="#63b8ff" points="17.23,-139.77 17.4,-129.18 10.66,-137.35 17.23,-139.77"/>
</a>
</g>
</g>
<!-- Node10 -->
<g id="Node000010" class="node">
<title>Node10</title>
<g id="a_Node000010"><a xlink:href="observer_8hpp.html" target="_top" xlink:title=" ">
<polygon fill="white" stroke="#666666" points="938,-255.5 780,-255.5 780,-236.5 938,-236.5 938,-255.5"/>
<text text-anchor="middle" x="859" y="-243.5" font-family="Helvetica,sans-Serif" font-size="10.00">slick/orderbook/observer.hpp</text>
</a>
</g>
</g>
<!-- Node1&#45;&gt;Node10 -->
<g id="edge12_Node000001_Node000010" class="edge">
<title>Node1&#45;&gt;Node10</title>
<g id="a_edge12_Node000001_Node000010"><a xlink:title=" ">
<path fill="none" stroke="#63b8ff" d="M957.35,-296.95C935.74,-285.98 905.92,-270.83 884.8,-260.11"/>
<polygon fill="#63b8ff" stroke="#63b8ff" points="886.27,-256.93 875.77,-255.52 883.1,-263.17 886.27,-256.93"/>
</a>
</g>
</g>
<!-- Node14 -->
<g id="Node000014" class="node">
<title>Node14</title>
<g id="a_Node000014"><a xlink:title=" ">
<polygon fill="#e0e0e0" stroke="#999999" points="1111.5,-189.5 1064.5,-189.5 1064.5,-170.5 1111.5,-170.5 1111.5,-189.5"/>
<text text-anchor="middle" x="1088" y="-177.5" font-family="Helvetica,sans-Serif" font-size="10.00">vector</text>
</a>
</g>
</g>
<!-- Node1&#45;&gt;Node14 -->
<g id="edge57_Node000001_Node000014" class="edge">
<title>Node1&#45;&gt;Node14</title>
<g id="a_edge57_Node000001_Node000014"><a xlink:title=" ">
<path fill="none" stroke="#63b8ff" d="M996.22,-296.84C1015.34,-272.71 1054.16,-223.71 1074.65,-197.85"/>
<polygon fill="#63b8ff" stroke="#63b8ff" points="1077.6,-199.76 1081.07,-189.75 1072.12,-195.41 1077.6,-199.76"/>
</a>
</g>
</g>
<!-- Node15 -->
<g id="Node000015" class="node">
<title>Node15</title>
<g id="a_Node000015"><a xlink:title=" ">
<polygon fill="#e0e0e0" stroke="#999999" points="1188,-189.5 1130,-189.5 1130,-170.5 1188,-170.5 1188,-189.5"/>
<text text-anchor="middle" x="1159" y="-177.5" font-family="Helvetica,sans-Serif" font-size="10.00">memory</text>
</a>
</g>
</g>
<!-- Node1&#45;&gt;Node15 -->
<g id="edge55_Node000001_Node000015" class="edge">
<title>Node1&#45;&gt;Node15</title>
<g id="a_edge55_Node000001_Node000015"><a xlink:title=" ">
<path fill="none" stroke="#63b8ff" d="M1003.95,-296.84C1037.1,-272.07 1105.3,-221.12 1139.1,-195.87"/>
<polygon fill="#63b8ff" stroke="#63b8ff" points="1141.37,-198.54 1147.29,-189.75 1137.18,-192.93 1141.37,-198.54"/>
</a>
</g>
</g>
<!-- Node16 -->
<g id="Node000016" class="node">
<title>Node16</title>
<g id="a_Node000016"><a xlink:href="price__level__l2_8hpp.html" target="_top" xlink:title=" ">
<polygon fill="white" stroke="#666666" points="615,-195 493,-195 493,-165 615,-165 615,-195"/>
<text text-anchor="start" x="501" y="-183" font-family="Helvetica,sans-Serif" font-size="10.00">slick/orderbook/detail</text>
<text text-anchor="middle" x="554" y="-172" font-family="Helvetica,sans-Serif" font-size="10.00">/price_level_l2.hpp</text>
</a>
</g>
</g>
<!-- Node1&#45;&gt;Node16 -->
<g id="edge22_Node000001_Node000016" class="edge">
<title>Node1&#45;&gt;Node16</title>
<g id="a_edge22_Node000001_Node000016"><a xlink:title=" ">
<path fill="none" stroke="#63b8ff" d="M912.72,-308.12C818.63,-303.23 660.38,-290.75 611,-261 589.21,-247.87 573.46,-222.87 564.11,-204.3"/>
<polygon fill="#63b8ff" stroke="#63b8ff" points="567.15,-202.54 559.69,-195.02 560.83,-205.55 567.15,-202.54"/>
</a>
</g>
</g>
<!-- Node17 -->
<g id="Node000017" class="node">
<title>Node17</title>
<g id="a_Node000017"><a xlink:href="price__level__l3_8hpp.html" target="_top" xlink:title=" ">
<polygon fill="white" stroke="#666666" points="742,-261 620,-261 620,-231 742,-231 742,-261"/>
<text text-anchor="start" x="628" y="-249" font-family="Helvetica,sans-Serif" font-size="10.00">slick/orderbook/detail</text>
<text text-anchor="middle" x="681" y="-238" font-family="Helvetica,sans-Serif" font-size="10.00">/price_level_l3.hpp</text>
</a>
</g>
</g>
<!-- Node1&#45;&gt;Node17 -->
<g id="edge25_Node000001_Node000017" class="edge">
<title>Node1&#45;&gt;Node17</title>
<g id="a_edge25_Node000001_Node000017"><a xlink:title=" ">
<path fill="none" stroke="#63b8ff" d="M918.29,-296.95C869.05,-286.59 802.15,-272.51 751.94,-261.94"/>
<polygon fill="#63b8ff" stroke="#63b8ff" points="752.64,-258.51 742.13,-259.87 751.2,-265.36 752.64,-258.51"/>
</a>
</g>
</g>
<!-- Node18 -->
<g id="Node000018" class="node">
<title>Node18</title>
<g id="a_Node000018"><a xlink:href="intrusive__list_8hpp.html" target="_top" xlink:title=" ">
<polygon fill="white" stroke="#666666" points="1046,-195 924,-195 924,-165 1046,-165 1046,-195"/>
<text text-anchor="start" x="932" y="-183" font-family="Helvetica,sans-Serif" font-size="10.00">slick/orderbook/detail</text>
<text text-anchor="middle" x="985" y="-172" font-family="Helvetica,sans-Serif" font-size="10.00">/intrusive_list.hpp</text>
</a>
</g>
</g>
<!-- Node1&#45;&gt;Node18 -->
<g id="edge54_Node000001_Node000018" class="edge">
<title>Node1&#45;&gt;Node18</title>
<g id="a_edge54_Node000001_Node000018"><a xlink:title=" ">
<path fill="none" stroke="#63b8ff" d="M985,-296.84C985,-274.86 985,-232.27 985,-205.3"/>
<polygon fill="#63b8ff" stroke="#63b8ff" points="988.5,-205.14 985,-195.14 981.5,-205.14 988.5,-205.14"/>
</a>
</g>
</g>
<!-- Node21 -->
<g id="Node000021" class="node">
<title>Node21</title>
<g id="a_Node000021"><a xlink:href="order_8hpp.html" target="_top" xlink:title=" ">
<polygon fill="white" stroke="#666666" points="475,-195 353,-195 353,-165 475,-165 475,-195"/>
<text text-anchor="start" x="361" y="-183" font-family="Helvetica,sans-Serif" font-size="10.00">slick/orderbook/detail</text>
<text text-anchor="middle" x="414" y="-172" font-family="Helvetica,sans-Serif" font-size="10.00">/order.hpp</text>
</a>
</g>
</g>
<!-- Node1&#45;&gt;Node21 -->
<g id="edge36_Node000001_Node000021" class="edge">
<title>Node1&#45;&gt;Node21</title>
<g id="a_edge36_Node000001_Node000021"><a xlink:title=" ">
<path fill="none" stroke="#63b8ff" d="M912.77,-309.39C830.05,-305.9 691.23,-294.98 577,-261 528.74,-246.64 477.24,-219.06 445.34,-200.34"/>
<polygon fill="#63b8ff" stroke="#63b8ff" points="446.87,-197.18 436.49,-195.08 443.29,-203.2 446.87,-197.18"/>
</a>
</g>
</g>
<!-- Node22 -->
<g id="Node000022" class="node">
<title>Node22</title>
<g id="a_Node000022"><a xlink:href="order__map_8hpp.html" target="_top" xlink:title=" ">
<polygon fill="white" stroke="#666666" points="219,-261 97,-261 97,-231 219,-231 219,-261"/>
<text text-anchor="start" x="105" y="-249" font-family="Helvetica,sans-Serif" font-size="10.00">slick/orderbook/detail</text>
<text text-anchor="middle" x="158" y="-238" font-family="Helvetica,sans-Serif" font-size="10.00">/order_map.hpp</text>
</a>
</g>
</g>
<!-- Node1&#45;&gt;Node22 -->
<g id="edge37_Node000001_Node000022" class="edge">
<title>Node1&#45;&gt;Node22</title>
<g id="a_edge37_Node000001_Node000022"><a xlink:title=" ">
<path fill="none" stroke="#63b8ff" d="M912.75,-306.58C786.53,-298.69 517.67,-281.09 291,-261 270.92,-259.22 249.16,-257.04 229.17,-254.93"/>
<polygon fill="#63b8ff" stroke="#63b8ff" points="229.52,-251.45 219.21,-253.87 228.78,-258.41 229.52,-251.45"/>
</a>
</g>
</g>
<!-- Node24 -->
<g id="Node000024" class="node">
<title>Node24</title>
<g id="a_Node000024"><a xlink:href="memory__pool_8hpp.html" target="_top" xlink:title=" ">
<polygon fill="white" stroke="#666666" points="1312,-261 1190,-261 1190,-231 1312,-231 1312,-261"/>
<text text-anchor="start" x="1198" y="-249" font-family="Helvetica,sans-Serif" font-size="10.00">slick/orderbook/detail</text>
<text text-anchor="middle" x="1251" y="-238" font-family="Helvetica,sans-Serif" font-size="10.00">/memory_pool.hpp</text>
</a>
</g>
</g>
<!-- Node1&#45;&gt;Node24 -->
<g id="edge42_Node000001_Node000024" class="edge">
<title>Node1&#45;&gt;Node24</title>
<g id="a_edge42_Node000001_Node000024"><a xlink:title=" ">
<path fill="none" stroke="#63b8ff" d="M1043.37,-296.95C1084.52,-287.06 1139.75,-273.77 1182.91,-263.38"/>
<polygon fill="#63b8ff" stroke="#63b8ff" points="1183.86,-266.75 1192.76,-261.01 1182.22,-259.95 1183.86,-266.75"/>
</a>
</g>
</g>
<!-- Node26 -->
<g id="Node000026" class="node">
<title>Node26</title>
<g id="a_Node000026"><a xlink:href="flat__map_8hpp.html" target="_top" xlink:title=" ">
<polygon fill="white" stroke="#666666" points="1548,-261 1426,-261 1426,-231 1548,-231 1548,-261"/>
<text text-anchor="start" x="1434" y="-249" font-family="Helvetica,sans-Serif" font-size="10.00">slick/orderbook/detail</text>
<text text-anchor="middle" x="1487" y="-238" font-family="Helvetica,sans-Serif" font-size="10.00">/flat_map.hpp</text>
</a>
</g>
</g>
<!-- Node1&#45;&gt;Node26 -->
<g id="edge50_Node000001_Node000026" class="edge">
<title>Node1&#45;&gt;Node26</title>
<g id="a_edge50_Node000001_Node000026"><a xlink:title=" ">
<path fill="none" stroke="#63b8ff" d="M1057.35,-304.04C1142.44,-295.51 1287.84,-279.84 1412,-261 1413.25,-260.81 1414.52,-260.61 1415.79,-260.41"/>
<polygon fill="#63b8ff" stroke="#63b8ff" points="1416.36,-263.87 1425.66,-258.8 1415.23,-256.96 1416.36,-263.87"/>
</a>
</g>
</g>
<!-- Node29 -->
<g id="Node000029" class="node">
<title>Node29</title>
<g id="a_Node000029"><a xlink:title=" ">
<polygon fill="#e0e0e0" stroke="#999999" points="1630,-255.5 1566,-255.5 1566,-236.5 1630,-236.5 1630,-255.5"/>
<text text-anchor="middle" x="1598" y="-243.5" font-family="Helvetica,sans-Serif" font-size="10.00">algorithm</text>
</a>
</g>
</g>
<!-- Node1&#45;&gt;Node29 -->
<g id="edge56_Node000001_Node000029" class="edge">
<title>Node1&#45;&gt;Node29</title>
<g id="a_edge56_Node000001_Node000029"><a xlink:title=" ">
<path fill="none" stroke="#63b8ff" d="M1057.16,-310.26C1166.45,-307.89 1379.98,-298.38 1557,-261 1560.07,-260.35 1563.22,-259.55 1566.35,-258.65"/>
<polygon fill="#63b8ff" stroke="#63b8ff" points="1567.66,-261.9 1576.15,-255.55 1565.56,-255.23 1567.66,-261.9"/>
</a>
</g>
</g>
<!-- Node30 -->
<g id="Node000030" class="node">
<title>Node30</title>
<g id="a_Node000030"><a xlink:title=" ">
<polygon fill="#e0e0e0" stroke="#999999" points="1689.5,-255.5 1648.5,-255.5 1648.5,-236.5 1689.5,-236.5 1689.5,-255.5"/>
<text text-anchor="middle" x="1669" y="-243.5" font-family="Helvetica,sans-Serif" font-size="10.00">tuple</text>
</a>
</g>
</g>
<!-- Node1&#45;&gt;Node30 -->
<g id="edge59_Node000001_Node000030" class="edge">
<title>Node1&#45;&gt;Node30</title>
<g id="a_edge59_Node000001_Node000030"><a xlink:title=" ">
<path fill="none" stroke="#63b8ff" d="M1057.03,-308.75C1203.37,-303.65 1530.78,-289.38 1639,-261 1640.68,-260.56 1642.38,-260.03 1644.08,-259.43"/>
<polygon fill="#63b8ff" stroke="#63b8ff" points="1645.62,-262.58 1653.52,-255.52 1642.94,-256.11 1645.62,-262.58"/>
</a>
</g>
</g>
<!-- Node31 -->
<g id="Node000031" class="node">
<title>Node31</title>
<g id="a_Node000031"><a xlink:title=" ">
<polygon fill="#e0e0e0" stroke="#999999" points="1772.5,-255.5 1707.5,-255.5 1707.5,-236.5 1772.5,-236.5 1772.5,-255.5"/>
<text text-anchor="middle" x="1740" y="-243.5" font-family="Helvetica,sans-Serif" font-size="10.00">functional</text>
</a>
</g>
</g>
<!-- Node1&#45;&gt;Node31 -->
<g id="edge60_Node000001_Node000031" class="edge">
<title>Node1&#45;&gt;Node31</title>
<g id="a_edge60_Node000001_Node000031"><a xlink:title=" ">
<path fill="none" stroke="#63b8ff" d="M1057.11,-308.32C1213.13,-302.14 1577.74,-285.52 1699,-261 1702.07,-260.38 1705.23,-259.59 1708.36,-258.7"/>
<polygon fill="#63b8ff" stroke="#63b8ff" points="1709.67,-261.96 1718.16,-255.63 1707.57,-255.28 1709.67,-261.96"/>
</a>
</g>
</g>
<!-- Node3 -->
<g id="Node000003" class="node">
<title>Node3</title>
<g id="a_Node000003"><a xlink:title=" ">
<polygon fill="#e0e0e0" stroke="#999999" points="726,-19 674,-19 674,0 726,0 726,-19"/>
<text text-anchor="middle" x="700" y="-7" font-family="Helvetica,sans-Serif" font-size="10.00">cassert</text>
</a>
</g>
</g>
<!-- Node2&#45;&gt;Node3 -->
<g id="edge2_Node000002_Node000003" class="edge">
<title>Node2&#45;&gt;Node3</title>
<g id="a_edge2_Node000002_Node000003"><a xlink:title=" ">
<path fill="none" stroke="#63b8ff" d="M700,-54.75C700,-47.8 700,-37.85 700,-29.13"/>
<polygon fill="#63b8ff" stroke="#63b8ff" points="703.5,-29.09 700,-19.09 696.5,-29.09 703.5,-29.09"/>
</a>
</g>
</g>
<!-- Node4&#45;&gt;Node2 -->
<g id="edge4_Node000004_Node000002" class="edge">
<title>Node4&#45;&gt;Node2</title>
<g id="a_edge4_Node000004_Node000002"><a xlink:title=" ">
<path fill="none" stroke="#63b8ff" d="M504.44,-109.98C544.65,-100.84 608.68,-86.27 652.44,-76.32"/>
<polygon fill="#63b8ff" stroke="#63b8ff" points="653.3,-79.71 662.27,-74.08 651.74,-72.89 653.3,-79.71"/>
</a>
</g>
</g>
<!-- Node5 -->
<g id="Node000005" class="node">
<title>Node5</title>
<g id="a_Node000005"><a xlink:title=" ">
<polygon fill="#e0e0e0" stroke="#999999" points="593,-74 543,-74 543,-55 593,-55 593,-74"/>
<text text-anchor="middle" x="568" y="-62" font-family="Helvetica,sans-Serif" font-size="10.00">cstdint</text>
</a>
</g>
</g>
<!-- Node4&#45;&gt;Node5 -->
<g id="edge5_Node000004_Node000005" class="edge">
<title>Node4&#45;&gt;Node5</title>
<g id="a_edge5_Node000004_Node000005"><a xlink:title=" ">
<path fill="none" stroke="#63b8ff" d="M483.23,-109.98C499.18,-101.61 523.78,-88.7 542.38,-78.95"/>
<polygon fill="#63b8ff" stroke="#63b8ff" points="544.25,-81.92 551.48,-74.17 541,-75.72 544.25,-81.92"/>
</a>
</g>
</g>
<!-- Node6 -->
<g id="Node000006" class="node">
<title>Node6</title>
<g id="a_Node000006"><a xlink:title=" ">
<polygon fill="#e0e0e0" stroke="#999999" points="434.5,-74 361.5,-74 361.5,-55 434.5,-55 434.5,-74"/>
<text text-anchor="middle" x="398" y="-62" font-family="Helvetica,sans-Serif" font-size="10.00">string_view</text>
</a>
</g>
</g>
<!-- Node4&#45;&gt;Node6 -->
<g id="edge6_Node000004_Node000006" class="edge">
<title>Node4&#45;&gt;Node6</title>
<g id="a_edge6_Node000004_Node000006"><a xlink:title=" ">
<path fill="none" stroke="#63b8ff" d="M455.91,-109.98C445.51,-102 429.74,-89.88 417.28,-80.31"/>
<polygon fill="#63b8ff" stroke="#63b8ff" points="419.35,-77.49 409.29,-74.17 415.09,-83.04 419.35,-77.49"/>
</a>
</g>
</g>
<!-- Node7 -->
<g id="Node000007" class="node">
<title>Node7</title>
<g id="a_Node000007"><a xlink:title=" ">
<polygon fill="#e0e0e0" stroke="#999999" points="497,-74 453,-74 453,-55 497,-55 497,-74"/>
<text text-anchor="middle" x="475" y="-62" font-family="Helvetica,sans-Serif" font-size="10.00">limits</text>
</a>
</g>
</g>
<!-- Node4&#45;&gt;Node7 -->
<g id="edge7_Node000004_Node000007" class="edge">
<title>Node4&#45;&gt;Node7</title>
<g id="a_edge7_Node000004_Node000007"><a xlink:title=" ">
<path fill="none" stroke="#63b8ff" d="M468.32,-109.75C469.37,-102.8 470.87,-92.85 472.19,-84.13"/>
<polygon fill="#63b8ff" stroke="#63b8ff" points="475.67,-84.5 473.7,-74.09 468.75,-83.45 475.67,-84.5"/>
</a>
</g>
</g>
<!-- Node8&#45;&gt;Node2 -->
<g id="edge9_Node000008_Node000002" class="edge">
<title>Node8&#45;&gt;Node2</title>
<g id="a_edge9_Node000008_Node000002"><a xlink:title=" ">
<path fill="none" stroke="#63b8ff" d="M310.1,-170.49C390.86,-156.75 541.43,-130.98 547,-129 563.31,-123.21 565.29,-117.27 581,-110 608.14,-97.43 639.93,-85.69 663.82,-77.43"/>
<polygon fill="#63b8ff" stroke="#63b8ff" points="665.2,-80.65 673.53,-74.11 662.94,-74.03 665.2,-80.65"/>
</a>
</g>
</g>
<!-- Node8&#45;&gt;Node4 -->
<g id="edge10_Node000008_Node000004" class="edge">
<title>Node8&#45;&gt;Node4</title>
<g id="a_edge10_Node000008_Node000004"><a xlink:title=" ">
<path fill="none" stroke="#63b8ff" d="M290.1,-170.49C326.28,-160.27 387.11,-143.08 427.16,-131.76"/>
<polygon fill="#63b8ff" stroke="#63b8ff" points="428.19,-135.1 436.86,-129.02 426.29,-128.37 428.19,-135.1"/>
</a>
</g>
</g>
<!-- Node8&#45;&gt;Node9 -->
<g id="edge11_Node000008_Node000009" class="edge">
<title>Node8&#45;&gt;Node9</title>
<g id="a_edge11_Node000008_Node000009"><a xlink:title=" ">
<path fill="none" stroke="#63b8ff" d="M225.25,-170.49C178.74,-159.11 96.96,-139.09 52.29,-128.16"/>
<polygon fill="#63b8ff" stroke="#63b8ff" points="52.84,-124.69 42.3,-125.71 51.18,-131.49 52.84,-124.69"/>
</a>
</g>
</g>
<!-- Node10&#45;&gt;Node2 -->
<g id="edge13_Node000010_Node000002" class="edge">
<title>Node10&#45;&gt;Node2</title>
<g id="a_edge13_Node000010_Node000002"><a xlink:title=" ">
<path fill="none" stroke="#63b8ff" d="M812.96,-236.46C787.28,-229.43 756.62,-216.92 737,-195 722.28,-178.55 709.15,-115.92 703.27,-84.18"/>
<polygon fill="#63b8ff" stroke="#63b8ff" points="706.65,-83.25 701.44,-74.02 699.77,-84.49 706.65,-83.25"/>
</a>
</g>
</g>
<!-- Node10&#45;&gt;Node8 -->
<g id="edge14_Node000010_Node000008" class="edge">
<title>Node10&#45;&gt;Node8</title>
<g id="a_edge14_Node000010_Node000008"><a xlink:title=" ">
<path fill="none" stroke="#63b8ff" d="M796.8,-236.5C781.82,-234.57 765.85,-232.62 751,-231 570.47,-211.32 524.14,-217.94 344,-195 335.37,-193.9 326.27,-192.57 317.37,-191.16"/>
<polygon fill="#63b8ff" stroke="#63b8ff" points="317.87,-187.7 307.44,-189.56 316.75,-194.61 317.87,-187.7"/>
</a>
</g>
</g>
<!-- Node11 -->
<g id="Node000011" class="node">
<title>Node11</title>
<g id="a_Node000011"><a xlink:href="concepts_8hpp.html" target="_top" xlink:title=" ">
<polygon fill="white" stroke="#666666" points="905.5,-189.5 746.5,-189.5 746.5,-170.5 905.5,-170.5 905.5,-189.5"/>
<text text-anchor="middle" x="826" y="-177.5" font-family="Helvetica,sans-Serif" font-size="10.00">slick/orderbook/concepts.hpp</text>
</a>
</g>
</g>
<!-- Node10&#45;&gt;Node11 -->
<g id="edge15_Node000010_Node000011" class="edge">
<title>Node10&#45;&gt;Node11</title>
<g id="a_edge15_Node000010_Node000011"><a xlink:title=" ">
<path fill="none" stroke="#63b8ff" d="M854.55,-236.37C849.61,-226.78 841.49,-211.05 835.18,-198.8"/>
<polygon fill="#63b8ff" stroke="#63b8ff" points="838.29,-197.19 830.59,-189.91 832.06,-200.4 838.29,-197.19"/>
</a>
</g>
</g>
<!-- Node10&#45;&gt;Node14 -->
<g id="edge20_Node000010_Node000014" class="edge">
<title>Node10&#45;&gt;Node14</title>
<g id="a_edge20_Node000010_Node000014"><a xlink:title=" ">
<path fill="none" stroke="#63b8ff" d="M900.07,-236.43C940.09,-227.63 1002.43,-212.74 1055,-195 1056.44,-194.51 1057.9,-194 1059.37,-193.45"/>
<polygon fill="#63b8ff" stroke="#63b8ff" points="1060.99,-196.58 1068.99,-189.64 1058.41,-190.07 1060.99,-196.58"/>
</a>
</g>
</g>
<!-- Node10&#45;&gt;Node15 -->
<g id="edge21_Node000010_Node000015" class="edge">
<title>Node10&#45;&gt;Node15</title>
<g id="a_edge21_Node000010_Node000015"><a xlink:title=" ">
<path fill="none" stroke="#63b8ff" d="M917.39,-236.48C970.68,-228.08 1051.36,-213.77 1120,-195 1122.43,-194.34 1124.92,-193.59 1127.42,-192.8"/>
<polygon fill="#63b8ff" stroke="#63b8ff" points="1128.56,-196.11 1136.92,-189.6 1126.32,-189.48 1128.56,-196.11"/>
</a>
</g>
</g>
<!-- Node11&#45;&gt;Node2 -->
<g id="edge16_Node000011_Node000002" class="edge">
<title>Node11&#45;&gt;Node2</title>
<g id="a_edge16_Node000011_Node000002"><a xlink:title=" ">
<path fill="none" stroke="#63b8ff" d="M816.53,-170.47C795.37,-151.41 744,-105.13 717.09,-80.89"/>
<polygon fill="#63b8ff" stroke="#63b8ff" points="719.35,-78.22 709.58,-74.13 714.67,-83.42 719.35,-78.22"/>
</a>
</g>
</g>
<!-- Node11&#45;&gt;Node4 -->
<g id="edge17_Node000011_Node000004" class="edge">
<title>Node11&#45;&gt;Node4</title>
<g id="a_edge17_Node000011_Node000004"><a xlink:title=" ">
<path fill="none" stroke="#63b8ff" d="M773.8,-170.49C708.92,-159.92 598.35,-141.9 529.16,-130.63"/>
<polygon fill="#63b8ff" stroke="#63b8ff" points="529.7,-127.17 519.26,-129.02 528.57,-134.08 529.7,-127.17"/>
</a>
</g>
</g>
<!-- Node12 -->
<g id="Node000012" class="node">
<title>Node12</title>
<g id="a_Node000012"><a xlink:title=" ">
<polygon fill="#e0e0e0" stroke="#999999" points="853,-129 793,-129 793,-110 853,-110 853,-129"/>
<text text-anchor="middle" x="823" y="-117" font-family="Helvetica,sans-Serif" font-size="10.00">concepts</text>
</a>
</g>
</g>
<!-- Node11&#45;&gt;Node12 -->
<g id="edge18_Node000011_Node000012" class="edge">
<title>Node11&#45;&gt;Node12</title>
<g id="a_edge18_Node000011_Node000012"><a xlink:title=" ">
<path fill="none" stroke="#63b8ff" d="M825.56,-170.37C825.14,-162.25 824.5,-149.81 823.97,-139.39"/>
<polygon fill="#63b8ff" stroke="#63b8ff" points="827.45,-138.97 823.44,-129.17 820.46,-139.33 827.45,-138.97"/>
</a>
</g>
</g>
<!-- Node13 -->
<g id="Node000013" class="node">
<title>Node13</title>
<g id="a_Node000013"><a xlink:title=" ">
<polygon fill="#e0e0e0" stroke="#999999" points="940.5,-129 871.5,-129 871.5,-110 940.5,-110 940.5,-129"/>
<text text-anchor="middle" x="906" y="-117" font-family="Helvetica,sans-Serif" font-size="10.00">type_traits</text>
</a>
</g>
</g>
<!-- Node11&#45;&gt;Node13 -->
<g id="edge19_Node000011_Node000013" class="edge">
<title>Node11&#45;&gt;Node13</title>
<g id="a_edge19_Node000011_Node000013"><a xlink:title=" ">
<path fill="none" stroke="#63b8ff" d="M837.8,-170.37C850.45,-161.12 870.74,-146.28 885.91,-135.19"/>
<polygon fill="#63b8ff" stroke="#63b8ff" points="888.14,-137.9 894.15,-129.17 884.01,-132.24 888.14,-137.9"/>
</a>
</g>
</g>
<!-- Node16&#45;&gt;Node2 -->
<g id="edge23_Node000016_Node000002" class="edge">
<title>Node16&#45;&gt;Node2</title>
<g id="a_edge23_Node000016_Node000002"><a xlink:title=" ">
<path fill="none" stroke="#63b8ff" d="M572.53,-164.82C585.55,-154.84 603.37,-141.14 619,-129 640.2,-112.54 664.4,-93.54 680.79,-80.64"/>
<polygon fill="#63b8ff" stroke="#63b8ff" points="683.33,-83.1 689.02,-74.16 679,-77.6 683.33,-83.1"/>
</a>
</g>
</g>
<!-- Node16&#45;&gt;Node4 -->
<g id="edge24_Node000016_Node000004" class="edge">
<title>Node16&#45;&gt;Node4</title>
<g id="a_edge24_Node000016_Node000004"><a xlink:title=" ">
<path fill="none" stroke="#63b8ff" d="M532.94,-164.84C519.46,-155.77 502.01,-144.04 488.45,-134.92"/>
<polygon fill="#63b8ff" stroke="#63b8ff" points="490.03,-131.77 479.78,-129.09 486.13,-137.58 490.03,-131.77"/>
</a>
</g>
</g>
<!-- Node17&#45;&gt;Node2 -->
<g id="edge26_Node000017_Node000002" class="edge">
<title>Node17&#45;&gt;Node2</title>
<g id="a_edge26_Node000017_Node000002"><a xlink:title=" ">
<path fill="none" stroke="#63b8ff" d="M682.49,-230.91C685.89,-198.85 694.19,-120.38 698.01,-84.26"/>
<polygon fill="#63b8ff" stroke="#63b8ff" points="701.51,-84.45 699.09,-74.13 694.55,-83.71 701.51,-84.45"/>
</a>
</g>
</g>
<!-- Node17&#45;&gt;Node4 -->
<g id="edge27_Node000017_Node000004" class="edge">
<title>Node17&#45;&gt;Node4</title>
<g id="a_edge27_Node000017_Node000004"><a xlink:title=" ">
<path fill="none" stroke="#63b8ff" d="M674.67,-230.9C665.87,-212.91 648.25,-182.1 624,-165 600.28,-148.28 570.41,-137.82 543.11,-131.28"/>
<polygon fill="#63b8ff" stroke="#63b8ff" points="543.71,-127.83 533.18,-129.05 542.17,-134.66 543.71,-127.83"/>
</a>
</g>
</g>
<!-- Node17&#45;&gt;Node18 -->
<g id="edge28_Node000017_Node000018" class="edge">
<title>Node17&#45;&gt;Node18</title>
<g id="a_edge28_Node000017_Node000018"><a xlink:title=" ">
<path fill="none" stroke="#63b8ff" d="M742.15,-232.13C791.83,-221.67 861.97,-206.9 914.1,-195.93"/>
<polygon fill="#63b8ff" stroke="#63b8ff" points="914.88,-199.34 923.94,-193.85 913.44,-192.49 914.88,-199.34"/>
</a>
</g>
</g>
<!-- Node17&#45;&gt;Node21 -->
<g id="edge33_Node000017_Node000021" class="edge">
<title>Node17&#45;&gt;Node21</title>
<g id="a_edge33_Node000017_Node000021"><a xlink:title=" ">
<path fill="none" stroke="#63b8ff" d="M622.41,-230.95C581.11,-221.06 525.66,-207.77 482.35,-197.38"/>
<polygon fill="#63b8ff" stroke="#63b8ff" points="483,-193.94 472.46,-195.01 481.37,-200.75 483,-193.94"/>
</a>
</g>
</g>
<!-- Node18&#45;&gt;Node2 -->
<g id="edge29_Node000018_Node000002" class="edge">
<title>Node18&#45;&gt;Node2</title>
<g id="a_edge29_Node000018_Node000002"><a xlink:title=" ">
<path fill="none" stroke="#63b8ff" d="M1001.19,-164.84C1016.26,-149.97 1034.38,-126.51 1020,-110 989.83,-75.34 867.21,-66.82 782.83,-65.17"/>
<polygon fill="#63b8ff" stroke="#63b8ff" points="782.79,-61.67 772.73,-65.01 782.67,-68.67 782.79,-61.67"/>
</a>
</g>
</g>
<!-- Node18&#45;&gt;Node13 -->
<g id="edge32_Node000018_Node000013" class="edge">
<title>Node18&#45;&gt;Node13</title>
<g id="a_edge32_Node000018_Node000013"><a xlink:title=" ">
<path fill="none" stroke="#63b8ff" d="M965.88,-164.84C953.82,-155.91 938.29,-144.41 926.06,-135.35"/>
<polygon fill="#63b8ff" stroke="#63b8ff" points="927.96,-132.4 917.84,-129.27 923.79,-138.03 927.96,-132.4"/>
</a>
</g>
</g>
<!-- Node19 -->
<g id="Node000019" class="node">
<title>Node19</title>
<g id="a_Node000019"><a xlink:title=" ">
<polygon fill="#e0e0e0" stroke="#999999" points="1192.5,-129 1139.5,-129 1139.5,-110 1192.5,-110 1192.5,-129"/>
<text text-anchor="middle" x="1166" y="-117" font-family="Helvetica,sans-Serif" font-size="10.00">cstddef</text>
</a>
</g>
</g>
<!-- Node18&#45;&gt;Node19 -->
<g id="edge30_Node000018_Node000019" class="edge">
<title>Node18&#45;&gt;Node19</title>
<g id="a_edge30_Node000018_Node000019"><a xlink:title=" ">
<path fill="none" stroke="#63b8ff" d="M1028.35,-164.99C1059.32,-154.98 1100.5,-141.67 1129.73,-132.22"/>
<polygon fill="#63b8ff" stroke="#63b8ff" points="1131.1,-135.46 1139.53,-129.05 1128.94,-128.8 1131.1,-135.46"/>
</a>
</g>
</g>
<!-- Node20 -->
<g id="Node000020" class="node">
<title>Node20</title>
<g id="a_Node000020"><a xlink:title=" ">
<polygon fill="#e0e0e0" stroke="#999999" points="1011.5,-129 958.5,-129 958.5,-110 1011.5,-110 1011.5,-129"/>
<text text-anchor="middle" x="985" y="-117" font-family="Helvetica,sans-Serif" font-size="10.00">iterator</text>
</a>
</g>
</g>
<!-- Node18&#45;&gt;Node20 -->
<g id="edge31_Node000018_Node000020" class="edge">
<title>Node18&#45;&gt;Node20</title>
<g id="a_edge31_Node000018_Node000020"><a xlink:title=" ">
<path fill="none" stroke="#63b8ff" d="M985,-164.84C985,-157.21 985,-147.7 985,-139.45"/>
<polygon fill="#63b8ff" stroke="#63b8ff" points="988.5,-139.27 985,-129.27 981.5,-139.27 988.5,-139.27"/>
</a>
</g>
</g>
<!-- Node21&#45;&gt;Node2 -->
<g id="edge34_Node000021_Node000002" class="edge">
<title>Node21&#45;&gt;Node2</title>
<g id="a_edge34_Node000021_Node000002"><a xlink:title=" ">
<path fill="none" stroke="#63b8ff" d="M471.02,-164.96C503.75,-156.15 545.32,-143.69 581,-129 590.56,-125.06 643.54,-96.35 675.5,-78.91"/>
<polygon fill="#63b8ff" stroke="#63b8ff" points="677.19,-81.97 684.29,-74.11 673.84,-75.83 677.19,-81.97"/>
</a>
</g>
</g>
<!-- Node21&#45;&gt;Node4 -->
<g id="edge35_Node000021_Node000004" class="edge">
<title>Node21&#45;&gt;Node4</title>
<g id="a_edge35_Node000021_Node000004"><a xlink:title=" ">
<path fill="none" stroke="#63b8ff" d="M426.83,-164.84C434.52,-156.35 444.33,-145.52 452.33,-136.69"/>
<polygon fill="#63b8ff" stroke="#63b8ff" points="454.94,-139.03 459.06,-129.27 449.75,-134.33 454.94,-139.03"/>
</a>
</g>
</g>
<!-- Node22&#45;&gt;Node2 -->
<g id="edge38_Node000022_Node000002" class="edge">
<title>Node22&#45;&gt;Node2</title>
<g id="a_edge38_Node000022_Node000002"><a xlink:title=" ">
<path fill="none" stroke="#63b8ff" d="M157.05,-230.81C156.69,-213.02 158.89,-182.72 176,-165 243.02,-95.6 291.41,-129.02 386,-110 463.88,-94.34 553.71,-82.19 617.29,-74.58"/>
<polygon fill="#63b8ff" stroke="#63b8ff" points="617.74,-78.05 627.26,-73.4 616.92,-71.1 617.74,-78.05"/>
</a>
</g>
</g>
<!-- Node22&#45;&gt;Node4 -->
<g id="edge39_Node000022_Node000004" class="edge">
<title>Node22&#45;&gt;Node4</title>
<g id="a_edge39_Node000022_Node000004"><a xlink:title=" ">
<path fill="none" stroke="#63b8ff" d="M97.26,-231C51.11,-217.62 -0.16,-195.05 27,-165 50.51,-138.99 264.51,-127.44 385.17,-122.96"/>
<polygon fill="#63b8ff" stroke="#63b8ff" points="385.61,-126.45 395.48,-122.58 385.36,-119.45 385.61,-126.45"/>
</a>
</g>
</g>
<!-- Node22&#45;&gt;Node21 -->
<g id="edge40_Node000022_Node000021" class="edge">
<title>Node22&#45;&gt;Node21</title>
<g id="a_edge40_Node000022_Node000021"><a xlink:title=" ">
<path fill="none" stroke="#63b8ff" d="M214.18,-230.95C253.7,-221.08 306.71,-207.82 348.21,-197.45"/>
<polygon fill="#63b8ff" stroke="#63b8ff" points="349.1,-200.83 357.95,-195.01 347.4,-194.04 349.1,-200.83"/>
</a>
</g>
</g>
<!-- Node23 -->
<g id="Node000023" class="node">
<title>Node23</title>
<g id="a_Node000023"><a xlink:title=" ">
<polygon fill="#e0e0e0" stroke="#999999" points="129.5,-189.5 36.5,-189.5 36.5,-170.5 129.5,-170.5 129.5,-189.5"/>
<text text-anchor="middle" x="83" y="-177.5" font-family="Helvetica,sans-Serif" font-size="10.00">unordered_map</text>
</a>
</g>
</g>
<!-- Node22&#45;&gt;Node23 -->
<g id="edge41_Node000022_Node000023" class="edge">
<title>Node22&#45;&gt;Node23</title>
<g id="a_edge41_Node000022_Node000023"><a xlink:title=" ">
<path fill="none" stroke="#63b8ff" d="M141.36,-230.8C129.43,-220.62 113.39,-206.93 101.14,-196.48"/>
<polygon fill="#63b8ff" stroke="#63b8ff" points="103.24,-193.67 93.36,-189.84 98.7,-199 103.24,-193.67"/>
</a>
</g>
</g>
<!-- Node24&#45;&gt;Node2 -->
<g id="edge43_Node000024_Node000002" class="edge">
<title>Node24&#45;&gt;Node2</title>
<g id="a_edge43_Node000024_Node000002"><a xlink:title=" ">
<path fill="none" stroke="#63b8ff" d="M1274.06,-230.92C1286,-222.21 1299.42,-209.87 1306,-195 1321.28,-160.45 1331.72,-137.67 1306,-110 1271.13,-72.48 940.32,-66.28 782.72,-65.47"/>
<polygon fill="#63b8ff" stroke="#63b8ff" points="782.61,-61.97 772.59,-65.42 782.57,-68.97 782.61,-61.97"/>
</a>
</g>
</g>
<!-- Node24&#45;&gt;Node5 -->
<g id="edge45_Node000024_Node000005" class="edge">
<title>Node24&#45;&gt;Node5</title>
<g id="a_edge45_Node000024_Node000005"><a xlink:title=" ">
<path fill="none" stroke="#63b8ff" d="M1253.98,-230.85C1256.78,-214.42 1259.41,-186.76 1251,-165 1239.09,-134.19 1230.79,-124.29 1201,-110 1083.97,-53.85 746.94,-88.9 618,-74 613.17,-73.44 608.1,-72.73 603.11,-71.95"/>
<polygon fill="#63b8ff" stroke="#63b8ff" points="603.54,-68.48 593.1,-70.31 602.4,-75.38 603.54,-68.48"/>
</a>
</g>
</g>
<!-- Node24&#45;&gt;Node13 -->
<g id="edge48_Node000024_Node000013" class="edge">
<title>Node24&#45;&gt;Node13</title>
<g id="a_edge48_Node000024_Node000013"><a xlink:title=" ">
<path fill="none" stroke="#63b8ff" d="M1245.66,-230.72C1237.95,-212.25 1221.84,-180.59 1197,-165 1105.43,-107.52 1061.39,-145.43 950.9,-129.14"/>
<polygon fill="#63b8ff" stroke="#63b8ff" points="951.13,-125.64 940.71,-127.52 950.03,-132.55 951.13,-125.64"/>
</a>
</g>
</g>
<!-- Node24&#45;&gt;Node14 -->
<g id="edge49_Node000024_Node000014" class="edge">
<title>Node24&#45;&gt;Node14</title>
<g id="a_edge49_Node000024_Node000014"><a xlink:title=" ">
<path fill="none" stroke="#63b8ff" d="M1213.32,-230.9C1187.3,-221.06 1151.94,-207.51 1121,-195 1119.8,-194.51 1118.58,-194.02 1117.34,-193.51"/>
<polygon fill="#63b8ff" stroke="#63b8ff" points="1118.42,-190.17 1107.85,-189.55 1115.73,-196.63 1118.42,-190.17"/>
</a>
</g>
</g>
<!-- Node24&#45;&gt;Node15 -->
<g id="edge46_Node000024_Node000015" class="edge">
<title>Node24&#45;&gt;Node15</title>
<g id="a_edge46_Node000024_Node000015"><a xlink:title=" ">
<path fill="none" stroke="#63b8ff" d="M1230.58,-230.8C1215.45,-220.27 1194.9,-205.97 1179.7,-195.4"/>
<polygon fill="#63b8ff" stroke="#63b8ff" points="1181.65,-192.5 1171.45,-189.66 1177.66,-198.24 1181.65,-192.5"/>
</a>
</g>
</g>
<!-- Node24&#45;&gt;Node19 -->
<g id="edge44_Node000024_Node000019" class="edge">
<title>Node24&#45;&gt;Node19</title>
<g id="a_edge44_Node000024_Node000019"><a xlink:title=" ">
<path fill="none" stroke="#63b8ff" d="M1250.22,-230.76C1248.66,-213.72 1243.98,-185.01 1230,-165 1220.89,-151.97 1206.67,-141.53 1193.94,-134.04"/>
<polygon fill="#63b8ff" stroke="#63b8ff" points="1195.47,-130.89 1185.03,-129.12 1192.09,-137.02 1195.47,-130.89"/>
</a>
</g>
</g>
<!-- Node25 -->
<g id="Node000025" class="node">
<title>Node25</title>
<g id="a_Node000025"><a xlink:title=" ">
<polygon fill="#e0e0e0" stroke="#999999" points="1395.5,-189.5 1358.5,-189.5 1358.5,-170.5 1395.5,-170.5 1395.5,-189.5"/>
<text text-anchor="middle" x="1377" y="-177.5" font-family="Helvetica,sans-Serif" font-size="10.00">new</text>
</a>
</g>
</g>
<!-- Node24&#45;&gt;Node25 -->
<g id="edge47_Node000024_Node000025" class="edge">
<title>Node24&#45;&gt;Node25</title>
<g id="a_edge47_Node000024_Node000025"><a xlink:title=" ">
<path fill="none" stroke="#63b8ff" d="M1278.65,-230.95C1300.26,-219.98 1330.08,-204.83 1351.2,-194.11"/>
<polygon fill="#63b8ff" stroke="#63b8ff" points="1352.9,-197.17 1360.23,-189.52 1349.73,-190.93 1352.9,-197.17"/>
</a>
</g>
</g>
<!-- Node26&#45;&gt;Node2 -->
<g id="edge51_Node000026_Node000002" class="edge">
<title>Node26&#45;&gt;Node2</title>
<g id="a_edge51_Node000026_Node000002"><a xlink:title=" ">
<path fill="none" stroke="#63b8ff" d="M1483.86,-230.59C1476.65,-198.92 1457.98,-124.92 1438,-110 1386.55,-71.58 964.67,-66.03 782.86,-65.44"/>
<polygon fill="#63b8ff" stroke="#63b8ff" points="782.82,-61.94 772.81,-65.41 782.8,-68.94 782.82,-61.94"/>
</a>
</g>
</g>
<!-- Node27 -->
<g id="Node000027" class="node">
<title>Node27</title>
<g id="a_Node000027"><a xlink:title=" ">
<polygon fill="#e0e0e0" stroke="#999999" points="1543.5,-189.5 1490.5,-189.5 1490.5,-170.5 1543.5,-170.5 1543.5,-189.5"/>
<text text-anchor="middle" x="1517" y="-177.5" font-family="Helvetica,sans-Serif" font-size="10.00">version</text>
</a>
</g>
</g>
<!-- Node26&#45;&gt;Node27 -->
<g id="edge52_Node000026_Node000027" class="edge">
<title>Node26&#45;&gt;Node27</title>
<g id="a_edge52_Node000026_Node000027"><a xlink:title=" ">
<path fill="none" stroke="#63b8ff" d="M1493.66,-230.8C1498.06,-221.41 1503.87,-209.02 1508.59,-198.95"/>
<polygon fill="#63b8ff" stroke="#63b8ff" points="1511.78,-200.38 1512.85,-189.84 1505.44,-197.41 1511.78,-200.38"/>
</a>
</g>
</g>
<!-- Node28 -->
<g id="Node000028" class="node">
<title>Node28</title>
<g id="a_Node000028"><a xlink:title=" ">
<polygon fill="#e0e0e0" stroke="#999999" points="1600,-189.5 1562,-189.5 1562,-170.5 1600,-170.5 1600,-189.5"/>
<text text-anchor="middle" x="1581" y="-177.5" font-family="Helvetica,sans-Serif" font-size="10.00">map</text>
</a>
</g>
</g>
<!-- Node26&#45;&gt;Node28 -->
<g id="edge53_Node000026_Node000028" class="edge">
<title>Node26&#45;&gt;Node28</title>
<g id="a_edge53_Node000026_Node000028"><a xlink:title=" ">
<path fill="none" stroke="#63b8ff" d="M1507.86,-230.8C1523.32,-220.27 1544.32,-205.97 1559.85,-195.4"/>
<polygon fill="#63b8ff" stroke="#63b8ff" points="1561.99,-198.18 1568.28,-189.66 1558.05,-192.39 1561.99,-198.18"/>
</a>
</g>
</g>
</g>
</svg>

<g id="navigator" transform="translate(0 0)" fill="#404254">
  <rect fill="#f2f5e9" fill-opacity="0.5" stroke="#606060" stroke-width=".5" x="0" y="0" width="60" height="60"/>
  <use id="zoomplus" xlink:href="#zoomPlus" x="17" y="9" onmousedown="handleZoom(evt,'in')"/>
  <use id="zoomminus" xlink:href="#zoomMin" x="42" y="9" onmousedown="handleZoom(evt,'out')"/>
  <use id="reset" xlink:href="#resetDef" x="30" y="36" onmousedown="handleReset()"/>
   <use id="arrowup" xlink:href="#arrowUp" x="0" y="0" onmousedown="handlePan(0,-1)"/>
  <use id="arrowright" xlink:href="#arrowRight" x="0" y="0" onmousedown="handlePan(1,0)"/>
  <use id="arrowdown" xlink:href="#arrowDown" x="0" y="0" onmousedown="handlePan(0,1)"/>
  <use id="arrowleft" xlink:href="#arrowLeft" x="0" y="0" onmousedown="handlePan(-1,0)"/>
</g>
<svg viewBox="0 0 15 15" width="100%" height="30px" preserveAspectRatio="xMaxYMin meet">
 <g id="arrow_out" transform="scale(0.3 0.3)">
  <a xlink:href="orderbook__l3_8hpp__incl_org.svg" target="_base">
   <rect id="button" ry="5" rx="5" y="6" x="6" height="38" width="38"
        fill="#f2f5e9" fill-opacity="0.5" stroke="#606060" stroke-width="1.0"/>
   <path id="arrow"
     d="M 11.500037,31.436501 C 11.940474,20.09759 22.043105,11.32322 32.158766,21.979434 L 37.068811,17.246167 C 37.068811,17.246167 37.088388,32 37.088388,32 L 22.160133,31.978069 C 22.160133,31.978069 26.997745,27.140456 26.997745,27.140456 C 18.528582,18.264221 13.291696,25.230495 11.500037,31.436501 z"
     style="fill:#404040;"/>
  </a>
 </g>
</svg>

<style type='text/css'>
<![CDATA[
[data-mouse-over-selected='false'] { opacity: 0.7; }
[data-mouse-over-selected='true']  { opacity: 1.0; }
]]>
</style>
<script type="application/ecmascript"><![CDATA[
document.addEventListener('DOMContentLoaded', (event) => {
  highlightEdges();
  highlightAdjacentNodes();
});
]]></script>
</svg>
