<?xml version="1.0" encoding="UTF-8" standalone="no"?>
<!DOCTYPE svg PUBLIC "-//W3C//DTD SVG 1.1//EN"
 "http://www.w3.org/Graphics/SVG/1.1/DTD/svg11.dtd">
<!-- Generated by graphviz version 2.43.0 (0)
 -->
<!-- Title: slick/orderbook/orderbook_l2.hpp Pages: 1 -->
<!--zoomable 335 -->

<svg id="main" version="1.1" xmlns="http://www.w3.org/2000/svg" xmlns:xlink="http://www.w3.org/1999/xlink" xml:space="preserve" onload="init(evt)">
<style type="text/css"><![CDATA[
.node, .edge {opacity: 0.7;}
.node.selected, .edge.selected {opacity: 1;}
.edge:hover path { stroke: red; }
.edge:hover polygon { stroke: red; fill: red; }
]]></style>

<defs>
  <circle id="rim" cx="0" cy="0" r="7"/>
  <circle id="rim2" cx="0" cy="0" r="3.5"/>
  <g id="zoomPlus">
    <use xlink:href="#rim" fill="#404040"><set attributeName="fill" to="#808080" begin="zoomplus.mouseover" end="zoomplus.mouseout"/></use>
    <path d="M-4,0h8M0,-4v8" fill="none" stroke="white" stroke-width="1.5" pointer-events="none"/>
  </g>
  <g id="zoomMin">
    <use xlink:href="#rim" fill="#404040"><set attributeName="fill" to="#808080" begin="zoomminus.mouseover" end="zoomminus.mouseout"/></use>
    <path d="M-4,0h8" fill="none" stroke="white" stroke-width="1.5" pointer-events="none"/>
  </g>
  <g id="arrowUp" transform="translate(30 24)">
    <use xlink:href="#rim"/>
    <path pointer-events="none" fill="none" stroke="white" stroke-width="1.5" d="M0,-3.0v7 M-2.5,-0.5L0,-3.0L2.5,-0.5"/>
  </g>
  <g id="arrowRight" transform="rotate(90) translate(36 -43)">
    <use xlink:href="#rim"/>
    <path pointer-events="none" fill="none" stroke="white" stroke-width="1.5" d="M0,-3.0v7 M-2.5,-0.5L0,-3.0L2.5,-0.5"/>
  </g>
  <g id="arrowDown" transform="rotate(180) translate(-30 -48)">
    <use xlink:href="#rim"/>
    <path pointer-events="none" fill="none" stroke="white" stroke-width="1.5" d="M0,-3.0v7 M-2.5,-0.5L0,-3.0L2.5,-0.5"/>
  </g>
  <g id="arrowLeft" transform="rotate(270) translate(-36 17)">
    <use xlink:href="#rim"/>
    <path pointer-events="none" fill="none" stroke="white" stroke-width="1.5" d="M0,-3.0v7 M-2.5,-0.5L0,-3.0L2.5,-0.5"/>
  </g>
  <g id="resetDef">
    <use xlink:href="#rim2" fill="#404040"><set attributeName="fill" to="#808080" begin="reset.mouseover" end="reset.mouseout"/></use>
  </g>
</defs>
<script type="application/ecmascript">
var viewWidth = 1083;
var viewHeight = 335;
var sectionId = 'dynsection-0';
</script>
<script type="application/ecmascript" xlink:href="svg.min.js"/>
<svg id="graph" class="graph">
<g id="viewport">
<title>slick/orderbook/orderbook_l2.hpp</title>
<!-- Node1 -->
<g id="Node000001" class="node">
<title>Node1</title>
<g id="a_Node000001"><a xlink:title=" ">
<polygon fill="#999999" stroke="#666666" points="632,-327 488,-327 488,-297 632,-297 632,-327"/>
<text text-anchor="start" x="496" y="-315" font-family="Helvetica,sans-Serif" font-size="10.00">slick/orderbook/orderbook</text>
<text text-anchor="middle" x="560" y="-304" font-family="Helvetica,sans-Serif" font-size="10.00">_l2.hpp</text>
</a>
</g>
</g>
<!-- Node2 -->
<g id="Node000002" class="node">
<title>Node2</title>
<g id="a_Node000002"><a xlink:href="config_8hpp.html" target="_top" xlink:title=" ">
<polygon fill="white" stroke="#666666" points="676.5,-74 531.5,-74 531.5,-55 676.5,-55 676.5,-74"/>
<text text-anchor="middle" x="604" y="-62" font-family="Helvetica,sans-Serif" font-size="10.00">slick/orderbook/config.hpp</text>
</a>
</g>
</g>
<!-- Node1&#45;&gt;Node2 -->
<g id="edge1_Node000001_Node000002" class="edge">
<title>Node1&#45;&gt;Node2</title>
<g id="a_edge1_Node000001_Node000002"><a xlink:title=" ">
<path fill="none" stroke="#63b8ff" d="M632.16,-305.6C693.35,-299.44 782.75,-286.69 857,-261 914.89,-240.97 946.73,-247.68 978,-195 1027.6,-111.44 894.95,-124.27 847,-110 793.08,-93.95 730.62,-82.66 682.53,-75.48"/>
<polygon fill="#63b8ff" stroke="#63b8ff" points="682.89,-71.99 672.49,-74 681.88,-78.92 682.89,-71.99"/>
</a>
</g>
</g>
<!-- Node4 -->
<g id="Node000004" class="node">
<title>Node4</title>
<g id="a_Node000004"><a xlink:href="types_8hpp.html" target="_top" xlink:title=" ">
<polygon fill="white" stroke="#666666" points="176.5,-129 33.5,-129 33.5,-110 176.5,-110 176.5,-129"/>
<text text-anchor="middle" x="105" y="-117" font-family="Helvetica,sans-Serif" font-size="10.00">slick/orderbook/types.hpp</text>
</a>
</g>
</g>
<!-- Node1&#45;&gt;Node4 -->
<g id="edge3_Node000001_Node000004" class="edge">
<title>Node1&#45;&gt;Node4</title>
<g id="a_edge3_Node000001_Node000004"><a xlink:title=" ">
<path fill="none" stroke="#63b8ff" d="M487.97,-309.36C407.39,-305.83 273.75,-294.86 164,-261 102.46,-242.01 68.6,-249.94 35,-195 28.04,-183.63 28.58,-176.69 35,-165 42.77,-150.85 57.17,-140.56 70.89,-133.46"/>
<polygon fill="#63b8ff" stroke="#63b8ff" points="72.66,-136.49 80.19,-129.05 69.66,-130.17 72.66,-136.49"/>
</a>
</g>
</g>
<!-- Node8 -->
<g id="Node000008" class="node">
<title>Node8</title>
<g id="a_Node000008"><a xlink:href="events_8hpp.html" target="_top" xlink:title=" ">
<polygon fill="white" stroke="#666666" points="678.5,-189.5 529.5,-189.5 529.5,-170.5 678.5,-170.5 678.5,-189.5"/>
<text text-anchor="middle" x="604" y="-177.5" font-family="Helvetica,sans-Serif" font-size="10.00">slick/orderbook/events.hpp</text>
</a>
</g>
</g>
<!-- Node1&#45;&gt;Node8 -->
<g id="edge8_Node000001_Node000008" class="edge">
<title>Node1&#45;&gt;Node8</title>
<g id="a_edge8_Node000001_Node000008"><a xlink:title=" ">
<path fill="none" stroke="#63b8ff" d="M564.79,-296.84C572.82,-273.13 588.97,-225.41 597.83,-199.23"/>
<polygon fill="#63b8ff" stroke="#63b8ff" points="601.15,-200.34 601.04,-189.75 594.52,-198.1 601.15,-200.34"/>
</a>
</g>
</g>
<!-- Node9 -->
<g id="Node000009" class="node">
<title>Node9</title>
<g id="a_Node000009"><a xlink:title=" ">
<polygon fill="#e0e0e0" stroke="#999999" points="516,-129 474,-129 474,-110 516,-110 516,-129"/>
<text text-anchor="middle" x="495" y="-117" font-family="Helvetica,sans-Serif" font-size="10.00">array</text>
</a>
</g>
</g>
<!-- Node1&#45;&gt;Node9 -->
<g id="edge34_Node000001_Node000009" class="edge">
<title>Node1&#45;&gt;Node9</title>
<g id="a_edge34_Node000001_Node000009"><a xlink:title=" ">
<path fill="none" stroke="#63b8ff" d="M540.31,-296.83C515.04,-277.28 472.5,-239.36 456,-195 451.35,-182.5 451.31,-177.48 456,-165 460.18,-153.89 468.52,-143.75 476.43,-135.96"/>
<polygon fill="#63b8ff" stroke="#63b8ff" points="479.01,-138.35 484.01,-129.01 474.28,-133.19 479.01,-138.35"/>
</a>
</g>
</g>
<!-- Node10 -->
<g id="Node000010" class="node">
<title>Node10</title>
<g id="a_Node000010"><a xlink:href="observer_8hpp.html" target="_top" xlink:title=" ">
<polygon fill="white" stroke="#666666" points="808,-255.5 650,-255.5 650,-236.5 808,-236.5 808,-255.5"/>
<text text-anchor="middle" x="729" y="-243.5" font-family="Helvetica,sans-Serif" font-size="10.00">slick/orderbook/observer.hpp</text>
</a>
</g>
</g>
<!-- Node1&#45;&gt;Node10 -->
<g id="edge12_Node000001_Node000010" class="edge">
<title>Node1&#45;&gt;Node10</title>
<g id="a_edge12_Node000001_Node000010"><a xlink:title=" ">
<path fill="none" stroke="#63b8ff" d="M597.09,-296.95C626.99,-285.63 668.6,-269.88 697.04,-259.1"/>
<polygon fill="#63b8ff" stroke="#63b8ff" points="698.4,-262.33 706.51,-255.52 695.92,-255.79 698.4,-262.33"/>
</a>
</g>
</g>
<!-- Node14 -->
<g id="Node000014" class="node">
<title>Node14</title>
<g id="a_Node000014"><a xlink:title=" ">
<polygon fill="#e0e0e0" stroke="#999999" points="511.5,-189.5 464.5,-189.5 464.5,-170.5 511.5,-170.5 511.5,-189.5"/>
<text text-anchor="middle" x="488" y="-177.5" font-family="Helvetica,sans-Serif" font-size="10.00">vector</text>
</a>
</g>
</g>
<!-- Node1&#45;&gt;Node14 -->
<g id="edge33_Node000001_Node000014" class="edge">
<title>Node1&#45;&gt;Node14</title>
<g id="a_edge33_Node000001_Node000014"><a xlink:title=" ">
<path fill="none" stroke="#63b8ff" d="M552.16,-296.84C538.91,-272.92 512.13,-224.56 497.71,-198.53"/>
<polygon fill="#63b8ff" stroke="#63b8ff" points="500.75,-196.8 492.85,-189.75 494.63,-200.19 500.75,-196.8"/>
</a>
</g>
</g>
<!-- Node15 -->
<g id="Node000015" class="node">
<title>Node15</title>
<g id="a_Node000015"><a xlink:title=" ">
<polygon fill="#e0e0e0" stroke="#999999" points="969,-189.5 911,-189.5 911,-170.5 969,-170.5 969,-189.5"/>
<text text-anchor="middle" x="940" y="-177.5" font-family="Helvetica,sans-Serif" font-size="10.00">memory</text>
</a>
</g>
</g>
<!-- Node1&#45;&gt;Node15 -->
<g id="edge32_Node000001_Node000015" class="edge">
<title>Node1&#45;&gt;Node15</title>
<g id="a_edge32_Node000001_Node000015"><a xlink:title=" ">
<path fill="none" stroke="#63b8ff" d="M632.18,-304.45C684.89,-297.9 757.27,-285.16 817,-261 857.62,-244.57 899.19,-214.1 922.09,-195.87"/>
<polygon fill="#63b8ff" stroke="#63b8ff" points="924.34,-198.55 929.91,-189.54 919.94,-193.11 924.34,-198.55"/>
</a>
</g>
</g>
<!-- Node16 -->
<g id="Node000016" class="node">
<title>Node16</title>
<g id="a_Node000016"><a xlink:href="price__level__l2_8hpp.html" target="_top" xlink:title=" ">
<polygon fill="white" stroke="#666666" points="166,-195 44,-195 44,-165 166,-165 166,-195"/>
<text text-anchor="start" x="52" y="-183" font-family="Helvetica,sans-Serif" font-size="10.00">slick/orderbook/detail</text>
<text text-anchor="middle" x="105" y="-172" font-family="Helvetica,sans-Serif" font-size="10.00">/price_level_l2.hpp</text>
</a>
</g>
</g>
<!-- Node1&#45;&gt;Node16 -->
<g id="edge22_Node000001_Node000016" class="edge">
<title>Node1&#45;&gt;Node16</title>
<g id="a_edge22_Node000001_Node000016"><a xlink:title=" ">
<path fill="none" stroke="#63b8ff" d="M487.69,-309.66C417.57,-306.22 309.27,-295.18 222,-261 186.29,-247.01 150.69,-220.4 128.31,-201.73"/>
<polygon fill="#63b8ff" stroke="#63b8ff" points="130.57,-199.05 120.68,-195.24 126.04,-204.39 130.57,-199.05"/>
</a>
</g>
</g>
<!-- Node17 -->
<g id="Node000017" class="node">
<title>Node17</title>
<g id="a_Node000017"><a xlink:href="level__container_8hpp.html" target="_top" xlink:title=" ">
<polygon fill="white" stroke="#666666" points="353,-261 231,-261 231,-231 353,-231 353,-261"/>
<text text-anchor="start" x="239" y="-249" font-family="Helvetica,sans-Serif" font-size="10.00">slick/orderbook/detail</text>
<text text-anchor="middle" x="292" y="-238" font-family="Helvetica,sans-Serif" font-size="10.00">/level_container.hpp</text>
</a>
</g>
</g>
<!-- Node1&#45;&gt;Node17 -->
<g id="edge25_Node000001_Node000017" class="edge">
<title>Node1&#45;&gt;Node17</title>
<g id="a_edge25_Node000001_Node000017"><a xlink:title=" ">
<path fill="none" stroke="#63b8ff" d="M501.19,-296.95C459.73,-287.06 404.08,-273.77 360.6,-263.38"/>
<polygon fill="#63b8ff" stroke="#63b8ff" points="361.22,-259.93 350.68,-261.01 359.59,-266.74 361.22,-259.93"/>
</a>
</g>
</g>
<!-- Node20 -->
<g id="Node000020" class="node">
<title>Node20</title>
<g id="a_Node000020"><a xlink:title=" ">
<polygon fill="#e0e0e0" stroke="#999999" points="1075,-255.5 1025,-255.5 1025,-236.5 1075,-236.5 1075,-255.5"/>
<text text-anchor="middle" x="1050" y="-243.5" font-family="Helvetica,sans-Serif" font-size="10.00">atomic</text>
</a>
</g>
</g>
<!-- Node1&#45;&gt;Node20 -->
<g id="edge35_Node000001_Node000020" class="edge">
<title>Node1&#45;&gt;Node20</title>
<g id="a_edge35_Node000001_Node000020"><a xlink:title=" ">
<path fill="none" stroke="#63b8ff" d="M632.34,-308.19C722.16,-303.52 879.57,-291.43 1011,-261 1013.67,-260.38 1016.4,-259.64 1019.13,-258.82"/>
<polygon fill="#63b8ff" stroke="#63b8ff" points="1020.42,-262.08 1028.81,-255.62 1018.22,-255.44 1020.42,-262.08"/>
</a>
</g>
</g>
<!-- Node3 -->
<g id="Node000003" class="node">
<title>Node3</title>
<g id="a_Node000003"><a xlink:title=" ">
<polygon fill="#e0e0e0" stroke="#999999" points="630,-19 578,-19 578,0 630,0 630,-19"/>
<text text-anchor="middle" x="604" y="-7" font-family="Helvetica,sans-Serif" font-size="10.00">cassert</text>
</a>
</g>
</g>
<!-- Node2&#45;&gt;Node3 -->
<g id="edge2_Node000002_Node000003" class="edge">
<title>Node2&#45;&gt;Node3</title>
<g id="a_edge2_Node000002_Node000003"><a xlink:title=" ">
<path fill="none" stroke="#63b8ff" d="M604,-54.75C604,-47.8 604,-37.85 604,-29.13"/>
<polygon fill="#63b8ff" stroke="#63b8ff" points="607.5,-29.09 604,-19.09 600.5,-29.09 607.5,-29.09"/>
</a>
</g>
</g>
<!-- Node4&#45;&gt;Node2 -->
<g id="edge4_Node000004_Node000002" class="edge">
<title>Node4&#45;&gt;Node2</title>
<g id="a_edge4_Node000004_Node000002"><a xlink:title=" ">
<path fill="none" stroke="#63b8ff" d="M176.76,-110.88C267.93,-101.2 424.95,-84.52 521.12,-74.3"/>
<polygon fill="#63b8ff" stroke="#63b8ff" points="521.53,-77.78 531.1,-73.24 520.79,-70.82 521.53,-77.78"/>
</a>
</g>
</g>
<!-- Node5 -->
<g id="Node000005" class="node">
<title>Node5</title>
<g id="a_Node000005"><a xlink:title=" ">
<polygon fill="#e0e0e0" stroke="#999999" points="50,-74 0,-74 0,-55 50,-55 50,-74"/>
<text text-anchor="middle" x="25" y="-62" font-family="Helvetica,sans-Serif" font-size="10.00">cstdint</text>
</a>
</g>
</g>
<!-- Node4&#45;&gt;Node5 -->
<g id="edge5_Node000004_Node000005" class="edge">
<title>Node4&#45;&gt;Node5</title>
<g id="a_edge5_Node000004_Node000005"><a xlink:title=" ">
<path fill="none" stroke="#63b8ff" d="M92.15,-109.98C79.86,-101.84 61.09,-89.41 46.52,-79.76"/>
<polygon fill="#63b8ff" stroke="#63b8ff" points="48.36,-76.78 38.09,-74.17 44.49,-82.61 48.36,-76.78"/>
</a>
</g>
</g>
<!-- Node6 -->
<g id="Node000006" class="node">
<title>Node6</title>
<g id="a_Node000006"><a xlink:title=" ">
<polygon fill="#e0e0e0" stroke="#999999" points="141.5,-74 68.5,-74 68.5,-55 141.5,-55 141.5,-74"/>
<text text-anchor="middle" x="105" y="-62" font-family="Helvetica,sans-Serif" font-size="10.00">string_view</text>
</a>
</g>
</g>
<!-- Node4&#45;&gt;Node6 -->
<g id="edge6_Node000004_Node000006" class="edge">
<title>Node4&#45;&gt;Node6</title>
<g id="a_edge6_Node000004_Node000006"><a xlink:title=" ">
<path fill="none" stroke="#63b8ff" d="M105,-109.75C105,-102.8 105,-92.85 105,-84.13"/>
<polygon fill="#63b8ff" stroke="#63b8ff" points="108.5,-84.09 105,-74.09 101.5,-84.09 108.5,-84.09"/>
</a>
</g>
</g>
<!-- Node7 -->
<g id="Node000007" class="node">
<title>Node7</title>
<g id="a_Node000007"><a xlink:title=" ">
<polygon fill="#e0e0e0" stroke="#999999" points="204,-74 160,-74 160,-55 204,-55 204,-74"/>
<text text-anchor="middle" x="182" y="-62" font-family="Helvetica,sans-Serif" font-size="10.00">limits</text>
</a>
</g>
</g>
<!-- Node4&#45;&gt;Node7 -->
<g id="edge7_Node000004_Node000007" class="edge">
<title>Node4&#45;&gt;Node7</title>
<g id="a_edge7_Node000004_Node000007"><a xlink:title=" ">
<path fill="none" stroke="#63b8ff" d="M117.37,-109.98C129.09,-101.92 146.92,-89.65 160.89,-80.03"/>
<polygon fill="#63b8ff" stroke="#63b8ff" points="163.15,-82.72 169.4,-74.17 159.18,-76.96 163.15,-82.72"/>
</a>
</g>
</g>
<!-- Node8&#45;&gt;Node2 -->
<g id="edge9_Node000008_Node000002" class="edge">
<title>Node8&#45;&gt;Node2</title>
<g id="a_edge9_Node000008_Node000002"><a xlink:title=" ">
<path fill="none" stroke="#63b8ff" d="M604,-170.47C604,-152.23 604,-109.07 604,-84.14"/>
<polygon fill="#63b8ff" stroke="#63b8ff" points="607.5,-84.13 604,-74.13 600.5,-84.13 607.5,-84.13"/>
</a>
</g>
</g>
<!-- Node8&#45;&gt;Node4 -->
<g id="edge10_Node000008_Node000004" class="edge">
<title>Node8&#45;&gt;Node4</title>
<g id="a_edge10_Node000008_Node000004"><a xlink:title=" ">
<path fill="none" stroke="#63b8ff" d="M556.24,-170.44C544.72,-168.51 532.44,-166.57 521,-165 405.18,-149.05 270.55,-135.57 186.55,-127.75"/>
<polygon fill="#63b8ff" stroke="#63b8ff" points="186.84,-124.26 176.56,-126.83 186.2,-131.23 186.84,-124.26"/>
</a>
</g>
</g>
<!-- Node8&#45;&gt;Node9 -->
<g id="edge11_Node000008_Node000009" class="edge">
<title>Node8&#45;&gt;Node9</title>
<g id="a_edge11_Node000008_Node000009"><a xlink:title=" ">
<path fill="none" stroke="#63b8ff" d="M587.92,-170.37C570.05,-160.78 540.96,-145.17 520.09,-133.97"/>
<polygon fill="#63b8ff" stroke="#63b8ff" points="521.62,-130.81 511.15,-129.17 518.31,-136.98 521.62,-130.81"/>
</a>
</g>
</g>
<!-- Node10&#45;&gt;Node2 -->
<g id="edge13_Node000010_Node000002" class="edge">
<title>Node10&#45;&gt;Node2</title>
<g id="a_edge13_Node000010_Node000002"><a xlink:title=" ">
<path fill="none" stroke="#63b8ff" d="M765.83,-236.49C801.98,-227.29 853.34,-211.71 865,-195 872.63,-184.07 869.41,-177.58 865,-165 840.69,-95.69 753.77,-73.56 686.84,-67.05"/>
<polygon fill="#63b8ff" stroke="#63b8ff" points="686.97,-63.55 676.71,-66.17 686.36,-70.52 686.97,-63.55"/>
</a>
</g>
</g>
<!-- Node10&#45;&gt;Node8 -->
<g id="edge14_Node000010_Node000008" class="edge">
<title>Node10&#45;&gt;Node8</title>
<g id="a_edge14_Node000010_Node000008"><a xlink:title=" ">
<path fill="none" stroke="#63b8ff" d="M712.14,-236.37C691.08,-225.59 654.82,-207.02 630.14,-194.38"/>
<polygon fill="#63b8ff" stroke="#63b8ff" points="631.49,-191.14 620.99,-189.7 628.3,-197.37 631.49,-191.14"/>
</a>
</g>
</g>
<!-- Node11 -->
<g id="Node000011" class="node">
<title>Node11</title>
<g id="a_Node000011"><a xlink:href="concepts_8hpp.html" target="_top" xlink:title=" ">
<polygon fill="white" stroke="#666666" points="855.5,-189.5 696.5,-189.5 696.5,-170.5 855.5,-170.5 855.5,-189.5"/>
<text text-anchor="middle" x="776" y="-177.5" font-family="Helvetica,sans-Serif" font-size="10.00">slick/orderbook/concepts.hpp</text>
</a>
</g>
</g>
<!-- Node10&#45;&gt;Node11 -->
<g id="edge15_Node000010_Node000011" class="edge">
<title>Node10&#45;&gt;Node11</title>
<g id="a_edge15_Node000010_Node000011"><a xlink:title=" ">
<path fill="none" stroke="#63b8ff" d="M735.34,-236.37C742.52,-226.59 754.39,-210.42 763.46,-198.08"/>
<polygon fill="#63b8ff" stroke="#63b8ff" points="766.36,-200.04 769.46,-189.91 760.72,-195.89 766.36,-200.04"/>
</a>
</g>
</g>
<!-- Node10&#45;&gt;Node14 -->
<g id="edge20_Node000010_Node000014" class="edge">
<title>Node10&#45;&gt;Node14</title>
<g id="a_edge20_Node000010_Node000014"><a xlink:title=" ">
<path fill="none" stroke="#63b8ff" d="M684.18,-236.46C641.64,-227.84 576.2,-213.2 521,-195 519.37,-194.46 517.72,-193.88 516.05,-193.27"/>
<polygon fill="#63b8ff" stroke="#63b8ff" points="517.23,-189.97 506.64,-189.54 514.65,-196.48 517.23,-189.97"/>
</a>
</g>
</g>
<!-- Node10&#45;&gt;Node15 -->
<g id="edge21_Node000010_Node000015" class="edge">
<title>Node10&#45;&gt;Node15</title>
<g id="a_edge21_Node000010_Node000015"><a xlink:title=" ">
<path fill="none" stroke="#63b8ff" d="M758.51,-236.47C792.11,-226.69 848.63,-210.07 897,-195 899.43,-194.24 901.93,-193.46 904.44,-192.65"/>
<polygon fill="#63b8ff" stroke="#63b8ff" points="905.66,-195.94 914.11,-189.55 903.52,-189.27 905.66,-195.94"/>
</a>
</g>
</g>
<!-- Node11&#45;&gt;Node2 -->
<g id="edge16_Node000011_Node000002" class="edge">
<title>Node11&#45;&gt;Node2</title>
<g id="a_edge16_Node000011_Node000002"><a xlink:title=" ">
<path fill="none" stroke="#63b8ff" d="M785.14,-170.12C798.44,-156.13 819.97,-128.64 805,-110 789.93,-91.23 735.06,-79.89 686.45,-73.36"/>
<polygon fill="#63b8ff" stroke="#63b8ff" points="686.87,-69.88 676.5,-72.08 685.97,-76.83 686.87,-69.88"/>
</a>
</g>
</g>
<!-- Node11&#45;&gt;Node4 -->
<g id="edge17_Node000011_Node000004" class="edge">
<title>Node11&#45;&gt;Node4</title>
<g id="a_edge17_Node000011_Node000004"><a xlink:title=" ">
<path fill="none" stroke="#63b8ff" d="M726.76,-170.44C714.16,-168.45 700.6,-166.48 688,-165 509.83,-144.06 299.8,-130.83 186.82,-124.64"/>
<polygon fill="#63b8ff" stroke="#63b8ff" points="186.71,-121.12 176.53,-124.08 186.33,-128.11 186.71,-121.12"/>
</a>
</g>
</g>
<!-- Node12 -->
<g id="Node000012" class="node">
<title>Node12</title>
<g id="a_Node000012"><a xlink:title=" ">
<polygon fill="#e0e0e0" stroke="#999999" points="708,-129 648,-129 648,-110 708,-110 708,-129"/>
<text text-anchor="middle" x="678" y="-117" font-family="Helvetica,sans-Serif" font-size="10.00">concepts</text>
</a>
</g>
</g>
<!-- Node11&#45;&gt;Node12 -->
<g id="edge18_Node000011_Node000012" class="edge">
<title>Node11&#45;&gt;Node12</title>
<g id="a_edge18_Node000011_Node000012"><a xlink:title=" ">
<path fill="none" stroke="#63b8ff" d="M761.54,-170.37C745.69,-160.91 720.03,-145.59 701.32,-134.42"/>
<polygon fill="#63b8ff" stroke="#63b8ff" points="702.9,-131.29 692.52,-129.17 699.31,-137.3 702.9,-131.29"/>
</a>
</g>
</g>
<!-- Node13 -->
<g id="Node000013" class="node">
<title>Node13</title>
<g id="a_Node000013"><a xlink:title=" ">
<polygon fill="#e0e0e0" stroke="#999999" points="795.5,-129 726.5,-129 726.5,-110 795.5,-110 795.5,-129"/>
<text text-anchor="middle" x="761" y="-117" font-family="Helvetica,sans-Serif" font-size="10.00">type_traits</text>
</a>
</g>
</g>
<!-- Node11&#45;&gt;Node13 -->
<g id="edge19_Node000011_Node000013" class="edge">
<title>Node11&#45;&gt;Node13</title>
<g id="a_edge19_Node000011_Node000013"><a xlink:title=" ">
<path fill="none" stroke="#63b8ff" d="M773.79,-170.37C771.68,-162.16 768.45,-149.54 765.76,-139.05"/>
<polygon fill="#63b8ff" stroke="#63b8ff" points="769.1,-137.98 763.22,-129.17 762.32,-139.72 769.1,-137.98"/>
</a>
</g>
</g>
<!-- Node16&#45;&gt;Node2 -->
<g id="edge23_Node000016_Node000002" class="edge">
<title>Node16&#45;&gt;Node2</title>
<g id="a_edge23_Node000016_Node000002"><a xlink:title=" ">
<path fill="none" stroke="#63b8ff" d="M127.72,-164.95C157.5,-146.78 208.37,-116.67 229,-110 326.16,-78.56 443.91,-68.91 521.22,-66.16"/>
<polygon fill="#63b8ff" stroke="#63b8ff" points="521.51,-69.66 531.39,-65.84 521.28,-62.66 521.51,-69.66"/>
</a>
</g>
</g>
<!-- Node16&#45;&gt;Node4 -->
<g id="edge24_Node000016_Node000004" class="edge">
<title>Node16&#45;&gt;Node4</title>
<g id="a_edge24_Node000016_Node000004"><a xlink:title=" ">
<path fill="none" stroke="#63b8ff" d="M105,-164.84C105,-157.21 105,-147.7 105,-139.45"/>
<polygon fill="#63b8ff" stroke="#63b8ff" points="108.5,-139.27 105,-129.27 101.5,-139.27 108.5,-139.27"/>
</a>
</g>
</g>
<!-- Node17&#45;&gt;Node2 -->
<g id="edge26_Node000017_Node000002" class="edge">
<title>Node17&#45;&gt;Node2</title>
<g id="a_edge26_Node000017_Node000002"><a xlink:title=" ">
<path fill="none" stroke="#63b8ff" d="M275.5,-230.85C258.05,-214.16 235.08,-186.03 251,-165 284.75,-120.43 438.29,-90.19 531.4,-75.59"/>
<polygon fill="#63b8ff" stroke="#63b8ff" points="531.98,-79.04 541.33,-74.06 530.92,-72.12 531.98,-79.04"/>
</a>
</g>
</g>
<!-- Node17&#45;&gt;Node4 -->
<g id="edge27_Node000017_Node000004" class="edge">
<title>Node17&#45;&gt;Node4</title>
<g id="a_edge27_Node000017_Node000004"><a xlink:title=" ">
<path fill="none" stroke="#63b8ff" d="M270.89,-230.86C256.06,-220.89 235.77,-207.2 218,-195 198.79,-181.81 194.39,-177.92 175,-165 159.32,-154.56 141.39,-143.17 127.6,-134.52"/>
<polygon fill="#63b8ff" stroke="#63b8ff" points="129.13,-131.35 118.79,-129.03 125.42,-137.29 129.13,-131.35"/>
</a>
</g>
</g>
<!-- Node17&#45;&gt;Node14 -->
<g id="edge29_Node000017_Node000014" class="edge">
<title>Node17&#45;&gt;Node14</title>
<g id="a_edge29_Node000017_Node000014"><a xlink:title=" ">
<path fill="none" stroke="#63b8ff" d="M335.01,-230.95C371.06,-219.18 421.79,-202.62 454.78,-191.85"/>
<polygon fill="#63b8ff" stroke="#63b8ff" points="455.99,-195.13 464.41,-188.7 453.82,-188.48 455.99,-195.13"/>
</a>
</g>
</g>
<!-- Node17&#45;&gt;Node16 -->
<g id="edge28_Node000017_Node000016" class="edge">
<title>Node17&#45;&gt;Node16</title>
<g id="a_edge28_Node000017_Node000016"><a xlink:title=" ">
<path fill="none" stroke="#63b8ff" d="M250.96,-230.95C222.95,-221.37 185.65,-208.6 155.77,-198.37"/>
<polygon fill="#63b8ff" stroke="#63b8ff" points="156.54,-194.94 145.94,-195.01 154.27,-201.56 156.54,-194.94"/>
</a>
</g>
</g>
<!-- Node18 -->
<g id="Node000018" class="node">
<title>Node18</title>
<g id="a_Node000018"><a xlink:title=" ">
<polygon fill="#e0e0e0" stroke="#999999" points="324,-189.5 260,-189.5 260,-170.5 324,-170.5 324,-189.5"/>
<text text-anchor="middle" x="292" y="-177.5" font-family="Helvetica,sans-Serif" font-size="10.00">algorithm</text>
</a>
</g>
</g>
<!-- Node17&#45;&gt;Node18 -->
<g id="edge30_Node000017_Node000018" class="edge">
<title>Node17&#45;&gt;Node18</title>
<g id="a_edge30_Node000017_Node000018"><a xlink:title=" ">
<path fill="none" stroke="#63b8ff" d="M292,-230.8C292,-221.7 292,-209.79 292,-199.9"/>
<polygon fill="#63b8ff" stroke="#63b8ff" points="295.5,-199.84 292,-189.84 288.5,-199.84 295.5,-199.84"/>
</a>
</g>
</g>
<!-- Node19 -->
<g id="Node000019" class="node">
<title>Node19</title>
<g id="a_Node000019"><a xlink:title=" ">
<polygon fill="#e0e0e0" stroke="#999999" points="407.5,-189.5 342.5,-189.5 342.5,-170.5 407.5,-170.5 407.5,-189.5"/>
<text text-anchor="middle" x="375" y="-177.5" font-family="Helvetica,sans-Serif" font-size="10.00">functional</text>
</a>
</g>
</g>
<!-- Node17&#45;&gt;Node19 -->
<g id="edge31_Node000017_Node000019" class="edge">
<title>Node17&#45;&gt;Node19</title>
<g id="a_edge31_Node000017_Node000019"><a xlink:title=" ">
<path fill="none" stroke="#63b8ff" d="M310.42,-230.8C323.74,-220.53 341.71,-206.67 355.31,-196.18"/>
<polygon fill="#63b8ff" stroke="#63b8ff" points="357.75,-198.72 363.53,-189.84 353.47,-193.18 357.75,-198.72"/>
</a>
</g>
</g>
</g>
</svg>

<g id="navigator" transform="translate(0 0)" fill="#404254">
  <rect fill="#f2f5e9" fill-opacity="0.5" stroke="#606060" stroke-width=".5" x="0" y="0" width="60" height="60"/>
  <use id="zoomplus" xlink:href="#zoomPlus" x="17" y="9" onmousedown="handleZoom(evt,'in')"/>
  <use id="zoomminus" xlink:href="#zoomMin" x="42" y="9" onmousedown="handleZoom(evt,'out')"/>
  <use id="reset" xlink:href="#resetDef" x="30" y="36" onmousedown="handleReset()"/>
   <use id="arrowup" xlink:href="#arrowUp" x="0" y="0" onmousedown="handlePan(0,-1)"/>
  <use id="arrowright" xlink:href="#arrowRight" x="0" y="0" onmousedown="handlePan(1,0)"/>
  <use id="arrowdown" xlink:href="#arrowDown" x="0" y="0" onmousedown="handlePan(0,1)"/>
  <use id="arrowleft" xlink:href="#arrowLeft" x="0" y="0" onmousedown="handlePan(-1,0)"/>
</g>
<svg viewBox="0 0 15 15" width="100%" height="30px" preserveAspectRatio="xMaxYMin meet">
 <g id="arrow_out" transform="scale(0.3 0.3)">
  <a xlink:href="orderbook__l2_8hpp__incl_org.svg" target="_base">
   <rect id="button" ry="5" rx="5" y="6" x="6" height="38" width="38"
        fill="#f2f5e9" fill-opacity="0.5" stroke="#606060" stroke-width="1.0"/>
   <path id="arrow"
     d="M 11.500037,31.436501 C 11.940474,20.09759 22.043105,11.32322 32.158766,21.979434 L 37.068811,17.246167 C 37.068811,17.246167 37.088388,32 37.088388,32 L 22.160133,31.978069 C 22.160133,31.978069 26.997745,27.140456 26.997745,27.140456 C 18.528582,18.264221 13.291696,25.230495 11.500037,31.436501 z"
     style="fill:#404040;"/>
  </a>
 </g>
</svg>

<style type='text/css'>
<![CDATA[
[data-mouse-over-selected='false'] { opacity: 0.7; }
[data-mouse-over-selected='true']  { opacity: 1.0; }
]]>
</style>
<script type="application/ecmascript"><![CDATA[
document.addEventListener('DOMContentLoaded', (event) => {
  highlightEdges();
  highlightAdjacentNodes();
});
]]></script>
</svg>
