<?xml version="1.0" encoding="UTF-8" standalone="no"?>
<!DOCTYPE svg PUBLIC "-//W3C//DTD SVG 1.1//EN"
 "http://www.w3.org/Graphics/SVG/1.1/DTD/svg11.dtd">
<!-- Generated by graphviz version 2.43.0 (0)
 -->
<!-- Title: slick/orderbook/orderbook.hpp Pages: 1 -->
<svg width="2361pt" height="445pt"
 viewBox="0.00 0.00 2361.32 445.00" xmlns="http://www.w3.org/2000/svg" xmlns:xlink="http://www.w3.org/1999/xlink">
<g id="graph0" class="graph" transform="scale(1 1) rotate(0) translate(4 441)">
<title>slick/orderbook/orderbook.hpp</title>
<!-- Node1 -->
<g id="Node000001" class="node">
<title>Node1</title>
<g id="a_Node000001"><a xlink:title=" ">
<polygon fill="#999999" stroke="#666666" points="237.82,-437 72.82,-437 72.82,-418 237.82,-418 237.82,-437"/>
<text text-anchor="middle" x="155.32" y="-425" font-family="Helvetica,sans-Serif" font-size="10.00">slick/orderbook/orderbook.hpp</text>
</a>
</g>
</g>
<!-- Node2 -->
<g id="Node000002" class="node">
<title>Node2</title>
<g id="a_Node000002"><a xlink:href="config_8hpp.html" target="_top" xlink:title=" ">
<polygon fill="white" stroke="#666666" points="472.82,-74 327.82,-74 327.82,-55 472.82,-55 472.82,-74"/>
<text text-anchor="middle" x="400.32" y="-62" font-family="Helvetica,sans-Serif" font-size="10.00">slick/orderbook/config.hpp</text>
</a>
</g>
</g>
<!-- Node1&#45;&gt;Node2 -->
<g id="edge1_Node000001_Node000002" class="edge">
<title>Node1&#45;&gt;Node2</title>
<g id="a_edge1_Node000001_Node000002"><a xlink:title=" ">
<path fill="none" stroke="#63b8ff" d="M126.53,-417.94C81.7,-402.63 0.32,-366.03 0.32,-302 0.32,-302 0.32,-302 0.32,-173.5 0.32,-143.63 -0.96,-128.72 22.32,-110 66.33,-74.61 220.12,-66.64 317.45,-65.25"/>
<polygon fill="#63b8ff" stroke="#63b8ff" points="317.61,-68.75 327.56,-65.13 317.52,-61.75 317.61,-68.75"/>
</a>
</g>
</g>
<!-- Node4 -->
<g id="Node000004" class="node">
<title>Node4</title>
<g id="a_Node000004"><a xlink:href="types_8hpp.html" target="_top" xlink:title=" ">
<polygon fill="white" stroke="#666666" points="627.82,-129 484.82,-129 484.82,-110 627.82,-110 627.82,-129"/>
<text text-anchor="middle" x="556.32" y="-117" font-family="Helvetica,sans-Serif" font-size="10.00">slick/orderbook/types.hpp</text>
</a>
</g>
</g>
<!-- Node1&#45;&gt;Node4 -->
<g id="edge3_Node000001_Node000004" class="edge">
<title>Node1&#45;&gt;Node4</title>
<g id="a_edge3_Node000001_Node000004"><a xlink:title=" ">
<path fill="none" stroke="#63b8ff" d="M141.83,-417.75C131.03,-409.87 116.67,-397.21 110.32,-382 91.72,-337.45 87.84,-277.9 135.32,-220 155.99,-194.79 239.9,-173.68 271.32,-165 338.6,-146.41 417.1,-134.87 474.66,-128.22"/>
<polygon fill="#63b8ff" stroke="#63b8ff" points="475.25,-131.67 484.79,-127.07 474.46,-124.72 475.25,-131.67"/>
</a>
</g>
</g>
<!-- Node7 -->
<g id="Node000007" class="node">
<title>Node7</title>
<g id="a_Node000007"><a xlink:href="concepts_8hpp.html" target="_top" xlink:title=" ">
<polygon fill="white" stroke="#666666" points="186.82,-184 27.82,-184 27.82,-165 186.82,-165 186.82,-184"/>
<text text-anchor="middle" x="107.32" y="-172" font-family="Helvetica,sans-Serif" font-size="10.00">slick/orderbook/concepts.hpp</text>
</a>
</g>
</g>
<!-- Node1&#45;&gt;Node7 -->
<g id="edge7_Node000001_Node000007" class="edge">
<title>Node1&#45;&gt;Node7</title>
<g id="a_edge7_Node000001_Node000007"><a xlink:title=" ">
<path fill="none" stroke="#63b8ff" d="M146.54,-417.87C138.65,-409.51 127.54,-396.07 122.32,-382 98.06,-316.62 101.95,-231.74 105.26,-194.46"/>
<polygon fill="#63b8ff" stroke="#63b8ff" points="108.79,-194.41 106.28,-184.12 101.82,-193.73 108.79,-194.41"/>
</a>
</g>
</g>
<!-- Node10 -->
<g id="Node000010" class="node">
<title>Node10</title>
<g id="a_Node000010"><a xlink:href="events_8hpp.html" target="_top" xlink:title=" ">
<polygon fill="white" stroke="#666666" points="428.82,-184 279.82,-184 279.82,-165 428.82,-165 428.82,-184"/>
<text text-anchor="middle" x="354.32" y="-172" font-family="Helvetica,sans-Serif" font-size="10.00">slick/orderbook/events.hpp</text>
</a>
</g>
</g>
<!-- Node1&#45;&gt;Node10 -->
<g id="edge12_Node000001_Node000010" class="edge">
<title>Node1&#45;&gt;Node10</title>
<g id="a_edge12_Node000001_Node000010"><a xlink:title=" ">
<path fill="none" stroke="#63b8ff" d="M151.93,-417.81C140.5,-386.87 106.68,-280.72 155.32,-220 169.91,-201.78 222.28,-190.53 269.62,-183.89"/>
<polygon fill="#63b8ff" stroke="#63b8ff" points="270.19,-187.35 279.64,-182.55 269.26,-180.41 270.19,-187.35"/>
</a>
</g>
</g>
<!-- Node11 -->
<g id="Node000011" class="node">
<title>Node11</title>
<g id="a_Node000011"><a xlink:href="observer_8hpp.html" target="_top" xlink:title=" ">
<polygon fill="white" stroke="#666666" points="390.32,-244.5 232.32,-244.5 232.32,-225.5 390.32,-225.5 390.32,-244.5"/>
<text text-anchor="middle" x="311.32" y="-232.5" font-family="Helvetica,sans-Serif" font-size="10.00">slick/orderbook/observer.hpp</text>
</a>
</g>
</g>
<!-- Node1&#45;&gt;Node11 -->
<g id="edge15_Node000001_Node000011" class="edge">
<title>Node1&#45;&gt;Node11</title>
<g id="a_edge15_Node000001_Node000011"><a xlink:title=" ">
<path fill="none" stroke="#63b8ff" d="M162.43,-417.82C186.59,-388.32 265.81,-291.57 297.77,-252.54"/>
<polygon fill="#63b8ff" stroke="#63b8ff" points="300.54,-254.69 304.17,-244.73 295.13,-250.25 300.54,-254.69"/>
</a>
</g>
</g>
<!-- Node14 -->
<g id="Node000014" class="node">
<title>Node14</title>
<g id="a_Node000014"><a xlink:href="orderbook__l2_8hpp.html" target="_top" xlink:title=" ">
<polygon fill="white" stroke="#666666" points="585.32,-316 441.32,-316 441.32,-286 585.32,-286 585.32,-316"/>
<text text-anchor="start" x="449.32" y="-304" font-family="Helvetica,sans-Serif" font-size="10.00">slick/orderbook/orderbook</text>
<text text-anchor="middle" x="513.32" y="-293" font-family="Helvetica,sans-Serif" font-size="10.00">_l2.hpp</text>
</a>
</g>
</g>
<!-- Node1&#45;&gt;Node14 -->
<g id="edge21_Node000001_Node000014" class="edge">
<title>Node1&#45;&gt;Node14</title>
<g id="a_edge21_Node000001_Node000014"><a xlink:title=" ">
<path fill="none" stroke="#63b8ff" d="M179.93,-417.94C238.18,-397.69 385.44,-346.47 463.3,-319.4"/>
<polygon fill="#63b8ff" stroke="#63b8ff" points="464.6,-322.65 472.89,-316.06 462.3,-316.04 464.6,-322.65"/>
</a>
</g>
</g>
<!-- Node19 -->
<g id="Node000019" class="node">
<title>Node19</title>
<g id="a_Node000019"><a xlink:href="orderbook__l3_8hpp.html" target="_top" xlink:title=" ">
<polygon fill="white" stroke="#666666" points="1495.32,-316 1351.32,-316 1351.32,-286 1495.32,-286 1495.32,-316"/>
<text text-anchor="start" x="1359.32" y="-304" font-family="Helvetica,sans-Serif" font-size="10.00">slick/orderbook/orderbook</text>
<text text-anchor="middle" x="1423.32" y="-293" font-family="Helvetica,sans-Serif" font-size="10.00">_l3.hpp</text>
</a>
</g>
</g>
<!-- Node1&#45;&gt;Node19 -->
<g id="edge32_Node000001_Node000019" class="edge">
<title>Node1&#45;&gt;Node19</title>
<g id="a_edge32_Node000001_Node000019"><a xlink:title=" ">
<path fill="none" stroke="#63b8ff" d="M238.03,-418.38C467.65,-395.83 1111.16,-332.65 1340.69,-310.11"/>
<polygon fill="#63b8ff" stroke="#63b8ff" points="1341.36,-313.56 1350.97,-309.1 1340.68,-306.6 1341.36,-313.56"/>
</a>
</g>
</g>
<!-- Node28 -->
<g id="Node000028" class="node">
<title>Node28</title>
<g id="a_Node000028"><a xlink:href="orderbook__manager_8hpp.html" target="_top" xlink:title=" ">
<polygon fill="white" stroke="#666666" points="2135.32,-382 1991.32,-382 1991.32,-352 2135.32,-352 2135.32,-382"/>
<text text-anchor="start" x="1999.32" y="-370" font-family="Helvetica,sans-Serif" font-size="10.00">slick/orderbook/orderbook</text>
<text text-anchor="middle" x="2063.32" y="-359" font-family="Helvetica,sans-Serif" font-size="10.00">_manager.hpp</text>
</a>
</g>
</g>
<!-- Node1&#45;&gt;Node28 -->
<g id="edge49_Node000001_Node000028" class="edge">
<title>Node1&#45;&gt;Node28</title>
<g id="a_edge49_Node000001_Node000028"><a xlink:title=" ">
<path fill="none" stroke="#63b8ff" d="M237.92,-423.97C551.58,-414.35 1667,-380.15 1980.7,-370.53"/>
<polygon fill="#63b8ff" stroke="#63b8ff" points="1981.19,-374.02 1991.07,-370.22 1980.97,-367.02 1981.19,-374.02"/>
</a>
</g>
</g>
<!-- Node3 -->
<g id="Node000003" class="node">
<title>Node3</title>
<g id="a_Node000003"><a xlink:title=" ">
<polygon fill="#e0e0e0" stroke="#999999" points="426.32,-19 374.32,-19 374.32,0 426.32,0 426.32,-19"/>
<text text-anchor="middle" x="400.32" y="-7" font-family="Helvetica,sans-Serif" font-size="10.00">cassert</text>
</a>
</g>
</g>
<!-- Node2&#45;&gt;Node3 -->
<g id="edge2_Node000002_Node000003" class="edge">
<title>Node2&#45;&gt;Node3</title>
<g id="a_edge2_Node000002_Node000003"><a xlink:title=" ">
<path fill="none" stroke="#63b8ff" d="M400.32,-54.75C400.32,-47.8 400.32,-37.85 400.32,-29.13"/>
<polygon fill="#63b8ff" stroke="#63b8ff" points="403.82,-29.09 400.32,-19.09 396.82,-29.09 403.82,-29.09"/>
</a>
</g>
</g>
<!-- Node4&#45;&gt;Node2 -->
<g id="edge4_Node000004_Node000002" class="edge">
<title>Node4&#45;&gt;Node2</title>
<g id="a_edge4_Node000004_Node000002"><a xlink:title=" ">
<path fill="none" stroke="#63b8ff" d="M531.26,-109.98C505.29,-101.16 464.51,-87.31 435.36,-77.41"/>
<polygon fill="#63b8ff" stroke="#63b8ff" points="436.17,-73.99 425.58,-74.08 433.92,-80.61 436.17,-73.99"/>
</a>
</g>
</g>
<!-- Node5 -->
<g id="Node000005" class="node">
<title>Node5</title>
<g id="a_Node000005"><a xlink:title=" ">
<polygon fill="#e0e0e0" stroke="#999999" points="651.32,-74 601.32,-74 601.32,-55 651.32,-55 651.32,-74"/>
<text text-anchor="middle" x="626.32" y="-62" font-family="Helvetica,sans-Serif" font-size="10.00">cstdint</text>
</a>
</g>
</g>
<!-- Node4&#45;&gt;Node5 -->
<g id="edge5_Node000004_Node000005" class="edge">
<title>Node4&#45;&gt;Node5</title>
<g id="a_edge5_Node000004_Node000005"><a xlink:title=" ">
<path fill="none" stroke="#63b8ff" d="M567.57,-109.98C578.12,-102 594.12,-89.88 606.76,-80.31"/>
<polygon fill="#63b8ff" stroke="#63b8ff" points="609.01,-83 614.87,-74.17 604.78,-77.42 609.01,-83"/>
</a>
</g>
</g>
<!-- Node6 -->
<g id="Node000006" class="node">
<title>Node6</title>
<g id="a_Node000006"><a xlink:title=" ">
<polygon fill="#e0e0e0" stroke="#999999" points="582.82,-74 509.82,-74 509.82,-55 582.82,-55 582.82,-74"/>
<text text-anchor="middle" x="546.32" y="-62" font-family="Helvetica,sans-Serif" font-size="10.00">string_view</text>
</a>
</g>
</g>
<!-- Node4&#45;&gt;Node6 -->
<g id="edge6_Node000004_Node000006" class="edge">
<title>Node4&#45;&gt;Node6</title>
<g id="a_edge6_Node000004_Node000006"><a xlink:title=" ">
<path fill="none" stroke="#63b8ff" d="M554.67,-109.75C553.36,-102.8 551.48,-92.85 549.84,-84.13"/>
<polygon fill="#63b8ff" stroke="#63b8ff" points="553.23,-83.27 547.94,-74.09 546.35,-84.56 553.23,-83.27"/>
</a>
</g>
</g>
<!-- Node7&#45;&gt;Node2 -->
<g id="edge8_Node000007_Node000002" class="edge">
<title>Node7&#45;&gt;Node2</title>
<g id="a_edge8_Node000007_Node000002"><a xlink:title=" ">
<path fill="none" stroke="#63b8ff" d="M122.64,-164.93C146.69,-151.73 195.03,-126.28 238.32,-110 275.55,-96 319.1,-84.28 351.66,-76.39"/>
<polygon fill="#63b8ff" stroke="#63b8ff" points="352.48,-79.8 361.39,-74.07 350.85,-72.99 352.48,-79.8"/>
</a>
</g>
</g>
<!-- Node7&#45;&gt;Node4 -->
<g id="edge9_Node000007_Node000004" class="edge">
<title>Node7&#45;&gt;Node4</title>
<g id="a_edge9_Node000007_Node000004"><a xlink:title=" ">
<path fill="none" stroke="#63b8ff" d="M179.46,-164.98C260.09,-155.47 390.38,-140.09 474.68,-130.14"/>
<polygon fill="#63b8ff" stroke="#63b8ff" points="475.21,-133.6 484.73,-128.95 474.39,-126.65 475.21,-133.6"/>
</a>
</g>
</g>
<!-- Node8 -->
<g id="Node000008" class="node">
<title>Node8</title>
<g id="a_Node000008"><a xlink:title=" ">
<polygon fill="#e0e0e0" stroke="#999999" points="91.32,-129 31.32,-129 31.32,-110 91.32,-110 91.32,-129"/>
<text text-anchor="middle" x="61.32" y="-117" font-family="Helvetica,sans-Serif" font-size="10.00">concepts</text>
</a>
</g>
</g>
<!-- Node7&#45;&gt;Node8 -->
<g id="edge10_Node000007_Node000008" class="edge">
<title>Node7&#45;&gt;Node8</title>
<g id="a_edge10_Node000007_Node000008"><a xlink:title=" ">
<path fill="none" stroke="#63b8ff" d="M99.72,-164.75C93.16,-157.18 83.5,-146.05 75.51,-136.84"/>
<polygon fill="#63b8ff" stroke="#63b8ff" points="77.97,-134.35 68.77,-129.09 72.69,-138.94 77.97,-134.35"/>
</a>
</g>
</g>
<!-- Node9 -->
<g id="Node000009" class="node">
<title>Node9</title>
<g id="a_Node000009"><a xlink:title=" ">
<polygon fill="#e0e0e0" stroke="#999999" points="178.82,-129 109.82,-129 109.82,-110 178.82,-110 178.82,-129"/>
<text text-anchor="middle" x="144.32" y="-117" font-family="Helvetica,sans-Serif" font-size="10.00">type_traits</text>
</a>
</g>
</g>
<!-- Node7&#45;&gt;Node9 -->
<g id="edge11_Node000007_Node000009" class="edge">
<title>Node7&#45;&gt;Node9</title>
<g id="a_edge11_Node000007_Node000009"><a xlink:title=" ">
<path fill="none" stroke="#63b8ff" d="M113.43,-164.75C118.6,-157.34 126.17,-146.5 132.51,-137.41"/>
<polygon fill="#63b8ff" stroke="#63b8ff" points="135.47,-139.29 138.32,-129.09 129.73,-135.29 135.47,-139.29"/>
</a>
</g>
</g>
<!-- Node10&#45;&gt;Node2 -->
<g id="edge13_Node000010_Node000002" class="edge">
<title>Node10&#45;&gt;Node2</title>
<g id="a_edge13_Node000010_Node000002"><a xlink:title=" ">
<path fill="none" stroke="#63b8ff" d="M358.08,-164.66C365.6,-147.01 382.61,-107.09 392.59,-83.64"/>
<polygon fill="#63b8ff" stroke="#63b8ff" points="395.93,-84.73 396.63,-74.16 389.49,-81.99 395.93,-84.73"/>
</a>
</g>
</g>
<!-- Node10&#45;&gt;Node4 -->
<g id="edge14_Node000010_Node000004" class="edge">
<title>Node10&#45;&gt;Node4</title>
<g id="a_edge14_Node000010_Node000004"><a xlink:title=" ">
<path fill="none" stroke="#63b8ff" d="M386.77,-164.98C421.27,-155.93 475.98,-141.58 513.88,-131.64"/>
<polygon fill="#63b8ff" stroke="#63b8ff" points="514.83,-135.01 523.61,-129.08 513.05,-128.23 514.83,-135.01"/>
</a>
</g>
</g>
<!-- Node11&#45;&gt;Node2 -->
<g id="edge16_Node000011_Node000002" class="edge">
<title>Node11&#45;&gt;Node2</title>
<g id="a_edge16_Node000011_Node000002"><a xlink:title=" ">
<path fill="none" stroke="#63b8ff" d="M300.18,-225.49C284.84,-212.67 260.26,-187.49 271.32,-165 291.9,-123.13 339.51,-93.91 370.78,-78.42"/>
<polygon fill="#63b8ff" stroke="#63b8ff" points="372.39,-81.53 379.91,-74.06 369.38,-75.21 372.39,-81.53"/>
</a>
</g>
</g>
<!-- Node11&#45;&gt;Node7 -->
<g id="edge18_Node000011_Node000007" class="edge">
<title>Node11&#45;&gt;Node7</title>
<g id="a_edge18_Node000011_Node000007"><a xlink:title=" ">
<path fill="none" stroke="#63b8ff" d="M281.66,-225.49C246.08,-215.29 186.3,-198.15 146.83,-186.83"/>
<polygon fill="#63b8ff" stroke="#63b8ff" points="147.6,-183.41 137.02,-184.02 145.67,-190.14 147.6,-183.41"/>
</a>
</g>
</g>
<!-- Node11&#45;&gt;Node10 -->
<g id="edge17_Node000011_Node000010" class="edge">
<title>Node11&#45;&gt;Node10</title>
<g id="a_edge17_Node000011_Node000010"><a xlink:title=" ">
<path fill="none" stroke="#63b8ff" d="M317.66,-225.37C324.02,-216.73 333.96,-203.2 341.89,-192.42"/>
<polygon fill="#63b8ff" stroke="#63b8ff" points="344.85,-194.3 347.95,-184.17 339.21,-190.15 344.85,-194.3"/>
</a>
</g>
</g>
<!-- Node12 -->
<g id="Node000012" class="node">
<title>Node12</title>
<g id="a_Node000012"><a xlink:title=" ">
<polygon fill="#e0e0e0" stroke="#999999" points="531.82,-184 484.82,-184 484.82,-165 531.82,-165 531.82,-184"/>
<text text-anchor="middle" x="508.32" y="-172" font-family="Helvetica,sans-Serif" font-size="10.00">vector</text>
</a>
</g>
</g>
<!-- Node11&#45;&gt;Node12 -->
<g id="edge19_Node000011_Node000012" class="edge">
<title>Node11&#45;&gt;Node12</title>
<g id="a_edge19_Node000011_Node000012"><a xlink:title=" ">
<path fill="none" stroke="#63b8ff" d="M339.96,-225.49C375.67,-214.89 436.59,-196.8 474.53,-185.53"/>
<polygon fill="#63b8ff" stroke="#63b8ff" points="476,-188.75 484.59,-182.55 474,-182.04 476,-188.75"/>
</a>
</g>
</g>
<!-- Node13 -->
<g id="Node000013" class="node">
<title>Node13</title>
<g id="a_Node000013"><a xlink:title=" ">
<polygon fill="#e0e0e0" stroke="#999999" points="1093.32,-184 1035.32,-184 1035.32,-165 1093.32,-165 1093.32,-184"/>
<text text-anchor="middle" x="1064.32" y="-172" font-family="Helvetica,sans-Serif" font-size="10.00">memory</text>
</a>
</g>
</g>
<!-- Node11&#45;&gt;Node13 -->
<g id="edge20_Node000011_Node000013" class="edge">
<title>Node11&#45;&gt;Node13</title>
<g id="a_edge20_Node000011_Node000013"><a xlink:title=" ">
<path fill="none" stroke="#63b8ff" d="M390.48,-227.85C550.29,-215.43 906.33,-187.77 1024.98,-178.56"/>
<polygon fill="#63b8ff" stroke="#63b8ff" points="1025.37,-182.04 1035.07,-177.77 1024.83,-175.06 1025.37,-182.04"/>
</a>
</g>
</g>
<!-- Node14&#45;&gt;Node2 -->
<g id="edge22_Node000014_Node000002" class="edge">
<title>Node14&#45;&gt;Node2</title>
<g id="a_edge22_Node000014_Node000002"><a xlink:title=" ">
<path fill="none" stroke="#63b8ff" d="M506.42,-285.68C486.77,-244.91 430.54,-128.21 408.93,-83.36"/>
<polygon fill="#63b8ff" stroke="#63b8ff" points="412.03,-81.75 404.54,-74.26 405.73,-84.78 412.03,-81.75"/>
</a>
</g>
</g>
<!-- Node14&#45;&gt;Node4 -->
<g id="edge23_Node000014_Node000004" class="edge">
<title>Node14&#45;&gt;Node4</title>
<g id="a_edge23_Node000014_Node000004"><a xlink:title=" ">
<path fill="none" stroke="#63b8ff" d="M516.79,-285.72C522.1,-263.83 532.56,-220.67 541.32,-184 544.94,-168.83 549.01,-151.61 551.99,-138.94"/>
<polygon fill="#63b8ff" stroke="#63b8ff" points="555.41,-139.67 554.29,-129.13 548.6,-138.06 555.41,-139.67"/>
</a>
</g>
</g>
<!-- Node14&#45;&gt;Node10 -->
<g id="edge24_Node000014_Node000010" class="edge">
<title>Node14&#45;&gt;Node10</title>
<g id="a_edge24_Node000014_Node000010"><a xlink:title=" ">
<path fill="none" stroke="#63b8ff" d="M492.15,-285.82C477.85,-276.06 458.66,-262.63 442.32,-250 417,-230.43 388.99,-206.26 371.52,-190.85"/>
<polygon fill="#63b8ff" stroke="#63b8ff" points="373.66,-188.07 363.85,-184.06 369.02,-193.31 373.66,-188.07"/>
</a>
</g>
</g>
<!-- Node14&#45;&gt;Node11 -->
<g id="edge25_Node000014_Node000011" class="edge">
<title>Node14&#45;&gt;Node11</title>
<g id="a_edge25_Node000014_Node000011"><a xlink:title=" ">
<path fill="none" stroke="#63b8ff" d="M468.99,-285.95C432.63,-274.43 381.78,-258.32 347.75,-247.54"/>
<polygon fill="#63b8ff" stroke="#63b8ff" points="348.79,-244.2 338.2,-244.52 346.68,-250.87 348.79,-244.2"/>
</a>
</g>
</g>
<!-- Node14&#45;&gt;Node12 -->
<g id="edge29_Node000014_Node000012" class="edge">
<title>Node14&#45;&gt;Node12</title>
<g id="a_edge29_Node000014_Node000012"><a xlink:title=" ">
<path fill="none" stroke="#63b8ff" d="M512.75,-285.72C511.84,-263.12 510.07,-219.12 509.07,-194.09"/>
<polygon fill="#63b8ff" stroke="#63b8ff" points="512.56,-193.92 508.66,-184.07 505.57,-194.2 512.56,-193.92"/>
</a>
</g>
</g>
<!-- Node14&#45;&gt;Node13 -->
<g id="edge28_Node000014_Node000013" class="edge">
<title>Node14&#45;&gt;Node13</title>
<g id="a_edge28_Node000014_Node000013"><a xlink:title=" ">
<path fill="none" stroke="#63b8ff" d="M522.06,-285.76C534.44,-267.02 558.99,-234.73 589.32,-220 665.78,-182.85 925.02,-176.67 1024.76,-175.67"/>
<polygon fill="#63b8ff" stroke="#63b8ff" points="1025.04,-179.17 1035.01,-175.58 1024.98,-172.17 1025.04,-179.17"/>
</a>
</g>
</g>
<!-- Node15 -->
<g id="Node000015" class="node">
<title>Node15</title>
<g id="a_Node000015"><a xlink:title=" ">
<polygon fill="#e0e0e0" stroke="#999999" points="920.32,-250 798.32,-250 798.32,-220 920.32,-220 920.32,-250"/>
<text text-anchor="start" x="806.32" y="-238" font-family="Helvetica,sans-Serif" font-size="10.00">slick/orderbook/detail</text>
<text text-anchor="middle" x="859.32" y="-227" font-family="Helvetica,sans-Serif" font-size="10.00">/price_level.hpp</text>
</a>
</g>
</g>
<!-- Node14&#45;&gt;Node15 -->
<g id="edge26_Node000014_Node000015" class="edge">
<title>Node14&#45;&gt;Node15</title>
<g id="a_edge26_Node000014_Node000015"><a xlink:title=" ">
<path fill="none" stroke="#63b8ff" d="M585.45,-287.3C638.78,-277.83 713.45,-264.39 788.18,-250.2"/>
<polygon fill="#63b8ff" stroke="#63b8ff" points="789.08,-253.59 798.25,-248.28 787.77,-246.71 789.08,-253.59"/>
</a>
</g>
</g>
<!-- Node16 -->
<g id="Node000016" class="node">
<title>Node16</title>
<g id="a_Node000016"><a xlink:title=" ">
<polygon fill="#e0e0e0" stroke="#999999" points="720.32,-250 598.32,-250 598.32,-220 720.32,-220 720.32,-250"/>
<text text-anchor="start" x="606.32" y="-238" font-family="Helvetica,sans-Serif" font-size="10.00">slick/orderbook/detail</text>
<text text-anchor="middle" x="659.32" y="-227" font-family="Helvetica,sans-Serif" font-size="10.00">/level_container.hpp</text>
</a>
</g>
</g>
<!-- Node14&#45;&gt;Node16 -->
<g id="edge27_Node000014_Node000016" class="edge">
<title>Node14&#45;&gt;Node16</title>
<g id="a_edge27_Node000014_Node000016"><a xlink:title=" ">
<path fill="none" stroke="#63b8ff" d="M545.36,-285.95C566.75,-276.58 595.09,-264.16 618.15,-254.05"/>
<polygon fill="#63b8ff" stroke="#63b8ff" points="619.6,-257.23 627.35,-250.01 616.79,-250.82 619.6,-257.23"/>
</a>
</g>
</g>
<!-- Node17 -->
<g id="Node000017" class="node">
<title>Node17</title>
<g id="a_Node000017"><a xlink:title=" ">
<polygon fill="#e0e0e0" stroke="#999999" points="780.32,-244.5 738.32,-244.5 738.32,-225.5 780.32,-225.5 780.32,-244.5"/>
<text text-anchor="middle" x="759.32" y="-232.5" font-family="Helvetica,sans-Serif" font-size="10.00">array</text>
</a>
</g>
</g>
<!-- Node14&#45;&gt;Node17 -->
<g id="edge30_Node000014_Node000017" class="edge">
<title>Node14&#45;&gt;Node17</title>
<g id="a_edge30_Node000014_Node000017"><a xlink:title=" ">
<path fill="none" stroke="#63b8ff" d="M585.4,-287.24C627.9,-278.76 682.38,-266.19 729.32,-250 730.54,-249.58 731.78,-249.12 733.02,-248.64"/>
<polygon fill="#63b8ff" stroke="#63b8ff" points="734.61,-251.77 742.44,-244.63 731.87,-245.33 734.61,-251.77"/>
</a>
</g>
</g>
<!-- Node18 -->
<g id="Node000018" class="node">
<title>Node18</title>
<g id="a_Node000018"><a xlink:title=" ">
<polygon fill="#e0e0e0" stroke="#999999" points="214.32,-244.5 164.32,-244.5 164.32,-225.5 214.32,-225.5 214.32,-244.5"/>
<text text-anchor="middle" x="189.32" y="-232.5" font-family="Helvetica,sans-Serif" font-size="10.00">atomic</text>
</a>
</g>
</g>
<!-- Node14&#45;&gt;Node18 -->
<g id="edge31_Node000014_Node000018" class="edge">
<title>Node14&#45;&gt;Node18</title>
<g id="a_edge31_Node000014_Node000018"><a xlink:title=" ">
<path fill="none" stroke="#63b8ff" d="M441.12,-292.03C381.84,-284.43 296.1,-270.98 223.32,-250 221.43,-249.46 219.51,-248.84 217.58,-248.18"/>
<polygon fill="#63b8ff" stroke="#63b8ff" points="218.71,-244.86 208.12,-244.6 216.23,-251.41 218.71,-244.86"/>
</a>
</g>
</g>
<!-- Node19&#45;&gt;Node2 -->
<g id="edge33_Node000019_Node000002" class="edge">
<title>Node19&#45;&gt;Node2</title>
<g id="a_edge33_Node000019_Node000002"><a xlink:title=" ">
<path fill="none" stroke="#63b8ff" d="M1464.44,-285.93C1501.07,-271.24 1545.55,-246.65 1522.32,-220 1487.99,-180.62 737.18,-100.12 483.33,-73.94"/>
<polygon fill="#63b8ff" stroke="#63b8ff" points="483.37,-70.42 473.07,-72.88 482.65,-77.39 483.37,-70.42"/>
</a>
</g>
</g>
<!-- Node19&#45;&gt;Node4 -->
<g id="edge34_Node000019_Node000004" class="edge">
<title>Node19&#45;&gt;Node4</title>
<g id="a_edge34_Node000019_Node000004"><a xlink:title=" ">
<path fill="none" stroke="#63b8ff" d="M1464.48,-285.9C1501.14,-271.18 1545.64,-246.57 1522.32,-220 1464.4,-154.01 861.08,-129.53 638.34,-122.7"/>
<polygon fill="#63b8ff" stroke="#63b8ff" points="638.13,-119.19 628.03,-122.39 637.92,-126.19 638.13,-119.19"/>
</a>
</g>
</g>
<!-- Node19&#45;&gt;Node10 -->
<g id="edge35_Node000019_Node000010" class="edge">
<title>Node19&#45;&gt;Node10</title>
<g id="a_edge35_Node000019_Node000010"><a xlink:title=" ">
<path fill="none" stroke="#63b8ff" d="M1431.34,-285.73C1440.21,-267.86 1451.14,-237.47 1434.32,-220 1397.37,-181.64 529.5,-186.85 476.32,-184 464.39,-183.36 451.82,-182.59 439.45,-181.78"/>
<polygon fill="#63b8ff" stroke="#63b8ff" points="439.35,-178.27 429.14,-181.09 438.88,-185.25 439.35,-178.27"/>
</a>
</g>
</g>
<!-- Node19&#45;&gt;Node11 -->
<g id="edge36_Node000019_Node000011" class="edge">
<title>Node19&#45;&gt;Node11</title>
<g id="a_edge36_Node000019_Node000011"><a xlink:title=" ">
<path fill="none" stroke="#63b8ff" d="M1351.21,-295.85C1155.65,-284.59 615.5,-253.51 400.91,-241.16"/>
<polygon fill="#63b8ff" stroke="#63b8ff" points="400.81,-237.64 390.63,-240.56 400.41,-244.63 400.81,-237.64"/>
</a>
</g>
</g>
<!-- Node19&#45;&gt;Node12 -->
<g id="edge45_Node000019_Node000012" class="edge">
<title>Node19&#45;&gt;Node12</title>
<g id="a_edge45_Node000019_Node000012"><a xlink:title=" ">
<path fill="none" stroke="#63b8ff" d="M1440.84,-285.88C1460.12,-268.71 1486.04,-239.61 1467.32,-220 1434.73,-185.86 708.93,-177.3 542.23,-175.78"/>
<polygon fill="#63b8ff" stroke="#63b8ff" points="542.1,-172.28 532.07,-175.69 542.04,-179.27 542.1,-172.28"/>
</a>
</g>
</g>
<!-- Node19&#45;&gt;Node13 -->
<g id="edge43_Node000019_Node000013" class="edge">
<title>Node19&#45;&gt;Node13</title>
<g id="a_edge43_Node000019_Node000013"><a xlink:title=" ">
<path fill="none" stroke="#63b8ff" d="M1455.67,-285.95C1487.15,-270.38 1527.26,-244.27 1505.32,-220 1478.62,-190.47 1206.95,-179.6 1103.78,-176.52"/>
<polygon fill="#63b8ff" stroke="#63b8ff" points="1103.57,-173.02 1093.48,-176.23 1103.37,-180.01 1103.57,-173.02"/>
</a>
</g>
</g>
<!-- Node19&#45;&gt;Node15 -->
<g id="edge37_Node000019_Node000015" class="edge">
<title>Node19&#45;&gt;Node15</title>
<g id="a_edge37_Node000019_Node000015"><a xlink:title=" ">
<path fill="none" stroke="#63b8ff" d="M1351.05,-294.88C1256.64,-287.71 1086.03,-273.06 930.56,-250.09"/>
<polygon fill="#63b8ff" stroke="#63b8ff" points="930.75,-246.58 920.34,-248.57 929.72,-253.5 930.75,-246.58"/>
</a>
</g>
</g>
<!-- Node19&#45;&gt;Node17 -->
<g id="edge46_Node000019_Node000017" class="edge">
<title>Node19&#45;&gt;Node17</title>
<g id="a_edge46_Node000019_Node000017"><a xlink:title=" ">
<path fill="none" stroke="#63b8ff" d="M1351.31,-297.55C1208.39,-292.16 893.68,-277.5 789.32,-250 787.64,-249.56 785.94,-249.02 784.24,-248.43"/>
<polygon fill="#63b8ff" stroke="#63b8ff" points="785.38,-245.11 774.8,-244.51 782.7,-251.58 785.38,-245.11"/>
</a>
</g>
</g>
<!-- Node20 -->
<g id="Node000020" class="node">
<title>Node20</title>
<g id="a_Node000020"><a xlink:title=" ">
<polygon fill="#e0e0e0" stroke="#999999" points="1755.32,-250 1633.32,-250 1633.32,-220 1755.32,-220 1755.32,-250"/>
<text text-anchor="start" x="1641.32" y="-238" font-family="Helvetica,sans-Serif" font-size="10.00">slick/orderbook/detail</text>
<text text-anchor="middle" x="1694.32" y="-227" font-family="Helvetica,sans-Serif" font-size="10.00">/order.hpp</text>
</a>
</g>
</g>
<!-- Node19&#45;&gt;Node20 -->
<g id="edge38_Node000019_Node000020" class="edge">
<title>Node19&#45;&gt;Node20</title>
<g id="a_edge38_Node000019_Node000020"><a xlink:title=" ">
<path fill="none" stroke="#63b8ff" d="M1482.79,-285.95C1524.8,-276.03 1581.22,-262.71 1625.23,-252.32"/>
<polygon fill="#63b8ff" stroke="#63b8ff" points="1626.06,-255.72 1634.99,-250.01 1624.45,-248.9 1626.06,-255.72"/>
</a>
</g>
</g>
<!-- Node21 -->
<g id="Node000021" class="node">
<title>Node21</title>
<g id="a_Node000021"><a xlink:title=" ">
<polygon fill="#e0e0e0" stroke="#999999" points="1895.32,-250 1773.32,-250 1773.32,-220 1895.32,-220 1895.32,-250"/>
<text text-anchor="start" x="1781.32" y="-238" font-family="Helvetica,sans-Serif" font-size="10.00">slick/orderbook/detail</text>
<text text-anchor="middle" x="1834.32" y="-227" font-family="Helvetica,sans-Serif" font-size="10.00">/order_map.hpp</text>
</a>
</g>
</g>
<!-- Node19&#45;&gt;Node21 -->
<g id="edge39_Node000019_Node000021" class="edge">
<title>Node19&#45;&gt;Node21</title>
<g id="a_edge39_Node000019_Node000021"><a xlink:title=" ">
<path fill="none" stroke="#63b8ff" d="M1495.34,-290.54C1562.18,-281.51 1664.67,-267.03 1763.14,-250.15"/>
<polygon fill="#63b8ff" stroke="#63b8ff" points="1764.01,-253.55 1773.27,-248.4 1762.82,-246.65 1764.01,-253.55"/>
</a>
</g>
</g>
<!-- Node22 -->
<g id="Node000022" class="node">
<title>Node22</title>
<g id="a_Node000022"><a xlink:title=" ">
<polygon fill="#e0e0e0" stroke="#999999" points="1060.32,-250 938.32,-250 938.32,-220 1060.32,-220 1060.32,-250"/>
<text text-anchor="start" x="946.32" y="-238" font-family="Helvetica,sans-Serif" font-size="10.00">slick/orderbook/detail</text>
<text text-anchor="middle" x="999.32" y="-227" font-family="Helvetica,sans-Serif" font-size="10.00">/memory_pool.hpp</text>
</a>
</g>
</g>
<!-- Node19&#45;&gt;Node22 -->
<g id="edge40_Node000019_Node000022" class="edge">
<title>Node19&#45;&gt;Node22</title>
<g id="a_edge40_Node000019_Node000022"><a xlink:title=" ">
<path fill="none" stroke="#63b8ff" d="M1351.26,-291.05C1281.84,-282.14 1173.63,-267.53 1070.34,-250.12"/>
<polygon fill="#63b8ff" stroke="#63b8ff" points="1070.81,-246.65 1060.36,-248.42 1069.64,-253.55 1070.81,-246.65"/>
</a>
</g>
</g>
<!-- Node23 -->
<g id="Node000023" class="node">
<title>Node23</title>
<g id="a_Node000023"><a xlink:title=" ">
<polygon fill="#e0e0e0" stroke="#999999" points="2035.32,-250 1913.32,-250 1913.32,-220 2035.32,-220 2035.32,-250"/>
<text text-anchor="start" x="1921.32" y="-238" font-family="Helvetica,sans-Serif" font-size="10.00">slick/orderbook/detail</text>
<text text-anchor="middle" x="1974.32" y="-227" font-family="Helvetica,sans-Serif" font-size="10.00">/flat_map.hpp</text>
</a>
</g>
</g>
<!-- Node19&#45;&gt;Node23 -->
<g id="edge41_Node000019_Node000023" class="edge">
<title>Node19&#45;&gt;Node23</title>
<g id="a_edge41_Node000019_Node000023"><a xlink:title=" ">
<path fill="none" stroke="#63b8ff" d="M1495.71,-294.61C1588.04,-287.25 1752.82,-272.52 1903.4,-250.05"/>
<polygon fill="#63b8ff" stroke="#63b8ff" points="1903.93,-253.51 1913.3,-248.56 1902.89,-246.58 1903.93,-253.51"/>
</a>
</g>
</g>
<!-- Node24 -->
<g id="Node000024" class="node">
<title>Node24</title>
<g id="a_Node000024"><a xlink:title=" ">
<polygon fill="#e0e0e0" stroke="#999999" points="1200.32,-250 1078.32,-250 1078.32,-220 1200.32,-220 1200.32,-250"/>
<text text-anchor="start" x="1086.32" y="-238" font-family="Helvetica,sans-Serif" font-size="10.00">slick/orderbook/detail</text>
<text text-anchor="middle" x="1139.32" y="-227" font-family="Helvetica,sans-Serif" font-size="10.00">/intrusive_list.hpp</text>
</a>
</g>
</g>
<!-- Node19&#45;&gt;Node24 -->
<g id="edge42_Node000019_Node000024" class="edge">
<title>Node19&#45;&gt;Node24</title>
<g id="a_edge42_Node000019_Node000024"><a xlink:title=" ">
<path fill="none" stroke="#63b8ff" d="M1360.99,-285.95C1316.58,-275.95 1256.78,-262.47 1210.48,-252.04"/>
<polygon fill="#63b8ff" stroke="#63b8ff" points="1211.05,-248.58 1200.52,-249.79 1209.51,-255.41 1211.05,-248.58"/>
</a>
</g>
</g>
<!-- Node25 -->
<g id="Node000025" class="node">
<title>Node25</title>
<g id="a_Node000025"><a xlink:title=" ">
<polygon fill="#e0e0e0" stroke="#999999" points="1282.32,-244.5 1218.32,-244.5 1218.32,-225.5 1282.32,-225.5 1282.32,-244.5"/>
<text text-anchor="middle" x="1250.32" y="-232.5" font-family="Helvetica,sans-Serif" font-size="10.00">algorithm</text>
</a>
</g>
</g>
<!-- Node19&#45;&gt;Node25 -->
<g id="edge44_Node000019_Node000025" class="edge">
<title>Node19&#45;&gt;Node25</title>
<g id="a_edge44_Node000019_Node000025"><a xlink:title=" ">
<path fill="none" stroke="#63b8ff" d="M1385.35,-285.95C1354.75,-274.63 1312.15,-258.88 1283.04,-248.1"/>
<polygon fill="#63b8ff" stroke="#63b8ff" points="1283.94,-244.7 1273.34,-244.52 1281.51,-251.27 1283.94,-244.7"/>
</a>
</g>
</g>
<!-- Node26 -->
<g id="Node000026" class="node">
<title>Node26</title>
<g id="a_Node000026"><a xlink:title=" ">
<polygon fill="#e0e0e0" stroke="#999999" points="1341.82,-244.5 1300.82,-244.5 1300.82,-225.5 1341.82,-225.5 1341.82,-244.5"/>
<text text-anchor="middle" x="1321.32" y="-232.5" font-family="Helvetica,sans-Serif" font-size="10.00">tuple</text>
</a>
</g>
</g>
<!-- Node19&#45;&gt;Node26 -->
<g id="edge47_Node000019_Node000026" class="edge">
<title>Node19&#45;&gt;Node26</title>
<g id="a_edge47_Node000019_Node000026"><a xlink:title=" ">
<path fill="none" stroke="#63b8ff" d="M1400.93,-285.95C1383.91,-275.27 1360.6,-260.65 1343.61,-249.98"/>
<polygon fill="#63b8ff" stroke="#63b8ff" points="1345.22,-246.87 1334.89,-244.52 1341.5,-252.8 1345.22,-246.87"/>
</a>
</g>
</g>
<!-- Node27 -->
<g id="Node000027" class="node">
<title>Node27</title>
<g id="a_Node000027"><a xlink:title=" ">
<polygon fill="#e0e0e0" stroke="#999999" points="1424.82,-244.5 1359.82,-244.5 1359.82,-225.5 1424.82,-225.5 1424.82,-244.5"/>
<text text-anchor="middle" x="1392.32" y="-232.5" font-family="Helvetica,sans-Serif" font-size="10.00">functional</text>
</a>
</g>
</g>
<!-- Node19&#45;&gt;Node27 -->
<g id="edge48_Node000019_Node000027" class="edge">
<title>Node19&#45;&gt;Node27</title>
<g id="a_edge48_Node000019_Node000027"><a xlink:title=" ">
<path fill="none" stroke="#63b8ff" d="M1416.44,-285.8C1411.89,-276.41 1405.89,-264.02 1401.01,-253.95"/>
<polygon fill="#63b8ff" stroke="#63b8ff" points="1404.11,-252.32 1396.6,-244.84 1397.81,-255.37 1404.11,-252.32"/>
</a>
</g>
</g>
<!-- Node28&#45;&gt;Node2 -->
<g id="edge50_Node000028_Node000002" class="edge">
<title>Node28&#45;&gt;Node2</title>
<g id="a_edge50_Node000028_Node000002"><a xlink:title=" ">
<path fill="none" stroke="#63b8ff" d="M2063.32,-351.96C2063.32,-328.12 2063.32,-278.2 2063.32,-236 2063.32,-236 2063.32,-236 2063.32,-173.5 2063.32,-86.55 588.04,-80.41 501.32,-74 495.42,-73.56 489.32,-73.1 483.19,-72.61"/>
<polygon fill="#63b8ff" stroke="#63b8ff" points="483.1,-69.09 472.85,-71.78 482.54,-76.07 483.1,-69.09"/>
</a>
</g>
</g>
<!-- Node28&#45;&gt;Node4 -->
<g id="edge51_Node000028_Node000004" class="edge">
<title>Node28&#45;&gt;Node4</title>
<g id="a_edge51_Node000028_Node000004"><a xlink:title=" ">
<path fill="none" stroke="#63b8ff" d="M2068.42,-351.78C2071.69,-341.89 2075.63,-328.32 2077.32,-316 2083.46,-271.3 2081.68,-245.29 2044.32,-220 1927.58,-140.98 932.49,-124.4 638.06,-121.21"/>
<polygon fill="#63b8ff" stroke="#63b8ff" points="637.92,-117.71 627.88,-121.1 637.85,-124.71 637.92,-117.71"/>
</a>
</g>
</g>
<!-- Node28&#45;&gt;Node12 -->
<g id="edge58_Node000028_Node000012" class="edge">
<title>Node28&#45;&gt;Node12</title>
<g id="a_edge58_Node000028_Node000012"><a xlink:title=" ">
<path fill="none" stroke="#63b8ff" d="M2066.71,-351.69C2072.79,-322.03 2081.67,-253.77 2044.32,-220 2029.89,-206.95 766.04,-180.73 542.06,-176.18"/>
<polygon fill="#63b8ff" stroke="#63b8ff" points="541.97,-172.68 531.9,-175.97 541.83,-179.68 541.97,-172.68"/>
</a>
</g>
</g>
<!-- Node28&#45;&gt;Node13 -->
<g id="edge55_Node000028_Node000013" class="edge">
<title>Node28&#45;&gt;Node13</title>
<g id="a_edge55_Node000028_Node000013"><a xlink:title=" ">
<path fill="none" stroke="#63b8ff" d="M2108.96,-351.87C2125.98,-344.14 2143.53,-332.64 2153.32,-316 2174.96,-279.23 2182.87,-250.78 2153.32,-220 2116.26,-181.4 1294.3,-176.27 1103.59,-175.6"/>
<polygon fill="#63b8ff" stroke="#63b8ff" points="1103.47,-172.1 1093.46,-175.57 1103.45,-179.1 1103.47,-172.1"/>
</a>
</g>
</g>
<!-- Node28&#45;&gt;Node14 -->
<g id="edge52_Node000028_Node000014" class="edge">
<title>Node28&#45;&gt;Node14</title>
<g id="a_edge52_Node000028_Node000014"><a xlink:title=" ">
<path fill="none" stroke="#63b8ff" d="M1991.15,-363.02C1734.63,-352.43 867.67,-316.63 595.67,-305.4"/>
<polygon fill="#63b8ff" stroke="#63b8ff" points="595.61,-301.89 585.47,-304.98 595.32,-308.89 595.61,-301.89"/>
</a>
</g>
</g>
<!-- Node28&#45;&gt;Node19 -->
<g id="edge53_Node000028_Node000019" class="edge">
<title>Node28&#45;&gt;Node19</title>
<g id="a_edge53_Node000028_Node000019"><a xlink:title=" ">
<path fill="none" stroke="#63b8ff" d="M1991.15,-358.78C1871.31,-346.8 1632,-322.87 1505.72,-310.24"/>
<polygon fill="#63b8ff" stroke="#63b8ff" points="1506.02,-306.75 1495.72,-309.24 1505.32,-313.72 1506.02,-306.75"/>
</a>
</g>
</g>
<!-- Node28&#45;&gt;Node23 -->
<g id="edge54_Node000028_Node000023" class="edge">
<title>Node28&#45;&gt;Node23</title>
<g id="a_edge54_Node000028_Node000023"><a xlink:title=" ">
<path fill="none" stroke="#63b8ff" d="M2053.63,-351.84C2038.24,-329.37 2008.11,-285.36 1989.74,-258.53"/>
<polygon fill="#63b8ff" stroke="#63b8ff" points="1992.54,-256.42 1984,-250.14 1986.76,-260.37 1992.54,-256.42"/>
</a>
</g>
</g>
<!-- Node29 -->
<g id="Node000029" class="node">
<title>Node29</title>
<g id="a_Node000029"><a xlink:title=" ">
<polygon fill="#e0e0e0" stroke="#999999" points="2291.32,-310.5 2205.32,-310.5 2205.32,-291.5 2291.32,-291.5 2291.32,-310.5"/>
<text text-anchor="middle" x="2248.32" y="-298.5" font-family="Helvetica,sans-Serif" font-size="10.00">shared_mutex</text>
</a>
</g>
</g>
<!-- Node28&#45;&gt;Node29 -->
<g id="edge56_Node000028_Node000029" class="edge">
<title>Node28&#45;&gt;Node29</title>
<g id="a_edge56_Node000028_Node000029"><a xlink:title=" ">
<path fill="none" stroke="#63b8ff" d="M2103.92,-351.95C2136.93,-340.53 2182.99,-324.6 2214.14,-313.82"/>
<polygon fill="#63b8ff" stroke="#63b8ff" points="2215.39,-317.09 2223.7,-310.52 2213.1,-310.48 2215.39,-317.09"/>
</a>
</g>
</g>
<!-- Node30 -->
<g id="Node000030" class="node">
<title>Node30</title>
<g id="a_Node000030"><a xlink:title=" ">
<polygon fill="#e0e0e0" stroke="#999999" points="2353.32,-310.5 2309.32,-310.5 2309.32,-291.5 2353.32,-291.5 2353.32,-310.5"/>
<text text-anchor="middle" x="2331.32" y="-298.5" font-family="Helvetica,sans-Serif" font-size="10.00">string</text>
</a>
</g>
</g>
<!-- Node28&#45;&gt;Node30 -->
<g id="edge57_Node000028_Node000030" class="edge">
<title>Node28&#45;&gt;Node30</title>
<g id="a_edge57_Node000028_Node000030"><a xlink:title=" ">
<path fill="none" stroke="#63b8ff" d="M2135.42,-354.97C2182.94,-346.68 2246.16,-333.71 2300.32,-316 2301.76,-315.53 2303.22,-315.01 2304.68,-314.46"/>
<polygon fill="#63b8ff" stroke="#63b8ff" points="2306.3,-317.58 2314.2,-310.53 2303.62,-311.12 2306.3,-317.58"/>
</a>
</g>
</g>
<!-- Node31 -->
<g id="Node000031" class="node">
<title>Node31</title>
<g id="a_Node000031"><a xlink:title=" ">
<polygon fill="#e0e0e0" stroke="#999999" points="1997.32,-310.5 1949.32,-310.5 1949.32,-291.5 1997.32,-291.5 1997.32,-310.5"/>
<text text-anchor="middle" x="1973.32" y="-298.5" font-family="Helvetica,sans-Serif" font-size="10.00">mutex</text>
</a>
</g>
</g>
<!-- Node28&#45;&gt;Node31 -->
<g id="edge59_Node000028_Node000031" class="edge">
<title>Node28&#45;&gt;Node31</title>
<g id="a_edge59_Node000028_Node000031"><a xlink:title=" ">
<path fill="none" stroke="#63b8ff" d="M2043.35,-351.8C2028.68,-341.37 2008.81,-327.24 1993.98,-316.69"/>
<polygon fill="#63b8ff" stroke="#63b8ff" points="1995.67,-313.6 1985.49,-310.66 1991.62,-319.31 1995.67,-313.6"/>
</a>
</g>
</g>
</g>
</svg>
