<?xml version="1.0" encoding="UTF-8" standalone="no"?>
<!DOCTYPE svg PUBLIC "-//W3C//DTD SVG 1.1//EN"
 "http://www.w3.org/Graphics/SVG/1.1/DTD/svg11.dtd">
<!-- Generated by graphviz version 2.43.0 (0)
 -->
<!-- Title: slick/orderbook/orderbook.hpp Pages: 1 -->
<!--zoomable 445 -->

<svg id="main" version="1.1" xmlns="http://www.w3.org/2000/svg" xmlns:xlink="http://www.w3.org/1999/xlink" xml:space="preserve" onload="init(evt)">
<style type="text/css"><![CDATA[
.node, .edge {opacity: 0.7;}
.node.selected, .edge.selected {opacity: 1;}
.edge:hover path { stroke: red; }
.edge:hover polygon { stroke: red; fill: red; }
]]></style>

<defs>
  <circle id="rim" cx="0" cy="0" r="7"/>
  <circle id="rim2" cx="0" cy="0" r="3.5"/>
  <g id="zoomPlus">
    <use xlink:href="#rim" fill="#404040"><set attributeName="fill" to="#808080" begin="zoomplus.mouseover" end="zoomplus.mouseout"/></use>
    <path d="M-4,0h8M0,-4v8" fill="none" stroke="white" stroke-width="1.5" pointer-events="none"/>
  </g>
  <g id="zoomMin">
    <use xlink:href="#rim" fill="#404040"><set attributeName="fill" to="#808080" begin="zoomminus.mouseover" end="zoomminus.mouseout"/></use>
    <path d="M-4,0h8" fill="none" stroke="white" stroke-width="1.5" pointer-events="none"/>
  </g>
  <g id="arrowUp" transform="translate(30 24)">
    <use xlink:href="#rim"/>
    <path pointer-events="none" fill="none" stroke="white" stroke-width="1.5" d="M0,-3.0v7 M-2.5,-0.5L0,-3.0L2.5,-0.5"/>
  </g>
  <g id="arrowRight" transform="rotate(90) translate(36 -43)">
    <use xlink:href="#rim"/>
    <path pointer-events="none" fill="none" stroke="white" stroke-width="1.5" d="M0,-3.0v7 M-2.5,-0.5L0,-3.0L2.5,-0.5"/>
  </g>
  <g id="arrowDown" transform="rotate(180) translate(-30 -48)">
    <use xlink:href="#rim"/>
    <path pointer-events="none" fill="none" stroke="white" stroke-width="1.5" d="M0,-3.0v7 M-2.5,-0.5L0,-3.0L2.5,-0.5"/>
  </g>
  <g id="arrowLeft" transform="rotate(270) translate(-36 17)">
    <use xlink:href="#rim"/>
    <path pointer-events="none" fill="none" stroke="white" stroke-width="1.5" d="M0,-3.0v7 M-2.5,-0.5L0,-3.0L2.5,-0.5"/>
  </g>
  <g id="resetDef">
    <use xlink:href="#rim2" fill="#404040"><set attributeName="fill" to="#808080" begin="reset.mouseover" end="reset.mouseout"/></use>
  </g>
</defs>
<script type="application/ecmascript">
var viewWidth = 2372;
var viewHeight = 445;
var sectionId = 'dynsection-0';
</script>
<script type="application/ecmascript" xlink:href="svg.min.js"/>
<svg id="graph" class="graph">
<g id="viewport">
<title>slick/orderbook/orderbook.hpp</title>
<!-- Node1 -->
<g id="Node000001" class="node">
<title>Node1</title>
<g id="a_Node000001"><a xlink:title=" ">
<polygon fill="#999999" stroke="#666666" points="648,-437 483,-437 483,-418 648,-418 648,-437"/>
<text text-anchor="middle" x="565.5" y="-425" font-family="Helvetica,sans-Serif" font-size="10.00">slick/orderbook/orderbook.hpp</text>
</a>
</g>
</g>
<!-- Node2 -->
<g id="Node000002" class="node">
<title>Node2</title>
<g id="a_Node000002"><a xlink:href="config_8hpp.html" target="_top" xlink:title=" ">
<polygon fill="white" stroke="#666666" points="670,-74 525,-74 525,-55 670,-55 670,-74"/>
<text text-anchor="middle" x="597.5" y="-62" font-family="Helvetica,sans-Serif" font-size="10.00">slick/orderbook/config.hpp</text>
</a>
</g>
</g>
<!-- Node1&#45;&gt;Node2 -->
<g id="edge1_Node000001_Node000002" class="edge">
<title>Node1&#45;&gt;Node2</title>
<g id="a_edge1_Node000001_Node000002"><a xlink:title=" ">
<path fill="none" stroke="#63b8ff" d="M648.03,-425.58C951.84,-422.02 1997.91,-407.97 2145.5,-382 2247.14,-364.11 2363.5,-405.21 2363.5,-302 2363.5,-302 2363.5,-302 2363.5,-173.5 2363.5,-88.05 1028.79,-69.55 680.05,-66.17"/>
<polygon fill="#63b8ff" stroke="#63b8ff" points="680.05,-62.67 670.02,-66.08 679.99,-69.67 680.05,-62.67"/>
</a>
</g>
</g>
<!-- Node4 -->
<g id="Node000004" class="node">
<title>Node4</title>
<g id="a_Node000004"><a xlink:href="types_8hpp.html" target="_top" xlink:title=" ">
<polygon fill="white" stroke="#666666" points="512,-129 369,-129 369,-110 512,-110 512,-129"/>
<text text-anchor="middle" x="440.5" y="-117" font-family="Helvetica,sans-Serif" font-size="10.00">slick/orderbook/types.hpp</text>
</a>
</g>
</g>
<!-- Node1&#45;&gt;Node4 -->
<g id="edge3_Node000001_Node000004" class="edge">
<title>Node1&#45;&gt;Node4</title>
<g id="a_edge3_Node000001_Node000004"><a xlink:title=" ">
<path fill="none" stroke="#63b8ff" d="M491.8,-417.94C454.34,-411.55 408.95,-400.59 371.5,-382 302.84,-347.92 277.66,-324.71 260.5,-250 251.71,-211.74 254.95,-190.84 284.5,-165 305.18,-146.92 332.75,-136.15 358.95,-129.76"/>
<polygon fill="#63b8ff" stroke="#63b8ff" points="359.92,-133.12 368.91,-127.51 358.38,-126.29 359.92,-133.12"/>
</a>
</g>
</g>
<!-- Node7 -->
<g id="Node000007" class="node">
<title>Node7</title>
<g id="a_Node000007"><a xlink:href="concepts_8hpp.html" target="_top" xlink:title=" ">
<polygon fill="white" stroke="#666666" points="159,-184 0,-184 0,-165 159,-165 159,-184"/>
<text text-anchor="middle" x="79.5" y="-172" font-family="Helvetica,sans-Serif" font-size="10.00">slick/orderbook/concepts.hpp</text>
</a>
</g>
</g>
<!-- Node1&#45;&gt;Node7 -->
<g id="edge7_Node000001_Node000007" class="edge">
<title>Node1&#45;&gt;Node7</title>
<g id="a_edge7_Node000001_Node000007"><a xlink:title=" ">
<path fill="none" stroke="#63b8ff" d="M482.86,-422.97C365.12,-417.2 160.39,-404.1 134.5,-382 78.28,-334 76.26,-235.61 78.12,-194.36"/>
<polygon fill="#63b8ff" stroke="#63b8ff" points="81.62,-194.52 78.71,-184.33 74.63,-194.11 81.62,-194.52"/>
</a>
</g>
</g>
<!-- Node10 -->
<g id="Node000010" class="node">
<title>Node10</title>
<g id="a_Node000010"><a xlink:href="events_8hpp.html" target="_top" xlink:title=" ">
<polygon fill="white" stroke="#666666" points="533,-184 384,-184 384,-165 533,-165 533,-184"/>
<text text-anchor="middle" x="458.5" y="-172" font-family="Helvetica,sans-Serif" font-size="10.00">slick/orderbook/events.hpp</text>
</a>
</g>
</g>
<!-- Node1&#45;&gt;Node10 -->
<g id="edge12_Node000001_Node000010" class="edge">
<title>Node1&#45;&gt;Node10</title>
<g id="a_edge12_Node000001_Node000010"><a xlink:title=" ">
<path fill="none" stroke="#63b8ff" d="M530.91,-417.94C465.81,-399.74 326.53,-350.41 269.5,-250 243.51,-204.25 312.01,-186.52 373.69,-179.69"/>
<polygon fill="#63b8ff" stroke="#63b8ff" points="374.31,-183.14 383.91,-178.65 373.6,-176.18 374.31,-183.14"/>
</a>
</g>
</g>
<!-- Node11 -->
<g id="Node000011" class="node">
<title>Node11</title>
<g id="a_Node000011"><a xlink:href="observer_8hpp.html" target="_top" xlink:title=" ">
<polygon fill="white" stroke="#666666" points="588.5,-244.5 430.5,-244.5 430.5,-225.5 588.5,-225.5 588.5,-244.5"/>
<text text-anchor="middle" x="509.5" y="-232.5" font-family="Helvetica,sans-Serif" font-size="10.00">slick/orderbook/observer.hpp</text>
</a>
</g>
</g>
<!-- Node1&#45;&gt;Node11 -->
<g id="edge15_Node000001_Node000011" class="edge">
<title>Node1&#45;&gt;Node11</title>
<g id="a_edge15_Node000001_Node000011"><a xlink:title=" ">
<path fill="none" stroke="#63b8ff" d="M562.95,-417.82C554.42,-388.81 526.79,-294.8 514.96,-254.56"/>
<polygon fill="#63b8ff" stroke="#63b8ff" points="518.24,-253.34 512.07,-244.73 511.53,-255.31 518.24,-253.34"/>
</a>
</g>
</g>
<!-- Node14 -->
<g id="Node000014" class="node">
<title>Node14</title>
<g id="a_Node000014"><a xlink:href="orderbook__l2_8hpp.html" target="_top" xlink:title=" ">
<polygon fill="white" stroke="#666666" points="688.5,-316 544.5,-316 544.5,-286 688.5,-286 688.5,-316"/>
<text text-anchor="start" x="552.5" y="-304" font-family="Helvetica,sans-Serif" font-size="10.00">slick/orderbook/orderbook</text>
<text text-anchor="middle" x="616.5" y="-293" font-family="Helvetica,sans-Serif" font-size="10.00">_l2.hpp</text>
</a>
</g>
</g>
<!-- Node1&#45;&gt;Node14 -->
<g id="edge21_Node000001_Node000014" class="edge">
<title>Node1&#45;&gt;Node14</title>
<g id="a_edge21_Node000001_Node000014"><a xlink:title=" ">
<path fill="none" stroke="#63b8ff" d="M569.01,-417.94C576.7,-399.15 595.31,-353.73 606.81,-325.64"/>
<polygon fill="#63b8ff" stroke="#63b8ff" points="610.15,-326.74 610.7,-316.16 603.67,-324.09 610.15,-326.74"/>
</a>
</g>
</g>
<!-- Node18 -->
<g id="Node000018" class="node">
<title>Node18</title>
<g id="a_Node000018"><a xlink:href="orderbook__l3_8hpp.html" target="_top" xlink:title=" ">
<polygon fill="white" stroke="#666666" points="1465.5,-316 1321.5,-316 1321.5,-286 1465.5,-286 1465.5,-316"/>
<text text-anchor="start" x="1329.5" y="-304" font-family="Helvetica,sans-Serif" font-size="10.00">slick/orderbook/orderbook</text>
<text text-anchor="middle" x="1393.5" y="-293" font-family="Helvetica,sans-Serif" font-size="10.00">_l3.hpp</text>
</a>
</g>
</g>
<!-- Node1&#45;&gt;Node18 -->
<g id="edge31_Node000001_Node000018" class="edge">
<title>Node1&#45;&gt;Node18</title>
<g id="a_edge31_Node000001_Node000018"><a xlink:title=" ">
<path fill="none" stroke="#63b8ff" d="M622.09,-417.99C765.48,-396.43 1143.62,-339.57 1311.36,-314.35"/>
<polygon fill="#63b8ff" stroke="#63b8ff" points="1312,-317.79 1321.37,-312.85 1310.96,-310.87 1312,-317.79"/>
</a>
</g>
</g>
<!-- Node27 -->
<g id="Node000027" class="node">
<title>Node27</title>
<g id="a_Node000027"><a xlink:href="orderbook__manager_8hpp.html" target="_top" xlink:title=" ">
<polygon fill="white" stroke="#666666" points="2136.5,-382 1992.5,-382 1992.5,-352 2136.5,-352 2136.5,-382"/>
<text text-anchor="start" x="2000.5" y="-370" font-family="Helvetica,sans-Serif" font-size="10.00">slick/orderbook/orderbook</text>
<text text-anchor="middle" x="2064.5" y="-359" font-family="Helvetica,sans-Serif" font-size="10.00">_manager.hpp</text>
</a>
</g>
</g>
<!-- Node1&#45;&gt;Node27 -->
<g id="edge48_Node000001_Node000027" class="edge">
<title>Node1&#45;&gt;Node27</title>
<g id="a_edge48_Node000001_Node000027"><a xlink:title=" ">
<path fill="none" stroke="#63b8ff" d="M648.23,-423.27C910.33,-413.04 1720.48,-381.43 1982.11,-371.22"/>
<polygon fill="#63b8ff" stroke="#63b8ff" points="1982.44,-374.71 1992.3,-370.82 1982.17,-367.71 1982.44,-374.71"/>
</a>
</g>
</g>
<!-- Node3 -->
<g id="Node000003" class="node">
<title>Node3</title>
<g id="a_Node000003"><a xlink:title=" ">
<polygon fill="#e0e0e0" stroke="#999999" points="623.5,-19 571.5,-19 571.5,0 623.5,0 623.5,-19"/>
<text text-anchor="middle" x="597.5" y="-7" font-family="Helvetica,sans-Serif" font-size="10.00">cassert</text>
</a>
</g>
</g>
<!-- Node2&#45;&gt;Node3 -->
<g id="edge2_Node000002_Node000003" class="edge">
<title>Node2&#45;&gt;Node3</title>
<g id="a_edge2_Node000002_Node000003"><a xlink:title=" ">
<path fill="none" stroke="#63b8ff" d="M597.5,-54.75C597.5,-47.8 597.5,-37.85 597.5,-29.13"/>
<polygon fill="#63b8ff" stroke="#63b8ff" points="601,-29.09 597.5,-19.09 594,-29.09 601,-29.09"/>
</a>
</g>
</g>
<!-- Node4&#45;&gt;Node2 -->
<g id="edge4_Node000004_Node000002" class="edge">
<title>Node4&#45;&gt;Node2</title>
<g id="a_edge4_Node000004_Node000002"><a xlink:title=" ">
<path fill="none" stroke="#63b8ff" d="M465.72,-109.98C491.86,-101.16 532.9,-87.31 562.23,-77.41"/>
<polygon fill="#63b8ff" stroke="#63b8ff" points="563.72,-80.6 572.08,-74.08 561.48,-73.96 563.72,-80.6"/>
</a>
</g>
</g>
<!-- Node5 -->
<g id="Node000005" class="node">
<title>Node5</title>
<g id="a_Node000005"><a xlink:title=" ">
<polygon fill="#e0e0e0" stroke="#999999" points="390.5,-74 340.5,-74 340.5,-55 390.5,-55 390.5,-74"/>
<text text-anchor="middle" x="365.5" y="-62" font-family="Helvetica,sans-Serif" font-size="10.00">cstdint</text>
</a>
</g>
</g>
<!-- Node4&#45;&gt;Node5 -->
<g id="edge5_Node000004_Node000005" class="edge">
<title>Node4&#45;&gt;Node5</title>
<g id="a_edge5_Node000004_Node000005"><a xlink:title=" ">
<path fill="none" stroke="#63b8ff" d="M428.45,-109.98C417.04,-101.92 399.67,-89.65 386.07,-80.03"/>
<polygon fill="#63b8ff" stroke="#63b8ff" points="387.96,-77.08 377.77,-74.17 383.92,-82.8 387.96,-77.08"/>
</a>
</g>
</g>
<!-- Node6 -->
<g id="Node000006" class="node">
<title>Node6</title>
<g id="a_Node000006"><a xlink:title=" ">
<polygon fill="#e0e0e0" stroke="#999999" points="482,-74 409,-74 409,-55 482,-55 482,-74"/>
<text text-anchor="middle" x="445.5" y="-62" font-family="Helvetica,sans-Serif" font-size="10.00">string_view</text>
</a>
</g>
</g>
<!-- Node4&#45;&gt;Node6 -->
<g id="edge6_Node000004_Node000006" class="edge">
<title>Node4&#45;&gt;Node6</title>
<g id="a_edge6_Node000004_Node000006"><a xlink:title=" ">
<path fill="none" stroke="#63b8ff" d="M441.33,-109.75C441.98,-102.8 442.92,-92.85 443.74,-84.13"/>
<polygon fill="#63b8ff" stroke="#63b8ff" points="447.23,-84.37 444.69,-74.09 440.27,-83.72 447.23,-84.37"/>
</a>
</g>
</g>
<!-- Node7&#45;&gt;Node2 -->
<g id="edge8_Node000007_Node000002" class="edge">
<title>Node7&#45;&gt;Node2</title>
<g id="a_edge8_Node000007_Node000002"><a xlink:title=" ">
<path fill="none" stroke="#63b8ff" d="M115.21,-164.94C168.33,-152.32 271.39,-128.22 359.5,-110 420.41,-97.4 490.43,-84.5 538.67,-75.85"/>
<polygon fill="#63b8ff" stroke="#63b8ff" points="539.39,-79.28 548.62,-74.08 538.16,-72.39 539.39,-79.28"/>
</a>
</g>
</g>
<!-- Node7&#45;&gt;Node4 -->
<g id="edge9_Node000007_Node000004" class="edge">
<title>Node7&#45;&gt;Node4</title>
<g id="a_edge9_Node000007_Node000004"><a xlink:title=" ">
<path fill="none" stroke="#63b8ff" d="M137.5,-164.98C201.48,-155.59 304.35,-140.49 372.18,-130.53"/>
<polygon fill="#63b8ff" stroke="#63b8ff" points="372.96,-133.95 382.34,-129.04 371.94,-127.03 372.96,-133.95"/>
</a>
</g>
</g>
<!-- Node8 -->
<g id="Node000008" class="node">
<title>Node8</title>
<g id="a_Node000008"><a xlink:title=" ">
<polygon fill="#e0e0e0" stroke="#999999" points="68.5,-129 8.5,-129 8.5,-110 68.5,-110 68.5,-129"/>
<text text-anchor="middle" x="38.5" y="-117" font-family="Helvetica,sans-Serif" font-size="10.00">concepts</text>
</a>
</g>
</g>
<!-- Node7&#45;&gt;Node8 -->
<g id="edge10_Node000007_Node000008" class="edge">
<title>Node7&#45;&gt;Node8</title>
<g id="a_edge10_Node000007_Node000008"><a xlink:title=" ">
<path fill="none" stroke="#63b8ff" d="M72.73,-164.75C66.94,-157.26 58.44,-146.28 51.36,-137.13"/>
<polygon fill="#63b8ff" stroke="#63b8ff" points="54.03,-134.86 45.14,-129.09 48.49,-139.14 54.03,-134.86"/>
</a>
</g>
</g>
<!-- Node9 -->
<g id="Node000009" class="node">
<title>Node9</title>
<g id="a_Node000009"><a xlink:title=" ">
<polygon fill="#e0e0e0" stroke="#999999" points="156,-129 87,-129 87,-110 156,-110 156,-129"/>
<text text-anchor="middle" x="121.5" y="-117" font-family="Helvetica,sans-Serif" font-size="10.00">type_traits</text>
</a>
</g>
</g>
<!-- Node7&#45;&gt;Node9 -->
<g id="edge11_Node000007_Node000009" class="edge">
<title>Node7&#45;&gt;Node9</title>
<g id="a_edge11_Node000007_Node000009"><a xlink:title=" ">
<path fill="none" stroke="#63b8ff" d="M86.44,-164.75C92.37,-157.26 101.07,-146.28 108.32,-137.13"/>
<polygon fill="#63b8ff" stroke="#63b8ff" points="111.23,-139.1 114.69,-129.09 105.74,-134.75 111.23,-139.1"/>
</a>
</g>
</g>
<!-- Node10&#45;&gt;Node2 -->
<g id="edge13_Node000010_Node000002" class="edge">
<title>Node10&#45;&gt;Node2</title>
<g id="a_edge13_Node000010_Node000002"><a xlink:title=" ">
<path fill="none" stroke="#63b8ff" d="M471.27,-164.93C484.15,-156.18 504.52,-142.06 521.5,-129 541.97,-113.26 564.58,-94.13 579.77,-81.01"/>
<polygon fill="#63b8ff" stroke="#63b8ff" points="582.13,-83.6 587.39,-74.4 577.54,-78.31 582.13,-83.6"/>
</a>
</g>
</g>
<!-- Node10&#45;&gt;Node4 -->
<g id="edge14_Node000010_Node000004" class="edge">
<title>Node10&#45;&gt;Node4</title>
<g id="a_edge14_Node000010_Node000004"><a xlink:title=" ">
<path fill="none" stroke="#63b8ff" d="M455.53,-164.75C453.14,-157.72 449.71,-147.62 446.73,-138.84"/>
<polygon fill="#63b8ff" stroke="#63b8ff" points="449.95,-137.43 443.42,-129.09 443.32,-139.68 449.95,-137.43"/>
</a>
</g>
</g>
<!-- Node11&#45;&gt;Node2 -->
<g id="edge16_Node000011_Node000002" class="edge">
<title>Node11&#45;&gt;Node2</title>
<g id="a_edge16_Node000011_Node000002"><a xlink:title=" ">
<path fill="none" stroke="#63b8ff" d="M515.51,-225.36C522.22,-215.55 533.22,-198.97 541.5,-184 560.7,-149.3 579.72,-106.91 589.9,-83.4"/>
<polygon fill="#63b8ff" stroke="#63b8ff" points="593.2,-84.59 593.92,-74.02 586.76,-81.83 593.2,-84.59"/>
</a>
</g>
</g>
<!-- Node11&#45;&gt;Node7 -->
<g id="edge18_Node000011_Node000007" class="edge">
<title>Node11&#45;&gt;Node7</title>
<g id="a_edge18_Node000011_Node000007"><a xlink:title=" ">
<path fill="none" stroke="#63b8ff" d="M457.42,-225.46C445.62,-223.6 433.14,-221.68 421.5,-220 331.98,-207.06 229.01,-193.89 159.65,-185.28"/>
<polygon fill="#63b8ff" stroke="#63b8ff" points="160.02,-181.8 149.66,-184.04 159.16,-188.74 160.02,-181.8"/>
</a>
</g>
</g>
<!-- Node11&#45;&gt;Node10 -->
<g id="edge17_Node000011_Node000010" class="edge">
<title>Node11&#45;&gt;Node10</title>
<g id="a_edge17_Node000011_Node000010"><a xlink:title=" ">
<path fill="none" stroke="#63b8ff" d="M501.97,-225.37C494.29,-216.55 482.18,-202.66 472.69,-191.77"/>
<polygon fill="#63b8ff" stroke="#63b8ff" points="475.27,-189.41 466.06,-184.17 469.99,-194.01 475.27,-189.41"/>
</a>
</g>
</g>
<!-- Node12 -->
<g id="Node000012" class="node">
<title>Node12</title>
<g id="a_Node000012"><a xlink:title=" ">
<polygon fill="#e0e0e0" stroke="#999999" points="1379,-184 1332,-184 1332,-165 1379,-165 1379,-184"/>
<text text-anchor="middle" x="1355.5" y="-172" font-family="Helvetica,sans-Serif" font-size="10.00">vector</text>
</a>
</g>
</g>
<!-- Node11&#45;&gt;Node12 -->
<g id="edge19_Node000011_Node000012" class="edge">
<title>Node11&#45;&gt;Node12</title>
<g id="a_edge19_Node000011_Node000012"><a xlink:title=" ">
<path fill="none" stroke="#63b8ff" d="M588.58,-227.17C616.93,-224.79 649.14,-222.18 678.5,-220 925.29,-201.67 1222.98,-183.45 1321.81,-177.51"/>
<polygon fill="#63b8ff" stroke="#63b8ff" points="1322.03,-181 1331.81,-176.91 1321.61,-174.02 1322.03,-181"/>
</a>
</g>
</g>
<!-- Node13 -->
<g id="Node000013" class="node">
<title>Node13</title>
<g id="a_Node000013"><a xlink:title=" ">
<polygon fill="#e0e0e0" stroke="#999999" points="821.5,-184 763.5,-184 763.5,-165 821.5,-165 821.5,-184"/>
<text text-anchor="middle" x="792.5" y="-172" font-family="Helvetica,sans-Serif" font-size="10.00">memory</text>
</a>
</g>
</g>
<!-- Node11&#45;&gt;Node13 -->
<g id="edge20_Node000011_Node000013" class="edge">
<title>Node11&#45;&gt;Node13</title>
<g id="a_edge20_Node000011_Node000013"><a xlink:title=" ">
<path fill="none" stroke="#63b8ff" d="M550.65,-225.49C604.98,-214.26 699.96,-194.63 753.29,-183.6"/>
<polygon fill="#63b8ff" stroke="#63b8ff" points="754.3,-186.97 763.38,-181.52 752.88,-180.12 754.3,-186.97"/>
</a>
</g>
</g>
<!-- Node14&#45;&gt;Node2 -->
<g id="edge22_Node000014_Node000002" class="edge">
<title>Node14&#45;&gt;Node2</title>
<g id="a_edge22_Node000014_Node000002"><a xlink:title=" ">
<path fill="none" stroke="#63b8ff" d="M615.34,-285.68C612.06,-245.25 602.74,-130.17 599.04,-84.51"/>
<polygon fill="#63b8ff" stroke="#63b8ff" points="602.51,-83.94 598.21,-74.26 595.53,-84.51 602.51,-83.94"/>
</a>
</g>
</g>
<!-- Node14&#45;&gt;Node4 -->
<g id="edge23_Node000014_Node000004" class="edge">
<title>Node14&#45;&gt;Node4</title>
<g id="a_edge23_Node000014_Node000004"><a xlink:title=" ">
<path fill="none" stroke="#63b8ff" d="M544.35,-300.23C453.29,-298.81 304.32,-290.2 269.5,-250 223.91,-197.36 336.16,-152.53 399.99,-132.18"/>
<polygon fill="#63b8ff" stroke="#63b8ff" points="401.28,-135.45 409.78,-129.13 399.2,-128.76 401.28,-135.45"/>
</a>
</g>
</g>
<!-- Node14&#45;&gt;Node10 -->
<g id="edge24_Node000014_Node000010" class="edge">
<title>Node14&#45;&gt;Node10</title>
<g id="a_edge24_Node000014_Node000010"><a xlink:title=" ">
<path fill="none" stroke="#63b8ff" d="M544.16,-299.79C456.02,-297.82 314.71,-288.53 281.5,-250 249.18,-212.5 313.9,-193.44 373.96,-184.04"/>
<polygon fill="#63b8ff" stroke="#63b8ff" points="374.55,-187.49 383.93,-182.56 373.53,-180.57 374.55,-187.49"/>
</a>
</g>
</g>
<!-- Node14&#45;&gt;Node11 -->
<g id="edge25_Node000014_Node000011" class="edge">
<title>Node14&#45;&gt;Node11</title>
<g id="a_edge25_Node000014_Node000011"><a xlink:title=" ">
<path fill="none" stroke="#63b8ff" d="M593.02,-285.95C575,-275.18 550.26,-260.38 532.39,-249.69"/>
<polygon fill="#63b8ff" stroke="#63b8ff" points="534.12,-246.65 523.74,-244.52 530.53,-252.65 534.12,-246.65"/>
</a>
</g>
</g>
<!-- Node14&#45;&gt;Node12 -->
<g id="edge29_Node000014_Node000012" class="edge">
<title>Node14&#45;&gt;Node12</title>
<g id="a_edge29_Node000014_Node000012"><a xlink:title=" ">
<path fill="none" stroke="#63b8ff" d="M633.99,-285.94C646.26,-276.01 663,-262.33 677.5,-250 692.85,-236.94 692.91,-227.77 711.5,-220 823.3,-173.26 1205.75,-173.73 1321.83,-175"/>
<polygon fill="#63b8ff" stroke="#63b8ff" points="1321.86,-178.51 1331.9,-175.12 1321.94,-171.51 1321.86,-178.51"/>
</a>
</g>
</g>
<!-- Node14&#45;&gt;Node13 -->
<g id="edge28_Node000014_Node000013" class="edge">
<title>Node14&#45;&gt;Node13</title>
<g id="a_edge28_Node000014_Node000013"><a xlink:title=" ">
<path fill="none" stroke="#63b8ff" d="M624.15,-285.96C634.4,-268.34 654.15,-238.2 678.5,-220 700.74,-203.38 729.97,-192.13 753.27,-185.1"/>
<polygon fill="#63b8ff" stroke="#63b8ff" points="754.54,-188.38 763.18,-182.26 752.6,-181.65 754.54,-188.38"/>
</a>
</g>
</g>
<!-- Node15 -->
<g id="Node000015" class="node">
<title>Node15</title>
<g id="a_Node000015"><a xlink:title=" ">
<polygon fill="#e0e0e0" stroke="#999999" points="842.5,-250 720.5,-250 720.5,-220 842.5,-220 842.5,-250"/>
<text text-anchor="start" x="728.5" y="-238" font-family="Helvetica,sans-Serif" font-size="10.00">slick/orderbook/detail</text>
<text text-anchor="middle" x="781.5" y="-227" font-family="Helvetica,sans-Serif" font-size="10.00">/price_level.hpp</text>
</a>
</g>
</g>
<!-- Node14&#45;&gt;Node15 -->
<g id="edge26_Node000014_Node000015" class="edge">
<title>Node14&#45;&gt;Node15</title>
<g id="a_edge26_Node000014_Node000015"><a xlink:title=" ">
<path fill="none" stroke="#63b8ff" d="M652.71,-285.95C677.21,-276.45 709.77,-263.82 736.02,-253.64"/>
<polygon fill="#63b8ff" stroke="#63b8ff" points="737.32,-256.89 745.37,-250.01 734.79,-250.37 737.32,-256.89"/>
</a>
</g>
</g>
<!-- Node16 -->
<g id="Node000016" class="node">
<title>Node16</title>
<g id="a_Node000016"><a xlink:title=" ">
<polygon fill="#e0e0e0" stroke="#999999" points="412.5,-250 290.5,-250 290.5,-220 412.5,-220 412.5,-250"/>
<text text-anchor="start" x="298.5" y="-238" font-family="Helvetica,sans-Serif" font-size="10.00">slick/orderbook/detail</text>
<text text-anchor="middle" x="351.5" y="-227" font-family="Helvetica,sans-Serif" font-size="10.00">/level_container.hpp</text>
</a>
</g>
</g>
<!-- Node14&#45;&gt;Node16 -->
<g id="edge27_Node000014_Node000016" class="edge">
<title>Node14&#45;&gt;Node16</title>
<g id="a_edge27_Node000014_Node000016"><a xlink:title=" ">
<path fill="none" stroke="#63b8ff" d="M558.34,-285.95C517.35,-276.06 462.33,-262.77 419.34,-252.38"/>
<polygon fill="#63b8ff" stroke="#63b8ff" points="420.06,-248.96 409.52,-250.01 418.42,-255.76 420.06,-248.96"/>
</a>
</g>
</g>
<!-- Node17 -->
<g id="Node000017" class="node">
<title>Node17</title>
<g id="a_Node000017"><a xlink:title=" ">
<polygon fill="#e0e0e0" stroke="#999999" points="902.5,-244.5 860.5,-244.5 860.5,-225.5 902.5,-225.5 902.5,-244.5"/>
<text text-anchor="middle" x="881.5" y="-232.5" font-family="Helvetica,sans-Serif" font-size="10.00">array</text>
</a>
</g>
</g>
<!-- Node14&#45;&gt;Node17 -->
<g id="edge30_Node000014_Node000017" class="edge">
<title>Node14&#45;&gt;Node17</title>
<g id="a_edge30_Node000014_Node000017"><a xlink:title=" ">
<path fill="none" stroke="#63b8ff" d="M688.58,-289.03C735.67,-280.81 798.1,-267.88 851.5,-250 852.9,-249.53 854.31,-249.02 855.73,-248.47"/>
<polygon fill="#63b8ff" stroke="#63b8ff" points="857.13,-251.68 864.96,-244.54 854.38,-245.24 857.13,-251.68"/>
</a>
</g>
</g>
<!-- Node18&#45;&gt;Node2 -->
<g id="edge32_Node000018_Node000002" class="edge">
<title>Node18&#45;&gt;Node2</title>
<g id="a_edge32_Node000018_Node000002"><a xlink:title=" ">
<path fill="none" stroke="#63b8ff" d="M1465.54,-297.26C1587.38,-291.89 1823.44,-277.96 1848.5,-250 1857.4,-240.07 1857.33,-229.99 1848.5,-220 1770.86,-132.19 946.98,-83.14 680.29,-69.48"/>
<polygon fill="#63b8ff" stroke="#63b8ff" points="680.45,-65.98 670.28,-68.97 680.09,-72.98 680.45,-65.98"/>
</a>
</g>
</g>
<!-- Node18&#45;&gt;Node4 -->
<g id="edge33_Node000018_Node000004" class="edge">
<title>Node18&#45;&gt;Node4</title>
<g id="a_edge33_Node000018_Node000004"><a xlink:title=" ">
<path fill="none" stroke="#63b8ff" d="M1321.44,-295.5C1221.55,-288.53 1046.6,-273.41 987.5,-250 966.51,-241.69 965.9,-231.55 946.5,-220 897.48,-190.8 885.36,-180.67 830.5,-165 726.81,-135.39 602.31,-125.38 522.33,-122.06"/>
<polygon fill="#63b8ff" stroke="#63b8ff" points="522.45,-118.56 512.32,-121.67 522.17,-125.55 522.45,-118.56"/>
</a>
</g>
</g>
<!-- Node18&#45;&gt;Node10 -->
<g id="edge34_Node000018_Node000010" class="edge">
<title>Node18&#45;&gt;Node10</title>
<g id="a_edge34_Node000018_Node000010"><a xlink:title=" ">
<path fill="none" stroke="#63b8ff" d="M1321.47,-296.09C1214.67,-289.58 1019.89,-274.71 954.5,-250 932.7,-241.76 933.36,-228.07 911.5,-220 846.08,-195.86 655.55,-183.85 543.52,-178.72"/>
<polygon fill="#63b8ff" stroke="#63b8ff" points="543.41,-175.22 533.26,-178.26 543.09,-182.21 543.41,-175.22"/>
</a>
</g>
</g>
<!-- Node18&#45;&gt;Node11 -->
<g id="edge35_Node000018_Node000011" class="edge">
<title>Node18&#45;&gt;Node11</title>
<g id="a_edge35_Node000018_Node000011"><a xlink:title=" ">
<path fill="none" stroke="#63b8ff" d="M1321.16,-294.76C1160.45,-283.13 774.1,-255.16 598.75,-242.46"/>
<polygon fill="#63b8ff" stroke="#63b8ff" points="598.76,-238.95 588.53,-241.72 598.25,-245.93 598.76,-238.95"/>
</a>
</g>
</g>
<!-- Node18&#45;&gt;Node12 -->
<g id="edge44_Node000018_Node000012" class="edge">
<title>Node18&#45;&gt;Node12</title>
<g id="a_edge44_Node000018_Node000012"><a xlink:title=" ">
<path fill="none" stroke="#63b8ff" d="M1465.7,-300.75C1564.6,-299.37 1723.69,-287.14 1665.5,-220 1630.03,-179.08 1462.06,-174.9 1389.27,-175.06"/>
<polygon fill="#63b8ff" stroke="#63b8ff" points="1389.23,-171.56 1379.25,-175.11 1389.27,-178.56 1389.23,-171.56"/>
</a>
</g>
</g>
<!-- Node18&#45;&gt;Node13 -->
<g id="edge42_Node000018_Node000013" class="edge">
<title>Node18&#45;&gt;Node13</title>
<g id="a_edge42_Node000018_Node000013"><a xlink:title=" ">
<path fill="none" stroke="#63b8ff" d="M1465.59,-297.75C1553.79,-292.59 1685.27,-275.64 1632.5,-220 1604.63,-190.61 994.07,-178.74 831.81,-176.09"/>
<polygon fill="#63b8ff" stroke="#63b8ff" points="831.83,-172.59 821.78,-175.93 831.72,-179.59 831.83,-172.59"/>
</a>
</g>
</g>
<!-- Node18&#45;&gt;Node15 -->
<g id="edge36_Node000018_Node000015" class="edge">
<title>Node18&#45;&gt;Node15</title>
<g id="a_edge36_Node000018_Node000015"><a xlink:title=" ">
<path fill="none" stroke="#63b8ff" d="M1321.32,-295.77C1219.16,-289.24 1026.4,-274.95 852.62,-250.06"/>
<polygon fill="#63b8ff" stroke="#63b8ff" points="852.92,-246.57 842.52,-248.6 851.91,-253.49 852.92,-246.57"/>
</a>
</g>
</g>
<!-- Node18&#45;&gt;Node17 -->
<g id="edge45_Node000018_Node000017" class="edge">
<title>Node18&#45;&gt;Node17</title>
<g id="a_edge45_Node000018_Node000017"><a xlink:title=" ">
<path fill="none" stroke="#63b8ff" d="M1321.32,-298.6C1226.96,-295.38 1057.14,-284.79 916.5,-250 914.2,-249.43 911.84,-248.74 909.5,-247.98"/>
<polygon fill="#63b8ff" stroke="#63b8ff" points="910.67,-244.68 900.08,-244.53 908.27,-251.25 910.67,-244.68"/>
</a>
</g>
</g>
<!-- Node19 -->
<g id="Node000019" class="node">
<title>Node19</title>
<g id="a_Node000019"><a xlink:title=" ">
<polygon fill="#e0e0e0" stroke="#999999" points="1839.5,-250 1717.5,-250 1717.5,-220 1839.5,-220 1839.5,-250"/>
<text text-anchor="start" x="1725.5" y="-238" font-family="Helvetica,sans-Serif" font-size="10.00">slick/orderbook/detail</text>
<text text-anchor="middle" x="1778.5" y="-227" font-family="Helvetica,sans-Serif" font-size="10.00">/order.hpp</text>
</a>
</g>
</g>
<!-- Node18&#45;&gt;Node19 -->
<g id="edge37_Node000018_Node000019" class="edge">
<title>Node18&#45;&gt;Node19</title>
<g id="a_edge37_Node000018_Node000019"><a xlink:title=" ">
<path fill="none" stroke="#63b8ff" d="M1465.62,-288.88C1528.5,-279.07 1622.13,-264.15 1703.5,-250 1704.75,-249.78 1706.01,-249.56 1707.28,-249.34"/>
<polygon fill="#63b8ff" stroke="#63b8ff" points="1707.9,-252.78 1717.13,-247.58 1706.67,-245.89 1707.9,-252.78"/>
</a>
</g>
</g>
<!-- Node20 -->
<g id="Node000020" class="node">
<title>Node20</title>
<g id="a_Node000020"><a xlink:title=" ">
<polygon fill="#e0e0e0" stroke="#999999" points="1118.5,-250 996.5,-250 996.5,-220 1118.5,-220 1118.5,-250"/>
<text text-anchor="start" x="1004.5" y="-238" font-family="Helvetica,sans-Serif" font-size="10.00">slick/orderbook/detail</text>
<text text-anchor="middle" x="1057.5" y="-227" font-family="Helvetica,sans-Serif" font-size="10.00">/order_map.hpp</text>
</a>
</g>
</g>
<!-- Node18&#45;&gt;Node20 -->
<g id="edge38_Node000018_Node000020" class="edge">
<title>Node18&#45;&gt;Node20</title>
<g id="a_edge38_Node000018_Node000020"><a xlink:title=" ">
<path fill="none" stroke="#63b8ff" d="M1321.48,-286.7C1270.35,-277.2 1199.8,-263.98 1128.62,-250.21"/>
<polygon fill="#63b8ff" stroke="#63b8ff" points="1129.06,-246.73 1118.58,-248.26 1127.73,-253.6 1129.06,-246.73"/>
</a>
</g>
</g>
<!-- Node21 -->
<g id="Node000021" class="node">
<title>Node21</title>
<g id="a_Node000021"><a xlink:title=" ">
<polygon fill="#e0e0e0" stroke="#999999" points="1258.5,-250 1136.5,-250 1136.5,-220 1258.5,-220 1258.5,-250"/>
<text text-anchor="start" x="1144.5" y="-238" font-family="Helvetica,sans-Serif" font-size="10.00">slick/orderbook/detail</text>
<text text-anchor="middle" x="1197.5" y="-227" font-family="Helvetica,sans-Serif" font-size="10.00">/memory_pool.hpp</text>
</a>
</g>
</g>
<!-- Node18&#45;&gt;Node21 -->
<g id="edge39_Node000018_Node000021" class="edge">
<title>Node18&#45;&gt;Node21</title>
<g id="a_edge39_Node000018_Node000021"><a xlink:title=" ">
<path fill="none" stroke="#63b8ff" d="M1350.49,-285.95C1321,-276.33 1281.69,-263.49 1250.3,-253.24"/>
<polygon fill="#63b8ff" stroke="#63b8ff" points="1251.01,-249.79 1240.41,-250.01 1248.83,-256.44 1251.01,-249.79"/>
</a>
</g>
</g>
<!-- Node22 -->
<g id="Node000022" class="node">
<title>Node22</title>
<g id="a_Node000022"><a xlink:title=" ">
<polygon fill="#e0e0e0" stroke="#999999" points="2017.5,-250 1895.5,-250 1895.5,-220 2017.5,-220 2017.5,-250"/>
<text text-anchor="start" x="1903.5" y="-238" font-family="Helvetica,sans-Serif" font-size="10.00">slick/orderbook/detail</text>
<text text-anchor="middle" x="1956.5" y="-227" font-family="Helvetica,sans-Serif" font-size="10.00">/flat_map.hpp</text>
</a>
</g>
</g>
<!-- Node18&#45;&gt;Node22 -->
<g id="edge40_Node000018_Node000022" class="edge">
<title>Node18&#45;&gt;Node22</title>
<g id="a_edge40_Node000018_Node000022"><a xlink:title=" ">
<path fill="none" stroke="#63b8ff" d="M1465.66,-294.48C1561.1,-286.75 1734.41,-271.23 1881.5,-250 1882.75,-249.82 1884.02,-249.63 1885.29,-249.44"/>
<polygon fill="#63b8ff" stroke="#63b8ff" points="1885.84,-252.9 1895.17,-247.87 1884.75,-245.98 1885.84,-252.9"/>
</a>
</g>
</g>
<!-- Node23 -->
<g id="Node000023" class="node">
<title>Node23</title>
<g id="a_Node000023"><a xlink:title=" ">
<polygon fill="#e0e0e0" stroke="#999999" points="1398.5,-250 1276.5,-250 1276.5,-220 1398.5,-220 1398.5,-250"/>
<text text-anchor="start" x="1284.5" y="-238" font-family="Helvetica,sans-Serif" font-size="10.00">slick/orderbook/detail</text>
<text text-anchor="middle" x="1337.5" y="-227" font-family="Helvetica,sans-Serif" font-size="10.00">/intrusive_list.hpp</text>
</a>
</g>
</g>
<!-- Node18&#45;&gt;Node23 -->
<g id="edge41_Node000018_Node000023" class="edge">
<title>Node18&#45;&gt;Node23</title>
<g id="a_edge41_Node000018_Node000023"><a xlink:title=" ">
<path fill="none" stroke="#63b8ff" d="M1381.07,-285.8C1373.89,-277.59 1364.71,-267.1 1356.63,-257.87"/>
<polygon fill="#63b8ff" stroke="#63b8ff" points="1359.11,-255.38 1349.89,-250.16 1353.84,-259.99 1359.11,-255.38"/>
</a>
</g>
</g>
<!-- Node24 -->
<g id="Node000024" class="node">
<title>Node24</title>
<g id="a_Node000024"><a xlink:title=" ">
<polygon fill="#e0e0e0" stroke="#999999" points="1480.5,-244.5 1416.5,-244.5 1416.5,-225.5 1480.5,-225.5 1480.5,-244.5"/>
<text text-anchor="middle" x="1448.5" y="-232.5" font-family="Helvetica,sans-Serif" font-size="10.00">algorithm</text>
</a>
</g>
</g>
<!-- Node18&#45;&gt;Node24 -->
<g id="edge43_Node000018_Node000024" class="edge">
<title>Node18&#45;&gt;Node24</title>
<g id="a_edge43_Node000018_Node000024"><a xlink:title=" ">
<path fill="none" stroke="#63b8ff" d="M1405.71,-285.8C1414.11,-276.01 1425.31,-262.98 1434.15,-252.7"/>
<polygon fill="#63b8ff" stroke="#63b8ff" points="1437.04,-254.71 1440.9,-244.84 1431.73,-250.15 1437.04,-254.71"/>
</a>
</g>
</g>
<!-- Node25 -->
<g id="Node000025" class="node">
<title>Node25</title>
<g id="a_Node000025"><a xlink:title=" ">
<polygon fill="#e0e0e0" stroke="#999999" points="1540,-244.5 1499,-244.5 1499,-225.5 1540,-225.5 1540,-244.5"/>
<text text-anchor="middle" x="1519.5" y="-232.5" font-family="Helvetica,sans-Serif" font-size="10.00">tuple</text>
</a>
</g>
</g>
<!-- Node18&#45;&gt;Node25 -->
<g id="edge46_Node000018_Node000025" class="edge">
<title>Node18&#45;&gt;Node25</title>
<g id="a_edge46_Node000018_Node000025"><a xlink:title=" ">
<path fill="none" stroke="#63b8ff" d="M1421.15,-285.95C1442.76,-274.98 1472.58,-259.83 1493.7,-249.11"/>
<polygon fill="#63b8ff" stroke="#63b8ff" points="1495.4,-252.17 1502.73,-244.52 1492.23,-245.93 1495.4,-252.17"/>
</a>
</g>
</g>
<!-- Node26 -->
<g id="Node000026" class="node">
<title>Node26</title>
<g id="a_Node000026"><a xlink:title=" ">
<polygon fill="#e0e0e0" stroke="#999999" points="1623,-244.5 1558,-244.5 1558,-225.5 1623,-225.5 1623,-244.5"/>
<text text-anchor="middle" x="1590.5" y="-232.5" font-family="Helvetica,sans-Serif" font-size="10.00">functional</text>
</a>
</g>
</g>
<!-- Node18&#45;&gt;Node26 -->
<g id="edge47_Node000018_Node000026" class="edge">
<title>Node18&#45;&gt;Node26</title>
<g id="a_edge47_Node000018_Node000026"><a xlink:title=" ">
<path fill="none" stroke="#63b8ff" d="M1437.95,-286C1469.2,-276.09 1511.97,-262.42 1549.5,-250 1551.73,-249.26 1554.02,-248.5 1556.34,-247.72"/>
<polygon fill="#63b8ff" stroke="#63b8ff" points="1557.46,-251.04 1565.81,-244.52 1555.21,-244.4 1557.46,-251.04"/>
</a>
</g>
</g>
<!-- Node27&#45;&gt;Node2 -->
<g id="edge49_Node000027_Node000002" class="edge">
<title>Node27&#45;&gt;Node2</title>
<g id="a_edge49_Node000027_Node000002"><a xlink:title=" ">
<path fill="none" stroke="#63b8ff" d="M2084.65,-351.73C2112.53,-330.15 2159.5,-286.32 2159.5,-236 2159.5,-236 2159.5,-236 2159.5,-173.5 2159.5,-98.67 1003.47,-72.66 680.45,-66.85"/>
<polygon fill="#63b8ff" stroke="#63b8ff" points="680.28,-63.35 670.22,-66.67 680.16,-70.35 680.28,-63.35"/>
</a>
</g>
</g>
<!-- Node27&#45;&gt;Node4 -->
<g id="edge50_Node000027_Node000004" class="edge">
<title>Node27&#45;&gt;Node4</title>
<g id="a_edge50_Node000027_Node000004"><a xlink:title=" ">
<path fill="none" stroke="#63b8ff" d="M2075.6,-351.6C2082.22,-342.08 2090.01,-328.99 2093.5,-316 2104.67,-274.48 2113.4,-248.84 2081.5,-220 2023.1,-167.2 846.11,-131.5 522.32,-122.65"/>
<polygon fill="#63b8ff" stroke="#63b8ff" points="522.16,-119.14 512.07,-122.37 521.97,-126.14 522.16,-119.14"/>
</a>
</g>
</g>
<!-- Node27&#45;&gt;Node12 -->
<g id="edge57_Node000027_Node000012" class="edge">
<title>Node27&#45;&gt;Node12</title>
<g id="a_edge57_Node000027_Node000012"><a xlink:title=" ">
<path fill="none" stroke="#63b8ff" d="M2069.51,-351.57C2078.67,-322.3 2094.14,-255.65 2059.5,-220 2035.9,-195.71 1527.21,-180.16 1389.57,-176.39"/>
<polygon fill="#63b8ff" stroke="#63b8ff" points="1389.32,-172.89 1379.23,-176.11 1389.13,-179.88 1389.32,-172.89"/>
</a>
</g>
</g>
<!-- Node27&#45;&gt;Node13 -->
<g id="edge54_Node000027_Node000013" class="edge">
<title>Node27&#45;&gt;Node13</title>
<g id="a_edge54_Node000027_Node000013"><a xlink:title=" ">
<path fill="none" stroke="#63b8ff" d="M2065.76,-351.91C2067.56,-322.04 2066.95,-252.45 2026.5,-220 2002.64,-200.86 1040.1,-180.47 831.93,-176.28"/>
<polygon fill="#63b8ff" stroke="#63b8ff" points="831.83,-172.78 821.77,-176.08 831.69,-179.78 831.83,-172.78"/>
</a>
</g>
</g>
<!-- Node27&#45;&gt;Node14 -->
<g id="edge51_Node000027_Node000014" class="edge">
<title>Node27&#45;&gt;Node14</title>
<g id="a_edge51_Node000027_Node000014"><a xlink:title=" ">
<path fill="none" stroke="#63b8ff" d="M1992.2,-362.8C1748.32,-352.03 956.83,-317.04 698.72,-305.63"/>
<polygon fill="#63b8ff" stroke="#63b8ff" points="698.81,-302.13 688.66,-305.19 698.5,-309.13 698.81,-302.13"/>
</a>
</g>
</g>
<!-- Node27&#45;&gt;Node18 -->
<g id="edge52_Node000027_Node000018" class="edge">
<title>Node27&#45;&gt;Node18</title>
<g id="a_edge52_Node000027_Node000018"><a xlink:title=" ">
<path fill="none" stroke="#63b8ff" d="M1992.37,-359.12C1866.69,-347.13 1608.31,-322.49 1475.82,-309.85"/>
<polygon fill="#63b8ff" stroke="#63b8ff" points="1476.01,-306.35 1465.73,-308.89 1475.35,-313.32 1476.01,-306.35"/>
</a>
</g>
</g>
<!-- Node27&#45;&gt;Node22 -->
<g id="edge53_Node000027_Node000022" class="edge">
<title>Node27&#45;&gt;Node22</title>
<g id="a_edge53_Node000027_Node000022"><a xlink:title=" ">
<path fill="none" stroke="#63b8ff" d="M2052.74,-351.84C2033.99,-329.28 1997.19,-284.98 1974.93,-258.18"/>
<polygon fill="#63b8ff" stroke="#63b8ff" points="1977.33,-255.6 1968.25,-250.14 1971.95,-260.07 1977.33,-255.6"/>
</a>
</g>
</g>
<!-- Node28 -->
<g id="Node000028" class="node">
<title>Node28</title>
<g id="a_Node000028"><a xlink:title=" ">
<polygon fill="#e0e0e0" stroke="#999999" points="2273.5,-310.5 2187.5,-310.5 2187.5,-291.5 2273.5,-291.5 2273.5,-310.5"/>
<text text-anchor="middle" x="2230.5" y="-298.5" font-family="Helvetica,sans-Serif" font-size="10.00">shared_mutex</text>
</a>
</g>
</g>
<!-- Node27&#45;&gt;Node28 -->
<g id="edge55_Node000027_Node000028" class="edge">
<title>Node27&#45;&gt;Node28</title>
<g id="a_edge55_Node000027_Node000028"><a xlink:title=" ">
<path fill="none" stroke="#63b8ff" d="M2100.93,-351.95C2130.17,-340.68 2170.81,-325.01 2198.74,-314.25"/>
<polygon fill="#63b8ff" stroke="#63b8ff" points="2200.34,-317.38 2208.41,-310.52 2197.82,-310.85 2200.34,-317.38"/>
</a>
</g>
</g>
<!-- Node29 -->
<g id="Node000029" class="node">
<title>Node29</title>
<g id="a_Node000029"><a xlink:title=" ">
<polygon fill="#e0e0e0" stroke="#999999" points="2335.5,-310.5 2291.5,-310.5 2291.5,-291.5 2335.5,-291.5 2335.5,-310.5"/>
<text text-anchor="middle" x="2313.5" y="-298.5" font-family="Helvetica,sans-Serif" font-size="10.00">string</text>
</a>
</g>
</g>
<!-- Node27&#45;&gt;Node29 -->
<g id="edge56_Node000027_Node000029" class="edge">
<title>Node27&#45;&gt;Node29</title>
<g id="a_edge56_Node000027_Node000029"><a xlink:title=" ">
<path fill="none" stroke="#63b8ff" d="M2136.68,-353.2C2179.62,-344.65 2234.84,-332.05 2282.5,-316 2283.9,-315.53 2285.32,-315.02 2286.75,-314.47"/>
<polygon fill="#63b8ff" stroke="#63b8ff" points="2288.15,-317.68 2296.04,-310.62 2285.46,-311.22 2288.15,-317.68"/>
</a>
</g>
</g>
</g>
</svg>

<g id="navigator" transform="translate(0 0)" fill="#404254">
  <rect fill="#f2f5e9" fill-opacity="0.5" stroke="#606060" stroke-width=".5" x="0" y="0" width="60" height="60"/>
  <use id="zoomplus" xlink:href="#zoomPlus" x="17" y="9" onmousedown="handleZoom(evt,'in')"/>
  <use id="zoomminus" xlink:href="#zoomMin" x="42" y="9" onmousedown="handleZoom(evt,'out')"/>
  <use id="reset" xlink:href="#resetDef" x="30" y="36" onmousedown="handleReset()"/>
   <use id="arrowup" xlink:href="#arrowUp" x="0" y="0" onmousedown="handlePan(0,-1)"/>
  <use id="arrowright" xlink:href="#arrowRight" x="0" y="0" onmousedown="handlePan(1,0)"/>
  <use id="arrowdown" xlink:href="#arrowDown" x="0" y="0" onmousedown="handlePan(0,1)"/>
  <use id="arrowleft" xlink:href="#arrowLeft" x="0" y="0" onmousedown="handlePan(-1,0)"/>
</g>
<svg viewBox="0 0 15 15" width="100%" height="30px" preserveAspectRatio="xMaxYMin meet">
 <g id="arrow_out" transform="scale(0.3 0.3)">
  <a xlink:href="orderbook_8hpp__incl_org.svg" target="_base">
   <rect id="button" ry="5" rx="5" y="6" x="6" height="38" width="38"
        fill="#f2f5e9" fill-opacity="0.5" stroke="#606060" stroke-width="1.0"/>
   <path id="arrow"
     d="M 11.500037,31.436501 C 11.940474,20.09759 22.043105,11.32322 32.158766,21.979434 L 37.068811,17.246167 C 37.068811,17.246167 37.088388,32 37.088388,32 L 22.160133,31.978069 C 22.160133,31.978069 26.997745,27.140456 26.997745,27.140456 C 18.528582,18.264221 13.291696,25.230495 11.500037,31.436501 z"
     style="fill:#404040;"/>
  </a>
 </g>
</svg>

<style type='text/css'>
<![CDATA[
[data-mouse-over-selected='false'] { opacity: 0.7; }
[data-mouse-over-selected='true']  { opacity: 1.0; }
]]>
</style>
<script type="application/ecmascript"><![CDATA[
document.addEventListener('DOMContentLoaded', (event) => {
  highlightEdges();
  highlightAdjacentNodes();
});
]]></script>
</svg>
