<?xml version="1.0" encoding="UTF-8" standalone="no"?>
<!DOCTYPE svg PUBLIC "-//W3C//DTD SVG 1.1//EN"
 "http://www.w3.org/Graphics/SVG/1.1/DTD/svg11.dtd">
<!-- Generated by graphviz version 2.43.0 (0)
 -->
<!-- Title: slick/orderbook/detail/order.hpp Pages: 1 -->
<svg width="308pt" height="291pt"
 viewBox="0.00 0.00 308.00 291.00" xmlns="http://www.w3.org/2000/svg" xmlns:xlink="http://www.w3.org/1999/xlink">
<g id="graph0" class="graph" transform="scale(1 1) rotate(0) translate(4 287)">
<title>slick/orderbook/detail/order.hpp</title>
<!-- Node1 -->
<g id="Node000001" class="node">
<title>Node1</title>
<g id="a_Node000001"><a xlink:title=" ">
<polygon fill="#999999" stroke="#666666" points="211,-283 89,-283 89,-253 211,-253 211,-283"/>
<text text-anchor="start" x="97" y="-271" font-family="Helvetica,sans-Serif" font-size="10.00">slick/orderbook/detail</text>
<text text-anchor="middle" x="150" y="-260" font-family="Helvetica,sans-Serif" font-size="10.00">/order.hpp</text>
</a>
</g>
</g>
<!-- Node2 -->
<g id="Node000002" class="node">
<title>Node2</title>
<g id="a_Node000002"><a xlink:href="order__map_8hpp.html" target="_top" xlink:title=" ">
<polygon fill="white" stroke="#666666" points="122,-217 0,-217 0,-187 122,-187 122,-217"/>
<text text-anchor="start" x="8" y="-205" font-family="Helvetica,sans-Serif" font-size="10.00">slick/orderbook/detail</text>
<text text-anchor="middle" x="61" y="-194" font-family="Helvetica,sans-Serif" font-size="10.00">/order_map.hpp</text>
</a>
</g>
</g>
<!-- Node1&#45;&gt;Node2 -->
<g id="edge1_Node000001_Node000002" class="edge">
<title>Node1&#45;&gt;Node2</title>
<g id="a_edge1_Node000001_Node000002"><a xlink:title=" ">
<path fill="none" stroke="#63b8ff" d="M121.84,-246.75C108.46,-237.13 92.78,-225.86 80.7,-217.16"/>
<polygon fill="#63b8ff" stroke="#63b8ff" points="120.09,-249.8 130.25,-252.8 124.17,-244.12 120.09,-249.8"/>
</a>
</g>
</g>
<!-- Node3 -->
<g id="Node000003" class="node">
<title>Node3</title>
<g id="a_Node000003"><a xlink:href="orderbook__l3_8hpp.html" target="_top" xlink:title=" ">
<polygon fill="white" stroke="#666666" points="222,-151 78,-151 78,-121 222,-121 222,-151"/>
<text text-anchor="start" x="86" y="-139" font-family="Helvetica,sans-Serif" font-size="10.00">slick/orderbook/orderbook</text>
<text text-anchor="middle" x="150" y="-128" font-family="Helvetica,sans-Serif" font-size="10.00">_l3.hpp</text>
</a>
</g>
</g>
<!-- Node1&#45;&gt;Node3 -->
<g id="edge8_Node000001_Node000003" class="edge">
<title>Node1&#45;&gt;Node3</title>
<g id="a_edge8_Node000001_Node000003"><a xlink:title=" ">
<path fill="none" stroke="#63b8ff" d="M150,-242.68C150,-215.7 150,-173.11 150,-151.14"/>
<polygon fill="#63b8ff" stroke="#63b8ff" points="146.5,-242.84 150,-252.84 153.5,-242.84 146.5,-242.84"/>
</a>
</g>
</g>
<!-- Node6 -->
<g id="Node000006" class="node">
<title>Node6</title>
<g id="a_Node000006"><a xlink:href="price__level__l3_8hpp.html" target="_top" xlink:title=" ">
<polygon fill="white" stroke="#666666" points="300,-217 178,-217 178,-187 300,-187 300,-217"/>
<text text-anchor="start" x="186" y="-205" font-family="Helvetica,sans-Serif" font-size="10.00">slick/orderbook/detail</text>
<text text-anchor="middle" x="239" y="-194" font-family="Helvetica,sans-Serif" font-size="10.00">/price_level_l3.hpp</text>
</a>
</g>
</g>
<!-- Node1&#45;&gt;Node6 -->
<g id="edge6_Node000001_Node000006" class="edge">
<title>Node1&#45;&gt;Node6</title>
<g id="a_edge6_Node000001_Node000006"><a xlink:title=" ">
<path fill="none" stroke="#63b8ff" d="M178.16,-246.75C191.54,-237.13 207.22,-225.86 219.3,-217.16"/>
<polygon fill="#63b8ff" stroke="#63b8ff" points="175.83,-244.12 169.75,-252.8 179.91,-249.8 175.83,-244.12"/>
</a>
</g>
</g>
<!-- Node2&#45;&gt;Node3 -->
<g id="edge2_Node000002_Node000003" class="edge">
<title>Node2&#45;&gt;Node3</title>
<g id="a_edge2_Node000002_Node000003"><a xlink:title=" ">
<path fill="none" stroke="#63b8ff" d="M89.16,-180.75C102.54,-171.13 118.22,-159.86 130.3,-151.16"/>
<polygon fill="#63b8ff" stroke="#63b8ff" points="86.83,-178.12 80.75,-186.8 90.91,-183.8 86.83,-178.12"/>
</a>
</g>
</g>
<!-- Node4 -->
<g id="Node000004" class="node">
<title>Node4</title>
<g id="a_Node000004"><a xlink:href="orderbook_8hpp.html" target="_top" xlink:title=" ">
<polygon fill="white" stroke="#666666" points="232.5,-19 67.5,-19 67.5,0 232.5,0 232.5,-19"/>
<text text-anchor="middle" x="150" y="-7" font-family="Helvetica,sans-Serif" font-size="10.00">slick/orderbook/orderbook.hpp</text>
</a>
</g>
</g>
<!-- Node3&#45;&gt;Node4 -->
<g id="edge3_Node000003_Node000004" class="edge">
<title>Node3&#45;&gt;Node4</title>
<g id="a_edge3_Node000003_Node000004"><a xlink:title=" ">
<path fill="none" stroke="#63b8ff" d="M132.35,-112.47C126.97,-104.29 121.75,-94.67 119,-85 115.35,-72.18 115.01,-67.72 119,-55 123.4,-40.99 133.95,-27.53 141.52,-19.15"/>
<polygon fill="#63b8ff" stroke="#63b8ff" points="129.53,-114.55 138.14,-120.72 135.26,-110.53 129.53,-114.55"/>
</a>
</g>
</g>
<!-- Node5 -->
<g id="Node000005" class="node">
<title>Node5</title>
<g id="a_Node000005"><a xlink:href="orderbook__manager_8hpp.html" target="_top" xlink:title=" ">
<polygon fill="white" stroke="#666666" points="272,-85 128,-85 128,-55 272,-55 272,-85"/>
<text text-anchor="start" x="136" y="-73" font-family="Helvetica,sans-Serif" font-size="10.00">slick/orderbook/orderbook</text>
<text text-anchor="middle" x="200" y="-62" font-family="Helvetica,sans-Serif" font-size="10.00">_manager.hpp</text>
</a>
</g>
</g>
<!-- Node3&#45;&gt;Node5 -->
<g id="edge4_Node000003_Node000005" class="edge">
<title>Node3&#45;&gt;Node5</title>
<g id="a_edge4_Node000003_Node000005"><a xlink:title=" ">
<path fill="none" stroke="#63b8ff" d="M167.34,-112.81C174.5,-103.64 182.6,-93.28 188.93,-85.16"/>
<polygon fill="#63b8ff" stroke="#63b8ff" points="164.5,-110.76 161.1,-120.8 170.01,-115.07 164.5,-110.76"/>
</a>
</g>
</g>
<!-- Node5&#45;&gt;Node4 -->
<g id="edge5_Node000005_Node000004" class="edge">
<title>Node5&#45;&gt;Node4</title>
<g id="a_edge5_Node000005_Node000004"><a xlink:title=" ">
<path fill="none" stroke="#63b8ff" d="M181.27,-47.09C173.01,-37.42 163.77,-26.61 157.49,-19.27"/>
<polygon fill="#63b8ff" stroke="#63b8ff" points="178.74,-49.51 187.9,-54.84 184.06,-44.96 178.74,-49.51"/>
</a>
</g>
</g>
<!-- Node6&#45;&gt;Node3 -->
<g id="edge7_Node000006_Node000003" class="edge">
<title>Node6&#45;&gt;Node3</title>
<g id="a_edge7_Node000006_Node000003"><a xlink:title=" ">
<path fill="none" stroke="#63b8ff" d="M210.84,-180.75C197.46,-171.13 181.78,-159.86 169.7,-151.16"/>
<polygon fill="#63b8ff" stroke="#63b8ff" points="209.09,-183.8 219.25,-186.8 213.17,-178.12 209.09,-183.8"/>
</a>
</g>
</g>
</g>
</svg>
