<?xml version="1.0" encoding="UTF-8" standalone="no"?>
<!DOCTYPE svg PUBLIC "-//W3C//DTD SVG 1.1//EN"
 "http://www.w3.org/Graphics/SVG/1.1/DTD/svg11.dtd">
<!-- Generated by graphviz version 2.43.0 (0)
 -->
<!-- Title: slick/orderbook/orderbook_manager.hpp Pages: 1 -->
<!--zoomable 390 -->

<svg id="main" version="1.1" xmlns="http://www.w3.org/2000/svg" xmlns:xlink="http://www.w3.org/1999/xlink" xml:space="preserve" onload="init(evt)">
<style type="text/css"><![CDATA[
.node, .edge {opacity: 0.7;}
.node.selected, .edge.selected {opacity: 1;}
.edge:hover path { stroke: red; }
.edge:hover polygon { stroke: red; fill: red; }
]]></style>

<defs>
  <circle id="rim" cx="0" cy="0" r="7"/>
  <circle id="rim2" cx="0" cy="0" r="3.5"/>
  <g id="zoomPlus">
    <use xlink:href="#rim" fill="#404040"><set attributeName="fill" to="#808080" begin="zoomplus.mouseover" end="zoomplus.mouseout"/></use>
    <path d="M-4,0h8M0,-4v8" fill="none" stroke="white" stroke-width="1.5" pointer-events="none"/>
  </g>
  <g id="zoomMin">
    <use xlink:href="#rim" fill="#404040"><set attributeName="fill" to="#808080" begin="zoomminus.mouseover" end="zoomminus.mouseout"/></use>
    <path d="M-4,0h8" fill="none" stroke="white" stroke-width="1.5" pointer-events="none"/>
  </g>
  <g id="arrowUp" transform="translate(30 24)">
    <use xlink:href="#rim"/>
    <path pointer-events="none" fill="none" stroke="white" stroke-width="1.5" d="M0,-3.0v7 M-2.5,-0.5L0,-3.0L2.5,-0.5"/>
  </g>
  <g id="arrowRight" transform="rotate(90) translate(36 -43)">
    <use xlink:href="#rim"/>
    <path pointer-events="none" fill="none" stroke="white" stroke-width="1.5" d="M0,-3.0v7 M-2.5,-0.5L0,-3.0L2.5,-0.5"/>
  </g>
  <g id="arrowDown" transform="rotate(180) translate(-30 -48)">
    <use xlink:href="#rim"/>
    <path pointer-events="none" fill="none" stroke="white" stroke-width="1.5" d="M0,-3.0v7 M-2.5,-0.5L0,-3.0L2.5,-0.5"/>
  </g>
  <g id="arrowLeft" transform="rotate(270) translate(-36 17)">
    <use xlink:href="#rim"/>
    <path pointer-events="none" fill="none" stroke="white" stroke-width="1.5" d="M0,-3.0v7 M-2.5,-0.5L0,-3.0L2.5,-0.5"/>
  </g>
  <g id="resetDef">
    <use xlink:href="#rim2" fill="#404040"><set attributeName="fill" to="#808080" begin="reset.mouseover" end="reset.mouseout"/></use>
  </g>
</defs>
<script type="application/ecmascript">
var viewWidth = 2016;
var viewHeight = 390;
var sectionId = 'dynsection-0';
</script>
<script type="application/ecmascript" xlink:href="svg.min.js"/>
<svg id="graph" class="graph">
<g id="viewport">
<title>slick/orderbook/orderbook_manager.hpp</title>
<!-- Node1 -->
<g id="Node000001" class="node">
<title>Node1</title>
<g id="a_Node000001"><a xlink:title=" ">
<polygon fill="#999999" stroke="#666666" points="1288.27,-382 1144.27,-382 1144.27,-352 1288.27,-352 1288.27,-382"/>
<text text-anchor="start" x="1152.27" y="-370" font-family="Helvetica,sans-Serif" font-size="10.00">slick/orderbook/orderbook</text>
<text text-anchor="middle" x="1216.27" y="-359" font-family="Helvetica,sans-Serif" font-size="10.00">_manager.hpp</text>
</a>
</g>
</g>
<!-- Node2 -->
<g id="Node000002" class="node">
<title>Node2</title>
<g id="a_Node000002"><a xlink:href="config_8hpp.html" target="_top" xlink:title=" ">
<polygon fill="white" stroke="#666666" points="1031.77,-74 886.77,-74 886.77,-55 1031.77,-55 1031.77,-74"/>
<text text-anchor="middle" x="959.27" y="-62" font-family="Helvetica,sans-Serif" font-size="10.00">slick/orderbook/config.hpp</text>
</a>
</g>
</g>
<!-- Node1&#45;&gt;Node2 -->
<g id="edge1_Node000001_Node000002" class="edge">
<title>Node1&#45;&gt;Node2</title>
<g id="a_edge1_Node000001_Node000002"><a xlink:title=" ">
<path fill="none" stroke="#63b8ff" d="M1288.35,-356.66C1463.56,-333.63 1898.97,-274.2 1919.27,-250 1927.84,-239.78 1927.41,-230.56 1919.27,-220 1813.05,-82.21 1255.51,-66.15 1042.29,-65.12"/>
<polygon fill="#63b8ff" stroke="#63b8ff" points="1042.11,-61.62 1032.1,-65.08 1042.08,-68.62 1042.11,-61.62"/>
</a>
</g>
</g>
<!-- Node4 -->
<g id="Node000004" class="node">
<title>Node4</title>
<g id="a_Node000004"><a xlink:href="types_8hpp.html" target="_top" xlink:title=" ">
<polygon fill="white" stroke="#666666" points="328.77,-129 185.77,-129 185.77,-110 328.77,-110 328.77,-129"/>
<text text-anchor="middle" x="257.27" y="-117" font-family="Helvetica,sans-Serif" font-size="10.00">slick/orderbook/types.hpp</text>
</a>
</g>
</g>
<!-- Node1&#45;&gt;Node4 -->
<g id="edge3_Node000001_Node000004" class="edge">
<title>Node1&#45;&gt;Node4</title>
<g id="a_edge3_Node000001_Node000004"><a xlink:title=" ">
<path fill="none" stroke="#63b8ff" d="M1144.03,-364.93C900.61,-361.07 123.04,-346.38 79.27,-316 42.76,-290.66 27.64,-257.65 51.27,-220 83.07,-169.33 148.76,-143.84 197.45,-131.44"/>
<polygon fill="#63b8ff" stroke="#63b8ff" points="198.37,-134.82 207.26,-129.06 196.72,-128.02 198.37,-134.82"/>
</a>
</g>
</g>
<!-- Node7 -->
<g id="Node000007" class="node">
<title>Node7</title>
<g id="a_Node000007"><a xlink:href="orderbook__l2_8hpp.html" target="_top" xlink:title=" ">
<polygon fill="white" stroke="#666666" points="462.27,-316 318.27,-316 318.27,-286 462.27,-286 462.27,-316"/>
<text text-anchor="start" x="326.27" y="-304" font-family="Helvetica,sans-Serif" font-size="10.00">slick/orderbook/orderbook</text>
<text text-anchor="middle" x="390.27" y="-293" font-family="Helvetica,sans-Serif" font-size="10.00">_l2.hpp</text>
</a>
</g>
</g>
<!-- Node1&#45;&gt;Node7 -->
<g id="edge7_Node000001_Node000007" class="edge">
<title>Node1&#45;&gt;Node7</title>
<g id="a_edge7_Node000001_Node000007"><a xlink:title=" ">
<path fill="none" stroke="#63b8ff" d="M1144.05,-360.4C990.96,-348.54 634.64,-320.93 472.84,-308.4"/>
<polygon fill="#63b8ff" stroke="#63b8ff" points="472.71,-304.88 462.47,-307.59 472.17,-311.86 472.71,-304.88"/>
</a>
</g>
</g>
<!-- Node13 -->
<g id="Node000013" class="node">
<title>Node13</title>
<g id="a_Node000013"><a xlink:title=" ">
<polygon fill="#e0e0e0" stroke="#999999" points="485.77,-184 438.77,-184 438.77,-165 485.77,-165 485.77,-184"/>
<text text-anchor="middle" x="462.27" y="-172" font-family="Helvetica,sans-Serif" font-size="10.00">vector</text>
</a>
</g>
</g>
<!-- Node1&#45;&gt;Node13 -->
<g id="edge49_Node000001_Node000013" class="edge">
<title>Node1&#45;&gt;Node13</title>
<g id="a_edge49_Node000001_Node000013"><a xlink:title=" ">
<path fill="none" stroke="#63b8ff" d="M1144.24,-365.52C917.05,-363.59 225.12,-354.6 132.27,-316 92.18,-299.33 77.75,-289.74 60.27,-250 54.9,-237.8 51.37,-229.93 60.27,-220 84.68,-192.73 335.98,-180.36 428.4,-176.71"/>
<polygon fill="#63b8ff" stroke="#63b8ff" points="428.75,-180.2 438.61,-176.32 428.48,-173.21 428.75,-180.2"/>
</a>
</g>
</g>
<!-- Node14 -->
<g id="Node000014" class="node">
<title>Node14</title>
<g id="a_Node000014"><a xlink:title=" ">
<polygon fill="#e0e0e0" stroke="#999999" points="584.27,-184 526.27,-184 526.27,-165 584.27,-165 584.27,-184"/>
<text text-anchor="middle" x="555.27" y="-172" font-family="Helvetica,sans-Serif" font-size="10.00">memory</text>
</a>
</g>
</g>
<!-- Node1&#45;&gt;Node14 -->
<g id="edge46_Node000001_Node000014" class="edge">
<title>Node1&#45;&gt;Node14</title>
<g id="a_edge46_Node000001_Node000014"><a xlink:title=" ">
<path fill="none" stroke="#63b8ff" d="M1143.94,-364.33C958.41,-359.66 469.01,-344.92 309.27,-316 212.58,-298.49 156.46,-329.17 98.27,-250 24.5,-149.63 -212.86,-265.36 494.27,-184 501.34,-183.19 508.87,-182.22 516.13,-181.24"/>
<polygon fill="#63b8ff" stroke="#63b8ff" points="516.71,-184.69 526.14,-179.85 515.75,-177.75 516.71,-184.69"/>
</a>
</g>
</g>
<!-- Node18 -->
<g id="Node000018" class="node">
<title>Node18</title>
<g id="a_Node000018"><a xlink:href="orderbook__l3_8hpp.html" target="_top" xlink:title=" ">
<polygon fill="white" stroke="#666666" points="1238.27,-316 1094.27,-316 1094.27,-286 1238.27,-286 1238.27,-316"/>
<text text-anchor="start" x="1102.27" y="-304" font-family="Helvetica,sans-Serif" font-size="10.00">slick/orderbook/orderbook</text>
<text text-anchor="middle" x="1166.27" y="-293" font-family="Helvetica,sans-Serif" font-size="10.00">_l3.hpp</text>
</a>
</g>
</g>
<!-- Node1&#45;&gt;Node18 -->
<g id="edge28_Node000001_Node000018" class="edge">
<title>Node1&#45;&gt;Node18</title>
<g id="a_edge28_Node000001_Node000018"><a xlink:title=" ">
<path fill="none" stroke="#63b8ff" d="M1205.17,-351.8C1198.83,-343.68 1190.73,-333.31 1183.57,-324.15"/>
<polygon fill="#63b8ff" stroke="#63b8ff" points="1186.25,-321.89 1177.33,-316.16 1180.73,-326.2 1186.25,-321.89"/>
</a>
</g>
</g>
<!-- Node22 -->
<g id="Node000022" class="node">
<title>Node22</title>
<g id="a_Node000022"><a xlink:title=" ">
<polygon fill="#e0e0e0" stroke="#999999" points="1910.27,-250 1788.27,-250 1788.27,-220 1910.27,-220 1910.27,-250"/>
<text text-anchor="start" x="1796.27" y="-238" font-family="Helvetica,sans-Serif" font-size="10.00">slick/orderbook/detail</text>
<text text-anchor="middle" x="1849.27" y="-227" font-family="Helvetica,sans-Serif" font-size="10.00">/flat_map.hpp</text>
</a>
</g>
</g>
<!-- Node1&#45;&gt;Node22 -->
<g id="edge45_Node000001_Node000022" class="edge">
<title>Node1&#45;&gt;Node22</title>
<g id="a_edge45_Node000001_Node000022"><a xlink:title=" ">
<path fill="none" stroke="#63b8ff" d="M1284.61,-351.96C1405.41,-327.15 1655.47,-275.8 1778.19,-250.6"/>
<polygon fill="#63b8ff" stroke="#63b8ff" points="1779.14,-253.97 1788.24,-248.53 1777.74,-247.12 1779.14,-253.97"/>
</a>
</g>
</g>
<!-- Node27 -->
<g id="Node000027" class="node">
<title>Node27</title>
<g id="a_Node000027"><a xlink:title=" ">
<polygon fill="#e0e0e0" stroke="#999999" points="1880.27,-310.5 1794.27,-310.5 1794.27,-291.5 1880.27,-291.5 1880.27,-310.5"/>
<text text-anchor="middle" x="1837.27" y="-298.5" font-family="Helvetica,sans-Serif" font-size="10.00">shared_mutex</text>
</a>
</g>
</g>
<!-- Node1&#45;&gt;Node27 -->
<g id="edge47_Node000001_Node000027" class="edge">
<title>Node1&#45;&gt;Node27</title>
<g id="a_edge47_Node000001_Node000027"><a xlink:title=" ">
<path fill="none" stroke="#63b8ff" d="M1288.38,-363.13C1396.06,-358.05 1604.99,-345.12 1780.27,-316 1785.41,-315.15 1790.78,-314.07 1796.07,-312.9"/>
<polygon fill="#63b8ff" stroke="#63b8ff" points="1797.14,-316.25 1806.09,-310.57 1795.55,-309.43 1797.14,-316.25"/>
</a>
</g>
</g>
<!-- Node28 -->
<g id="Node000028" class="node">
<title>Node28</title>
<g id="a_Node000028"><a xlink:title=" ">
<polygon fill="#e0e0e0" stroke="#999999" points="1942.27,-310.5 1898.27,-310.5 1898.27,-291.5 1942.27,-291.5 1942.27,-310.5"/>
<text text-anchor="middle" x="1920.27" y="-298.5" font-family="Helvetica,sans-Serif" font-size="10.00">string</text>
</a>
</g>
</g>
<!-- Node1&#45;&gt;Node28 -->
<g id="edge48_Node000001_Node000028" class="edge">
<title>Node1&#45;&gt;Node28</title>
<g id="a_edge48_Node000001_Node000028"><a xlink:title=" ">
<path fill="none" stroke="#63b8ff" d="M1288.36,-363.82C1437.89,-358.78 1777.21,-344.51 1889.27,-316 1891,-315.56 1892.75,-315.03 1894.5,-314.43"/>
<polygon fill="#63b8ff" stroke="#63b8ff" points="1896.27,-317.49 1904.25,-310.52 1893.66,-311 1896.27,-317.49"/>
</a>
</g>
</g>
<!-- Node29 -->
<g id="Node000029" class="node">
<title>Node29</title>
<g id="a_Node000029"><a xlink:title=" ">
<polygon fill="#e0e0e0" stroke="#999999" points="2008.27,-310.5 1960.27,-310.5 1960.27,-291.5 2008.27,-291.5 2008.27,-310.5"/>
<text text-anchor="middle" x="1984.27" y="-298.5" font-family="Helvetica,sans-Serif" font-size="10.00">mutex</text>
</a>
</g>
</g>
<!-- Node1&#45;&gt;Node29 -->
<g id="edge50_Node000001_Node000029" class="edge">
<title>Node1&#45;&gt;Node29</title>
<g id="a_edge50_Node000001_Node000029"><a xlink:title=" ">
<path fill="none" stroke="#63b8ff" d="M1288.54,-364.14C1448.24,-359.52 1826.87,-345.73 1951.27,-316 1953.43,-315.48 1955.63,-314.84 1957.82,-314.11"/>
<polygon fill="#63b8ff" stroke="#63b8ff" points="1959.08,-317.38 1967.17,-310.53 1956.58,-310.84 1959.08,-317.38"/>
</a>
</g>
</g>
<!-- Node3 -->
<g id="Node000003" class="node">
<title>Node3</title>
<g id="a_Node000003"><a xlink:title=" ">
<polygon fill="#e0e0e0" stroke="#999999" points="985.27,-19 933.27,-19 933.27,0 985.27,0 985.27,-19"/>
<text text-anchor="middle" x="959.27" y="-7" font-family="Helvetica,sans-Serif" font-size="10.00">cassert</text>
</a>
</g>
</g>
<!-- Node2&#45;&gt;Node3 -->
<g id="edge2_Node000002_Node000003" class="edge">
<title>Node2&#45;&gt;Node3</title>
<g id="a_edge2_Node000002_Node000003"><a xlink:title=" ">
<path fill="none" stroke="#63b8ff" d="M959.27,-54.75C959.27,-47.8 959.27,-37.85 959.27,-29.13"/>
<polygon fill="#63b8ff" stroke="#63b8ff" points="962.77,-29.09 959.27,-19.09 955.77,-29.09 962.77,-29.09"/>
</a>
</g>
</g>
<!-- Node4&#45;&gt;Node2 -->
<g id="edge4_Node000004_Node000002" class="edge">
<title>Node4&#45;&gt;Node2</title>
<g id="a_edge4_Node000004_Node000002"><a xlink:title=" ">
<path fill="none" stroke="#63b8ff" d="M329.05,-111.26C333.86,-110.82 338.63,-110.4 343.27,-110 534.01,-93.69 758.33,-78.48 876.61,-70.78"/>
<polygon fill="#63b8ff" stroke="#63b8ff" points="876.92,-74.26 886.67,-70.12 876.47,-67.28 876.92,-74.26"/>
</a>
</g>
</g>
<!-- Node5 -->
<g id="Node000005" class="node">
<title>Node5</title>
<g id="a_Node000005"><a xlink:title=" ">
<polygon fill="#e0e0e0" stroke="#999999" points="242.27,-74 192.27,-74 192.27,-55 242.27,-55 242.27,-74"/>
<text text-anchor="middle" x="217.27" y="-62" font-family="Helvetica,sans-Serif" font-size="10.00">cstdint</text>
</a>
</g>
</g>
<!-- Node4&#45;&gt;Node5 -->
<g id="edge5_Node000004_Node000005" class="edge">
<title>Node4&#45;&gt;Node5</title>
<g id="a_edge5_Node000004_Node000005"><a xlink:title=" ">
<path fill="none" stroke="#63b8ff" d="M250.66,-109.75C245.01,-102.26 236.72,-91.28 229.82,-82.13"/>
<polygon fill="#63b8ff" stroke="#63b8ff" points="232.57,-79.96 223.75,-74.09 226.98,-84.18 232.57,-79.96"/>
</a>
</g>
</g>
<!-- Node6 -->
<g id="Node000006" class="node">
<title>Node6</title>
<g id="a_Node000006"><a xlink:title=" ">
<polygon fill="#e0e0e0" stroke="#999999" points="333.77,-74 260.77,-74 260.77,-55 333.77,-55 333.77,-74"/>
<text text-anchor="middle" x="297.27" y="-62" font-family="Helvetica,sans-Serif" font-size="10.00">string_view</text>
</a>
</g>
</g>
<!-- Node4&#45;&gt;Node6 -->
<g id="edge6_Node000004_Node000006" class="edge">
<title>Node4&#45;&gt;Node6</title>
<g id="a_edge6_Node000004_Node000006"><a xlink:title=" ">
<path fill="none" stroke="#63b8ff" d="M263.87,-109.75C269.52,-102.26 277.81,-91.28 284.72,-82.13"/>
<polygon fill="#63b8ff" stroke="#63b8ff" points="287.56,-84.18 290.79,-74.09 281.97,-79.96 287.56,-84.18"/>
</a>
</g>
</g>
<!-- Node7&#45;&gt;Node2 -->
<g id="edge8_Node000007_Node000002" class="edge">
<title>Node7&#45;&gt;Node2</title>
<g id="a_edge8_Node000007_Node000002"><a xlink:title=" ">
<path fill="none" stroke="#63b8ff" d="M374.16,-285.79C358.03,-269.76 337.21,-242.93 349.27,-220 369.36,-181.81 389.42,-181.56 429.27,-165 579.39,-102.6 769.71,-79.07 876.62,-70.39"/>
<polygon fill="#63b8ff" stroke="#63b8ff" points="877.01,-73.87 886.7,-69.6 876.46,-66.9 877.01,-73.87"/>
</a>
</g>
</g>
<!-- Node7&#45;&gt;Node4 -->
<g id="edge9_Node000007_Node000004" class="edge">
<title>Node7&#45;&gt;Node4</title>
<g id="a_edge9_Node000007_Node000004"><a xlink:title=" ">
<path fill="none" stroke="#63b8ff" d="M334.13,-285.89C314.67,-278.31 294.45,-266.91 281.27,-250 255.93,-217.49 254.38,-166.56 255.67,-139.27"/>
<polygon fill="#63b8ff" stroke="#63b8ff" points="259.18,-139.35 256.34,-129.14 252.19,-138.89 259.18,-139.35"/>
</a>
</g>
</g>
<!-- Node8 -->
<g id="Node000008" class="node">
<title>Node8</title>
<g id="a_Node000008"><a xlink:href="events_8hpp.html" target="_top" xlink:title=" ">
<polygon fill="white" stroke="#666666" points="761.77,-184 612.77,-184 612.77,-165 761.77,-165 761.77,-184"/>
<text text-anchor="middle" x="687.27" y="-172" font-family="Helvetica,sans-Serif" font-size="10.00">slick/orderbook/events.hpp</text>
</a>
</g>
</g>
<!-- Node7&#45;&gt;Node8 -->
<g id="edge10_Node000007_Node000008" class="edge">
<title>Node7&#45;&gt;Node8</title>
<g id="a_edge10_Node000007_Node000008"><a xlink:title=" ">
<path fill="none" stroke="#63b8ff" d="M392.83,-285.92C396.94,-267.67 406.83,-236.26 428.27,-220 442.58,-209.15 537.32,-194.8 608.11,-185.37"/>
<polygon fill="#63b8ff" stroke="#63b8ff" points="608.91,-188.8 618.36,-184.02 607.99,-181.86 608.91,-188.8"/>
</a>
</g>
</g>
<!-- Node9 -->
<g id="Node000009" class="node">
<title>Node9</title>
<g id="a_Node000009"><a xlink:href="observer_8hpp.html" target="_top" xlink:title=" ">
<polygon fill="white" stroke="#666666" points="871.27,-244.5 713.27,-244.5 713.27,-225.5 871.27,-225.5 871.27,-244.5"/>
<text text-anchor="middle" x="792.27" y="-232.5" font-family="Helvetica,sans-Serif" font-size="10.00">slick/orderbook/observer.hpp</text>
</a>
</g>
</g>
<!-- Node7&#45;&gt;Node9 -->
<g id="edge13_Node000007_Node000009" class="edge">
<title>Node7&#45;&gt;Node9</title>
<g id="a_edge13_Node000007_Node000009"><a xlink:title=" ">
<path fill="none" stroke="#63b8ff" d="M462.6,-288.48C538.49,-276.4 656.59,-257.6 728.92,-246.08"/>
<polygon fill="#63b8ff" stroke="#63b8ff" points="729.49,-249.54 738.82,-244.51 728.39,-242.63 729.49,-249.54"/>
</a>
</g>
</g>
<!-- Node7&#45;&gt;Node13 -->
<g id="edge26_Node000007_Node000013" class="edge">
<title>Node7&#45;&gt;Node13</title>
<g id="a_edge26_Node000007_Node000013"><a xlink:title=" ">
<path fill="none" stroke="#63b8ff" d="M376.57,-285.9C362.12,-269.25 343.25,-241.17 357.27,-220 373.05,-196.17 404.43,-185.06 428.79,-179.91"/>
<polygon fill="#63b8ff" stroke="#63b8ff" points="429.55,-183.33 438.74,-178.05 428.26,-176.45 429.55,-183.33"/>
</a>
</g>
</g>
<!-- Node7&#45;&gt;Node14 -->
<g id="edge25_Node000007_Node000014" class="edge">
<title>Node7&#45;&gt;Node14</title>
<g id="a_edge25_Node000007_Node000014"><a xlink:title=" ">
<path fill="none" stroke="#63b8ff" d="M386.66,-285.82C383.12,-268.32 380.2,-238.6 395.27,-220 410.4,-201.32 473.71,-188.1 516.01,-181.14"/>
<polygon fill="#63b8ff" stroke="#63b8ff" points="516.68,-184.58 526,-179.55 515.58,-177.67 516.68,-184.58"/>
</a>
</g>
</g>
<!-- Node15 -->
<g id="Node000015" class="node">
<title>Node15</title>
<g id="a_Node000015"><a xlink:title=" ">
<polygon fill="#e0e0e0" stroke="#999999" points="559.27,-250 437.27,-250 437.27,-220 559.27,-220 559.27,-250"/>
<text text-anchor="start" x="445.27" y="-238" font-family="Helvetica,sans-Serif" font-size="10.00">slick/orderbook/detail</text>
<text text-anchor="middle" x="498.27" y="-227" font-family="Helvetica,sans-Serif" font-size="10.00">/price_level.hpp</text>
</a>
</g>
</g>
<!-- Node7&#45;&gt;Node15 -->
<g id="edge23_Node000007_Node000015" class="edge">
<title>Node7&#45;&gt;Node15</title>
<g id="a_edge23_Node000007_Node000015"><a xlink:title=" ">
<path fill="none" stroke="#63b8ff" d="M413.97,-285.95C429.16,-276.95 449.09,-265.14 465.75,-255.27"/>
<polygon fill="#63b8ff" stroke="#63b8ff" points="467.8,-258.12 474.62,-250.01 464.23,-252.1 467.8,-258.12"/>
</a>
</g>
</g>
<!-- Node16 -->
<g id="Node000016" class="node">
<title>Node16</title>
<g id="a_Node000016"><a xlink:title=" ">
<polygon fill="#e0e0e0" stroke="#999999" points="229.27,-250 107.27,-250 107.27,-220 229.27,-220 229.27,-250"/>
<text text-anchor="start" x="115.27" y="-238" font-family="Helvetica,sans-Serif" font-size="10.00">slick/orderbook/detail</text>
<text text-anchor="middle" x="168.27" y="-227" font-family="Helvetica,sans-Serif" font-size="10.00">/level_container.hpp</text>
</a>
</g>
</g>
<!-- Node7&#45;&gt;Node16 -->
<g id="edge24_Node000007_Node000016" class="edge">
<title>Node7&#45;&gt;Node16</title>
<g id="a_edge24_Node000007_Node000016"><a xlink:title=" ">
<path fill="none" stroke="#63b8ff" d="M341.55,-285.95C307.72,-276.2 262.47,-263.16 226.69,-252.84"/>
<polygon fill="#63b8ff" stroke="#63b8ff" points="227.45,-249.42 216.87,-250.01 225.51,-256.15 227.45,-249.42"/>
</a>
</g>
</g>
<!-- Node17 -->
<g id="Node000017" class="node">
<title>Node17</title>
<g id="a_Node000017"><a xlink:title=" ">
<polygon fill="#e0e0e0" stroke="#999999" points="619.27,-244.5 577.27,-244.5 577.27,-225.5 619.27,-225.5 619.27,-244.5"/>
<text text-anchor="middle" x="598.27" y="-232.5" font-family="Helvetica,sans-Serif" font-size="10.00">array</text>
</a>
</g>
</g>
<!-- Node7&#45;&gt;Node17 -->
<g id="edge27_Node000007_Node000017" class="edge">
<title>Node7&#45;&gt;Node17</title>
<g id="a_edge27_Node000007_Node000017"><a xlink:title=" ">
<path fill="none" stroke="#63b8ff" d="M449.56,-285.93C484.55,-276.99 529.45,-264.4 568.27,-250 569.32,-249.61 570.38,-249.2 571.45,-248.77"/>
<polygon fill="#63b8ff" stroke="#63b8ff" points="573.23,-251.81 581.02,-244.63 570.45,-245.39 573.23,-251.81"/>
</a>
</g>
</g>
<!-- Node8&#45;&gt;Node2 -->
<g id="edge11_Node000008_Node000002" class="edge">
<title>Node8&#45;&gt;Node2</title>
<g id="a_edge11_Node000008_Node000002"><a xlink:title=" ">
<path fill="none" stroke="#63b8ff" d="M696.63,-164.68C711.76,-150.93 743.04,-124.45 774.27,-110 809.88,-93.53 852.27,-82.76 887.48,-75.95"/>
<polygon fill="#63b8ff" stroke="#63b8ff" points="888.5,-79.32 897.69,-74.05 887.21,-72.44 888.5,-79.32"/>
</a>
</g>
</g>
<!-- Node8&#45;&gt;Node4 -->
<g id="edge12_Node000008_Node000004" class="edge">
<title>Node8&#45;&gt;Node4</title>
<g id="a_edge12_Node000008_Node000004"><a xlink:title=" ">
<path fill="none" stroke="#63b8ff" d="M618.18,-164.98C541.34,-155.51 417.43,-140.24 336.66,-130.29"/>
<polygon fill="#63b8ff" stroke="#63b8ff" points="336.89,-126.79 326.54,-129.04 336.04,-133.74 336.89,-126.79"/>
</a>
</g>
</g>
<!-- Node9&#45;&gt;Node2 -->
<g id="edge14_Node000009_Node000002" class="edge">
<title>Node9&#45;&gt;Node2</title>
<g id="a_edge14_Node000009_Node000002"><a xlink:title=" ">
<path fill="none" stroke="#63b8ff" d="M858.13,-225.5C907.36,-217.64 968.73,-204.1 984.27,-184 1007.31,-154.19 985.84,-108.04 970.89,-83.04"/>
<polygon fill="#63b8ff" stroke="#63b8ff" points="973.68,-80.9 965.4,-74.29 967.75,-84.62 973.68,-80.9"/>
</a>
</g>
</g>
<!-- Node9&#45;&gt;Node8 -->
<g id="edge15_Node000009_Node000008" class="edge">
<title>Node9&#45;&gt;Node8</title>
<g id="a_edge15_Node000009_Node000008"><a xlink:title=" ">
<path fill="none" stroke="#63b8ff" d="M776.77,-225.37C759.64,-215.82 731.79,-200.31 711.71,-189.12"/>
<polygon fill="#63b8ff" stroke="#63b8ff" points="713.26,-185.98 702.82,-184.17 709.86,-192.09 713.26,-185.98"/>
</a>
</g>
</g>
<!-- Node10 -->
<g id="Node000010" class="node">
<title>Node10</title>
<g id="a_Node000010"><a xlink:href="concepts_8hpp.html" target="_top" xlink:title=" ">
<polygon fill="white" stroke="#666666" points="975.77,-184 816.77,-184 816.77,-165 975.77,-165 975.77,-184"/>
<text text-anchor="middle" x="896.27" y="-172" font-family="Helvetica,sans-Serif" font-size="10.00">slick/orderbook/concepts.hpp</text>
</a>
</g>
</g>
<!-- Node9&#45;&gt;Node10 -->
<g id="edge16_Node000009_Node000010" class="edge">
<title>Node9&#45;&gt;Node10</title>
<g id="a_edge16_Node000009_Node000010"><a xlink:title=" ">
<path fill="none" stroke="#63b8ff" d="M807.61,-225.37C824.59,-215.82 852.17,-200.31 872.06,-189.12"/>
<polygon fill="#63b8ff" stroke="#63b8ff" points="873.86,-192.12 880.86,-184.17 870.43,-186.02 873.86,-192.12"/>
</a>
</g>
</g>
<!-- Node9&#45;&gt;Node13 -->
<g id="edge21_Node000009_Node000013" class="edge">
<title>Node9&#45;&gt;Node13</title>
<g id="a_edge21_Node000009_Node000013"><a xlink:title=" ">
<path fill="none" stroke="#63b8ff" d="M744.28,-225.49C676.49,-213.48 554.41,-191.83 495.65,-181.42"/>
<polygon fill="#63b8ff" stroke="#63b8ff" points="496.23,-177.97 485.78,-179.67 495.01,-184.86 496.23,-177.97"/>
</a>
</g>
</g>
<!-- Node9&#45;&gt;Node14 -->
<g id="edge22_Node000009_Node000014" class="edge">
<title>Node9&#45;&gt;Node14</title>
<g id="a_edge22_Node000009_Node000014"><a xlink:title=" ">
<path fill="none" stroke="#63b8ff" d="M757.81,-225.49C714.36,-214.77 639.87,-196.38 594.35,-185.15"/>
<polygon fill="#63b8ff" stroke="#63b8ff" points="595.09,-181.72 584.54,-182.73 593.41,-188.52 595.09,-181.72"/>
</a>
</g>
</g>
<!-- Node10&#45;&gt;Node2 -->
<g id="edge17_Node000010_Node000002" class="edge">
<title>Node10&#45;&gt;Node2</title>
<g id="a_edge17_Node000010_Node000002"><a xlink:title=" ">
<path fill="none" stroke="#63b8ff" d="M907.28,-164.71C916.97,-156.43 930.81,-143.22 939.27,-129 947.58,-115.03 952.79,-97.25 955.81,-84.06"/>
<polygon fill="#63b8ff" stroke="#63b8ff" points="959.24,-84.74 957.84,-74.24 952.38,-83.32 959.24,-84.74"/>
</a>
</g>
</g>
<!-- Node10&#45;&gt;Node4 -->
<g id="edge18_Node000010_Node000004" class="edge">
<title>Node10&#45;&gt;Node4</title>
<g id="a_edge18_Node000010_Node000004"><a xlink:title=" ">
<path fill="none" stroke="#63b8ff" d="M816.62,-166.17C812.11,-165.77 807.63,-165.38 803.27,-165 638.5,-150.76 445.65,-135.33 338.89,-126.9"/>
<polygon fill="#63b8ff" stroke="#63b8ff" points="339.08,-123.4 328.83,-126.11 338.53,-130.38 339.08,-123.4"/>
</a>
</g>
</g>
<!-- Node11 -->
<g id="Node000011" class="node">
<title>Node11</title>
<g id="a_Node000011"><a xlink:title=" ">
<polygon fill="#e0e0e0" stroke="#999999" points="843.27,-129 783.27,-129 783.27,-110 843.27,-110 843.27,-129"/>
<text text-anchor="middle" x="813.27" y="-117" font-family="Helvetica,sans-Serif" font-size="10.00">concepts</text>
</a>
</g>
</g>
<!-- Node10&#45;&gt;Node11 -->
<g id="edge19_Node000010_Node000011" class="edge">
<title>Node10&#45;&gt;Node11</title>
<g id="a_edge19_Node000010_Node000011"><a xlink:title=" ">
<path fill="none" stroke="#63b8ff" d="M882.93,-164.98C870.18,-156.84 850.71,-144.41 835.6,-134.76"/>
<polygon fill="#63b8ff" stroke="#63b8ff" points="837.16,-131.6 826.85,-129.17 833.39,-137.5 837.16,-131.6"/>
</a>
</g>
</g>
<!-- Node12 -->
<g id="Node000012" class="node">
<title>Node12</title>
<g id="a_Node000012"><a xlink:title=" ">
<polygon fill="#e0e0e0" stroke="#999999" points="930.77,-129 861.77,-129 861.77,-110 930.77,-110 930.77,-129"/>
<text text-anchor="middle" x="896.27" y="-117" font-family="Helvetica,sans-Serif" font-size="10.00">type_traits</text>
</a>
</g>
</g>
<!-- Node10&#45;&gt;Node12 -->
<g id="edge20_Node000010_Node000012" class="edge">
<title>Node10&#45;&gt;Node12</title>
<g id="a_edge20_Node000010_Node000012"><a xlink:title=" ">
<path fill="none" stroke="#63b8ff" d="M896.27,-164.75C896.27,-157.8 896.27,-147.85 896.27,-139.13"/>
<polygon fill="#63b8ff" stroke="#63b8ff" points="899.77,-139.09 896.27,-129.09 892.77,-139.09 899.77,-139.09"/>
</a>
</g>
</g>
<!-- Node18&#45;&gt;Node2 -->
<g id="edge29_Node000018_Node000002" class="edge">
<title>Node18&#45;&gt;Node2</title>
<g id="a_edge29_Node000018_Node000002"><a xlink:title=" ">
<path fill="none" stroke="#63b8ff" d="M1238.29,-296.31C1388.86,-288.24 1724.49,-268.3 1741.27,-250 1750.28,-240.17 1749.73,-230.3 1741.27,-220 1653.31,-112.97 1224.61,-78.85 1041.95,-69.06"/>
<polygon fill="#63b8ff" stroke="#63b8ff" points="1042.03,-65.56 1031.86,-68.54 1041.67,-72.55 1042.03,-65.56"/>
</a>
</g>
</g>
<!-- Node18&#45;&gt;Node4 -->
<g id="edge30_Node000018_Node000004" class="edge">
<title>Node18&#45;&gt;Node4</title>
<g id="a_edge30_Node000018_Node000004"><a xlink:title=" ">
<path fill="none" stroke="#63b8ff" d="M1093.84,-290.28C1052.2,-282.87 999.7,-270.37 956.27,-250 936.15,-240.56 935.97,-230.29 916.27,-220 871.04,-196.38 854.32,-203.71 807.27,-184 790.22,-176.86 788.03,-170.12 770.27,-165 691.62,-142.35 463.04,-129.33 339.24,-123.76"/>
<polygon fill="#63b8ff" stroke="#63b8ff" points="339.2,-120.25 329.05,-123.31 338.89,-127.25 339.2,-120.25"/>
</a>
</g>
</g>
<!-- Node18&#45;&gt;Node8 -->
<g id="edge31_Node000018_Node000008" class="edge">
<title>Node18&#45;&gt;Node8</title>
<g id="a_edge31_Node000018_Node000008"><a xlink:title=" ">
<path fill="none" stroke="#63b8ff" d="M1094.05,-292.92C1044.46,-286.22 977.97,-273.52 923.27,-250 901.86,-240.8 901.57,-229.46 880.27,-220 842.92,-203.42 798.66,-192.64 761.96,-185.85"/>
<polygon fill="#63b8ff" stroke="#63b8ff" points="762.27,-182.36 751.82,-184.04 761.04,-189.25 762.27,-182.36"/>
</a>
</g>
</g>
<!-- Node18&#45;&gt;Node9 -->
<g id="edge32_Node000018_Node000009" class="edge">
<title>Node18&#45;&gt;Node9</title>
<g id="a_edge32_Node000018_Node000009"><a xlink:title=" ">
<path fill="none" stroke="#63b8ff" d="M1094.16,-287.66C1023.84,-275.63 918.13,-257.54 852.27,-246.27"/>
<polygon fill="#63b8ff" stroke="#63b8ff" points="852.5,-242.76 842.05,-244.52 851.32,-249.66 852.5,-242.76"/>
</a>
</g>
</g>
<!-- Node18&#45;&gt;Node13 -->
<g id="edge41_Node000018_Node000013" class="edge">
<title>Node18&#45;&gt;Node13</title>
<g id="a_edge41_Node000018_Node000013"><a xlink:title=" ">
<path fill="none" stroke="#63b8ff" d="M1093.84,-298.4C973.19,-294.81 736.84,-283.59 661.27,-250 643.16,-241.95 645.66,-229.5 628.27,-220 605.58,-207.61 537.53,-191.6 495.93,-182.55"/>
<polygon fill="#63b8ff" stroke="#63b8ff" points="496.49,-179.09 485.97,-180.41 495.01,-185.93 496.49,-179.09"/>
</a>
</g>
</g>
<!-- Node18&#45;&gt;Node14 -->
<g id="edge39_Node000018_Node000014" class="edge">
<title>Node18&#45;&gt;Node14</title>
<g id="a_edge39_Node000018_Node000014"><a xlink:title=" ">
<path fill="none" stroke="#63b8ff" d="M1094.14,-296.56C982.6,-290.52 773.87,-276.08 704.27,-250 682.45,-241.82 681.68,-231.24 661.27,-220 638.02,-207.2 610.34,-195.69 589.09,-187.59"/>
<polygon fill="#63b8ff" stroke="#63b8ff" points="590.11,-184.24 579.52,-184 587.65,-190.79 590.11,-184.24"/>
</a>
</g>
</g>
<!-- Node18&#45;&gt;Node15 -->
<g id="edge33_Node000018_Node000015" class="edge">
<title>Node18&#45;&gt;Node15</title>
<g id="a_edge33_Node000018_Node000015"><a xlink:title=" ">
<path fill="none" stroke="#63b8ff" d="M1094.17,-296.63C983.43,-290.87 764.68,-277.16 569.44,-250.05"/>
<polygon fill="#63b8ff" stroke="#63b8ff" points="569.67,-246.55 559.28,-248.63 568.7,-253.48 569.67,-246.55"/>
</a>
</g>
</g>
<!-- Node18&#45;&gt;Node17 -->
<g id="edge42_Node000018_Node000017" class="edge">
<title>Node18&#45;&gt;Node17</title>
<g id="a_edge42_Node000018_Node000017"><a xlink:title=" ">
<path fill="none" stroke="#63b8ff" d="M1094.07,-299.75C990.59,-297.92 794.76,-289.01 633.27,-250 630.96,-249.44 628.6,-248.76 626.26,-248"/>
<polygon fill="#63b8ff" stroke="#63b8ff" points="627.43,-244.71 616.83,-244.57 625.03,-251.28 627.43,-244.71"/>
</a>
</g>
</g>
<!-- Node19 -->
<g id="Node000019" class="node">
<title>Node19</title>
<g id="a_Node000019"><a xlink:title=" ">
<polygon fill="#e0e0e0" stroke="#999999" points="1087.27,-250 965.27,-250 965.27,-220 1087.27,-220 1087.27,-250"/>
<text text-anchor="start" x="973.27" y="-238" font-family="Helvetica,sans-Serif" font-size="10.00">slick/orderbook/detail</text>
<text text-anchor="middle" x="1026.27" y="-227" font-family="Helvetica,sans-Serif" font-size="10.00">/order.hpp</text>
</a>
</g>
</g>
<!-- Node18&#45;&gt;Node19 -->
<g id="edge34_Node000018_Node000019" class="edge">
<title>Node18&#45;&gt;Node19</title>
<g id="a_edge34_Node000018_Node000019"><a xlink:title=" ">
<path fill="none" stroke="#63b8ff" d="M1135.54,-285.95C1115.12,-276.62 1088.1,-264.27 1066.04,-254.18"/>
<polygon fill="#63b8ff" stroke="#63b8ff" points="1067.47,-250.99 1056.92,-250.01 1064.56,-257.35 1067.47,-250.99"/>
</a>
</g>
</g>
<!-- Node20 -->
<g id="Node000020" class="node">
<title>Node20</title>
<g id="a_Node000020"><a xlink:title=" ">
<polygon fill="#e0e0e0" stroke="#999999" points="1227.27,-250 1105.27,-250 1105.27,-220 1227.27,-220 1227.27,-250"/>
<text text-anchor="start" x="1113.27" y="-238" font-family="Helvetica,sans-Serif" font-size="10.00">slick/orderbook/detail</text>
<text text-anchor="middle" x="1166.27" y="-227" font-family="Helvetica,sans-Serif" font-size="10.00">/order_map.hpp</text>
</a>
</g>
</g>
<!-- Node18&#45;&gt;Node20 -->
<g id="edge35_Node000018_Node000020" class="edge">
<title>Node18&#45;&gt;Node20</title>
<g id="a_edge35_Node000018_Node000020"><a xlink:title=" ">
<path fill="none" stroke="#63b8ff" d="M1166.27,-285.8C1166.27,-278.34 1166.27,-268.99 1166.27,-260.41"/>
<polygon fill="#63b8ff" stroke="#63b8ff" points="1169.77,-260.16 1166.27,-250.16 1162.77,-260.16 1169.77,-260.16"/>
</a>
</g>
</g>
<!-- Node21 -->
<g id="Node000021" class="node">
<title>Node21</title>
<g id="a_Node000021"><a xlink:title=" ">
<polygon fill="#e0e0e0" stroke="#999999" points="1367.27,-250 1245.27,-250 1245.27,-220 1367.27,-220 1367.27,-250"/>
<text text-anchor="start" x="1253.27" y="-238" font-family="Helvetica,sans-Serif" font-size="10.00">slick/orderbook/detail</text>
<text text-anchor="middle" x="1306.27" y="-227" font-family="Helvetica,sans-Serif" font-size="10.00">/memory_pool.hpp</text>
</a>
</g>
</g>
<!-- Node18&#45;&gt;Node21 -->
<g id="edge36_Node000018_Node000021" class="edge">
<title>Node18&#45;&gt;Node21</title>
<g id="a_edge36_Node000018_Node000021"><a xlink:title=" ">
<path fill="none" stroke="#63b8ff" d="M1196.99,-285.95C1217.42,-276.62 1244.44,-264.27 1266.5,-254.18"/>
<polygon fill="#63b8ff" stroke="#63b8ff" points="1267.98,-257.35 1275.62,-250.01 1265.07,-250.99 1267.98,-257.35"/>
</a>
</g>
</g>
<!-- Node18&#45;&gt;Node22 -->
<g id="edge37_Node000018_Node000022" class="edge">
<title>Node18&#45;&gt;Node22</title>
<g id="a_edge37_Node000018_Node000022"><a xlink:title=" ">
<path fill="none" stroke="#63b8ff" d="M1238.59,-296.46C1352.78,-290.32 1581.64,-275.83 1774.27,-250 1775.52,-249.83 1776.79,-249.66 1778.06,-249.47"/>
<polygon fill="#63b8ff" stroke="#63b8ff" points="1778.59,-252.93 1787.96,-247.97 1777.54,-246.01 1778.59,-252.93"/>
</a>
</g>
</g>
<!-- Node23 -->
<g id="Node000023" class="node">
<title>Node23</title>
<g id="a_Node000023"><a xlink:title=" ">
<polygon fill="#e0e0e0" stroke="#999999" points="1507.27,-250 1385.27,-250 1385.27,-220 1507.27,-220 1507.27,-250"/>
<text text-anchor="start" x="1393.27" y="-238" font-family="Helvetica,sans-Serif" font-size="10.00">slick/orderbook/detail</text>
<text text-anchor="middle" x="1446.27" y="-227" font-family="Helvetica,sans-Serif" font-size="10.00">/intrusive_list.hpp</text>
</a>
</g>
</g>
<!-- Node18&#45;&gt;Node23 -->
<g id="edge38_Node000018_Node000023" class="edge">
<title>Node18&#45;&gt;Node23</title>
<g id="a_edge38_Node000018_Node000023"><a xlink:title=" ">
<path fill="none" stroke="#63b8ff" d="M1227.72,-285.95C1271.21,-276.01 1329.66,-262.65 1375.17,-252.25"/>
<polygon fill="#63b8ff" stroke="#63b8ff" points="1376,-255.65 1384.96,-250.01 1374.44,-248.83 1376,-255.65"/>
</a>
</g>
</g>
<!-- Node24 -->
<g id="Node000024" class="node">
<title>Node24</title>
<g id="a_Node000024"><a xlink:title=" ">
<polygon fill="#e0e0e0" stroke="#999999" points="1589.27,-244.5 1525.27,-244.5 1525.27,-225.5 1589.27,-225.5 1589.27,-244.5"/>
<text text-anchor="middle" x="1557.27" y="-232.5" font-family="Helvetica,sans-Serif" font-size="10.00">algorithm</text>
</a>
</g>
</g>
<!-- Node18&#45;&gt;Node24 -->
<g id="edge40_Node000018_Node000024" class="edge">
<title>Node18&#45;&gt;Node24</title>
<g id="a_edge40_Node000018_Node000024"><a xlink:title=" ">
<path fill="none" stroke="#63b8ff" d="M1238.4,-293.68C1309.69,-286.5 1421.51,-272.73 1516.27,-250 1519.08,-249.33 1521.97,-248.54 1524.85,-247.69"/>
<polygon fill="#63b8ff" stroke="#63b8ff" points="1526.04,-250.98 1534.5,-244.62 1523.91,-244.31 1526.04,-250.98"/>
</a>
</g>
</g>
<!-- Node25 -->
<g id="Node000025" class="node">
<title>Node25</title>
<g id="a_Node000025"><a xlink:title=" ">
<polygon fill="#e0e0e0" stroke="#999999" points="1648.77,-244.5 1607.77,-244.5 1607.77,-225.5 1648.77,-225.5 1648.77,-244.5"/>
<text text-anchor="middle" x="1628.27" y="-232.5" font-family="Helvetica,sans-Serif" font-size="10.00">tuple</text>
</a>
</g>
</g>
<!-- Node18&#45;&gt;Node25 -->
<g id="edge43_Node000018_Node000025" class="edge">
<title>Node18&#45;&gt;Node25</title>
<g id="a_edge43_Node000018_Node000025"><a xlink:title=" ">
<path fill="none" stroke="#63b8ff" d="M1238.34,-298.69C1325.23,-295.51 1474.95,-284.92 1598.27,-250 1599.9,-249.54 1601.56,-248.99 1603.21,-248.4"/>
<polygon fill="#63b8ff" stroke="#63b8ff" points="1604.56,-251.63 1612.44,-244.54 1601.87,-245.17 1604.56,-251.63"/>
</a>
</g>
</g>
<!-- Node26 -->
<g id="Node000026" class="node">
<title>Node26</title>
<g id="a_Node000026"><a xlink:title=" ">
<polygon fill="#e0e0e0" stroke="#999999" points="1731.77,-244.5 1666.77,-244.5 1666.77,-225.5 1731.77,-225.5 1731.77,-244.5"/>
<text text-anchor="middle" x="1699.27" y="-232.5" font-family="Helvetica,sans-Serif" font-size="10.00">functional</text>
</a>
</g>
</g>
<!-- Node18&#45;&gt;Node26 -->
<g id="edge44_Node000018_Node000026" class="edge">
<title>Node18&#45;&gt;Node26</title>
<g id="a_edge44_Node000018_Node000026"><a xlink:title=" ">
<path fill="none" stroke="#63b8ff" d="M1238.37,-297.8C1334.97,-293.7 1511.27,-282.13 1658.27,-250 1661.26,-249.35 1664.33,-248.55 1667.39,-247.66"/>
<polygon fill="#63b8ff" stroke="#63b8ff" points="1668.49,-250.99 1676.97,-244.64 1666.38,-244.31 1668.49,-250.99"/>
</a>
</g>
</g>
</g>
</svg>

<g id="navigator" transform="translate(0 0)" fill="#404254">
  <rect fill="#f2f5e9" fill-opacity="0.5" stroke="#606060" stroke-width=".5" x="0" y="0" width="60" height="60"/>
  <use id="zoomplus" xlink:href="#zoomPlus" x="17" y="9" onmousedown="handleZoom(evt,'in')"/>
  <use id="zoomminus" xlink:href="#zoomMin" x="42" y="9" onmousedown="handleZoom(evt,'out')"/>
  <use id="reset" xlink:href="#resetDef" x="30" y="36" onmousedown="handleReset()"/>
   <use id="arrowup" xlink:href="#arrowUp" x="0" y="0" onmousedown="handlePan(0,-1)"/>
  <use id="arrowright" xlink:href="#arrowRight" x="0" y="0" onmousedown="handlePan(1,0)"/>
  <use id="arrowdown" xlink:href="#arrowDown" x="0" y="0" onmousedown="handlePan(0,1)"/>
  <use id="arrowleft" xlink:href="#arrowLeft" x="0" y="0" onmousedown="handlePan(-1,0)"/>
</g>
<svg viewBox="0 0 15 15" width="100%" height="30px" preserveAspectRatio="xMaxYMin meet">
 <g id="arrow_out" transform="scale(0.3 0.3)">
  <a xlink:href="orderbook__manager_8hpp__incl_org.svg" target="_base">
   <rect id="button" ry="5" rx="5" y="6" x="6" height="38" width="38"
        fill="#f2f5e9" fill-opacity="0.5" stroke="#606060" stroke-width="1.0"/>
   <path id="arrow"
     d="M 11.500037,31.436501 C 11.940474,20.09759 22.043105,11.32322 32.158766,21.979434 L 37.068811,17.246167 C 37.068811,17.246167 37.088388,32 37.088388,32 L 22.160133,31.978069 C 22.160133,31.978069 26.997745,27.140456 26.997745,27.140456 C 18.528582,18.264221 13.291696,25.230495 11.500037,31.436501 z"
     style="fill:#404040;"/>
  </a>
 </g>
</svg>

<style type='text/css'>
<![CDATA[
[data-mouse-over-selected='false'] { opacity: 0.7; }
[data-mouse-over-selected='true']  { opacity: 1.0; }
]]>
</style>
<script type="application/ecmascript"><![CDATA[
document.addEventListener('DOMContentLoaded', (event) => {
  highlightEdges();
  highlightAdjacentNodes();
});
]]></script>
</svg>
