<?xml version="1.0" encoding="UTF-8" standalone="no"?>
<!DOCTYPE svg PUBLIC "-//W3C//DTD SVG 1.1//EN"
 "http://www.w3.org/Graphics/SVG/1.1/DTD/svg11.dtd">
<!-- Generated by graphviz version 2.43.0 (0)
 -->
<!-- Title: slick/orderbook/detail/order_map.hpp Pages: 1 -->
<svg width="330pt" height="269pt"
 viewBox="0.00 0.00 330.00 269.00" xmlns="http://www.w3.org/2000/svg" xmlns:xlink="http://www.w3.org/1999/xlink">

<svg id="main" version="1.1" xmlns="http://www.w3.org/2000/svg" xmlns:xlink="http://www.w3.org/1999/xlink" xml:space="preserve" onload="init(evt)">
<style type="text/css"><![CDATA[
.node, .edge {opacity: 0.7;}
.node.selected, .edge.selected {opacity: 1;}
.edge:hover path { stroke: red; }
.edge:hover polygon { stroke: red; fill: red; }
]]></style>
<script type="application/ecmascript" xlink:href="svg.min.js"/>
<svg id="graph" class="graph">
<g id="graph0" class="graph" transform="scale(1 1) rotate(0) translate(4 265)">
<title>slick/orderbook/detail/order_map.hpp</title>
<!-- Node1 -->
<g id="Node000001" class="node">
<title>Node1</title>
<g id="a_Node000001"><a xlink:title=" ">
<polygon fill="#999999" stroke="#666666" points="216.5,-261 94.5,-261 94.5,-231 216.5,-231 216.5,-261"/>
<text text-anchor="start" x="102.5" y="-249" font-family="Helvetica,sans-Serif" font-size="10.00">slick/orderbook/detail</text>
<text text-anchor="middle" x="155.5" y="-238" font-family="Helvetica,sans-Serif" font-size="10.00">/order_map.hpp</text>
</a>
</g>
</g>
<!-- Node2 -->
<g id="Node000002" class="node">
<title>Node2</title>
<g id="a_Node000002"><a xlink:href="config_8hpp.html" target="_top" xlink:title=" ">
<polygon fill="white" stroke="#666666" points="145,-74 0,-74 0,-55 145,-55 145,-74"/>
<text text-anchor="middle" x="72.5" y="-62" font-family="Helvetica,sans-Serif" font-size="10.00">slick/orderbook/config.hpp</text>
</a>
</g>
</g>
<!-- Node1&#45;&gt;Node2 -->
<g id="edge1_Node000001_Node000002" class="edge">
<title>Node1&#45;&gt;Node2</title>
<g id="a_edge1_Node000001_Node000002"><a xlink:title=" ">
<path fill="none" stroke="#63b8ff" d="M94.46,-232.52C74.1,-225.14 53.56,-213.45 41.5,-195 18.41,-159.67 44.03,-108.86 60.62,-82.63"/>
<polygon fill="#63b8ff" stroke="#63b8ff" points="63.63,-84.42 66.21,-74.15 57.78,-80.57 63.63,-84.42"/>
</a>
</g>
</g>
<!-- Node4 -->
<g id="Node000004" class="node">
<title>Node4</title>
<g id="a_Node000004"><a xlink:href="types_8hpp.html" target="_top" xlink:title=" ">
<polygon fill="white" stroke="#666666" points="260,-129 117,-129 117,-110 260,-110 260,-129"/>
<text text-anchor="middle" x="188.5" y="-117" font-family="Helvetica,sans-Serif" font-size="10.00">slick/orderbook/types.hpp</text>
</a>
</g>
</g>
<!-- Node1&#45;&gt;Node4 -->
<g id="edge3_Node000001_Node000004" class="edge">
<title>Node1&#45;&gt;Node4</title>
<g id="a_edge3_Node000001_Node000004"><a xlink:title=" ">
<path fill="none" stroke="#63b8ff" d="M164.8,-230.75C170.64,-221.08 177.74,-207.76 181.5,-195 186.88,-176.73 188.4,-154.95 188.71,-139.67"/>
<polygon fill="#63b8ff" stroke="#63b8ff" points="192.21,-139.44 188.75,-129.42 185.21,-139.41 192.21,-139.44"/>
</a>
</g>
</g>
<!-- Node7 -->
<g id="Node000007" class="node">
<title>Node7</title>
<g id="a_Node000007"><a xlink:href="order_8hpp.html" target="_top" xlink:title=" ">
<polygon fill="white" stroke="#666666" points="172.5,-195 50.5,-195 50.5,-165 172.5,-165 172.5,-195"/>
<text text-anchor="start" x="58.5" y="-183" font-family="Helvetica,sans-Serif" font-size="10.00">slick/orderbook/detail</text>
<text text-anchor="middle" x="111.5" y="-172" font-family="Helvetica,sans-Serif" font-size="10.00">/order.hpp</text>
</a>
</g>
</g>
<!-- Node1&#45;&gt;Node7 -->
<g id="edge7_Node000001_Node000007" class="edge">
<title>Node1&#45;&gt;Node7</title>
<g id="a_edge7_Node000001_Node000007"><a xlink:title=" ">
<path fill="none" stroke="#63b8ff" d="M145.73,-230.8C140.21,-222.76 133.17,-212.53 126.92,-203.43"/>
<polygon fill="#63b8ff" stroke="#63b8ff" points="129.79,-201.42 121.24,-195.16 124.02,-205.39 129.79,-201.42"/>
</a>
</g>
</g>
<!-- Node8 -->
<g id="Node000008" class="node">
<title>Node8</title>
<g id="a_Node000008"><a xlink:title=" ">
<polygon fill="#e0e0e0" stroke="#999999" points="322,-189.5 229,-189.5 229,-170.5 322,-170.5 322,-189.5"/>
<text text-anchor="middle" x="275.5" y="-177.5" font-family="Helvetica,sans-Serif" font-size="10.00">unordered_map</text>
</a>
</g>
</g>
<!-- Node1&#45;&gt;Node8 -->
<g id="edge10_Node000001_Node000008" class="edge">
<title>Node1&#45;&gt;Node8</title>
<g id="a_edge10_Node000001_Node000008"><a xlink:title=" ">
<path fill="none" stroke="#63b8ff" d="M181.83,-230.95C202.32,-220.03 230.56,-204.97 250.66,-194.25"/>
<polygon fill="#63b8ff" stroke="#63b8ff" points="252.35,-197.31 259.53,-189.52 249.06,-191.14 252.35,-197.31"/>
</a>
</g>
</g>
<!-- Node3 -->
<g id="Node000003" class="node">
<title>Node3</title>
<g id="a_Node000003"><a xlink:title=" ">
<polygon fill="#e0e0e0" stroke="#999999" points="98.5,-19 46.5,-19 46.5,0 98.5,0 98.5,-19"/>
<text text-anchor="middle" x="72.5" y="-7" font-family="Helvetica,sans-Serif" font-size="10.00">cassert</text>
</a>
</g>
</g>
<!-- Node2&#45;&gt;Node3 -->
<g id="edge2_Node000002_Node000003" class="edge">
<title>Node2&#45;&gt;Node3</title>
<g id="a_edge2_Node000002_Node000003"><a xlink:title=" ">
<path fill="none" stroke="#63b8ff" d="M72.5,-54.75C72.5,-47.8 72.5,-37.85 72.5,-29.13"/>
<polygon fill="#63b8ff" stroke="#63b8ff" points="76,-29.09 72.5,-19.09 69,-29.09 76,-29.09"/>
</a>
</g>
</g>
<!-- Node4&#45;&gt;Node2 -->
<g id="edge4_Node000004_Node000002" class="edge">
<title>Node4&#45;&gt;Node2</title>
<g id="a_edge4_Node000004_Node000002"><a xlink:title=" ">
<path fill="none" stroke="#63b8ff" d="M169.86,-109.98C151.2,-101.46 122.25,-88.23 100.76,-78.41"/>
<polygon fill="#63b8ff" stroke="#63b8ff" points="102.03,-75.14 91.48,-74.17 99.12,-81.51 102.03,-75.14"/>
</a>
</g>
</g>
<!-- Node5 -->
<g id="Node000005" class="node">
<title>Node5</title>
<g id="a_Node000005"><a xlink:title=" ">
<polygon fill="#e0e0e0" stroke="#999999" points="213.5,-74 163.5,-74 163.5,-55 213.5,-55 213.5,-74"/>
<text text-anchor="middle" x="188.5" y="-62" font-family="Helvetica,sans-Serif" font-size="10.00">cstdint</text>
</a>
</g>
</g>
<!-- Node4&#45;&gt;Node5 -->
<g id="edge5_Node000004_Node000005" class="edge">
<title>Node4&#45;&gt;Node5</title>
<g id="a_edge5_Node000004_Node000005"><a xlink:title=" ">
<path fill="none" stroke="#63b8ff" d="M188.5,-109.75C188.5,-102.8 188.5,-92.85 188.5,-84.13"/>
<polygon fill="#63b8ff" stroke="#63b8ff" points="192,-84.09 188.5,-74.09 185,-84.09 192,-84.09"/>
</a>
</g>
</g>
<!-- Node6 -->
<g id="Node000006" class="node">
<title>Node6</title>
<g id="a_Node000006"><a xlink:title=" ">
<polygon fill="#e0e0e0" stroke="#999999" points="305,-74 232,-74 232,-55 305,-55 305,-74"/>
<text text-anchor="middle" x="268.5" y="-62" font-family="Helvetica,sans-Serif" font-size="10.00">string_view</text>
</a>
</g>
</g>
<!-- Node4&#45;&gt;Node6 -->
<g id="edge6_Node000004_Node000006" class="edge">
<title>Node4&#45;&gt;Node6</title>
<g id="a_edge6_Node000004_Node000006"><a xlink:title=" ">
<path fill="none" stroke="#63b8ff" d="M201.35,-109.98C213.64,-101.84 232.41,-89.41 246.98,-79.76"/>
<polygon fill="#63b8ff" stroke="#63b8ff" points="249.01,-82.61 255.41,-74.17 245.14,-76.78 249.01,-82.61"/>
</a>
</g>
</g>
<!-- Node7&#45;&gt;Node2 -->
<g id="edge8_Node000007_Node000002" class="edge">
<title>Node7&#45;&gt;Node2</title>
<g id="a_edge8_Node000007_Node000002"><a xlink:title=" ">
<path fill="none" stroke="#63b8ff" d="M106.56,-164.63C99.51,-144.12 86.58,-106.47 78.83,-83.93"/>
<polygon fill="#63b8ff" stroke="#63b8ff" points="82.06,-82.55 75.5,-74.23 75.44,-84.82 82.06,-82.55"/>
</a>
</g>
</g>
<!-- Node7&#45;&gt;Node4 -->
<g id="edge9_Node000007_Node000004" class="edge">
<title>Node7&#45;&gt;Node4</title>
<g id="a_edge9_Node000007_Node000004"><a xlink:title=" ">
<path fill="none" stroke="#63b8ff" d="M130.14,-164.84C141.89,-155.91 157.03,-144.41 168.95,-135.35"/>
<polygon fill="#63b8ff" stroke="#63b8ff" points="171.12,-138.1 176.96,-129.27 166.88,-132.53 171.12,-138.1"/>
</a>
</g>
</g>
</g>
</svg>
</svg>

<style type='text/css'>
<![CDATA[
[data-mouse-over-selected='false'] { opacity: 0.7; }
[data-mouse-over-selected='true']  { opacity: 1.0; }
]]>
</style>
<script type="application/ecmascript"><![CDATA[
document.addEventListener('DOMContentLoaded', (event) => {
  highlightEdges();
  highlightAdjacentNodes();
});
]]></script>
</svg>
