<?xml version="1.0" encoding="UTF-8" standalone="no"?>
<!DOCTYPE svg PUBLIC "-//W3C//DTD SVG 1.1//EN"
 "http://www.w3.org/Graphics/SVG/1.1/DTD/svg11.dtd">
<!-- Generated by graphviz version 2.43.0 (0)
 -->
<!-- Title: slick/orderbook/orderbook_l3.hpp Pages: 1 -->
<svg width="1676pt" height="335pt"
 viewBox="0.00 0.00 1676.40 335.00" xmlns="http://www.w3.org/2000/svg" xmlns:xlink="http://www.w3.org/1999/xlink">
<g id="graph0" class="graph" transform="scale(1 1) rotate(0) translate(4 331)">
<title>slick/orderbook/orderbook_l3.hpp</title>
<!-- Node1 -->
<g id="Node000001" class="node">
<title>Node1</title>
<g id="a_Node000001"><a xlink:title=" ">
<polygon fill="#999999" stroke="#666666" points="1082.9,-327 938.9,-327 938.9,-297 1082.9,-297 1082.9,-327"/>
<text text-anchor="start" x="946.9" y="-315" font-family="Helvetica,sans-Serif" font-size="10.00">slick/orderbook/orderbook</text>
<text text-anchor="middle" x="1010.9" y="-304" font-family="Helvetica,sans-Serif" font-size="10.00">_l3.hpp</text>
</a>
</g>
</g>
<!-- Node2 -->
<g id="Node000002" class="node">
<title>Node2</title>
<g id="a_Node000002"><a xlink:href="config_8hpp.html" target="_top" xlink:title=" ">
<polygon fill="white" stroke="#666666" points="727.4,-74 582.4,-74 582.4,-55 727.4,-55 727.4,-74"/>
<text text-anchor="middle" x="654.9" y="-62" font-family="Helvetica,sans-Serif" font-size="10.00">slick/orderbook/config.hpp</text>
</a>
</g>
</g>
<!-- Node1&#45;&gt;Node2 -->
<g id="edge1_Node000001_Node000002" class="edge">
<title>Node1&#45;&gt;Node2</title>
<g id="a_edge1_Node000001_Node000002"><a xlink:title=" ">
<path fill="none" stroke="#63b8ff" d="M938.68,-311.01C775.63,-309.26 387.51,-294.51 314.9,-195 274.6,-139.77 379.6,-115.49 392.9,-110 450.1,-86.41 519.27,-75.32 572.17,-70.11"/>
<polygon fill="#63b8ff" stroke="#63b8ff" points="572.56,-73.59 582.19,-69.18 571.91,-66.62 572.56,-73.59"/>
</a>
</g>
</g>
<!-- Node4 -->
<g id="Node000004" class="node">
<title>Node4</title>
<g id="a_Node000004"><a xlink:href="types_8hpp.html" target="_top" xlink:title=" ">
<polygon fill="white" stroke="#666666" points="545.4,-129 402.4,-129 402.4,-110 545.4,-110 545.4,-129"/>
<text text-anchor="middle" x="473.9" y="-117" font-family="Helvetica,sans-Serif" font-size="10.00">slick/orderbook/types.hpp</text>
</a>
</g>
</g>
<!-- Node1&#45;&gt;Node4 -->
<g id="edge3_Node000001_Node000004" class="edge">
<title>Node1&#45;&gt;Node4</title>
<g id="a_edge3_Node000001_Node000004"><a xlink:title=" ">
<path fill="none" stroke="#63b8ff" d="M938.83,-310.09C714.68,-306.89 42.82,-294.55 10.9,-261 -1.7,-247.75 -6.73,-187.43 14.9,-165 40.48,-138.48 266.59,-127.09 391.62,-122.78"/>
<polygon fill="#63b8ff" stroke="#63b8ff" points="392.04,-126.27 401.92,-122.44 391.81,-119.28 392.04,-126.27"/>
</a>
</g>
</g>
<!-- Node7 -->
<g id="Node000007" class="node">
<title>Node7</title>
<g id="a_Node000007"><a xlink:href="events_8hpp.html" target="_top" xlink:title=" ">
<polygon fill="white" stroke="#666666" points="650.4,-189.5 501.4,-189.5 501.4,-170.5 650.4,-170.5 650.4,-189.5"/>
<text text-anchor="middle" x="575.9" y="-177.5" font-family="Helvetica,sans-Serif" font-size="10.00">slick/orderbook/events.hpp</text>
</a>
</g>
</g>
<!-- Node1&#45;&gt;Node7 -->
<g id="edge7_Node000001_Node000007" class="edge">
<title>Node1&#45;&gt;Node7</title>
<g id="a_edge7_Node000001_Node000007"><a xlink:title=" ">
<path fill="none" stroke="#63b8ff" d="M938.65,-310.96C868.71,-308.5 761.06,-298.16 675.9,-261 641.29,-245.9 608.58,-215.61 590.49,-196.95"/>
<polygon fill="#63b8ff" stroke="#63b8ff" points="592.87,-194.37 583.46,-189.51 587.79,-199.18 592.87,-194.37"/>
</a>
</g>
</g>
<!-- Node8 -->
<g id="Node000008" class="node">
<title>Node8</title>
<g id="a_Node000008"><a xlink:href="observer_8hpp.html" target="_top" xlink:title=" ">
<polygon fill="white" stroke="#666666" points="982.9,-255.5 824.9,-255.5 824.9,-236.5 982.9,-236.5 982.9,-255.5"/>
<text text-anchor="middle" x="903.9" y="-243.5" font-family="Helvetica,sans-Serif" font-size="10.00">slick/orderbook/observer.hpp</text>
</a>
</g>
</g>
<!-- Node1&#45;&gt;Node8 -->
<g id="edge10_Node000001_Node000008" class="edge">
<title>Node1&#45;&gt;Node8</title>
<g id="a_edge10_Node000001_Node000008"><a xlink:title=" ">
<path fill="none" stroke="#63b8ff" d="M987.42,-296.95C969.4,-286.18 944.66,-271.38 926.79,-260.69"/>
<polygon fill="#63b8ff" stroke="#63b8ff" points="928.52,-257.65 918.14,-255.52 924.93,-263.65 928.52,-257.65"/>
</a>
</g>
</g>
<!-- Node12 -->
<g id="Node000012" class="node">
<title>Node12</title>
<g id="a_Node000012"><a xlink:title=" ">
<polygon fill="#e0e0e0" stroke="#999999" points="1107.4,-189.5 1060.4,-189.5 1060.4,-170.5 1107.4,-170.5 1107.4,-189.5"/>
<text text-anchor="middle" x="1083.9" y="-177.5" font-family="Helvetica,sans-Serif" font-size="10.00">vector</text>
</a>
</g>
</g>
<!-- Node1&#45;&gt;Node12 -->
<g id="edge55_Node000001_Node000012" class="edge">
<title>Node1&#45;&gt;Node12</title>
<g id="a_edge55_Node000001_Node000012"><a xlink:title=" ">
<path fill="none" stroke="#63b8ff" d="M1018.85,-296.84C1032.29,-272.92 1059.44,-224.56 1074.06,-198.53"/>
<polygon fill="#63b8ff" stroke="#63b8ff" points="1077.14,-200.18 1078.99,-189.75 1071.04,-196.75 1077.14,-200.18"/>
</a>
</g>
</g>
<!-- Node13 -->
<g id="Node000013" class="node">
<title>Node13</title>
<g id="a_Node000013"><a xlink:title=" ">
<polygon fill="#e0e0e0" stroke="#999999" points="1183.9,-189.5 1125.9,-189.5 1125.9,-170.5 1183.9,-170.5 1183.9,-189.5"/>
<text text-anchor="middle" x="1154.9" y="-177.5" font-family="Helvetica,sans-Serif" font-size="10.00">memory</text>
</a>
</g>
</g>
<!-- Node1&#45;&gt;Node13 -->
<g id="edge53_Node000001_Node000013" class="edge">
<title>Node1&#45;&gt;Node13</title>
<g id="a_edge53_Node000001_Node000013"><a xlink:title=" ">
<path fill="none" stroke="#63b8ff" d="M1026.59,-296.84C1053.79,-272.28 1109.5,-221.99 1137.71,-196.52"/>
<polygon fill="#63b8ff" stroke="#63b8ff" points="1140.13,-199.05 1145.21,-189.75 1135.44,-193.85 1140.13,-199.05"/>
</a>
</g>
</g>
<!-- Node14 -->
<g id="Node000014" class="node">
<title>Node14</title>
<g id="a_Node000014"><a xlink:href="price__level__l2_8hpp.html" target="_top" xlink:title=" ">
<polygon fill="white" stroke="#666666" points="267.9,-195 145.9,-195 145.9,-165 267.9,-165 267.9,-195"/>
<text text-anchor="start" x="153.9" y="-183" font-family="Helvetica,sans-Serif" font-size="10.00">slick/orderbook/detail</text>
<text text-anchor="middle" x="206.9" y="-172" font-family="Helvetica,sans-Serif" font-size="10.00">/price_level_l2.hpp</text>
</a>
</g>
</g>
<!-- Node1&#45;&gt;Node14 -->
<g id="edge20_Node000001_Node000014" class="edge">
<title>Node1&#45;&gt;Node14</title>
<g id="a_edge20_Node000001_Node000014"><a xlink:title=" ">
<path fill="none" stroke="#63b8ff" d="M938.85,-309.04C766.47,-303.94 340.21,-288.67 281.9,-261 255.62,-248.53 233.99,-222.44 220.83,-203.44"/>
<polygon fill="#63b8ff" stroke="#63b8ff" points="223.68,-201.41 215.22,-195.03 217.85,-205.29 223.68,-201.41"/>
</a>
</g>
</g>
<!-- Node15 -->
<g id="Node000015" class="node">
<title>Node15</title>
<g id="a_Node000015"><a xlink:href="price__level__l3_8hpp.html" target="_top" xlink:title=" ">
<polygon fill="white" stroke="#666666" points="806.9,-261 684.9,-261 684.9,-231 806.9,-231 806.9,-261"/>
<text text-anchor="start" x="692.9" y="-249" font-family="Helvetica,sans-Serif" font-size="10.00">slick/orderbook/detail</text>
<text text-anchor="middle" x="745.9" y="-238" font-family="Helvetica,sans-Serif" font-size="10.00">/price_level_l3.hpp</text>
</a>
</g>
</g>
<!-- Node1&#45;&gt;Node15 -->
<g id="edge23_Node000001_Node000015" class="edge">
<title>Node1&#45;&gt;Node15</title>
<g id="a_edge23_Node000001_Node000015"><a xlink:title=" ">
<path fill="none" stroke="#63b8ff" d="M952.75,-296.95C911.76,-287.06 856.73,-273.77 813.74,-263.38"/>
<polygon fill="#63b8ff" stroke="#63b8ff" points="814.46,-259.96 803.92,-261.01 812.82,-266.76 814.46,-259.96"/>
</a>
</g>
</g>
<!-- Node16 -->
<g id="Node000016" class="node">
<title>Node16</title>
<g id="a_Node000016"><a xlink:href="intrusive__list_8hpp.html" target="_top" xlink:title=" ">
<polygon fill="white" stroke="#666666" points="1041.9,-195 919.9,-195 919.9,-165 1041.9,-165 1041.9,-195"/>
<text text-anchor="start" x="927.9" y="-183" font-family="Helvetica,sans-Serif" font-size="10.00">slick/orderbook/detail</text>
<text text-anchor="middle" x="980.9" y="-172" font-family="Helvetica,sans-Serif" font-size="10.00">/intrusive_list.hpp</text>
</a>
</g>
</g>
<!-- Node1&#45;&gt;Node16 -->
<g id="edge52_Node000001_Node000016" class="edge">
<title>Node1&#45;&gt;Node16</title>
<g id="a_edge52_Node000001_Node000016"><a xlink:title=" ">
<path fill="none" stroke="#63b8ff" d="M1007.63,-296.84C1002.54,-274.76 992.64,-231.89 986.43,-204.94"/>
<polygon fill="#63b8ff" stroke="#63b8ff" points="989.82,-204.1 984.17,-195.14 983,-205.67 989.82,-204.1"/>
</a>
</g>
</g>
<!-- Node19 -->
<g id="Node000019" class="node">
<title>Node19</title>
<g id="a_Node000019"><a xlink:href="order_8hpp.html" target="_top" xlink:title=" ">
<polygon fill="white" stroke="#666666" points="445.9,-195 323.9,-195 323.9,-165 445.9,-165 445.9,-195"/>
<text text-anchor="start" x="331.9" y="-183" font-family="Helvetica,sans-Serif" font-size="10.00">slick/orderbook/detail</text>
<text text-anchor="middle" x="384.9" y="-172" font-family="Helvetica,sans-Serif" font-size="10.00">/order.hpp</text>
</a>
</g>
</g>
<!-- Node1&#45;&gt;Node19 -->
<g id="edge34_Node000001_Node000019" class="edge">
<title>Node1&#45;&gt;Node19</title>
<g id="a_edge34_Node000001_Node000019"><a xlink:title=" ">
<path fill="none" stroke="#63b8ff" d="M938.67,-305.83C860.57,-299.27 732.76,-285.72 624.9,-261 555.21,-245.03 477.11,-217.02 429.47,-198.74"/>
<polygon fill="#63b8ff" stroke="#63b8ff" points="430.66,-195.45 420.07,-195.11 428.14,-201.98 430.66,-195.45"/>
</a>
</g>
</g>
<!-- Node20 -->
<g id="Node000020" class="node">
<title>Node20</title>
<g id="a_Node000020"><a xlink:href="order__map_8hpp.html" target="_top" xlink:title=" ">
<polygon fill="white" stroke="#666666" points="141.9,-261 19.9,-261 19.9,-231 141.9,-231 141.9,-261"/>
<text text-anchor="start" x="27.9" y="-249" font-family="Helvetica,sans-Serif" font-size="10.00">slick/orderbook/detail</text>
<text text-anchor="middle" x="80.9" y="-238" font-family="Helvetica,sans-Serif" font-size="10.00">/order_map.hpp</text>
</a>
</g>
</g>
<!-- Node1&#45;&gt;Node20 -->
<g id="edge35_Node000001_Node000020" class="edge">
<title>Node1&#45;&gt;Node20</title>
<g id="a_edge35_Node000001_Node000020"><a xlink:title=" ">
<path fill="none" stroke="#63b8ff" d="M938.76,-307.37C799.49,-300.15 483.91,-282.8 218.9,-261 197.15,-259.21 173.5,-256.93 152.02,-254.74"/>
<polygon fill="#63b8ff" stroke="#63b8ff" points="152.3,-251.25 142,-253.7 151.58,-258.21 152.3,-251.25"/>
</a>
</g>
</g>
<!-- Node22 -->
<g id="Node000022" class="node">
<title>Node22</title>
<g id="a_Node000022"><a xlink:href="memory__pool_8hpp.html" target="_top" xlink:title=" ">
<polygon fill="white" stroke="#666666" points="1243.9,-261 1121.9,-261 1121.9,-231 1243.9,-231 1243.9,-261"/>
<text text-anchor="start" x="1129.9" y="-249" font-family="Helvetica,sans-Serif" font-size="10.00">slick/orderbook/detail</text>
<text text-anchor="middle" x="1182.9" y="-238" font-family="Helvetica,sans-Serif" font-size="10.00">/memory_pool.hpp</text>
</a>
</g>
</g>
<!-- Node1&#45;&gt;Node22 -->
<g id="edge40_Node000001_Node000022" class="edge">
<title>Node1&#45;&gt;Node22</title>
<g id="a_edge40_Node000001_Node000022"><a xlink:title=" ">
<path fill="none" stroke="#63b8ff" d="M1048.65,-296.95C1074.3,-287.41 1108.42,-274.71 1135.85,-264.51"/>
<polygon fill="#63b8ff" stroke="#63b8ff" points="1137.09,-267.78 1145.24,-261.01 1134.65,-261.22 1137.09,-267.78"/>
</a>
</g>
</g>
<!-- Node24 -->
<g id="Node000024" class="node">
<title>Node24</title>
<g id="a_Node000024"><a xlink:href="flat__map_8hpp.html" target="_top" xlink:title=" ">
<polygon fill="white" stroke="#666666" points="1383.9,-261 1261.9,-261 1261.9,-231 1383.9,-231 1383.9,-261"/>
<text text-anchor="start" x="1269.9" y="-249" font-family="Helvetica,sans-Serif" font-size="10.00">slick/orderbook/detail</text>
<text text-anchor="middle" x="1322.9" y="-238" font-family="Helvetica,sans-Serif" font-size="10.00">/flat_map.hpp</text>
</a>
</g>
</g>
<!-- Node1&#45;&gt;Node24 -->
<g id="edge48_Node000001_Node000024" class="edge">
<title>Node1&#45;&gt;Node24</title>
<g id="a_edge48_Node000001_Node000024"><a xlink:title=" ">
<path fill="none" stroke="#63b8ff" d="M1079.37,-296.95C1130.41,-286.49 1199.93,-272.22 1251.63,-261.62"/>
<polygon fill="#63b8ff" stroke="#63b8ff" points="1252.63,-264.99 1261.72,-259.55 1251.22,-258.13 1252.63,-264.99"/>
</a>
</g>
</g>
<!-- Node27 -->
<g id="Node000027" class="node">
<title>Node27</title>
<g id="a_Node000027"><a xlink:title=" ">
<polygon fill="#e0e0e0" stroke="#999999" points="1465.9,-255.5 1401.9,-255.5 1401.9,-236.5 1465.9,-236.5 1465.9,-255.5"/>
<text text-anchor="middle" x="1433.9" y="-243.5" font-family="Helvetica,sans-Serif" font-size="10.00">algorithm</text>
</a>
</g>
</g>
<!-- Node1&#45;&gt;Node27 -->
<g id="edge54_Node000001_Node000027" class="edge">
<title>Node1&#45;&gt;Node27</title>
<g id="a_edge54_Node000001_Node000027"><a xlink:title=" ">
<path fill="none" stroke="#63b8ff" d="M1083.13,-305.85C1160.52,-299.34 1286.58,-285.85 1392.9,-261 1395.88,-260.3 1398.95,-259.47 1402,-258.57"/>
<polygon fill="#63b8ff" stroke="#63b8ff" points="1403.12,-261.89 1411.58,-255.52 1400.99,-255.22 1403.12,-261.89"/>
</a>
</g>
</g>
<!-- Node28 -->
<g id="Node000028" class="node">
<title>Node28</title>
<g id="a_Node000028"><a xlink:title=" ">
<polygon fill="#e0e0e0" stroke="#999999" points="1525.9,-255.5 1483.9,-255.5 1483.9,-236.5 1525.9,-236.5 1525.9,-255.5"/>
<text text-anchor="middle" x="1504.9" y="-243.5" font-family="Helvetica,sans-Serif" font-size="10.00">array</text>
</a>
</g>
</g>
<!-- Node1&#45;&gt;Node28 -->
<g id="edge56_Node000001_Node000028" class="edge">
<title>Node1&#45;&gt;Node28</title>
<g id="a_edge56_Node000001_Node000028"><a xlink:title=" ">
<path fill="none" stroke="#63b8ff" d="M1083.02,-310.52C1175.45,-308.25 1339.89,-298.66 1474.9,-261 1476.54,-260.54 1478.2,-260.01 1479.85,-259.41"/>
<polygon fill="#63b8ff" stroke="#63b8ff" points="1481.2,-262.64 1489.08,-255.56 1478.51,-256.18 1481.2,-262.64"/>
</a>
</g>
</g>
<!-- Node29 -->
<g id="Node000029" class="node">
<title>Node29</title>
<g id="a_Node000029"><a xlink:title=" ">
<polygon fill="#e0e0e0" stroke="#999999" points="1585.4,-255.5 1544.4,-255.5 1544.4,-236.5 1585.4,-236.5 1585.4,-255.5"/>
<text text-anchor="middle" x="1564.9" y="-243.5" font-family="Helvetica,sans-Serif" font-size="10.00">tuple</text>
</a>
</g>
</g>
<!-- Node1&#45;&gt;Node29 -->
<g id="edge57_Node000001_Node000029" class="edge">
<title>Node1&#45;&gt;Node29</title>
<g id="a_edge57_Node000001_Node000029"><a xlink:title=" ">
<path fill="none" stroke="#63b8ff" d="M1083.05,-311.81C1185.39,-311.24 1377.73,-303.8 1534.9,-261 1536.39,-260.59 1537.9,-260.12 1539.41,-259.59"/>
<polygon fill="#63b8ff" stroke="#63b8ff" points="1541.18,-262.65 1549.09,-255.6 1538.51,-256.18 1541.18,-262.65"/>
</a>
</g>
</g>
<!-- Node30 -->
<g id="Node000030" class="node">
<title>Node30</title>
<g id="a_Node000030"><a xlink:title=" ">
<polygon fill="#e0e0e0" stroke="#999999" points="1668.4,-255.5 1603.4,-255.5 1603.4,-236.5 1668.4,-236.5 1668.4,-255.5"/>
<text text-anchor="middle" x="1635.9" y="-243.5" font-family="Helvetica,sans-Serif" font-size="10.00">functional</text>
</a>
</g>
</g>
<!-- Node1&#45;&gt;Node30 -->
<g id="edge58_Node000001_Node000030" class="edge">
<title>Node1&#45;&gt;Node30</title>
<g id="a_edge58_Node000001_Node000030"><a xlink:title=" ">
<path fill="none" stroke="#63b8ff" d="M1083.19,-310.44C1194.35,-308.33 1413.41,-299.16 1594.9,-261 1597.97,-260.36 1601.12,-259.55 1604.25,-258.65"/>
<polygon fill="#63b8ff" stroke="#63b8ff" points="1605.57,-261.91 1614.05,-255.56 1603.46,-255.23 1605.57,-261.91"/>
</a>
</g>
</g>
<!-- Node3 -->
<g id="Node000003" class="node">
<title>Node3</title>
<g id="a_Node000003"><a xlink:title=" ">
<polygon fill="#e0e0e0" stroke="#999999" points="680.9,-19 628.9,-19 628.9,0 680.9,0 680.9,-19"/>
<text text-anchor="middle" x="654.9" y="-7" font-family="Helvetica,sans-Serif" font-size="10.00">cassert</text>
</a>
</g>
</g>
<!-- Node2&#45;&gt;Node3 -->
<g id="edge2_Node000002_Node000003" class="edge">
<title>Node2&#45;&gt;Node3</title>
<g id="a_edge2_Node000002_Node000003"><a xlink:title=" ">
<path fill="none" stroke="#63b8ff" d="M654.9,-54.75C654.9,-47.8 654.9,-37.85 654.9,-29.13"/>
<polygon fill="#63b8ff" stroke="#63b8ff" points="658.4,-29.09 654.9,-19.09 651.4,-29.09 658.4,-29.09"/>
</a>
</g>
</g>
<!-- Node4&#45;&gt;Node2 -->
<g id="edge4_Node000004_Node000002" class="edge">
<title>Node4&#45;&gt;Node2</title>
<g id="a_edge4_Node000004_Node000002"><a xlink:title=" ">
<path fill="none" stroke="#63b8ff" d="M502.98,-109.98C533.5,-101.05 581.67,-86.94 615.57,-77.02"/>
<polygon fill="#63b8ff" stroke="#63b8ff" points="616.98,-80.25 625.59,-74.08 615.01,-73.53 616.98,-80.25"/>
</a>
</g>
</g>
<!-- Node5 -->
<g id="Node000005" class="node">
<title>Node5</title>
<g id="a_Node000005"><a xlink:title=" ">
<polygon fill="#e0e0e0" stroke="#999999" points="1130.9,-74 1080.9,-74 1080.9,-55 1130.9,-55 1130.9,-74"/>
<text text-anchor="middle" x="1105.9" y="-62" font-family="Helvetica,sans-Serif" font-size="10.00">cstdint</text>
</a>
</g>
</g>
<!-- Node4&#45;&gt;Node5 -->
<g id="edge5_Node000004_Node000005" class="edge">
<title>Node4&#45;&gt;Node5</title>
<g id="a_edge5_Node000004_Node000005"><a xlink:title=" ">
<path fill="none" stroke="#63b8ff" d="M545.48,-112.5C680.81,-101.15 969.64,-76.93 1070.37,-68.48"/>
<polygon fill="#63b8ff" stroke="#63b8ff" points="1070.94,-71.94 1080.61,-67.62 1070.35,-64.97 1070.94,-71.94"/>
</a>
</g>
</g>
<!-- Node6 -->
<g id="Node000006" class="node">
<title>Node6</title>
<g id="a_Node000006"><a xlink:title=" ">
<polygon fill="#e0e0e0" stroke="#999999" points="510.4,-74 437.4,-74 437.4,-55 510.4,-55 510.4,-74"/>
<text text-anchor="middle" x="473.9" y="-62" font-family="Helvetica,sans-Serif" font-size="10.00">string_view</text>
</a>
</g>
</g>
<!-- Node4&#45;&gt;Node6 -->
<g id="edge6_Node000004_Node000006" class="edge">
<title>Node4&#45;&gt;Node6</title>
<g id="a_edge6_Node000004_Node000006"><a xlink:title=" ">
<path fill="none" stroke="#63b8ff" d="M473.9,-109.75C473.9,-102.8 473.9,-92.85 473.9,-84.13"/>
<polygon fill="#63b8ff" stroke="#63b8ff" points="477.4,-84.09 473.9,-74.09 470.4,-84.09 477.4,-84.09"/>
</a>
</g>
</g>
<!-- Node7&#45;&gt;Node2 -->
<g id="edge8_Node000007_Node000002" class="edge">
<title>Node7&#45;&gt;Node2</title>
<g id="a_edge8_Node000007_Node000002"><a xlink:title=" ">
<path fill="none" stroke="#63b8ff" d="M581.84,-170.47C594.82,-151.82 625.94,-107.11 643.08,-82.49"/>
<polygon fill="#63b8ff" stroke="#63b8ff" points="646.05,-84.34 648.89,-74.13 640.31,-80.34 646.05,-84.34"/>
</a>
</g>
</g>
<!-- Node7&#45;&gt;Node4 -->
<g id="edge9_Node000007_Node000004" class="edge">
<title>Node7&#45;&gt;Node4</title>
<g id="a_edge9_Node000007_Node000004"><a xlink:title=" ">
<path fill="none" stroke="#63b8ff" d="M560.85,-170.37C544.28,-160.86 517.4,-145.45 497.91,-134.27"/>
<polygon fill="#63b8ff" stroke="#63b8ff" points="499.43,-131.11 489.01,-129.17 495.95,-137.18 499.43,-131.11"/>
</a>
</g>
</g>
<!-- Node8&#45;&gt;Node2 -->
<g id="edge11_Node000008_Node000002" class="edge">
<title>Node8&#45;&gt;Node2</title>
<g id="a_edge11_Node000008_Node000002"><a xlink:title=" ">
<path fill="none" stroke="#63b8ff" d="M858.18,-236.48C800.62,-225.37 707.79,-206.08 695.9,-195 664.51,-165.75 657.03,-112.67 655.33,-84.4"/>
<polygon fill="#63b8ff" stroke="#63b8ff" points="658.82,-84.11 654.91,-74.26 651.83,-84.4 658.82,-84.11"/>
</a>
</g>
</g>
<!-- Node8&#45;&gt;Node7 -->
<g id="edge12_Node000008_Node000007" class="edge">
<title>Node8&#45;&gt;Node7</title>
<g id="a_edge12_Node000008_Node000007"><a xlink:title=" ">
<path fill="none" stroke="#63b8ff" d="M860.01,-236.44C800.35,-224.8 693.77,-204 629.48,-191.45"/>
<polygon fill="#63b8ff" stroke="#63b8ff" points="630.02,-187.99 619.54,-189.51 628.68,-194.86 630.02,-187.99"/>
</a>
</g>
</g>
<!-- Node9 -->
<g id="Node000009" class="node">
<title>Node9</title>
<g id="a_Node000009"><a xlink:href="concepts_8hpp.html" target="_top" xlink:title=" ">
<polygon fill="white" stroke="#666666" points="864.4,-189.5 705.4,-189.5 705.4,-170.5 864.4,-170.5 864.4,-189.5"/>
<text text-anchor="middle" x="784.9" y="-177.5" font-family="Helvetica,sans-Serif" font-size="10.00">slick/orderbook/concepts.hpp</text>
</a>
</g>
</g>
<!-- Node8&#45;&gt;Node9 -->
<g id="edge13_Node000008_Node000009" class="edge">
<title>Node8&#45;&gt;Node9</title>
<g id="a_edge13_Node000008_Node000009"><a xlink:title=" ">
<path fill="none" stroke="#63b8ff" d="M887.85,-236.37C867.89,-225.63 833.58,-207.18 810.1,-194.55"/>
<polygon fill="#63b8ff" stroke="#63b8ff" points="811.54,-191.35 801.08,-189.7 808.23,-197.52 811.54,-191.35"/>
</a>
</g>
</g>
<!-- Node8&#45;&gt;Node12 -->
<g id="edge18_Node000008_Node000012" class="edge">
<title>Node8&#45;&gt;Node12</title>
<g id="a_edge18_Node000008_Node000012"><a xlink:title=" ">
<path fill="none" stroke="#63b8ff" d="M930.94,-236.46C960.59,-226.95 1009.47,-210.81 1050.9,-195 1052.28,-194.47 1053.69,-193.92 1055.11,-193.36"/>
<polygon fill="#63b8ff" stroke="#63b8ff" points="1056.53,-196.56 1064.45,-189.53 1053.87,-190.08 1056.53,-196.56"/>
</a>
</g>
</g>
<!-- Node8&#45;&gt;Node13 -->
<g id="edge19_Node000008_Node000013" class="edge">
<title>Node8&#45;&gt;Node13</title>
<g id="a_edge19_Node000008_Node000013"><a xlink:title=" ">
<path fill="none" stroke="#63b8ff" d="M946.51,-236.43C989.58,-227.43 1057.89,-212.19 1115.9,-195 1118.17,-194.33 1120.5,-193.6 1122.84,-192.83"/>
<polygon fill="#63b8ff" stroke="#63b8ff" points="1124.03,-196.13 1132.36,-189.58 1121.77,-189.5 1124.03,-196.13"/>
</a>
</g>
</g>
<!-- Node9&#45;&gt;Node2 -->
<g id="edge14_Node000009_Node000002" class="edge">
<title>Node9&#45;&gt;Node2</title>
<g id="a_edge14_Node000009_Node000002"><a xlink:title=" ">
<path fill="none" stroke="#63b8ff" d="M775.13,-170.47C753.3,-151.41 700.3,-105.13 672.53,-80.89"/>
<polygon fill="#63b8ff" stroke="#63b8ff" points="674.62,-78.07 664.79,-74.13 670.02,-83.34 674.62,-78.07"/>
</a>
</g>
</g>
<!-- Node9&#45;&gt;Node4 -->
<g id="edge15_Node000009_Node000004" class="edge">
<title>Node9&#45;&gt;Node4</title>
<g id="a_edge15_Node000009_Node000004"><a xlink:title=" ">
<path fill="none" stroke="#63b8ff" d="M739.68,-170.49C683.94,-160.01 589.25,-142.2 529.23,-130.91"/>
<polygon fill="#63b8ff" stroke="#63b8ff" points="529.65,-127.43 519.18,-129.02 528.36,-134.31 529.65,-127.43"/>
</a>
</g>
</g>
<!-- Node10 -->
<g id="Node000010" class="node">
<title>Node10</title>
<g id="a_Node000010"><a xlink:title=" ">
<polygon fill="#e0e0e0" stroke="#999999" points="814.9,-129 754.9,-129 754.9,-110 814.9,-110 814.9,-129"/>
<text text-anchor="middle" x="784.9" y="-117" font-family="Helvetica,sans-Serif" font-size="10.00">concepts</text>
</a>
</g>
</g>
<!-- Node9&#45;&gt;Node10 -->
<g id="edge16_Node000009_Node000010" class="edge">
<title>Node9&#45;&gt;Node10</title>
<g id="a_edge16_Node000009_Node000010"><a xlink:title=" ">
<path fill="none" stroke="#63b8ff" d="M784.9,-170.37C784.9,-162.25 784.9,-149.81 784.9,-139.39"/>
<polygon fill="#63b8ff" stroke="#63b8ff" points="788.4,-139.17 784.9,-129.17 781.4,-139.17 788.4,-139.17"/>
</a>
</g>
</g>
<!-- Node11 -->
<g id="Node000011" class="node">
<title>Node11</title>
<g id="a_Node000011"><a xlink:title=" ">
<polygon fill="#e0e0e0" stroke="#999999" points="989.4,-129 920.4,-129 920.4,-110 989.4,-110 989.4,-129"/>
<text text-anchor="middle" x="954.9" y="-117" font-family="Helvetica,sans-Serif" font-size="10.00">type_traits</text>
</a>
</g>
</g>
<!-- Node9&#45;&gt;Node11 -->
<g id="edge17_Node000009_Node000011" class="edge">
<title>Node9&#45;&gt;Node11</title>
<g id="a_edge17_Node000009_Node000011"><a xlink:title=" ">
<path fill="none" stroke="#63b8ff" d="M809.62,-170.49C838.83,-160.44 887.61,-143.66 920.49,-132.34"/>
<polygon fill="#63b8ff" stroke="#63b8ff" points="921.84,-135.58 930.15,-129.02 919.56,-128.96 921.84,-135.58"/>
</a>
</g>
</g>
<!-- Node14&#45;&gt;Node2 -->
<g id="edge21_Node000014_Node000002" class="edge">
<title>Node14&#45;&gt;Node2</title>
<g id="a_edge21_Node000014_Node000002"><a xlink:title=" ">
<path fill="none" stroke="#63b8ff" d="M217.59,-164.84C230.75,-148.57 254.74,-122.5 281.9,-110 307.63,-98.16 470.2,-81.9 572.04,-72.67"/>
<polygon fill="#63b8ff" stroke="#63b8ff" points="572.36,-76.15 582.01,-71.77 571.73,-69.18 572.36,-76.15"/>
</a>
</g>
</g>
<!-- Node14&#45;&gt;Node4 -->
<g id="edge22_Node000014_Node000004" class="edge">
<title>Node14&#45;&gt;Node4</title>
<g id="a_edge22_Node000014_Node000004"><a xlink:title=" ">
<path fill="none" stroke="#63b8ff" d="M268.16,-165.58C315.72,-155.16 380.79,-140.9 424.93,-131.23"/>
<polygon fill="#63b8ff" stroke="#63b8ff" points="425.82,-134.62 434.84,-129.06 424.32,-127.78 425.82,-134.62"/>
</a>
</g>
</g>
<!-- Node15&#45;&gt;Node2 -->
<g id="edge24_Node000015_Node000002" class="edge">
<title>Node15&#45;&gt;Node2</title>
<g id="a_edge24_Node000015_Node000002"><a xlink:title=" ">
<path fill="none" stroke="#63b8ff" d="M798.16,-230.91C829.07,-221.4 863.9,-208.22 872.9,-195 880.41,-183.98 877.65,-177.46 872.9,-165 852.38,-111.13 790.21,-86.42 737.48,-75.09"/>
<polygon fill="#63b8ff" stroke="#63b8ff" points="737.91,-71.61 727.42,-73.07 736.53,-78.47 737.91,-71.61"/>
</a>
</g>
</g>
<!-- Node15&#45;&gt;Node4 -->
<g id="edge25_Node000015_Node000004" class="edge">
<title>Node15&#45;&gt;Node4</title>
<g id="a_edge25_Node000015_Node000004"><a xlink:title=" ">
<path fill="none" stroke="#63b8ff" d="M684.68,-240.46C618.53,-234.29 518.96,-220.92 491.9,-195 477.07,-180.79 473.58,-156.63 473.15,-139.68"/>
<polygon fill="#63b8ff" stroke="#63b8ff" points="476.65,-139.34 473.23,-129.31 469.65,-139.28 476.65,-139.34"/>
</a>
</g>
</g>
<!-- Node15&#45;&gt;Node16 -->
<g id="edge26_Node000015_Node000016" class="edge">
<title>Node15&#45;&gt;Node16</title>
<g id="a_edge26_Node000015_Node000016"><a xlink:title=" ">
<path fill="none" stroke="#63b8ff" d="M797.47,-230.95C833.44,-221.16 881.59,-208.05 919.54,-197.71"/>
<polygon fill="#63b8ff" stroke="#63b8ff" points="920.72,-201.02 929.45,-195.01 918.88,-194.26 920.72,-201.02"/>
</a>
</g>
</g>
<!-- Node15&#45;&gt;Node19 -->
<g id="edge31_Node000015_Node000019" class="edge">
<title>Node15&#45;&gt;Node19</title>
<g id="a_edge31_Node000015_Node000019"><a xlink:title=" ">
<path fill="none" stroke="#63b8ff" d="M684.77,-234.52C626.84,-224.54 537.41,-209.01 459.9,-195 458.66,-194.77 457.4,-194.55 456.13,-194.32"/>
<polygon fill="#63b8ff" stroke="#63b8ff" points="456.75,-190.87 446.29,-192.52 455.49,-197.76 456.75,-190.87"/>
</a>
</g>
</g>
<!-- Node16&#45;&gt;Node2 -->
<g id="edge27_Node000016_Node000002" class="edge">
<title>Node16&#45;&gt;Node2</title>
<g id="a_edge27_Node000016_Node000002"><a xlink:title=" ">
<path fill="none" stroke="#63b8ff" d="M990.91,-164.84C1000.39,-149.54 1011.34,-125.29 997.9,-110 980.96,-90.72 833.7,-77.35 737.71,-70.59"/>
<polygon fill="#63b8ff" stroke="#63b8ff" points="737.94,-67.1 727.72,-69.9 737.46,-74.08 737.94,-67.1"/>
</a>
</g>
</g>
<!-- Node16&#45;&gt;Node11 -->
<g id="edge30_Node000016_Node000011" class="edge">
<title>Node16&#45;&gt;Node11</title>
<g id="a_edge30_Node000016_Node000011"><a xlink:title=" ">
<path fill="none" stroke="#63b8ff" d="M974.61,-164.84C971.1,-156.95 966.7,-147.05 962.95,-138.61"/>
<polygon fill="#63b8ff" stroke="#63b8ff" points="966.06,-136.98 958.8,-129.27 959.66,-139.83 966.06,-136.98"/>
</a>
</g>
</g>
<!-- Node17 -->
<g id="Node000017" class="node">
<title>Node17</title>
<g id="a_Node000017"><a xlink:title=" ">
<polygon fill="#e0e0e0" stroke="#999999" points="1215.4,-129 1162.4,-129 1162.4,-110 1215.4,-110 1215.4,-129"/>
<text text-anchor="middle" x="1188.9" y="-117" font-family="Helvetica,sans-Serif" font-size="10.00">cstddef</text>
</a>
</g>
</g>
<!-- Node16&#45;&gt;Node17 -->
<g id="edge28_Node000016_Node000017" class="edge">
<title>Node16&#45;&gt;Node17</title>
<g id="a_edge28_Node000016_Node000017"><a xlink:title=" ">
<path fill="none" stroke="#63b8ff" d="M1030.72,-164.99C1068.19,-154.45 1118.67,-140.25 1152.43,-130.76"/>
<polygon fill="#63b8ff" stroke="#63b8ff" points="1153.66,-134.05 1162.34,-127.97 1151.77,-127.31 1153.66,-134.05"/>
</a>
</g>
</g>
<!-- Node18 -->
<g id="Node000018" class="node">
<title>Node18</title>
<g id="a_Node000018"><a xlink:title=" ">
<polygon fill="#e0e0e0" stroke="#999999" points="1099.4,-129 1046.4,-129 1046.4,-110 1099.4,-110 1099.4,-129"/>
<text text-anchor="middle" x="1072.9" y="-117" font-family="Helvetica,sans-Serif" font-size="10.00">iterator</text>
</a>
</g>
</g>
<!-- Node16&#45;&gt;Node18 -->
<g id="edge29_Node000016_Node000018" class="edge">
<title>Node16&#45;&gt;Node18</title>
<g id="a_edge29_Node000016_Node000018"><a xlink:title=" ">
<path fill="none" stroke="#63b8ff" d="M1003.17,-164.84C1017.57,-155.68 1036.23,-143.82 1050.63,-134.66"/>
<polygon fill="#63b8ff" stroke="#63b8ff" points="1052.82,-137.41 1059.39,-129.09 1049.07,-131.51 1052.82,-137.41"/>
</a>
</g>
</g>
<!-- Node19&#45;&gt;Node2 -->
<g id="edge32_Node000019_Node000002" class="edge">
<title>Node19&#45;&gt;Node2</title>
<g id="a_edge32_Node000019_Node000002"><a xlink:title=" ">
<path fill="none" stroke="#63b8ff" d="M446.18,-165.19C478.92,-156.75 519.47,-144.56 553.9,-129 584.02,-115.39 615.83,-94.08 635.52,-79.95"/>
<polygon fill="#63b8ff" stroke="#63b8ff" points="637.65,-82.73 643.67,-74.02 633.52,-77.08 637.65,-82.73"/>
</a>
</g>
</g>
<!-- Node19&#45;&gt;Node4 -->
<g id="edge33_Node000019_Node000004" class="edge">
<title>Node19&#45;&gt;Node4</title>
<g id="a_edge33_Node000019_Node000004"><a xlink:title=" ">
<path fill="none" stroke="#63b8ff" d="M406.45,-164.84C420.37,-155.68 438.43,-143.82 452.36,-134.66"/>
<polygon fill="#63b8ff" stroke="#63b8ff" points="454.39,-137.51 460.83,-129.09 450.55,-131.66 454.39,-137.51"/>
</a>
</g>
</g>
<!-- Node20&#45;&gt;Node2 -->
<g id="edge36_Node000020_Node000002" class="edge">
<title>Node20&#45;&gt;Node2</title>
<g id="a_edge36_Node000020_Node000002"><a xlink:title=" ">
<path fill="none" stroke="#63b8ff" d="M55.28,-230.97C29.59,-215.1 -3.68,-188.41 14.9,-165 49.2,-121.79 407.08,-86.35 572.23,-72.17"/>
<polygon fill="#63b8ff" stroke="#63b8ff" points="572.68,-75.64 582.34,-71.3 572.08,-68.67 572.68,-75.64"/>
</a>
</g>
</g>
<!-- Node20&#45;&gt;Node4 -->
<g id="edge37_Node000020_Node000004" class="edge">
<title>Node20&#45;&gt;Node4</title>
<g id="a_edge37_Node000020_Node000004"><a xlink:title=" ">
<path fill="none" stroke="#63b8ff" d="M59.23,-230.92C36.23,-214.3 5.67,-186.24 24.9,-165 49.04,-138.35 269.47,-127.04 392.25,-122.77"/>
<polygon fill="#63b8ff" stroke="#63b8ff" points="392.49,-126.27 402.36,-122.43 392.25,-119.27 392.49,-126.27"/>
</a>
</g>
</g>
<!-- Node20&#45;&gt;Node19 -->
<g id="edge38_Node000020_Node000019" class="edge">
<title>Node20&#45;&gt;Node19</title>
<g id="a_edge38_Node000020_Node000019"><a xlink:title=" ">
<path fill="none" stroke="#63b8ff" d="M142.05,-232.13C191.74,-221.67 261.87,-206.9 314,-195.93"/>
<polygon fill="#63b8ff" stroke="#63b8ff" points="314.78,-199.34 323.85,-193.85 313.34,-192.49 314.78,-199.34"/>
</a>
</g>
</g>
<!-- Node21 -->
<g id="Node000021" class="node">
<title>Node21</title>
<g id="a_Node000021"><a xlink:title=" ">
<polygon fill="#e0e0e0" stroke="#999999" points="127.4,-189.5 34.4,-189.5 34.4,-170.5 127.4,-170.5 127.4,-189.5"/>
<text text-anchor="middle" x="80.9" y="-177.5" font-family="Helvetica,sans-Serif" font-size="10.00">unordered_map</text>
</a>
</g>
</g>
<!-- Node20&#45;&gt;Node21 -->
<g id="edge39_Node000020_Node000021" class="edge">
<title>Node20&#45;&gt;Node21</title>
<g id="a_edge39_Node000020_Node000021"><a xlink:title=" ">
<path fill="none" stroke="#63b8ff" d="M80.9,-230.8C80.9,-221.7 80.9,-209.79 80.9,-199.9"/>
<polygon fill="#63b8ff" stroke="#63b8ff" points="84.4,-199.84 80.9,-189.84 77.4,-199.84 84.4,-199.84"/>
</a>
</g>
</g>
<!-- Node22&#45;&gt;Node2 -->
<g id="edge41_Node000022_Node000002" class="edge">
<title>Node22&#45;&gt;Node2</title>
<g id="a_edge41_Node000022_Node000002"><a xlink:title=" ">
<path fill="none" stroke="#63b8ff" d="M1208.2,-230.88C1220.84,-222.31 1234.9,-210.11 1241.9,-195 1258.14,-159.96 1254.26,-133.87 1223.9,-110 1186.6,-80.68 886.62,-70.32 737.89,-66.97"/>
<polygon fill="#63b8ff" stroke="#63b8ff" points="737.53,-63.46 727.45,-66.74 737.37,-70.46 737.53,-63.46"/>
</a>
</g>
</g>
<!-- Node22&#45;&gt;Node5 -->
<g id="edge43_Node000022_Node000005" class="edge">
<title>Node22&#45;&gt;Node5</title>
<g id="a_edge43_Node000022_Node000005"><a xlink:title=" ">
<path fill="none" stroke="#63b8ff" d="M1244.19,-231.81C1293.39,-220.6 1355.44,-204.81 1362.9,-195 1370.97,-184.38 1368.32,-177.18 1362.9,-165 1326.03,-82.11 1202.79,-67.42 1141.35,-65.38"/>
<polygon fill="#63b8ff" stroke="#63b8ff" points="1141.06,-61.87 1130.98,-65.14 1140.89,-68.87 1141.06,-61.87"/>
</a>
</g>
</g>
<!-- Node22&#45;&gt;Node11 -->
<g id="edge46_Node000022_Node000011" class="edge">
<title>Node22&#45;&gt;Node11</title>
<g id="a_edge46_Node000022_Node000011"><a xlink:title=" ">
<path fill="none" stroke="#63b8ff" d="M1190.39,-230.8C1198.48,-213.27 1208.28,-183.52 1192.9,-165 1180.67,-150.27 1065.23,-133.96 999.73,-125.78"/>
<polygon fill="#63b8ff" stroke="#63b8ff" points="1000.03,-122.29 989.67,-124.54 999.17,-129.24 1000.03,-122.29"/>
</a>
</g>
</g>
<!-- Node22&#45;&gt;Node12 -->
<g id="edge47_Node000022_Node000012" class="edge">
<title>Node22&#45;&gt;Node12</title>
<g id="a_edge47_Node000022_Node000012"><a xlink:title=" ">
<path fill="none" stroke="#63b8ff" d="M1160.93,-230.8C1144.49,-220.17 1122.12,-205.7 1105.72,-195.1"/>
<polygon fill="#63b8ff" stroke="#63b8ff" points="1107.59,-192.15 1097.3,-189.66 1103.79,-198.03 1107.59,-192.15"/>
</a>
</g>
</g>
<!-- Node22&#45;&gt;Node13 -->
<g id="edge44_Node000022_Node000013" class="edge">
<title>Node22&#45;&gt;Node13</title>
<g id="a_edge44_Node000022_Node000013"><a xlink:title=" ">
<path fill="none" stroke="#63b8ff" d="M1176.69,-230.8C1172.62,-221.5 1167.27,-209.27 1162.89,-199.26"/>
<polygon fill="#63b8ff" stroke="#63b8ff" points="1165.99,-197.6 1158.77,-189.84 1159.57,-200.41 1165.99,-197.6"/>
</a>
</g>
</g>
<!-- Node22&#45;&gt;Node17 -->
<g id="edge42_Node000022_Node000017" class="edge">
<title>Node22&#45;&gt;Node17</title>
<g id="a_edge42_Node000022_Node000017"><a xlink:title=" ">
<path fill="none" stroke="#63b8ff" d="M1200.14,-230.73C1209.72,-221.63 1220.73,-208.96 1225.9,-195 1230.54,-182.5 1230.43,-177.54 1225.9,-165 1221.96,-154.09 1214.04,-143.96 1206.54,-136.14"/>
<polygon fill="#63b8ff" stroke="#63b8ff" points="1208.95,-133.6 1199.34,-129.13 1204.07,-138.61 1208.95,-133.6"/>
</a>
</g>
</g>
<!-- Node23 -->
<g id="Node000023" class="node">
<title>Node23</title>
<g id="a_Node000023"><a xlink:title=" ">
<polygon fill="#e0e0e0" stroke="#999999" points="1353.4,-189.5 1316.4,-189.5 1316.4,-170.5 1353.4,-170.5 1353.4,-189.5"/>
<text text-anchor="middle" x="1334.9" y="-177.5" font-family="Helvetica,sans-Serif" font-size="10.00">new</text>
</a>
</g>
</g>
<!-- Node22&#45;&gt;Node23 -->
<g id="edge45_Node000022_Node000023" class="edge">
<title>Node22&#45;&gt;Node23</title>
<g id="a_edge45_Node000022_Node000023"><a xlink:title=" ">
<path fill="none" stroke="#63b8ff" d="M1216.51,-230.91C1240.35,-220.91 1273.1,-207.16 1301.9,-195 1303.48,-194.33 1305.1,-193.65 1306.73,-192.96"/>
<polygon fill="#63b8ff" stroke="#63b8ff" points="1308.22,-196.13 1316.06,-189.01 1305.49,-189.69 1308.22,-196.13"/>
</a>
</g>
</g>
<!-- Node24&#45;&gt;Node2 -->
<g id="edge49_Node000024_Node000002" class="edge">
<title>Node24&#45;&gt;Node2</title>
<g id="a_edge49_Node000024_Node000002"><a xlink:title=" ">
<path fill="none" stroke="#63b8ff" d="M1338.76,-230.96C1355.24,-214.63 1376.81,-187.07 1362.9,-165 1332.69,-117.07 1302.65,-124.59 1247.9,-110 1153.99,-84.97 877.43,-72.68 737.7,-67.94"/>
<polygon fill="#63b8ff" stroke="#63b8ff" points="737.59,-64.43 727.48,-67.6 737.35,-71.43 737.59,-64.43"/>
</a>
</g>
</g>
<!-- Node25 -->
<g id="Node000025" class="node">
<title>Node25</title>
<g id="a_Node000025"><a xlink:title=" ">
<polygon fill="#e0e0e0" stroke="#999999" points="1557.4,-189.5 1504.4,-189.5 1504.4,-170.5 1557.4,-170.5 1557.4,-189.5"/>
<text text-anchor="middle" x="1530.9" y="-177.5" font-family="Helvetica,sans-Serif" font-size="10.00">version</text>
</a>
</g>
</g>
<!-- Node24&#45;&gt;Node25 -->
<g id="edge50_Node000024_Node000025" class="edge">
<title>Node24&#45;&gt;Node25</title>
<g id="a_edge50_Node000024_Node000025"><a xlink:title=" ">
<path fill="none" stroke="#63b8ff" d="M1375.59,-230.98C1409.82,-221.55 1455.29,-208.43 1494.9,-195 1496.56,-194.44 1498.26,-193.84 1499.96,-193.23"/>
<polygon fill="#63b8ff" stroke="#63b8ff" points="1501.55,-196.38 1509.69,-189.6 1499.1,-189.82 1501.55,-196.38"/>
</a>
</g>
</g>
<!-- Node26 -->
<g id="Node000026" class="node">
<title>Node26</title>
<g id="a_Node000026"><a xlink:title=" ">
<polygon fill="#e0e0e0" stroke="#999999" points="1485.9,-189.5 1447.9,-189.5 1447.9,-170.5 1485.9,-170.5 1485.9,-189.5"/>
<text text-anchor="middle" x="1466.9" y="-177.5" font-family="Helvetica,sans-Serif" font-size="10.00">map</text>
</a>
</g>
</g>
<!-- Node24&#45;&gt;Node26 -->
<g id="edge51_Node000024_Node000026" class="edge">
<title>Node24&#45;&gt;Node26</title>
<g id="a_edge51_Node000024_Node000026"><a xlink:title=" ">
<path fill="none" stroke="#63b8ff" d="M1354.5,-230.95C1379.53,-219.83 1414.2,-204.42 1438.39,-193.67"/>
<polygon fill="#63b8ff" stroke="#63b8ff" points="1440.02,-196.78 1447.74,-189.52 1437.18,-190.38 1440.02,-196.78"/>
</a>
</g>
</g>
</g>
</svg>
