<?xml version="1.0" encoding="UTF-8" standalone="no"?>
<!DOCTYPE svg PUBLIC "-//W3C//DTD SVG 1.1//EN"
 "http://www.w3.org/Graphics/SVG/1.1/DTD/svg11.dtd">
<!-- Generated by graphviz version 2.43.0 (0)
 -->
<!-- Title: slick/orderbook/orderbook_manager.hpp Pages: 1 -->
<svg width="2177pt" height="390pt"
 viewBox="0.00 0.00 2176.92 390.00" xmlns="http://www.w3.org/2000/svg" xmlns:xlink="http://www.w3.org/1999/xlink">
<g id="graph0" class="graph" transform="scale(1 1) rotate(0) translate(4 386)">
<title>slick/orderbook/orderbook_manager.hpp</title>
<!-- Node1 -->
<g id="Node000001" class="node">
<title>Node1</title>
<g id="a_Node000001"><a xlink:title=" ">
<polygon fill="#999999" stroke="#666666" points="1937.92,-382 1793.92,-382 1793.92,-352 1937.92,-352 1937.92,-382"/>
<text text-anchor="start" x="1801.92" y="-370" font-family="Helvetica,sans-Serif" font-size="10.00">slick/orderbook/orderbook</text>
<text text-anchor="middle" x="1865.92" y="-359" font-family="Helvetica,sans-Serif" font-size="10.00">_manager.hpp</text>
</a>
</g>
</g>
<!-- Node2 -->
<g id="Node000002" class="node">
<title>Node2</title>
<g id="a_Node000002"><a xlink:href="config_8hpp.html" target="_top" xlink:title=" ">
<polygon fill="white" stroke="#666666" points="905.42,-74 760.42,-74 760.42,-55 905.42,-55 905.42,-74"/>
<text text-anchor="middle" x="832.92" y="-62" font-family="Helvetica,sans-Serif" font-size="10.00">slick/orderbook/config.hpp</text>
</a>
</g>
</g>
<!-- Node1&#45;&gt;Node2 -->
<g id="edge1_Node000001_Node000002" class="edge">
<title>Node1&#45;&gt;Node2</title>
<g id="a_edge1_Node000001_Node000002"><a xlink:title=" ">
<path fill="none" stroke="#63b8ff" d="M1877.68,-351.82C1895.41,-328.96 1926.92,-281.87 1926.92,-236 1926.92,-236 1926.92,-236 1926.92,-173.5 1926.92,-71.97 1170.99,-64.61 915.87,-65.01"/>
<polygon fill="#63b8ff" stroke="#63b8ff" points="915.54,-61.51 905.55,-65.04 915.56,-68.51 915.54,-61.51"/>
</a>
</g>
</g>
<!-- Node4 -->
<g id="Node000004" class="node">
<title>Node4</title>
<g id="a_Node000004"><a xlink:href="types_8hpp.html" target="_top" xlink:title=" ">
<polygon fill="white" stroke="#666666" points="217.42,-129 74.42,-129 74.42,-110 217.42,-110 217.42,-129"/>
<text text-anchor="middle" x="145.92" y="-117" font-family="Helvetica,sans-Serif" font-size="10.00">slick/orderbook/types.hpp</text>
</a>
</g>
</g>
<!-- Node1&#45;&gt;Node4 -->
<g id="edge3_Node000001_Node000004" class="edge">
<title>Node1&#45;&gt;Node4</title>
<g id="a_edge3_Node000001_Node000004"><a xlink:title=" ">
<path fill="none" stroke="#63b8ff" d="M1793.82,-365.82C1466.12,-364.78 129.73,-357.98 51.92,-316 -7.65,-283.85 -17.58,-211.18 31.92,-165 48.89,-149.17 72.12,-138.75 93.19,-132"/>
<polygon fill="#63b8ff" stroke="#63b8ff" points="94.43,-135.29 103.01,-129.07 92.42,-128.58 94.43,-135.29"/>
</a>
</g>
</g>
<!-- Node7 -->
<g id="Node000007" class="node">
<title>Node7</title>
<g id="a_Node000007"><a xlink:href="orderbook__l2_8hpp.html" target="_top" xlink:title=" ">
<polygon fill="white" stroke="#666666" points="393.92,-316 249.92,-316 249.92,-286 393.92,-286 393.92,-316"/>
<text text-anchor="start" x="257.92" y="-304" font-family="Helvetica,sans-Serif" font-size="10.00">slick/orderbook/orderbook</text>
<text text-anchor="middle" x="321.92" y="-293" font-family="Helvetica,sans-Serif" font-size="10.00">_l2.hpp</text>
</a>
</g>
</g>
<!-- Node1&#45;&gt;Node7 -->
<g id="edge7_Node000001_Node000007" class="edge">
<title>Node1&#45;&gt;Node7</title>
<g id="a_edge7_Node000001_Node000007"><a xlink:title=" ">
<path fill="none" stroke="#63b8ff" d="M1793.78,-363.01C1538.06,-352.41 675.71,-316.66 404.38,-305.42"/>
<polygon fill="#63b8ff" stroke="#63b8ff" points="404.34,-301.91 394.2,-305 404.05,-308.91 404.34,-301.91"/>
</a>
</g>
</g>
<!-- Node13 -->
<g id="Node000013" class="node">
<title>Node13</title>
<g id="a_Node000013"><a xlink:title=" ">
<polygon fill="#e0e0e0" stroke="#999999" points="413.42,-184 366.42,-184 366.42,-165 413.42,-165 413.42,-184"/>
<text text-anchor="middle" x="389.92" y="-172" font-family="Helvetica,sans-Serif" font-size="10.00">vector</text>
</a>
</g>
</g>
<!-- Node1&#45;&gt;Node13 -->
<g id="edge50_Node000001_Node000013" class="edge">
<title>Node1&#45;&gt;Node13</title>
<g id="a_edge50_Node000001_Node000013"><a xlink:title=" ">
<path fill="none" stroke="#63b8ff" d="M1793.49,-366.25C1519.45,-366.81 546.22,-365.23 240.92,-316 139.3,-299.61 80.47,-332.51 18.92,-250 10.95,-239.31 10.07,-229.97 18.92,-220 41.14,-194.96 268.68,-181.37 356.03,-177.04"/>
<polygon fill="#63b8ff" stroke="#63b8ff" points="356.38,-180.53 366.2,-176.55 356.05,-173.54 356.38,-180.53"/>
</a>
</g>
</g>
<!-- Node14 -->
<g id="Node000014" class="node">
<title>Node14</title>
<g id="a_Node000014"><a xlink:title=" ">
<polygon fill="#e0e0e0" stroke="#999999" points="1309.92,-184 1251.92,-184 1251.92,-165 1309.92,-165 1309.92,-184"/>
<text text-anchor="middle" x="1280.92" y="-172" font-family="Helvetica,sans-Serif" font-size="10.00">memory</text>
</a>
</g>
</g>
<!-- Node1&#45;&gt;Node14 -->
<g id="edge47_Node000001_Node000014" class="edge">
<title>Node1&#45;&gt;Node14</title>
<g id="a_edge47_Node000001_Node000014"><a xlink:title=" ">
<path fill="none" stroke="#63b8ff" d="M1872.05,-351.7C1883.42,-322.66 1903.72,-256.44 1869.92,-220 1832.62,-179.77 1446.05,-175.7 1320.25,-175.45"/>
<polygon fill="#63b8ff" stroke="#63b8ff" points="1319.93,-171.95 1309.93,-175.44 1319.92,-178.95 1319.93,-171.95"/>
</a>
</g>
</g>
<!-- Node19 -->
<g id="Node000019" class="node">
<title>Node19</title>
<g id="a_Node000019"><a xlink:href="orderbook__l3_8hpp.html" target="_top" xlink:title=" ">
<polygon fill="white" stroke="#666666" points="1290.92,-316 1146.92,-316 1146.92,-286 1290.92,-286 1290.92,-316"/>
<text text-anchor="start" x="1154.92" y="-304" font-family="Helvetica,sans-Serif" font-size="10.00">slick/orderbook/orderbook</text>
<text text-anchor="middle" x="1218.92" y="-293" font-family="Helvetica,sans-Serif" font-size="10.00">_l3.hpp</text>
</a>
</g>
</g>
<!-- Node1&#45;&gt;Node19 -->
<g id="edge29_Node000001_Node000019" class="edge">
<title>Node1&#45;&gt;Node19</title>
<g id="a_edge29_Node000001_Node000019"><a xlink:title=" ">
<path fill="none" stroke="#63b8ff" d="M1793.9,-358.88C1672.84,-346.9 1429.28,-322.81 1301.49,-310.17"/>
<polygon fill="#63b8ff" stroke="#63b8ff" points="1301.67,-306.67 1291.37,-309.17 1300.98,-313.63 1301.67,-306.67"/>
</a>
</g>
</g>
<!-- Node23 -->
<g id="Node000023" class="node">
<title>Node23</title>
<g id="a_Node000023"><a xlink:title=" ">
<polygon fill="#e0e0e0" stroke="#999999" points="1860.92,-250 1738.92,-250 1738.92,-220 1860.92,-220 1860.92,-250"/>
<text text-anchor="start" x="1746.92" y="-238" font-family="Helvetica,sans-Serif" font-size="10.00">slick/orderbook/detail</text>
<text text-anchor="middle" x="1799.92" y="-227" font-family="Helvetica,sans-Serif" font-size="10.00">/flat_map.hpp</text>
</a>
</g>
</g>
<!-- Node1&#45;&gt;Node23 -->
<g id="edge46_Node000001_Node000023" class="edge">
<title>Node1&#45;&gt;Node23</title>
<g id="a_edge46_Node000001_Node000023"><a xlink:title=" ">
<path fill="none" stroke="#63b8ff" d="M1858.73,-351.84C1847.43,-329.57 1825.37,-286.13 1811.72,-259.23"/>
<polygon fill="#63b8ff" stroke="#63b8ff" points="1814.75,-257.47 1807.1,-250.14 1808.51,-260.64 1814.75,-257.47"/>
</a>
</g>
</g>
<!-- Node28 -->
<g id="Node000028" class="node">
<title>Node28</title>
<g id="a_Node000028"><a xlink:title=" ">
<polygon fill="#e0e0e0" stroke="#999999" points="2040.92,-310.5 1954.92,-310.5 1954.92,-291.5 2040.92,-291.5 2040.92,-310.5"/>
<text text-anchor="middle" x="1997.92" y="-298.5" font-family="Helvetica,sans-Serif" font-size="10.00">shared_mutex</text>
</a>
</g>
</g>
<!-- Node1&#45;&gt;Node28 -->
<g id="edge48_Node000001_Node000028" class="edge">
<title>Node1&#45;&gt;Node28</title>
<g id="a_edge48_Node000001_Node000028"><a xlink:title=" ">
<path fill="none" stroke="#63b8ff" d="M1894.89,-351.95C1917.63,-340.93 1949.05,-325.7 1971.19,-314.96"/>
<polygon fill="#63b8ff" stroke="#63b8ff" points="1972.88,-318.03 1980.36,-310.52 1969.83,-311.73 1972.88,-318.03"/>
</a>
</g>
</g>
<!-- Node29 -->
<g id="Node000029" class="node">
<title>Node29</title>
<g id="a_Node000029"><a xlink:title=" ">
<polygon fill="#e0e0e0" stroke="#999999" points="2102.92,-310.5 2058.92,-310.5 2058.92,-291.5 2102.92,-291.5 2102.92,-310.5"/>
<text text-anchor="middle" x="2080.92" y="-298.5" font-family="Helvetica,sans-Serif" font-size="10.00">string</text>
</a>
</g>
</g>
<!-- Node1&#45;&gt;Node29 -->
<g id="edge49_Node000001_Node000029" class="edge">
<title>Node1&#45;&gt;Node29</title>
<g id="a_edge49_Node000001_Node000029"><a xlink:title=" ">
<path fill="none" stroke="#63b8ff" d="M1927.17,-351.95C1963.33,-343.02 2009.73,-330.43 2049.92,-316 2051.14,-315.56 2052.38,-315.1 2053.62,-314.61"/>
<polygon fill="#63b8ff" stroke="#63b8ff" points="2055.23,-317.73 2063.09,-310.64 2052.51,-311.28 2055.23,-317.73"/>
</a>
</g>
</g>
<!-- Node30 -->
<g id="Node000030" class="node">
<title>Node30</title>
<g id="a_Node000030"><a xlink:title=" ">
<polygon fill="#e0e0e0" stroke="#999999" points="2168.92,-310.5 2120.92,-310.5 2120.92,-291.5 2168.92,-291.5 2168.92,-310.5"/>
<text text-anchor="middle" x="2144.92" y="-298.5" font-family="Helvetica,sans-Serif" font-size="10.00">mutex</text>
</a>
</g>
</g>
<!-- Node1&#45;&gt;Node30 -->
<g id="edge51_Node000001_Node000030" class="edge">
<title>Node1&#45;&gt;Node30</title>
<g id="a_edge51_Node000001_Node000030"><a xlink:title=" ">
<path fill="none" stroke="#63b8ff" d="M1937.93,-355.28C1987.48,-346.96 2054.48,-333.82 2111.92,-316 2113.6,-315.48 2115.3,-314.91 2117.02,-314.29"/>
<polygon fill="#63b8ff" stroke="#63b8ff" points="2118.63,-317.42 2126.67,-310.51 2116.08,-310.9 2118.63,-317.42"/>
</a>
</g>
</g>
<!-- Node3 -->
<g id="Node000003" class="node">
<title>Node3</title>
<g id="a_Node000003"><a xlink:title=" ">
<polygon fill="#e0e0e0" stroke="#999999" points="858.92,-19 806.92,-19 806.92,0 858.92,0 858.92,-19"/>
<text text-anchor="middle" x="832.92" y="-7" font-family="Helvetica,sans-Serif" font-size="10.00">cassert</text>
</a>
</g>
</g>
<!-- Node2&#45;&gt;Node3 -->
<g id="edge2_Node000002_Node000003" class="edge">
<title>Node2&#45;&gt;Node3</title>
<g id="a_edge2_Node000002_Node000003"><a xlink:title=" ">
<path fill="none" stroke="#63b8ff" d="M832.92,-54.75C832.92,-47.8 832.92,-37.85 832.92,-29.13"/>
<polygon fill="#63b8ff" stroke="#63b8ff" points="836.42,-29.09 832.92,-19.09 829.42,-29.09 836.42,-29.09"/>
</a>
</g>
</g>
<!-- Node4&#45;&gt;Node2 -->
<g id="edge4_Node000004_Node000002" class="edge">
<title>Node4&#45;&gt;Node2</title>
<g id="a_edge4_Node000004_Node000002"><a xlink:title=" ">
<path fill="none" stroke="#63b8ff" d="M217.71,-111.27C222.52,-110.83 227.29,-110.4 231.92,-110 416.84,-94.02 634.07,-78.82 750.03,-70.99"/>
<polygon fill="#63b8ff" stroke="#63b8ff" points="750.51,-74.47 760.25,-70.3 750.04,-67.48 750.51,-74.47"/>
</a>
</g>
</g>
<!-- Node5 -->
<g id="Node000005" class="node">
<title>Node5</title>
<g id="a_Node000005"><a xlink:title=" ">
<polygon fill="#e0e0e0" stroke="#999999" points="210.92,-74 160.92,-74 160.92,-55 210.92,-55 210.92,-74"/>
<text text-anchor="middle" x="185.92" y="-62" font-family="Helvetica,sans-Serif" font-size="10.00">cstdint</text>
</a>
</g>
</g>
<!-- Node4&#45;&gt;Node5 -->
<g id="edge5_Node000004_Node000005" class="edge">
<title>Node4&#45;&gt;Node5</title>
<g id="a_edge5_Node000004_Node000005"><a xlink:title=" ">
<path fill="none" stroke="#63b8ff" d="M152.53,-109.75C158.18,-102.26 166.47,-91.28 173.37,-82.13"/>
<polygon fill="#63b8ff" stroke="#63b8ff" points="176.21,-84.18 179.44,-74.09 170.62,-79.96 176.21,-84.18"/>
</a>
</g>
</g>
<!-- Node6 -->
<g id="Node000006" class="node">
<title>Node6</title>
<g id="a_Node000006"><a xlink:title=" ">
<polygon fill="#e0e0e0" stroke="#999999" points="142.42,-74 69.42,-74 69.42,-55 142.42,-55 142.42,-74"/>
<text text-anchor="middle" x="105.92" y="-62" font-family="Helvetica,sans-Serif" font-size="10.00">string_view</text>
</a>
</g>
</g>
<!-- Node4&#45;&gt;Node6 -->
<g id="edge6_Node000004_Node000006" class="edge">
<title>Node4&#45;&gt;Node6</title>
<g id="a_edge6_Node000004_Node000006"><a xlink:title=" ">
<path fill="none" stroke="#63b8ff" d="M139.32,-109.75C133.67,-102.26 125.38,-91.28 118.47,-82.13"/>
<polygon fill="#63b8ff" stroke="#63b8ff" points="121.22,-79.96 112.4,-74.09 115.64,-84.18 121.22,-79.96"/>
</a>
</g>
</g>
<!-- Node7&#45;&gt;Node2 -->
<g id="edge8_Node000007_Node000002" class="edge">
<title>Node7&#45;&gt;Node2</title>
<g id="a_edge8_Node000007_Node000002"><a xlink:title=" ">
<path fill="none" stroke="#63b8ff" d="M312.06,-285.76C302.08,-269.46 289.39,-242.17 298.92,-220 312.95,-187.36 325.45,-181.48 356.92,-165 483.69,-98.61 651.26,-76.51 750.03,-69.16"/>
<polygon fill="#63b8ff" stroke="#63b8ff" points="750.53,-72.64 760.26,-68.44 750.03,-65.65 750.53,-72.64"/>
</a>
</g>
</g>
<!-- Node7&#45;&gt;Node4 -->
<g id="edge9_Node000007_Node000004" class="edge">
<title>Node7&#45;&gt;Node4</title>
<g id="a_edge9_Node000007_Node000004"><a xlink:title=" ">
<path fill="none" stroke="#63b8ff" d="M249.76,-298.46C169.7,-295.04 47.94,-284.2 18.92,-250 -19.56,-204.64 67.9,-155.71 116.39,-133.18"/>
<polygon fill="#63b8ff" stroke="#63b8ff" points="117.87,-136.35 125.52,-129.03 114.97,-129.98 117.87,-136.35"/>
</a>
</g>
</g>
<!-- Node8 -->
<g id="Node000008" class="node">
<title>Node8</title>
<g id="a_Node000008"><a xlink:href="events_8hpp.html" target="_top" xlink:title=" ">
<polygon fill="white" stroke="#666666" points="677.42,-184 528.42,-184 528.42,-165 677.42,-165 677.42,-184"/>
<text text-anchor="middle" x="602.92" y="-172" font-family="Helvetica,sans-Serif" font-size="10.00">slick/orderbook/events.hpp</text>
</a>
</g>
</g>
<!-- Node7&#45;&gt;Node8 -->
<g id="edge10_Node000007_Node000008" class="edge">
<title>Node7&#45;&gt;Node8</title>
<g id="a_edge10_Node000007_Node000008"><a xlink:title=" ">
<path fill="none" stroke="#63b8ff" d="M320.94,-285.86C320.53,-267.84 322.8,-236.98 340.92,-220 366.14,-196.37 451.57,-185.16 518.1,-179.92"/>
<polygon fill="#63b8ff" stroke="#63b8ff" points="518.47,-183.4 528.18,-179.16 517.95,-176.42 518.47,-183.4"/>
</a>
</g>
</g>
<!-- Node9 -->
<g id="Node000009" class="node">
<title>Node9</title>
<g id="a_Node000009"><a xlink:href="observer_8hpp.html" target="_top" xlink:title=" ">
<polygon fill="white" stroke="#666666" points="821.92,-244.5 663.92,-244.5 663.92,-225.5 821.92,-225.5 821.92,-244.5"/>
<text text-anchor="middle" x="742.92" y="-232.5" font-family="Helvetica,sans-Serif" font-size="10.00">slick/orderbook/observer.hpp</text>
</a>
</g>
</g>
<!-- Node7&#45;&gt;Node9 -->
<g id="edge13_Node000007_Node000009" class="edge">
<title>Node7&#45;&gt;Node9</title>
<g id="a_edge13_Node000007_Node000009"><a xlink:title=" ">
<path fill="none" stroke="#63b8ff" d="M394.3,-289C473.72,-276.92 600.11,-257.71 676.91,-246.03"/>
<polygon fill="#63b8ff" stroke="#63b8ff" points="677.59,-249.47 686.95,-244.51 676.54,-242.55 677.59,-249.47"/>
</a>
</g>
</g>
<!-- Node7&#45;&gt;Node13 -->
<g id="edge26_Node000007_Node000013" class="edge">
<title>Node7&#45;&gt;Node13</title>
<g id="a_edge26_Node000007_Node000013"><a xlink:title=" ">
<path fill="none" stroke="#63b8ff" d="M314.09,-285.95C305.86,-269.12 295.66,-240.6 307.92,-220 318.48,-202.27 338.83,-191.16 356.63,-184.48"/>
<polygon fill="#63b8ff" stroke="#63b8ff" points="357.84,-187.76 366.17,-181.21 355.57,-181.14 357.84,-187.76"/>
</a>
</g>
</g>
<!-- Node7&#45;&gt;Node14 -->
<g id="edge25_Node000007_Node000014" class="edge">
<title>Node7&#45;&gt;Node14</title>
<g id="a_edge25_Node000007_Node000014"><a xlink:title=" ">
<path fill="none" stroke="#63b8ff" d="M394.2,-297.89C515.29,-293.54 753.51,-281.2 830.92,-250 850.88,-241.96 849,-228.14 868.92,-220 935.95,-192.61 1152.27,-180.78 1241.69,-176.98"/>
<polygon fill="#63b8ff" stroke="#63b8ff" points="1241.85,-180.47 1251.69,-176.56 1241.56,-173.48 1241.85,-180.47"/>
</a>
</g>
</g>
<!-- Node15 -->
<g id="Node000015" class="node">
<title>Node15</title>
<g id="a_Node000015"><a xlink:title=" ">
<polygon fill="#e0e0e0" stroke="#999999" points="531.92,-250 409.92,-250 409.92,-220 531.92,-220 531.92,-250"/>
<text text-anchor="start" x="417.92" y="-238" font-family="Helvetica,sans-Serif" font-size="10.00">slick/orderbook/detail</text>
<text text-anchor="middle" x="470.92" y="-227" font-family="Helvetica,sans-Serif" font-size="10.00">/price_level.hpp</text>
</a>
</g>
</g>
<!-- Node7&#45;&gt;Node15 -->
<g id="edge23_Node000007_Node000015" class="edge">
<title>Node7&#45;&gt;Node15</title>
<g id="a_edge23_Node000007_Node000015"><a xlink:title=" ">
<path fill="none" stroke="#63b8ff" d="M354.62,-285.95C376.46,-276.58 405.37,-264.16 428.91,-254.05"/>
<polygon fill="#63b8ff" stroke="#63b8ff" points="430.49,-257.17 438.3,-250.01 427.73,-250.74 430.49,-257.17"/>
</a>
</g>
</g>
<!-- Node16 -->
<g id="Node000016" class="node">
<title>Node16</title>
<g id="a_Node000016"><a xlink:title=" ">
<polygon fill="#e0e0e0" stroke="#999999" points="149.92,-250 27.92,-250 27.92,-220 149.92,-220 149.92,-250"/>
<text text-anchor="start" x="35.92" y="-238" font-family="Helvetica,sans-Serif" font-size="10.00">slick/orderbook/detail</text>
<text text-anchor="middle" x="88.92" y="-227" font-family="Helvetica,sans-Serif" font-size="10.00">/level_container.hpp</text>
</a>
</g>
</g>
<!-- Node7&#45;&gt;Node16 -->
<g id="edge24_Node000007_Node000016" class="edge">
<title>Node7&#45;&gt;Node16</title>
<g id="a_edge24_Node000007_Node000016"><a xlink:title=" ">
<path fill="none" stroke="#63b8ff" d="M270.79,-285.95C235.13,-276.16 187.38,-263.05 149.76,-252.71"/>
<polygon fill="#63b8ff" stroke="#63b8ff" points="150.51,-249.29 139.94,-250.01 148.65,-256.04 150.51,-249.29"/>
</a>
</g>
</g>
<!-- Node17 -->
<g id="Node000017" class="node">
<title>Node17</title>
<g id="a_Node000017"><a xlink:title=" ">
<polygon fill="#e0e0e0" stroke="#999999" points="391.92,-244.5 349.92,-244.5 349.92,-225.5 391.92,-225.5 391.92,-244.5"/>
<text text-anchor="middle" x="370.92" y="-232.5" font-family="Helvetica,sans-Serif" font-size="10.00">array</text>
</a>
</g>
</g>
<!-- Node7&#45;&gt;Node17 -->
<g id="edge27_Node000007_Node000017" class="edge">
<title>Node7&#45;&gt;Node17</title>
<g id="a_edge27_Node000007_Node000017"><a xlink:title=" ">
<path fill="none" stroke="#63b8ff" d="M332.8,-285.8C340.21,-276.11 350.07,-263.24 357.9,-253.01"/>
<polygon fill="#63b8ff" stroke="#63b8ff" points="360.85,-254.91 364.15,-244.84 355.29,-250.66 360.85,-254.91"/>
</a>
</g>
</g>
<!-- Node18 -->
<g id="Node000018" class="node">
<title>Node18</title>
<g id="a_Node000018"><a xlink:title=" ">
<polygon fill="#e0e0e0" stroke="#999999" points="217.92,-244.5 167.92,-244.5 167.92,-225.5 217.92,-225.5 217.92,-244.5"/>
<text text-anchor="middle" x="192.92" y="-232.5" font-family="Helvetica,sans-Serif" font-size="10.00">atomic</text>
</a>
</g>
</g>
<!-- Node7&#45;&gt;Node18 -->
<g id="edge28_Node000007_Node000018" class="edge">
<title>Node7&#45;&gt;Node18</title>
<g id="a_edge28_Node000007_Node000018"><a xlink:title=" ">
<path fill="none" stroke="#63b8ff" d="M293.61,-285.95C271.49,-274.98 240.96,-259.83 219.34,-249.11"/>
<polygon fill="#63b8ff" stroke="#63b8ff" points="220.6,-245.83 210.09,-244.52 217.49,-252.1 220.6,-245.83"/>
</a>
</g>
</g>
<!-- Node8&#45;&gt;Node2 -->
<g id="edge11_Node000008_Node000002" class="edge">
<title>Node8&#45;&gt;Node2</title>
<g id="a_edge11_Node000008_Node000002"><a xlink:title=" ">
<path fill="none" stroke="#63b8ff" d="M606.71,-164.56C613.1,-150.64 627.34,-123.94 647.92,-110 677.92,-89.69 716.17,-78.61 750.1,-72.59"/>
<polygon fill="#63b8ff" stroke="#63b8ff" points="750.71,-76.03 760.01,-70.95 749.57,-69.13 750.71,-76.03"/>
</a>
</g>
</g>
<!-- Node8&#45;&gt;Node4 -->
<g id="edge12_Node000008_Node000004" class="edge">
<title>Node8&#45;&gt;Node4</title>
<g id="a_edge12_Node000008_Node000004"><a xlink:title=" ">
<path fill="none" stroke="#63b8ff" d="M529.5,-164.98C446.98,-155.41 313.37,-139.92 227.61,-129.97"/>
<polygon fill="#63b8ff" stroke="#63b8ff" points="228,-126.49 217.66,-128.82 227.19,-133.45 228,-126.49"/>
</a>
</g>
</g>
<!-- Node9&#45;&gt;Node2 -->
<g id="edge14_Node000009_Node000002" class="edge">
<title>Node9&#45;&gt;Node2</title>
<g id="a_edge14_Node000009_Node000002"><a xlink:title=" ">
<path fill="none" stroke="#63b8ff" d="M796.75,-225.48C821.27,-218.62 848.09,-206.25 862.92,-184 884.02,-152.36 860.88,-106.94 845.1,-82.55"/>
<polygon fill="#63b8ff" stroke="#63b8ff" points="847.83,-80.34 839.32,-74.03 842.03,-84.27 847.83,-80.34"/>
</a>
</g>
</g>
<!-- Node9&#45;&gt;Node8 -->
<g id="edge15_Node000009_Node000008" class="edge">
<title>Node9&#45;&gt;Node8</title>
<g id="a_edge15_Node000009_Node000008"><a xlink:title=" ">
<path fill="none" stroke="#63b8ff" d="M722.57,-225.49C698.93,-215.62 659.72,-199.23 632.67,-187.93"/>
<polygon fill="#63b8ff" stroke="#63b8ff" points="633.88,-184.64 623.3,-184.02 631.18,-191.1 633.88,-184.64"/>
</a>
</g>
</g>
<!-- Node10 -->
<g id="Node000010" class="node">
<title>Node10</title>
<g id="a_Node000010"><a xlink:href="concepts_8hpp.html" target="_top" xlink:title=" ">
<polygon fill="white" stroke="#666666" points="854.42,-184 695.42,-184 695.42,-165 854.42,-165 854.42,-184"/>
<text text-anchor="middle" x="774.92" y="-172" font-family="Helvetica,sans-Serif" font-size="10.00">slick/orderbook/concepts.hpp</text>
</a>
</g>
</g>
<!-- Node9&#45;&gt;Node10 -->
<g id="edge16_Node000009_Node000010" class="edge">
<title>Node9&#45;&gt;Node10</title>
<g id="a_edge16_Node000009_Node000010"><a xlink:title=" ">
<path fill="none" stroke="#63b8ff" d="M747.64,-225.37C752.28,-216.9 759.47,-203.74 765.31,-193.07"/>
<polygon fill="#63b8ff" stroke="#63b8ff" points="768.45,-194.62 770.18,-184.17 762.31,-191.26 768.45,-194.62"/>
</a>
</g>
</g>
<!-- Node9&#45;&gt;Node13 -->
<g id="edge21_Node000009_Node000013" class="edge">
<title>Node9&#45;&gt;Node13</title>
<g id="a_edge21_Node000009_Node000013"><a xlink:title=" ">
<path fill="none" stroke="#63b8ff" d="M691.59,-225.49C618.39,-213.36 485.98,-191.42 423.85,-181.12"/>
<polygon fill="#63b8ff" stroke="#63b8ff" points="424.23,-177.64 413.79,-179.46 423.09,-184.54 424.23,-177.64"/>
</a>
</g>
</g>
<!-- Node9&#45;&gt;Node14 -->
<g id="edge22_Node000009_Node000014" class="edge">
<title>Node9&#45;&gt;Node14</title>
<g id="a_edge22_Node000009_Node000014"><a xlink:title=" ">
<path fill="none" stroke="#63b8ff" d="M796.46,-225.47C809.37,-223.55 823.12,-221.6 835.92,-220 985.29,-201.3 1163.65,-185.4 1241.42,-178.79"/>
<polygon fill="#63b8ff" stroke="#63b8ff" points="1242.04,-182.25 1251.71,-177.91 1241.45,-175.27 1242.04,-182.25"/>
</a>
</g>
</g>
<!-- Node10&#45;&gt;Node2 -->
<g id="edge17_Node000010_Node000002" class="edge">
<title>Node10&#45;&gt;Node2</title>
<g id="a_edge17_Node000010_Node000002"><a xlink:title=" ">
<path fill="none" stroke="#63b8ff" d="M784.58,-164.85C793.38,-156.48 806.17,-143.02 813.92,-129 821.68,-114.98 826.62,-97.43 829.51,-84.33"/>
<polygon fill="#63b8ff" stroke="#63b8ff" points="833.01,-84.67 831.54,-74.17 826.15,-83.29 833.01,-84.67"/>
</a>
</g>
</g>
<!-- Node10&#45;&gt;Node4 -->
<g id="edge18_Node000010_Node000004" class="edge">
<title>Node10&#45;&gt;Node4</title>
<g id="a_edge18_Node000010_Node000004"><a xlink:title=" ">
<path fill="none" stroke="#63b8ff" d="M695.35,-165.85C692.17,-165.56 689.01,-165.28 685.92,-165 523.61,-150.56 333.7,-135.29 227.86,-126.92"/>
<polygon fill="#63b8ff" stroke="#63b8ff" points="227.82,-123.41 217.57,-126.11 227.27,-130.38 227.82,-123.41"/>
</a>
</g>
</g>
<!-- Node11 -->
<g id="Node000011" class="node">
<title>Node11</title>
<g id="a_Node000011"><a xlink:title=" ">
<polygon fill="#e0e0e0" stroke="#999999" points="804.92,-129 744.92,-129 744.92,-110 804.92,-110 804.92,-129"/>
<text text-anchor="middle" x="774.92" y="-117" font-family="Helvetica,sans-Serif" font-size="10.00">concepts</text>
</a>
</g>
</g>
<!-- Node10&#45;&gt;Node11 -->
<g id="edge19_Node000010_Node000011" class="edge">
<title>Node10&#45;&gt;Node11</title>
<g id="a_edge19_Node000010_Node000011"><a xlink:title=" ">
<path fill="none" stroke="#63b8ff" d="M774.92,-164.75C774.92,-157.8 774.92,-147.85 774.92,-139.13"/>
<polygon fill="#63b8ff" stroke="#63b8ff" points="778.42,-139.09 774.92,-129.09 771.42,-139.09 778.42,-139.09"/>
</a>
</g>
</g>
<!-- Node12 -->
<g id="Node000012" class="node">
<title>Node12</title>
<g id="a_Node000012"><a xlink:title=" ">
<polygon fill="#e0e0e0" stroke="#999999" points="726.42,-129 657.42,-129 657.42,-110 726.42,-110 726.42,-129"/>
<text text-anchor="middle" x="691.92" y="-117" font-family="Helvetica,sans-Serif" font-size="10.00">type_traits</text>
</a>
</g>
</g>
<!-- Node10&#45;&gt;Node12 -->
<g id="edge20_Node000010_Node000012" class="edge">
<title>Node10&#45;&gt;Node12</title>
<g id="a_edge20_Node000010_Node000012"><a xlink:title=" ">
<path fill="none" stroke="#63b8ff" d="M761.59,-164.98C748.84,-156.84 729.37,-144.41 714.25,-134.76"/>
<polygon fill="#63b8ff" stroke="#63b8ff" points="715.81,-131.6 705.5,-129.17 712.05,-137.5 715.81,-131.6"/>
</a>
</g>
</g>
<!-- Node19&#45;&gt;Node2 -->
<g id="edge30_Node000019_Node000002" class="edge">
<title>Node19&#45;&gt;Node2</title>
<g id="a_edge30_Node000019_Node000002"><a xlink:title=" ">
<path fill="none" stroke="#63b8ff" d="M1290.97,-297.21C1412.15,-291.76 1646.07,-277.75 1670.92,-250 1679.82,-240.07 1679.45,-230.25 1670.92,-220 1575.2,-105.02 1107.65,-75.28 915.56,-67.87"/>
<polygon fill="#63b8ff" stroke="#63b8ff" points="915.64,-64.37 905.52,-67.49 915.38,-71.36 915.64,-64.37"/>
</a>
</g>
</g>
<!-- Node19&#45;&gt;Node4 -->
<g id="edge31_Node000019_Node000004" class="edge">
<title>Node19&#45;&gt;Node4</title>
<g id="a_edge31_Node000019_Node000004"><a xlink:title=" ">
<path fill="none" stroke="#63b8ff" d="M1146.8,-298.45C1009.77,-294.77 716.99,-283.18 621.92,-250 599.23,-242.08 598.41,-230.77 576.92,-220 511.57,-187.25 492.74,-183.11 421.92,-165 357.51,-148.53 283.02,-136.94 227.66,-129.73"/>
<polygon fill="#63b8ff" stroke="#63b8ff" points="227.92,-126.23 217.56,-128.43 227.03,-133.18 227.92,-126.23"/>
</a>
</g>
</g>
<!-- Node19&#45;&gt;Node8 -->
<g id="edge32_Node000019_Node000008" class="edge">
<title>Node19&#45;&gt;Node8</title>
<g id="a_edge32_Node000019_Node000008"><a xlink:title=" ">
<path fill="none" stroke="#63b8ff" d="M1146.82,-297C1004.28,-290.58 696.55,-274.11 654.92,-250 633.02,-237.31 618.14,-211.25 610.09,-193.57"/>
<polygon fill="#63b8ff" stroke="#63b8ff" points="613.27,-192.12 606.13,-184.29 606.83,-194.87 613.27,-192.12"/>
</a>
</g>
</g>
<!-- Node19&#45;&gt;Node9 -->
<g id="edge33_Node000019_Node000009" class="edge">
<title>Node19&#45;&gt;Node9</title>
<g id="a_edge33_Node000019_Node000009"><a xlink:title=" ">
<path fill="none" stroke="#63b8ff" d="M1146.89,-290.31C1057.67,-278.32 906.5,-257.99 816.55,-245.9"/>
<polygon fill="#63b8ff" stroke="#63b8ff" points="816.81,-242.4 806.44,-244.54 815.88,-249.34 816.81,-242.4"/>
</a>
</g>
</g>
<!-- Node19&#45;&gt;Node13 -->
<g id="edge42_Node000019_Node000013" class="edge">
<title>Node19&#45;&gt;Node13</title>
<g id="a_edge42_Node000019_Node000013"><a xlink:title=" ">
<path fill="none" stroke="#63b8ff" d="M1146.89,-299.06C1003.16,-296.41 685.82,-286.49 583.92,-250 561.98,-242.14 561.93,-230.09 540.92,-220 502.52,-201.55 454.9,-189.07 423.53,-182.13"/>
<polygon fill="#63b8ff" stroke="#63b8ff" points="424.06,-178.66 413.54,-179.99 422.59,-185.51 424.06,-178.66"/>
</a>
</g>
</g>
<!-- Node19&#45;&gt;Node14 -->
<g id="edge40_Node000019_Node000014" class="edge">
<title>Node19&#45;&gt;Node14</title>
<g id="a_edge40_Node000019_Node000014"><a xlink:title=" ">
<path fill="none" stroke="#63b8ff" d="M1291.37,-296.83C1408.63,-290.95 1629.33,-276.47 1652.92,-250 1661.79,-240.05 1661.77,-229.97 1652.92,-220 1631.09,-195.4 1411.58,-181.9 1320.36,-177.31"/>
<polygon fill="#63b8ff" stroke="#63b8ff" points="1320.3,-173.8 1310.14,-176.81 1319.96,-180.79 1320.3,-173.8"/>
</a>
</g>
</g>
<!-- Node19&#45;&gt;Node15 -->
<g id="edge34_Node000019_Node000015" class="edge">
<title>Node19&#45;&gt;Node15</title>
<g id="a_edge34_Node000019_Node000015"><a xlink:title=" ">
<path fill="none" stroke="#63b8ff" d="M1146.45,-297.24C1022.84,-291.95 763.48,-278.3 545.92,-250 544.67,-249.84 543.4,-249.67 542.12,-249.49"/>
<polygon fill="#63b8ff" stroke="#63b8ff" points="542.64,-246.03 532.23,-248.01 541.6,-252.95 542.64,-246.03"/>
</a>
</g>
</g>
<!-- Node19&#45;&gt;Node17 -->
<g id="edge43_Node000019_Node000017" class="edge">
<title>Node19&#45;&gt;Node17</title>
<g id="a_edge43_Node000019_Node000017"><a xlink:title=" ">
<path fill="none" stroke="#63b8ff" d="M1146.89,-299.04C974.3,-296.19 541.06,-285.61 400.92,-250 399.24,-249.57 397.53,-249.05 395.83,-248.46"/>
<polygon fill="#63b8ff" stroke="#63b8ff" points="396.97,-245.14 386.39,-244.57 394.3,-251.61 396.97,-245.14"/>
</a>
</g>
</g>
<!-- Node20 -->
<g id="Node000020" class="node">
<title>Node20</title>
<g id="a_Node000020"><a xlink:title=" ">
<polygon fill="#e0e0e0" stroke="#999999" points="999.92,-250 877.92,-250 877.92,-220 999.92,-220 999.92,-250"/>
<text text-anchor="start" x="885.92" y="-238" font-family="Helvetica,sans-Serif" font-size="10.00">slick/orderbook/detail</text>
<text text-anchor="middle" x="938.92" y="-227" font-family="Helvetica,sans-Serif" font-size="10.00">/order.hpp</text>
</a>
</g>
</g>
<!-- Node19&#45;&gt;Node20 -->
<g id="edge35_Node000019_Node000020" class="edge">
<title>Node19&#45;&gt;Node20</title>
<g id="a_edge35_Node000019_Node000020"><a xlink:title=" ">
<path fill="none" stroke="#63b8ff" d="M1157.48,-285.95C1113.98,-276.01 1055.53,-262.65 1010.02,-252.25"/>
<polygon fill="#63b8ff" stroke="#63b8ff" points="1010.75,-248.83 1000.23,-250.01 1009.2,-255.65 1010.75,-248.83"/>
</a>
</g>
</g>
<!-- Node21 -->
<g id="Node000021" class="node">
<title>Node21</title>
<g id="a_Node000021"><a xlink:title=" ">
<polygon fill="#e0e0e0" stroke="#999999" points="1139.92,-250 1017.92,-250 1017.92,-220 1139.92,-220 1139.92,-250"/>
<text text-anchor="start" x="1025.92" y="-238" font-family="Helvetica,sans-Serif" font-size="10.00">slick/orderbook/detail</text>
<text text-anchor="middle" x="1078.92" y="-227" font-family="Helvetica,sans-Serif" font-size="10.00">/order_map.hpp</text>
</a>
</g>
</g>
<!-- Node19&#45;&gt;Node21 -->
<g id="edge36_Node000019_Node000021" class="edge">
<title>Node19&#45;&gt;Node21</title>
<g id="a_edge36_Node000019_Node000021"><a xlink:title=" ">
<path fill="none" stroke="#63b8ff" d="M1188.2,-285.95C1167.77,-276.62 1140.75,-264.27 1118.69,-254.18"/>
<polygon fill="#63b8ff" stroke="#63b8ff" points="1120.12,-250.99 1109.57,-250.01 1117.21,-257.35 1120.12,-250.99"/>
</a>
</g>
</g>
<!-- Node22 -->
<g id="Node000022" class="node">
<title>Node22</title>
<g id="a_Node000022"><a xlink:title=" ">
<polygon fill="#e0e0e0" stroke="#999999" points="1279.92,-250 1157.92,-250 1157.92,-220 1279.92,-220 1279.92,-250"/>
<text text-anchor="start" x="1165.92" y="-238" font-family="Helvetica,sans-Serif" font-size="10.00">slick/orderbook/detail</text>
<text text-anchor="middle" x="1218.92" y="-227" font-family="Helvetica,sans-Serif" font-size="10.00">/memory_pool.hpp</text>
</a>
</g>
</g>
<!-- Node19&#45;&gt;Node22 -->
<g id="edge37_Node000019_Node000022" class="edge">
<title>Node19&#45;&gt;Node22</title>
<g id="a_edge37_Node000019_Node000022"><a xlink:title=" ">
<path fill="none" stroke="#63b8ff" d="M1218.92,-285.8C1218.92,-278.34 1218.92,-268.99 1218.92,-260.41"/>
<polygon fill="#63b8ff" stroke="#63b8ff" points="1222.42,-260.16 1218.92,-250.16 1215.42,-260.16 1222.42,-260.16"/>
</a>
</g>
</g>
<!-- Node19&#45;&gt;Node23 -->
<g id="edge38_Node000019_Node000023" class="edge">
<title>Node19&#45;&gt;Node23</title>
<g id="a_edge38_Node000019_Node000023"><a xlink:title=" ">
<path fill="none" stroke="#63b8ff" d="M1291.22,-294.82C1389.63,-287.33 1571.11,-271.91 1724.92,-250 1726.18,-249.82 1727.44,-249.64 1728.71,-249.45"/>
<polygon fill="#63b8ff" stroke="#63b8ff" points="1729.26,-252.9 1738.6,-247.89 1728.18,-245.99 1729.26,-252.9"/>
</a>
</g>
</g>
<!-- Node24 -->
<g id="Node000024" class="node">
<title>Node24</title>
<g id="a_Node000024"><a xlink:title=" ">
<polygon fill="#e0e0e0" stroke="#999999" points="1419.92,-250 1297.92,-250 1297.92,-220 1419.92,-220 1419.92,-250"/>
<text text-anchor="start" x="1305.92" y="-238" font-family="Helvetica,sans-Serif" font-size="10.00">slick/orderbook/detail</text>
<text text-anchor="middle" x="1358.92" y="-227" font-family="Helvetica,sans-Serif" font-size="10.00">/intrusive_list.hpp</text>
</a>
</g>
</g>
<!-- Node19&#45;&gt;Node24 -->
<g id="edge39_Node000019_Node000024" class="edge">
<title>Node19&#45;&gt;Node24</title>
<g id="a_edge39_Node000019_Node000024"><a xlink:title=" ">
<path fill="none" stroke="#63b8ff" d="M1249.65,-285.95C1270.07,-276.62 1297.09,-264.27 1319.15,-254.18"/>
<polygon fill="#63b8ff" stroke="#63b8ff" points="1320.63,-257.35 1328.27,-250.01 1317.72,-250.99 1320.63,-257.35"/>
</a>
</g>
</g>
<!-- Node25 -->
<g id="Node000025" class="node">
<title>Node25</title>
<g id="a_Node000025"><a xlink:title=" ">
<polygon fill="#e0e0e0" stroke="#999999" points="1501.92,-244.5 1437.92,-244.5 1437.92,-225.5 1501.92,-225.5 1501.92,-244.5"/>
<text text-anchor="middle" x="1469.92" y="-232.5" font-family="Helvetica,sans-Serif" font-size="10.00">algorithm</text>
</a>
</g>
</g>
<!-- Node19&#45;&gt;Node25 -->
<g id="edge41_Node000019_Node000025" class="edge">
<title>Node19&#45;&gt;Node25</title>
<g id="a_edge41_Node000019_Node000025"><a xlink:title=" ">
<path fill="none" stroke="#63b8ff" d="M1285.08,-285.95C1326.64,-276.7 1381.22,-263.79 1428.92,-250 1431.39,-249.29 1433.93,-248.52 1436.47,-247.71"/>
<polygon fill="#63b8ff" stroke="#63b8ff" points="1437.78,-250.97 1446.2,-244.53 1435.6,-244.31 1437.78,-250.97"/>
</a>
</g>
</g>
<!-- Node26 -->
<g id="Node000026" class="node">
<title>Node26</title>
<g id="a_Node000026"><a xlink:title=" ">
<polygon fill="#e0e0e0" stroke="#999999" points="1561.42,-244.5 1520.42,-244.5 1520.42,-225.5 1561.42,-225.5 1561.42,-244.5"/>
<text text-anchor="middle" x="1540.92" y="-232.5" font-family="Helvetica,sans-Serif" font-size="10.00">tuple</text>
</a>
</g>
</g>
<!-- Node19&#45;&gt;Node26 -->
<g id="edge44_Node000019_Node000026" class="edge">
<title>Node19&#45;&gt;Node26</title>
<g id="a_edge44_Node000019_Node000026"><a xlink:title=" ">
<path fill="none" stroke="#63b8ff" d="M1290.98,-293.09C1350.86,-286.06 1437.78,-272.87 1510.92,-250 1512.36,-249.55 1513.82,-249.04 1515.28,-248.5"/>
<polygon fill="#63b8ff" stroke="#63b8ff" points="1516.88,-251.63 1524.73,-244.52 1514.16,-245.18 1516.88,-251.63"/>
</a>
</g>
</g>
<!-- Node27 -->
<g id="Node000027" class="node">
<title>Node27</title>
<g id="a_Node000027"><a xlink:title=" ">
<polygon fill="#e0e0e0" stroke="#999999" points="1644.42,-244.5 1579.42,-244.5 1579.42,-225.5 1644.42,-225.5 1644.42,-244.5"/>
<text text-anchor="middle" x="1611.92" y="-232.5" font-family="Helvetica,sans-Serif" font-size="10.00">functional</text>
</a>
</g>
</g>
<!-- Node19&#45;&gt;Node27 -->
<g id="edge45_Node000019_Node000027" class="edge">
<title>Node19&#45;&gt;Node27</title>
<g id="a_edge45_Node000019_Node000027"><a xlink:title=" ">
<path fill="none" stroke="#63b8ff" d="M1291.22,-293.55C1362.69,-286.27 1474.82,-272.43 1569.92,-250 1572.89,-249.3 1575.95,-248.48 1579,-247.59"/>
<polygon fill="#63b8ff" stroke="#63b8ff" points="1580.09,-250.92 1588.59,-244.61 1578,-244.24 1580.09,-250.92"/>
</a>
</g>
</g>
</g>
</svg>
