<?xml version="1.0" encoding="UTF-8" standalone="no"?>
<!DOCTYPE svg PUBLIC "-//W3C//DTD SVG 1.1//EN"
 "http://www.w3.org/Graphics/SVG/1.1/DTD/svg11.dtd">
<!-- Generated by graphviz version 2.43.0 (0)
 -->
<!-- Title: slick/orderbook/detail/price_level_l3.hpp Pages: 1 -->
<svg width="509pt" height="269pt"
 viewBox="0.00 0.00 509.05 269.00" xmlns="http://www.w3.org/2000/svg" xmlns:xlink="http://www.w3.org/1999/xlink">
<g id="graph0" class="graph" transform="scale(1 1) rotate(0) translate(4 265)">
<title>slick/orderbook/detail/price_level_l3.hpp</title>
<!-- Node1 -->
<g id="Node000001" class="node">
<title>Node1</title>
<g id="a_Node000001"><a xlink:title=" ">
<polygon fill="#999999" stroke="#666666" points="293.05,-261 171.05,-261 171.05,-231 293.05,-231 293.05,-261"/>
<text text-anchor="start" x="179.05" y="-249" font-family="Helvetica,sans-Serif" font-size="10.00">slick/orderbook/detail</text>
<text text-anchor="middle" x="232.05" y="-238" font-family="Helvetica,sans-Serif" font-size="10.00">/price_level_l3.hpp</text>
</a>
</g>
</g>
<!-- Node2 -->
<g id="Node000002" class="node">
<title>Node2</title>
<g id="a_Node000002"><a xlink:href="config_8hpp.html" target="_top" xlink:title=" ">
<polygon fill="white" stroke="#666666" points="338.55,-74 193.55,-74 193.55,-55 338.55,-55 338.55,-74"/>
<text text-anchor="middle" x="266.05" y="-62" font-family="Helvetica,sans-Serif" font-size="10.00">slick/orderbook/config.hpp</text>
</a>
</g>
</g>
<!-- Node1&#45;&gt;Node2 -->
<g id="edge1_Node000001_Node000002" class="edge">
<title>Node1&#45;&gt;Node2</title>
<g id="a_edge1_Node000001_Node000002"><a xlink:title=" ">
<path fill="none" stroke="#63b8ff" d="M170.99,-232.54C89.29,-213.18 -39.69,-171.59 12.05,-110 33.71,-84.21 117.64,-73.37 183.16,-68.81"/>
<polygon fill="#63b8ff" stroke="#63b8ff" points="183.76,-72.27 193.51,-68.13 183.3,-65.29 183.76,-72.27"/>
</a>
</g>
</g>
<!-- Node4 -->
<g id="Node000004" class="node">
<title>Node4</title>
<g id="a_Node000004"><a xlink:href="types_8hpp.html" target="_top" xlink:title=" ">
<polygon fill="white" stroke="#666666" points="470.55,-129 327.55,-129 327.55,-110 470.55,-110 470.55,-129"/>
<text text-anchor="middle" x="399.05" y="-117" font-family="Helvetica,sans-Serif" font-size="10.00">slick/orderbook/types.hpp</text>
</a>
</g>
</g>
<!-- Node1&#45;&gt;Node4 -->
<g id="edge3_Node000001_Node000004" class="edge">
<title>Node1&#45;&gt;Node4</title>
<g id="a_edge3_Node000001_Node000004"><a xlink:title=" ">
<path fill="none" stroke="#63b8ff" d="M293.18,-235.35C320.36,-228.26 350.92,-216.03 372.05,-195 387.1,-180.02 393.82,-156.01 396.78,-139.32"/>
<polygon fill="#63b8ff" stroke="#63b8ff" points="400.28,-139.53 398.28,-129.13 393.36,-138.51 400.28,-139.53"/>
</a>
</g>
</g>
<!-- Node7 -->
<g id="Node000007" class="node">
<title>Node7</title>
<g id="a_Node000007"><a xlink:href="intrusive__list_8hpp.html" target="_top" xlink:title=" ">
<polygon fill="white" stroke="#666666" points="223.05,-195 101.05,-195 101.05,-165 223.05,-165 223.05,-195"/>
<text text-anchor="start" x="109.05" y="-183" font-family="Helvetica,sans-Serif" font-size="10.00">slick/orderbook/detail</text>
<text text-anchor="middle" x="162.05" y="-172" font-family="Helvetica,sans-Serif" font-size="10.00">/intrusive_list.hpp</text>
</a>
</g>
</g>
<!-- Node1&#45;&gt;Node7 -->
<g id="edge7_Node000001_Node000007" class="edge">
<title>Node1&#45;&gt;Node7</title>
<g id="a_edge7_Node000001_Node000007"><a xlink:title=" ">
<path fill="none" stroke="#63b8ff" d="M216.51,-230.8C207.27,-222.34 195.37,-211.46 185.05,-202.03"/>
<polygon fill="#63b8ff" stroke="#63b8ff" points="187.28,-199.33 177.54,-195.16 182.56,-204.49 187.28,-199.33"/>
</a>
</g>
</g>
<!-- Node11 -->
<g id="Node000011" class="node">
<title>Node11</title>
<g id="a_Node000011"><a xlink:href="order_8hpp.html" target="_top" xlink:title=" ">
<polygon fill="white" stroke="#666666" points="363.05,-195 241.05,-195 241.05,-165 363.05,-165 363.05,-195"/>
<text text-anchor="start" x="249.05" y="-183" font-family="Helvetica,sans-Serif" font-size="10.00">slick/orderbook/detail</text>
<text text-anchor="middle" x="302.05" y="-172" font-family="Helvetica,sans-Serif" font-size="10.00">/order.hpp</text>
</a>
</g>
</g>
<!-- Node1&#45;&gt;Node11 -->
<g id="edge12_Node000001_Node000011" class="edge">
<title>Node1&#45;&gt;Node11</title>
<g id="a_edge12_Node000001_Node000011"><a xlink:title=" ">
<path fill="none" stroke="#63b8ff" d="M247.58,-230.8C256.83,-222.34 268.73,-211.46 279.04,-202.03"/>
<polygon fill="#63b8ff" stroke="#63b8ff" points="281.54,-204.49 286.55,-195.16 276.81,-199.33 281.54,-204.49"/>
</a>
</g>
</g>
<!-- Node3 -->
<g id="Node000003" class="node">
<title>Node3</title>
<g id="a_Node000003"><a xlink:title=" ">
<polygon fill="#e0e0e0" stroke="#999999" points="292.05,-19 240.05,-19 240.05,0 292.05,0 292.05,-19"/>
<text text-anchor="middle" x="266.05" y="-7" font-family="Helvetica,sans-Serif" font-size="10.00">cassert</text>
</a>
</g>
</g>
<!-- Node2&#45;&gt;Node3 -->
<g id="edge2_Node000002_Node000003" class="edge">
<title>Node2&#45;&gt;Node3</title>
<g id="a_edge2_Node000002_Node000003"><a xlink:title=" ">
<path fill="none" stroke="#63b8ff" d="M266.05,-54.75C266.05,-47.8 266.05,-37.85 266.05,-29.13"/>
<polygon fill="#63b8ff" stroke="#63b8ff" points="269.55,-29.09 266.05,-19.09 262.55,-29.09 269.55,-29.09"/>
</a>
</g>
</g>
<!-- Node4&#45;&gt;Node2 -->
<g id="edge4_Node000004_Node000002" class="edge">
<title>Node4&#45;&gt;Node2</title>
<g id="a_edge4_Node000004_Node000002"><a xlink:title=" ">
<path fill="none" stroke="#63b8ff" d="M377.68,-109.98C355.9,-101.3 321.89,-87.75 297.13,-77.88"/>
<polygon fill="#63b8ff" stroke="#63b8ff" points="298.39,-74.62 287.8,-74.17 295.8,-81.12 298.39,-74.62"/>
</a>
</g>
</g>
<!-- Node5 -->
<g id="Node000005" class="node">
<title>Node5</title>
<g id="a_Node000005"><a xlink:title=" ">
<polygon fill="#e0e0e0" stroke="#999999" points="501.05,-74 451.05,-74 451.05,-55 501.05,-55 501.05,-74"/>
<text text-anchor="middle" x="476.05" y="-62" font-family="Helvetica,sans-Serif" font-size="10.00">cstdint</text>
</a>
</g>
</g>
<!-- Node4&#45;&gt;Node5 -->
<g id="edge5_Node000004_Node000005" class="edge">
<title>Node4&#45;&gt;Node5</title>
<g id="a_edge5_Node000004_Node000005"><a xlink:title=" ">
<path fill="none" stroke="#63b8ff" d="M411.42,-109.98C423.14,-101.92 440.97,-89.65 454.93,-80.03"/>
<polygon fill="#63b8ff" stroke="#63b8ff" points="457.2,-82.72 463.45,-74.17 453.23,-76.96 457.2,-82.72"/>
</a>
</g>
</g>
<!-- Node6 -->
<g id="Node000006" class="node">
<title>Node6</title>
<g id="a_Node000006"><a xlink:title=" ">
<polygon fill="#e0e0e0" stroke="#999999" points="432.55,-74 359.55,-74 359.55,-55 432.55,-55 432.55,-74"/>
<text text-anchor="middle" x="396.05" y="-62" font-family="Helvetica,sans-Serif" font-size="10.00">string_view</text>
</a>
</g>
</g>
<!-- Node4&#45;&gt;Node6 -->
<g id="edge6_Node000004_Node000006" class="edge">
<title>Node4&#45;&gt;Node6</title>
<g id="a_edge6_Node000004_Node000006"><a xlink:title=" ">
<path fill="none" stroke="#63b8ff" d="M398.55,-109.75C398.16,-102.8 397.59,-92.85 397.1,-84.13"/>
<polygon fill="#63b8ff" stroke="#63b8ff" points="400.59,-83.88 396.53,-74.09 393.6,-84.27 400.59,-83.88"/>
</a>
</g>
</g>
<!-- Node7&#45;&gt;Node2 -->
<g id="edge8_Node000007_Node000002" class="edge">
<title>Node7&#45;&gt;Node2</title>
<g id="a_edge8_Node000007_Node000002"><a xlink:title=" ">
<path fill="none" stroke="#63b8ff" d="M194.44,-164.94C210.61,-156.53 229.38,-144.45 242.05,-129 252.67,-116.04 258.9,-97.89 262.33,-84.31"/>
<polygon fill="#63b8ff" stroke="#63b8ff" points="265.83,-84.72 264.6,-74.19 259,-83.19 265.83,-84.72"/>
</a>
</g>
</g>
<!-- Node8 -->
<g id="Node000008" class="node">
<title>Node8</title>
<g id="a_Node000008"><a xlink:title=" ">
<polygon fill="#e0e0e0" stroke="#999999" points="74.55,-129 21.55,-129 21.55,-110 74.55,-110 74.55,-129"/>
<text text-anchor="middle" x="48.05" y="-117" font-family="Helvetica,sans-Serif" font-size="10.00">cstddef</text>
</a>
</g>
</g>
<!-- Node7&#45;&gt;Node8 -->
<g id="edge9_Node000007_Node000008" class="edge">
<title>Node7&#45;&gt;Node8</title>
<g id="a_edge9_Node000007_Node000008"><a xlink:title=" ">
<path fill="none" stroke="#63b8ff" d="M134.74,-164.99C116.4,-155.58 92.37,-143.24 74.26,-133.95"/>
<polygon fill="#63b8ff" stroke="#63b8ff" points="75.38,-130.59 64.88,-129.14 72.18,-136.82 75.38,-130.59"/>
</a>
</g>
</g>
<!-- Node9 -->
<g id="Node000009" class="node">
<title>Node9</title>
<g id="a_Node000009"><a xlink:title=" ">
<polygon fill="#e0e0e0" stroke="#999999" points="145.55,-129 92.55,-129 92.55,-110 145.55,-110 145.55,-129"/>
<text text-anchor="middle" x="119.05" y="-117" font-family="Helvetica,sans-Serif" font-size="10.00">iterator</text>
</a>
</g>
</g>
<!-- Node7&#45;&gt;Node9 -->
<g id="edge10_Node000007_Node000009" class="edge">
<title>Node7&#45;&gt;Node9</title>
<g id="a_edge10_Node000007_Node000009"><a xlink:title=" ">
<path fill="none" stroke="#63b8ff" d="M151.64,-164.84C145.59,-156.61 137.92,-146.18 131.55,-137.51"/>
<polygon fill="#63b8ff" stroke="#63b8ff" points="134.23,-135.25 125.49,-129.27 128.59,-139.4 134.23,-135.25"/>
</a>
</g>
</g>
<!-- Node10 -->
<g id="Node000010" class="node">
<title>Node10</title>
<g id="a_Node000010"><a xlink:title=" ">
<polygon fill="#e0e0e0" stroke="#999999" points="232.55,-129 163.55,-129 163.55,-110 232.55,-110 232.55,-129"/>
<text text-anchor="middle" x="198.05" y="-117" font-family="Helvetica,sans-Serif" font-size="10.00">type_traits</text>
</a>
</g>
</g>
<!-- Node7&#45;&gt;Node10 -->
<g id="edge11_Node000007_Node000010" class="edge">
<title>Node7&#45;&gt;Node10</title>
<g id="a_edge11_Node000007_Node000010"><a xlink:title=" ">
<path fill="none" stroke="#63b8ff" d="M170.76,-164.84C175.72,-156.78 181.97,-146.62 187.24,-138.06"/>
<polygon fill="#63b8ff" stroke="#63b8ff" points="190.39,-139.62 192.65,-129.27 184.43,-135.95 190.39,-139.62"/>
</a>
</g>
</g>
<!-- Node11&#45;&gt;Node2 -->
<g id="edge13_Node000011_Node000002" class="edge">
<title>Node11&#45;&gt;Node2</title>
<g id="a_edge13_Node000011_Node000002"><a xlink:title=" ">
<path fill="none" stroke="#63b8ff" d="M297.49,-164.63C290.98,-144.12 279.04,-106.47 271.89,-83.93"/>
<polygon fill="#63b8ff" stroke="#63b8ff" points="275.18,-82.7 268.82,-74.23 268.5,-84.82 275.18,-82.7"/>
</a>
</g>
</g>
<!-- Node11&#45;&gt;Node4 -->
<g id="edge14_Node000011_Node000004" class="edge">
<title>Node11&#45;&gt;Node4</title>
<g id="a_edge14_Node000011_Node000004"><a xlink:title=" ">
<path fill="none" stroke="#63b8ff" d="M325.53,-164.84C340.85,-155.6 360.76,-143.59 376,-134.4"/>
<polygon fill="#63b8ff" stroke="#63b8ff" points="378.04,-137.26 384.8,-129.09 374.43,-131.26 378.04,-137.26"/>
</a>
</g>
</g>
</g>
</svg>
