<?xml version="1.0" encoding="UTF-8" standalone="no"?>
<!DOCTYPE svg PUBLIC "-//W3C//DTD SVG 1.1//EN"
 "http://www.w3.org/Graphics/SVG/1.1/DTD/svg11.dtd">
<!-- Generated by graphviz version 2.43.0 (0)
 -->
<!-- Title: slick::orderbook::TopOfBook Pages: 1 -->
<svg width="158pt" height="525pt"
 viewBox="0.00 0.00 157.50 525.00" xmlns="http://www.w3.org/2000/svg" xmlns:xlink="http://www.w3.org/1999/xlink">
<g id="graph0" class="graph" transform="scale(1 1) rotate(0) translate(4 521)">
<title>slick::orderbook::TopOfBook</title>
<!-- Node1 -->
<g id="Node000001" class="node">
<title>Node1</title>
<g id="a_Node000001"><a xlink:title="Top&#45;of&#45;book snapshot &#45; best bid and ask.">
<polygon fill="#999999" stroke="transparent" points="147,-229 0,-229 0,0 147,0 147,-229"/>
<text text-anchor="start" x="5.5" y="-216.5" font-family="Helvetica,sans-Serif" font-size="10.00">slick::orderbook::TopOfBook</text>
<text text-anchor="start" x="20" y="-201.5" font-family="Helvetica,sans-Serif" font-size="10.00">+</text>
<text text-anchor="start" x="48.5" y="-201.5" font-family="Helvetica,sans-Serif" font-size="10.00">symbol</text>
<text text-anchor="start" x="20" y="-186.5" font-family="Helvetica,sans-Serif" font-size="10.00">+</text>
<text text-anchor="start" x="48.5" y="-186.5" font-family="Helvetica,sans-Serif" font-size="10.00">best_bid</text>
<text text-anchor="start" x="20" y="-171.5" font-family="Helvetica,sans-Serif" font-size="10.00">+</text>
<text text-anchor="start" x="48.5" y="-171.5" font-family="Helvetica,sans-Serif" font-size="10.00">bid_quantity</text>
<text text-anchor="start" x="20" y="-156.5" font-family="Helvetica,sans-Serif" font-size="10.00">+</text>
<text text-anchor="start" x="48.5" y="-156.5" font-family="Helvetica,sans-Serif" font-size="10.00">best_ask</text>
<text text-anchor="start" x="20" y="-141.5" font-family="Helvetica,sans-Serif" font-size="10.00">+</text>
<text text-anchor="start" x="48.5" y="-141.5" font-family="Helvetica,sans-Serif" font-size="10.00">ask_quantity</text>
<text text-anchor="start" x="20" y="-126.5" font-family="Helvetica,sans-Serif" font-size="10.00">+</text>
<text text-anchor="start" x="48.5" y="-126.5" font-family="Helvetica,sans-Serif" font-size="10.00">timestamp</text>
<text text-anchor="start" x="20" y="-111.5" font-family="Helvetica,sans-Serif" font-size="10.00">+</text>
<text text-anchor="start" x="48.5" y="-111.5" font-family="Helvetica,sans-Serif" font-size="10.00">TopOfBook()</text>
<text text-anchor="start" x="20" y="-96.5" font-family="Helvetica,sans-Serif" font-size="10.00">+</text>
<text text-anchor="start" x="48.5" y="-96.5" font-family="Helvetica,sans-Serif" font-size="10.00">TopOfBook()</text>
<text text-anchor="start" x="20" y="-81.5" font-family="Helvetica,sans-Serif" font-size="10.00">+</text>
<text text-anchor="start" x="48.5" y="-81.5" font-family="Helvetica,sans-Serif" font-size="10.00">spread()</text>
<text text-anchor="start" x="20" y="-66.5" font-family="Helvetica,sans-Serif" font-size="10.00">+</text>
<text text-anchor="start" x="48.5" y="-66.5" font-family="Helvetica,sans-Serif" font-size="10.00">midPrice()</text>
<text text-anchor="start" x="20" y="-51.5" font-family="Helvetica,sans-Serif" font-size="10.00">+</text>
<text text-anchor="start" x="48.5" y="-51.5" font-family="Helvetica,sans-Serif" font-size="10.00">isCrossed()</text>
<text text-anchor="start" x="20" y="-36.5" font-family="Helvetica,sans-Serif" font-size="10.00">+</text>
<text text-anchor="start" x="48.5" y="-36.5" font-family="Helvetica,sans-Serif" font-size="10.00">hasBid()</text>
<text text-anchor="start" x="20" y="-21.5" font-family="Helvetica,sans-Serif" font-size="10.00">+</text>
<text text-anchor="start" x="48.5" y="-21.5" font-family="Helvetica,sans-Serif" font-size="10.00">hasAsk()</text>
<text text-anchor="start" x="20" y="-6.5" font-family="Helvetica,sans-Serif" font-size="10.00">+</text>
<text text-anchor="start" x="48.5" y="-6.5" font-family="Helvetica,sans-Serif" font-size="10.00">isValid()</text>
<polygon fill="#666666" stroke="#666666" points="0.5,-211.5 0.5,-211.5 147.5,-211.5 147.5,-211.5 0.5,-211.5"/>
<polygon fill="#666666" stroke="#666666" points="0.5,-121.5 0.5,-121.5 46.5,-121.5 46.5,-121.5 0.5,-121.5"/>
<polygon fill="#666666" stroke="#666666" points="46.5,-121.5 46.5,-121.5 147.5,-121.5 147.5,-121.5 46.5,-121.5"/>
<polygon fill="none" stroke="#666666" points="0,0 0,-229 147,-229 147,0 0,0"/>
</a>
</g>
</g>
<!-- Node2 -->
<g id="Node000002" class="node">
<title>Node2</title>
<g id="a_Node000002"><a xlink:title=" ">
<polygon fill="white" stroke="transparent" points="136,-325 11,-325 11,-276 136,-276 136,-325"/>
<text text-anchor="start" x="16.5" y="-312.5" font-family="Helvetica,sans-Serif" font-size="10.00">std::array&lt; uint8_t, 2 &gt;</text>
<text text-anchor="start" x="30" y="-297.5" font-family="Helvetica,sans-Serif" font-size="10.00">+</text>
<text text-anchor="start" x="57.5" y="-297.5" font-family="Helvetica,sans-Serif" font-size="10.00">elements</text>
<text text-anchor="start" x="72" y="-282.5" font-family="Helvetica,sans-Serif" font-size="10.00"> </text>
<polygon fill="#666666" stroke="#666666" points="11.5,-307.5 11.5,-307.5 136.5,-307.5 136.5,-307.5 11.5,-307.5"/>
<polygon fill="#666666" stroke="#666666" points="11.5,-292.5 11.5,-292.5 55.5,-292.5 55.5,-292.5 11.5,-292.5"/>
<polygon fill="#666666" stroke="#666666" points="55.5,-292.5 55.5,-292.5 136.5,-292.5 136.5,-292.5 55.5,-292.5"/>
<polygon fill="none" stroke="#666666" points="11,-276 11,-325 136,-325 136,-276 11,-276"/>
</a>
</g>
</g>
<!-- Node2&#45;&gt;Node1 -->
<g id="edge1_Node000001_Node000002" class="edge">
<title>Node2&#45;&gt;Node1</title>
<g id="a_edge1_Node000001_Node000002"><a xlink:title=" ">
<path fill="none" stroke="#63b8ff" d="M73.5,-275.82C73.5,-266.24 73.5,-254.38 73.5,-241.49"/>
<polygon fill="none" stroke="#63b8ff" points="73.5,-241.4 69.5,-235.4 73.5,-229.4 77.5,-235.4 73.5,-241.4"/>
</a>
</g>
<text text-anchor="middle" x="111.5" y="-250" font-family="Helvetica,sans-Serif" font-size="10.00" fill="grey"> +change_flags</text>
</g>
<!-- Node3 -->
<g id="Node000003" class="node">
<title>Node3</title>
<g id="a_Node000003"><a xlink:title=" ">
<polygon fill="white" stroke="transparent" points="116.5,-421 30.5,-421 30.5,-372 116.5,-372 116.5,-421"/>
<text text-anchor="start" x="35.5" y="-408.5" font-family="Helvetica,sans-Serif" font-size="10.00">std::array&lt; T &gt;</text>
<text text-anchor="start" x="71.5" y="-393.5" font-family="Helvetica,sans-Serif" font-size="10.00"> </text>
<text text-anchor="start" x="71.5" y="-378.5" font-family="Helvetica,sans-Serif" font-size="10.00"> </text>
<polygon fill="#666666" stroke="#666666" points="30.5,-403.5 30.5,-403.5 116.5,-403.5 116.5,-403.5 30.5,-403.5"/>
<polygon fill="#666666" stroke="#666666" points="30.5,-388.5 30.5,-388.5 116.5,-388.5 116.5,-388.5 30.5,-388.5"/>
<polygon fill="none" stroke="#666666" points="30.5,-372 30.5,-421 116.5,-421 116.5,-372 30.5,-372"/>
</a>
</g>
</g>
<!-- Node3&#45;&gt;Node2 -->
<g id="edge2_Node000002_Node000003" class="edge">
<title>Node3&#45;&gt;Node2</title>
<g id="a_edge2_Node000002_Node000003"><a xlink:title=" ">
<path fill="none" stroke="orange" d="M73.5,-361.6C73.5,-349.54 73.5,-336.23 73.5,-325.21"/>
<polygon fill="orange" stroke="orange" points="70,-361.78 73.5,-371.78 77,-361.78 70,-361.78"/>
</a>
</g>
<text text-anchor="middle" x="109.5" y="-346" font-family="Helvetica,sans-Serif" font-size="10.00" fill="grey"> &lt; uint8_t, 2 &gt;</text>
</g>
<!-- Node4 -->
<g id="Node000004" class="node">
<title>Node4</title>
<g id="a_Node000004"><a xlink:title=" ">
<polygon fill="white" stroke="transparent" points="82,-517 65,-517 65,-468 82,-468 82,-517"/>
<text text-anchor="start" x="70.5" y="-504.5" font-family="Helvetica,sans-Serif" font-size="10.00">T</text>
<text text-anchor="start" x="72" y="-489.5" font-family="Helvetica,sans-Serif" font-size="10.00"> </text>
<text text-anchor="start" x="72" y="-474.5" font-family="Helvetica,sans-Serif" font-size="10.00"> </text>
<polygon fill="#666666" stroke="#666666" points="65.5,-499.5 65.5,-499.5 82.5,-499.5 82.5,-499.5 65.5,-499.5"/>
<polygon fill="#666666" stroke="#666666" points="65.5,-484.5 65.5,-484.5 82.5,-484.5 82.5,-484.5 65.5,-484.5"/>
<polygon fill="none" stroke="#666666" points="65,-468 65,-517 82,-517 82,-468 65,-468"/>
</a>
</g>
</g>
<!-- Node4&#45;&gt;Node3 -->
<g id="edge3_Node000003_Node000004" class="edge">
<title>Node4&#45;&gt;Node3</title>
<g id="a_edge3_Node000003_Node000004"><a xlink:title=" ">
<path fill="none" stroke="#63b8ff" d="M73.5,-467.78C73.5,-457.32 73.5,-444.79 73.5,-433.23"/>
<polygon fill="none" stroke="#63b8ff" points="73.5,-433.21 69.5,-427.21 73.5,-421.21 77.5,-427.21 73.5,-433.21"/>
</a>
</g>
<text text-anchor="middle" x="102.5" y="-442" font-family="Helvetica,sans-Serif" font-size="10.00" fill="grey"> +elements</text>
</g>
</g>
</svg>
