<?xml version="1.0" encoding="UTF-8" standalone="no"?>
<!DOCTYPE svg PUBLIC "-//W3C//DTD SVG 1.1//EN"
 "http://www.w3.org/Graphics/SVG/1.1/DTD/svg11.dtd">
<!-- Generated by graphviz version 2.43.0 (0)
 -->
<!-- Title: slick::orderbook::Symbol Pages: 1 -->
<svg width="139pt" height="295pt"
 viewBox="0.00 0.00 139.00 295.00" xmlns="http://www.w3.org/2000/svg" xmlns:xlink="http://www.w3.org/1999/xlink">
<g id="graph0" class="graph" transform="scale(1 1) rotate(0) translate(4 291)">
<title>slick::orderbook::Symbol</title>
<!-- Node1 -->
<g id="Node000001" class="node">
<title>Node1</title>
<g id="a_Node000001"><a xlink:title="Symbol information.">
<polygon fill="#999999" stroke="transparent" points="131,-94 0,-94 0,0 131,0 131,-94"/>
<text text-anchor="start" x="5.5" y="-82" font-family="Helvetica,sans-Serif" font-size="10.00">slick::orderbook::Symbol</text>
<text text-anchor="start" x="15.5" y="-67" font-family="Helvetica,sans-Serif" font-size="10.00">+</text>
<text text-anchor="start" x="39.5" y="-67" font-family="Helvetica,sans-Serif" font-size="10.00">id</text>
<text text-anchor="start" x="15.5" y="-52" font-family="Helvetica,sans-Serif" font-size="10.00">+</text>
<text text-anchor="start" x="39.5" y="-52" font-family="Helvetica,sans-Serif" font-size="10.00">Symbol()</text>
<text text-anchor="start" x="15.5" y="-37" font-family="Helvetica,sans-Serif" font-size="10.00">+</text>
<text text-anchor="start" x="39.5" y="-37" font-family="Helvetica,sans-Serif" font-size="10.00">Symbol()</text>
<text text-anchor="start" x="15.5" y="-22" font-family="Helvetica,sans-Serif" font-size="10.00">+</text>
<text text-anchor="start" x="39.5" y="-22" font-family="Helvetica,sans-Serif" font-size="10.00">operator==()</text>
<text text-anchor="start" x="15.5" y="-7" font-family="Helvetica,sans-Serif" font-size="10.00">+</text>
<text text-anchor="start" x="39.5" y="-7" font-family="Helvetica,sans-Serif" font-size="10.00">operator!=()</text>
<polygon fill="#666666" stroke="#666666" points="0.5,-77 0.5,-77 131.5,-77 131.5,-77 0.5,-77"/>
<polygon fill="#666666" stroke="#666666" points="0.5,-62 0.5,-62 37.5,-62 37.5,-62 0.5,-62"/>
<polygon fill="#666666" stroke="#666666" points="37.5,-62 37.5,-62 131.5,-62 131.5,-62 37.5,-62"/>
<polygon fill="none" stroke="#666666" points="0,0 0,-94 131,-94 131,0 0,0"/>
</a>
</g>
</g>
<!-- Node2 -->
<g id="Node000002" class="node">
<title>Node2</title>
<g id="a_Node000002"><a xlink:title=" ">
<polygon fill="white" stroke="transparent" points="109.5,-190 21.5,-190 21.5,-141 109.5,-141 109.5,-190"/>
<text text-anchor="start" x="26.5" y="-177.5" font-family="Helvetica,sans-Serif" font-size="10.00">std::string_view</text>
<text text-anchor="start" x="63.5" y="-162.5" font-family="Helvetica,sans-Serif" font-size="10.00"> </text>
<text text-anchor="start" x="63.5" y="-147.5" font-family="Helvetica,sans-Serif" font-size="10.00"> </text>
<polygon fill="#666666" stroke="#666666" points="21.5,-172.5 21.5,-172.5 109.5,-172.5 109.5,-172.5 21.5,-172.5"/>
<polygon fill="#666666" stroke="#666666" points="21.5,-157.5 21.5,-157.5 109.5,-157.5 109.5,-157.5 21.5,-157.5"/>
<polygon fill="none" stroke="#666666" points="21.5,-141 21.5,-190 109.5,-190 109.5,-141 21.5,-141"/>
</a>
</g>
</g>
<!-- Node2&#45;&gt;Node1 -->
<g id="edge1_Node000001_Node000002" class="edge">
<title>Node2&#45;&gt;Node1</title>
<g id="a_edge1_Node000001_Node000002"><a xlink:title=" ">
<path fill="none" stroke="#63b8ff" d="M65.5,-140.92C65.5,-130.85 65.5,-118.6 65.5,-106.35"/>
<polygon fill="none" stroke="#63b8ff" points="65.5,-106.17 61.5,-100.17 65.5,-94.17 69.5,-100.17 65.5,-106.17"/>
</a>
</g>
<text text-anchor="middle" x="85.5" y="-115" font-family="Helvetica,sans-Serif" font-size="10.00" fill="grey"> +name</text>
</g>
<!-- Node3 -->
<g id="Node000003" class="node">
<title>Node3</title>
<g id="a_Node000003"><a xlink:title=" ">
<polygon fill="white" stroke="transparent" points="125,-287 6,-287 6,-227 125,-227 125,-287"/>
<text text-anchor="start" x="11.5" y="-275" font-family="Helvetica,sans-Serif" font-size="10.00">std::basic_string_view</text>
<text text-anchor="start" x="43" y="-264" font-family="Helvetica,sans-Serif" font-size="10.00">&lt; Char &gt;</text>
<text text-anchor="start" x="64" y="-249" font-family="Helvetica,sans-Serif" font-size="10.00"> </text>
<text text-anchor="start" x="64" y="-234" font-family="Helvetica,sans-Serif" font-size="10.00"> </text>
<polygon fill="#666666" stroke="#666666" points="6.5,-259 6.5,-259 125.5,-259 125.5,-259 6.5,-259"/>
<polygon fill="#666666" stroke="#666666" points="6.5,-244 6.5,-244 125.5,-244 125.5,-244 6.5,-244"/>
<polygon fill="none" stroke="#666666" points="6,-227 6,-287 125,-287 125,-227 6,-227"/>
</a>
</g>
</g>
<!-- Node3&#45;&gt;Node2 -->
<g id="edge2_Node000002_Node000003" class="edge">
<title>Node3&#45;&gt;Node2</title>
<g id="a_edge2_Node000002_Node000003"><a xlink:title=" ">
<path fill="none" stroke="#63b8ff" d="M65.5,-216.41C65.5,-207.47 65.5,-198.25 65.5,-190.21"/>
<polygon fill="none" stroke="#63b8ff" points="62,-216.69 65.5,-226.69 69,-216.69 62,-216.69"/>
</a>
</g>
</g>
</g>
</svg>
