<?xml version="1.0" encoding="UTF-8" standalone="no"?>
<!DOCTYPE svg PUBLIC "-//W3C//DTD SVG 1.1//EN"
 "http://www.w3.org/Graphics/SVG/1.1/DTD/svg11.dtd">
<!-- Generated by graphviz version 2.43.0 (0)
 -->
<!-- Title: slick::orderbook::detail::PriceLevelL3 Pages: 1 -->
<svg width="173pt" height="810pt"
 viewBox="0.00 0.00 173.00 810.00" xmlns="http://www.w3.org/2000/svg" xmlns:xlink="http://www.w3.org/1999/xlink">
<g id="graph0" class="graph" transform="scale(1 1) rotate(0) translate(4 806)">
<title>slick::orderbook::detail::PriceLevelL3</title>
<!-- Node1 -->
<g id="Node000001" class="node">
<title>Node1</title>
<g id="a_Node000001"><a xlink:title="Price level for Level 3 orderbook (order&#45;by&#45;order) Maintains a queue of individual orders at this pri...">
<polygon fill="#999999" stroke="transparent" points="138,-255 6,-255 6,0 138,0 138,-255"/>
<text text-anchor="start" x="16" y="-242.5" font-family="Helvetica,sans-Serif" font-size="10.00">slick::orderbook::detail</text>
<text text-anchor="start" x="38" y="-231.5" font-family="Helvetica,sans-Serif" font-size="10.00">::PriceLevelL3</text>
<text text-anchor="start" x="10" y="-216.5" font-family="Helvetica,sans-Serif" font-size="10.00">+</text>
<text text-anchor="start" x="23" y="-216.5" font-family="Helvetica,sans-Serif" font-size="10.00">price</text>
<text text-anchor="start" x="10" y="-201.5" font-family="Helvetica,sans-Serif" font-size="10.00">+</text>
<text text-anchor="start" x="23" y="-201.5" font-family="Helvetica,sans-Serif" font-size="10.00">total_quantity</text>
<text text-anchor="start" x="10" y="-186.5" font-family="Helvetica,sans-Serif" font-size="10.00">+</text>
<text text-anchor="start" x="23" y="-186.5" font-family="Helvetica,sans-Serif" font-size="10.00">PriceLevelL3()</text>
<text text-anchor="start" x="10" y="-171.5" font-family="Helvetica,sans-Serif" font-size="10.00">+</text>
<text text-anchor="start" x="23" y="-171.5" font-family="Helvetica,sans-Serif" font-size="10.00">getTotalQuantity()</text>
<text text-anchor="start" x="10" y="-156.5" font-family="Helvetica,sans-Serif" font-size="10.00">+</text>
<text text-anchor="start" x="23" y="-156.5" font-family="Helvetica,sans-Serif" font-size="10.00">orderCount()</text>
<text text-anchor="start" x="10" y="-141.5" font-family="Helvetica,sans-Serif" font-size="10.00">+</text>
<text text-anchor="start" x="23" y="-141.5" font-family="Helvetica,sans-Serif" font-size="10.00">isEmpty()</text>
<text text-anchor="start" x="10" y="-126.5" font-family="Helvetica,sans-Serif" font-size="10.00">+</text>
<text text-anchor="start" x="23" y="-126.5" font-family="Helvetica,sans-Serif" font-size="10.00">getBestOrder()</text>
<text text-anchor="start" x="10" y="-111.5" font-family="Helvetica,sans-Serif" font-size="10.00">+</text>
<text text-anchor="start" x="23" y="-111.5" font-family="Helvetica,sans-Serif" font-size="10.00">getBestOrder()</text>
<text text-anchor="start" x="10" y="-96.5" font-family="Helvetica,sans-Serif" font-size="10.00">+</text>
<text text-anchor="start" x="23" y="-96.5" font-family="Helvetica,sans-Serif" font-size="10.00">insertOrder()</text>
<text text-anchor="start" x="10" y="-81.5" font-family="Helvetica,sans-Serif" font-size="10.00">+</text>
<text text-anchor="start" x="23" y="-81.5" font-family="Helvetica,sans-Serif" font-size="10.00">removeOrder()</text>
<text text-anchor="start" x="10" y="-66.5" font-family="Helvetica,sans-Serif" font-size="10.00">+</text>
<text text-anchor="start" x="23" y="-66.5" font-family="Helvetica,sans-Serif" font-size="10.00">updateOrderQuantity()</text>
<text text-anchor="start" x="10" y="-51.5" font-family="Helvetica,sans-Serif" font-size="10.00">+</text>
<text text-anchor="start" x="23" y="-51.5" font-family="Helvetica,sans-Serif" font-size="10.00">operator==()</text>
<text text-anchor="start" x="10" y="-36.5" font-family="Helvetica,sans-Serif" font-size="10.00">+</text>
<text text-anchor="start" x="23" y="-36.5" font-family="Helvetica,sans-Serif" font-size="10.00">operator!=()</text>
<text text-anchor="start" x="10" y="-21.5" font-family="Helvetica,sans-Serif" font-size="10.00">+</text>
<text text-anchor="start" x="23" y="-21.5" font-family="Helvetica,sans-Serif" font-size="10.00">operator&lt;()</text>
<text text-anchor="start" x="10" y="-6.5" font-family="Helvetica,sans-Serif" font-size="10.00">+</text>
<text text-anchor="start" x="23" y="-6.5" font-family="Helvetica,sans-Serif" font-size="10.00">operator&gt;()</text>
<polygon fill="#666666" stroke="#666666" points="6,-226.5 6,-226.5 138,-226.5 138,-226.5 6,-226.5"/>
<polygon fill="#666666" stroke="#666666" points="6,-196.5 6,-196.5 21,-196.5 21,-196.5 6,-196.5"/>
<polygon fill="#666666" stroke="#666666" points="21,-196.5 21,-196.5 138,-196.5 138,-196.5 21,-196.5"/>
<polygon fill="none" stroke="#666666" points="6,0 6,-255 138,-255 138,0 6,0"/>
</a>
</g>
</g>
<!-- Node2 -->
<g id="Node000002" class="node">
<title>Node2</title>
<g id="a_Node000002"><a xlink:href="classslick_1_1orderbook_1_1detail_1_1IntrusiveList.html" target="_top" xlink:title=" ">
<polygon fill="white" stroke="transparent" points="144,-523 0,-523 0,-302 144,-302 144,-523"/>
<text text-anchor="start" x="5" y="-510.5" font-family="Helvetica,sans-Serif" font-size="10.00">slick::orderbook::detail</text>
<text text-anchor="start" x="5" y="-499.5" font-family="Helvetica,sans-Serif" font-size="10.00">::IntrusiveList&lt; slick</text>
<text text-anchor="start" x="5" y="-488.5" font-family="Helvetica,sans-Serif" font-size="10.00">::orderbook::detail::Order &gt;</text>
<text text-anchor="start" x="70" y="-473.5" font-family="Helvetica,sans-Serif" font-size="10.00"> </text>
<text text-anchor="start" x="15.5" y="-458.5" font-family="Helvetica,sans-Serif" font-size="10.00">+</text>
<text text-anchor="start" x="40" y="-458.5" font-family="Helvetica,sans-Serif" font-size="10.00">IntrusiveList()</text>
<text text-anchor="start" x="15.5" y="-443.5" font-family="Helvetica,sans-Serif" font-size="10.00">+</text>
<text text-anchor="start" x="40" y="-443.5" font-family="Helvetica,sans-Serif" font-size="10.00">IntrusiveList()</text>
<text text-anchor="start" x="15.5" y="-428.5" font-family="Helvetica,sans-Serif" font-size="10.00">+</text>
<text text-anchor="start" x="40" y="-428.5" font-family="Helvetica,sans-Serif" font-size="10.00">IntrusiveList()</text>
<text text-anchor="start" x="15.5" y="-413.5" font-family="Helvetica,sans-Serif" font-size="10.00">+</text>
<text text-anchor="start" x="40" y="-413.5" font-family="Helvetica,sans-Serif" font-size="10.00">~IntrusiveList()</text>
<text text-anchor="start" x="15.5" y="-398.5" font-family="Helvetica,sans-Serif" font-size="10.00">+</text>
<text text-anchor="start" x="40" y="-398.5" font-family="Helvetica,sans-Serif" font-size="10.00">operator=()</text>
<text text-anchor="start" x="15.5" y="-383.5" font-family="Helvetica,sans-Serif" font-size="10.00">+</text>
<text text-anchor="start" x="40" y="-383.5" font-family="Helvetica,sans-Serif" font-size="10.00">operator=()</text>
<text text-anchor="start" x="15.5" y="-368.5" font-family="Helvetica,sans-Serif" font-size="10.00">+</text>
<text text-anchor="start" x="40" y="-368.5" font-family="Helvetica,sans-Serif" font-size="10.00">empty()</text>
<text text-anchor="start" x="15.5" y="-353.5" font-family="Helvetica,sans-Serif" font-size="10.00">+</text>
<text text-anchor="start" x="40" y="-353.5" font-family="Helvetica,sans-Serif" font-size="10.00">size()</text>
<text text-anchor="start" x="15.5" y="-338.5" font-family="Helvetica,sans-Serif" font-size="10.00">+</text>
<text text-anchor="start" x="40" y="-338.5" font-family="Helvetica,sans-Serif" font-size="10.00">front()</text>
<text text-anchor="start" x="15.5" y="-323.5" font-family="Helvetica,sans-Serif" font-size="10.00">+</text>
<text text-anchor="start" x="40" y="-323.5" font-family="Helvetica,sans-Serif" font-size="10.00">front()</text>
<text text-anchor="start" x="40" y="-308.5" font-family="Helvetica,sans-Serif" font-size="10.00">and 16 more...</text>
<polygon fill="#666666" stroke="#666666" points="0,-483.5 0,-483.5 144,-483.5 144,-483.5 0,-483.5"/>
<polygon fill="#666666" stroke="#666666" points="0,-468.5 0,-468.5 144,-468.5 144,-468.5 0,-468.5"/>
<polygon fill="none" stroke="#666666" points="0,-302 0,-523 144,-523 144,-302 0,-302"/>
</a>
</g>
</g>
<!-- Node2&#45;&gt;Node1 -->
<g id="edge1_Node000001_Node000002" class="edge">
<title>Node2&#45;&gt;Node1</title>
<g id="a_edge1_Node000001_Node000002"><a xlink:title=" ">
<path fill="none" stroke="#63b8ff" d="M72,-301.68C72,-290.38 72,-278.79 72,-267.23"/>
<polygon fill="none" stroke="#63b8ff" points="72,-267.21 68,-261.21 72,-255.21 76,-261.21 72,-267.21"/>
</a>
</g>
<text text-anchor="middle" x="93.5" y="-276" font-family="Helvetica,sans-Serif" font-size="10.00" fill="grey"> +orders</text>
</g>
<!-- Node3 -->
<g id="Node000003" class="node">
<title>Node3</title>
<g id="a_Node000003"><a xlink:href="classslick_1_1orderbook_1_1detail_1_1IntrusiveList.html" target="_top" xlink:title="Intrusive doubly&#45;linked list for zero&#45;allocation order management.">
<polygon fill="white" stroke="transparent" points="142,-802 2,-802 2,-581 142,-581 142,-802"/>
<text text-anchor="start" x="7" y="-789.5" font-family="Helvetica,sans-Serif" font-size="10.00">slick::orderbook::detail</text>
<text text-anchor="start" x="7" y="-778.5" font-family="Helvetica,sans-Serif" font-size="10.00">::IntrusiveList&lt; T, NextPtr,</text>
<text text-anchor="start" x="47" y="-767.5" font-family="Helvetica,sans-Serif" font-size="10.00"> PrevPtr &gt;</text>
<text text-anchor="start" x="70" y="-752.5" font-family="Helvetica,sans-Serif" font-size="10.00"> </text>
<text text-anchor="start" x="16.5" y="-737.5" font-family="Helvetica,sans-Serif" font-size="10.00">+</text>
<text text-anchor="start" x="40" y="-737.5" font-family="Helvetica,sans-Serif" font-size="10.00">IntrusiveList()</text>
<text text-anchor="start" x="16.5" y="-722.5" font-family="Helvetica,sans-Serif" font-size="10.00">+</text>
<text text-anchor="start" x="40" y="-722.5" font-family="Helvetica,sans-Serif" font-size="10.00">~IntrusiveList()</text>
<text text-anchor="start" x="16.5" y="-707.5" font-family="Helvetica,sans-Serif" font-size="10.00">+</text>
<text text-anchor="start" x="40" y="-707.5" font-family="Helvetica,sans-Serif" font-size="10.00">IntrusiveList()</text>
<text text-anchor="start" x="16.5" y="-692.5" font-family="Helvetica,sans-Serif" font-size="10.00">+</text>
<text text-anchor="start" x="40" y="-692.5" font-family="Helvetica,sans-Serif" font-size="10.00">operator=()</text>
<text text-anchor="start" x="16.5" y="-677.5" font-family="Helvetica,sans-Serif" font-size="10.00">+</text>
<text text-anchor="start" x="40" y="-677.5" font-family="Helvetica,sans-Serif" font-size="10.00">IntrusiveList()</text>
<text text-anchor="start" x="16.5" y="-662.5" font-family="Helvetica,sans-Serif" font-size="10.00">+</text>
<text text-anchor="start" x="40" y="-662.5" font-family="Helvetica,sans-Serif" font-size="10.00">operator=()</text>
<text text-anchor="start" x="16.5" y="-647.5" font-family="Helvetica,sans-Serif" font-size="10.00">+</text>
<text text-anchor="start" x="40" y="-647.5" font-family="Helvetica,sans-Serif" font-size="10.00">empty()</text>
<text text-anchor="start" x="16.5" y="-632.5" font-family="Helvetica,sans-Serif" font-size="10.00">+</text>
<text text-anchor="start" x="40" y="-632.5" font-family="Helvetica,sans-Serif" font-size="10.00">size()</text>
<text text-anchor="start" x="16.5" y="-617.5" font-family="Helvetica,sans-Serif" font-size="10.00">+</text>
<text text-anchor="start" x="40" y="-617.5" font-family="Helvetica,sans-Serif" font-size="10.00">front()</text>
<text text-anchor="start" x="16.5" y="-602.5" font-family="Helvetica,sans-Serif" font-size="10.00">+</text>
<text text-anchor="start" x="40" y="-602.5" font-family="Helvetica,sans-Serif" font-size="10.00">front()</text>
<text text-anchor="start" x="40" y="-587.5" font-family="Helvetica,sans-Serif" font-size="10.00">and 16 more...</text>
<polygon fill="#666666" stroke="#666666" points="2,-762.5 2,-762.5 142,-762.5 142,-762.5 2,-762.5"/>
<polygon fill="#666666" stroke="#666666" points="2,-747.5 2,-747.5 142,-747.5 142,-747.5 2,-747.5"/>
<polygon fill="none" stroke="#666666" points="2,-581 2,-802 142,-802 142,-581 2,-581"/>
</a>
</g>
</g>
<!-- Node3&#45;&gt;Node2 -->
<g id="edge2_Node000002_Node000003" class="edge">
<title>Node3&#45;&gt;Node2</title>
<g id="a_edge2_Node000002_Node000003"><a xlink:title=" ">
<path fill="none" stroke="orange" d="M72,-570.38C72,-554.72 72,-538.73 72,-523.24"/>
<polygon fill="orange" stroke="orange" points="68.5,-570.62 72,-580.62 75.5,-570.62 68.5,-570.62"/>
</a>
</g>
<text text-anchor="start" x="72" y="-555" font-family="Helvetica,sans-Serif" font-size="10.00" fill="grey"> &lt; slick::orderbook</text>
<text text-anchor="middle" x="118.5" y="-544" font-family="Helvetica,sans-Serif" font-size="10.00" fill="grey">::detail::Order &gt;</text>
</g>
</g>
</svg>
