<?xml version="1.0" encoding="UTF-8" standalone="no"?>
<!DOCTYPE svg PUBLIC "-//W3C//DTD SVG 1.1//EN"
 "http://www.w3.org/Graphics/SVG/1.1/DTD/svg11.dtd">
<!-- Generated by graphviz version 2.43.0 (0)
 -->
<!-- Title: slick/orderbook/types.hpp Pages: 1 -->
<!--zoomable 346 -->

<svg id="main" version="1.1" xmlns="http://www.w3.org/2000/svg" xmlns:xlink="http://www.w3.org/1999/xlink" xml:space="preserve" onload="init(evt)">
<style type="text/css"><![CDATA[
.node, .edge {opacity: 0.7;}
.node.selected, .edge.selected {opacity: 1;}
.edge:hover path { stroke: red; }
.edge:hover polygon { stroke: red; fill: red; }
]]></style>

<defs>
  <circle id="rim" cx="0" cy="0" r="7"/>
  <circle id="rim2" cx="0" cy="0" r="3.5"/>
  <g id="zoomPlus">
    <use xlink:href="#rim" fill="#404040"><set attributeName="fill" to="#808080" begin="zoomplus.mouseover" end="zoomplus.mouseout"/></use>
    <path d="M-4,0h8M0,-4v8" fill="none" stroke="white" stroke-width="1.5" pointer-events="none"/>
  </g>
  <g id="zoomMin">
    <use xlink:href="#rim" fill="#404040"><set attributeName="fill" to="#808080" begin="zoomminus.mouseover" end="zoomminus.mouseout"/></use>
    <path d="M-4,0h8" fill="none" stroke="white" stroke-width="1.5" pointer-events="none"/>
  </g>
  <g id="arrowUp" transform="translate(30 24)">
    <use xlink:href="#rim"/>
    <path pointer-events="none" fill="none" stroke="white" stroke-width="1.5" d="M0,-3.0v7 M-2.5,-0.5L0,-3.0L2.5,-0.5"/>
  </g>
  <g id="arrowRight" transform="rotate(90) translate(36 -43)">
    <use xlink:href="#rim"/>
    <path pointer-events="none" fill="none" stroke="white" stroke-width="1.5" d="M0,-3.0v7 M-2.5,-0.5L0,-3.0L2.5,-0.5"/>
  </g>
  <g id="arrowDown" transform="rotate(180) translate(-30 -48)">
    <use xlink:href="#rim"/>
    <path pointer-events="none" fill="none" stroke="white" stroke-width="1.5" d="M0,-3.0v7 M-2.5,-0.5L0,-3.0L2.5,-0.5"/>
  </g>
  <g id="arrowLeft" transform="rotate(270) translate(-36 17)">
    <use xlink:href="#rim"/>
    <path pointer-events="none" fill="none" stroke="white" stroke-width="1.5" d="M0,-3.0v7 M-2.5,-0.5L0,-3.0L2.5,-0.5"/>
  </g>
  <g id="resetDef">
    <use xlink:href="#rim2" fill="#404040"><set attributeName="fill" to="#808080" begin="reset.mouseover" end="reset.mouseout"/></use>
  </g>
</defs>
<script type="application/ecmascript">
var viewWidth = 988;
var viewHeight = 346;
var sectionId = 'dynsection-1';
</script>
<script type="application/ecmascript" xlink:href="svg.min.js"/>
<svg id="graph" class="graph">
<g id="viewport">
<title>slick/orderbook/types.hpp</title>
<!-- Node1 -->
<g id="Node000001" class="node">
<title>Node1</title>
<g id="a_Node000001"><a xlink:title=" ">
<polygon fill="#999999" stroke="#666666" points="581.65,-338 438.65,-338 438.65,-319 581.65,-319 581.65,-338"/>
<text text-anchor="middle" x="510.15" y="-326" font-family="Helvetica,sans-Serif" font-size="10.00">slick/orderbook/types.hpp</text>
</a>
</g>
</g>
<!-- Node2 -->
<g id="Node000002" class="node">
<title>Node2</title>
<g id="a_Node000002"><a xlink:href="concepts_8hpp.html" target="_top" xlink:title=" ">
<polygon fill="white" stroke="#666666" points="188.65,-277.5 29.65,-277.5 29.65,-258.5 188.65,-258.5 188.65,-277.5"/>
<text text-anchor="middle" x="109.15" y="-265.5" font-family="Helvetica,sans-Serif" font-size="10.00">slick/orderbook/concepts.hpp</text>
</a>
</g>
</g>
<!-- Node1&#45;&gt;Node2 -->
<g id="edge1_Node000001_Node000002" class="edge">
<title>Node1&#45;&gt;Node2</title>
<g id="a_edge1_Node000001_Node000002"><a xlink:title=" ">
<path fill="none" stroke="#63b8ff" d="M438.28,-317.55C375.02,-308.72 280.42,-295.34 198.15,-283 186.71,-281.28 174.44,-279.39 162.79,-277.56"/>
<polygon fill="#63b8ff" stroke="#63b8ff" points="438.16,-321.06 448.55,-318.98 439.13,-314.13 438.16,-321.06"/>
</a>
</g>
</g>
<!-- Node4 -->
<g id="Node000004" class="node">
<title>Node4</title>
<g id="a_Node000004"><a xlink:href="orderbook_8hpp.html" target="_top" xlink:title=" ">
<polygon fill="white" stroke="#666666" points="282.65,-19 117.65,-19 117.65,0 282.65,0 282.65,-19"/>
<text text-anchor="middle" x="200.15" y="-7" font-family="Helvetica,sans-Serif" font-size="10.00">slick/orderbook/orderbook.hpp</text>
</a>
</g>
</g>
<!-- Node1&#45;&gt;Node4 -->
<g id="edge31_Node000001_Node000004" class="edge">
<title>Node1&#45;&gt;Node4</title>
<g id="a_edge31_Node000001_Node000004"><a xlink:title=" ">
<path fill="none" stroke="#63b8ff" d="M428.53,-325.21C297.35,-320.77 51.21,-309.05 21.15,-283 -6.46,-259.06 2.15,-239.54 2.15,-203 2.15,-203 2.15,-203 2.15,-135 2.15,-64.55 93.1,-32.41 151.72,-19.01"/>
<polygon fill="#63b8ff" stroke="#63b8ff" points="428.43,-328.71 438.54,-325.54 428.66,-321.71 428.43,-328.71"/>
</a>
</g>
</g>
<!-- Node5 -->
<g id="Node000005" class="node">
<title>Node5</title>
<g id="a_Node000005"><a xlink:href="orderbook__l2_8hpp.html" target="_top" xlink:title=" ">
<polygon fill="white" stroke="#666666" points="455.15,-151 311.15,-151 311.15,-121 455.15,-121 455.15,-151"/>
<text text-anchor="start" x="319.15" y="-139" font-family="Helvetica,sans-Serif" font-size="10.00">slick/orderbook/orderbook</text>
<text text-anchor="middle" x="383.15" y="-128" font-family="Helvetica,sans-Serif" font-size="10.00">_l2.hpp</text>
</a>
</g>
</g>
<!-- Node1&#45;&gt;Node5 -->
<g id="edge32_Node000001_Node000005" class="edge">
<title>Node1&#45;&gt;Node5</title>
<g id="a_edge32_Node000001_Node000005"><a xlink:title=" ">
<path fill="none" stroke="#63b8ff" d="M477.07,-314.73C461.51,-307.37 443.67,-296.82 431.15,-283 396.23,-244.43 386.66,-179.91 384.08,-151.35"/>
<polygon fill="#63b8ff" stroke="#63b8ff" points="475.84,-318.01 486.4,-318.9 478.69,-311.62 475.84,-318.01"/>
</a>
</g>
</g>
<!-- Node6 -->
<g id="Node000006" class="node">
<title>Node6</title>
<g id="a_Node000006"><a xlink:href="orderbook__manager_8hpp.html" target="_top" xlink:title=" ">
<polygon fill="white" stroke="#666666" points="505.15,-85 361.15,-85 361.15,-55 505.15,-55 505.15,-85"/>
<text text-anchor="start" x="369.15" y="-73" font-family="Helvetica,sans-Serif" font-size="10.00">slick/orderbook/orderbook</text>
<text text-anchor="middle" x="433.15" y="-62" font-family="Helvetica,sans-Serif" font-size="10.00">_manager.hpp</text>
</a>
</g>
</g>
<!-- Node1&#45;&gt;Node6 -->
<g id="edge34_Node000001_Node000006" class="edge">
<title>Node1&#45;&gt;Node6</title>
<g id="a_edge34_Node000001_Node000006"><a xlink:title=" ">
<path fill="none" stroke="#63b8ff" d="M544.27,-314.54C557.99,-307.44 572.38,-297.15 580.15,-283 586.57,-271.31 582.29,-266.16 580.15,-253 575.2,-222.48 574.9,-212.99 558.15,-187 529.94,-143.19 481.44,-104.79 453.88,-85.07"/>
<polygon fill="#63b8ff" stroke="#63b8ff" points="542.5,-311.51 534.96,-318.95 545.5,-317.83 542.5,-311.51"/>
</a>
</g>
</g>
<!-- Node7 -->
<g id="Node000007" class="node">
<title>Node7</title>
<g id="a_Node000007"><a xlink:href="orderbook__l3_8hpp.html" target="_top" xlink:title=" ">
<polygon fill="white" stroke="#666666" points="771.15,-151 627.15,-151 627.15,-121 771.15,-121 771.15,-151"/>
<text text-anchor="start" x="635.15" y="-139" font-family="Helvetica,sans-Serif" font-size="10.00">slick/orderbook/orderbook</text>
<text text-anchor="middle" x="699.15" y="-128" font-family="Helvetica,sans-Serif" font-size="10.00">_l3.hpp</text>
</a>
</g>
</g>
<!-- Node1&#45;&gt;Node7 -->
<g id="edge33_Node000001_Node000007" class="edge">
<title>Node1&#45;&gt;Node7</title>
<g id="a_edge33_Node000001_Node000007"><a xlink:title=" ">
<path fill="none" stroke="#63b8ff" d="M591.86,-326.48C664.58,-323.41 772.94,-313.47 862.15,-283 916.83,-264.33 945.49,-267.17 974.15,-217 980.77,-205.42 982.7,-197.24 974.15,-187 948.77,-156.59 843.93,-144.63 771.3,-139.96"/>
<polygon fill="#63b8ff" stroke="#63b8ff" points="591.7,-322.99 581.84,-326.87 591.97,-329.98 591.7,-322.99"/>
</a>
</g>
</g>
<!-- Node8 -->
<g id="Node000008" class="node">
<title>Node8</title>
<g id="a_Node000008"><a xlink:href="level__container_8hpp.html" target="_top" xlink:title=" ">
<polygon fill="white" stroke="#666666" points="533.15,-217 411.15,-217 411.15,-187 533.15,-187 533.15,-217"/>
<text text-anchor="start" x="419.15" y="-205" font-family="Helvetica,sans-Serif" font-size="10.00">slick/orderbook/detail</text>
<text text-anchor="middle" x="472.15" y="-194" font-family="Helvetica,sans-Serif" font-size="10.00">/level_container.hpp</text>
</a>
</g>
</g>
<!-- Node1&#45;&gt;Node8 -->
<g id="edge12_Node000001_Node000008" class="edge">
<title>Node1&#45;&gt;Node8</title>
<g id="a_edge12_Node000001_Node000008"><a xlink:title=" ">
<path fill="none" stroke="#63b8ff" d="M476.04,-314.54C462.32,-307.44 447.93,-297.15 440.15,-283 428.06,-260.97 445.62,-233.4 459.12,-217.05"/>
<polygon fill="#63b8ff" stroke="#63b8ff" points="474.81,-317.83 485.34,-318.95 477.81,-311.51 474.81,-317.83"/>
</a>
</g>
</g>
<!-- Node9 -->
<g id="Node000009" class="node">
<title>Node9</title>
<g id="a_Node000009"><a xlink:href="order_8hpp.html" target="_top" xlink:title=" ">
<polygon fill="white" stroke="#666666" points="821.15,-283 699.15,-283 699.15,-253 821.15,-253 821.15,-283"/>
<text text-anchor="start" x="707.15" y="-271" font-family="Helvetica,sans-Serif" font-size="10.00">slick/orderbook/detail</text>
<text text-anchor="middle" x="760.15" y="-260" font-family="Helvetica,sans-Serif" font-size="10.00">/order.hpp</text>
</a>
</g>
</g>
<!-- Node1&#45;&gt;Node9 -->
<g id="edge14_Node000001_Node000009" class="edge">
<title>Node1&#45;&gt;Node9</title>
<g id="a_edge14_Node000001_Node000009"><a xlink:title=" ">
<path fill="none" stroke="#63b8ff" d="M556.37,-316.68C596.85,-307.21 655.92,-293.39 700.05,-283.06"/>
<polygon fill="#63b8ff" stroke="#63b8ff" points="555.45,-313.31 546.51,-318.99 557.04,-320.12 555.45,-313.31"/>
</a>
</g>
</g>
<!-- Node10 -->
<g id="Node000010" class="node">
<title>Node10</title>
<g id="a_Node000010"><a xlink:href="order__map_8hpp.html" target="_top" xlink:title=" ">
<polygon fill="white" stroke="#666666" points="965.15,-217 843.15,-217 843.15,-187 965.15,-187 965.15,-217"/>
<text text-anchor="start" x="851.15" y="-205" font-family="Helvetica,sans-Serif" font-size="10.00">slick/orderbook/detail</text>
<text text-anchor="middle" x="904.15" y="-194" font-family="Helvetica,sans-Serif" font-size="10.00">/order_map.hpp</text>
</a>
</g>
</g>
<!-- Node1&#45;&gt;Node10 -->
<g id="edge20_Node000001_Node000010" class="edge">
<title>Node1&#45;&gt;Node10</title>
<g id="a_edge20_Node000001_Node000010"><a xlink:title=" ">
<path fill="none" stroke="#63b8ff" d="M591.87,-322.39C672.68,-316.24 789.92,-304.01 830.15,-283 859.67,-267.59 883.58,-235.55 895.64,-217.04"/>
<polygon fill="#63b8ff" stroke="#63b8ff" points="591.42,-318.92 581.71,-323.15 591.94,-325.9 591.42,-318.92"/>
</a>
</g>
</g>
<!-- Node11 -->
<g id="Node000011" class="node">
<title>Node11</title>
<g id="a_Node000011"><a xlink:href="price__level__l3_8hpp.html" target="_top" xlink:title=" ">
<polygon fill="white" stroke="#666666" points="787.15,-217 665.15,-217 665.15,-187 787.15,-187 787.15,-217"/>
<text text-anchor="start" x="673.15" y="-205" font-family="Helvetica,sans-Serif" font-size="10.00">slick/orderbook/detail</text>
<text text-anchor="middle" x="726.15" y="-194" font-family="Helvetica,sans-Serif" font-size="10.00">/price_level_l3.hpp</text>
</a>
</g>
</g>
<!-- Node1&#45;&gt;Node11 -->
<g id="edge25_Node000001_Node000011" class="edge">
<title>Node1&#45;&gt;Node11</title>
<g id="a_edge25_Node000001_Node000011"><a xlink:title=" ">
<path fill="none" stroke="#63b8ff" d="M543.3,-315.22C563.91,-307.09 590.68,-295.63 613.15,-283 648.78,-262.98 686.92,-234.27 708.53,-217.24"/>
<polygon fill="#63b8ff" stroke="#63b8ff" points="541.78,-312.06 533.72,-318.93 544.31,-318.58 541.78,-312.06"/>
</a>
</g>
</g>
<!-- Node12 -->
<g id="Node000012" class="node">
<title>Node12</title>
<g id="a_Node000012"><a xlink:href="price__level__l2_8hpp.html" target="_top" xlink:title=" ">
<polygon fill="white" stroke="#666666" points="571.15,-283 449.15,-283 449.15,-253 571.15,-253 571.15,-283"/>
<text text-anchor="start" x="457.15" y="-271" font-family="Helvetica,sans-Serif" font-size="10.00">slick/orderbook/detail</text>
<text text-anchor="middle" x="510.15" y="-260" font-family="Helvetica,sans-Serif" font-size="10.00">/price_level_l2.hpp</text>
</a>
</g>
</g>
<!-- Node1&#45;&gt;Node12 -->
<g id="edge21_Node000001_Node000012" class="edge">
<title>Node1&#45;&gt;Node12</title>
<g id="a_edge21_Node000001_Node000012"><a xlink:title=" ">
<path fill="none" stroke="#63b8ff" d="M510.15,-308.65C510.15,-300.36 510.15,-290.78 510.15,-283.11"/>
<polygon fill="#63b8ff" stroke="#63b8ff" points="506.65,-308.87 510.15,-318.87 513.65,-308.87 506.65,-308.87"/>
</a>
</g>
</g>
<!-- Node13 -->
<g id="Node000013" class="node">
<title>Node13</title>
<g id="a_Node000013"><a xlink:href="events_8hpp.html" target="_top" xlink:title=" ">
<polygon fill="white" stroke="#666666" points="355.65,-277.5 206.65,-277.5 206.65,-258.5 355.65,-258.5 355.65,-277.5"/>
<text text-anchor="middle" x="281.15" y="-265.5" font-family="Helvetica,sans-Serif" font-size="10.00">slick/orderbook/events.hpp</text>
</a>
</g>
</g>
<!-- Node1&#45;&gt;Node13 -->
<g id="edge26_Node000001_Node000013" class="edge">
<title>Node1&#45;&gt;Node13</title>
<g id="a_edge26_Node000001_Node000013"><a xlink:title=" ">
<path fill="none" stroke="#63b8ff" d="M466.96,-316.47C422.69,-305.16 354.79,-287.81 314.49,-277.52"/>
<polygon fill="#63b8ff" stroke="#63b8ff" points="466.3,-319.91 476.85,-318.99 468.03,-313.13 466.3,-319.91"/>
</a>
</g>
</g>
<!-- Node3 -->
<g id="Node000003" class="node">
<title>Node3</title>
<g id="a_Node000003"><a xlink:href="observer_8hpp.html" target="_top" xlink:title=" ">
<polygon fill="white" stroke="#666666" points="279.15,-211.5 121.15,-211.5 121.15,-192.5 279.15,-192.5 279.15,-211.5"/>
<text text-anchor="middle" x="200.15" y="-199.5" font-family="Helvetica,sans-Serif" font-size="10.00">slick/orderbook/observer.hpp</text>
</a>
</g>
</g>
<!-- Node2&#45;&gt;Node3 -->
<g id="edge2_Node000002_Node000003" class="edge">
<title>Node2&#45;&gt;Node3</title>
<g id="a_edge2_Node000002_Node000003"><a xlink:title=" ">
<path fill="none" stroke="#63b8ff" d="M130.01,-252.33C147.85,-239.78 172.95,-222.13 187.78,-211.7"/>
<polygon fill="#63b8ff" stroke="#63b8ff" points="127.59,-249.75 121.43,-258.37 131.62,-255.48 127.59,-249.75"/>
</a>
</g>
</g>
<!-- Node2&#45;&gt;Node4 -->
<g id="edge11_Node000002_Node000004" class="edge">
<title>Node2&#45;&gt;Node4</title>
<g id="a_edge11_Node000002_Node000004"><a xlink:title=" ">
<path fill="none" stroke="#63b8ff" d="M102.69,-248.57C99.76,-239.24 96.62,-227.66 95.15,-217 92.86,-200.27 92.63,-135.42 96.15,-121 103.93,-89.14 107.11,-79.28 129.15,-55 143.63,-39.06 165.1,-26.68 180.63,-19.07"/>
<polygon fill="#63b8ff" stroke="#63b8ff" points="99.45,-249.92 105.93,-258.3 106.1,-247.71 99.45,-249.92"/>
</a>
</g>
</g>
<!-- Node3&#45;&gt;Node4 -->
<g id="edge3_Node000003_Node000004" class="edge">
<title>Node3&#45;&gt;Node4</title>
<g id="a_edge3_Node000003_Node000004"><a xlink:title=" ">
<path fill="none" stroke="#63b8ff" d="M200.15,-182.25C200.15,-141.93 200.15,-48.25 200.15,-19.23"/>
<polygon fill="#63b8ff" stroke="#63b8ff" points="196.65,-182.32 200.15,-192.32 203.65,-182.32 196.65,-182.32"/>
</a>
</g>
</g>
<!-- Node3&#45;&gt;Node5 -->
<g id="edge4_Node000003_Node000005" class="edge">
<title>Node3&#45;&gt;Node5</title>
<g id="a_edge4_Node000003_Node000005"><a xlink:title=" ">
<path fill="none" stroke="#63b8ff" d="M234.67,-188.93C265.41,-178.18 310.4,-162.44 342.79,-151.12"/>
<polygon fill="#63b8ff" stroke="#63b8ff" points="233.12,-185.76 224.83,-192.37 235.43,-192.37 233.12,-185.76"/>
</a>
</g>
</g>
<!-- Node3&#45;&gt;Node7 -->
<g id="edge8_Node000003_Node000007" class="edge">
<title>Node3&#45;&gt;Node7</title>
<g id="a_edge8_Node000003_Node000007"><a xlink:title=" ">
<path fill="none" stroke="#63b8ff" d="M276.83,-191.17C372.21,-178.93 533.82,-158.2 627.03,-146.25"/>
<polygon fill="#63b8ff" stroke="#63b8ff" points="276.15,-187.72 266.67,-192.47 277.04,-194.67 276.15,-187.72"/>
</a>
</g>
</g>
<!-- Node5&#45;&gt;Node4 -->
<g id="edge5_Node000005_Node000004" class="edge">
<title>Node5&#45;&gt;Node4</title>
<g id="a_edge5_Node000005_Node000004"><a xlink:title=" ">
<path fill="none" stroke="#63b8ff" d="M354.13,-115.26C313.61,-87.69 241.79,-38.83 212.81,-19.11"/>
<polygon fill="#63b8ff" stroke="#63b8ff" points="352.28,-118.23 362.52,-120.96 356.22,-112.44 352.28,-118.23"/>
</a>
</g>
</g>
<!-- Node5&#45;&gt;Node6 -->
<g id="edge6_Node000005_Node000006" class="edge">
<title>Node5&#45;&gt;Node6</title>
<g id="a_edge6_Node000005_Node000006"><a xlink:title=" ">
<path fill="none" stroke="#63b8ff" d="M400.49,-112.81C407.66,-103.64 415.75,-93.28 422.09,-85.16"/>
<polygon fill="#63b8ff" stroke="#63b8ff" points="397.65,-110.76 394.25,-120.8 403.16,-115.07 397.65,-110.76"/>
</a>
</g>
</g>
<!-- Node6&#45;&gt;Node4 -->
<g id="edge7_Node000006_Node000004" class="edge">
<title>Node6&#45;&gt;Node4</title>
<g id="a_edge7_Node000006_Node000004"><a xlink:title=" ">
<path fill="none" stroke="#63b8ff" d="M367.44,-52.5C324.09,-41.62 269.07,-27.8 234.22,-19.05"/>
<polygon fill="#63b8ff" stroke="#63b8ff" points="366.79,-55.95 377.34,-54.99 368.5,-49.16 366.79,-55.95"/>
</a>
</g>
</g>
<!-- Node7&#45;&gt;Node4 -->
<g id="edge9_Node000007_Node000004" class="edge">
<title>Node7&#45;&gt;Node4</title>
<g id="a_edge9_Node000007_Node000004"><a xlink:title=" ">
<path fill="none" stroke="#63b8ff" d="M663.48,-116.15C626.97,-97.69 568.11,-70.19 514.15,-55 437.31,-33.36 346.78,-21.96 282.72,-16.14"/>
<polygon fill="#63b8ff" stroke="#63b8ff" points="662.22,-119.44 672.71,-120.87 665.4,-113.2 662.22,-119.44"/>
</a>
</g>
</g>
<!-- Node7&#45;&gt;Node6 -->
<g id="edge10_Node000007_Node000006" class="edge">
<title>Node7&#45;&gt;Node6</title>
<g id="a_edge10_Node000007_Node000006"><a xlink:title=" ">
<path fill="none" stroke="#63b8ff" d="M630.92,-118.58C587.74,-108.19 532.51,-94.9 491.39,-85.01"/>
<polygon fill="#63b8ff" stroke="#63b8ff" points="630.24,-122.02 640.78,-120.95 631.87,-115.21 630.24,-122.02"/>
</a>
</g>
</g>
<!-- Node8&#45;&gt;Node5 -->
<g id="edge13_Node000008_Node000005" class="edge">
<title>Node8&#45;&gt;Node5</title>
<g id="a_edge13_Node000008_Node000005"><a xlink:title=" ">
<path fill="none" stroke="#63b8ff" d="M444,-180.75C430.61,-171.13 414.94,-159.86 402.85,-151.16"/>
<polygon fill="#63b8ff" stroke="#63b8ff" points="442.24,-183.8 452.4,-186.8 446.33,-178.12 442.24,-183.8"/>
</a>
</g>
</g>
<!-- Node9&#45;&gt;Node7 -->
<g id="edge19_Node000009_Node000007" class="edge">
<title>Node9&#45;&gt;Node7</title>
<g id="a_edge19_Node000009_Node000007"><a xlink:title=" ">
<path fill="none" stroke="#63b8ff" d="M781.61,-244.89C794.92,-228.4 807.49,-205.6 796.15,-187 785.85,-170.09 767.79,-158.66 750.03,-151.05"/>
<polygon fill="#63b8ff" stroke="#63b8ff" points="778.6,-243.03 774.71,-252.88 783.9,-247.6 778.6,-243.03"/>
</a>
</g>
</g>
<!-- Node9&#45;&gt;Node10 -->
<g id="edge15_Node000009_Node000010" class="edge">
<title>Node9&#45;&gt;Node10</title>
<g id="a_edge15_Node000009_Node000010"><a xlink:title=" ">
<path fill="none" stroke="#63b8ff" d="M801.14,-248.78C823.84,-238.69 851.63,-226.34 872.63,-217.01"/>
<polygon fill="#63b8ff" stroke="#63b8ff" points="799.47,-245.7 791.75,-252.95 802.31,-252.09 799.47,-245.7"/>
</a>
</g>
</g>
<!-- Node9&#45;&gt;Node11 -->
<g id="edge17_Node000009_Node000011" class="edge">
<title>Node9&#45;&gt;Node11</title>
<g id="a_edge17_Node000009_Node000011"><a xlink:title=" ">
<path fill="none" stroke="#63b8ff" d="M747.91,-243.96C743.16,-235 737.86,-225.03 733.68,-217.16"/>
<polygon fill="#63b8ff" stroke="#63b8ff" points="744.83,-245.61 752.61,-252.8 751.01,-242.32 744.83,-245.61"/>
</a>
</g>
</g>
<!-- Node10&#45;&gt;Node7 -->
<g id="edge16_Node000010_Node000007" class="edge">
<title>Node10&#45;&gt;Node7</title>
<g id="a_edge16_Node000010_Node000007"><a xlink:title=" ">
<path fill="none" stroke="#63b8ff" d="M849.24,-183.86C816.32,-173.58 774.99,-160.68 744.04,-151.01"/>
<polygon fill="#63b8ff" stroke="#63b8ff" points="848.58,-187.32 859.17,-186.95 850.66,-180.63 848.58,-187.32"/>
</a>
</g>
</g>
<!-- Node11&#45;&gt;Node7 -->
<g id="edge18_Node000011_Node000007" class="edge">
<title>Node11&#45;&gt;Node7</title>
<g id="a_edge18_Node000011_Node000007"><a xlink:title=" ">
<path fill="none" stroke="#63b8ff" d="M716.2,-177.39C712.48,-168.59 708.38,-158.86 705.13,-151.16"/>
<polygon fill="#63b8ff" stroke="#63b8ff" points="713.05,-178.94 720.16,-186.8 719.5,-176.22 713.05,-178.94"/>
</a>
</g>
</g>
<!-- Node12&#45;&gt;Node5 -->
<g id="edge23_Node000012_Node000005" class="edge">
<title>Node12&#45;&gt;Node5</title>
<g id="a_edge23_Node000012_Node000005"><a xlink:title=" ">
<path fill="none" stroke="#63b8ff" d="M530.28,-244.7C543.05,-227.75 554.97,-204.46 542.15,-187 522.12,-159.7 487.19,-146.91 455.16,-141.07"/>
<polygon fill="#63b8ff" stroke="#63b8ff" points="527.21,-242.94 523.65,-252.92 532.66,-247.34 527.21,-242.94"/>
</a>
</g>
</g>
<!-- Node12&#45;&gt;Node7 -->
<g id="edge24_Node000012_Node000007" class="edge">
<title>Node12&#45;&gt;Node7</title>
<g id="a_edge24_Node000012_Node000007"><a xlink:title=" ">
<path fill="none" stroke="#63b8ff" d="M539.44,-246.85C578.04,-220.31 644.95,-174.28 678.59,-151.14"/>
<polygon fill="#63b8ff" stroke="#63b8ff" points="537,-244.29 530.74,-252.84 540.96,-250.06 537,-244.29"/>
</a>
</g>
</g>
<!-- Node12&#45;&gt;Node8 -->
<g id="edge22_Node000012_Node000008" class="edge">
<title>Node12&#45;&gt;Node8</title>
<g id="a_edge22_Node000012_Node000008"><a xlink:title=" ">
<path fill="none" stroke="#63b8ff" d="M496.47,-243.96C491.16,-235 485.23,-225.03 480.56,-217.16"/>
<polygon fill="#63b8ff" stroke="#63b8ff" points="493.61,-245.98 501.72,-252.8 499.62,-242.41 493.61,-245.98"/>
</a>
</g>
</g>
<!-- Node13&#45;&gt;Node3 -->
<g id="edge27_Node000013_Node000003" class="edge">
<title>Node13&#45;&gt;Node3</title>
<g id="a_edge27_Node000013_Node000003"><a xlink:title=" ">
<path fill="none" stroke="#63b8ff" d="M262.15,-251.99C246.3,-239.46 224.25,-222.04 211.16,-211.7"/>
<polygon fill="#63b8ff" stroke="#63b8ff" points="260.21,-254.92 270.23,-258.37 264.55,-249.42 260.21,-254.92"/>
</a>
</g>
</g>
<!-- Node13&#45;&gt;Node4 -->
<g id="edge28_Node000013_Node000004" class="edge">
<title>Node13&#45;&gt;Node4</title>
<g id="a_edge28_Node000013_Node000004"><a xlink:title=" ">
<path fill="none" stroke="#63b8ff" d="M218.29,-256.46C175.81,-247.91 125.16,-234.42 112.15,-217 61.78,-149.56 159.06,-48.92 190.69,-19.11"/>
<polygon fill="#63b8ff" stroke="#63b8ff" points="217.84,-259.94 228.33,-258.42 219.19,-253.07 217.84,-259.94"/>
</a>
</g>
</g>
<!-- Node13&#45;&gt;Node5 -->
<g id="edge29_Node000013_Node000005" class="edge">
<title>Node13&#45;&gt;Node5</title>
<g id="a_edge29_Node000013_Node000005"><a xlink:title=" ">
<path fill="none" stroke="#63b8ff" d="M290.77,-248.9C300.07,-232.1 315.08,-206.8 331.15,-187 341.73,-173.97 355.48,-160.88 366.19,-151.37"/>
<polygon fill="#63b8ff" stroke="#63b8ff" points="287.45,-247.67 285.76,-258.13 293.6,-251.01 287.45,-247.67"/>
</a>
</g>
</g>
<!-- Node13&#45;&gt;Node7 -->
<g id="edge30_Node000013_Node000007" class="edge">
<title>Node13&#45;&gt;Node7</title>
<g id="a_edge30_Node000013_Node000007"><a xlink:title=" ">
<path fill="none" stroke="#63b8ff" d="M298.96,-251.71C321.44,-233.28 362.03,-202.82 402.15,-187 475.49,-158.09 565.44,-145.89 627.01,-140.75"/>
<polygon fill="#63b8ff" stroke="#63b8ff" points="296.44,-249.25 291.01,-258.35 300.93,-254.62 296.44,-249.25"/>
</a>
</g>
</g>
</g>
</svg>

<g id="navigator" transform="translate(0 0)" fill="#404254">
  <rect fill="#f2f5e9" fill-opacity="0.5" stroke="#606060" stroke-width=".5" x="0" y="0" width="60" height="60"/>
  <use id="zoomplus" xlink:href="#zoomPlus" x="17" y="9" onmousedown="handleZoom(evt,'in')"/>
  <use id="zoomminus" xlink:href="#zoomMin" x="42" y="9" onmousedown="handleZoom(evt,'out')"/>
  <use id="reset" xlink:href="#resetDef" x="30" y="36" onmousedown="handleReset()"/>
   <use id="arrowup" xlink:href="#arrowUp" x="0" y="0" onmousedown="handlePan(0,-1)"/>
  <use id="arrowright" xlink:href="#arrowRight" x="0" y="0" onmousedown="handlePan(1,0)"/>
  <use id="arrowdown" xlink:href="#arrowDown" x="0" y="0" onmousedown="handlePan(0,1)"/>
  <use id="arrowleft" xlink:href="#arrowLeft" x="0" y="0" onmousedown="handlePan(-1,0)"/>
</g>
<svg viewBox="0 0 15 15" width="100%" height="30px" preserveAspectRatio="xMaxYMin meet">
 <g id="arrow_out" transform="scale(0.3 0.3)">
  <a xlink:href="types_8hpp__dep__incl_org.svg" target="_base">
   <rect id="button" ry="5" rx="5" y="6" x="6" height="38" width="38"
        fill="#f2f5e9" fill-opacity="0.5" stroke="#606060" stroke-width="1.0"/>
   <path id="arrow"
     d="M 11.500037,31.436501 C 11.940474,20.09759 22.043105,11.32322 32.158766,21.979434 L 37.068811,17.246167 C 37.068811,17.246167 37.088388,32 37.088388,32 L 22.160133,31.978069 C 22.160133,31.978069 26.997745,27.140456 26.997745,27.140456 C 18.528582,18.264221 13.291696,25.230495 11.500037,31.436501 z"
     style="fill:#404040;"/>
  </a>
 </g>
</svg>

<style type='text/css'>
<![CDATA[
[data-mouse-over-selected='false'] { opacity: 0.7; }
[data-mouse-over-selected='true']  { opacity: 1.0; }
]]>
</style>
<script type="application/ecmascript"><![CDATA[
document.addEventListener('DOMContentLoaded', (event) => {
  highlightEdges();
  highlightAdjacentNodes();
});
]]></script>
</svg>
