<?xml version="1.0" encoding="UTF-8" standalone="no"?>
<!DOCTYPE svg PUBLIC "-//W3C//DTD SVG 1.1//EN"
 "http://www.w3.org/Graphics/SVG/1.1/DTD/svg11.dtd">
<!-- Generated by graphviz version 2.43.0 (0)
 -->
<!-- Title: slick/orderbook/types.hpp Pages: 1 -->
<svg width="486pt" height="324pt"
 viewBox="0.00 0.00 485.80 324.00" xmlns="http://www.w3.org/2000/svg" xmlns:xlink="http://www.w3.org/1999/xlink">

<svg id="main" version="1.1" xmlns="http://www.w3.org/2000/svg" xmlns:xlink="http://www.w3.org/1999/xlink" xml:space="preserve" onload="init(evt)">
<style type="text/css"><![CDATA[
.node, .edge {opacity: 0.7;}
.node.selected, .edge.selected {opacity: 1;}
.edge:hover path { stroke: red; }
.edge:hover polygon { stroke: red; fill: red; }
]]></style>
<script type="application/ecmascript" xlink:href="svg.min.js"/>
<svg id="graph" class="graph">
<g id="graph0" class="graph" transform="scale(1 1) rotate(0) translate(4 320)">
<title>slick/orderbook/types.hpp</title>
<!-- Node1 -->
<g id="Node000001" class="node">
<title>Node1</title>
<g id="a_Node000001"><a xlink:title=" ">
<polygon fill="#999999" stroke="#666666" points="402.33,-316 259.33,-316 259.33,-297 402.33,-297 402.33,-316"/>
<text text-anchor="middle" x="330.83" y="-304" font-family="Helvetica,sans-Serif" font-size="10.00">slick/orderbook/types.hpp</text>
</a>
</g>
</g>
<!-- Node2 -->
<g id="Node000002" class="node">
<title>Node2</title>
<g id="a_Node000002"><a xlink:href="concepts_8hpp.html" target="_top" xlink:title=" ">
<polygon fill="white" stroke="#666666" points="187.33,-261 28.33,-261 28.33,-242 187.33,-242 187.33,-261"/>
<text text-anchor="middle" x="107.83" y="-249" font-family="Helvetica,sans-Serif" font-size="10.00">slick/orderbook/concepts.hpp</text>
</a>
</g>
</g>
<!-- Node1&#45;&gt;Node2 -->
<g id="edge1_Node000001_Node000002" class="edge">
<title>Node1&#45;&gt;Node2</title>
<g id="a_edge1_Node000001_Node000002"><a xlink:title=" ">
<path fill="none" stroke="#63b8ff" d="M285.08,-294.63C243.31,-284.7 182.38,-270.22 143.94,-261.08"/>
<polygon fill="#63b8ff" stroke="#63b8ff" points="284.46,-298.08 295,-296.98 286.08,-291.27 284.46,-298.08"/>
</a>
</g>
</g>
<!-- Node4 -->
<g id="Node000004" class="node">
<title>Node4</title>
<g id="a_Node000004"><a xlink:href="orderbook_8hpp.html" target="_top" xlink:title=" ">
<polygon fill="white" stroke="#666666" points="201.33,-19 36.33,-19 36.33,0 201.33,0 201.33,-19"/>
<text text-anchor="middle" x="118.83" y="-7" font-family="Helvetica,sans-Serif" font-size="10.00">slick/orderbook/orderbook.hpp</text>
</a>
</g>
</g>
<!-- Node1&#45;&gt;Node4 -->
<g id="edge17_Node000001_Node000004" class="edge">
<title>Node1&#45;&gt;Node4</title>
<g id="a_edge17_Node000001_Node000004"><a xlink:title=" ">
<path fill="none" stroke="#63b8ff" d="M249.11,-303.56C168.71,-299.97 53.27,-289.8 19.83,-261 -2.49,-241.77 0.83,-226.96 0.83,-197.5 0.83,-197.5 0.83,-197.5 0.83,-135 0.83,-77.67 67.55,-36.16 100.65,-19.1"/>
<polygon fill="#63b8ff" stroke="#63b8ff" points="249.09,-307.06 259.23,-303.98 249.38,-300.07 249.09,-307.06"/>
</a>
</g>
</g>
<!-- Node5 -->
<g id="Node000005" class="node">
<title>Node5</title>
<g id="a_Node000005"><a xlink:href="orderbook__l2_8hpp.html" target="_top" xlink:title=" ">
<polygon fill="white" stroke="#666666" points="290.83,-151 146.83,-151 146.83,-121 290.83,-121 290.83,-151"/>
<text text-anchor="start" x="154.83" y="-139" font-family="Helvetica,sans-Serif" font-size="10.00">slick/orderbook/orderbook</text>
<text text-anchor="middle" x="218.83" y="-128" font-family="Helvetica,sans-Serif" font-size="10.00">_l2.hpp</text>
</a>
</g>
</g>
<!-- Node1&#45;&gt;Node5 -->
<g id="edge18_Node000001_Node000005" class="edge">
<title>Node1&#45;&gt;Node5</title>
<g id="a_edge18_Node000001_Node000005"><a xlink:title=" ">
<path fill="none" stroke="#63b8ff" d="M347.99,-289.78C359.78,-276.98 371.95,-258.42 363.83,-242 341.65,-197.14 290.02,-167.18 254.75,-151.12"/>
<polygon fill="#63b8ff" stroke="#63b8ff" points="345.45,-287.37 340.88,-296.93 350.41,-292.3 345.45,-287.37"/>
</a>
</g>
</g>
<!-- Node6 -->
<g id="Node000006" class="node">
<title>Node6</title>
<g id="a_Node000006"><a xlink:href="orderbook__manager_8hpp.html" target="_top" xlink:title=" ">
<polygon fill="white" stroke="#666666" points="346.83,-85 202.83,-85 202.83,-55 346.83,-55 346.83,-85"/>
<text text-anchor="start" x="210.83" y="-73" font-family="Helvetica,sans-Serif" font-size="10.00">slick/orderbook/orderbook</text>
<text text-anchor="middle" x="274.83" y="-62" font-family="Helvetica,sans-Serif" font-size="10.00">_manager.hpp</text>
</a>
</g>
</g>
<!-- Node1&#45;&gt;Node6 -->
<g id="edge20_Node000001_Node000006" class="edge">
<title>Node1&#45;&gt;Node6</title>
<g id="a_edge20_Node000001_Node000006"><a xlink:title=" ">
<path fill="none" stroke="#63b8ff" d="M365.48,-292.81C381.54,-285.51 399.9,-274.98 412.83,-261 457.59,-212.6 501.98,-173.29 461.83,-121 447.56,-102.41 393.31,-89.23 346.89,-81.09"/>
<polygon fill="#63b8ff" stroke="#63b8ff" points="363.66,-289.78 355.84,-296.93 366.41,-296.21 363.66,-289.78"/>
</a>
</g>
</g>
<!-- Node7 -->
<g id="Node000007" class="node">
<title>Node7</title>
<g id="a_Node000007"><a xlink:href="orderbook__l3_8hpp.html" target="_top" xlink:title=" ">
<polygon fill="white" stroke="#666666" points="452.83,-151 308.83,-151 308.83,-121 452.83,-121 452.83,-151"/>
<text text-anchor="start" x="316.83" y="-139" font-family="Helvetica,sans-Serif" font-size="10.00">slick/orderbook/orderbook</text>
<text text-anchor="middle" x="380.83" y="-128" font-family="Helvetica,sans-Serif" font-size="10.00">_l3.hpp</text>
</a>
</g>
</g>
<!-- Node1&#45;&gt;Node7 -->
<g id="edge19_Node000001_Node000007" class="edge">
<title>Node1&#45;&gt;Node7</title>
<g id="a_edge19_Node000001_Node000007"><a xlink:title=" ">
<path fill="none" stroke="#63b8ff" d="M362.11,-292.24C375,-285.03 388.59,-274.73 395.83,-261 414.74,-225.13 398.02,-175.5 387.63,-151.35"/>
<polygon fill="#63b8ff" stroke="#63b8ff" points="360.24,-289.27 352.95,-296.95 363.44,-295.49 360.24,-289.27"/>
</a>
</g>
</g>
<!-- Node8 -->
<g id="Node000008" class="node">
<title>Node8</title>
<g id="a_Node000008"><a xlink:href="events_8hpp.html" target="_top" xlink:title=" ">
<polygon fill="white" stroke="#666666" points="354.33,-261 205.33,-261 205.33,-242 354.33,-242 354.33,-261"/>
<text text-anchor="middle" x="279.83" y="-249" font-family="Helvetica,sans-Serif" font-size="10.00">slick/orderbook/events.hpp</text>
</a>
</g>
</g>
<!-- Node1&#45;&gt;Node8 -->
<g id="edge12_Node000001_Node000008" class="edge">
<title>Node1&#45;&gt;Node8</title>
<g id="a_edge12_Node000001_Node000008"><a xlink:title=" ">
<path fill="none" stroke="#63b8ff" d="M315.45,-289.52C306.46,-280.18 295.47,-268.75 288.09,-261.09"/>
<polygon fill="#63b8ff" stroke="#63b8ff" points="312.95,-291.97 322.41,-296.75 318,-287.12 312.95,-291.97"/>
</a>
</g>
</g>
<!-- Node3 -->
<g id="Node000003" class="node">
<title>Node3</title>
<g id="a_Node000003"><a xlink:href="observer_8hpp.html" target="_top" xlink:title=" ">
<polygon fill="white" stroke="#666666" points="266.83,-206 108.83,-206 108.83,-187 266.83,-187 266.83,-206"/>
<text text-anchor="middle" x="187.83" y="-194" font-family="Helvetica,sans-Serif" font-size="10.00">slick/orderbook/observer.hpp</text>
</a>
</g>
</g>
<!-- Node2&#45;&gt;Node3 -->
<g id="edge2_Node000002_Node000003" class="edge">
<title>Node2&#45;&gt;Node3</title>
<g id="a_edge2_Node000002_Node000003"><a xlink:title=" ">
<path fill="none" stroke="#63b8ff" d="M129.08,-236.42C143.59,-226.81 162.37,-214.37 174.74,-206.17"/>
<polygon fill="#63b8ff" stroke="#63b8ff" points="127.09,-233.54 120.68,-241.98 130.95,-239.38 127.09,-233.54"/>
</a>
</g>
</g>
<!-- Node2&#45;&gt;Node4 -->
<g id="edge11_Node000002_Node000004" class="edge">
<title>Node2&#45;&gt;Node4</title>
<g id="a_edge11_Node000002_Node000004"><a xlink:title=" ">
<path fill="none" stroke="#63b8ff" d="M88.26,-235.15C79.97,-227.41 71.23,-217.27 66.83,-206 42.42,-143.49 38.76,-115.96 66.83,-55 74.18,-39.03 90.42,-26.65 102.8,-19.05"/>
<polygon fill="#63b8ff" stroke="#63b8ff" points="86.06,-237.88 95.9,-241.8 90.65,-232.6 86.06,-237.88"/>
</a>
</g>
</g>
<!-- Node3&#45;&gt;Node4 -->
<g id="edge3_Node000003_Node000004" class="edge">
<title>Node3&#45;&gt;Node4</title>
<g id="a_edge3_Node000003_Node000004"><a xlink:title=" ">
<path fill="none" stroke="#63b8ff" d="M165.01,-180.81C155.02,-173.16 144.16,-162.9 137.83,-151 113.9,-106.02 116.25,-41.92 118.02,-19.03"/>
<polygon fill="#63b8ff" stroke="#63b8ff" points="163.26,-183.86 173.42,-186.84 167.34,-178.17 163.26,-183.86"/>
</a>
</g>
</g>
<!-- Node3&#45;&gt;Node5 -->
<g id="edge4_Node000003_Node000005" class="edge">
<title>Node3&#45;&gt;Node5</title>
<g id="a_edge4_Node000003_Node000005"><a xlink:title=" ">
<path fill="none" stroke="#63b8ff" d="M197.22,-177.78C201.75,-169.23 207.1,-159.13 211.35,-151.11"/>
<polygon fill="#63b8ff" stroke="#63b8ff" points="193.99,-176.39 192.4,-186.87 200.18,-179.67 193.99,-176.39"/>
</a>
</g>
</g>
<!-- Node3&#45;&gt;Node7 -->
<g id="edge8_Node000003_Node000007" class="edge">
<title>Node3&#45;&gt;Node7</title>
<g id="a_edge8_Node000003_Node000007"><a xlink:title=" ">
<path fill="none" stroke="#63b8ff" d="M225.52,-184.08C256.68,-174.63 301.08,-161.17 334.43,-151.06"/>
<polygon fill="#63b8ff" stroke="#63b8ff" points="224.45,-180.74 215.89,-186.99 226.48,-187.44 224.45,-180.74"/>
</a>
</g>
</g>
<!-- Node5&#45;&gt;Node4 -->
<g id="edge5_Node000005_Node000004" class="edge">
<title>Node5&#45;&gt;Node4</title>
<g id="a_edge5_Node000005_Node000004"><a xlink:title=" ">
<path fill="none" stroke="#63b8ff" d="M200.91,-112.69C178.45,-84.73 141.05,-38.17 125.71,-19.07"/>
<polygon fill="#63b8ff" stroke="#63b8ff" points="198.37,-115.11 207.36,-120.72 203.83,-110.73 198.37,-115.11"/>
</a>
</g>
</g>
<!-- Node5&#45;&gt;Node6 -->
<g id="edge6_Node000005_Node000006" class="edge">
<title>Node5&#45;&gt;Node6</title>
<g id="a_edge6_Node000005_Node000006"><a xlink:title=" ">
<path fill="none" stroke="#63b8ff" d="M238,-113.09C246.09,-103.85 255.27,-93.36 262.44,-85.16"/>
<polygon fill="#63b8ff" stroke="#63b8ff" points="235.21,-110.97 231.26,-120.8 240.48,-115.58 235.21,-110.97"/>
</a>
</g>
</g>
<!-- Node6&#45;&gt;Node4 -->
<g id="edge7_Node000006_Node000004" class="edge">
<title>Node6&#45;&gt;Node4</title>
<g id="a_edge7_Node000006_Node000004"><a xlink:title=" ">
<path fill="none" stroke="#63b8ff" d="M228.09,-51.47C199.61,-40.79 164.48,-27.62 141.87,-19.14"/>
<polygon fill="#63b8ff" stroke="#63b8ff" points="226.87,-54.75 237.46,-54.99 229.33,-48.2 226.87,-54.75"/>
</a>
</g>
</g>
<!-- Node7&#45;&gt;Node4 -->
<g id="edge9_Node000007_Node000004" class="edge">
<title>Node7&#45;&gt;Node4</title>
<g id="a_edge9_Node000007_Node000004"><a xlink:title=" ">
<path fill="none" stroke="#63b8ff" d="M379.69,-110.74C377.51,-92.75 371.57,-69 355.83,-55 333.19,-34.87 260.38,-23.27 201.37,-17"/>
<polygon fill="#63b8ff" stroke="#63b8ff" points="376.21,-111.17 380.6,-120.81 383.18,-110.54 376.21,-111.17"/>
</a>
</g>
</g>
<!-- Node7&#45;&gt;Node6 -->
<g id="edge10_Node000007_Node000006" class="edge">
<title>Node7&#45;&gt;Node6</title>
<g id="a_edge10_Node000007_Node000006"><a xlink:title=" ">
<path fill="none" stroke="#63b8ff" d="M348.86,-115.69C332.49,-105.82 312.94,-94.01 298.04,-85.01"/>
<polygon fill="#63b8ff" stroke="#63b8ff" points="347.2,-118.78 357.57,-120.95 350.82,-112.79 347.2,-118.78"/>
</a>
</g>
</g>
<!-- Node8&#45;&gt;Node3 -->
<g id="edge13_Node000008_Node000003" class="edge">
<title>Node8&#45;&gt;Node3</title>
<g id="a_edge13_Node000008_Node000003"><a xlink:title=" ">
<path fill="none" stroke="#63b8ff" d="M256.34,-236.97C239.52,-227.28 217.38,-214.52 202.88,-206.17"/>
<polygon fill="#63b8ff" stroke="#63b8ff" points="254.64,-240.03 265.05,-241.98 258.13,-233.96 254.64,-240.03"/>
</a>
</g>
</g>
<!-- Node8&#45;&gt;Node4 -->
<g id="edge14_Node000008_Node000004" class="edge">
<title>Node8&#45;&gt;Node4</title>
<g id="a_edge14_Node000008_Node000004"><a xlink:title=" ">
<path fill="none" stroke="#63b8ff" d="M199.12,-240.38C157.36,-233.3 112.51,-222.19 99.83,-206 54.42,-148 99.17,-48.7 114.26,-19.08"/>
<polygon fill="#63b8ff" stroke="#63b8ff" points="198.65,-243.85 209.08,-242 199.78,-236.94 198.65,-243.85"/>
</a>
</g>
</g>
<!-- Node8&#45;&gt;Node5 -->
<g id="edge15_Node000008_Node000005" class="edge">
<title>Node8&#45;&gt;Node5</title>
<g id="a_edge15_Node000008_Node000005"><a xlink:title=" ">
<path fill="none" stroke="#63b8ff" d="M282.33,-231.53C283.2,-218.37 282.61,-200.8 275.83,-187 268.51,-172.11 254.59,-159.77 242.34,-151.07"/>
<polygon fill="#63b8ff" stroke="#63b8ff" points="278.82,-231.45 281.3,-241.75 285.78,-232.15 278.82,-231.45"/>
</a>
</g>
</g>
<!-- Node8&#45;&gt;Node7 -->
<g id="edge16_Node000008_Node000007" class="edge">
<title>Node8&#45;&gt;Node7</title>
<g id="a_edge16_Node000008_Node000007"><a xlink:title=" ">
<path fill="none" stroke="#63b8ff" d="M294.18,-234.37C313.98,-212.12 349.37,-172.36 368.21,-151.18"/>
<polygon fill="#63b8ff" stroke="#63b8ff" points="291.45,-232.17 287.42,-241.97 296.68,-236.83 291.45,-232.17"/>
</a>
</g>
</g>
</g>
</svg>
</svg>

<style type='text/css'>
<![CDATA[
[data-mouse-over-selected='false'] { opacity: 0.7; }
[data-mouse-over-selected='true']  { opacity: 1.0; }
]]>
</style>
<script type="application/ecmascript"><![CDATA[
document.addEventListener('DOMContentLoaded', (event) => {
  highlightEdges();
  highlightAdjacentNodes();
});
]]></script>
</svg>
